<?xml version="1.0" encoding="utf-8"?>
<!-- Generator: Adobe Illustrator 27.9.0, SVG Export Plug-In . SVG Version: 6.00 Build 0)  -->
<svg version="1.1" id="Layer_1" xmlns="http://www.w3.org/2000/svg" xmlns:xlink="http://www.w3.org/1999/xlink" x="0px" y="0px"
	 viewBox="0 0 40 40" style="enable-background:new 0 0 40 40;" xml:space="preserve">
<style type="text/css">
	.st0{fill:#22D09F;}
	.st1{fill:#FFFFFF;}
</style>
<g>
	<path class="st0" d="M33,40H7c-3.9,0-7-3.1-7-7V7c0-3.9,3.1-7,7-7h26c3.9,0,7,3.1,7,7v26C40,36.9,36.9,40,33,40z"/>
	<path class="st1" d="M20,6.4C12.5,6.4,6.4,12.5,6.4,20S12.5,33.6,20,33.6S33.6,27.5,33.6,20S27.5,6.4,20,6.4z M20,31.5
		c-1.3,0-2.8-1.8-3.7-4.7h7.4C22.8,29.7,21.3,31.5,20,31.5z M15.8,24.7c-0.2-1.1-0.3-2.3-0.4-3.6h9.3c-0.1,1.3-0.2,2.5-0.4,3.6H15.8
		z M20,8.5c1.4,0,2.8,1.8,3.7,4.8h-7.4C17.2,10.3,18.6,8.5,20,8.5z M24.2,15.4c0.2,1.1,0.3,2.3,0.4,3.5h-9.3c0-1.3,0.2-2.4,0.4-3.5
		H24.2z M13.2,18.9H8.6c0.1-1.2,0.4-2.4,0.9-3.5l0,0h4.1C13.4,16.5,13.3,17.7,13.2,18.9z M8.6,21.1h4.7c0,1.2,0.2,2.4,0.4,3.6H9.5
		C9,23.5,8.7,22.3,8.6,21.1z M26.8,21.1h4.7c-0.1,1.3-0.4,2.5-0.9,3.6h-4.1C26.6,23.5,26.7,22.3,26.8,21.1z M26.8,18.9
		c0-1.2-0.2-2.4-0.4-3.5h4.1l0,0c0.5,1.1,0.8,2.3,0.9,3.5H26.8z M29.3,13.3h-3.4c-0.3-0.9-0.6-1.8-0.9-2.6c-0.2-0.5-0.4-0.9-0.7-1.3
		C26.3,10.2,28,11.5,29.3,13.3z M15.7,9.4c-0.2,0.4-0.5,0.8-0.7,1.3c-0.4,0.8-0.7,1.7-0.9,2.6h-3.4C12,11.5,13.7,10.2,15.7,9.4z
		 M10.8,26.8h3.3c0.3,0.9,0.6,1.7,0.9,2.5c0.2,0.5,0.4,0.9,0.7,1.3C13.7,29.8,12,28.5,10.8,26.8z M24.3,30.6
		c0.2-0.4,0.5-0.8,0.7-1.3c0.4-0.8,0.7-1.6,0.9-2.5h3.3C28,28.5,26.3,29.8,24.3,30.6z"/>
</g>
</svg>
