<?xml version="1.0" encoding="utf-8"?>
<!-- Generator: Adobe Illustrator 27.9.0, SVG Export Plug-In . SVG Version: 6.00 Build 0)  -->
<svg version="1.1" id="Layer_1" xmlns="http://www.w3.org/2000/svg" xmlns:xlink="http://www.w3.org/1999/xlink" x="0px" y="0px"
	 viewBox="0 0 274 40" style="enable-background:new 0 0 274 40;" xml:space="preserve">
<style type="text/css">
	.st0{enable-background:new    ;}
	.st1{fill:#FFFFFF;}
	.st2{fill:#22D09F;}
</style>
<g class="st0">
	<path class="st1" d="M69,31.4V21.3H56.6v10.1h-3.4V8.9h3.4v9.5H69V8.9h3.4v22.5H69z"/>
	<path class="st1" d="M85.6,31.4v-1.8c-1.3,1.4-3.1,2.2-5.3,2.2c-2.7,0-5.7-1.8-5.7-5.4c0-3.7,2.9-5.3,5.7-5.3
		c2.2,0,4.1,0.7,5.3,2.2v-2.7c0-2-1.7-3.2-4-3.2c-1.9,0-3.4,0.7-4.9,2.2l-1.3-2.1c1.8-1.8,4.1-2.7,6.7-2.7c3.5,0,6.6,1.6,6.6,5.7v11
		h-3.1V31.4z M85.6,25.1c-0.9-1.2-2.5-1.9-4.2-1.9c-2.2,0-3.7,1.3-3.7,3.2s1.6,3.2,3.7,3.2c1.7,0,3.3-0.6,4.2-1.9V25.1z"/>
	<path class="st1" d="M102.6,31.4V21c0-2.7-1.4-3.6-3.5-3.6c-1.9,0-3.6,1.1-4.5,2.4v11.6h-3V15.1h3v2.3c1.1-1.3,3.2-2.7,5.8-2.7
		c3.4,0,5.2,1.8,5.2,5.3v11.4H102.6z"/>
	<path class="st1" d="M120.4,31.4v-2.3c-1.2,1.6-3.2,2.7-5.3,2.7c-4.3,0-7.3-3.2-7.3-8.5c0-5.2,3-8.6,7.3-8.6c2.1,0,4,1,5.3,2.8V8.9
		h3v22.5H120.4z M120.4,19.8c-0.8-1.3-2.7-2.4-4.5-2.4c-3,0-4.9,2.5-4.9,5.9s1.9,5.8,4.9,5.8c1.9,0,3.7-1,4.5-2.4V19.8z"/>
	<path class="st1" d="M127.4,35.1c0.4,0.2,0.9,0.3,1.4,0.3c1.1,0,1.9-0.4,2.4-1.6l0.9-2.2l-6.7-16.5h3.2l5.1,12.8l5.1-12.8h3.3
		l-8,19.4c-1,2.6-2.8,3.5-5.2,3.5c-0.5,0-1.4-0.1-1.9-0.2L127.4,35.1z"/>
</g>
<g class="st0">
	<path class="st1" d="M149.7,25.6c1.5,1.7,4,3.2,7.1,3.2c3.6,0,4.9-1.9,4.9-3.5c0-2.4-2.6-3-5.4-3.8c-3.6-0.9-7.8-2-7.8-6.6
		c0-3.7,3.3-6.4,8-6.4c3.5,0,6.2,1.1,8.2,3.1l-2,2.5c-1.7-1.8-4.1-2.6-6.5-2.6c-2.5,0-4.2,1.3-4.2,3.2c0,2,2.4,2.7,5.2,3.4
		c3.7,1,8,2.1,8,6.9c0,3.5-2.4,6.8-8.5,6.8c-4,0-7-1.5-8.9-3.6L149.7,25.6z"/>
	<path class="st1" d="M166.7,23.2c0-4.7,3.2-8.5,8.2-8.5c5.1,0,8.2,3.8,8.2,8.5s-3.1,8.6-8.2,8.6C169.9,31.8,166.7,28,166.7,23.2z
		 M180,23.2c0-3.1-1.8-5.8-5.1-5.8c-3.2,0-5.1,2.8-5.1,5.8c0,3.1,1.8,5.9,5.1,5.9S180,26.3,180,23.2z"/>
	<path class="st1" d="M185.8,31.4V8.9h3v22.5H185.8z"/>
	<path class="st1" d="M203.4,31.4v-2.2c-1.2,1.4-3.3,2.6-5.8,2.6c-3.5,0-5.2-1.8-5.2-5.2V15.1h3v10.5c0,2.7,1.4,3.5,3.4,3.5
		c1.9,0,3.6-1.1,4.5-2.3V15.1h3v16.3H203.4z"/>
	<path class="st1" d="M211.2,27.8v-10h-2.7v-2.7h2.7v-4.5h3v4.5h3.3v2.7h-3.3v9.4c0,1.1,0.5,2,1.6,2c0.7,0,1.4-0.3,1.7-0.6l0.8,2.3
		c-0.6,0.6-1.6,1-3.2,1C212.5,31.8,211.2,30.4,211.2,27.8z"/>
	<path class="st1" d="M219.9,10.4c0-1.1,0.9-2,2-2s2,0.9,2,2s-0.9,1.9-2,1.9C220.8,12.4,219.9,11.5,219.9,10.4z M220.3,31.4V15.1h3
		v16.3H220.3z"/>
	<path class="st1" d="M225.9,23.2c0-4.7,3.2-8.5,8.2-8.5c5.1,0,8.2,3.8,8.2,8.5s-3.1,8.6-8.2,8.6C229.1,31.8,225.9,28,225.9,23.2z
		 M239.2,23.2c0-3.1-1.8-5.8-5.1-5.8c-3.2,0-5.1,2.8-5.1,5.8c0,3.1,1.8,5.9,5.1,5.9S239.2,26.3,239.2,23.2z"/>
	<path class="st1" d="M255.5,31.4V21c0-2.7-1.4-3.6-3.5-3.6c-1.9,0-3.6,1.1-4.5,2.4v11.6h-3V15.1h3v2.3c1.1-1.3,3.2-2.7,5.8-2.7
		c3.4,0,5.2,1.8,5.2,5.3v11.4H255.5z"/>
	<path class="st1" d="M262.1,27c1.1,1.2,3.3,2.3,5.5,2.3c2.3,0,3.5-0.9,3.5-2.3c0-1.6-1.9-2.2-4-2.6c-2.8-0.6-6-1.4-6-4.9
		c0-2.6,2.2-4.8,6.2-4.8c2.8,0,4.8,1,6.2,2.3l-1.4,2.1c-0.9-1.1-2.8-2-4.8-2S264,18,264,19.3c0,1.4,1.8,1.9,3.8,2.4
		c2.8,0.6,6.2,1.4,6.2,5.2c0,2.8-2.3,5-6.6,5c-2.7,0-5.1-0.8-6.8-2.5L262.1,27z"/>
</g>
<g>
	<path class="st2" d="M33,40H7c-3.9,0-7-3.1-7-7V7c0-3.9,3.1-7,7-7h26c3.9,0,7,3.1,7,7v26C40,36.9,36.9,40,33,40z"/>
	<path class="st1" d="M20,6.4C12.5,6.4,6.4,12.5,6.4,20S12.5,33.6,20,33.6S33.6,27.5,33.6,20S27.5,6.4,20,6.4z M20,31.5
		c-1.3,0-2.8-1.8-3.7-4.7h7.4C22.8,29.7,21.3,31.5,20,31.5z M15.8,24.7c-0.2-1.1-0.3-2.3-0.4-3.6h9.3c-0.1,1.3-0.2,2.5-0.4,3.6H15.8
		z M20,8.5c1.4,0,2.8,1.8,3.7,4.8h-7.4C17.2,10.3,18.6,8.5,20,8.5z M24.2,15.4c0.2,1.1,0.3,2.3,0.4,3.5h-9.3c0-1.3,0.2-2.4,0.4-3.5
		H24.2z M13.2,18.9H8.6c0.1-1.2,0.4-2.4,0.9-3.5l0,0h4.1C13.4,16.5,13.3,17.7,13.2,18.9z M8.6,21.1h4.7c0,1.2,0.2,2.4,0.4,3.6H9.5
		C9,23.5,8.7,22.3,8.6,21.1z M26.8,21.1h4.7c-0.1,1.3-0.4,2.5-0.9,3.6h-4.1C26.6,23.5,26.7,22.3,26.8,21.1z M26.8,18.9
		c0-1.2-0.2-2.4-0.4-3.5h4.1l0,0c0.5,1.1,0.8,2.3,0.9,3.5H26.8z M29.3,13.3h-3.4c-0.3-0.9-0.6-1.8-0.9-2.6c-0.2-0.5-0.4-0.9-0.7-1.3
		C26.3,10.2,28,11.5,29.3,13.3z M15.7,9.4c-0.2,0.4-0.5,0.8-0.7,1.3c-0.4,0.8-0.7,1.7-0.9,2.6h-3.4C12,11.5,13.7,10.2,15.7,9.4z
		 M10.8,26.8h3.3c0.3,0.9,0.6,1.7,0.9,2.5c0.2,0.5,0.4,0.9,0.7,1.3C13.7,29.8,12,28.5,10.8,26.8z M24.3,30.6
		c0.2-0.4,0.5-0.8,0.7-1.3c0.4-0.8,0.7-1.6,0.9-2.5h3.3C28,28.5,26.3,29.8,24.3,30.6z"/>
</g>
</svg>
