<?xml version="1.0" encoding="utf-8"?>
<!-- Generator: Adobe Illustrator 27.9.0, SVG Export Plug-In . SVG Version: 6.00 Build 0)  -->
<svg version="1.1" id="Layer_1" xmlns="http://www.w3.org/2000/svg" xmlns:xlink="http://www.w3.org/1999/xlink" x="0px" y="0px"
	 viewBox="0 0 40 40" style="enable-background:new 0 0 40 40;" xml:space="preserve">
<g>
	<path d="M15,10.7c0.2-0.5,0.5-0.9,0.7-1.3c-2,0.8-3.7,2.1-5,3.9h3.4C14.3,12.4,14.6,11.5,15,10.7z"/>
	<path d="M13.6,15.4H9.5c-0.5,1.1-0.8,2.3-0.9,3.5h4.6C13.3,17.7,13.4,16.5,13.6,15.4z"/>
	<path d="M13.3,21.1H8.6c0.1,1.2,0.4,2.4,0.9,3.6h4.2C13.5,23.5,13.3,22.3,13.3,21.1z"/>
	<path d="M20,8.5c-1.4,0-2.8,1.8-3.7,4.8h7.4C22.8,10.3,21.4,8.5,20,8.5z"/>
	<path d="M25.9,13.3h3.4c-1.3-1.8-3-3.1-5-3.9c0.3,0.4,0.5,0.8,0.7,1.3C25.3,11.5,25.6,12.4,25.9,13.3z"/>
	<path d="M14.1,26.8h-3.3c1.2,1.7,2.9,3,4.9,3.8c-0.3-0.4-0.5-0.8-0.7-1.3C14.7,28.5,14.4,27.7,14.1,26.8z"/>
	<path d="M15.3,18.9h9.3c-0.1-1.2-0.2-2.4-0.4-3.5h-8.5C15.5,16.5,15.3,17.6,15.3,18.9z"/>
	<path d="M26.5,24.7h4.1c0.5-1.1,0.8-2.3,0.9-3.6h-4.7C26.7,22.3,26.6,23.5,26.5,24.7z"/>
	<path d="M26.8,18.9h4.6c-0.1-1.2-0.4-2.4-0.9-3.5h-4.1C26.6,16.5,26.8,17.7,26.8,18.9z"/>
	<path d="M33,0H7C3.1,0,0,3.1,0,7v26c0,3.9,3.1,7,7,7h26c3.9,0,7-3.1,7-7V7C40,3.1,36.9,0,33,0z M20,33.6c-7.5,0-13.6-6.1-13.6-13.6
		S12.5,6.4,20,6.4S33.6,12.5,33.6,20S27.5,33.6,20,33.6z"/>
	<path d="M25,29.3c-0.2,0.5-0.5,0.9-0.7,1.3c2-0.8,3.7-2.1,4.9-3.8h-3.3C25.7,27.7,25.4,28.5,25,29.3z"/>
	<path d="M20,31.5c1.3,0,2.8-1.8,3.7-4.7h-7.4C17.2,29.7,18.7,31.5,20,31.5z"/>
	<path d="M24.7,21.1h-9.3c0.1,1.3,0.2,2.5,0.4,3.6h8.5C24.5,23.6,24.6,22.4,24.7,21.1z"/>
</g>
</svg>
