<svg id="Layer_1" data-name="Layer 1" xmlns="http://www.w3.org/2000/svg" xmlns:xlink="http://www.w3.org/1999/xlink" viewBox="0 0 252.57 87.32"><defs><style>.cls-1{fill:#1468ad;}.cls-2,.cls-4{opacity:0.66;}.cls-2{fill:url(#New_Gradient_Swatch_1);}.cls-3{fill:#3aa5cb;opacity:0.69;}.cls-4{fill:#929497;}</style><linearGradient id="New_Gradient_Swatch_1" y1="43.85" x2="34.28" y2="43.85" gradientUnits="userSpaceOnUse"><stop offset="0" stop-color="#d62027"/><stop offset="1" stop-color="#ad1a24"/></linearGradient></defs><title>gfis-icon-color</title><path class="cls-1" d="M171.11,22.83l-8.82,8.73q-8.37-8.86-19.52-8.86a22.34,22.34,0,0,0-16.28,6.44,21.15,21.15,0,0,0-6.55,15.66A21.67,21.67,0,0,0,126.74,61a23.17,23.17,0,0,0,16.79,6.62,20.59,20.59,0,0,0,10.95-2.73,19.21,19.21,0,0,0,7.19-8.55H142.61V44.53h33.11l.09,2.77a32.16,32.16,0,0,1-4.48,16.38,31.3,31.3,0,0,1-11.58,11.81,33.07,33.07,0,0,1-16.69,4.07,37.11,37.11,0,0,1-18.27-4.45,32.64,32.64,0,0,1-12.71-12.69,35.39,35.39,0,0,1-4.67-17.76A33,33,0,0,1,116,21.94q10.24-11.49,26.66-11.5a40.56,40.56,0,0,1,16.06,3.18A36.87,36.87,0,0,1,171.11,22.83Z" transform="translate(-10.54 -1.34)"/><path class="cls-1" d="M173.19,12.1h32.65V24.31H185.63V36.25h20.21v12H185.63V77.9H173.19Z" transform="translate(-10.54 -1.34)"/><path class="cls-1" d="M210,12.1h12.44V77.9H210Z" transform="translate(-10.54 -1.34)"/><path class="cls-1" d="M261.94,21.05l-9.27,8.18q-4.89-6.8-9.95-6.8a6.06,6.06,0,0,0-4,1.32,3.86,3.86,0,0,0-1.57,3,5.1,5.1,0,0,0,1.13,3.13q1.51,2,9.18,8.45,7.17,6,8.69,7.56a26.27,26.27,0,0,1,5.4,7.36,18.39,18.39,0,0,1,1.6,7.67,17.61,17.61,0,0,1-5.6,13.38q-5.59,5.28-14.6,5.28a21.7,21.7,0,0,1-12.25-3.45q-5.22-3.44-8.93-10.82l10.53-6.36q4.74,8.73,10.93,8.73a8.07,8.07,0,0,0,5.42-1.88,5.59,5.59,0,0,0,2.19-4.34A7.5,7.5,0,0,0,249.15,57a47.8,47.8,0,0,0-7.31-6.85Q231.08,41.36,228,36.59a17.2,17.2,0,0,1-3.14-9.51A15.55,15.55,0,0,1,230,15.34a18.13,18.13,0,0,1,12.88-4.9,20.33,20.33,0,0,1,9.38,2.28Q256.75,15,261.94,21.05Z" transform="translate(-10.54 -1.34)"/><polygon class="cls-1" points="79.98 43.72 23.51 11.12 23.51 76.32 79.98 43.72"/><polygon class="cls-2" points="34.28 43.85 0 24.06 0 63.65 34.28 43.85"/><polygon class="cls-3" points="89.86 64.32 50.02 41.33 50.02 87.32 89.86 64.32"/><polygon class="cls-4" points="61.36 13.95 37.2 0 37.2 27.9 61.36 13.95"/></svg>