<?xml version="1.0" encoding="utf-8"?>
<!-- Generator: Adobe Illustrator 27.9.0, SVG Export Plug-In . SVG Version: 6.00 Build 0)  -->
<svg version="1.1" id="Layer_1" xmlns="http://www.w3.org/2000/svg" xmlns:xlink="http://www.w3.org/1999/xlink" x="0px" y="0px"
	 viewBox="0 0 273.6 126.2" style="enable-background:new 0 0 273.6 126.2;" xml:space="preserve">
<style type="text/css">
	.st0{fill:#FFFFFF;}
	.st1{opacity:0.9;fill:#FFFFFF;enable-background:new    ;}
	.st2{opacity:0.66;fill:#FFFFFF;enable-background:new    ;}
	.st3{opacity:0.69;fill:#FFFFFF;enable-background:new    ;}
</style>
<g>
	<path class="st0" d="M163.6,22l-8.8,8.7c-5.6-5.9-12.1-8.9-19.5-8.9c-6.5,0-11.9,2.1-16.3,6.4c-4.4,4.3-6.6,9.5-6.6,15.7
		c0,6.3,2.3,11.7,6.8,16.2c4.5,4.4,10.1,6.6,16.8,6.6c4.3,0,8-0.9,10.9-2.7c3-1.8,5.4-4.7,7.2-8.5h-19.1V43.7h33.1l0.1,2.8
		c0,5.8-1.5,11.2-4.5,16.4s-6.8,9.1-11.6,11.8c-4.7,2.7-10.3,4.1-16.7,4.1c-6.8,0-12.9-1.5-18.3-4.4c-5.3-3-9.6-7.2-12.7-12.7
		c-3.1-5.5-4.7-11.4-4.7-17.8c0-8.7,2.9-16.3,8.6-22.7c6.8-7.7,15.7-11.5,26.7-11.5c5.7,0,11.1,1.1,16.1,3.2
		C155.5,14.6,159.6,17.6,163.6,22z"/>
	<path class="st0" d="M165.7,11.3h32.6v12.2h-20.2v11.9h20.2v12h-20.2v29.6h-12.4L165.7,11.3L165.7,11.3z"/>
	<path class="st0" d="M202.5,11.3H215v65.8h-12.4V11.3z"/>
	<path class="st0" d="M254.4,20.2l-9.3,8.2c-3.3-4.5-6.6-6.8-9.9-6.8c-1.6,0-3,0.4-4,1.3c-1.1,0.9-1.6,1.9-1.6,3
		c0,1.1,0.4,2.1,1.1,3.1c1,1.3,4.1,4.1,9.2,8.5c4.8,4,7.7,6.5,8.7,7.6c2.5,2.6,4.3,5,5.4,7.4s1.6,4.9,1.6,7.7
		c0,5.4-1.9,9.9-5.6,13.4s-8.6,5.3-14.6,5.3c-4.7,0-8.8-1.2-12.2-3.4c-3.5-2.3-6.5-5.9-8.9-10.8l10.5-6.3c3.2,5.8,6.8,8.7,10.9,8.7
		c2.1,0,4-0.6,5.4-1.9c1.5-1.2,2.2-2.7,2.2-4.3c0-1.5-0.6-3-1.7-4.5s-3.5-3.8-7.3-6.8c-7.2-5.8-11.8-10.4-13.9-13.5
		c-2.1-3.2-3.1-6.3-3.1-9.5c0-4.6,1.7-8.5,5.2-11.7c3.5-3.3,7.8-4.9,12.9-4.9c3.3,0,6.4,0.8,9.4,2.3C247.8,13.4,251,16.2,254.4,20.2
		z"/>
</g>
<polygon class="st1" points="83,47.7 26.5,15.1 26.5,80.3 "/>
<polygon class="st2" points="37.3,47.8 3,28 3,67.6 "/>
<polygon class="st3" points="92.9,68.3 53,45.3 53,91.3 "/>
<polygon class="st2" points="64.4,17.9 40.2,4 40.2,31.9 "/>
<g>
	<path class="st0" d="M110.3,91l-1.2,1.2c-0.9-0.9-1.9-1.5-2.9-2c-1.1-0.4-2.1-0.7-3.1-0.7c-1.3,0-2.4,0.3-3.6,0.9
		c-1.1,0.6-2,1.4-2.6,2.5c-0.6,1.1-0.9,2.2-0.9,3.3c0,1.2,0.3,2.3,1,3.4s1.5,1.9,2.7,2.6c1.1,0.6,2.4,0.9,3.7,0.9
		c1.7,0,3-0.5,4.2-1.4s1.8-2.1,2-3.6h-5.1v-1.6h6.9c0,2.5-0.8,4.4-2.2,5.9s-3.4,2.2-5.8,2.2c-3,0-5.3-1-7-3c-1.3-1.6-2-3.3-2-5.4
		c0-1.5,0.4-2.9,1.1-4.2c0.8-1.3,1.8-2.3,3.1-3.1c1.3-0.7,2.8-1.1,4.5-1.1c1.4,0,2.6,0.2,3.8,0.7C108,89.2,109.1,89.9,110.3,91z"/>
	<path class="st0" d="M113.8,87.9h1.5v16.4h-1.5V87.9z"/>
	<path class="st0" d="M124.1,92.2c1.8,0,3.3,0.7,4.5,2c1.1,1.2,1.6,2.6,1.6,4.3s-0.6,3.1-1.7,4.3s-2.6,1.9-4.4,1.9
		c-1.8,0-3.3-0.6-4.4-1.9s-1.7-2.7-1.7-4.3c0-1.6,0.5-3.1,1.6-4.3C120.7,92.9,122.3,92.2,124.1,92.2z M124.1,93.7
		c-1.3,0-2.4,0.5-3.3,1.4c-0.9,0.9-1.4,2.1-1.4,3.4c0,0.9,0.2,1.7,0.6,2.4c0.4,0.7,1,1.3,1.7,1.7s1.5,0.6,2.3,0.6
		c0.8,0,1.6-0.2,2.3-0.6s1.3-1,1.7-1.7c0.4-0.7,0.6-1.5,0.6-2.4c0-1.3-0.5-2.5-1.4-3.4C126.4,94.2,125.3,93.7,124.1,93.7z"/>
	<path class="st0" d="M133.2,104.4V87.9h1.5v6.6c0.6-0.8,1.4-1.4,2.1-1.8s1.7-0.6,2.6-0.6c1.7,0,3.1,0.6,4.3,1.8s1.8,2.7,1.8,4.4
		c0,1.7-0.6,3.2-1.8,4.4c-1.2,1.2-2.6,1.8-4.3,1.8c-1,0-1.8-0.2-2.6-0.6s-1.5-1-2.1-1.9v2.2C134.7,104.4,133.2,104.4,133.2,104.4z
		 M139.3,103.2c0.9,0,1.6-0.2,2.4-0.6s1.3-1,1.7-1.8c0.4-0.8,0.6-1.6,0.6-2.4s-0.2-1.6-0.6-2.4c-0.4-0.8-1-1.4-1.7-1.8
		s-1.5-0.6-2.3-0.6c-0.8,0-1.6,0.2-2.4,0.6c-0.8,0.4-1.3,1-1.7,1.7c-0.4,0.7-0.6,1.5-0.6,2.4c0,1.4,0.4,2.5,1.4,3.4
		C136.9,102.7,138,103.2,139.3,103.2z"/>
	<path class="st0" d="M160.1,92.5v11.8h-1.5v-2c-0.6,0.8-1.4,1.4-2.1,1.8s-1.7,0.6-2.6,0.6c-1.7,0-3.1-0.6-4.3-1.8
		c-1.2-1.2-1.8-2.7-1.8-4.4c0-1.7,0.6-3.2,1.8-4.4s2.6-1.8,4.3-1.8c1,0,1.9,0.2,2.6,0.6s1.5,1,2.1,1.9v-2.2L160.1,92.5L160.1,92.5z
		 M154,93.7c-0.9,0-1.6,0.2-2.4,0.6s-1.3,1-1.7,1.8c-0.4,0.8-0.6,1.6-0.6,2.4c0,0.8,0.2,1.6,0.6,2.4s1,1.3,1.7,1.8
		c0.7,0.4,1.5,0.6,2.3,0.6c0.8,0,1.6-0.2,2.4-0.6s1.3-1,1.7-1.7s0.6-1.5,0.6-2.4c0-1.4-0.4-2.5-1.4-3.4
		C156.4,94.1,155.3,93.7,154,93.7z"/>
	<path class="st0" d="M163.3,87.9h1.5v16.4h-1.5V87.9z"/>
	<path class="st0" d="M174.4,88.3h8v1.6H176v5h6.4v1.6H176v7.9h-1.6V88.3z"/>
	<path class="st0" d="M185.5,87.6c0.4,0,0.6,0.1,0.9,0.4s0.4,0.5,0.4,0.9c0,0.3-0.1,0.6-0.4,0.9c-0.2,0.2-0.5,0.4-0.9,0.4
		c-0.3,0-0.6-0.1-0.9-0.4s-0.4-0.5-0.4-0.9c0-0.3,0.1-0.7,0.4-0.9C184.9,87.8,185.1,87.6,185.5,87.6z M184.7,92.5h1.5v11.8h-1.5
		V92.5z"/>
	<path class="st0" d="M189.4,92.5h1.5v2.1c0.6-0.8,1.3-1.4,2-1.8c0.7-0.4,1.6-0.6,2.4-0.6c0.9,0,1.7,0.2,2.4,0.7s1.2,1.1,1.5,1.8
		s0.5,1.9,0.5,3.6v6.1h-1.5v-5.7c0-1.4-0.1-2.3-0.2-2.7c-0.2-0.8-0.5-1.4-1-1.8s-1.1-0.6-2-0.6c-0.9,0-1.8,0.3-2.5,0.9
		s-1.2,1.4-1.4,2.3c-0.1,0.6-0.2,1.7-0.2,3.2v4.3h-1.5V92.5z"/>
	<path class="st0" d="M214.8,92.5v11.8h-1.5v-2c-0.6,0.8-1.4,1.4-2.1,1.8s-1.7,0.6-2.6,0.6c-1.7,0-3.1-0.6-4.3-1.8
		c-1.2-1.2-1.8-2.7-1.8-4.4c0-1.7,0.6-3.2,1.8-4.4s2.6-1.8,4.3-1.8c1,0,1.9,0.2,2.6,0.6s1.5,1,2.1,1.9v-2.2L214.8,92.5L214.8,92.5z
		 M208.7,93.7c-0.9,0-1.6,0.2-2.4,0.6s-1.3,1-1.7,1.8c-0.4,0.8-0.6,1.6-0.6,2.4c0,0.8,0.2,1.6,0.6,2.4s1,1.3,1.7,1.8
		c0.7,0.4,1.5,0.6,2.3,0.6c0.8,0,1.6-0.2,2.4-0.6s1.3-1,1.7-1.7s0.6-1.5,0.6-2.4c0-1.4-0.4-2.5-1.4-3.4
		C211.1,94.1,210,93.7,208.7,93.7z"/>
	<path class="st0" d="M218.2,92.5h1.5v2.1c0.6-0.8,1.3-1.4,2-1.8c0.7-0.4,1.6-0.6,2.4-0.6c0.9,0,1.7,0.2,2.4,0.7s1.2,1.1,1.5,1.8
		s0.5,1.9,0.5,3.6v6.1h-1.5v-5.7c0-1.4-0.1-2.3-0.2-2.7c-0.2-0.8-0.5-1.4-1-1.8s-1.1-0.6-2-0.6c-0.9,0-1.8,0.3-2.5,0.9
		s-1.2,1.4-1.4,2.3c-0.1,0.6-0.2,1.7-0.2,3.2v4.3h-1.5V92.5z"/>
	<path class="st0" d="M243.3,95l-1.2,0.8c-1-1.4-2.5-2.1-4.3-2.1c-1.4,0-2.6,0.5-3.6,1.4s-1.4,2.1-1.4,3.4c0,0.9,0.2,1.7,0.7,2.4
		s1,1.3,1.8,1.8c0.8,0.4,1.6,0.6,2.6,0.6c1.7,0,3.2-0.7,4.3-2.1l1.2,0.8c-0.6,0.8-1.3,1.5-2.3,2s-2,0.7-3.3,0.7
		c-1.9,0-3.4-0.6-4.7-1.8c-1.2-1.2-1.9-2.6-1.9-4.3c0-1.2,0.3-2.2,0.9-3.2c0.6-1,1.4-1.8,2.4-2.3s2.1-0.8,3.4-0.8
		c0.8,0,1.5,0.1,2.3,0.4c0.7,0.2,1.4,0.6,1.9,0.9S243,94.4,243.3,95z"/>
	<path class="st0" d="M246.8,87.6c0.4,0,0.6,0.1,0.9,0.4s0.4,0.5,0.4,0.9c0,0.3-0.1,0.6-0.4,0.9c-0.2,0.2-0.5,0.4-0.9,0.4
		c-0.3,0-0.6-0.1-0.9-0.4s-0.4-0.5-0.4-0.9c0-0.3,0.1-0.7,0.4-0.9C246.2,87.8,246.4,87.6,246.8,87.6z M246,92.5h1.5v11.8H246V92.5z"
		/>
	<path class="st0" d="M262.5,92.5v11.8H261v-2c-0.6,0.8-1.4,1.4-2.1,1.8s-1.7,0.6-2.6,0.6c-1.7,0-3.1-0.6-4.3-1.8
		c-1.2-1.2-1.8-2.7-1.8-4.4c0-1.7,0.6-3.2,1.8-4.4s2.6-1.8,4.3-1.8c1,0,1.9,0.2,2.6,0.6s1.5,1,2.1,1.9v-2.2L262.5,92.5L262.5,92.5z
		 M256.4,93.7c-0.9,0-1.6,0.2-2.4,0.6s-1.3,1-1.7,1.8c-0.4,0.8-0.6,1.6-0.6,2.4c0,0.8,0.2,1.6,0.6,2.4s1,1.3,1.7,1.8
		c0.7,0.4,1.5,0.6,2.3,0.6c0.8,0,1.6-0.2,2.4-0.6s1.3-1,1.7-1.7s0.6-1.5,0.6-2.4c0-1.4-0.5-2.5-1.4-3.4
		C258.9,94.1,257.8,93.7,256.4,93.7z"/>
	<path class="st0" d="M265.7,87.9h1.5v16.4h-1.5V87.9z"/>
	<path class="st0" d="M94.3,109.1h1.3v13.1h-1.3V109.1z"/>
	<path class="st0" d="M98.4,112.5h1.2v1.7c0.5-0.7,1.1-1.2,1.7-1.5s1.3-0.5,2-0.5c0.7,0,1.4,0.2,1.9,0.6s1,0.9,1.2,1.5
		s0.4,1.6,0.4,2.9v5h-1.2v-4.6c0-1.1-0.1-1.9-0.1-2.2c-0.2-0.6-0.4-1.1-0.8-1.4s-0.9-0.5-1.6-0.5c-0.8,0-1.4,0.2-2,0.8
		s-1,1.1-1.2,1.9c-0.1,0.5-0.2,1.4-0.2,2.6v3.6h-1.2C98.4,122.2,98.4,112.5,98.4,112.5z"/>
	<path class="st0" d="M113.6,108.7v1.2c-0.5-0.2-0.8-0.3-1.2-0.3c-0.2,0-0.4,0.1-0.6,0.2s-0.3,0.2-0.3,0.3s-0.1,0.5-0.1,1v1.3h2v1.1
		h-2l0,8.6h-1.2v-8.6h-1.3v-1.1h1.3V111c0-0.7,0.1-1.2,0.2-1.5c0.1-0.3,0.3-0.5,0.7-0.7s0.7-0.3,1.1-0.3
		C112.5,108.5,113,108.6,113.6,108.7z"/>
	<path class="st0" d="M119.9,112.2c1.5,0,2.7,0.5,3.7,1.6c0.9,1,1.3,2.2,1.3,3.5c0,1.4-0.5,2.5-1.4,3.6c-0.9,1-2.2,1.5-3.6,1.5
		c-1.5,0-2.7-0.5-3.7-1.5c-0.9-1-1.4-2.2-1.4-3.6c0-1.3,0.4-2.5,1.3-3.5C117.1,112.8,118.4,112.2,119.9,112.2z M119.9,113.4
		c-1,0-1.9,0.4-2.7,1.2c-0.8,0.8-1.1,1.7-1.1,2.8c0,0.7,0.2,1.4,0.5,2c0.3,0.6,0.8,1.1,1.4,1.4c0.6,0.3,1.2,0.5,1.9,0.5
		s1.3-0.2,1.9-0.5s1-0.8,1.4-1.4s0.5-1.3,0.5-2c0-1.1-0.4-2-1.1-2.8C121.8,113.8,120.9,113.4,119.9,113.4z"/>
	<path class="st0" d="M126.8,112.5h1.3v1.4c0.4-0.6,0.8-1,1.2-1.2c0.4-0.3,0.9-0.4,1.3-0.4c0.3,0,0.7,0.1,1.1,0.3l-0.6,1.1
		c-0.3-0.1-0.5-0.2-0.7-0.2c-0.4,0-0.8,0.2-1.2,0.5c-0.4,0.3-0.7,0.9-0.9,1.6c-0.1,0.6-0.2,1.7-0.2,3.4v3.3h-1.3L126.8,112.5
		L126.8,112.5z"/>
	<path class="st0" d="M133.3,112.5h1.2v1.7c0.4-0.6,0.9-1.1,1.3-1.4c0.6-0.4,1.3-0.6,2-0.6c0.5,0,0.9,0.1,1.3,0.3s0.8,0.4,1,0.7
		c0.3,0.3,0.5,0.8,0.7,1.3c0.4-0.8,0.9-1.3,1.6-1.7c0.6-0.4,1.3-0.6,2-0.6c0.7,0,1.3,0.2,1.8,0.5c0.5,0.3,0.9,0.8,1.1,1.4
		s0.4,1.5,0.4,2.7v5.3h-1.3v-5.3c0-1-0.1-1.8-0.2-2.2s-0.4-0.7-0.8-0.9c-0.4-0.2-0.8-0.4-1.3-0.4c-0.6,0-1.2,0.2-1.7,0.5
		s-0.9,0.8-1.1,1.4c-0.2,0.6-0.4,1.6-0.4,3v3.8h-1.2v-5c0-1.2-0.1-2-0.2-2.4s-0.4-0.8-0.8-1s-0.8-0.4-1.3-0.4
		c-0.6,0-1.1,0.2-1.6,0.5s-0.9,0.8-1.1,1.4c-0.2,0.6-0.4,1.5-0.4,2.7v4.1h-1.2L133.3,112.5L133.3,112.5z"/>
	<path class="st0" d="M160.1,112.5v9.7h-1.2v-1.7c-0.5,0.6-1.1,1.1-1.8,1.4s-1.4,0.5-2.1,0.5c-1.4,0-2.6-0.5-3.5-1.5
		s-1.5-2.2-1.5-3.6c0-1.4,0.5-2.6,1.5-3.6c1-1,2.2-1.5,3.5-1.5c0.8,0,1.5,0.2,2.2,0.5s1.2,0.8,1.7,1.5v-1.8L160.1,112.5L160.1,112.5
		z M155.1,113.4c-0.7,0-1.3,0.2-1.9,0.5c-0.6,0.3-1.1,0.8-1.4,1.4s-0.5,1.3-0.5,2c0,0.7,0.2,1.3,0.5,2s0.8,1.1,1.4,1.5
		s1.2,0.5,1.9,0.5c0.7,0,1.3-0.2,1.9-0.5s1.1-0.8,1.4-1.4c0.3-0.6,0.5-1.2,0.5-2c0-1.1-0.4-2.1-1.1-2.8S156.2,113.4,155.1,113.4z"/>
	<path class="st0" d="M164,108.9h1.2v3.6h2v1.1h-2v8.6H164v-8.6h-1.7v-1.1h1.7V108.9z"/>
	<path class="st0" d="M169.5,108.5c0.3,0,0.5,0.1,0.7,0.3c0.2,0.2,0.3,0.4,0.3,0.7c0,0.3-0.1,0.5-0.3,0.7c-0.2,0.2-0.4,0.3-0.7,0.3
		c-0.3,0-0.5-0.1-0.7-0.3s-0.3-0.4-0.3-0.7c0-0.3,0.1-0.5,0.3-0.7S169.2,108.5,169.5,108.5z M168.9,112.5h1.2v9.7h-1.2V112.5z"/>
	<path class="st0" d="M177.4,112.2c1.5,0,2.7,0.5,3.7,1.6c0.9,1,1.3,2.2,1.3,3.5c0,1.4-0.5,2.5-1.4,3.6c-0.9,1-2.2,1.5-3.6,1.5
		c-1.5,0-2.7-0.5-3.6-1.5c-0.9-1-1.4-2.2-1.4-3.6c0-1.3,0.4-2.5,1.3-3.5C174.6,112.8,175.9,112.2,177.4,112.2z M177.4,113.4
		c-1,0-1.9,0.4-2.7,1.2c-0.8,0.8-1.1,1.7-1.1,2.8c0,0.7,0.2,1.4,0.5,2c0.3,0.6,0.8,1.1,1.4,1.4s1.2,0.5,1.9,0.5s1.3-0.2,1.9-0.5
		s1-0.8,1.4-1.4c0.3-0.6,0.5-1.3,0.5-2c0-1.1-0.4-2-1.1-2.8C179.3,113.8,178.4,113.4,177.4,113.4z"/>
	<path class="st0" d="M184.7,112.5h1.2v1.7c0.5-0.7,1.1-1.2,1.7-1.5s1.3-0.5,2-0.5c0.7,0,1.4,0.2,1.9,0.6s1,0.9,1.2,1.5
		s0.4,1.6,0.4,2.9v5h-1.2v-4.6c0-1.1-0.1-1.9-0.1-2.2c-0.1-0.6-0.4-1.1-0.8-1.4s-0.9-0.5-1.6-0.5c-0.8,0-1.4,0.2-2,0.8
		s-1,1.1-1.2,1.9c-0.1,0.5-0.2,1.4-0.2,2.6v3.6h-1.2V112.5z"/>
	<path class="st0" d="M199.8,119.8l1.1-0.7c0.8,1.4,1.7,2.2,2.7,2.2c0.4,0,0.9-0.1,1.2-0.3s0.7-0.5,0.9-0.8c0.2-0.3,0.3-0.7,0.3-1.1
		c0-0.4-0.1-0.9-0.4-1.3c-0.4-0.6-1.2-1.3-2.2-2.1c-1.1-0.8-1.8-1.4-2-1.8c-0.5-0.6-0.7-1.3-0.7-2c0-0.6,0.1-1.1,0.4-1.6
		s0.7-0.8,1.2-1.1s1-0.4,1.6-0.4c0.6,0,1.2,0.2,1.7,0.5c0.5,0.3,1.1,0.9,1.7,1.7l-1.1,0.8c-0.5-0.7-0.9-1.1-1.3-1.3
		c-0.4-0.2-0.7-0.3-1.1-0.3c-0.5,0-1,0.2-1.3,0.5s-0.5,0.7-0.5,1.2c0,0.3,0.1,0.6,0.2,0.8c0.1,0.3,0.3,0.6,0.6,0.9
		c0.2,0.2,0.7,0.6,1.7,1.3c1.1,0.8,1.9,1.6,2.3,2.2s0.6,1.3,0.6,2c0,0.9-0.4,1.8-1.1,2.5c-0.7,0.7-1.6,1.1-2.6,1.1
		c-0.8,0-1.5-0.2-2.2-0.6C200.9,121.5,200.3,120.8,199.8,119.8z"/>
	<path class="st0" d="M218.2,119l1.1,0.6c-0.3,0.7-0.7,1.2-1.2,1.6c-0.4,0.4-1,0.7-1.5,0.9c-0.6,0.2-1.2,0.3-1.9,0.3
		c-1.6,0-2.8-0.5-3.7-1.6s-1.3-2.2-1.3-3.5c0-1.2,0.4-2.3,1.1-3.3c1-1.2,2.2-1.8,3.9-1.8c1.7,0,3,0.6,4,1.9c0.7,0.9,1.1,2,1.1,3.3
		h-8.7c0,1.1,0.4,2.1,1.1,2.8s1.6,1.1,2.6,1.1c0.5,0,1-0.1,1.4-0.3s0.9-0.4,1.2-0.7C217.5,120.1,217.8,119.6,218.2,119z
		 M218.2,116.4c-0.2-0.7-0.4-1.2-0.7-1.6c-0.3-0.4-0.7-0.7-1.3-1c-0.5-0.2-1.1-0.4-1.6-0.4c-0.9,0-1.8,0.3-2.5,0.9
		c-0.5,0.4-0.9,1.1-1.1,2H218.2z"/>
	<path class="st0" d="M221.4,112.5h1.3v1.4c0.4-0.6,0.8-1,1.2-1.2c0.4-0.3,0.9-0.4,1.3-0.4c0.3,0,0.7,0.1,1.1,0.3l-0.6,1.1
		c-0.3-0.1-0.5-0.2-0.7-0.2c-0.4,0-0.8,0.2-1.2,0.5c-0.4,0.3-0.7,0.9-0.9,1.6c-0.1,0.6-0.2,1.7-0.2,3.4v3.3h-1.3L221.4,112.5
		L221.4,112.5z"/>
	<path class="st0" d="M226.5,112.5h1.3l3.3,7.1l3.2-7.1h1.3l-4.4,9.7H231L226.5,112.5z"/>
	<path class="st0" d="M238,108.5c0.3,0,0.5,0.1,0.7,0.3c0.2,0.2,0.3,0.4,0.3,0.7c0,0.3-0.1,0.5-0.3,0.7c-0.2,0.2-0.4,0.3-0.7,0.3
		c-0.3,0-0.5-0.1-0.7-0.3s-0.3-0.4-0.3-0.7c0-0.3,0.1-0.5,0.3-0.7S237.7,108.5,238,108.5z M237.4,112.5h1.2v9.7h-1.2V112.5z"/>
	<path class="st0" d="M250.6,114.5l-1,0.6c-0.9-1.1-2-1.7-3.5-1.7c-1.2,0-2.2,0.4-2.9,1.1s-1.2,1.7-1.2,2.8c0,0.7,0.2,1.4,0.5,2
		s0.9,1.1,1.5,1.4s1.3,0.5,2.1,0.5c1.4,0,2.6-0.6,3.5-1.7l1,0.7c-0.5,0.7-1.1,1.2-1.9,1.6s-1.7,0.6-2.7,0.6c-1.5,0-2.8-0.5-3.8-1.5
		c-1-1-1.5-2.2-1.5-3.6c0-0.9,0.2-1.8,0.7-2.6c0.5-0.8,1.1-1.4,1.9-1.9s1.8-0.7,2.8-0.7c0.6,0,1.3,0.1,1.9,0.3
		c0.6,0.2,1.1,0.4,1.5,0.8C250,113.6,250.3,114,250.6,114.5z"/>
	<path class="st0" d="M261.2,119l1,0.6c-0.3,0.7-0.7,1.2-1.2,1.6c-0.5,0.4-1,0.7-1.5,0.9c-0.6,0.2-1.2,0.3-1.9,0.3
		c-1.6,0-2.8-0.5-3.7-1.6s-1.3-2.2-1.3-3.5c0-1.2,0.4-2.3,1.1-3.3c1-1.2,2.2-1.8,3.9-1.8c1.7,0,3,0.6,4,1.9c0.7,0.9,1.1,2,1.1,3.3
		h-8.7c0,1.1,0.4,2.1,1.1,2.8s1.6,1.1,2.6,1.1c0.5,0,1-0.1,1.4-0.3s0.9-0.4,1.2-0.7C260.5,120.1,260.8,119.6,261.2,119z
		 M261.2,116.4c-0.2-0.7-0.4-1.2-0.7-1.6s-0.7-0.7-1.3-1c-0.5-0.2-1.1-0.4-1.6-0.4c-1,0-1.8,0.3-2.5,0.9c-0.5,0.4-0.9,1.1-1.1,2
		H261.2z"/>
	<path class="st0" d="M269.8,113.5l-0.8,0.8c-0.7-0.7-1.3-1-2-1c-0.4,0-0.8,0.1-1,0.4c-0.3,0.3-0.4,0.6-0.4,0.9
		c0,0.3,0.1,0.6,0.4,0.9c0.2,0.3,0.7,0.6,1.5,1c0.9,0.5,1.6,0.9,1.9,1.4c0.3,0.4,0.5,1,0.5,1.5c0,0.8-0.3,1.5-0.8,2
		s-1.3,0.8-2.1,0.8c-0.6,0-1.1-0.1-1.6-0.4c-0.5-0.2-0.9-0.6-1.3-1l0.8-0.9c0.6,0.7,1.3,1.1,2,1.1c0.5,0,0.9-0.2,1.3-0.5
		s0.5-0.7,0.5-1.1c0-0.4-0.1-0.7-0.4-1c-0.2-0.3-0.8-0.6-1.6-1c-0.9-0.4-1.5-0.9-1.8-1.3c-0.3-0.4-0.5-0.9-0.5-1.5
		c0-0.7,0.2-1.3,0.8-1.8c0.5-0.5,1.1-0.7,1.9-0.7C268,112.2,268.9,112.7,269.8,113.5z"/>
</g>
</svg>
