<?xml version="1.0" encoding="utf-8"?>
<!-- Generator: Adobe Illustrator 23.0.6, SVG Export Plug-In . SVG Version: 6.00 Build 0)  -->
<svg version="1.1" id="Layer_1" xmlns="http://www.w3.org/2000/svg" xmlns:xlink="http://www.w3.org/1999/xlink" x="0px" y="0px"
	 viewBox="0 0 273.64 126.15" style="enable-background:new 0 0 273.64 126.15;" xml:space="preserve">
<style type="text/css">
	.st0{fill:#1468AD;}
	.st1{opacity:0.66;fill:url(#SVGID_1_);}
	.st2{opacity:0.69;fill:#3AA5CB;}
	.st3{opacity:0.66;fill:#929497;}
	.st4{fill:#BCBDBF;}
</style>
<g>
	<g>
		<path class="st0" d="M163.6,21.99l-8.82,8.72c-5.58-5.91-12.09-8.86-19.52-8.86c-6.48,0-11.9,2.15-16.28,6.44
			c-4.37,4.29-6.56,9.51-6.56,15.66c0,6.35,2.27,11.74,6.81,16.15c4.54,4.41,10.14,6.62,16.79,6.62c4.33,0,7.98-0.91,10.95-2.73
			c2.97-1.82,5.37-4.67,7.19-8.54H135.1V43.69h33.1l0.09,2.77c0,5.76-1.49,11.21-4.47,16.37c-2.98,5.16-6.84,9.1-11.59,11.81
			c-4.74,2.71-10.3,4.07-16.69,4.07c-6.83,0-12.92-1.48-18.27-4.45c-5.35-2.97-9.59-7.19-12.7-12.68
			c-3.12-5.49-4.67-11.41-4.67-17.76c0-8.71,2.88-16.28,8.63-22.72c6.83-7.66,15.72-11.5,26.66-11.5c5.73,0,11.08,1.06,16.06,3.18
			C155.46,14.57,159.57,17.64,163.6,21.99z"/>
		<path class="st0" d="M165.68,11.26h32.65v12.21h-20.22v11.94h20.22v12.03h-20.22v29.61h-12.44V11.26z"/>
		<path class="st0" d="M202.53,11.26h12.44v65.8h-12.44V11.26z"/>
		<path class="st0" d="M254.43,20.2l-9.28,8.19c-3.26-4.53-6.57-6.8-9.95-6.8c-1.64,0-2.99,0.44-4.03,1.32
			c-1.05,0.88-1.57,1.87-1.57,2.97c0,1.1,0.37,2.15,1.12,3.13c1.02,1.31,4.08,4.13,9.19,8.45c4.78,4,7.68,6.52,8.69,7.56
			c2.54,2.56,4.34,5.02,5.4,7.36s1.59,4.9,1.59,7.67c0,5.4-1.87,9.86-5.6,13.37s-8.6,5.28-14.6,5.28c-4.69,0-8.77-1.15-12.25-3.44
			c-3.48-2.3-6.46-5.91-8.93-10.83l10.53-6.35c3.17,5.82,6.81,8.72,10.93,8.72c2.15,0,3.96-0.63,5.42-1.88
			c1.46-1.25,2.2-2.7,2.2-4.34c0-1.49-0.55-2.98-1.66-4.47c-1.11-1.49-3.54-3.77-7.3-6.84c-7.17-5.84-11.8-10.36-13.89-13.53
			c-2.09-3.18-3.14-6.34-3.14-9.51c0-4.56,1.74-8.48,5.22-11.74c3.48-3.27,7.77-4.9,12.88-4.9c3.28,0,6.41,0.76,9.38,2.28
			C247.75,13.4,250.97,16.18,254.43,20.2z"/>
	</g>
	<polygon class="st0" points="83,47.67 26.53,15.07 26.53,80.28 	"/>
	<linearGradient id="SVGID_1_" gradientUnits="userSpaceOnUse" x1="3.023" y1="47.8067" x2="37.3032" y2="47.8067">
		<stop  offset="0" style="stop-color:#D62027"/>
		<stop  offset="1" style="stop-color:#AD1A24"/>
	</linearGradient>
	<polygon class="st1" points="37.3,47.81 3.02,28.02 3.02,67.6 	"/>
	<polygon class="st2" points="92.88,68.28 53.05,45.28 53.05,91.28 	"/>
	<polygon class="st3" points="64.39,17.9 40.23,3.95 40.23,31.85 	"/>
	<g>
		<path class="st4" d="M110.28,91.04l-1.24,1.18c-0.89-0.88-1.87-1.54-2.93-2c-1.06-0.45-2.1-0.68-3.11-0.68
			c-1.26,0-2.45,0.31-3.59,0.92c-1.14,0.62-2.02,1.45-2.64,2.51c-0.62,1.06-0.94,2.17-0.94,3.35c0,1.21,0.32,2.35,0.97,3.43
			c0.65,1.08,1.54,1.94,2.68,2.56c1.14,0.62,2.39,0.93,3.74,0.93c1.65,0,3.04-0.46,4.18-1.39s1.81-2.13,2.02-3.61h-5.1v-1.55h6.9
			c-0.01,2.47-0.75,4.44-2.2,5.89s-3.4,2.18-5.84,2.18c-2.96,0-5.3-1.01-7.03-3.03c-1.33-1.55-1.99-3.35-1.99-5.39
			c0-1.52,0.38-2.93,1.14-4.23c0.76-1.31,1.81-2.33,3.14-3.06c1.33-0.74,2.83-1.1,4.51-1.1c1.36,0,2.63,0.24,3.83,0.73
			C107.97,89.17,109.14,89.95,110.28,91.04z"/>
		<path class="st4" d="M113.79,87.94h1.52v16.41h-1.52V87.94z"/>
		<path class="st4" d="M124.09,92.21c1.82,0,3.34,0.66,4.54,1.98c1.09,1.21,1.64,2.63,1.64,4.28c0,1.65-0.58,3.1-1.73,4.34
			s-2.63,1.86-4.44,1.86c-1.82,0-3.3-0.62-4.45-1.86s-1.73-2.68-1.73-4.34c0-1.64,0.54-3.06,1.64-4.27
			C120.74,92.88,122.26,92.21,124.09,92.21z M124.08,93.7c-1.27,0-2.36,0.47-3.27,1.4c-0.91,0.94-1.37,2.07-1.37,3.4
			c0,0.86,0.21,1.66,0.62,2.4c0.42,0.74,0.98,1.31,1.68,1.71s1.48,0.6,2.33,0.6c0.84,0,1.62-0.2,2.33-0.6s1.27-0.97,1.68-1.71
			c0.42-0.74,0.62-1.54,0.62-2.4c0-1.33-0.46-2.46-1.37-3.4C126.43,94.17,125.34,93.7,124.08,93.7z"/>
		<path class="st4" d="M133.18,104.36V87.94h1.52v6.61c0.64-0.78,1.35-1.37,2.14-1.76c0.79-0.39,1.66-0.58,2.6-0.58
			c1.67,0,3.1,0.61,4.29,1.82s1.78,2.69,1.78,4.42c0,1.71-0.6,3.17-1.79,4.39c-1.2,1.21-2.63,1.82-4.32,1.82
			c-0.96,0-1.84-0.21-2.62-0.62c-0.78-0.41-1.47-1.03-2.08-1.86v2.18H133.18z M139.27,103.19c0.85,0,1.63-0.21,2.35-0.63
			c0.72-0.42,1.29-1,1.71-1.76c0.42-0.75,0.64-1.55,0.64-2.39s-0.21-1.64-0.64-2.41c-0.43-0.76-1-1.36-1.72-1.78
			c-0.72-0.42-1.49-0.64-2.31-0.64c-0.83,0-1.62,0.21-2.37,0.64c-0.75,0.42-1.32,1-1.73,1.71c-0.4,0.72-0.6,1.53-0.6,2.43
			c0,1.37,0.45,2.52,1.35,3.44C136.85,102.73,137.96,103.19,139.27,103.19z"/>
		<path class="st4" d="M160.08,92.52v11.84h-1.5v-2.04c-0.64,0.78-1.36,1.36-2.15,1.75c-0.79,0.39-1.66,0.59-2.61,0.59
			c-1.68,0-3.11-0.61-4.29-1.82c-1.19-1.21-1.78-2.69-1.78-4.44c0-1.71,0.6-3.16,1.8-4.38s2.64-1.82,4.32-1.82
			c0.97,0,1.85,0.21,2.64,0.62c0.79,0.41,1.48,1.03,2.07,1.86v-2.18H160.08z M153.99,93.68c-0.85,0-1.63,0.21-2.35,0.62
			s-1.29,1-1.71,1.76c-0.42,0.75-0.64,1.55-0.64,2.39c0,0.83,0.21,1.63,0.64,2.39c0.43,0.76,1,1.35,1.72,1.78
			c0.72,0.42,1.5,0.64,2.32,0.64c0.83,0,1.62-0.21,2.37-0.63c0.75-0.42,1.32-0.99,1.72-1.71c0.4-0.72,0.6-1.53,0.6-2.42
			c0-1.37-0.45-2.52-1.35-3.44C156.42,94.14,155.31,93.68,153.99,93.68z"/>
		<path class="st4" d="M163.28,87.94h1.52v16.41h-1.52V87.94z"/>
		<path class="st4" d="M174.4,88.35h8.02v1.57H176v5.02h6.42v1.57H176v7.86h-1.6V88.35z"/>
		<path class="st4" d="M185.48,87.64c0.35,0,0.64,0.12,0.89,0.37c0.25,0.25,0.37,0.54,0.37,0.89c0,0.34-0.12,0.64-0.37,0.88
			c-0.25,0.25-0.54,0.37-0.89,0.37c-0.34,0-0.63-0.12-0.88-0.37c-0.25-0.25-0.37-0.54-0.37-0.88c0-0.35,0.12-0.65,0.37-0.89
			C184.85,87.76,185.14,87.64,185.48,87.64z M184.73,92.52h1.52v11.84h-1.52V92.52z"/>
		<path class="st4" d="M189.42,92.52h1.52v2.12c0.61-0.81,1.29-1.42,2.02-1.82c0.74-0.4,1.55-0.6,2.42-0.6
			c0.88,0,1.67,0.22,2.36,0.67s1.19,1.06,1.52,1.82c0.33,0.76,0.49,1.95,0.49,3.56v6.1h-1.52v-5.65c0-1.36-0.06-2.27-0.17-2.73
			c-0.18-0.78-0.51-1.37-1.02-1.77s-1.15-0.59-1.96-0.59c-0.92,0-1.75,0.3-2.48,0.91s-1.21,1.36-1.44,2.26
			c-0.15,0.59-0.22,1.66-0.22,3.22v4.34h-1.52V92.52z"/>
		<path class="st4" d="M214.81,92.52v11.84h-1.5v-2.04c-0.64,0.78-1.36,1.36-2.15,1.75c-0.79,0.39-1.66,0.59-2.61,0.59
			c-1.68,0-3.11-0.61-4.29-1.82c-1.19-1.21-1.78-2.69-1.78-4.44c0-1.71,0.6-3.16,1.8-4.38s2.64-1.82,4.32-1.82
			c0.97,0,1.85,0.21,2.64,0.62c0.79,0.41,1.48,1.03,2.07,1.86v-2.18H214.81z M208.72,93.68c-0.85,0-1.63,0.21-2.35,0.62
			s-1.29,1-1.71,1.76c-0.42,0.75-0.64,1.55-0.64,2.39c0,0.83,0.21,1.63,0.64,2.39c0.43,0.76,1,1.35,1.72,1.78
			c0.72,0.42,1.5,0.64,2.32,0.64c0.83,0,1.62-0.21,2.37-0.63c0.75-0.42,1.32-0.99,1.72-1.71c0.4-0.72,0.6-1.53,0.6-2.42
			c0-1.37-0.45-2.52-1.35-3.44C211.15,94.14,210.04,93.68,208.72,93.68z"/>
		<path class="st4" d="M218.24,92.52h1.52v2.12c0.61-0.81,1.29-1.42,2.02-1.82c0.74-0.4,1.55-0.6,2.42-0.6
			c0.88,0,1.67,0.22,2.36,0.67s1.19,1.06,1.52,1.82c0.33,0.76,0.49,1.95,0.49,3.56v6.1h-1.52v-5.65c0-1.36-0.06-2.27-0.17-2.73
			c-0.18-0.78-0.51-1.37-1.02-1.77s-1.15-0.59-1.96-0.59c-0.92,0-1.75,0.3-2.48,0.91s-1.21,1.36-1.44,2.26
			c-0.15,0.59-0.22,1.66-0.22,3.22v4.34h-1.52V92.52z"/>
		<path class="st4" d="M243.33,94.98l-1.21,0.75c-1.04-1.39-2.47-2.08-4.27-2.08c-1.44,0-2.64,0.46-3.59,1.39s-1.43,2.05-1.43,3.38
			c0,0.86,0.22,1.67,0.66,2.44s1.04,1.35,1.8,1.77c0.76,0.42,1.62,0.63,2.57,0.63c1.74,0,3.16-0.69,4.26-2.08l1.21,0.79
			c-0.57,0.85-1.33,1.51-2.28,1.98s-2.04,0.71-3.26,0.71c-1.87,0-3.43-0.59-4.66-1.79c-1.23-1.19-1.85-2.64-1.85-4.34
			c0-1.15,0.29-2.21,0.87-3.2c0.58-0.98,1.37-1.75,2.38-2.3s2.14-0.83,3.38-0.83c0.78,0,1.54,0.12,2.27,0.36
			c0.73,0.24,1.35,0.55,1.86,0.94S242.98,94.38,243.33,94.98z"/>
		<path class="st4" d="M246.79,87.64c0.35,0,0.64,0.12,0.89,0.37c0.25,0.25,0.37,0.54,0.37,0.89c0,0.34-0.12,0.64-0.37,0.88
			c-0.25,0.25-0.54,0.37-0.89,0.37c-0.34,0-0.63-0.12-0.88-0.37c-0.25-0.25-0.37-0.54-0.37-0.88c0-0.35,0.12-0.65,0.37-0.89
			C246.16,87.76,246.45,87.64,246.79,87.64z M246.03,92.52h1.52v11.84h-1.52V92.52z"/>
		<path class="st4" d="M262.52,92.52v11.84h-1.5v-2.04c-0.64,0.78-1.36,1.36-2.15,1.75c-0.79,0.39-1.66,0.59-2.61,0.59
			c-1.68,0-3.11-0.61-4.29-1.82c-1.19-1.21-1.78-2.69-1.78-4.44c0-1.71,0.6-3.16,1.8-4.38s2.64-1.82,4.32-1.82
			c0.97,0,1.85,0.21,2.64,0.62c0.79,0.41,1.48,1.03,2.07,1.86v-2.18H262.52z M256.43,93.68c-0.85,0-1.63,0.21-2.35,0.62
			s-1.29,1-1.71,1.76c-0.42,0.75-0.64,1.55-0.64,2.39c0,0.83,0.21,1.63,0.64,2.39c0.43,0.76,1,1.35,1.72,1.78
			c0.72,0.42,1.5,0.64,2.32,0.64c0.83,0,1.62-0.21,2.37-0.63c0.75-0.42,1.32-0.99,1.72-1.71c0.4-0.72,0.6-1.53,0.6-2.42
			c0-1.37-0.45-2.52-1.35-3.44C258.86,94.14,257.75,93.68,256.43,93.68z"/>
		<path class="st4" d="M265.72,87.94h1.52v16.41h-1.52V87.94z"/>
		<path class="st4" d="M94.29,109.06h1.31v13.13h-1.31V109.06z"/>
		<path class="st4" d="M98.41,112.48h1.25v1.74c0.5-0.67,1.05-1.17,1.66-1.5c0.61-0.33,1.27-0.5,1.98-0.5
			c0.73,0,1.37,0.18,1.93,0.55c0.56,0.37,0.98,0.87,1.25,1.49s0.4,1.6,0.4,2.92v5h-1.25v-4.63c0-1.12-0.05-1.87-0.14-2.24
			c-0.15-0.64-0.42-1.13-0.83-1.45c-0.41-0.32-0.95-0.49-1.61-0.49c-0.76,0-1.43,0.25-2.03,0.75c-0.6,0.5-0.99,1.12-1.18,1.86
			c-0.12,0.48-0.18,1.36-0.18,2.64v3.56h-1.25V112.48z"/>
		<path class="st4" d="M113.55,108.73v1.22c-0.46-0.2-0.85-0.29-1.18-0.29c-0.24,0-0.45,0.05-0.61,0.15
			c-0.16,0.1-0.26,0.21-0.3,0.34c-0.04,0.13-0.06,0.47-0.06,1.02l0,1.31h2.03v1.08h-2.03l-0.01,8.63h-1.25v-8.63h-1.28v-1.08h1.28
			v-1.52c0-0.7,0.06-1.19,0.19-1.49c0.13-0.3,0.34-0.54,0.65-0.72s0.68-0.27,1.11-0.27C112.5,108.48,112.99,108.57,113.55,108.73z"
			/>
		<path class="st4" d="M119.89,112.23c1.5,0,2.74,0.54,3.72,1.62c0.89,0.99,1.34,2.16,1.34,3.51c0,1.36-0.47,2.54-1.42,3.56
			c-0.95,1.01-2.16,1.52-3.64,1.52c-1.49,0-2.71-0.51-3.65-1.52c-0.95-1.01-1.42-2.2-1.42-3.56c0-1.34,0.45-2.51,1.34-3.5
			C117.15,112.78,118.39,112.23,119.89,112.23z M119.89,113.45c-1.04,0-1.93,0.38-2.68,1.15c-0.75,0.77-1.12,1.7-1.12,2.79
			c0,0.7,0.17,1.36,0.51,1.96c0.34,0.61,0.8,1.08,1.38,1.41c0.58,0.33,1.21,0.5,1.91,0.5s1.33-0.17,1.91-0.5s1.04-0.8,1.38-1.41
			c0.34-0.61,0.51-1.26,0.51-1.96c0-1.09-0.37-2.02-1.12-2.79C121.81,113.84,120.92,113.45,119.89,113.45z"/>
		<path class="st4" d="M126.79,112.48h1.28v1.42c0.38-0.56,0.78-0.98,1.21-1.25c0.42-0.28,0.86-0.42,1.32-0.42
			c0.34,0,0.71,0.11,1.11,0.33l-0.65,1.05c-0.26-0.11-0.48-0.17-0.66-0.17c-0.42,0-0.82,0.17-1.21,0.51
			c-0.39,0.34-0.68,0.87-0.88,1.59c-0.15,0.55-0.23,1.67-0.23,3.36v3.28h-1.28V112.48z"/>
		<path class="st4" d="M133.26,112.48h1.25v1.68c0.44-0.62,0.88-1.07,1.34-1.36c0.63-0.38,1.3-0.57,1.99-0.57
			c0.47,0,0.92,0.09,1.34,0.28s0.77,0.43,1.04,0.74c0.27,0.31,0.5,0.75,0.7,1.32c0.42-0.76,0.93-1.34,1.56-1.74
			c0.62-0.4,1.29-0.59,2.01-0.59c0.67,0,1.26,0.17,1.78,0.51c0.51,0.34,0.89,0.81,1.14,1.42c0.25,0.61,0.37,1.52,0.37,2.73v5.3
			h-1.28v-5.3c0-1.04-0.07-1.76-0.22-2.15c-0.15-0.39-0.4-0.7-0.76-0.94c-0.36-0.24-0.79-0.36-1.29-0.36c-0.6,0-1.16,0.18-1.66,0.54
			c-0.5,0.36-0.87,0.83-1.1,1.43c-0.23,0.59-0.35,1.59-0.35,2.98v3.8h-1.25v-4.97c0-1.17-0.07-1.97-0.22-2.39
			c-0.15-0.42-0.4-0.76-0.76-1.01s-0.79-0.38-1.29-0.38c-0.58,0-1.12,0.17-1.62,0.52c-0.5,0.35-0.88,0.82-1.12,1.41
			c-0.24,0.59-0.36,1.49-0.36,2.71v4.11h-1.25V112.48z"/>
		<path class="st4" d="M160.09,112.48v9.71h-1.23v-1.67c-0.52,0.64-1.11,1.12-1.76,1.44s-1.36,0.48-2.14,0.48
			c-1.38,0-2.55-0.5-3.52-1.5c-0.97-1-1.46-2.21-1.46-3.64c0-1.4,0.49-2.59,1.47-3.59c0.98-0.99,2.16-1.49,3.54-1.49
			c0.8,0,1.52,0.17,2.16,0.51s1.21,0.85,1.7,1.53v-1.79H160.09z M155.1,113.44c-0.7,0-1.34,0.17-1.93,0.51
			c-0.59,0.34-1.06,0.82-1.4,1.44s-0.52,1.27-0.52,1.96c0,0.68,0.17,1.34,0.53,1.96s0.82,1.11,1.41,1.46
			c0.59,0.35,1.23,0.52,1.9,0.52c0.68,0,1.33-0.17,1.94-0.52s1.08-0.81,1.41-1.4c0.33-0.59,0.49-1.25,0.49-1.99
			c0-1.12-0.37-2.06-1.11-2.82S156.18,113.44,155.1,113.44z"/>
		<path class="st4" d="M163.99,108.88h1.25v3.61h1.98v1.08h-1.98v8.63h-1.25v-8.63h-1.71v-1.08h1.71V108.88z"/>
		<path class="st4" d="M169.53,108.48c0.28,0,0.53,0.1,0.73,0.3c0.2,0.2,0.3,0.45,0.3,0.73c0,0.28-0.1,0.52-0.3,0.72
			c-0.2,0.2-0.44,0.3-0.73,0.3c-0.28,0-0.52-0.1-0.72-0.3s-0.3-0.44-0.3-0.72c0-0.29,0.1-0.53,0.3-0.73S169.25,108.48,169.53,108.48
			z M168.91,112.48h1.25v9.71h-1.25V112.48z"/>
		<path class="st4" d="M177.35,112.23c1.5,0,2.74,0.54,3.72,1.62c0.89,0.99,1.34,2.16,1.34,3.51c0,1.36-0.47,2.54-1.42,3.56
			c-0.95,1.01-2.16,1.52-3.64,1.52c-1.49,0-2.71-0.51-3.65-1.52c-0.95-1.01-1.42-2.2-1.42-3.56c0-1.34,0.45-2.51,1.34-3.5
			C174.61,112.78,175.85,112.23,177.35,112.23z M177.35,113.45c-1.04,0-1.93,0.38-2.68,1.15c-0.75,0.77-1.12,1.7-1.12,2.79
			c0,0.7,0.17,1.36,0.51,1.96c0.34,0.61,0.8,1.08,1.38,1.41c0.58,0.33,1.21,0.5,1.91,0.5s1.33-0.17,1.91-0.5s1.04-0.8,1.38-1.41
			c0.34-0.61,0.51-1.26,0.51-1.96c0-1.09-0.37-2.02-1.12-2.79C179.27,113.84,178.38,113.45,177.35,113.45z"/>
		<path class="st4" d="M184.73,112.48h1.25v1.74c0.5-0.67,1.05-1.17,1.66-1.5c0.61-0.33,1.27-0.5,1.98-0.5
			c0.73,0,1.37,0.18,1.93,0.55c0.56,0.37,0.98,0.87,1.25,1.49s0.4,1.6,0.4,2.92v5h-1.25v-4.63c0-1.12-0.05-1.87-0.14-2.24
			c-0.15-0.64-0.42-1.13-0.83-1.45c-0.41-0.32-0.95-0.49-1.61-0.49c-0.76,0-1.43,0.25-2.03,0.75c-0.6,0.5-0.99,1.12-1.18,1.86
			c-0.12,0.48-0.18,1.36-0.18,2.64v3.56h-1.25V112.48z"/>
		<path class="st4" d="M199.79,119.75l1.12-0.67c0.79,1.45,1.69,2.17,2.72,2.17c0.44,0,0.85-0.1,1.24-0.31s0.68-0.48,0.88-0.83
			c0.2-0.34,0.3-0.71,0.3-1.1c0-0.44-0.15-0.87-0.45-1.29c-0.41-0.58-1.16-1.29-2.25-2.11c-1.09-0.83-1.78-1.42-2.04-1.79
			c-0.46-0.62-0.7-1.29-0.7-2.01c0-0.57,0.14-1.09,0.41-1.56s0.66-0.84,1.16-1.11s1.04-0.41,1.62-0.41c0.62,0,1.2,0.15,1.74,0.46
			c0.54,0.31,1.11,0.87,1.71,1.69l-1.07,0.81c-0.49-0.66-0.92-1.09-1.26-1.29c-0.35-0.21-0.73-0.31-1.14-0.31
			c-0.53,0-0.96,0.16-1.3,0.48c-0.34,0.32-0.5,0.72-0.5,1.19c0,0.29,0.06,0.56,0.18,0.83c0.12,0.27,0.34,0.56,0.65,0.87
			c0.17,0.17,0.74,0.6,1.7,1.31c1.14,0.84,1.92,1.59,2.34,2.24c0.42,0.65,0.63,1.31,0.63,1.97c0,0.95-0.36,1.78-1.08,2.48
			c-0.72,0.7-1.6,1.05-2.64,1.05c-0.8,0-1.52-0.21-2.17-0.64C200.93,121.46,200.33,120.75,199.79,119.75z"/>
		<path class="st4" d="M218.22,118.97l1.05,0.55c-0.34,0.68-0.74,1.23-1.2,1.64c-0.45,0.42-0.96,0.73-1.53,0.95
			c-0.57,0.22-1.21,0.33-1.92,0.33c-1.58,0-2.82-0.52-3.72-1.56s-1.34-2.21-1.34-3.52c0-1.23,0.38-2.33,1.13-3.29
			c0.96-1.23,2.24-1.84,3.85-1.84c1.66,0,2.98,0.63,3.97,1.88c0.7,0.89,1.06,1.99,1.07,3.32h-8.74c0.02,1.13,0.38,2.05,1.08,2.77
			s1.56,1.08,2.58,1.08c0.5,0,0.98-0.09,1.44-0.26s0.87-0.4,1.19-0.68C217.48,120.06,217.83,119.61,218.22,118.97z M218.22,116.36
			c-0.17-0.67-0.41-1.2-0.73-1.6c-0.32-0.4-0.74-0.72-1.26-0.96c-0.52-0.24-1.08-0.37-1.65-0.37c-0.95,0-1.77,0.31-2.46,0.92
			c-0.5,0.45-0.88,1.12-1.13,2.01H218.22z"/>
		<path class="st4" d="M221.45,112.48h1.28v1.42c0.38-0.56,0.78-0.98,1.21-1.25c0.42-0.28,0.86-0.42,1.32-0.42
			c0.34,0,0.71,0.11,1.11,0.33l-0.65,1.05c-0.26-0.11-0.48-0.17-0.66-0.17c-0.42,0-0.82,0.17-1.21,0.51
			c-0.39,0.34-0.68,0.87-0.88,1.59c-0.15,0.55-0.23,1.67-0.23,3.36v3.28h-1.28V112.48z"/>
		<path class="st4" d="M226.5,112.48h1.33l3.26,7.08l3.22-7.08h1.34l-4.45,9.71h-0.23L226.5,112.48z"/>
		<path class="st4" d="M237.98,108.48c0.28,0,0.53,0.1,0.73,0.3c0.2,0.2,0.3,0.45,0.3,0.73c0,0.28-0.1,0.52-0.3,0.72
			c-0.2,0.2-0.44,0.3-0.73,0.3c-0.28,0-0.52-0.1-0.72-0.3s-0.3-0.44-0.3-0.72c0-0.29,0.1-0.53,0.3-0.73S237.7,108.48,237.98,108.48z
			 M237.36,112.48h1.25v9.71h-1.25V112.48z"/>
		<path class="st4" d="M250.63,114.5l-0.99,0.62c-0.86-1.14-2.02-1.71-3.5-1.71c-1.18,0-2.17,0.38-2.95,1.14s-1.17,1.68-1.17,2.77
			c0,0.71,0.18,1.37,0.54,2s0.85,1.11,1.48,1.45s1.33,0.52,2.11,0.52c1.43,0,2.59-0.57,3.5-1.71l0.99,0.65
			c-0.46,0.7-1.09,1.24-1.87,1.63c-0.78,0.39-1.67,0.58-2.67,0.58c-1.54,0-2.81-0.49-3.82-1.46c-1.01-0.98-1.52-2.16-1.52-3.56
			c0-0.94,0.24-1.81,0.71-2.62c0.47-0.81,1.12-1.44,1.95-1.89s1.75-0.68,2.78-0.68c0.64,0,1.26,0.1,1.86,0.29
			c0.6,0.2,1.1,0.45,1.52,0.77C249.99,113.61,250.34,114.01,250.63,114.5z"/>
		<path class="st4" d="M261.21,118.97l1.05,0.55c-0.34,0.68-0.74,1.23-1.2,1.64c-0.45,0.42-0.96,0.73-1.53,0.95
			c-0.57,0.22-1.21,0.33-1.92,0.33c-1.58,0-2.82-0.52-3.72-1.56s-1.34-2.21-1.34-3.52c0-1.23,0.38-2.33,1.13-3.29
			c0.96-1.23,2.24-1.84,3.85-1.84c1.66,0,2.98,0.63,3.97,1.88c0.7,0.89,1.06,1.99,1.07,3.32h-8.74c0.02,1.13,0.38,2.05,1.08,2.77
			s1.56,1.08,2.58,1.08c0.5,0,0.98-0.09,1.44-0.26s0.87-0.4,1.19-0.68C260.47,120.06,260.83,119.61,261.21,118.97z M261.21,116.36
			c-0.17-0.67-0.41-1.2-0.73-1.6c-0.32-0.4-0.74-0.72-1.26-0.96c-0.52-0.24-1.08-0.37-1.65-0.37c-0.95,0-1.77,0.31-2.46,0.92
			c-0.5,0.45-0.88,1.12-1.13,2.01H261.21z"/>
		<path class="st4" d="M269.8,113.54l-0.8,0.83c-0.67-0.65-1.32-0.97-1.96-0.97c-0.41,0-0.75,0.13-1.04,0.4
			c-0.29,0.27-0.43,0.58-0.43,0.94c0,0.32,0.12,0.62,0.36,0.9c0.24,0.29,0.74,0.63,1.5,1.03c0.93,0.48,1.56,0.95,1.9,1.39
			c0.33,0.45,0.49,0.96,0.49,1.53c0,0.8-0.28,1.47-0.84,2.03s-1.26,0.83-2.1,0.83c-0.56,0-1.1-0.12-1.6-0.37
			c-0.51-0.24-0.93-0.58-1.27-1.01l0.79-0.89c0.64,0.72,1.31,1.08,2.03,1.08c0.5,0,0.93-0.16,1.28-0.48
			c0.35-0.32,0.53-0.7,0.53-1.13c0-0.36-0.12-0.67-0.35-0.96c-0.23-0.27-0.76-0.62-1.57-1.04c-0.88-0.45-1.47-0.9-1.79-1.34
			c-0.32-0.44-0.47-0.94-0.47-1.51c0-0.74,0.25-1.35,0.76-1.84c0.5-0.49,1.14-0.73,1.91-0.73
			C267.99,112.23,268.89,112.67,269.8,113.54z"/>
	</g>
</g>
</svg>
