<?xml version="1.0" encoding="utf-8"?>
<!-- Generator: Adobe Illustrator 27.9.0, SVG Export Plug-In . SVG Version: 6.00 Build 0)  -->
<svg version="1.1" id="Layer_1" xmlns="http://www.w3.org/2000/svg" xmlns:xlink="http://www.w3.org/1999/xlink" x="0px" y="0px"
	 viewBox="0 0 252.6 87.3" style="enable-background:new 0 0 252.6 87.3;" xml:space="preserve">
<style type="text/css">
	.st0{fill:#FFFFFF;}
	.st1{fill:#1468AD;}
	.st2{opacity:0.66;fill:url(#SVGID_1_);enable-background:new    ;}
	.st3{opacity:0.69;fill:#3AA5CB;enable-background:new    ;}
	.st4{opacity:0.66;fill:#929497;enable-background:new    ;}
</style>
<path class="st0" d="M160.6,21.5l-8.8,8.7c-5.6-5.9-12.1-8.9-19.5-8.9c-6.1-0.2-12,2.2-16.3,6.4c-4.3,4.1-6.6,9.8-6.6,15.7
	c-0.1,6.1,2.3,12,6.8,16.2c4.5,4.4,10.5,6.8,16.8,6.6c3.8,0.1,7.6-0.8,10.9-2.7c3.2-2.1,5.7-5.1,7.2-8.5h-19.1V43.2h33.1l0.1,2.8
	c0,5.8-1.5,11.4-4.5,16.4c-2.7,4.9-6.7,9-11.6,11.8c-5.1,2.8-10.9,4.2-16.7,4.1c-6.4,0.1-12.7-1.4-18.3-4.4
	c-5.3-3-9.7-7.4-12.7-12.7c-3.1-5.4-4.7-11.5-4.7-17.8c-0.1-8.4,2.9-16.5,8.6-22.7c6.8-7.7,15.7-11.5,26.7-11.5c5.5,0,11,1,16.1,3.2
	C152.9,14.4,157.1,17.6,160.6,21.5z"/>
<path class="st0" d="M162.7,10.8h32.6V23h-20.2v11.9h20.2v12h-20.2v29.7h-12.4V10.8z"/>
<path class="st0" d="M199.5,10.8h12.4v65.8h-12.4V10.8z"/>
<path class="st0" d="M251.4,19.7l-9.3,8.2c-3.3-4.5-6.6-6.8-9.9-6.8c-1.4-0.1-2.9,0.4-4,1.3c-1,0.7-1.5,1.8-1.6,3
	c0,1.1,0.4,2.2,1.1,3.1c1,1.3,4.1,4.2,9.2,8.5c4.8,4,7.7,6.5,8.7,7.6c2.2,2.1,4,4.6,5.4,7.4c1.1,2.4,1.6,5,1.6,7.7
	c0.1,5.1-1.9,9.9-5.6,13.4c-3.7,3.5-8.6,5.3-14.6,5.3c-4.3,0.1-8.6-1.1-12.2-3.4c-3.5-2.3-6.5-5.9-8.9-10.8l10.5-6.4
	c3.2,5.8,6.8,8.7,10.9,8.7c2,0.1,3.9-0.6,5.4-1.9c1.4-1,2.2-2.6,2.2-4.3c-0.1-1.6-0.7-3.2-1.7-4.5c-2.2-2.5-4.6-4.8-7.3-6.8
	c-7.2-5.9-11.8-10.4-13.8-13.6c-2-2.8-3.1-6.1-3.1-9.5c-0.1-4.5,1.8-8.7,5.1-11.7c3.5-3.3,8.1-5,12.9-4.9c3.3,0,6.5,0.8,9.4,2.3
	C244.7,12.9,247.9,15.7,251.4,19.7z"/>
<polygon class="st1" points="80,43.7 23.5,11.1 23.5,76.3 "/>
<linearGradient id="SVGID_1_" gradientUnits="userSpaceOnUse" x1="0" y1="46.145" x2="34.28" y2="46.145" gradientTransform="matrix(1 0 0 -1 0 90)">
	<stop  offset="0" style="stop-color:#D62027"/>
	<stop  offset="1" style="stop-color:#AD1A24"/>
</linearGradient>
<polygon class="st2" points="34.3,43.8 0,24.1 0,63.7 "/>
<polygon class="st3" points="89.9,64.3 50,41.3 50,87.3 "/>
<polygon class="st4" points="61.4,13.9 37.2,0 37.2,27.9 "/>
</svg>
