<svg xmlns="http://www.w3.org/2000/svg" viewBox="6465 3418 24 24">
  <defs>
    <style>
      .cls-1 {
        fill: #f53141;
      }

      .cls-2 {
        fill: none;
      }
    </style>
  </defs>
  <g id="Group_48" data-name="Group 48" transform="translate(2341 -701)">
    <path id="Path_34" data-name="Path 34" class="cls-1" d="M16.4,4A5.4,5.4,0,0,0,12,6.3,5.4,5.4,0,0,0,7.6,4,5.591,5.591,0,0,0,2,9.6C2,14,12,22,12,22S22,14,22,9.6A5.591,5.591,0,0,0,16.4,4ZM12,15.4,8.4,11.8l1.1-1.1L12,13.2,18.2,7l1.1,1.1Z" transform="translate(4124 4118)"/>
    <rect id="Rectangle_51" data-name="Rectangle 51" class="cls-2" width="24" height="24" transform="translate(4124 4119)"/>
  </g>
</svg>
