<svg xmlns="http://www.w3.org/2000/svg" viewBox="6115 3419 24 24">
  <defs>
    <style>
      .cls-1 {
        fill: #f53141;
      }

      .cls-2 {
        fill: none;
      }
    </style>
  </defs>
  <g id="Group_49" data-name="Group 49" transform="translate(1982 -766)">
    <path id="Path_38" data-name="Path 38" class="cls-1" d="M5,2A2,2,0,0,0,3,3.875a3.828,3.828,0,0,0-.375.344A1.713,1.713,0,0,0,2,5.5a3.859,3.859,0,0,0,.094.781c.059.316.16.715.281,1.156a17.871,17.871,0,0,0,1.094,3.031A10.4,10.4,0,0,0,5.563,13.5a5.432,5.432,0,0,0,1.969,1.25A3.546,3.546,0,0,0,8,15.438V16a6,6,0,0,0,11.938.844,2.965,2.965,0,1,0-2.031-.031A3.893,3.893,0,0,1,14,20a3.916,3.916,0,0,1-4-4v-.562a3.546,3.546,0,0,0,.469-.687,5.331,5.331,0,0,0,1.969-1.25,10.622,10.622,0,0,0,2.094-3.062,18.607,18.607,0,0,0,1.094-3.062c.121-.437.223-.816.281-1.125A3.426,3.426,0,0,0,16,5.5a1.581,1.581,0,0,0-.625-1.25A3.974,3.974,0,0,0,15,3.938,2,2,0,1,0,13.969,5.75c0,.027-.016.039-.031.125-.051.254-.145.609-.25,1a16.726,16.726,0,0,1-.969,2.719,8.7,8.7,0,0,1-1.656,2.469c-.078.078-.141.152-.219.219C10.539,11.875,9.824,12,9,12s-1.5-.1-1.812.281c-.086-.07-.164-.137-.25-.219A8.6,8.6,0,0,1,5.281,9.625a16.345,16.345,0,0,1-.969-2.719c-.105-.395-.2-.742-.25-1-.02-.1-.027-.113-.031-.156A2,2,0,1,0,5,2ZM19,13a1,1,0,1,1-1,1A.943.943,0,0,1,19,13Z" transform="translate(4133 4185)"/>
    <rect id="Rectangle_52" data-name="Rectangle 52" class="cls-2" width="24" height="24" transform="translate(4133 4185)"/>
  </g>
</svg>
