<svg xmlns="http://www.w3.org/2000/svg" viewBox="5781 3418 24 24">
  <defs>
    <style>
      .cls-1 {
        fill: #f53141;
      }

      .cls-2 {
        fill: none;
      }
    </style>
  </defs>
  <g id="Group_43" data-name="Group 43" transform="translate(1715 -690)">
    <path id="Path_33" data-name="Path 33" class="cls-1" d="M17.188,2a1.875,1.875,0,0,0-.719.156L3.094,8.063A1.845,1.845,0,0,0,2,9.781,2.976,2.976,0,0,1,4,9H5.406l.25-.594L15,4.281l.781.25a1.019,1.019,0,0,0,.031.219,1.149,1.149,0,0,0,1.531.531,1.045,1.045,0,0,0,.188-.125l.781.25,1.438,3.25L19.594,9H20a2.943,2.943,0,0,1,1.75.563L18.875,3.094A1.814,1.814,0,0,0,17.188,2Zm-.562,5a1.319,1.319,0,0,0-.469.094,1.171,1.171,0,0,0-.656,1.5A1.042,1.042,0,0,0,15.906,9h1.281a1.108,1.108,0,0,0,.5-1.375A1.085,1.085,0,0,0,16.625,7Zm-4.656.594a2.969,2.969,0,0,0-1.062.25A2.866,2.866,0,0,0,9.594,9h4.813A2.515,2.515,0,0,0,11.969,7.594ZM4,10a2,2,0,0,0-2,2v8a2,2,0,0,0,2,2H20a2,2,0,0,0,2-2V12a2,2,0,0,0-2-2Zm2.406,1.469H17.594l.656.625a1.075,1.075,0,0,0-.062.219A1.256,1.256,0,0,0,19.5,13.5a1.287,1.287,0,0,0,.25-.031l.656.594v3.875l-.656.594a1.287,1.287,0,0,0-.25-.031,1.256,1.256,0,0,0-1.312,1.188,1.377,1.377,0,0,0,.063.25l-.656.594H6.406l-.656-.625a1.075,1.075,0,0,0,.063-.219A1.256,1.256,0,0,0,4.5,18.5a1.287,1.287,0,0,0-.25.031l-.656-.594V14.063l.656-.594a1.287,1.287,0,0,0,.25.031,1.256,1.256,0,0,0,1.313-1.187,1.075,1.075,0,0,0-.062-.219Zm5.531,1.75a2.9,2.9,0,0,0-3,2.781,2.9,2.9,0,0,0,3,2.781,2.9,2.9,0,0,0,3-2.781A2.9,2.9,0,0,0,11.938,13.219ZM6.5,14.813a1.193,1.193,0,1,0,0,2.375,1.193,1.193,0,1,0,0-2.375Zm11,0A1.193,1.193,0,1,0,18.813,16,1.256,1.256,0,0,0,17.5,14.813Z" transform="translate(4066 4108)"/>
    <rect id="Rectangle_50" data-name="Rectangle 50" class="cls-2" width="24" height="24" transform="translate(4066 4108)"/>
  </g>
</svg>
