<svg xmlns="http://www.w3.org/2000/svg" viewBox="6115 3513 24 24">
  <defs>
    <style>
      .cls-1 {
        fill: #f53141;
      }

      .cls-2 {
        fill: none;
      }
    </style>
  </defs>
  <g id="Group_44" data-name="Group 44" transform="translate(1885 -577)">
    <path id="Path_36" data-name="Path 36" class="cls-1" d="M3,2v9a4.938,4.938,0,0,0,4,4.781V19a1,1,0,0,1-1,1H5v2H6a3.016,3.016,0,0,0,3-3V14H8a3,3,0,0,1-3-3V4h9v7a3,3,0,0,1-3,3H10v5a3.016,3.016,0,0,0,3,3h1V20H13a1,1,0,0,1-1-1V15.781A4.938,4.938,0,0,0,16,11V2ZM17,2V8h2V2Zm3,0V9a1.9,1.9,0,0,1-2,2H17V22h2V12.813A3.954,3.954,0,0,0,22,9V2Z" transform="translate(4229 4090)"/>
    <rect id="Rectangle_54" data-name="Rectangle 54" class="cls-2" width="24" height="24" transform="translate(4230 4090)"/>
  </g>
</svg>
