<svg xmlns="http://www.w3.org/2000/svg" viewBox="5781 3513 24 24">
  <defs>
    <style>
      .cls-1 {
        fill: #f53141;
      }

      .cls-2 {
        fill: none;
      }
    </style>
  </defs>
  <g id="Group_47" data-name="Group 47" transform="translate(1578 -672)">
    <path id="Path_37" data-name="Path 37" class="cls-1" d="M8,3a3,3,0,1,0,3,3A3,3,0,0,0,8,3Zm6.5,0A2.5,2.5,0,1,0,17,5.5,2.5,2.5,0,0,0,14.5,3Zm0,7a5.145,5.145,0,0,0-2.844.781,7.373,7.373,0,0,1,1.906,1.313A5.932,5.932,0,0,1,17,11a5.711,5.711,0,0,1,.688.031A4.988,4.988,0,0,0,14.5,10ZM8,11a6.342,6.342,0,0,0-6,3.344V18h9.094A6.025,6.025,0,0,1,11,17a5.951,5.951,0,0,1,1.781-4.25A6.791,6.791,0,0,0,8,11Zm9,1a5,5,0,1,0,5,5A5,5,0,0,0,17,12Zm-1.344,2.25h3v.875H16.531l-.125,1.156a1.791,1.791,0,0,1,.813-.187c.258,0,1.625.012,1.625,1.781a1.7,1.7,0,0,1-1.812,1.781,1.691,1.691,0,0,1-1.812-1.562h1.063a.727.727,0,0,0,.75.719c.438,0,.75-.328.75-1a.849.849,0,0,0-.875-.937.905.905,0,0,0-.719.313l-.844-.219Z" transform="translate(4203 4184)"/>
    <rect id="Rectangle_53" data-name="Rectangle 53" class="cls-2" width="24" height="24" transform="translate(4203 4185)"/>
  </g>
</svg>
