<svg xmlns="http://www.w3.org/2000/svg" viewBox="6465 3465 24 24">
  <defs>
    <style>
      .cls-1 {
        fill: #f53141;
      }

      .cls-2 {
        fill: none;
      }
    </style>
  </defs>
  <g id="Group_45" data-name="Group 45" transform="translate(2190 -707)">
    <path id="Path_39" data-name="Path 39" class="cls-1" d="M10,5A1.984,1.984,0,0,0,8.25,6.063a5.666,5.666,0,0,0-2.781,1.5H5.438V7.531L2.344,10.25,2,10.531V20H6.813a7.8,7.8,0,0,0,6.313-2.625l.063-.031c.438-.406.977-.84,1.469-1.344H20a2,2,0,0,0,2-2V7a2,2,0,0,0-2-2Zm0,2H20V9H10ZM8,8.219V13l-.281.188a1,1,0,1,0,1.156,1.625s.984-.691,2.063-1.375h.031v-.031a5.917,5.917,0,0,1,2.125-1.094c.387-.059.426-.047.719.313l.031.031c.25.285.285.426.281.563a1.326,1.326,0,0,1-.281.625,17.01,17.01,0,0,1-2.031,2.031c-1.543,1.441-1.8,2.125-5,2.125H4V11.438L6.75,9.063l.031-.031A4.55,4.55,0,0,1,8,8.219Z" transform="translate(4275 4172)"/>
    <rect id="Rectangle_55" data-name="Rectangle 55" class="cls-2" width="24" height="24" transform="translate(4275 4172)"/>
  </g>
</svg>
