<svg xmlns="http://www.w3.org/2000/svg" xmlns:xlink="http://www.w3.org/1999/xlink" width="100.88" height="100.82" viewBox="0 0 100.88 100.82"><defs><clipPath id="a"><rect width="100.88" height="100.82" fill="none"/></clipPath></defs><g clip-path="url(#a)"><g transform="translate(5.6 14.42)"><path d="M24,103H8l3.2-84h9.6l2,52.56L56,55V71L87.92,55v48Z" transform="translate(-8 -19)" fill="#fff"/></g><g transform="translate(7.28 34.42)"><path d="M10.1,64H22.74l-.72-20H10.82Z" transform="translate(-10.1 -44)" fill="#ff697d"/></g><g transform="translate(5.6 74.42)"><path d="M8.88,94,8,120.4H24L23.12,94Z" transform="translate(-8 -94)" fill="#ff697d"/></g><g transform="translate(29.6 72.02)"><path d="M38,95v15.2h8V95a3.961,3.961,0,0,0-4-4h0A3.961,3.961,0,0,0,38,95Z" transform="translate(-38 -91)" fill="#c3dbea"/></g><g transform="translate(43.2 72.02)"><path d="M55,95v15.2h8V95a3.961,3.961,0,0,0-4-4h0A3.961,3.961,0,0,0,55,95Z" transform="translate(-55 -91)" fill="#c3dbea"/></g><g transform="translate(56.8 72.02)"><path d="M72,95v15.2h8V95a3.961,3.961,0,0,0-4-4h0A3.961,3.961,0,0,0,72,95Z" transform="translate(-72 -91)" fill="#c3dbea"/></g><g transform="translate(70.4 72.02)"><path d="M89,95v15.2h8V95a3.961,3.961,0,0,0-4-4h0A3.961,3.961,0,0,0,89,95Z" transform="translate(-89 -91)" fill="#c3dbea"/></g><g transform="translate(27.2 79.22)"><path d="M93.32,104.8H37.4a2.4,2.4,0,0,1,0-4.8H93.32a2.4,2.4,0,1,1,0,4.8Z" transform="translate(-35 -100)" fill="#fff"/></g><g transform="translate(18.005 47.997)"><path d="M91.021,113.794a2.357,2.357,0,0,1-2.4-2.4V67.314l-28.48,14.24a2.4,2.4,0,0,1-2.32-.08,2.514,2.514,0,0,1-1.12-2.08V67.314l-29.76,14.8a2.379,2.379,0,0,1-2.16-4.24l33.2-16.56a2.4,2.4,0,0,1,2.32.08,2.2,2.2,0,0,1,1.2,2v12.08l28.48-14.24a2.4,2.4,0,0,1,2.32.08,2.32,2.32,0,0,1,1.12,2.08v48A2.357,2.357,0,0,1,91.021,113.794Z" transform="translate(-23.507 -60.971)" fill="#3f4a54"/></g><g transform="translate(18.316 74.336)"><path d="M27.179,120.379a2.446,2.446,0,0,1-2.4-2.32l-.88-21.68a2.4,2.4,0,0,1,4.8-.16l.88,21.68a2.312,2.312,0,0,1-2.32,2.48Z" transform="translate(-23.895 -93.895)" fill="#3f4a54"/></g><g transform="translate(0 12.02)"><path d="M6.6,104.8H3.4a2.4,2.4,0,1,1,0-4.8h.88L7.4,18.32A2.446,2.446,0,0,1,9.8,16h9.6a2.446,2.446,0,0,1,2.4,2.32l2,52.56a2.4,2.4,0,0,1-4.8.16L17.08,20.8H12.12L9,102.48A2.446,2.446,0,0,1,6.6,104.8Z" transform="translate(-1 -16)" fill="#3f4a54"/></g><g transform="translate(82.32 1.68)"><path d="M106.38,7.815a2.179,2.179,0,0,1-1.68-.72l-.32-.32c-.08-.16-.16-.24-.24-.4s-.08-.32-.16-.48c0-.16-.08-.32-.08-.48a2.179,2.179,0,0,1,.72-1.68,2.468,2.468,0,0,1,3.36,0,2.3,2.3,0,0,1,.72,1.68,2.179,2.179,0,0,1-.72,1.68A1.907,1.907,0,0,1,106.38,7.815Z" transform="translate(-103.9 -3.075)" fill="#444b54"/></g><g transform="translate(42.4)"><path d="M84.4,9.075a8.054,8.054,0,0,1-5.68-2.32,3.283,3.283,0,0,0-4.64,0,8.064,8.064,0,0,1-11.36,0,3.283,3.283,0,0,0-4.64,0,2.32,2.32,0,0,1-3.36,0,2.32,2.32,0,0,1,0-3.36,7.992,7.992,0,0,1,11.36-.08,3.283,3.283,0,0,0,4.64,0,8.064,8.064,0,0,1,11.36,0,3.283,3.283,0,0,0,4.64,0,2.32,2.32,0,0,1,3.36,0,2.32,2.32,0,0,1,0,3.36A7.808,7.808,0,0,1,84.4,9.075Z" transform="translate(-54 -0.975)" fill="#444b54"/></g><g transform="translate(14.24 1.62)"><path d="M21.2,10.84a2.3,2.3,0,0,1-1.68-.72,2.32,2.32,0,0,1,0-3.36A12.708,12.708,0,0,1,28.56,3h12.8a2.357,2.357,0,0,1,2.4,2.4,2.357,2.357,0,0,1-2.4,2.4H28.56a7.918,7.918,0,0,0-5.68,2.32A2.3,2.3,0,0,1,21.2,10.84Z" transform="translate(-18.8 -3)" fill="#444b54"/></g><g transform="translate(29.6 96.02)"><path d="M97.92,125.8H40.4a2.4,2.4,0,1,1,0-4.8H97.92a2.4,2.4,0,1,1,0,4.8Z" transform="translate(-38 -121)" fill="#3f4a54"/></g><g transform="translate(95.92 95.891)"><path d="M123.3,125.768a1.015,1.015,0,0,1-.48-.08,1.137,1.137,0,0,1-.48-.16,1.749,1.749,0,0,1-.4-.24.625.625,0,0,1-.32-.32,2.3,2.3,0,0,1-.72-1.68,1.015,1.015,0,0,1,.08-.48,1.137,1.137,0,0,1,.16-.48c.08-.16.16-.24.24-.4a.625.625,0,0,1,.32-.32l.32-.32c.16-.08.24-.16.4-.24s.32-.08.48-.16a2.372,2.372,0,0,1,2.16.64l.32.32c.08.16.16.24.24.4s.08.32.16.48c0,.16.08.32.08.48a2.179,2.179,0,0,1-.72,1.68,1.745,1.745,0,0,1-.4.32c-.16.08-.24.16-.4.24s-.32.08-.48.16A.863.863,0,0,1,123.3,125.768Z" transform="translate(-120.9 -120.839)" fill="#3f4a54"/></g></g></svg>