<svg xmlns="http://www.w3.org/2000/svg" xmlns:xlink="http://www.w3.org/1999/xlink" width="94.98" height="89.505" viewBox="0 0 94.98 89.505"><defs><clipPath id="a"><rect width="94.98" height="89.505" fill="none"/></clipPath></defs><g clip-path="url(#a)"><path d="M91.6,75.156a5.3,5.3,0,0,0-7.425.225C73,86.557,63.7,90.157,52.377,88.732c-4.65-.6-6.975-1.95-11.175-3.825a18.922,18.922,0,0,1-2.4-1.35,4.505,4.505,0,0,1,0-7.8l11.25-6.525a6.117,6.117,0,0,0,2.55-7.95,6.01,6.01,0,0,0-8.4-2.55l-25.951,15h-7.5v-2.25H1v30h9.75v-5.25s18,7.5,33.3,7.5c20.551,0,37.576-10.35,47.552-20.926A5.5,5.5,0,0,0,91.6,75.156Z" transform="translate(-1 -16.478)" fill="#fff"/><path d="M93.178,72.757a7.614,7.614,0,0,0-10.575.225c-10.425,10.425-19.126,14.1-29.926,12.75a24.657,24.657,0,0,1-8.775-2.85c-.525-.225-1.125-.525-1.725-.825-.15-.075-.6-.3-2.25-1.2a2.253,2.253,0,0,1,0-3.9l11.325-6.525A8.353,8.353,0,0,0,54.7,59.556a8.138,8.138,0,0,0-5.025-4.275,8.268,8.268,0,0,0-6.525.75l-25.951,15a2.251,2.251,0,1,0,2.25,3.9l25.951-15a3.8,3.8,0,0,1,3-.375,3.62,3.62,0,0,1,2.25,1.95A3.878,3.878,0,0,1,49,66.531L37.676,73.057a6.758,6.758,0,0,0,0,11.7C39.4,85.732,40,86.032,40.3,86.182c.6.3,1.2.525,1.725.825a29.225,29.225,0,0,0,10.125,3.225c12.225,1.5,22.276-2.625,33.676-14.025a3.062,3.062,0,0,1,4.275-.15,3.245,3.245,0,0,1-.075,4.425c-4.5,4.725-21.076,20.251-45.977,20.251-12.3,0-26.626-5.1-31.051-6.75V70.732a2.21,2.21,0,0,0-2.25-2.25H3.25a2.25,2.25,0,1,0,0,4.5H8.5v25.5H3.25a2.25,2.25,0,1,0,0,4.5h7.5a2.21,2.21,0,0,0,2.25-2.25v-1.95c5.925,2.175,19.126,6.45,31.051,6.45,18,0,36.376-8.1,49.2-21.676A7.742,7.742,0,0,0,93.178,72.757Z" transform="translate(-1 -15.728)" fill="#444b54"/><g transform="translate(53.861)"><g transform="translate(6.441 28.812)"><path d="M81.4,56.17h0a21.916,21.916,0,0,1,32.4-11.775h0A21.916,21.916,0,0,1,81.4,56.17Z" transform="translate(-81.4 -41.079)" fill="#75e8d4"/></g><g transform="translate(6.441 28.805)"><path d="M81.4,56.168h0a22.032,22.032,0,0,0,8.325,3.075,34.3,34.3,0,0,0,15.226-18A21.906,21.906,0,0,0,81.4,56.168Z" transform="translate(-81.4 -41.069)" fill="#009f96"/></g><g transform="translate(4.041 41.522)"><path d="M80.6,62.656h-.45a1.066,1.066,0,0,1-.45-.15,1.639,1.639,0,0,1-.375-.225,1.317,1.317,0,0,1-.375-.3,1.636,1.636,0,0,1-.3-.375c-.075-.15-.15-.225-.225-.375s-.075-.3-.15-.45a.951.951,0,0,1-.075-.45,2.043,2.043,0,0,1,.675-1.575,1.636,1.636,0,0,1,.375-.3c.15-.075.225-.15.375-.225s.3-.075.45-.15a1.828,1.828,0,0,1,.9,0,1.066,1.066,0,0,1,.45.15,1.64,1.64,0,0,1,.375.225,1.317,1.317,0,0,1,.375.3,2.159,2.159,0,0,1,.675,1.575.951.951,0,0,1-.075.45c-.075.15-.075.3-.15.45a1.639,1.639,0,0,1-.225.375,1.317,1.317,0,0,1-.3.375A1.788,1.788,0,0,1,80.6,62.656Z" transform="translate(-78.2 -58.025)" fill="#3f4a54"/></g><g transform="translate(12.482 26.636)"><path d="M95.039,61a20.808,20.808,0,0,1-3.675-.3,2.238,2.238,0,1,1,.675-4.425,19.591,19.591,0,0,0,20.926-11.625,21.165,21.165,0,0,0-6.3-1.95,2.27,2.27,0,1,1,.6-4.5,24.154,24.154,0,0,1,9.75,3.45,2.28,2.28,0,0,1,.975,2.625A24.01,24.01,0,0,1,95.039,61Z" transform="translate(-89.454 -38.178)" fill="#3f4a54"/></g><g transform="translate(2.233 2.202)"><path d="M95.223,5.6h0A28.167,28.167,0,0,1,80.072,47.3h0A28.182,28.182,0,0,1,95.223,5.6Z" transform="translate(-75.789 -5.6)" fill="#75e8d4"/></g><g transform="translate(6.324 22.978)"><path d="M83.536,50.776a2.364,2.364,0,0,1-2.025-1.2,2.159,2.159,0,0,1,.975-3A21.333,21.333,0,0,0,92.837,34.8a2.23,2.23,0,0,1,4.2,1.5A25.342,25.342,0,0,1,84.511,50.476,1.65,1.65,0,0,1,83.536,50.776Z" transform="translate(-81.244 -33.301)" fill="#fff"/></g><path d="M79.328,48.893a2.138,2.138,0,0,1-1.875-1.05A30.445,30.445,0,0,1,93.879,2.766a2.317,2.317,0,0,1,2.625.975,30.18,30.18,0,0,1,2.775,26.551A30.059,30.059,0,0,1,80,48.743,2.19,2.19,0,0,1,79.328,48.893ZM93.5,7.641A25.946,25.946,0,0,0,80.3,43.793,25.946,25.946,0,0,0,93.5,7.641Z" transform="translate(-72.812 -2.664)" fill="#3f4a54"/></g><g transform="translate(35.497 15.891)"><g transform="translate(2.304 2.361)"><path d="M58.15,42h0a10.059,10.059,0,0,0-5.1-15h0A10.044,10.044,0,0,0,58.15,42Z" transform="translate(-51.399 -27)" fill="#75e8d4"/></g><g transform="translate(1.669)"><path d="M57.938,43.464a2.266,2.266,0,0,1-1.2-.375,2.291,2.291,0,0,1-.675-3.15,7.588,7.588,0,0,0,.825-6.825,7.753,7.753,0,0,0-4.8-4.875,2.267,2.267,0,0,1-1.425-2.85,2.237,2.237,0,0,1,2.85-1.425,12.483,12.483,0,0,1,7.65,7.65,12.108,12.108,0,0,1-1.35,10.725A2.006,2.006,0,0,1,57.938,43.464Z" transform="translate(-50.552 -23.852)" fill="#75e8d4"/></g><g transform="translate(0 0.074)"><path d="M57.382,43.488a2.665,2.665,0,0,1-.75-.15,12.483,12.483,0,0,1-7.65-7.65,12.351,12.351,0,0,1,1.35-10.725,2.278,2.278,0,0,1,2.625-.9,12.219,12.219,0,0,1,7.8,8.325,2.256,2.256,0,0,1-4.35,1.2,7.739,7.739,0,0,0-3.225-4.425,8.213,8.213,0,0,0,0,5.025,7.753,7.753,0,0,0,4.8,4.875,2.267,2.267,0,0,1,1.425,2.85A1.943,1.943,0,0,1,57.382,43.488Z" transform="translate(-48.327 -23.95)" fill="#3f4a54"/></g></g><g transform="translate(54.17 50.887)"><path d="M75.456,82.578a2.219,2.219,0,0,1-1.125-4.125,9.914,9.914,0,0,0,4.425-6.225,2.238,2.238,0,0,1,4.35,1.05,14.552,14.552,0,0,1-6.375,9A2.65,2.65,0,0,1,75.456,82.578Z" transform="translate(-73.224 -70.512)" fill="#3f4a54"/></g></g></svg>