<?xml version="1.0" encoding="utf-8"?>
<!-- Generator: Adobe Illustrator 27.6.1, SVG Export Plug-In . SVG Version: 6.00 Build 0)  -->
<svg version="1.1" id="Layer_1" xmlns="http://www.w3.org/2000/svg" xmlns:xlink="http://www.w3.org/1999/xlink" x="0px" y="0px"
	 viewBox="0 0 33 34.5" style="enable-background:new 0 0 33 34.5;" xml:space="preserve">
<style type="text/css">
	.st0{fill:#A02200;}
</style>
<path class="st0" d="M25.7,17v12.3c0,1.4-1.1,2.5-2.5,2.5s-2.5-1.1-2.5-2.5V17c0-1.4,1.1-2.5,2.5-2.5S25.7,15.6,25.7,17z M9.7,13.3
	c-1.4,0-2.5,1.1-2.5,2.5v13.6c0,1.4,1.1,2.5,2.5,2.5s2.5-1.1,2.5-2.5V15.8C12.2,14.4,11.1,13.3,9.7,13.3z M3,15.8
	c-1.4,0-2.5,1.1-2.5,2.5v11.1c0,1.4,1.1,2.5,2.5,2.5s2.5-1.1,2.5-2.5V18.3C5.5,16.9,4.4,15.8,3,15.8z M16.5,18.5
	c-1.4,0-2.5,1.1-2.5,2.5v8.3c0,1.4,1.1,2.5,2.5,2.5s2.5-1.1,2.5-2.5V21C19,19.6,17.9,18.5,16.5,18.5z M29.9,9
	c-1.4,0-2.5,1.1-2.5,2.5v17.8c0,1.4,1.1,2.5,2.5,2.5s2.5-1.1,2.5-2.5V11.5C32.4,10.1,31.3,9,29.9,9z M32.5,4.2
	c0,1.9-1.6,3.5-3.5,3.5c-0.6,0-1.2-0.2-1.7-0.4l-7.2,5.3c0,0.2,0.1,0.4,0.1,0.7c0,1.9-1.6,3.5-3.5,3.5c-1.9,0-3.5-1.6-3.5-3.5
	c0-0.4,0.1-0.7,0.2-1l-2.6-2.4c-0.5,0.2-1,0.4-1.5,0.4c-0.6,0-1.2-0.2-1.6-0.4l-4.7,4c-0.6,0.5-1.6,0.5-2.1-0.2
	c-0.5-0.6-0.5-1.6,0.2-2.1l4.9-4.1c0-0.2-0.1-0.4-0.1-0.7c0-1.9,1.6-3.5,3.5-3.5c1.9,0,3.5,1.6,3.5,3.5c0,0.3,0,0.6-0.1,0.8l2.7,2.5
	c0.4-0.2,0.8-0.3,1.3-0.3c0.6,0,1.1,0.2,1.6,0.4l7.2-5.3c0-0.2-0.1-0.4-0.1-0.6c0-1.9,1.6-3.5,3.5-3.5C30.9,0.7,32.5,2.2,32.5,4.2z
	 M10.8,6.6c0-0.8-0.7-1.5-1.5-1.5S7.8,5.8,7.8,6.6s0.7,1.5,1.5,1.5S10.8,7.5,10.8,6.6z M18.3,13.2c0-0.9-0.7-1.5-1.5-1.5
	s-1.5,0.7-1.5,1.5s0.7,1.5,1.5,1.5S18.3,14,18.3,13.2z M30.5,4.2c0-0.9-0.7-1.5-1.5-1.5s-1.5,0.7-1.5,1.5s0.7,1.5,1.5,1.5
	S30.5,5,30.5,4.2z"/>
</svg>
