<?xml version="1.0" encoding="utf-8"?>
<!-- Generator: Adobe Illustrator 23.0.3, SVG Export Plug-In . SVG Version: 6.00 Build 0)  -->
<svg version="1.1" id="Layer_1" xmlns="http://www.w3.org/2000/svg" xmlns:xlink="http://www.w3.org/1999/xlink" x="0px" y="0px"
	 viewBox="0 0 33 33" style="enable-background:new 0 0 33 33;" xml:space="preserve">
<style type="text/css">
	.st0{fill:#A02200;}
</style>
<path class="st0" d="M30,0H3C1.3,0,0,1.3,0,3v27c0,1.7,1.3,3,3,3h27c1.7,0,3-1.3,3-3V3C33,1.3,31.7,0,30,0z M4.5,28.5
	C3.7,28.5,3,27.8,3,27s0.7-1.5,1.5-1.5S6,26.2,6,27S5.3,28.5,4.5,28.5z M4.5,22.5C3.7,22.5,3,21.8,3,21s0.7-1.5,1.5-1.5S6,20.2,6,21
	S5.3,22.5,4.5,22.5z M10.5,28.5C9.7,28.5,9,27.8,9,27s0.7-1.5,1.5-1.5S12,26.2,12,27S11.3,28.5,10.5,28.5z M10.5,22.5
	C9.7,22.5,9,21.8,9,21s0.7-1.5,1.5-1.5S12,20.2,12,21S11.3,22.5,10.5,22.5z M10.5,16.5C9.7,16.5,9,15.8,9,15s0.7-1.5,1.5-1.5
	S12,14.2,12,15S11.3,16.5,10.5,16.5z M16.5,28.5c-0.8,0-1.5-0.7-1.5-1.5s0.7-1.5,1.5-1.5S18,26.2,18,27S17.3,28.5,16.5,28.5z
	 M16.5,22.5c-0.8,0-1.5-0.7-1.5-1.5s0.7-1.5,1.5-1.5S18,20.2,18,21S17.3,22.5,16.5,22.5z M16.5,16.5c-0.8,0-1.5-0.7-1.5-1.5
	s0.7-1.5,1.5-1.5S18,14.2,18,15S17.3,16.5,16.5,16.5z M22.5,28.5c-0.8,0-1.5-0.7-1.5-1.5s0.7-1.5,1.5-1.5S24,26.2,24,27
	S23.3,28.5,22.5,28.5z M22.5,22.5c-0.8,0-1.5-0.7-1.5-1.5s0.7-1.5,1.5-1.5S24,20.2,24,21S23.3,22.5,22.5,22.5z M21,15
	c0-0.8,0.7-1.5,1.5-1.5S24,14.2,24,15s-0.7,1.5-1.5,1.5S21,15.8,21,15z M28.5,22.5c-0.8,0-1.5-0.7-1.5-1.5s0.7-1.5,1.5-1.5
	S30,20.2,30,21S29.3,22.5,28.5,22.5z M28.5,16.5c-0.8,0-1.5-0.7-1.5-1.5s0.7-1.5,1.5-1.5S30,14.2,30,15S29.3,16.5,28.5,16.5z M30,9
	H3V3h27V9z"/>
</svg>
