<svg xmlns="http://www.w3.org/2000/svg" width="39" height="37.5" viewBox="0 0 39 37.5"><path d="M23,2a1.5,1.5,0,1,0,1.5,1.5A1.5,1.5,0,0,0,23,2ZM36.5,2A1.5,1.5,0,1,0,38,3.5,1.5,1.5,0,0,0,36.5,2ZM28.977,3.479A1.5,1.5,0,0,0,27.5,5V8.319a8.242,8.242,0,0,0-3,1.567V8a1.5,1.5,0,1,0-3,0v8.25a1.5,1.5,0,0,0,.009.173,8.243,8.243,0,0,0,16.482-.012A1.5,1.5,0,0,0,38,16.25V9.5a1.5,1.5,0,1,0-3,0v.387a8.207,8.207,0,0,0-4.5-1.849V5a1.5,1.5,0,0,0-1.523-1.521ZM29,11h1.5v1.38a2.384,2.384,0,0,1,2.391,2.183H31.054c-.1-.484-.555-.782-1.292-.782-.708,0-1.233.321-1.233.8,0,.368.319.592,1.014.75l1.412.3c1.458.321,2.112.935,2.112,2.06,0,1.3-1.014,2.207-2.566,2.426V21.5H29V20.126c-1.53-.186-2.448-.958-2.566-2.209H28.37c.15.511.633.8,1.424.8.77,0,1.3-.32,1.3-.8,0-.368-.286-.594-.946-.738l-1.362-.3c-1.458-.321-2.168-1.016-2.168-2.174,0-1.224.928-2.091,2.379-2.312ZM11,21.5a4.5,4.5,0,0,0-1.664.322H9.33L2,24.5v12l6.331-2.751a3.019,3.019,0,0,1,2.347-.026l13.6,5.555h.006a2.227,2.227,0,0,0,2.08-.073h.006l13.462-7.479a2.248,2.248,0,0,0-2.033-4.008v0L27.5,32H25.25a2.248,2.248,0,0,0,.7-4.386v-.006l-13.04-5.687h-.015A4.5,4.5,0,0,0,11,21.5Z" transform="translate(-2 -2)" fill="#a02200"/></svg>