<svg xmlns="http://www.w3.org/2000/svg" width="33" height="36" viewBox="0 0 33 36"><path d="M13,3A11.86,11.86,0,0,0,6.924,4.532,5.389,5.389,0,0,0,4,9a4.318,4.318,0,0,0,.454,1.907A1.5,1.5,0,0,0,4,12v3a4.318,4.318,0,0,0,.454,1.907A1.5,1.5,0,0,0,4,18v3a4.318,4.318,0,0,0,.454,1.907A1.5,1.5,0,0,0,4,24v3a4.318,4.318,0,0,0,.454,1.907A1.5,1.5,0,0,0,4,30v3a5.389,5.389,0,0,0,2.924,4.468A11.862,11.862,0,0,0,13,39a11.862,11.862,0,0,0,6.076-1.532A7.289,7.289,0,0,0,20.5,36.351a7.289,7.289,0,0,0,1.424,1.116A11.862,11.862,0,0,0,28,39a11.862,11.862,0,0,0,6.076-1.532A5.389,5.389,0,0,0,37,33V30a1.5,1.5,0,0,0-.454-1.1A4.316,4.316,0,0,0,37,27V24a1.5,1.5,0,0,0-.454-1.1A4.316,4.316,0,0,0,37,21a5.389,5.389,0,0,0-2.924-4.468A11.86,11.86,0,0,0,28,15a11.86,11.86,0,0,0-6.076,1.532c-.114.069-.209.16-.319.234A4.289,4.289,0,0,0,22,15V12a1.5,1.5,0,0,0-.454-1.1A4.316,4.316,0,0,0,22,9a5.389,5.389,0,0,0-2.924-4.468A11.86,11.86,0,0,0,13,3Zm0,3a9.11,9.11,0,0,1,4.532,1.1C18.6,7.746,19,8.433,19,9s-.4,1.254-1.468,1.9A9.11,9.11,0,0,1,13,12a9.11,9.11,0,0,1-4.532-1.1C7.4,10.254,7,9.567,7,9s.4-1.254,1.468-1.9A9.11,9.11,0,0,1,13,6ZM7,13.506A11.89,11.89,0,0,0,13,15a11.89,11.89,0,0,0,6-1.494V15c0,.567-.4,1.254-1.468,1.9A9.111,9.111,0,0,1,13,18a9.111,9.111,0,0,1-4.532-1.1C7.4,16.254,7,15.567,7,15ZM28,18a9.11,9.11,0,0,1,4.532,1.1C33.6,19.746,34,20.433,34,21s-.4,1.254-1.468,1.9A9.11,9.11,0,0,1,28,24a9.109,9.109,0,0,1-4.532-1.1C22.4,22.254,22,21.567,22,21s.4-1.254,1.468-1.9A9.109,9.109,0,0,1,28,18ZM7,19.506A11.892,11.892,0,0,0,13,21a11.892,11.892,0,0,0,6-1.494V21c0,.567-.4,1.254-1.468,1.9A9.111,9.111,0,0,1,13,24a9.111,9.111,0,0,1-4.532-1.1C7.4,22.254,7,21.567,7,21Zm0,6A11.892,11.892,0,0,0,13,27a11.892,11.892,0,0,0,6-1.494V27c0,.567-.4,1.254-1.468,1.9A9.111,9.111,0,0,1,13,30a9.111,9.111,0,0,1-4.532-1.1C7.4,28.254,7,27.567,7,27Zm15,0A11.89,11.89,0,0,0,28,27a11.89,11.89,0,0,0,6-1.494V27c0,.567-.4,1.254-1.468,1.9A9.111,9.111,0,0,1,28,30a9.111,9.111,0,0,1-4.532-1.1C22.4,28.254,22,27.567,22,27Zm-15,6A11.892,11.892,0,0,0,13,33a11.892,11.892,0,0,0,6-1.494V33c0,.567-.4,1.254-1.468,1.9A9.111,9.111,0,0,1,13,36a9.111,9.111,0,0,1-4.532-1.1C7.4,34.254,7,33.567,7,33Zm15,0A11.892,11.892,0,0,0,28,33a11.892,11.892,0,0,0,6-1.494V33c0,.567-.4,1.254-1.468,1.9A9.111,9.111,0,0,1,28,36a9.111,9.111,0,0,1-4.532-1.1C22.4,34.254,22,33.567,22,33Z" transform="translate(-4 -3)" fill="#a02200"/></svg>