<?xml version="1.0" encoding="utf-8"?>
<!-- Generator: Adobe Illustrator 23.0.3, SVG Export Plug-In . SVG Version: 6.00 Build 0)  -->
<svg version="1.1" id="Layer_1" xmlns="http://www.w3.org/2000/svg" xmlns:xlink="http://www.w3.org/1999/xlink" x="0px" y="0px"
	 viewBox="0 0 33 34.5" style="enable-background:new 0 0 33 34.5;" xml:space="preserve">
<style type="text/css">
	.st0{fill:#A02200;}
</style>
<path class="st0" d="M16.5,0l1.6,3.2l-17.3,9c-0.7,0.4-1,1.3-0.6,2c0.4,0.7,1.3,1,2,0.6l17.3-8.9L21,9l4.5-8.3L16.5,0z M28.5,10.5
	c-0.8,0-1.5,0.7-1.5,1.5v22.5h6V12c0-0.8-0.7-1.5-1.5-1.5H28.5z M19.5,15c-0.8,0-1.5,0.7-1.5,1.5v18h6v-18c0-0.8-0.7-1.5-1.5-1.5
	H19.5z M10.5,19.5C9.7,19.5,9,20.2,9,21v13.5h6V21c0-0.8-0.7-1.5-1.5-1.5H10.5z M1.5,24C0.7,24,0,24.7,0,25.5v9h6v-9
	C6,24.7,5.3,24,4.5,24H1.5z"/>
</svg>
