<?xml version="1.0" encoding="utf-8"?>
<!-- Generator: Adobe Illustrator 23.0.3, SVG Export Plug-In . SVG Version: 6.00 Build 0)  -->
<svg version="1.1" id="Layer_1" xmlns="http://www.w3.org/2000/svg" xmlns:xlink="http://www.w3.org/1999/xlink" x="0px" y="0px"
	 viewBox="0 0 37.5 39" style="enable-background:new 0 0 37.5 39;" xml:space="preserve">
<style type="text/css">
	.st0{fill:#A02200;}
</style>
<path class="st0" d="M1.5,0C0.7,0,0,0.7,0,1.5V33c0,3.3,2.7,6,6,6h25.5c3.3,0,6-2.7,6-6V12c0-0.8-0.7-1.5-1.5-1.5h-3V33
	c0,0.8-0.7,1.5-1.5,1.5S30,33.8,30,33V1.5C30,0.7,29.3,0,28.5,0H1.5z M4.5,6h21v4.5h-21V6z M4.5,16.5h9v3h-9V16.5z M16.5,16.5h9v3
	h-9V16.5z M4.5,22.5h9v3h-9V22.5z M16.5,22.5h9v3h-9V22.5z M4.5,28.5h9v3h-9V28.5z M16.5,28.5h9v3h-9V28.5z"/>
</svg>
