<svg xmlns="http://www.w3.org/2000/svg" width="33" height="34.5" viewBox="0 0 33 34.5"><path d="M34,4a2.991,2.991,0,0,0-2.827,3.993l-5.622,6.56a2.965,2.965,0,0,0-1.878.258l-4.682-3.12Q19,11.6,19,11.5a3,3,0,0,0-5.991-.182L8.649,13.5a3,3,0,1,0,1.342,2.684L14.351,14a2.985,2.985,0,0,0,2.977.188l4.682,3.12Q22,17.4,22,17.5a3,3,0,1,0,5.827-.993l5.622-6.56A3,3,0,1,0,34,4ZM16,22a2.991,2.991,0,0,0-2.827,3.993l-5.622,6.56a3.013,3.013,0,1,0,2.276,1.954l5.622-6.56a2.894,2.894,0,0,0,1.324-.053L22.1,33.224A3,3,0,1,0,28,34q0-.1-.009-.19l4.682-3.12A3,3,0,1,0,31,28q0,.1.009.19l-4.682,3.12a2.953,2.953,0,0,0-2.1-.205L18.9,25.776A3,3,0,0,0,16,22Z" transform="translate(-4 -4)" fill="#a02200"/></svg>