<svg xmlns="http://www.w3.org/2000/svg" width="48" height="50" viewBox="0 0 48 50"><path d="M45,2,39,8l6,6V10h6V6H45ZM5,4A2,2,0,1,0,5,8V34H17V28.441a5.931,5.931,0,0,1,0-8.883A7.731,7.731,0,0,1,21,18H33V8a2,2,0,1,0,0-4Zm4,6h4v4H9Zm8,0h4v4H17Zm8,0h4v4H25ZM9,18h4v4H9Zm12,4a2,2,0,1,0,0,4V52H33V44h4v8H49V26a2,2,0,1,0,0-4ZM9,26h4v4H9Zm16,2h4v4H25Zm8,0h4v4H33Zm8,0h4v4H41ZM25,36h4v4H25Zm8,0h4v4H33Zm8,0h4v4H41ZM9,40v4H3v4H9v4l6-6Zm16,4h4v4H25Zm16,0h4v4H41Z" transform="translate(-3 -2)" fill="#a02200"/></svg>