<svg xmlns="http://www.w3.org/2000/svg" width="30" height="36.02" viewBox="0 0 30 36.02"><path d="M20,3a1.5,1.5,0,0,0-1.5,1.5l-.879,9.694a4.422,4.422,0,0,1,4.758,0L21.5,4.5A1.5,1.5,0,0,0,20,3Zm0,13.5A1.5,1.5,0,1,0,21.5,18,1.5,1.5,0,0,0,20,16.5Zm-4.485,1.342-7.957,5.61a1.5,1.5,0,1,0,1.5,2.6l8.836-4.084a4.428,4.428,0,0,1-2.379-4.122Zm8.971,0a4.428,4.428,0,0,1-2.379,4.122l8.836,4.084a1.5,1.5,0,1,0,1.5-2.6Zm-4.509,7.638A1.5,1.5,0,0,0,18.5,27L17,39h2.748a1.5,1.5,0,0,0,.489,0H23L21.5,27a1.5,1.5,0,0,0-1.523-1.521ZM6.5,36A1.5,1.5,0,1,0,8,37.5,1.5,1.5,0,0,0,6.5,36Zm6,0A1.5,1.5,0,1,0,14,37.5,1.5,1.5,0,0,0,12.5,36Zm15,0A1.5,1.5,0,1,0,29,37.5,1.5,1.5,0,0,0,27.5,36Zm6,0A1.5,1.5,0,1,0,35,37.5,1.5,1.5,0,0,0,33.5,36Z" transform="translate(-5 -3)" fill="#a02200"/></svg>