<svg xmlns="http://www.w3.org/2000/svg" width="66" height="66" viewBox="0 0 66 66"><g transform="translate(-7 -7)"><path d="M40,7A33,33,0,1,0,73,40,33.014,33.014,0,0,0,40,7Zm0,2A30.976,30.976,0,0,1,66.609,24.078,1,1,0,0,0,67,26a.979.979,0,0,0,.563-.2,30.659,30.659,0,0,1,2.645,7.238A.885.885,0,0,0,70,33a1,1,0,0,0,0,2,.991.991,0,0,0,.559-.191,30.749,30.749,0,0,1,0,10.383A.991.991,0,0,0,70,45a1,1,0,0,0,0,2,.885.885,0,0,0,.207-.043A30.659,30.659,0,0,1,67.563,54.2.979.979,0,0,0,67,54a1,1,0,0,0-.391,1.922A31.165,31.165,0,0,1,55.922,66.609,1,1,0,0,0,54,67a.979.979,0,0,0,.2.563,30.956,30.956,0,0,1-19.387,3A.991.991,0,0,0,35,70a1,1,0,0,0-2,0,.885.885,0,0,0,.043.207,30.973,30.973,0,0,1-23.6-35.4A.991.991,0,0,0,10,35a1,1,0,0,0,0-2,.963.963,0,0,0-.211.043A30.841,30.841,0,0,1,12.438,25.8.979.979,0,0,0,13,26a1,1,0,0,0,.391-1.922A31.165,31.165,0,0,1,24.078,13.391,1,1,0,0,0,26,13a.979.979,0,0,0-.2-.562,30.841,30.841,0,0,1,7.238-2.648A.963.963,0,0,0,33,10a1,1,0,0,0,2,0,.991.991,0,0,0-.191-.559A31.138,31.138,0,0,1,40,9ZM9,40a1,1,0,1,0,1-1A1,1,0,0,0,9,40Zm62,0a1,1,0,1,0-1,1A1,1,0,0,0,71,40ZM31,12a1,1,0,1,0,1,1A1,1,0,0,0,31,12Zm6,0a1,1,0,1,0,1,1A1,1,0,0,0,37,12Zm6,0a1,1,0,1,0,1,1A1,1,0,0,0,43,12ZM22,15a1,1,0,1,0,1,1A1,1,0,0,0,22,15Zm6,0a1,1,0,1,0,1,1A1,1,0,0,0,28,15Zm6,0a1,1,0,1,0,1,1A1,1,0,0,0,34,15Zm6,0a1,1,0,1,0,1,1A1,1,0,0,0,40,15Zm18,0a1,1,0,1,0,1,1A1,1,0,0,0,58,15ZM19,18a1,1,0,1,0,1,1A1,1,0,0,0,19,18Zm6,0a1,1,0,1,0,1,1A1,1,0,0,0,25,18Zm6,0a1,1,0,1,0,1,1A1,1,0,0,0,31,18Zm6,0a1,1,0,1,0,1,1A1,1,0,0,0,37,18Zm6,0a1,1,0,1,0,1,1A1,1,0,0,0,43,18Zm12,0a1,1,0,1,0,1,1A1,1,0,0,0,55,18Zm6,0a1,1,0,1,0,1,1A1,1,0,0,0,61,18ZM16,21a1,1,0,1,0,1,1A1,1,0,0,0,16,21Zm6,0a1,1,0,1,0,1,1A1,1,0,0,0,22,21Zm6,0a1,1,0,1,0,1,1A1,1,0,0,0,28,21Zm24,0a1,1,0,1,0,1,1A1,1,0,0,0,52,21Zm6,0a1,1,0,1,0,1,1A1,1,0,0,0,58,21Zm6,0a1,1,0,1,0,1,1A1,1,0,0,0,64,21ZM19,24a1,1,0,1,0,1,1A1,1,0,0,0,19,24Zm6,0a1,1,0,1,0,1,1A1,1,0,0,0,25,24Zm6,0a1,1,0,1,0,1,1A1,1,0,0,0,31,24Zm18,0a1,1,0,1,0,1,1A1,1,0,0,0,49,24Zm6,0a1,1,0,1,0,1,1A1,1,0,0,0,55,24Zm6,0a1,1,0,1,0,1,1A1,1,0,0,0,61,24ZM16,27a1,1,0,1,0,1,1A1,1,0,0,0,16,27Zm6,0a1,1,0,1,0,1,1A1,1,0,0,0,22,27Zm6,0a1,1,0,1,0,1,1A1,1,0,0,0,28,27Zm24,0a1,1,0,1,0,1,1A1,1,0,0,0,52,27Zm6,0a1,1,0,1,0,1,1A1,1,0,0,0,58,27Zm6,0a1,1,0,1,0,1,1A1,1,0,0,0,64,27ZM13,30a1,1,0,1,0,1,1A1,1,0,0,0,13,30Zm6,0a1,1,0,1,0,1,1A1,1,0,0,0,19,30Zm30,0a1,1,0,1,0,1,1A1,1,0,0,0,49,30Zm6,0a1,1,0,1,0,1,1A1,1,0,0,0,55,30Zm6,0a1,1,0,1,0,1,1A1,1,0,0,0,61,30Zm6,0a1,1,0,1,0,1,1A1,1,0,0,0,67,30ZM16,33a1,1,0,1,0,1,1A1,1,0,0,0,16,33Zm30,0a1,1,0,1,0,1,1A1,1,0,0,0,46,33Zm6,0a1,1,0,1,0,1,1A1,1,0,0,0,52,33Zm6,0a1,1,0,1,0,1,1A1,1,0,0,0,58,33Zm6,0a1,1,0,1,0,1,1A1,1,0,0,0,64,33ZM13,36a1,1,0,1,0,1,1A1,1,0,0,0,13,36Zm36,0a1,1,0,1,0,1,1A1,1,0,0,0,49,36Zm6,0a1,1,0,1,0,1,1A1,1,0,0,0,55,36Zm6,0a1,1,0,1,0,1,1A1,1,0,0,0,61,36Zm6,0a1,1,0,1,0,1,1A1,1,0,0,0,67,36ZM46,39a1,1,0,1,0,1,1A1,1,0,0,0,46,39Zm6,0a1,1,0,1,0,1,1A1,1,0,0,0,52,39Zm6,0a1,1,0,1,0,1,1A1,1,0,0,0,58,39Zm6,0a1,1,0,1,0,1,1A1,1,0,0,0,64,39ZM13,42a1,1,0,1,0,1,1A1,1,0,0,0,13,42Zm6,0a1,1,0,1,0,1,1A1,1,0,0,0,19,42Zm6,0a1,1,0,1,0,1,1A1,1,0,0,0,25,42Zm18,0a1,1,0,1,0,1,1A1,1,0,0,0,43,42Zm6,0a1,1,0,1,0,1,1A1,1,0,0,0,49,42Zm6,0a1,1,0,1,0,1,1A1,1,0,0,0,55,42Zm6,0a1,1,0,1,0,1,1A1,1,0,0,0,61,42Zm6,0a1,1,0,1,0,1,1A1,1,0,0,0,67,42ZM16,45a1,1,0,1,0,1,1A1,1,0,0,0,16,45Zm6,0a1,1,0,1,0,1,1A1,1,0,0,0,22,45Zm6,0a1,1,0,1,0,1,1A1,1,0,0,0,28,45Zm18,0a1,1,0,1,0,1,1A1,1,0,0,0,46,45Zm6,0a1,1,0,1,0,1,1A1,1,0,0,0,52,45Zm6,0a1,1,0,1,0,1,1A1,1,0,0,0,58,45Zm6,0a1,1,0,1,0,1,1A1,1,0,0,0,64,45ZM19,48a1,1,0,1,0,1,1A1,1,0,0,0,19,48Zm6,0a1,1,0,1,0,1,1A1,1,0,0,0,25,48Zm6,0a1,1,0,1,0,1,1A1,1,0,0,0,31,48Zm24,0a1,1,0,1,0,1,1A1,1,0,0,0,55,48Zm6,0a1,1,0,1,0,1,1A1,1,0,0,0,61,48Zm6,0a1,1,0,1,0,1,1A1,1,0,0,0,67,48ZM16,51a1,1,0,1,0,1,1A1,1,0,0,0,16,51Zm6,0a1,1,0,1,0,1,1A1,1,0,0,0,22,51Zm6,0a1,1,0,1,0,1,1A1,1,0,0,0,28,51Zm6,0a1,1,0,1,0,1,1A1,1,0,0,0,34,51Zm24,0a1,1,0,1,0,1,1A1,1,0,0,0,58,51Zm6,0a1,1,0,1,0,1,1A1,1,0,0,0,64,51ZM19,54a1,1,0,1,0,1,1A1,1,0,0,0,19,54Zm6,0a1,1,0,1,0,1,1A1,1,0,0,0,25,54Zm6,0a1,1,0,1,0,1,1A1,1,0,0,0,31,54Zm6,0a1,1,0,1,0,1,1A1,1,0,0,0,37,54Zm18,0a1,1,0,1,0,1,1A1,1,0,0,0,55,54Zm6,0a1,1,0,1,0,1,1A1,1,0,0,0,61,54ZM22,57a1,1,0,1,0,1,1A1,1,0,0,0,22,57Zm6,0a1,1,0,1,0,1,1A1,1,0,0,0,28,57Zm6,0a1,1,0,1,0,1,1A1,1,0,0,0,34,57Zm24,0a1,1,0,1,0,1,1A1,1,0,0,0,58,57Zm6,0a1,1,0,1,0,1,1A1,1,0,0,0,64,57ZM25,60a1,1,0,1,0,1,1A1,1,0,0,0,25,60Zm6,0a1,1,0,1,0,1,1A1,1,0,0,0,31,60Zm24,0a1,1,0,1,0,1,1A1,1,0,0,0,55,60Zm6,0a1,1,0,1,0,1,1A1,1,0,0,0,61,60ZM28,63a1,1,0,1,0,1,1A1,1,0,0,0,28,63Zm6,0a1,1,0,1,0,1,1A1,1,0,0,0,34,63Zm18,0a1,1,0,1,0,1,1A1,1,0,0,0,52,63Zm6,0a1,1,0,1,0,1,1A1,1,0,0,0,58,63ZM31,66a1,1,0,1,0,1,1A1,1,0,0,0,31,66Zm6,0a1,1,0,1,0,1,1A1,1,0,0,0,37,66Z" fill="#1be961"/></g></svg>