<svg xmlns="http://www.w3.org/2000/svg" width="20" height="20" viewBox="0 0 20 20"><defs><style>.a{fill:#c52f20;}</style></defs><path class="a" d="M20,2a2,2,0,0,0-1.77,2.931L16.52,7.07a1.982,1.982,0,0,0-1.8.4L11.994,6.1Q12,6.052,12,6A2,2,0,0,0,8,6q0,.052,0,.1L5.281,7.465A2,2,0,1,0,6,9q0-.052,0-.1L8.719,7.535a2,2,0,0,0,2.563,0L14.006,8.9Q14,8.948,14,9a2,2,0,1,0,3.77-.93L19.48,5.932A2,2,0,1,0,20,2Zm0,11a2,2,0,0,0-1.8,2.875L16.5,18.064a1.979,1.979,0,0,0-1.427.166L12.932,16.52a2,2,0,1,0-3.91-.787l-3.48.994a2,2,0,1,0,.437,1.541l3.48-.994a2,2,0,0,0,2.471.5l2.139,1.711a2,2,0,1,0,3.689-.434l1.664-2.133A2,2,0,1,0,20,13Z" transform="translate(-2 -2)"/></svg>