<svg xmlns="http://www.w3.org/2000/svg" width="20" height="16.021" viewBox="0 0 20 16.021"><defs><style>.a{fill:#c52f20;}</style></defs><path class="a" d="M16.469,4a2.084,2.084,0,0,0-1.281.906l-1,1.5L15.906,7.5l1-1.5,2.188,5h2.219L18.687,5.188A2.111,2.111,0,0,0,17,4,1.73,1.73,0,0,0,16.469,4ZM7,4.094A1.954,1.954,0,0,0,5.313,5.312L2.813,11H5L7.187,6.094l1,1.5L9.906,6.5,8.813,5A1.936,1.936,0,0,0,7,4.094ZM12,10a2.927,2.927,0,0,0-2.812,2H2v3a4.95,4.95,0,0,0,5,5H8a2.947,2.947,0,0,0,3-3V13a1,1,0,0,1,2,0v4a2.947,2.947,0,0,0,3,3h1a4.95,4.95,0,0,0,5-5V12H14.812A2.927,2.927,0,0,0,12,10ZM4,14H9v3a.943.943,0,0,1-1,1H7a2.947,2.947,0,0,1-3-3Zm11,0h5v1a2.947,2.947,0,0,1-3,3H16a.943.943,0,0,1-1-1Z" transform="translate(-2 -3.979)"/></svg>