<svg xmlns="http://www.w3.org/2000/svg" width="215" height="50" viewBox="0 0 215 50" fill="none"><path d="M63.97 21.2261L66.04 18.6461C64 16.6361 61.03 15.4061 58.06 15.4061C51.85 15.4061 47.02 19.9961 47.02 25.9661C47.02 31.9961 51.79 36.6461 57.94 36.6461C60.91 36.6461 63.94 35.2961 66.07 33.1961L63.97 30.8561C62.38 32.3861 60.22 33.3461 58.12 33.3461C53.92 33.3461 50.62 30.0761 50.62 25.9361C50.62 21.7961 53.92 18.5561 58.12 18.5561C60.25 18.5561 62.44 19.5761 63.97 21.2261ZM81.228 36.4961L81.198 26.0261C81.168 22.5161 78.858 20.4161 74.748 20.4161C71.718 20.4161 70.098 21.1061 67.878 22.4261L69.288 24.8261C70.878 23.7461 72.468 23.2061 73.998 23.2061C76.518 23.2061 77.808 24.4061 77.808 26.4161V26.8961H72.978C69.138 26.9261 66.948 28.7861 66.948 31.6961C66.948 34.5161 69.108 36.6461 72.558 36.6461C74.868 36.6461 76.698 35.9561 77.838 34.5461V36.4961H81.228ZM73.278 33.9161C71.358 33.9161 70.188 32.9861 70.188 31.5461C70.188 30.0161 71.238 29.4161 73.488 29.4161H77.808V30.8861C77.628 32.6261 75.738 33.9161 73.278 33.9161ZM93.8261 20.4161C91.3361 20.4161 89.4161 21.4361 88.2461 23.2961V20.5361H84.7961V42.3161H88.2461V33.7361C89.4161 35.5961 91.3361 36.6161 93.8861 36.6161C98.4461 36.6161 101.446 33.3461 101.446 28.5761C101.446 23.7161 98.3561 20.4161 93.8261 20.4161ZM93.1061 33.6761C90.2561 33.6761 88.2461 31.5461 88.2461 28.4561C88.2461 25.4561 90.2561 23.2961 93.1061 23.2961C95.9561 23.2961 97.9661 25.4861 97.9661 28.4561C97.9661 31.5161 95.9561 33.6761 93.1061 33.6761ZM105.547 13.9061C104.407 13.9061 103.537 14.7761 103.537 15.9761C103.537 17.1461 104.407 18.0161 105.547 18.0161C106.687 18.0161 107.557 17.1461 107.557 15.9761C107.557 14.7761 106.687 13.9061 105.547 13.9061ZM103.837 20.5361V36.4961H107.257V20.5361H103.837ZM119.322 32.8361C118.392 33.2861 117.642 33.5261 116.922 33.5261C115.842 33.5261 115.212 33.0161 115.212 31.3661V23.7161H119.922V21.1361H115.212V16.7561H111.792V21.1361H109.542V23.7161H111.792V31.9961C111.792 35.2661 113.862 36.6461 116.262 36.6461C117.612 36.6461 118.932 36.2261 120.192 35.4761L119.322 32.8361ZM135.139 36.4961L135.109 26.0261C135.079 22.5161 132.769 20.4161 128.659 20.4161C125.629 20.4161 124.009 21.1061 121.789 22.4261L123.199 24.8261C124.789 23.7461 126.379 23.2061 127.909 23.2061C130.429 23.2061 131.719 24.4061 131.719 26.4161V26.8961H126.889C123.049 26.9261 120.859 28.7861 120.859 31.6961C120.859 34.5161 123.019 36.6461 126.469 36.6461C128.779 36.6461 130.609 35.9561 131.749 34.5461V36.4961H135.139ZM127.189 33.9161C125.269 33.9161 124.099 32.9861 124.099 31.5461C124.099 30.0161 125.149 29.4161 127.399 29.4161H131.719V30.8861C131.539 32.6261 129.649 33.9161 127.189 33.9161ZM141.707 31.6361V14.2361H138.287V31.9961C138.287 35.0561 140.027 36.6461 142.247 36.6461C143.207 36.6461 144.227 36.3761 145.247 35.8061L144.767 32.9861C144.167 33.3161 143.657 33.4961 143.177 33.4961C142.277 33.4961 141.707 32.9261 141.707 31.6361ZM148.325 13.9061C147.185 13.9061 146.315 14.7761 146.315 15.9761C146.315 17.1461 147.185 18.0161 148.325 18.0161C149.465 18.0161 150.335 17.1461 150.335 15.9761C150.335 14.7761 149.465 13.9061 148.325 13.9061ZM146.615 20.5361V36.4961H150.035V20.5361H146.615ZM163.03 24.5561L164.29 22.0061C162.85 20.9861 160.72 20.3861 158.71 20.3861C155.65 20.3861 152.83 21.7661 152.83 25.0061C152.8 30.7661 161.2 28.9361 161.2 32.2061C161.2 33.4061 160.06 33.9161 158.59 33.9161C156.85 33.9161 154.63 33.1661 153.25 31.9361L152.02 34.3961C153.61 35.8361 156.1 36.6161 158.44 36.6161C161.65 36.6161 164.56 35.1461 164.56 31.8761C164.59 26.0861 156.1 27.6761 156.1 24.7361C156.1 23.5961 157.09 23.1461 158.44 23.1461C159.85 23.1461 161.62 23.6861 163.03 24.5561ZM173.852 33.8561C171.692 33.8561 170.042 32.7161 169.262 30.8561L180.872 27.3761C180.602 23.0261 177.692 20.3561 173.342 20.4161C168.422 20.4761 165.332 23.8361 165.332 28.5161C165.332 33.3461 168.722 36.6161 173.642 36.6161C176.402 36.6161 178.742 35.5661 180.542 33.3761L178.532 31.5161C177.242 33.0461 175.622 33.8561 173.852 33.8561ZM173.552 23.2061C175.442 23.2061 176.792 23.9561 177.542 25.7561L168.782 28.3661V28.3361C168.782 25.0061 170.642 23.2061 173.552 23.2061ZM183.754 32.8061C182.674 32.8061 181.864 33.6161 181.864 34.7561C181.864 35.9261 182.674 36.7661 183.754 36.7661C184.834 36.7661 185.644 35.9261 185.644 34.7561C185.644 33.6161 184.834 32.8061 183.754 32.8061ZM201.328 36.4961L201.298 26.0261C201.268 22.5161 198.958 20.4161 194.848 20.4161C191.818 20.4161 190.198 21.1061 187.978 22.4261L189.388 24.8261C190.978 23.7461 192.568 23.2061 194.098 23.2061C196.618 23.2061 197.908 24.4061 197.908 26.4161V26.8961H193.078C189.238 26.9261 187.048 28.7861 187.048 31.6961C187.048 34.5161 189.208 36.6461 192.658 36.6461C194.968 36.6461 196.798 35.9561 197.938 34.5461V36.4961H201.328ZM193.378 33.9161C191.458 33.9161 190.288 32.9861 190.288 31.5461C190.288 30.0161 191.338 29.4161 193.588 29.4161H197.908V30.8861C197.728 32.6261 195.838 33.9161 193.378 33.9161ZM206.456 13.9061C205.316 13.9061 204.446 14.7761 204.446 15.9761C204.446 17.1461 205.316 18.0161 206.456 18.0161C207.596 18.0161 208.466 17.1461 208.466 15.9761C208.466 14.7761 207.596 13.9061 206.456 13.9061ZM204.746 20.5361V36.4961H208.166V20.5361H204.746Z" fill="#090D2E"></path><rect y="6.99609" width="38" height="38" rx="19" fill="#090D2E"></rect><path d="M11.7717 22.8476C10.3404 22.8476 8.96031 22.6269 7.83577 22.1855C7.58019 22.0751 7.37573 22.4062 7.52908 22.6269L11.5672 28.1441C11.6694 28.2544 11.8228 28.2544 11.8739 28.1441L15.912 22.6269C16.0654 22.4062 15.8609 22.0751 15.6053 22.1855C14.5319 22.6269 13.2029 22.8476 11.7717 22.8476Z" fill="white"></path><path d="M22.2097 31.128C25.2569 31.128 28.1952 31.6104 30.5894 32.5751C31.1335 32.8163 31.5688 32.0928 31.2424 31.6104L22.645 19.5507C22.4274 19.3095 22.1009 19.3095 21.992 19.5507L13.3947 31.6104C13.0682 32.0928 13.5035 32.8163 14.0476 32.5751C16.333 31.6104 19.1625 31.128 22.2097 31.128Z" fill="white"></path></svg>