<?xml version="1.0" encoding="utf-8"?>
<svg xmlns="http://www.w3.org/2000/svg" fill="none" height="45" viewBox="0 0 189 45" width="189">
<path d="M64.429 34.5904H54.2227L54.2235 20.5218H57.2771V31.776H64.429V34.5904Z" fill="#1A1A1A"/>
<path d="M43.6155 27.6164V23.315H45.976C47.5032 23.315 48.4555 24.0589 48.4555 25.4457V25.4857C48.4555 26.6916 47.5636 27.6164 46.0363 27.6164H43.6155ZM40.5601 34.5904H43.6155V30.3697H45.9357C49.0506 30.3697 51.5502 28.6806 51.5502 25.4254V25.3855C51.5502 22.5116 49.546 20.5218 46.2341 20.5218H40.5601V34.5904ZM23.3418 34.5904H26.3368V25.4661L30.2053 31.4143H30.2849L34.1928 25.405V34.5896H37.2281V20.5218H33.993L30.2849 26.4708L26.4838 20.5218H23.3418V34.5904Z" fill="#1A1A1A"/>
<path d="M70.7412 34.5904H67.6858V29.0432L62.3496 20.5218H65.9213L69.234 26.1693L72.6055 20.5218H76.0782L70.7412 28.9829V34.5904Z" fill="#1A1A1A"/>
<path d="M19.869 34.5904H16.8145V20.5218H19.869V34.5904Z" fill="#1A1A1A"/>
<path d="M13.8689 30.4299C13.8689 33.2239 11.5549 34.7908 8.25941 34.7908C5.94533 34.7908 3.61002 34.0477 1.77734 32.5394L3.55032 30.3616C4.92549 31.407 6.57982 32.0587 8.32578 32.0587C9.70007 32.0587 10.6608 31.5551 10.6608 30.7322V30.6923C10.6608 29.9076 10.0813 29.4599 7.52834 28.8561C4.44969 28.1325 2.38794 27.1474 2.38794 24.6015V24.5624C2.38794 22.0088 4.61441 20.3213 7.73554 20.3213C9.962 20.3213 11.861 20.9634 13.4106 22.109L11.5918 24.4058C10.2388 23.5413 8.97974 23.0542 7.69129 23.0542C6.40461 23.0542 5.54209 23.596 5.54209 24.2788V24.3196C5.54209 25.2444 6.38249 25.5467 9.02398 26.1692C12.1239 26.9123 13.8689 27.9382 13.8689 30.39V30.4299Z" fill="#1A1A1A"/>
<path d="M135.788 29.4618L138.962 22.3575L142.117 29.4618H135.788ZM131.922 34.5904H133.526L135.173 30.8987H142.733L144.358 34.5904H146.045L139.717 20.5218H138.249L131.922 34.5904Z" fill="#1A1A1A"/>
<path d="M157.812 34.5904H148.578V20.5218H150.146V33.1237H157.812V34.5904Z" fill="#1A1A1A"/>
<path d="M169.669 34.5904H160.436V20.5218H162.003V33.1237H169.669V34.5904Z" fill="#1A1A1A"/>
<path d="M119.851 34.5904H118.447L114.092 20.5218H115.618L119.175 32.1553L122.585 20.5219H123.741L127.154 32.1553L130.707 20.5218H132.183L127.814 34.5904H126.455L123.138 23.298L119.851 34.5904Z" fill="#1A1A1A"/>
<path d="M172.357 33.124H187.96V34.5906H172.357V33.124Z" fill="#1A1A1A"/>
<path d="M179.981 27.8813C179.981 29.8078 178.447 30.9446 176.35 30.9446C174.765 30.9446 173.392 30.4323 172.225 29.3921L173.489 27.8813C174.366 28.6025 175.238 29.0687 176.35 29.0687C177.225 29.0687 177.795 28.6568 177.795 28.088V28.0605C177.795 27.4799 177.441 27.0379 175.838 26.6588C173.878 26.1592 172.615 25.3845 172.615 23.5838V23.5563C172.615 21.7957 174.031 20.6321 176.018 20.6321C177.434 20.6321 178.641 21.0752 179.628 21.8656L178.518 23.4723C177.657 22.8767 176.808 22.5169 175.989 22.5169C175.169 22.5169 174.739 22.8909 174.739 23.3623V23.3898C174.739 24.0277 175.155 24.345 176.837 24.774C178.808 25.2871 179.981 26.1631 179.981 27.8531V27.8813Z" fill="#1A1A1A"/>
<path d="M185.438 30.8535H183.399V22.7388H180.793V20.7708H188.028V22.7396H185.438V30.8535Z" fill="#1A1A1A"/>
<path clip-rule="evenodd" d="M95.1251 9.60129C104.592 9.60129 112.266 17.3763 112.266 26.9674C112.266 36.5586 104.592 44.3344 95.1251 44.3344C85.6574 44.3344 77.9824 36.5586 77.9824 26.9674C77.9824 17.3771 85.6574 9.60129 95.1251 9.60129Z" fill="#CCCCCC" fill-rule="evenodd"/>
<path clip-rule="evenodd" d="M111.83 30.8688H111.831L111.828 30.8802C111.654 31.6396 111.436 32.3795 111.168 33.0965L111.13 33.1967C111.095 33.2855 111.061 33.3752 111.024 33.464C111.007 33.5112 110.988 33.5585 110.967 33.6058C110.937 33.6832 110.905 33.7606 110.873 33.8388C110.849 33.8966 110.822 33.9553 110.797 34.0132C110.768 34.0792 110.737 34.1444 110.708 34.2104C110.679 34.2772 110.649 34.3424 110.618 34.4084C110.592 34.467 110.563 34.5257 110.536 34.5835C107.749 40.3573 101.896 44.3352 95.1252 44.3352C88.3454 44.3352 82.4856 40.3492 79.7044 34.564C79.6843 34.52 79.6634 34.4784 79.6433 34.4344C79.6047 34.3497 79.5645 34.2658 79.5267 34.1802C79.5066 34.1362 79.4873 34.0922 79.4672 34.0474C79.4302 33.9618 79.3916 33.8746 79.3554 33.7883C79.3385 33.7484 79.3216 33.7084 79.3047 33.6685C79.2669 33.5764 79.2291 33.4835 79.1929 33.3906L79.1519 33.2831C79.1133 33.1837 79.0755 33.0843 79.0385 32.9849L79.0055 32.8952C78.9677 32.7893 78.9315 32.6826 78.8945 32.5766L78.8696 32.5033C78.8334 32.3917 78.7964 32.2776 78.7618 32.1644L78.7425 32.1024C78.7064 31.9835 78.6718 31.8653 78.6388 31.7464L78.6259 31.6983C78.5921 31.5769 78.5592 31.4538 78.5262 31.33L78.5157 31.2868C78.4844 31.1629 78.4546 31.0375 78.4257 30.912L78.416 30.8704V30.868C80.5891 29.385 84.1214 26.9927 87.3802 24.8571C90.2337 24.1645 92.8146 23.7775 95.1252 23.696C97.4326 23.7783 100.013 24.1645 102.868 24.8571C106.169 27.0212 109.714 29.3687 111.849 30.7898V30.7906V30.7914V30.7922L111.847 30.7938V30.7946C111.841 30.8199 111.837 30.8444 111.83 30.8688Z" fill="#1A1A1A" fill-rule="evenodd"/>
<path clip-rule="evenodd" d="M78.416 30.8688C80.5891 29.3858 84.1214 26.9935 87.3802 24.8579C90.2337 24.1653 92.8146 23.7783 95.1252 23.6968C97.4326 23.7791 100.013 24.1653 102.868 24.8579C106.169 27.022 109.714 29.3695 111.849 30.7906C111.826 30.9006 111.799 31.0089 111.773 31.1181L111.76 31.1711C111.736 31.2746 111.708 31.3764 111.681 31.4799L111.663 31.5434C111.637 31.6461 111.609 31.7496 111.579 31.8514L111.565 31.8979C111.399 32.4674 111.205 33.0256 110.985 33.5691L110.965 33.6123C110.928 33.7084 110.885 33.8046 110.846 33.9007L110.819 33.9643C110.777 34.058 110.736 34.1517 110.693 34.2454L110.667 34.3032C110.622 34.3986 110.579 34.4955 110.533 34.5908L110.521 34.612C110.318 35.0284 110.103 35.435 109.868 35.8326L109.84 35.8831C109.789 35.9679 109.737 36.0518 109.686 36.1349L109.641 36.2099C109.591 36.2906 109.54 36.3712 109.488 36.4511L109.439 36.526C109.388 36.6075 109.334 36.6874 109.28 36.7664L109.24 36.8267C108.991 37.1877 108.732 37.5405 108.458 37.8827C108.441 37.9047 108.421 37.9275 108.405 37.9503C108.35 38.0196 108.292 38.088 108.236 38.1548C108.211 38.1858 108.187 38.2151 108.16 38.2461C108.105 38.3113 108.049 38.3765 107.995 38.44C107.967 38.471 107.939 38.502 107.912 38.5329C107.857 38.5965 107.799 38.66 107.743 38.7228C107.717 38.7529 107.69 38.7823 107.66 38.8116C107.602 38.8751 107.543 38.9395 107.482 39.0023C107.462 39.0243 107.441 39.0463 107.417 39.0691C107.216 39.2809 107.008 39.4879 106.794 39.6883C106.76 39.7193 106.727 39.7511 106.695 39.7812C106.64 39.8334 106.583 39.8831 106.528 39.9344C106.489 39.9703 106.448 40.0061 106.409 40.0411C106.357 40.0892 106.301 40.1365 106.246 40.1846C106.201 40.2204 106.16 40.2579 106.118 40.2946C106.062 40.3402 106.008 40.3858 105.952 40.4323C105.91 40.4681 105.867 40.5023 105.823 40.5382C105.766 40.5838 105.712 40.6286 105.655 40.6734C105.61 40.7085 105.565 40.7443 105.518 40.7802C105.461 40.8226 105.408 40.8657 105.351 40.9081C105.305 40.9431 105.256 40.9774 105.211 41.0124C105.112 41.0849 105.01 41.1583 104.909 41.23C104.856 41.2691 104.8 41.3082 104.744 41.3465C104.692 41.3815 104.641 41.4166 104.591 41.4508C104.534 41.4883 104.48 41.5257 104.422 41.5624C104.369 41.5974 104.316 41.6309 104.265 41.6651C104.208 41.7009 104.152 41.7368 104.095 41.7718C104.043 41.8052 103.988 41.8378 103.937 41.8704C103.876 41.9063 103.817 41.9421 103.756 41.978C103.705 42.0089 103.654 42.0383 103.603 42.0684C103.539 42.1051 103.475 42.1409 103.409 42.1768C103.361 42.2045 103.312 42.2322 103.263 42.2583C103.178 42.3055 103.094 42.3511 103.006 42.3968C102.969 42.4163 102.932 42.4359 102.894 42.4554C102.79 42.5084 102.685 42.5614 102.581 42.6127C102.539 42.6339 102.497 42.6534 102.454 42.6738C102.379 42.7105 102.302 42.7455 102.228 42.7806C102.18 42.8026 102.13 42.8254 102.082 42.8474C102.01 42.8791 101.94 42.9109 101.868 42.9419C101.817 42.9639 101.765 42.9859 101.714 43.0071C101.644 43.0372 101.573 43.0657 101.502 43.0951C101.452 43.1163 101.401 43.1366 101.351 43.1562C101.275 43.1855 101.2 43.2148 101.124 43.2434C101.076 43.2613 101.03 43.2792 100.982 43.2963C100.886 43.3314 100.79 43.3656 100.694 43.3998C100.667 43.4088 100.64 43.4186 100.613 43.4283C100.489 43.4699 100.363 43.5123 100.237 43.5514C100.205 43.562 100.171 43.5709 100.137 43.5815C100.043 43.6108 99.9492 43.6394 99.8551 43.6663C99.8108 43.6793 99.7674 43.6915 99.7215 43.7037C99.6387 43.7266 99.5551 43.7502 99.4706 43.7722C99.4216 43.7844 99.3717 43.7974 99.3226 43.8097C99.2422 43.8308 99.1594 43.8504 99.0781 43.8708C99.0291 43.8822 98.9784 43.8936 98.9294 43.905C98.8441 43.9246 98.758 43.9441 98.6736 43.962C98.6286 43.9718 98.5835 43.9816 98.5377 43.9914C98.438 44.0126 98.3366 44.0313 98.2353 44.05C98.2047 44.0566 98.1742 44.0623 98.1436 44.0671C98.0101 44.0916 97.875 44.1144 97.7415 44.1348C97.7262 44.1372 97.7109 44.1397 97.6964 44.1413C97.5782 44.1592 97.4584 44.1763 97.3385 44.1926C97.2991 44.1975 97.2573 44.2024 97.2179 44.2073C97.123 44.2195 97.0273 44.2301 96.9332 44.2407C96.8857 44.2456 96.8391 44.2497 96.7924 44.2545C96.7016 44.2635 96.6107 44.2717 96.5198 44.279C96.4707 44.2831 96.4225 44.2871 96.3734 44.2904C96.2842 44.2977 96.1917 44.3034 96.1008 44.3075C96.0541 44.31 96.0067 44.3132 95.9576 44.3165C95.8571 44.3214 95.755 44.3246 95.6536 44.3279C95.6182 44.3295 95.582 44.3303 95.5459 44.3311C95.4067 44.3344 95.2652 44.336 95.1268 44.336C94.9853 44.336 94.8453 44.3344 94.7062 44.3311C94.67 44.3303 94.633 44.3295 94.5968 44.3279C94.4955 44.3246 94.3926 44.3214 94.292 44.3165C94.2454 44.314 94.2003 44.3108 94.1537 44.3075C94.0612 44.3034 93.9703 44.2977 93.8778 44.2904C93.8296 44.288 93.7821 44.2839 93.7331 44.279C93.6414 44.2725 93.5521 44.2635 93.462 44.2554C93.4146 44.2505 93.3679 44.2472 93.3221 44.2415C93.224 44.2301 93.1242 44.2203 93.0277 44.2073C92.9915 44.2032 92.9529 44.1983 92.9175 44.1934C92.7848 44.1763 92.6554 44.1584 92.5243 44.138L92.5138 44.1364C92.3779 44.116 92.242 44.0932 92.1077 44.0688C92.0787 44.0639 92.0498 44.0582 92.0216 44.0517C91.9187 44.0329 91.8149 44.0142 91.7128 43.9922C91.6693 43.984 91.6283 43.9743 91.5841 43.9653C91.4956 43.9466 91.4088 43.927 91.3203 43.9066C91.272 43.896 91.2254 43.8846 91.1771 43.8724C91.0935 43.8537 91.0099 43.8325 90.9254 43.8105C90.8796 43.7983 90.8337 43.7868 90.7895 43.7754C90.6986 43.7518 90.6085 43.7266 90.5201 43.7013C90.4807 43.6907 90.4429 43.6801 90.4034 43.6679C90.2909 43.6361 90.1799 43.6027 90.0681 43.5677C90.0528 43.5628 90.0383 43.5587 90.023 43.5538C89.8952 43.5139 89.7681 43.4707 89.641 43.4283C89.6137 43.4194 89.5871 43.4088 89.559 43.3998C89.4617 43.3656 89.366 43.3322 89.2702 43.2971C89.2276 43.2817 89.1866 43.2654 89.1448 43.2499C89.0628 43.2181 88.9815 43.1871 88.8995 43.1554C88.8544 43.1374 88.8094 43.1195 88.7644 43.1008C88.6872 43.069 88.6092 43.0372 88.5311 43.0046C88.4869 42.9859 88.4435 42.968 88.3984 42.9484C88.318 42.9134 88.2368 42.8775 88.1564 42.8417C88.1169 42.8246 88.0767 42.8066 88.0381 42.7879C87.9408 42.7439 87.8443 42.6983 87.7486 42.6518C87.7285 42.6412 87.7068 42.6323 87.6851 42.6217C87.5668 42.5638 87.4494 42.5043 87.3328 42.444C87.3063 42.4294 87.2805 42.4155 87.254 42.4025C87.1647 42.356 87.0762 42.3071 86.9886 42.2607C86.9484 42.2387 86.9098 42.2167 86.8695 42.1939C86.7956 42.1531 86.7216 42.1108 86.646 42.0684C86.6041 42.044 86.5623 42.0187 86.5213 41.9951C86.4497 41.9527 86.3781 41.9103 86.3074 41.8671C86.2656 41.8403 86.2229 41.8158 86.1827 41.7906C86.1095 41.7449 86.0363 41.6985 85.9631 41.652C85.927 41.6292 85.8916 41.6056 85.8546 41.5811C85.7709 41.5266 85.6881 41.4703 85.6045 41.4149C85.5787 41.3978 85.5538 41.3815 85.5297 41.3644C85.4219 41.2903 85.3157 41.2161 85.2096 41.1403C85.1895 41.1249 85.1685 41.1102 85.1476 41.0947C85.064 41.0336 84.9804 40.9717 84.8975 40.9089C84.8613 40.882 84.8259 40.8543 84.7897 40.8266C84.723 40.7753 84.6554 40.724 84.5903 40.6718C84.5517 40.6409 84.5123 40.6099 84.4737 40.5789C84.4085 40.5276 84.345 40.4754 84.2831 40.4225C84.2453 40.3915 84.2067 40.3606 84.1705 40.3288C84.1069 40.2758 84.0434 40.222 83.9807 40.1674C83.9445 40.1357 83.9075 40.1047 83.8721 40.0721C83.8045 40.0134 83.7378 39.9531 83.6726 39.8937C83.6429 39.866 83.6123 39.8399 83.5826 39.8114C83.4877 39.725 83.3952 39.637 83.3027 39.5474C83.2858 39.5303 83.2681 39.5131 83.2504 39.496C83.1756 39.4243 83.1016 39.3502 83.0284 39.2768C82.9954 39.2426 82.9617 39.2084 82.9279 39.1742C82.8708 39.1155 82.8137 39.0568 82.7582 38.9982C82.7212 38.9599 82.685 38.9208 82.6496 38.8817C82.5965 38.8254 82.5451 38.7692 82.4936 38.7122C82.4582 38.6723 82.422 38.6315 82.3858 38.5916C82.3344 38.5329 82.2829 38.4734 82.2322 38.4156C82.1976 38.3757 82.1638 38.3366 82.1301 38.2966C82.0746 38.2323 82.0215 38.1671 81.9676 38.1019C81.9378 38.0677 81.9089 38.0334 81.8816 37.9992C81.8003 37.8998 81.7207 37.7988 81.6419 37.6977C81.6306 37.6839 81.621 37.6684 81.6089 37.6537C81.5422 37.5666 81.4754 37.4786 81.4095 37.3897C81.3789 37.349 81.3507 37.3083 81.3202 37.2683C81.2735 37.204 81.2277 37.1396 81.1819 37.0752C81.1489 37.0296 81.1183 36.9848 81.0869 36.9383C81.0435 36.8764 81.0009 36.8145 80.9599 36.7526C80.9285 36.7061 80.8971 36.6605 80.8674 36.6132C80.8248 36.5497 80.7829 36.4837 80.7403 36.4193C80.7106 36.3745 80.6832 36.3297 80.6543 36.284C80.6124 36.2164 80.5706 36.148 80.5296 36.0803C80.5023 36.0363 80.4741 35.9923 80.4484 35.9483C80.3977 35.8636 80.3478 35.7764 80.2988 35.6917C80.2755 35.6509 80.2505 35.6094 80.2288 35.5686C80.1733 35.4725 80.1202 35.3763 80.068 35.2786C80.043 35.2329 80.0181 35.1865 79.9948 35.14C79.9586 35.0708 79.9216 35.0023 79.8862 34.9323C79.8605 34.8809 79.8355 34.8304 79.8098 34.7791C79.776 34.7123 79.7438 34.6446 79.7109 34.5762C79.6867 34.524 79.661 34.4719 79.6369 34.4189C79.6055 34.3537 79.5758 34.2869 79.5452 34.2201C79.5203 34.1663 79.4961 34.1117 79.472 34.0563C79.4406 33.9887 79.4117 33.9194 79.3827 33.8494C79.3602 33.798 79.3385 33.7467 79.3168 33.6962C79.2822 33.6131 79.2492 33.5283 79.2154 33.4452C79.2002 33.4069 79.1833 33.3678 79.168 33.3279C79.1222 33.2097 79.0779 33.0908 79.0337 32.971C79.016 32.9189 78.9967 32.8667 78.979 32.8154C78.9533 32.7428 78.9275 32.6687 78.9026 32.5962C78.8841 32.54 78.8664 32.4837 78.8479 32.4267C78.8246 32.3566 78.8013 32.2866 78.7795 32.2157C78.7618 32.1578 78.7442 32.0991 78.7265 32.0413C78.7055 31.9704 78.6846 31.9003 78.6645 31.8294C78.6476 31.7716 78.6308 31.7137 78.6147 31.6559C78.5946 31.5834 78.5769 31.51 78.5568 31.4375C78.5415 31.3805 78.5262 31.3243 78.5133 31.2672C78.4924 31.1857 78.4731 31.1043 78.4538 31.0236C78.4418 30.9739 78.4297 30.925 78.4184 30.8761V30.8688H78.416Z" fill="#333333" fill-rule="evenodd"/>
<path clip-rule="evenodd" d="M78.416 30.8688C82.1478 33.7369 86.6082 36.2034 86.6082 36.2034C85.7315 37.4509 85.019 38.9338 84.4608 40.5659C81.4746 38.1589 79.2983 34.7636 78.416 30.8688Z" fill="#333333" fill-rule="evenodd"/>
<path clip-rule="evenodd" d="M111.848 30.7897C108.114 33.6579 103.654 36.1235 103.654 36.1235C104.541 37.3848 105.259 38.8857 105.819 40.5365C108.811 38.1165 110.982 34.7033 111.848 30.7897Z" fill="#4D4D4D" fill-rule="evenodd"/>
<path clip-rule="evenodd" d="M79.3039 33.6652L78.416 30.8688L87.5057 24.8579L95.1317 41.212V44.3352H95.1252C87.9995 44.3352 81.892 39.932 79.3039 33.6652Z" fill="#4D4D4D" fill-rule="evenodd"/>
<path clip-rule="evenodd" d="M111.024 33.4664L111.779 31.0847C111.798 31.0089 111.818 30.9348 111.832 30.8582L102.758 24.8571L95.1309 41.2112V44.3344C102.327 44.3319 108.486 39.8366 111.024 33.4664Z" fill="#333333" fill-rule="evenodd"/>
<path clip-rule="evenodd" d="M87.3809 24.8571L95.1258 41.6944L102.868 24.8571H95.1258H87.3809Z" fill="#CCCCCC" fill-rule="evenodd"/>
<path clip-rule="evenodd" d="M93.0996 37.2928L95.1255 41.6944L97.149 37.2928L95.6837 34.5045H95.6523L96.7622 33.4281L96.9319 33.2814L96.3287 30.1509C96.2209 30.0417 96.241 30.0287 96.1107 30.0287L95.1247 30.2332L94.1363 30.0287C94.006 30.0287 94.0261 30.0417 93.9191 30.1509L93.316 33.2814L93.4848 33.4281L94.5955 34.5045H94.5642L93.0996 37.2928Z" fill="#CC3300" fill-rule="evenodd"/>
<path clip-rule="evenodd" d="M95.1258 41.6944L97.1493 37.2928L95.684 34.5045H95.6526L96.7625 33.4281L96.9322 33.2814L96.329 30.1509C96.2212 30.0417 96.2413 30.0287 96.111 30.0287L95.125 30.2332V41.6944H95.1258Z" fill="#A32900" fill-rule="evenodd"/>
<path d="M96.0735 36.9457H92.3555V37.7043H96.0735V36.9457Z" fill="#FFCC00"/>
<path clip-rule="evenodd" d="M87.3809 24.8571L91.9088 34.7041H91.9096L95.1258 31.4546L98.2021 24.8571H102.868L98.3412 34.7041L95.1258 31.4546L92.0455 24.8571H87.3809Z" fill="white" fill-rule="evenodd"/>
<path clip-rule="evenodd" d="M85.7807 25.9131L85.4043 30.2202L87.9723 31.3854L86.0638 32.5579L95.1261 41.6944L87.3812 24.8571L85.7807 25.9131Z" fill="#1A1A1A" fill-rule="evenodd"/>
<path clip-rule="evenodd" d="M104.467 25.9131L104.845 30.2202L102.277 31.3854L104.186 32.5579L95.125 41.6944L102.868 24.8571L104.467 25.9131Z" fill="#1A1A1A" fill-rule="evenodd"/>
<path clip-rule="evenodd" d="M95.1325 42.4497C95.5193 42.4497 95.8314 42.7675 95.8314 43.1586C95.8314 43.5497 95.5193 43.8667 95.1325 43.8667C94.7473 43.8667 94.4336 43.5497 94.4336 43.1586C94.4336 42.7667 94.7473 42.4497 95.1325 42.4497Z" fill="#B3B3B3" fill-rule="evenodd"/>
<path clip-rule="evenodd" d="M95.1328 42.4497C95.5197 42.4497 95.8317 42.7675 95.8317 43.1586C95.8317 43.5497 95.5197 43.8667 95.1328 43.8667V42.4497Z" fill="#808080" fill-rule="evenodd"/>
<path clip-rule="evenodd" d="M95.1325 42.4497C95.5193 42.4497 95.8314 42.7675 95.8314 43.1586C95.8314 43.5497 95.5193 43.8667 95.1325 43.8667C94.7473 43.8667 94.4336 43.5497 94.4336 43.1586C94.4336 42.7667 94.7473 42.4497 95.1325 42.4497Z" fill="#B3B3B3" fill-rule="evenodd"/>
<path clip-rule="evenodd" d="M95.1328 42.4497C95.5197 42.4497 95.8317 42.7675 95.8317 43.1586C95.8317 43.5497 95.5197 43.8667 95.1328 43.8667V42.4497Z" fill="#808080" fill-rule="evenodd"/>
<path d="M106.392 38.0457H100.502V38.8776H106.392V38.0457Z" fill="#4D4D4D"/>
<path clip-rule="evenodd" d="M100.502 38.0457L102.905 35.611L104.268 36.9905L104.81 36.4429L106.392 38.0457H105.31H103.228H100.502Z" fill="white" fill-rule="evenodd"/>
<path clip-rule="evenodd" d="M103.549 15.0394C102.701 13.9255 102.73 12.9657 103.637 12.1582C107.273 13.1726 109.14 13.6436 109.232 13.5719C107.796 15.8151 105.9 16.304 103.549 15.0394ZM86.6977 15.0394C87.5462 13.9255 87.5172 12.9657 86.61 12.1582C82.974 13.1726 81.1097 13.6436 81.0156 13.5719C82.4504 15.8151 84.346 16.304 86.6977 15.0394Z" fill="#996633" fill-rule="evenodd"/>
<path clip-rule="evenodd" d="M100.466 13.5205C98.6826 11.3955 98.4244 10.188 99.6887 9.89707C104.713 10.1643 106.629 7.93744 105.442 3.21803C104.836 1.73833 104.533 0.998474 104.533 0.998474C107.633 3.06077 109.02 5.88655 108.597 9.46929C108.357 11.4974 105.618 12.8459 100.466 13.5205ZM89.7819 13.5205C91.5641 11.3955 91.8231 10.188 90.5588 9.89707C85.5346 10.1643 83.6173 7.93744 84.8036 3.21803C85.4108 1.73833 85.7156 0.998474 85.7156 0.998474C82.6128 3.06077 81.2287 5.88655 81.6501 9.46929C81.8889 11.4974 84.6282 12.8459 89.7819 13.5205Z" fill="#1A1A1A" fill-rule="evenodd"/>
<path clip-rule="evenodd" d="M95.126 31.4546L83.8262 21.8292C84.0216 16.7309 84.9859 12.4923 86.7207 9.1124C88.4056 7.1161 91.1964 6.54736 95.126 6.54736C99.0531 6.54736 101.844 7.1161 103.528 9.1124C105.262 12.4923 106.227 16.7317 106.423 21.8292L95.126 31.4546Z" fill="#CC9933" fill-rule="evenodd"/>
<path clip-rule="evenodd" d="M95.125 6.54736C99.0522 6.54736 101.843 7.1161 103.527 9.1124C105.261 12.4923 106.226 16.7317 106.422 21.8292L95.125 31.4546V6.54736Z" fill="#A37A29" fill-rule="evenodd"/>
<path clip-rule="evenodd" d="M83.8848 20.4123C84.1936 15.9405 85.133 12.1737 86.7037 9.11159C86.7704 9.03255 86.8388 8.95433 86.9104 8.88018C91.2477 5.39033 90.3502 16.8271 90.3952 18.2668C90.8496 19.9209 89.7864 20.9321 87.2055 21.3012C85.8664 21.0975 84.7598 20.8001 83.8848 20.4123Z" fill="#996633" fill-rule="evenodd"/>
<path clip-rule="evenodd" d="M106.365 20.4123C106.056 15.9405 105.116 12.1737 103.546 9.11159C103.478 9.03255 103.409 8.95433 103.338 8.88018C99.0009 5.39033 99.8977 16.8271 99.8543 18.2668C99.399 19.9209 100.463 20.9321 103.045 21.3012C104.383 21.0975 105.488 20.8001 106.365 20.4123Z" fill="#996633" fill-rule="evenodd"/>
<path clip-rule="evenodd" d="M95.126 31.4546L83.8262 21.8292C83.8736 20.5907 83.9669 19.4035 84.1052 18.2661H106.143C106.282 19.4035 106.376 20.5907 106.423 21.8292L95.126 31.4546Z" fill="#996633" fill-rule="evenodd"/>
<path clip-rule="evenodd" d="M95.1248 31.4546L87.7031 25.1349V25.1341C87.7031 25.1341 88.6779 23.6414 90.625 20.6534C90.5124 19.6048 90.5003 18.8095 90.5848 18.2677H92.4756C93.1705 19.0157 94.0527 20.2444 95.124 21.9572C96.1928 20.2444 97.0743 19.0157 97.7708 18.2677H99.6616C99.746 18.8103 99.7324 19.6056 99.6214 20.6534C101.568 23.6414 102.543 25.1341 102.543 25.1341V25.1349L95.1248 31.4546Z" fill="#85592B" fill-rule="evenodd"/>
<path clip-rule="evenodd" d="M90.626 20.6526C90.6847 19.1249 93.0371 20.5646 94.1212 21.3118C94.2974 21.4495 94.4767 21.5783 94.6585 21.698L94.6593 21.6989C94.8209 21.8064 94.9858 21.9058 95.1515 21.9995C95.5327 21.7852 95.9051 21.5326 96.2678 21.2434C97.3913 20.4815 99.6063 19.1705 99.6634 20.6526C102.867 14.8699 87.2642 14.8829 90.626 20.6526Z" fill="#1A1A1A" fill-rule="evenodd"/>
<path clip-rule="evenodd" d="M95.1246 16.625C96.5642 16.625 97.7312 17.2043 97.7312 17.9181C97.7312 18.6319 96.5642 19.2112 95.1246 19.2112C93.6834 19.2112 92.5156 18.6319 92.5156 17.9181C92.5164 17.2043 93.6834 16.625 95.1246 16.625Z" fill="#666666" fill-rule="evenodd"/>
<path clip-rule="evenodd" d="M95.1254 24.8139C91.4652 24.8139 90.8058 24.149 90.9883 22.7011C91.0374 23.9127 92.4143 24.1946 95.1254 24.1946C97.8341 24.1946 99.2118 23.9127 99.2601 22.7011C99.4427 24.149 98.7832 24.8139 95.1254 24.8139Z" fill="#1A1A1A" fill-rule="evenodd"/>
<path clip-rule="evenodd" d="M101.338 13.8009C100.661 13.7715 100.067 14.328 99.8477 15.041C99.3032 10.4153 103.534 10.223 104.481 13.2582C103.684 13.7512 102.825 13.8669 101.338 13.8009ZM88.9106 13.8009C89.5878 13.7715 90.1821 14.328 90.4009 15.041C90.9446 10.4153 86.7134 10.223 85.7676 13.2582C86.5646 13.7512 87.4227 13.8669 88.9106 13.8009Z" fill="#1A1A1A" fill-rule="evenodd"/>
</svg>