<?xml version="1.0" encoding="UTF-8"?>
<svg xmlns="http://www.w3.org/2000/svg" version="1.1" viewBox="0 0 305.5 84">
  <defs>
    <style>
      .cls-1 {
        fill: #3e64ff;
      }
    </style>
  </defs>
  <!-- Generator: Adobe Illustrator 28.7.7, SVG Export Plug-In . SVG Version: 1.2.0 Build 194)  -->
  <g>
    <g id="Layer_1">
      <g>
        <path class="cls-1" d="M114.7,34.5c-1.9-1.3-4.1-2-6.4-2-3.5,0-5.4,1.1-5.4,3.3s1,2.4,3,3.2l4.9,2c3.7,1.5,6,3.8,6,7.9s-4,9.4-11.2,9.4-6.4-.9-8.2-2.3v-5.9c2.4,1.8,5.3,2.8,8.3,2.8,3.1,0,5-1.1,5-3.5s-1-2.4-3.3-3.4l-5.2-2.2c-3.1-1.3-5.5-3.3-5.5-7.8s4.4-9.1,11.6-9.1c2.7-.1,5.3.6,7.6,2l-1.3,5.5Z"/>
        <path class="cls-1" d="M132.7,35.7v4.6h-6v9.4c0,2.4,1.2,3.4,3.7,3.4.9,0,1.8-.2,2.6-.6v4.5c-1.3.8-2.8,1.1-4.2,1.1-5.1,0-7.7-2.7-7.7-7.2v-10.6h-3v-1.2l7-8.2h1.7v4.8h6Z"/>
        <path class="cls-1" d="M158.3,46.7c0,6.7-4.4,11.8-11.9,11.8s-11.9-5.2-11.9-11.8,4.4-11.8,11.9-11.8,11.9,5.2,11.9,11.8ZM140.2,46.7c0,3.7,2.1,6.9,6.2,6.9s6.2-3.2,6.2-6.9-2.1-6.8-6.2-6.8-6.2,3.2-6.2,6.8Z"/>
        <path class="cls-1" d="M173.4,40.3c-3.2,0-6.9,1.6-6.9,6.2s3.7,7,7.7,7c1.7,0,3.4-.5,4.8-1.4v5c-1.7.9-3.7,1.3-5.6,1.3-5.4,0-12.7-3-12.7-11.6s7.7-11.5,12.8-11.5c2-.1,4,.4,5.8,1.5l-1.3,4.9c-1.4-.8-2.9-1.3-4.5-1.3Z"/>
        <path class="cls-1" d="M182.5,26.2h5.7v19.1l8.2-9.6h6.8l-9.1,10.4,9.1,11.7h-7.1l-8.1-10.6v10.6h-5.7v-31.7Z"/>
        <path class="cls-1" d="M218.8,35.2c6.2,0,10.1,5,10.1,11.6s-3.9,11.6-10.2,11.6c-3,0-5.8-1.5-7.4-4.1v10.9h-5.7v-29.5h5.5v3.8c1.5-2.8,4.5-4.4,7.6-4.3ZM223.2,46.8c0-3.7-2.1-6.7-6-6.7s-5.9,3-5.9,6.7,2,6.7,5.9,6.7,6-3,6-6.7Z"/>
        <path class="cls-1" d="M251.7,57.8h-5.4v-3.7c-1.1,2.5-3.7,4.1-6.5,4-4.7,0-7.5-3.2-7.5-8v-14.5h5.7v13.2c0,2.6,1.2,4.3,3.8,4.3s4.3-1.6,4.3-5.2v-12.3h5.7v22.2Z"/>
        <path class="cls-1" d="M256.5,26.2h5.7v31.7h-5.7v-31.7Z"/>
        <path class="cls-1" d="M280.3,41.6c-1.6-1.1-3.4-1.6-5.3-1.6-2.3,0-3.4.7-3.4,1.9s.4,1.3,2.1,2l3.5,1.4c3.2,1.3,5,2.9,5,6.1s-3.5,7.1-8.9,7.1-5.4-.6-6.8-1.9v-5.1c2,1.5,4.4,2.3,6.9,2.3,2.2,0,3.3-.7,3.3-2s-.6-1.3-2.2-2l-3.6-1.4c-2.9-1.2-4.8-2.8-4.8-6.2s3.5-7,9.4-7c2.2,0,4.3.5,6.1,1.6l-1.3,4.8Z"/>
        <path class="cls-1" d="M299.7,51.4c-.9,1.4-2.4,2.3-4.1,2.3-2.9,0-4.9-1.9-5.4-4.9h15.4v-2.6c0-6-3.7-11.1-9.9-11.1s-11.2,5.4-11.2,11.6c0,.7,0,1.3.1,2,.7,5.7,5.6,9.9,11.3,9.7,4.1,0,7.8-2.2,9.7-5.8l-5.8-1.3ZM295.3,39.8c2.5,0,4.2,1.9,4.6,4.9h-9.8c.5-3,2.3-4.9,5.2-4.9Z"/>
        <path class="cls-1" d="M71.7,54.3l12.3-12.3-12.3-12.3V12.3h-17.4L42,0l-12.3,12.3H12.3v17.4L0,42l12.3,12.3v17.4h17.4l12.3,12.3,12.3-12.3h17.4v-17.4ZM42,79.1L4.9,42l7.4-7.4L42,4.9l29.7,29.7,7.4,7.4-37.1,37.1Z"/>
        <polygon class="cls-1" points="48.3 39.2 30.9 56.6 30.9 44.5 14.8 44.5 42 71.7 69.2 44.5 48.3 44.5 48.3 39.2"/>
        <polygon class="cls-1" points="69.2 39.5 42 12.4 14.8 39.5 35.8 39.5 35.8 44.8 53.2 27.4 53.2 39.5 69.2 39.5"/>
      </g>
    </g>
  </g>
</svg>