<?xml version="1.0" encoding="utf-8"?>
<!-- Generator: Adobe Illustrator 24.1.0, SVG Export Plug-In . SVG Version: 6.00 Build 0)  -->
<svg version="1.1" id="Ebene_1" xmlns="http://www.w3.org/2000/svg" xmlns:xlink="http://www.w3.org/1999/xlink" x="0px" y="0px"
	 viewBox="0 0 644.6 141.1" style="enable-background:new 0 0 644.6 141.1;" xml:space="preserve">
<style type="text/css">
	.Grün_x0020_bogenförmig{fill:url(#SVGID_1_);stroke:#FFFFFF;stroke-width:0.25;stroke-miterlimit:1;}
	.st0{fill:#858584;}
</style>
<linearGradient id="SVGID_1_" gradientUnits="userSpaceOnUse" x1="-98.6314" y1="368.17" x2="-97.9243" y2="367.4628">
	<stop  offset="0" style="stop-color:#1DA238"/>
	<stop  offset="0.9831" style="stop-color:#24391D"/>
</linearGradient>
<g>
	<path class="st0" d="M15.3,14l8-2.8l-3.4,15.4h14.7l-1.4,6H18.6l-6,27.9c-0.8,3.8-1.7,7.4-1.7,11.1c0,4.4,2.3,6.9,6.4,6.9
		c2.1,0,4-0.4,6-1.5l-0.7,6c-2.1,1-4.2,1.6-7.1,1.6C7.8,84.4,3.3,80,3.3,73.9c0-4.9,2-13.8,2.5-16.3l5.4-25H0l1.6-6h11.1L15.3,14
		L15.3,14z"/>
	<path class="st0" d="M51.1,0h7.3L50,35.8h0.2c4-6.6,9.1-10,18.1-10.5C78.4,25.3,86,31,86,41.7c0,3.9-0.8,7.9-1.7,11.6L78,83.1h-7.3
		L77.1,52c0.8-3.7,1.2-6.1,1.2-9.9c0-6.6-3.8-10.9-10.9-10.9c-12.2,0-18.3,12.2-20.8,24.1l-6.1,27.7h-7.3L51.1,0L51.1,0z"/>
	<path class="st0" d="M141.1,56.8c0.3-3.5,0.8-7.1,0.8-10.5c0-12.8-6.6-21-19.9-21c-18.2,0-29.2,17.2-29.2,36.1
		c0,15.2,10.1,23,23.3,23c9.2,0,13.5-1.8,16.8-3l0.6-6.8c-4.4,1.9-9.5,3.8-16.5,3.8c-10,0-17.2-6.2-17.2-17.1c0-1.5,0.1-3.1,0.3-4.5
		H141.1L141.1,56.8z M101.2,50.8c1.9-10.3,9.9-19.6,20.7-19.6c9.1,0,13,6.1,13,15.3c0,1.3-0.2,2.8-0.3,4.3H101.2L101.2,50.8z"/>
	<path class="st0" d="M211.7,23.3c-4-1.9-9.4-3.5-17.1-3.5c-8.2,0-14.8,1.2-14.8,7.4c0,11,30,6.9,30,30.3
		c0,21.4-19.8,26.9-37.8,26.9c-8,0-17.2-1.9-23.9-4l4.9-15.7c4.1,2.7,12.3,4.4,19.1,4.4c6.4,0,16.5-1.2,16.5-9.2
		c0-12.4-30-7.8-30-29.6c0-19.9,17.5-25.9,34.5-25.9c9.5,0,18.5,1,23.7,3.4L211.7,23.3L211.7,23.3z"/>
	<path class="st0" d="M260.3,82.2c-4,1.3-9.3,2.2-17.1,2.2C226.4,84.4,216,72.6,216,58c0-18.9,15.1-34,37.2-34
		c4.9,0,12.3,1.4,18.2,3.9l-4.3,13.8c-4.1-1.9-8.4-3.1-12.8-3.1c-10.3,0-17.6,6.6-17.6,18.6c0,6.9,5.3,12.5,13.7,12.5
		c5,0,8.5-0.8,12.8-2.5L260.3,82.2L260.3,82.2z"/>
	<path class="st0" d="M298.5,25.4l-2.2,11.8h0.2c3.2-6.8,9.6-13.2,17.8-13.2c2.7,0,5.8,0.3,8.4,1.4l-4.5,17.6
		c-2.5-2-5.4-2.4-9.2-2.4c-8.4,0-13.4,7.3-14.8,15.8l-5.7,26.6h-19.9l9-42.7c1-5,1.9-9.9,2.4-15.1H298.5L298.5,25.4z"/>
	<path class="st0" d="M371,67.1c-5.5,2.7-12.7,4-18.1,4c-12.2,0-15.3-4.9-15.5-11.1h40.9c0.8-3.4,1.4-8.5,1.4-10.9
		c0-17.5-11.4-25.1-26.6-25.1c-25.7,0-34.6,20.6-34.6,34c0,14.5,10.4,26.4,29.7,26.4c5.8,0,13.2-1.1,20.2-3.2L371,67.1L371,67.1z
		 M338.7,48.7c1.4-5.5,6.1-11.4,14.7-11.4c7.3,0,9.8,5.2,9.8,11.4H338.7L338.7,48.7z"/>
	<path class="st0" d="M438.7,67.1c-5.5,2.7-12.7,4-18.1,4c-12.2,0-15.3-4.9-15.5-11.1H446c0.8-3.4,1.4-8.5,1.4-10.9
		c0-17.5-11.4-25.1-26.6-25.1c-25.7,0-34.6,20.6-34.6,34c0,14.5,10.4,26.4,29.7,26.4c5.8,0,13.2-1.1,20.2-3.2L438.7,67.1L438.7,67.1
		z M406.3,48.7c1.4-5.5,6.1-11.4,14.7-11.4c7.3,0,9.8,5.2,9.8,11.4H406.3L406.3,48.7z"/>
	<path class="st0" d="M459,40.4c1-5,1.9-9.9,2.4-15.1H480l-1.6,9.4h0.2c5.8-6.4,11.7-10.7,22.3-10.7c11.6,0,17.9,8.6,17.9,19.9
		c0,3.9-0.3,6.1-1.5,12.2L512,83.1h-20.6l5.5-27c0.6-2.9,1.3-5.8,1.3-8.8c0-3.4-2.2-6.9-7.8-6.6c-8.4,0-13.4,7.3-14.8,15.8L470,83.1
		H450L459,40.4L459,40.4z"/>
	<path class="st0" d="M577.9,67.1c-5.5,2.7-12.7,4-18,4c-12.2,0-15.3-4.9-15.5-11.1h40.9c0.8-3.4,1.4-8.5,1.4-10.9
		c0-17.5-11.4-25.1-26.6-25.1c-25.7,0-34.6,20.6-34.6,34c0,14.5,10.4,26.4,29.7,26.4c5.8,0,13.2-1.1,20.2-3.2L577.9,67.1L577.9,67.1
		z M545.6,48.7c1.4-5.5,6.1-11.4,14.7-11.4c7.3,0,9.7,5.2,9.7,11.4H545.6L545.6,48.7z"/>
	<path class="st0" d="M620.4,25.4l-2.2,11.8h0.2c3.2-6.8,9.6-13.2,17.8-13.2c2.7,0,5.8,0.3,8.4,1.4l-4.5,17.6
		c-2.5-2-5.4-2.4-9.2-2.4c-8.4,0-13.4,7.3-14.8,15.8l-5.6,26.6h-19.9l9-42.7c1-5,1.9-9.9,2.4-15.1H620.4L620.4,25.4z"/>
	<path class="st0" d="M2.5,134.4l5.1-24h15.1l-0.6,2.9H10.3l-1.6,7.5h11.2l-0.6,2.9H8.1l-1.7,8h12l-0.6,2.9H2.5z"/>
	<path class="st0" d="M29.8,120.1L29.8,120.1c1.5-2.1,3.7-2.9,5.4-2.9c3.2,0,4.8,1.1,5.2,3.1c1.6-2.1,3.8-3.1,6.2-3.1
		c3.9,0,5.7,2.4,5.1,5.4l-2.5,11.8h-3.2l2.1-9.9c0.5-2.3,0.7-4.9-3-4.9c-1,0-3.2,0.5-4.2,2.6c-0.8,1.5-1,3.2-1.1,3.6l-1.8,8.6h-3.2
		l2.1-9.9c0.6-2.9,0.4-4.9-2.7-4.9c-1.3,0-3.3,0.5-4.7,2.7c-0.5,0.9-0.9,3.1-1,3.5l-1.8,8.6h-3.2l3.5-16.7h3.1L29.8,120.1z"/>
	<path class="st0" d="M58.4,120.7c0.2-1,0.3-2,0.5-3h3.2l-0.5,2.7h0.1c1.5-2.4,3.7-3.2,6.4-3.2c4.7,0,6.1,4.3,5.1,8.9
		c-0.9,4.3-3.9,8.9-9.9,8.9c-1.4,0-3.4-0.7-4.2-2.4h-0.1l-1.8,8.3h-3.2L58.4,120.7z M66.5,119.5c-3.6,0-5.5,3.5-6.1,6.6
		c-0.7,3.1-0.5,6.6,3,6.6c3.9,0,5.8-3.4,6.4-6.6C70.5,122.9,70.3,119.5,66.5,119.5z"/>
	<path class="st0" d="M93.7,126.1c-1.1,5.2-4.7,8.9-10.2,8.9c-5.5,0-7.5-3.7-6.4-8.9c1.1-5.2,4.7-8.9,10.2-8.9
		C92.7,117.2,94.8,120.9,93.7,126.1z M84,132.6c3.8,0,5.6-3,6.4-6.6c0.8-3.6,0.2-6.6-3.6-6.6s-5.6,3-6.4,6.6
		C79.6,129.6,80.2,132.6,84,132.6z"/>
	<path class="st0" d="M125.1,117.7l-9.4,16.7h-3.6l-1-13.7H111l-7.2,13.7h-3.7l-2-16.7h3.4l1.2,13.4h0.1l7-13.4h4.1l1,13.2h0.1
		l7-13.2H125.1z"/>
	<path class="st0" d="M129,126.6c-0.9,2.9-0.3,6,2.9,6c2.5,0,3.9-1,4.8-3.4h3.3c-1.3,3.8-4.6,5.7-8.6,5.7c-5.4,0-6.7-3.8-5.6-8.7
		c1-4.9,4.4-9,9.7-9c5,0.1,6.7,3.3,5.7,7.9l-0.3,1.6H129z M137.9,124.5c0.7-2.8-0.1-5-3.2-5c-2.6,0-4.7,2.2-5.2,5H137.9z"/>
	<path class="st0" d="M147.6,134.4h-3.2l3.5-16.7h3.2l-0.7,3.2h0.1c1-2.3,3.3-3.5,5.6-3.5c0.4,0,0.7,0,1.1,0l-0.6,3
		c-0.4-0.2-0.9-0.2-1.3-0.2c-4,0.1-5.2,2.3-5.9,5.8L147.6,134.4z"/>
	<path class="st0" d="M157.8,134.4l3.5-16.7h3.2l-3.5,16.7H157.8z M162.6,110.4h3.8l-0.7,3.4h-3.8L162.6,110.4z"/>
	<path class="st0" d="M173.5,120.2L173.5,120.2c1.6-2.1,4.1-3,5.8-3c1.2,0,6.3,0.3,5.1,5.7l-2.4,11.5h-3.2l2.2-10.5
		c0.6-2.8-0.3-4.3-2.9-4.3c0,0-1.7-0.1-3.3,1.2c-0.6,0.5-1.6,1.2-2.3,4.5l-1.9,9.1h-3.2l3.5-16.7h3.1L173.5,120.2z"/>
	<path class="st0" d="M203.3,117.7h3.3c-0.3,1-0.6,2-0.8,3l-2.5,11.7c-1.3,6.1-4.5,8.6-10.6,8.6c-3.6,0-5.8-1.5-5-5.4h3.3
		c-0.3,2.2,1,3.1,3.2,3.1c4.5,0,5.3-3.7,6.2-7.5h-0.1c-1.4,2-4,2.8-6.1,2.8c-5.1,0-6.4-3.6-5.4-8.3c1-4.8,4.5-8.6,9.6-8.6
		c1.6,0,3.3,0.7,4,2.2c0.1,0.1,0.3,1,0.3,0.8L203.3,117.7z M195.5,131.8c3.4,0,5.3-2.9,6-6.2c0.7-3.2,0-6.2-3.4-6.2
		c-3.7,0-5.4,3.5-6,6.2C191.5,128.3,191.8,131.8,195.5,131.8z"/>
	<path class="st0" d="M219.5,134.4l5.1-24h3.3l-5.1,24H219.5z"/>
	<path class="st0" d="M235.4,120.2L235.4,120.2c1.6-2.1,4.1-3,5.8-3c1.2,0,6.3,0.3,5.1,5.7l-2.4,11.5h-3.2l2.2-10.5
		c0.6-2.8-0.3-4.3-2.9-4.3c0,0-1.7-0.1-3.3,1.2c-0.6,0.5-1.6,1.2-2.3,4.5l-1.9,9.1h-3.2l3.5-16.7h3.1L235.4,120.2z"/>
	<path class="st0" d="M254.6,134.4l-3.4-16.7h3.5l2.5,13.2l8-13.2h3.5l-10.9,16.7H254.6z"/>
	<path class="st0" d="M272.7,126.6c-0.8,2.9-0.3,6,2.9,6c2.5,0,3.9-1,4.8-3.4h3.3c-1.3,3.8-4.6,5.7-8.6,5.7c-5.4,0-6.7-3.8-5.6-8.7
		c1-4.9,4.4-9,9.7-9c5,0.1,6.7,3.3,5.7,7.9l-0.3,1.6H272.7z M281.6,124.5c0.7-2.8-0.1-5-3.2-5c-2.6,0-4.7,2.2-5.2,5H281.6z"/>
	<path class="st0" d="M296.9,117.2c3.2,0,6.4,1.3,5.4,5.1H299c0.6-2.1-0.9-2.8-2.7-2.8c-1.7,0-3.2,0.8-3.6,2.7
		c-0.4,1.9,2.4,2,3.6,2.4c2.6,0.9,5.8,1.3,5,5c-0.9,4.1-5.1,5.4-8.6,5.4c-3.5,0-6.1-1.6-5.2-5.5h3.3c-0.4,2.1,0.8,3.2,2.7,3.2
		c1.9,0,3.9-0.7,4.4-2.9c0.8-3.7-10-0.9-8.6-7.5C290,118.8,293.9,117.2,296.9,117.2z"/>
	<path class="st0" d="M308.7,117.7l0.8-3.6l3.4-1l-1,4.6l3.9-0.1l-0.5,2.4l-3.9,0l-2.3,10.8c-0.3,1.2,0.6,1.8,1.7,1.8
		c0.5,0,1.2-0.1,1.7-0.2l-0.5,2.4c-0.7,0-1.5,0.2-2.2,0.2c-0.8,0-1.4,0-2.1-0.2c-0.5-0.1-1.3-0.4-1.6-1.1c-0.4-0.8-0.5-0.9-0.1-3.1
		l2.2-10.6l-2.9,0l0.5-2.4L308.7,117.7z"/>
	<path class="st0" d="M333.8,126.1c-1.1,5.2-4.7,8.9-10.2,8.9c-5.5,0-7.5-3.7-6.4-8.9c1.1-5.2,4.7-8.9,10.2-8.9
		C332.9,117.2,334.9,120.9,333.8,126.1z M324.1,132.6c3.8,0,5.6-3,6.4-6.6c0.8-3.6,0.2-6.6-3.6-6.6c-3.8,0-5.6,3-6.4,6.6
		C319.8,129.6,320.4,132.6,324.1,132.6z"/>
	<path class="st0" d="M340.6,134.4h-3.2l3.5-16.7h3.2l-0.7,3.2h0.1c1-2.3,3.3-3.5,5.6-3.5c0.4,0,0.7,0,1.1,0l-0.6,3
		c-0.4-0.2-0.9-0.2-1.3-0.2c-4,0.1-5.2,2.3-5.9,5.8L340.6,134.4z"/>
	<path class="st0" d="M359.7,117.2c3.2,0,6.4,1.3,5.4,5.1h-3.3c0.6-2.1-0.9-2.8-2.7-2.8c-1.7,0-3.2,0.8-3.6,2.7
		c-0.4,1.9,2.4,2,3.6,2.4c2.6,0.9,5.8,1.3,5,5c-0.9,4.1-5.1,5.4-8.6,5.4c-3.5,0-6.1-1.6-5.2-5.5h3.3c-0.4,2.1,0.8,3.2,2.7,3.2
		c1.9,0,3.9-0.7,4.4-2.9c0.8-3.7-10-0.9-8.6-7.5C352.8,118.8,356.7,117.2,359.7,117.2z"/>
</g>
</svg>