<?xml version="1.0" encoding="utf-8"?>
<!-- Generator: Adobe Illustrator 27.8.0, SVG Export Plug-In . SVG Version: 6.00 Build 0)  -->
<svg version="1.1" id="Layer_1" xmlns="http://www.w3.org/2000/svg" xmlns:xlink="http://www.w3.org/1999/xlink" x="0px" y="0px"
	 viewBox="0 0 290 100" style="enable-background:new 0 0 290 100;" xml:space="preserve">
<style type="text/css">
	.st0{fill:#000000;}
	.st1{fill:#F28F25;}
</style>
<g>
	<g>
		<path class="st0" d="M73.7,69.6c-4.6-5-6.9-11.7-6.9-20s2.3-15,6.8-20c4.5-5,10.8-7.5,19-7.5c7.4,0,13.1,2,17.2,5.9
			c4.1,3.9,6.3,9,6.7,15.3h-13.8c-0.3-2.7-1.3-4.9-3.1-6.6c-1.8-1.7-4.1-2.5-7-2.5c-7.8,0-11.7,5.2-11.7,15.5s3.9,15.5,11.7,15.5
			c2.9,0,5.3-0.8,7-2.4c1.7-1.6,2.8-3.8,3.1-6.5h13.8c-0.4,6.3-2.6,11.4-6.7,15.2c-4.1,3.9-9.7,5.8-17,5.8
			C84.7,77.2,78.3,74.6,73.7,69.6"/>
		<path class="st0" d="M129.2,71.9c-3.5-3.5-5.3-8.2-5.3-14v-35h13.7V54c0,7.1,3.3,10.7,9.8,10.7c3.3,0,5.9-1.1,7.9-3.3
			c2-2.2,3-5.2,3-8.9V22.9h13.7v53.3h-12.3l-1-6.1h-0.4c-3.5,4.6-8.5,7-15.2,7C137.4,77.2,132.7,75.4,129.2,71.9"/>
	</g>
	<rect x="181.5" y="22.9" class="st0" width="13.7" height="53.3"/>
	<rect x="181.5" y="0.8" class="st0" width="13.7" height="13.4"/>
	<g>
		<path class="st0" d="M204.4,22.9V6.1h13.7v16.8H231v11.7h-12.8v22.5c0,2.5,0.5,4.4,1.6,5.5c1.1,1.1,2.8,1.7,5.2,1.7h6.2v12h-10
			c-5.7,0-9.9-1.5-12.6-4.4c-2.7-2.9-4.1-6.9-4.1-11.8V34.6V22.9z"/>
	</g>
	<polygon class="st0" points="274.6,22.9 261.9,61.9 261.5,61.9 249.2,22.9 235.1,22.9 235.1,23.9 253.2,76 254.2,78.7 247.1,98.7 
		247.1,99.7 261.8,99.7 289.4,23.9 289.4,22.9 	"/>
	<polygon class="st1" points="0.6,45.6 18.1,75.9 35.5,45.6 	"/>
	<polygon class="st0" points="26.7,0.3 18,15.4 18.1,15.4 26.8,30.5 26.7,30.5 26.8,30.5 35.5,45.6 35.5,45.6 35.5,45.6 44.2,60.7 
		44.2,60.8 44.3,60.8 53,75.8 52.9,75.9 70.4,75.9 61.7,60.8 61.7,60.8 61.7,60.8 53,45.7 53,45.6 52.9,45.6 44.2,30.6 44.3,30.5 
		44.2,30.5 35.5,15.5 35.5,15.4 35.5,15.4 	"/>
</g>
</svg>
