<svg xmlns="http://www.w3.org/2000/svg" width="100%" viewBox="0 0 195 18"><path fill="#0c2235" d="M17.381 8.786h-.232a8.354 8.354 0 1 1-16.707-.02 8.354 8.354 0 0 1 16.707.02h.464A8.806 8.806 0 0 0 8.786 0a8.806 8.806 0 0 0 .02 17.613 8.817 8.817 0 0 0 8.807-8.827h-.232ZM31.773 12.106c0 1.348-.51 2.419-1.485 3.209-.975.79-2.32 1.163-4.084 1.163-1.623 0-3.016-.28-4.268-.884v-2.976c1.02.464 1.856.79 2.552.976a7.53 7.53 0 0 0 1.902.28c.696 0 1.253-.14 1.624-.42.37-.279.556-.651.556-1.209a1.573 1.573 0 0 0-.231-.79 2.596 2.596 0 0 0-.742-.652c-.325-.232-.975-.558-1.95-1.023-.927-.418-1.623-.837-2.04-1.256a4.625 4.625 0 0 1-1.114-1.396c-.278-.51-.418-1.162-.418-1.86 0-1.348.464-2.372 1.346-3.116.881-.744 2.134-1.162 3.712-1.162a8.59 8.59 0 0 1 2.227.278c.759.216 1.502.48 2.227.791l-1.021 2.465a17.731 17.731 0 0 0-1.995-.698 5.74 5.74 0 0 0-1.53-.186c-.603 0-1.067.14-1.392.42-.325.277-.465.65-.465 1.115-.01.26.054.52.186.744.164.236.367.44.603.606.278.187.975.558 1.995 1.07 1.391.65 2.366 1.348 2.876 2 .65.696.929 1.533.929 2.51ZM34.464 16.244V1.224h3.201v15.021h-3.201ZM47.78 16.245 44.163 4.433h-.093c.14 2.419.186 4 .186 4.79v6.976h-2.83V1.176h4.315l3.573 11.488h.047l3.758-11.488h4.314v15.022H54.51V7.92c0-.419.047-1.628.14-3.488h-.093l-3.85 11.766h-2.924v.047l-.002.001ZM71.629 5.92c0 1.628-.51 2.837-1.531 3.72-1.021.838-2.459 1.303-4.315 1.303h-1.346v5.348h-3.202V1.269h4.779c1.809 0 3.201.372 4.129 1.163 1.021.744 1.485 1.954 1.485 3.488Zm-7.192 2.372h1.067c.974 0 1.718-.185 2.181-.557.464-.372.742-.93.742-1.675 0-.744-.185-1.302-.603-1.674-.418-.372-1.067-.557-1.902-.557h-1.438v4.464h-.047ZM74.459 16.244V1.224h3.201V13.64h6.078v2.651h-9.28v-.047ZM94.966 16.244h-8.63V1.224h8.63v2.604h-5.475v3.301h5.057v2.605h-5.057v3.86h5.475v2.651ZM101.277 10.478v5.766h-3.202V1.224h4.362c2.041 0 3.526.371 4.547 1.115.974.744 1.485 1.86 1.485 3.396a3.907 3.907 0 0 1-.742 2.372c-.464.697-1.16 1.209-2.042 1.628 2.273 3.395 3.711 5.58 4.408 6.557h-3.526l-3.573-5.767h-1.716v-.046l-.001-.001Zm0-2.558h1.021c1.021 0 1.763-.186 2.227-.512.464-.325.696-.883.696-1.58 0-.698-.232-1.21-.742-1.535-.51-.279-1.252-.465-2.274-.465h-.974V7.92h.046ZM116.124 16.244h-1.068V2.2h-4.871v-.977h10.811V2.2h-4.872v14.045ZM124.243 9.734v6.557h-1.067V1.269h3.573c1.856 0 3.248.325 4.129 1.023.88.699 1.345 1.721 1.345 3.117 0 1.023-.278 1.86-.789 2.557-.51.697-1.345 1.209-2.412 1.488l4.083 6.837h-1.253l-3.851-6.557h-3.758Zm0-.931h2.878c1.252 0 2.226-.28 2.923-.837.696-.557 1.067-1.395 1.067-2.51 0-1.116-.325-2-1.02-2.512-.695-.512-1.81-.79-3.341-.79h-2.506v6.65l-.001-.001ZM142.941 10.943h-6.078l-2.088 5.301h-1.16l6.032-15.115h.649l5.893 15.115h-1.207l-2.042-5.301h.001Zm-5.753-.93h5.382l-2.042-5.442c-.185-.42-.371-1.023-.603-1.767a13.077 13.077 0 0 1-.603 1.767l-2.135 5.442h.001ZM159.691 8.617c0 2.511-.649 4.418-1.995 5.72-1.299 1.303-3.247 1.953-5.8 1.953h-3.572V1.269h4.036c2.413 0 4.222.605 5.476 1.86 1.253 1.256 1.856 3.07 1.856 5.488h-.001Zm-1.113.046c0-2.14-.558-3.767-1.624-4.836-1.113-1.07-2.691-1.628-4.825-1.628h-2.738v13.208h2.505c4.408-.047 6.682-2.279 6.682-6.744ZM163.125 16.244V1.224h1.067v15.021h-1.067ZM179.363 16.244h-1.067l-8.909-13.347h-.092c.092 1.58.138 2.79.138 3.58v9.767h-1.02V1.224h1.067l8.862 13.346h.047c-.047-1.255-.093-2.419-.093-3.535V1.223h1.021v15.022h.046ZM189.478 8.664H195v6.884c-1.438.604-3.062.93-4.872.93-2.367 0-4.176-.65-5.429-2-1.253-1.348-1.902-3.255-1.902-5.674 0-1.534.325-2.884.927-4.046a6.665 6.665 0 0 1 2.691-2.744c1.16-.651 2.506-.976 4.037-.976 1.623 0 3.108.279 4.407.883l-.417.931a9.445 9.445 0 0 0-4.037-.884c-1.995 0-3.526.605-4.686 1.814-1.16 1.209-1.716 2.883-1.716 4.93 0 2.278.556 3.952 1.67 5.115 1.114 1.163 2.738 1.72 4.872 1.72 1.393 0 2.553-.186 3.526-.604V9.642h-4.454v-.977h-.139Z"></path><path fill="#0c2235" d="M13.586 5.508a.981.981 0 0 0-.975.976c.009.144.04.285.093.42L9.688 9.925a1.337 1.337 0 0 0-.418-.093c-.143.008-.284.04-.418.093L7.74 8.81c.052-.117.085-.243.093-.372a.982.982 0 0 0-.974-.976.953.953 0 0 0-.975.93v.046c.003.13.036.257.093.372l-1.438 1.442a.892.892 0 0 0-.464-.14.977.977 0 0 0 0 1.954.952.952 0 0 0 .974-.93v-.047a.592.592 0 0 0-.046-.279l1.485-1.488c.116.052.242.085.37.093a.88.88 0 0 0 .372-.093l1.113 1.116a.872.872 0 0 0-.093.372.975.975 0 0 0 1.949.03v-.028a1.124 1.124 0 0 0-.093-.373l3.062-3.069a.896.896 0 0 0 .37.047.982.982 0 0 0 .975-.977c0-.558-.37-.93-.927-.93v-.002Z"></path></svg>