<svg xmlns="http://www.w3.org/2000/svg" width="70.24" height="54.32" viewBox="0 0 70.24 54.32">
  <defs>
    <style>
      .cls-1 {
        fill: #598047;
      }

      .cls-2 {
        fill: #598047;
      }
    </style>
  </defs>
  <g id="Group_61" data-name="Group 61" transform="translate(-130.341 -12.296)">
    <path id="Path_2529" data-name="Path 2529" class="cls-1" d="M152.676,12.3a1.055,1.055,0,0,1,.122.077l21.216,17.093c-.015.12-.1.157-.165.208q-.84.681-1.684,1.358-5.962,4.8-11.922,9.614a.994.994,0,0,1-.677.234q-11.323-.009-22.645-.005h-.34c-.049-.1.02-.157.055-.218.409-.729.822-1.456,1.233-2.185q3.244-5.75,6.49-11.5,3.1-5.485,6.194-10.97.957-1.7,1.914-3.389A1.122,1.122,0,0,1,152.676,12.3Z"/>
    <path id="Path_2530" data-name="Path 2530" class="cls-1" d="M197.263,43.118H167.924c-.029-.116.049-.189.094-.267.351-.607.708-1.211,1.062-1.816q2.852-4.879,5.7-9.759,1.172-2,2.343-4.007a.879.879,0,0,1,.184-.265.6.6,0,0,1,.1.054l19.874,16.013Z"/>
    <path id="Path_2531" data-name="Path 2531" class="cls-2" d="M168.245,48.435c.558-.027,1.1-.01,1.633-.01a.679.679,0,0,1,.145.036c.008.371-.094.727-.087,1.08a.106.106,0,0,0,.141-.041c.145-.154.281-.317.435-.46a2.774,2.774,0,0,1,1.45-.725,2.694,2.694,0,0,1,1.144.028,1.519,1.519,0,0,1,1.085.985,2.085,2.085,0,0,1,.135.675,7.145,7.145,0,0,1-.14,1.605q-.335,1.783-.677,3.565c-.025.131-.057.26-.088.4a3.97,3.97,0,0,1-.668.023c-.23,0-.461,0-.692,0s-.44.011-.677-.013a.883.883,0,0,1,0-.147q.2-1.062.4-2.124c.117-.633.246-1.264.345-1.9a3.865,3.865,0,0,0,.025-.833.645.645,0,0,0-.532-.634.922.922,0,0,0-.457.022,1.483,1.483,0,0,0-.6.379,2.948,2.948,0,0,0-.568.828,5.8,5.8,0,0,0-.451,1.513q-.24,1.318-.48,2.636c-.014.075-.038.148-.061.235a.536.536,0,0,1-.131.033c-.586,0-1.173,0-1.759,0a.545.545,0,0,1-.1-.019.3.3,0,0,1-.023-.257c.12-.642.245-1.283.366-1.924.162-.859.329-1.717.481-2.577.13-.728.241-1.459.363-2.188A1.994,1.994,0,0,1,168.245,48.435Z"/>
    <path id="Path_2532" data-name="Path 2532" class="cls-2" d="M157.859,58.827a9.982,9.982,0,0,1,1.679-.02c.03.051.068.107.1.167.493,1.031.988,2.062,1.477,3.1a14.82,14.82,0,0,1,.628,1.579.341.341,0,0,0,.121.21,3.449,3.449,0,0,0-.027-.835c0-.278-.021-.557-.03-.836s-.017-.557-.022-.835-.006-.558-.008-.837,0-.557,0-.836v-.846a.7.7,0,0,1,.169-.045c.356,0,.712,0,1.067,0a1.007,1.007,0,0,1,.133.02.432.432,0,0,1,.045.289c0,.6,0,1.192,0,1.788q0,2.595,0,5.192a1.227,1.227,0,0,1-.023.353,1.237,1.237,0,0,1-.168.036,9.545,9.545,0,0,1-1.4-.034c-.209-.418-.392-.861-.59-1.3s-.4-.893-.6-1.341-.391-.877-.582-1.318-.365-.878-.561-1.384a.907.907,0,0,0-.046.429c0,.124.009.249.015.374s.018.249.023.374,0,.25.006.375,0,.25,0,.375l0,.375c0,.135,0,.269,0,.4s0,.25,0,.375,0,.25.006.375,0,.25,0,.375,0,.25.006.374.007.25.011.375.01.25.011.375a.953.953,0,0,1-.028.38,1.019,1.019,0,0,1-.449.042c-.163.006-.327,0-.49,0a1.032,1.032,0,0,1-.454-.043.731.731,0,0,1-.03-.316q0-1.543,0-3.087V59.155C157.853,59.051,157.857,58.946,157.859,58.827Z"/>
    <path id="Path_2533" data-name="Path 2533" class="cls-2" d="M153.583,51.89c-.554-1.155-1.114-2.278-1.659-3.415a.418.418,0,0,1,.1-.047c.387-.029,1.936-.01,2.154.03.036.082.082.175.12.272.236.6.469,1.2.705,1.8.024.06.059.116.085.168.116.007.139-.079.18-.139.241-.358.476-.721.72-1.078.205-.3.421-.6.627-.9a.316.316,0,0,1,.285-.159c.682,0,1.364,0,2.047,0a.277.277,0,0,1,.084.03.505.505,0,0,1-.162.234q-1.252,1.45-2.508,2.9c-.094.108-.183.219-.282.338l1.612,3.588a.109.109,0,0,1-.126.083l-2.018,0a.458.458,0,0,1-.078-.016,1.619,1.619,0,0,1-.1-.187q-.382-1.009-.76-2.021c-.023-.062-.05-.123-.084-.2a.454.454,0,0,0-.118.078,1.517,1.517,0,0,0-.119.2,22.54,22.54,0,0,1-1.31,2c-.032.047-.071.089-.1.127a22.451,22.451,0,0,1-2.306.005c-.028-.081.038-.123.078-.171q.674-.809,1.351-1.613t1.369-1.636C153.439,52.074,153.5,51.991,153.583,51.89Z"/>
    <path id="Path_2534" data-name="Path 2534" class="cls-2" d="M192.843,59.516a5.68,5.68,0,0,1-.777.91c-.077-.051-.156-.1-.237-.156a2.416,2.416,0,0,0-1.5-.4,1.5,1.5,0,0,0-1.331.868,2.58,2.58,0,0,0-.232.74,5.4,5.4,0,0,0-.073.716c-.011.384-.009.77,0,1.154a3.484,3.484,0,0,0,.178.99,1.423,1.423,0,0,0,.693.884,1.962,1.962,0,0,0,.513.182,2.149,2.149,0,0,0,1.082-.054c.219-.073.247-.105.249-.326,0-.442,0-.885,0-1.327a1.882,1.882,0,0,0-.036-.239c-.377-.03-.741,0-1.111-.02a1.3,1.3,0,0,1-.136-.584,1.444,1.444,0,0,1-.061-.591,18.352,18.352,0,0,1,2.625-.045.374.374,0,0,1,.249.05c.031.219.037,3.294.005,3.618-.055.034-.116.08-.183.115a4.961,4.961,0,0,1-1.581.512,5.1,5.1,0,0,1-1.208.037,3.023,3.023,0,0,1-2.511-1.653,3.68,3.68,0,0,1-.426-1.338,6.262,6.262,0,0,1,.074-2.15,3.428,3.428,0,0,1,1.58-2.281,2.979,2.979,0,0,1,1.44-.454,4.12,4.12,0,0,1,1.564.178,3.6,3.6,0,0,1,1.015.537A1.56,1.56,0,0,1,192.843,59.516Z"/>
    <path id="Path_2535" data-name="Path 2535" class="cls-2" d="M150.249,58.823a6.7,6.7,0,0,1,1.43,0,.581.581,0,0,1,.036.3c0,.75,0,1.5,0,2.25a2.5,2.5,0,0,0,.008.26.514.514,0,0,0,.044.125,16.3,16.3,0,0,0,2,.031,1.879,1.879,0,0,0,.191-.024.766.766,0,0,0,.051-.379c0-.741,0-1.481,0-2.222a.616.616,0,0,1,.053-.35,1.527,1.527,0,0,1,.474-.028c.154-.005.308,0,.462,0a1.978,1.978,0,0,1,.5.027,1.572,1.572,0,0,1,.033.166c.006.067,0,.135,0,.2q0,3.434,0,6.867a.879.879,0,0,1-.04.382,1.025,1.025,0,0,1-.19.035c-.346,0-.692,0-1.038,0a.612.612,0,0,1-.086-.005c-.112-.014-.152-.051-.163-.164-.007-.086-.006-.173-.006-.259q0-1.3,0-2.6c0-.123-.011-.247-.018-.381a1.062,1.062,0,0,0-.177-.032q-.937,0-1.875,0a1.349,1.349,0,0,0-.163.019.518.518,0,0,0-.057.343c0,.693,0,1.385,0,2.078,0,.23,0,.461,0,.692,0,.085-.012.169-.019.258a1.12,1.12,0,0,1-.493.049c-.153.006-.307.006-.461,0a1.309,1.309,0,0,1-.46-.029.289.289,0,0,1-.036-.043.064.064,0,0,1-.007-.027c0-.058-.01-.115-.01-.173q0-3.635,0-7.27A.845.845,0,0,1,150.249,58.823Z"/>
    <path id="Path_2536" data-name="Path 2536" class="cls-2" d="M142.16,55.572a.672.672,0,0,1-.125.024q-.909,0-1.817,0a.33.33,0,0,1-.089-.028.736.736,0,0,1,0-.141q.969-5.065,1.941-10.131a.445.445,0,0,1,.044-.1,16.421,16.421,0,0,1,2.009,0,.692.692,0,0,1,.006.158q-.263,1.387-.532,2.774-.306,1.6-.611,3.2-.3,1.571-.6,3.141c-.049.255-.1.51-.146.765C142.215,55.349,142.186,55.459,142.16,55.572Z"/>
    <path id="Path_2537" data-name="Path 2537" class="cls-2" d="M137.15,58.825c.254-.055,2.265-.074,4.077-.04.074,0,.149.014.241.023a10.059,10.059,0,0,1-.182,1.143.731.731,0,0,1-.323.034c-.654,0-1.308,0-1.961,0a.632.632,0,0,0-.323.04.456.456,0,0,0-.034.127c0,.509,0,1.019,0,1.528a.716.716,0,0,0,.042.153c.108,0,.212.012.316.012h1.528c.1,0,.189.008.277.012a4.386,4.386,0,0,1,.025,1.135c-.085.082-.2.055-.3.055-.509,0-1.019,0-1.528,0a.483.483,0,0,0-.319.057,3.088,3.088,0,0,0-.026.675c-.006.221-.005.442,0,.663a4.18,4.18,0,0,0,.019.682c.1.089.208.062.31.063.644,0,1.288,0,1.932,0,.154,0,.308,0,.462,0a1.357,1.357,0,0,1,.162.019,3.931,3.931,0,0,1,.006,1.206.48.48,0,0,1-.3.045c-.558,0-1.115,0-1.673,0H137.5a.707.707,0,0,1-.317-.031.354.354,0,0,1-.035-.042.064.064,0,0,1-.006-.028c0-.048-.01-.1-.01-.143q0-3.649,0-7.3A.637.637,0,0,1,137.15,58.825Z"/>
    <path id="Path_2538" data-name="Path 2538" class="cls-2" d="M189.062,48.321a14.269,14.269,0,0,1-.388,1.952c-.067.006-.142.017-.217.018a1.978,1.978,0,0,0-1.748.986,4.282,4.282,0,0,0-.555,1.443c-.126.611-.234,1.226-.35,1.839-.062.329-.125.659-.19,1a.734.734,0,0,1-.166.039q-.879,0-1.758,0a.841.841,0,0,1-.154-.03c.022-.141.04-.273.065-.4.256-1.329.52-2.656.765-3.987.09-.49.139-.988.2-1.483.045-.362.079-.725.119-1.088.016-.144.052-.181.205-.183.48,0,.961,0,1.441,0a.659.659,0,0,1,.145.039c0,.474-.085.936-.1,1.445.071-.046.108-.059.126-.084.054-.079.1-.163.152-.245a3.25,3.25,0,0,1,.7-.8,2.111,2.111,0,0,1,1.578-.5.624.624,0,0,1,.085.013A.265.265,0,0,1,189.062,48.321Z"/>
    <path id="Path_2539" data-name="Path 2539" class="cls-2" d="M197.854,66.419a.509.509,0,0,1-.123.039q-.635.006-1.268,0a.21.21,0,0,1-.175-.35c0-.817-.009-1.634,0-2.45a1.41,1.41,0,0,0-.182-.711c-.688-1.287-1.367-2.58-2.047-3.871a.477.477,0,0,1-.1-.259c.022-.013.037-.029.053-.03q.763,0,1.527-.006c.057,0,.114.012.188.02.235.5.473,1,.706,1.509s.447.989.681,1.508a2.693,2.693,0,0,0,.292-.6c.1-.2.181-.4.273-.6s.189-.4.283-.6.186-.4.281-.6.19-.4.291-.608a5.036,5.036,0,0,1,.859-.022,6.282,6.282,0,0,1,.866.017.422.422,0,0,1-.1.272q-.651,1.2-1.306,2.406c-.279.515-.554,1.033-.841,1.543a1.162,1.162,0,0,0-.155.6c.008.827,0,1.653,0,2.48C197.866,66.208,197.858,66.312,197.854,66.419Z"/>
    <path id="Path_2540" data-name="Path 2540" class="cls-2" d="M148.392,59.175a5.816,5.816,0,0,1-.681,1.014c-.08-.045-.161-.094-.244-.139a1.86,1.86,0,0,0-1.419-.189,1.559,1.559,0,0,0-1.037.889,2.813,2.813,0,0,0-.218.744,7.928,7.928,0,0,0-.042,1.841,3.91,3.91,0,0,0,.141.851,1.927,1.927,0,0,0,.327.637,1.579,1.579,0,0,0,1.188.618,1.985,1.985,0,0,0,1.308-.352c.039-.028.081-.052.122-.077a.282.282,0,0,1,.049-.017,2.111,2.111,0,0,1,.343.435,2.92,2.92,0,0,1,.324.472,1.415,1.415,0,0,1-.329.252,3.1,3.1,0,0,1-1.416.446,3.9,3.9,0,0,1-1.426-.133,3.075,3.075,0,0,1-1.881-1.555,3.825,3.825,0,0,1-.432-1.365,6.133,6.133,0,0,1,.066-2.036,3.876,3.876,0,0,1,.493-1.284,3.209,3.209,0,0,1,2.389-1.588,3.326,3.326,0,0,1,2.018.321C148.153,59.021,148.263,59.1,148.392,59.175Z"/>
    <path id="Path_2541" data-name="Path 2541" class="cls-2" d="M135.868,58.807a.318.318,0,0,1,.02.1q-.09.5-.188.988a.533.533,0,0,1-.055.115c-.074.005-.149.016-.224.016-.422,0-.845,0-1.268,0-.094,0-.189.006-.293.009a1.127,1.127,0,0,0-.039.177c-.007.1,0,.192,0,.288q0,2.781,0,5.562c0,.114,0,.228-.006.353a1.037,1.037,0,0,1-.171.049,5.752,5.752,0,0,1-1.328-.047.9.9,0,0,1-.024-.333q0-2.018,0-4.035c0-.557,0-1.114,0-1.671a.82.82,0,0,0-.034-.33c-.083-.007-.166-.021-.249-.021-.423,0-.845,0-1.268,0-.095,0-.19,0-.275-.006-.107-.136-.061-.275-.067-.405s0-.269,0-.4a1.017,1.017,0,0,1,.03-.39c.266-.054,3.429-.075,5.223-.036C135.72,58.786,135.795,58.8,135.868,58.807Z"/>
    <path id="Path_2542" data-name="Path 2542" class="cls-2" d="M173.78,58.83a6.689,6.689,0,0,1,1.51-.007,1.151,1.151,0,0,1,.03.155c.006.1,0,.193,0,.289q0,2.766,0,5.533c0,.124.009.247.014.384a.966.966,0,0,0,.2.049c.182.007.365,0,.548,0h1.642a.814.814,0,0,1,.324.035,1.873,1.873,0,0,1-.093.587c-.035.188-.081.373-.119.546a.549.549,0,0,1-.354.06c-.672,0-1.344,0-2.017,0-.451,0-.9,0-1.354,0a.51.51,0,0,1-.317-.056.976.976,0,0,1-.018-.135Z"/>
    <path id="Path_2543" data-name="Path 2543" class="cls-2" d="M192.4,48.466a1.285,1.285,0,0,1-.012.147q-.644,3.438-1.29,6.875a.425.425,0,0,1-.049.093,4.084,4.084,0,0,1-.647.019c-.231,0-.461,0-.692,0a6.38,6.38,0,0,1-.673-.014.908.908,0,0,1,0-.149q.225-1.2.453-2.4.276-1.457.554-2.913.146-.763.291-1.527c.026-.133.057-.167.192-.167.6,0,1.191,0,1.787.005C192.334,48.431,192.351,48.444,192.4,48.466Z"/>
    <path id="Path_2544" data-name="Path 2544" class="cls-2" d="M191.718,47.424a1.018,1.018,0,0,1-1.1-1.06,1.246,1.246,0,0,1,1.438-1.262.976.976,0,0,1,.88.675,1.217,1.217,0,0,1-1.051,1.633C191.815,47.417,191.748,47.421,191.718,47.424Z"/>
    <path id="Path_2545" data-name="Path 2545" class="cls-2" d="M138.944,55.413q-.555-4.792-1.113-9.585a.372.372,0,0,0-.042-.1c-.215-.038-2.323-.046-2.669-.01-.049.092-.1.192-.155.295q-1.853,3.794-3.7,7.586c-.286.587-.574,1.174-.858,1.762-.031.065-.094.127-.045.222a4.534,4.534,0,0,0,.71.019c.24.005.481.006.721,0a3.631,3.631,0,0,0,.726-.028c.093-.2.184-.4.275-.6.257-.569.52-1.135.768-1.708a.349.349,0,0,1,.365-.251c.788.01,1.576,0,2.364,0a1.435,1.435,0,0,1,.173.011.133.133,0,0,1,.121.106.608.608,0,0,1,.02.113c.023.287.044.575.067.862.036.44.072.881.111,1.321a.929.929,0,0,0,.041.153.705.705,0,0,0,.1.018q.938,0,1.874,0a.651.651,0,0,0,.14-.032A.917.917,0,0,0,138.944,55.413ZM136.476,51.4a.713.713,0,0,1-.17.046q-.906,0-1.813,0a.767.767,0,0,1-.154-.033,1.023,1.023,0,0,1,.039-.17c.139-.315.28-.631.425-.944.411-.887.8-1.782,1.152-2.7a2.241,2.241,0,0,1,.111-.232c.007-.013.032-.017.061-.031a.485.485,0,0,1,.041.1c.014.095.026.19.033.286.044.65.082,1.3.133,1.951.04.507.1,1.012.141,1.518C136.481,51.263,136.476,51.329,136.476,51.4Z"/>
    <path id="Path_2546" data-name="Path 2546" class="cls-2" d="M183.621,45.208c-.027-.013-.044-.028-.06-.029q-.879,0-1.759-.007c-.056,0-.113.011-.19.018a7.2,7.2,0,0,0-.167.782q-.083.409-.162.819c-.052.264-.094.53-.152.792a5.142,5.142,0,0,1-.178.8.258.258,0,0,1-.068.021.622.622,0,0,1-.113-.02,3.632,3.632,0,0,0-1.823,0,4.263,4.263,0,0,0-2.651,1.85,5.006,5.006,0,0,0-.842,3.228,2.89,2.89,0,0,0,.323,1.158,1.993,1.993,0,0,0,1.6,1.135,2.59,2.59,0,0,0,2.14-.721c.146-.138.268-.3.4-.452.03-.035.054-.082.144-.062a3.429,3.429,0,0,1-.023.471c-.015.143-.029.287-.035.43a.633.633,0,0,0,.028.151.311.311,0,0,0,.073.023q.82,0,1.642,0a.4.4,0,0,0,.108-.037c.026-.257.054-.5.075-.752.064-.747.18-1.486.317-2.223.2-1.066.407-2.13.61-3.195q.369-1.923.734-3.847A.874.874,0,0,0,183.621,45.208Zm-3.039,5.374c-.115.573-.225,1.148-.35,1.719a3.017,3.017,0,0,1-.481,1.1,1.739,1.739,0,0,1-.609.56,1.013,1.013,0,0,1-.748.118.918.918,0,0,1-.6-.458,1.37,1.37,0,0,1-.175-.574,3.3,3.3,0,0,1,.82-2.556,1.808,1.808,0,0,1,1.218-.64,1.4,1.4,0,0,1,1.006.259C180.636,50.282,180.612,50.432,180.582,50.582Z"/>
    <path id="Path_2547" data-name="Path 2547" class="cls-2" d="M200.549,48.6c-.031-.011-.065-.026-.1-.037-.055-.018-.11-.033-.166-.048a8.081,8.081,0,0,0-2.14-.246,5.838,5.838,0,0,0-1.229.131,4.574,4.574,0,0,0-3.355,2.724,4.874,4.874,0,0,0-.4,2.729,2.422,2.422,0,0,0,.469,1.133,1.909,1.909,0,0,0,1.059.706,2.412,2.412,0,0,0,1.281-.023,2.708,2.708,0,0,0,1.411-1c.094-.121.175-.253.265-.377a.486.486,0,0,1,.1-.075,1.193,1.193,0,0,1,.008.448c-.014.24-.031.479-.04.719a.9.9,0,0,0,.031.183,13.834,13.834,0,0,0,1.824-.008c.008-.054.017-.091.019-.128.021-.413.037-.826.062-1.238a13.117,13.117,0,0,1,.205-1.629c.227-1.227.468-2.452.7-3.678A.4.4,0,0,0,200.549,48.6Zm-2.324,1.571c-.091.519-.179,1.04-.281,1.557a4.728,4.728,0,0,1-.455,1.33,2.5,2.5,0,0,1-.5.667,1.361,1.361,0,0,1-.619.349.8.8,0,0,1-.941-.428,1.593,1.593,0,0,1-.161-.724,3.442,3.442,0,0,1,.313-1.423,3.212,3.212,0,0,1,.831-1.162,1.908,1.908,0,0,1,1.394-.514c.133.007.264.038.433.064A2.664,2.664,0,0,1,198.225,50.176Z"/>
    <path id="Path_2548" data-name="Path 2548" class="cls-2" d="M166.274,48.571c-.055-.017-.11-.034-.165-.048a8.251,8.251,0,0,0-2.168-.25,5.734,5.734,0,0,0-1.48.2,4.571,4.571,0,0,0-3,2.461,5.193,5.193,0,0,0-.521,2.655,2.621,2.621,0,0,0,.334,1.152,1.937,1.937,0,0,0,1.549,1.02,2.483,2.483,0,0,0,2.03-.7,3.507,3.507,0,0,0,.514-.62c.046-.069.1-.134.168-.229a.513.513,0,0,1,.047.131c-.017.306-.037.613-.057.92a.618.618,0,0,0,.016.318.686.686,0,0,0,.111.023q.794,0,1.586,0a.558.558,0,0,0,.135-.037c.01-.067.021-.123.024-.18.03-.47.056-.939.089-1.409a15.709,15.709,0,0,1,.272-1.88q.3-1.554.6-3.11c.021-.112.036-.225.057-.361C166.345,48.6,166.31,48.582,166.274,48.571Zm-2.212,1.466c-.109.6-.213,1.21-.331,1.813a4.438,4.438,0,0,1-.4,1.167,2.522,2.522,0,0,1-.525.717,1.352,1.352,0,0,1-.593.339.8.8,0,0,1-.976-.455,1.366,1.366,0,0,1-.121-.441,3.389,3.389,0,0,1,1.085-2.8,1.853,1.853,0,0,1,1.41-.547c.142.006.283.039.448.063A.836.836,0,0,1,164.062,50.037Z"/>
    <path id="Path_2549" data-name="Path 2549" class="cls-2" d="M150.894,50.293a1.934,1.934,0,0,0-.888-1.6,2.472,2.472,0,0,0-.625-.291,3.586,3.586,0,0,0-1.571-.1,3.782,3.782,0,0,0-1.995.9,4.4,4.4,0,0,0-1.27,1.828,4.473,4.473,0,0,0-.2,2.717A2.447,2.447,0,0,0,146,55.568a3.436,3.436,0,0,0,1.1.2,7.945,7.945,0,0,0,1.122-.051,6.084,6.084,0,0,0,1.5-.383.472.472,0,0,0,.241-.144,5.957,5.957,0,0,0-.152-1.426.772.772,0,0,0-.108.026,4.858,4.858,0,0,1-1.389.357,3.155,3.155,0,0,1-.975-.029,1.536,1.536,0,0,1-.745-.356,1.062,1.062,0,0,1-.344-.916c.07-.007.144-.021.219-.022.423,0,.844-.008,1.267-.047a7.593,7.593,0,0,0,1.192-.193,3.333,3.333,0,0,0,1.153-.509,1.877,1.877,0,0,0,.771-1.177A2.441,2.441,0,0,0,150.894,50.293Zm-2.179.623a1.459,1.459,0,0,1-.378.2,3.053,3.053,0,0,1-.872.166c-.286.023-.575.014-.862.016a.834.834,0,0,1-.146-.029.828.828,0,0,1,.02-.176,2.011,2.011,0,0,1,.649-.965,1.558,1.558,0,0,1,1.036-.36,1.139,1.139,0,0,1,.392.077A.614.614,0,0,1,148.715,50.916Z"/>
    <path id="Path_2550" data-name="Path 2550" class="cls-2" d="M185.206,61.363a3.776,3.776,0,0,0-.517-1.306,2.854,2.854,0,0,0-1.642-1.242,3.654,3.654,0,0,0-1.88-.041,2.819,2.819,0,0,0-1.158.556,3.328,3.328,0,0,0-.985,1.4,5.787,5.787,0,0,0-.344,1.973c.014.177.031.436.057.694a3.793,3.793,0,0,0,.064.4,4.125,4.125,0,0,0,.863,1.833,2.476,2.476,0,0,0,1.452.874,4.615,4.615,0,0,0,1.46.069,2.787,2.787,0,0,0,1.659-.788,3.321,3.321,0,0,0,.874-1.536A6.121,6.121,0,0,0,185.206,61.363Zm-1.738,2.687a2.486,2.486,0,0,1-.254.732,1.188,1.188,0,0,1-1.046.657,1.934,1.934,0,0,1-.713-.07,1.22,1.22,0,0,1-.728-.615,3.186,3.186,0,0,1-.289-1.02,8.544,8.544,0,0,1-.052-1.525,4.308,4.308,0,0,1,.222-1.3,2.944,2.944,0,0,1,.159-.37,1.265,1.265,0,0,1,.865-.662,1.44,1.44,0,0,1,1.78,1.055,5.989,5.989,0,0,1,.165,1.168c.009.172,0,.346,0,.519A6.259,6.259,0,0,1,183.468,64.05Z"/>
    <path id="Path_2551" data-name="Path 2551" class="cls-2" d="M171.724,61.6a3.812,3.812,0,0,0-.506-1.461,2.866,2.866,0,0,0-1.818-1.36,3.717,3.717,0,0,0-1.571-.049,2.841,2.841,0,0,0-1.666.9,3.513,3.513,0,0,0-.752,1.349A5.658,5.658,0,0,0,165.33,64a3.969,3.969,0,0,0,.765,1.567,2.483,2.483,0,0,0,1.512.933c.178.034.361.048.54.076a3.3,3.3,0,0,0,1.148-.044,2.736,2.736,0,0,0,1.622-.974,3.405,3.405,0,0,0,.576-1.026,5.856,5.856,0,0,0,.324-1.926C171.787,62.273,171.77,61.937,171.724,61.6Zm-1.815,2.6a2.271,2.271,0,0,1-.226.59,1.194,1.194,0,0,1-1.054.643,1.805,1.805,0,0,1-.819-.118,1.209,1.209,0,0,1-.586-.532,2.372,2.372,0,0,1-.229-.62,7.036,7.036,0,0,1-.137-1.719,4.881,4.881,0,0,1,.137-1.228,4.07,4.07,0,0,1,.219-.623,1.3,1.3,0,0,1,1-.744,1.429,1.429,0,0,1,1.673,1.064,5.83,5.83,0,0,1,.138.822c.032.286.039.575.05.749A7.654,7.654,0,0,1,169.909,64.207Z"/>
  </g>
</svg>