<?xml version="1.0" encoding="UTF-8"?>
<svg id="Layer_1" xmlns="http://www.w3.org/2000/svg" xmlns:xlink="http://www.w3.org/1999/xlink" version="1.1" viewBox="0 0 106.8 41.3">
  <!-- Generator: Adobe Illustrator 29.5.1, SVG Export Plug-In . SVG Version: 2.1.0 Build 141)  -->
  <defs>
    <style>
      .st0 {
        fill: #a60e34;
      }

      .st0, .st1, .st2, .st3 {
        fill-rule: evenodd;
      }

      .st4 {
        mask: url(#mask);
      }

      .st1 {
        fill: #fff;
      }

      .st2 {
        fill: #4c4948;
      }

      .st3 {
        fill: #ef8200;
      }
    </style>
    <mask id="mask" x="12.1" y="0" width="7.2" height="14.5" maskUnits="userSpaceOnUse">
      <g id="mask-3">
        <polygon id="path-2" class="st1" points="12.1 0 19.2 0 19.2 14.5 12.1 14.5 12.1 0"/>
      </g>
    </mask>
  </defs>
  <path id="Fill-1" class="st0" d="M24.5,25.9c-2.5-1.3-6.3,0-6.5,0-.2,0-.4,0-.6.3,0,0-.2.3-.2.3-.2.2-.2.4-.2.7,0,.2-.5,4.1,1.2,6.3.4.6,1,1.3,1.8,1.9.9.8,1.7,1.2,2.5,1.5,2.4.8,5.4,0,5.9-.2h.1c.3,0,.6-.3.7-.5.2,0,.4-.4.3-.7h0c0-.7.4-3.7-.8-5.9-.4-.7-1-1.4-1.9-2.2-.8-.6-1.5-1.1-2.2-1.4"/>
  <path id="Fill-3" class="st3" d="M35.4,17.3c.4-.9,1.8-4.3,1.8-6.2,0-1.7-.2-2-.3-2.7,0-.1,0-.2-.1-.3,0,0-.2-.1-.3-.2-.7-.2-1-.4-2.6-.7-1.9-.3-5.5.6-6.5.8-3.8,1-8,4.9-8.1,7.8,0,0,.3,4.3.2,5.1,0,0,0,.1,0,.2-.1.4,0,.8.2,1l.6.6c.2.3.6.4,1,.3,0,0,0,0,.2,0,.7,0,5,1,5.1.9,2.9.3,7.5-3.2,9-6.7"/>
  <path id="Fill-5" class="st2" d="M7.2,9c-1-.7-1.9-1-2.9-1.2-.8-.2-2.6-.4-3.5-.4-.1,0-.4,0-.6.3-.2.3-.2.5-.2.6.1.9.5,2.6.7,3.4.3.9.7,1.8,1.5,2.7.8.8,2.1,2,2.9,2.7,1.8,1.5,3.3.5,4.7-.1.1,0,.2,0,.4-.2l.2-.2c.1-.1.1-.3.2-.4.5-1.4,1.3-3-.4-4.6-.7-.7-2.1-1.9-3-2.6"/>
  <g class="st4">
    <path id="Fill-7" class="st0" d="M16.6.2c0-.2-.2-.2-.4-.2-.1,0-.3,0-.4.1-1.3.6-3.4,3.8-3.8,8.5-.2,2.8,0,4.8,2.1,5.6h0s0,0,0,0c0,.1.3.1.4,0,.2,0,.4-.1.5-.1.2,0,.3.1.5.2.1,0,.3,0,.4,0h0c0,0,0,0,0,0,2.2-.5,2.7-2.4,2.8-5.3.3-4.7-1.4-8.1-2.6-8.9"/>
  </g>
  <path id="Fill-9" class="st2" d="M13.9,28.4c0-.2,0-.4,0-.5,0-.2-.1-.3-.3-.4l-.2-.2c-.1-.1-.3-.2-.5-.2-.1,0-.3,0-.5,0-.3,0-3.7-.7-6.8.5-1.2.4-2.3,1-3.7,2.6-.9,1-1.5,2.1-1.7,2.9-.6,2.8,1.4,5.8,1.4,5.8,0,0-.1.5.5,1,.6.5,1.1.4,1.1.4,0,0,3.3,1.6,6,.7.8-.2,1.8-1,2.7-2,1.4-1.6,1.9-2.7,2.2-3.9.9-3.2-.2-6.4-.3-6.7"/>
  <path id="Fill-11" class="st3" d="M5,25.6c-2,.6-3.3-1.3-3.3-1.3,0,0-.2,0-.3-.3,0,0,0,0,0-.1h0s0,0,0,0c0,0,0,0,0-.1,0-.3,0-.4,0-.4,0,0,.2-2.3,2.2-2.7l4.4-1.2c2.4-.6,4.4,1.1,4.4,1.1,0,0,.2,0,.3.3,0,.3,0,.4,0,.4,0,0-.9,2.5-3.3,3.2l-4.4,1.2Z"/>
  <path id="Fill-13" class="st2" d="M56.3,26.7c-2.3-1.1-4.7-3.8-5.5-6.6,0-.1,0-.2.1-.2h4.9c0,0,.1,0,.1-.1v-1.1c0,0,0-.1-.1-.1h-5.3c-.1,0-.2,0-.2-.2,0-.2,0-.4,0-.6v-2.1c0,0,0-.1.2-.1h4.9c0,0,.1,0,.1-.1v-1.1c0,0,0-.1-.1-.1h-12.5c0,0-.1,0-.1.1v1.1s0,0,0,0h0c0,0,0,.1.1.1h4.9c0,0,.2,0,.2.1v2.1c0,.2,0,.4,0,.6,0,.1,0,.2-.2.2h-5.3c0,0-.1,0-.1.1v1.1c0,0,0,.1.1.1h4.9c.2,0,.2,0,.1.2-.9,2.8-3.3,5.4-5.5,6.6-.1,0-.1,0-.1.2v1c0,0,0,.1.1.1.9,0,4.5-1.5,7-6.1,0-.1,0-.2.2-.2s.1,0,.2.2c2.5,4.5,6.2,6,7.1,6.1,0,0,.1,0,.1-.1v-1c0-.1,0-.1-.1-.2"/>
  <path id="Fill-15" class="st2" d="M62,17c0,0-.1,0-.1.1v1.6c0,0,0,.1.1.2.5.1,1.2.6,1.2,2.3v1.3c0,1.9-.3,2.3-.9,2.6,0,0-.1,0-.1.2v1.1c0,0,0,.1.1.1.8-.1,2.9-.7,2.9-3.9v-2.1c0-3.2-2.5-3.5-3.1-3.5"/>
  <path id="Fill-17" class="st2" d="M68.9,17c-.6,0-3.1.3-3.1,3.5v2.1c0,3.2,2.2,3.8,2.9,3.9,0,0,.1,0,.1-.1v-1.1c0,0,0-.1-.1-.2-.7-.4-.9-.7-.9-2.6v-1.3c0-1.8.6-2.2,1.2-2.3,0,0,.1,0,.1-.2v-1.6c0,0,0-.1-.1-.1"/>
  <path id="Fill-19" class="st2" d="M73,26.7c-.7-.3-.9-1-.9-2.8v-8.8c0-.5-.4-1-1-1h-11.3c-.5,0-1,.4-1,1v8.8c0,1.7-.3,2.5-.9,2.8,0,0-.1,0-.1.2v1.1c0,0,0,.1.1.1.8-.1,3.3-.8,3.3-3.7v-8.7c0-.1,0-.2.2-.2h8.1c0,0,.2,0,.2.2v8.7c0,2.9,2.6,3.6,3.3,3.7,0,0,.1,0,.1-.1v-1.1c0-.1,0-.1-.1-.2"/>
  <path id="Fill-21" class="st2" d="M87.2,25.9c0,.3-.2.8-.8.8h-8.7c-.1,0-.1-.1-.1-.1v-11c0-.1.1-.1.1-.1h9.4c.1,0,.1.1.1.1v8.6h0v1.8ZM89.6,24.2v-9.9c0,0,0-.1-.1-.1h-14.1c0,0-.1,0-.1.1v13.6c0,0,0,.1.1.1h12.2c1,0,2.1-.8,2.1-2v-1.8h0Z"/>
  <path id="Fill-23" class="st2" d="M86.5,23.9c-.2-.6-.7-1.3-.9-1.3,0,0,0,0-.1,0h-.8s0,0,0,0c0,.2.3.7.4,1.1h0s0,0,0,.1c0,.1,0,.2-.2.2s0,0,0,0h-1.1c-.1,0-.1-.1-.1-.1v-2.6s0-.1.1-.1h2.3c0,0,.1,0,.1-.1v-1.1c0,0,0-.1-.1-.1h-2.3s-.1,0-.1-.1v-1.7c0-.1.1-.1.1-.1h2.6c0,0,.1,0,.1-.1v-1.1c0,0,0-.1-.1-.1h-7.6c0,0-.1,0-.1.1v1.1c0,0,0,.1.1.1h2.4c.1,0,.1.1.1.1v1.7c0,.1-.1.1-.1.1h-2.2c0,0-.1,0-.1.1v1.1c0,0,0,.1.1.1h2.2c.1,0,.1.1.1.1v2.6s0,.1-.1.1h-2.7c0,0-.1,0-.1.1v1.1c0,0,0,.1.1.1h7.3c.7,0,1-.4,1-.9s0-.3-.1-.6"/>
  <path id="Fill-25" class="st2" d="M95.2,23.9c-.3.3-.7.4-1.2.4,0,0-.1,0-.1-.1v-8.6c0-.1.1-.1.1-.1h.9c.3,0,.3.2.3.4s-.1,2.4-.8,3.4c0,0,0,0,0,.1.2.2,1,1.1,1,2,0,1.1.1,2-.3,2.4M96.2,19.1c.9-1.3,1-3.4,1-4.1s-.6-.9-.9-.9h-4.3c0,0-.1,0-.1.1v13.6c0,0,0,.1.1.1h1.8c0,0,.1,0,.1-.1v-2s0-.1.1-.1h.9c.7,0,1.9-.6,2.1-1.8.3-1.4.3-3.4-.9-4.7,0,0,0,0,0-.1"/>
  <path id="Fill-27" class="st2" d="M98.2,15.8h7.7c0,0,.1,0,.1-.1v-1.1c0,0,0-.1-.1-.1h-7.7c0,0-.1,0-.1.1v1.1c0,0,0,.1.1.1"/>
  <path id="Fill-29" class="st2" d="M106.6,18.9c0,0,.1,0,.1-.1v-1.1c0,0,0-.1-.1-.1h-9.2c0,0-.1,0-.1.1v1.1c0,0,0,.1.1.1h3.3c.1,0,.1.1.1.1v8.9c0,0,0,.1.1.1h2.1c0,0,.1,0,.1-.1v-8.9s0-.1.1-.1h3.3Z"/>
  <path id="Fill-31" class="st2" d="M106.7,25.9c-.5-.2-.7-.7-.7-1.9v-1.1s0,0,0,0v-2.4c0,0,0-.1-.1-.1h-1.4c0,0-.1,0-.1.1v3.8c0,2,1.8,2.5,2.3,2.6,0,0,0,0,0,0v-.8c0,0,0,0,0-.1"/>
  <path id="Fill-33" class="st2" d="M99.6,20.3h-1.4c0,0-.1,0-.1.1v2.4s0,0,0,0v1.1c0,1.2-.2,1.7-.7,1.9,0,0,0,0,0,.1v.8c0,0,0,0,0,0,.5,0,2.3-.6,2.3-2.6v-3.8c0,0,0-.1-.1-.1"/>
  <path id="Fill-35" class="st2" d="M45.3,32.5c0,0,0,.1-.1.1h-1.2v4.3c0,.1,0,.1-.1.1h-.7s-.1,0-.1-.1v-4.3h0s-1.2,0-1.2,0c0,0-.1,0-.1-.1v-.6c0,0,0-.1.1-.1h3.3c0,0,.1,0,.1.1v.6Z"/>
  <path id="Fill-37" class="st2" d="M49.2,31.7h-2.9s0,0-.1.1v5.1c0,.1,0,.1.1.1h.7s.1,0,.1-.1v-2.1h1.7c0,0,.1,0,.1-.1v-.6s0-.1-.1-.1h-1.7v-1.3h2c0,0,0-.1,0-.1v-.6s0-.1-.1-.1"/>
  <path id="Fill-39" class="st2" d="M73.4,31.7h-.7s-.1,0-.1.1v3.3l-1.8-3.4s0,0,0,0c0,0,0,0,0,0h-.7s-.1,0-.1.1v5.1c0,.1,0,.1.1.1h.7s.1,0,.1-.1v-3.3l1.8,3.4c0,0,.1,0,.2,0h.7s.1,0,.1-.1v-5.1c0-.1,0-.1-.1-.1"/>
  <path id="Fill-41" class="st2" d="M52.1,31.7h-.7s-.1,0-.1.1v5.1c0,.1,0,.1.1.1h.7s.1,0,.1-.1v-5.1c0-.1,0-.1-.1-.1"/>
  <path id="Fill-43" class="st2" d="M83.4,31.7h-.7s-.1,0-.1.1v5.1c0,.1,0,.1.1.1h.7s.1,0,.1-.1v-5.1c0-.1,0-.1-.1-.1"/>
  <path id="Fill-45" class="st2" d="M100.8,36.2h-2.1v-4.3c0-.1,0-.1-.1-.1h-.7s-.1,0-.1.1v4.4s0,0,0,0v.6s0,0,0,0c0,0,0,0,0,0,0,0,0,0,0,0,0,0,0,0,0,0,0,0,0,0,0,0,0,0,0,0,0,0,0,0,0,0,0,0h2.9s.1,0,.1-.1v-.6c0,0,0-.1-.1-.1"/>
  <path id="Fill-47" class="st2" d="M62.3,32.6h2c.1,0,.1-.1.1-.1v-.6s0-.1-.1-.1h-2.9s-.1,0-.1.1v5.1c0,.1,0,.1.1.1h2.9c0,0,.1,0,.1-.1v-.6s0-.1-.1-.1h-2s0,0,0,0v-1.3s0,0,0,0c0,0,0,0,0,0h1.7c0,0,.1,0,.1-.1v-.6c0,0,0-.1-.1-.1h-1.7s0,0,0,0v-1.3s0,0,0,0"/>
  <path id="Fill-49" class="st2" d="M56.7,31.7h-.7s-.1,0-.1.1v3.3l-1.8-3.4s0,0,0,0c0,0,0,0,0,0h-.7s-.1,0-.1.1v5.1c0,.1,0,.1.1.1h.7s.1,0,.1-.1v-3.3l1.8,3.4c0,0,.1,0,.2,0h.7s.1,0,.1-.1v-5.1c0-.1,0-.1-.1-.1"/>
  <path id="Fill-51" class="st2" d="M67,34.2h-.7v-1.6h.7c.4,0,.9,0,.9.8s-.7.8-.9.8M69,36.9l-1.1-2.1h0s0,0,0,0c.3-.1.9-.5.9-1.4s-.3-1.6-2-1.6h-1.5s-.1,0-.1.1v5.1c0,.1,0,.1.1.1h.7s.1,0,.1-.1v-2h0s.7,0,.7,0h0s.9,2,.9,2c0,0,0,0,.1,0h.9c0,0,0,0,0-.1"/>
  <path id="Fill-53" class="st2" d="M86.3,36.2c-.7,0-.9-.6-.9-1.1v-1.5c0-.5.2-1.1.9-1.1s.9.6.9,1.1v1.5c0,.5-.2,1.1-.9,1.1M87.9,32.6c-.3-.6-.9-.9-1.6-.9s-1.3.3-1.6.9c-.2.3-.2.7-.2,1.1v1.3c0,.4,0,.7.2,1.1.3.6.9.9,1.6.9s1.3-.3,1.6-.9c.2-.3.2-.7.2-1.1v-1.3c0-.4,0-.7-.2-1.1"/>
  <path id="Fill-55" class="st2" d="M60.8,32.5c0,0,0,.1-.1.1h-1.2v4.3c0,.1,0,.1-.1.1h-.7s-.1,0-.1-.1v-4.3h0s-1.2,0-1.2,0c0,0-.1,0-.1-.1v-.6c0,0,0-.1.1-.1h3.3c0,0,.1,0,.1.1v.6Z"/>
  <path id="Fill-57" class="st2" d="M81.6,32.5c0,0,0,.1-.1.1h-1.2v4.3c0,.1,0,.1-.1.1h-.7s-.1,0-.1-.1v-4.3h0s-1.2,0-1.2,0c0,0-.1,0-.1-.1v-.6c0,0,0-.1.1-.1h3.3c0,0,.1,0,.1.1v.6Z"/>
  <path id="Fill-59" class="st2" d="M92.6,31.7h-.7s-.1,0-.1.1v3.3l-1.8-3.3s0,0,0,0c0,0,0,0,0,0h-.7s-.1,0-.1.1v5.1c0,.1,0,.1.1.1h.7s.1,0,.1-.1v-3.2l1.8,3.3c0,0,.1,0,.2,0h.7s.1,0,.1-.1v-5.1c0-.1,0-.1-.1-.1"/>
  <path id="Fill-61" class="st2" d="M75.5,35.2l.6-1.9.6,1.9h-1.2ZM76.6,31.8s0-.1-.1-.1h-.7c-.1,0-.1.1-.1.1l-1.5,5.1c0,0,0,.1,0,.1h.7c0,0,.1,0,.2-.1l.3-.9h1.7l.3.9c0,0,0,.1.2.1h.7c0,0,0,0,0-.1l-1.5-5.1Z"/>
  <path id="Fill-63" class="st2" d="M94.7,35.2l.6-1.9.6,1.9h-1.2ZM95.8,31.8s0-.1-.1-.1h-.7c-.1,0-.1.1-.1.1l-1.5,5.1c0,0,0,.1,0,.1h.7c0,0,.1,0,.2-.1l.3-.9h1.7l.3.9c0,0,0,.1.2.1h.7c0,0,0,0,0-.1l-1.5-5.1Z"/>
</svg>