<?xml version="1.0" encoding="UTF-8"?>
<svg id="Layer_1" xmlns="http://www.w3.org/2000/svg" version="1.1" viewBox="0 0 281.2 49.5">
  <!-- Generator: Adobe Illustrator 29.5.1, SVG Export Plug-In . SVG Version: 2.1.0 Build 141)  -->
  <defs>
    <style>
      .st0 {
        fill: #132b51;
      }
    </style>
  </defs>
  <path class="st0" d="M0,38.2v-.7C0,26.3,0,15,0,3.7c0-.6.1-.8.8-.9,4.2-.6,8.4-.8,12.6-.4,2.3.2,4.5.8,6.5,2.1,4.6,3,4.9,9.4.6,12.8-.8.7-1.8,1.2-2.8,1.8.3.1.6.2.9.3,4,1.5,6.2,4.6,6.1,8.9,0,3.8-2.4,7.2-6.3,8.9-2.8,1.2-5.9,1.6-8.9,1.6-2.9,0-5.8-.2-8.7-.3-.3,0-.5,0-.8-.1ZM6.5,27.8h0v5.3c0,.3,0,.6.4.6,2.3.2,4.6.3,6.8-.4,2.7-.8,4.1-2.7,4.2-5.4,0-2.5-1.3-4.4-3.8-5.3-.3-.1-.7-.2-1-.3-1.9-.5-3.9-.3-5.8-.4-.6,0-.7.2-.7.7,0,1.7,0,3.4,0,5.2ZM6.5,17c1.7,0,3.3.1,4.9,0,1,0,2.1-.4,3-.9,2.1-1,3-3.2,2.4-5.4-.5-1.9-1.9-2.9-3.7-3.3-1.9-.4-3.9-.3-5.8-.2-.6,0-.7.3-.7.8,0,2.8,0,5.7,0,8.5,0,.2,0,.4,0,.5Z"/>
  <path class="st0" d="M243.1,38.3V12.5h5.5c0,1.2.2,2.5.3,3.7,0,0,0,0,.1.1,1.8-2.8,4.4-4.4,7.8-4.4,3.5,0,5.9,1.5,7.4,4.8.2-.3.3-.5.5-.7,1.5-2,3.3-3.4,5.7-3.9,5-1.1,9,1.5,10.3,6.5.3,1.3.5,2.6.5,4,0,5,0,10,0,15v.7h-6.3c0-.3,0-.5,0-.8,0-4.3,0-8.7,0-13,0-1.3-.1-2.6-.4-3.8-.6-2.4-2.2-3.6-4.3-3.5-2.1,0-4.1,1.8-4.5,3.9-.1.8-.2,1.5-.2,2.3,0,4.7,0,9.4,0,14v.8h-6.3v-.7c0-4.6,0-9.2,0-13.9,0-1.2-.2-2.4-.5-3.6-1.2-3.7-5.3-3.7-7.3-1.4-1.2,1.3-1.6,2.9-1.6,4.6,0,4.7,0,9.4,0,14.1v.8h-6.4Z"/>
  <path class="st0" d="M150.9,42.6c1.6.5,3.1,1.1,4.6,1.5,1.6.4,3.2.5,4.8.2,3.2-.6,5.2-2.7,5.5-6,.1-1.2,0-2.5,0-3.7,0,0-.2.2-.3.2-2.1,2.7-5,3.7-8.3,3.3-4.9-.5-8.4-3.8-9.6-9-.9-4.1-.5-8,1.7-11.6,2.3-3.8,5.7-5.8,10.2-5.6,2.9,0,5.2,1.3,6.8,3.8,0,0,0,0,.2.1,0-1.1.2-2.2.3-3.3h5.5c0,.9,0,1.8,0,2.7,0,3.4,0,6.8,0,10.2,0,3.6,0,7.3,0,10.9,0,1.7-.3,3.3-.7,5-.9,3.7-3.3,6.2-6.9,7.3-4.7,1.5-9.3,1.3-13.9-.5-1.3-.5-1.3-.6-.9-1.9.4-1.2.7-2.4,1-3.5ZM165.8,25s0,0,0,0c0-.9,0-1.7,0-2.6-.1-1.8-.8-3.3-2.2-4.4-2.5-2-6.3-1.2-8.1,1.6-.9,1.4-1.3,3-1.4,4.7-.2,2.4.1,4.8,1.7,6.7,1.5,1.9,3.5,2.6,5.9,2.1,2.3-.5,3.7-2,4.1-4.3.2-1.2,0-2.5.2-3.8Z"/>
  <path class="st0" d="M106.7,17.3h-9.6c-.8,0-.8,0-.8.8,0,6.5,0,12.9,0,19.4v.8h-6.5v-21h-3.5v-4.9h3.4c0-1.1,0-2.1.2-3.1.3-1.4.5-2.8,1.1-4.1,1.4-3.4,4.2-4.9,7.7-5.3,1.5-.1,3,0,4.5.4.4.1.6.3.5.8-.1,1.1-.2,2.3-.3,3.4,0,.3,0,.7-.1.9-1.2,0-2.3-.2-3.4-.2-1.3,0-2.2.7-2.8,1.8-.9,1.7-.9,3.5-.9,5.4h16.9v25.9h-6.5v-21Z"/>
  <path class="st0" d="M238.2,25.2c0,2-.3,4-1,5.8-1.2,3-3.2,5.2-6.1,6.5-3.6,1.7-7.3,1.8-11,.5-3.7-1.3-6.1-3.9-7.3-7.6-1.2-3.6-1.1-7.3.3-10.8,1.7-4.3,5.1-6.7,9.6-7.5,2.5-.4,5-.3,7.4.5,4.6,1.7,7.1,5.1,7.9,9.9,0,.3.1.6.1,1,0,.6,0,1.2,0,1.8ZM218.7,25c0,2.4.4,4.2,1.2,5.8,1.3,2.4,3.6,3.7,6.1,3.2,1.9-.3,3.2-1.6,4.1-3.2,1.1-2.1,1.4-4.4,1.2-6.8-.2-2-.7-3.9-2-5.4-2.2-2.6-6.3-2.6-8.5,0-1.7,2-2.1,4.3-2.1,6.5Z"/>
  <path class="st0" d="M125.5,38.3h-6.6V12.5h5.6c.1,1.2.2,2.5.4,3.9.3-.4.5-.6.7-.9,3-4.1,9.4-4.9,13.3-1.7,2,1.6,2.9,3.8,3.3,6.2.2,1,.2,2,.2,3,0,4.8,0,9.6,0,14.5v.8h-6.5v-.7c0-4.8,0-9.6,0-14.4,0-.8-.1-1.7-.4-2.5-1.2-4.3-5.9-4.2-8-2.1-1.4,1.3-1.9,3-1.9,4.9,0,4.7,0,9.4,0,14v.9Z"/>
  <path class="st0" d="M81.6,32.7c.3,1.4.6,2.8.9,4.1,0,.4-.1.5-.4.6-1.6.4-3.2.9-4.9,1.1-2.6.4-5.2.4-7.8-.2-5-1.3-8-4.6-8.9-9.7-.7-3.8-.2-7.5,1.8-10.9,2.6-4.4,6.6-6.2,11.6-5.9,5.6.3,8.9,4.2,9.8,9.3.3,1.8.3,3.5.2,5.3,0,.5-.3.7-.8.7-5.2,0-10.5,0-15.7,0h-.9c0,1.7.5,3.1,1.6,4.3,1.4,1.5,3.2,2.1,5.1,2.3,2.8.2,5.6-.1,8.3-1.1ZM66.5,22.6c.4,0,.7,0,1,0,3.1,0,6.2,0,9.3,0s1.1,0,1-1.1c-.3-4.1-4.1-6.4-7.7-4.6-2.3,1.1-3.2,3.2-3.6,5.7Z"/>
  <path class="st0" d="M209.5,13.1c-.4,1.6-.8,3.2-1.2,4.9-.3,0-.5-.2-.7-.3-1.9-.7-3.8-.9-5.8-.6-3.6.6-6,3.4-6.3,7.1-.1,1.6,0,3.1.5,4.6,1.2,3.4,4.5,5.3,8.3,4.8,1.4-.2,2.7-.5,4.2-.8.1.7.3,1.4.4,2.2.1.6.2,1.1.3,1.7.2.8.2.9-.7,1.1-1.8.6-3.6.9-5.4,1-2.2,0-4.4,0-6.5-.9-3.6-1.4-6.1-3.9-7.2-7.6-1.1-3.4-1-6.8.3-10.2,1.8-4.5,5.1-7,9.8-7.9,3.1-.6,6.2-.5,9.2.6.2,0,.4.2.7.3Z"/>
  <path class="st0" d="M36.6,38.3h-6.6V12.5h5.5c0,1.6.2,3.2.2,4.8,0,0,0,0,.1,0,.1-.3.3-.5.4-.8,1-2.1,2.5-3.7,4.8-4.3.9-.3,2-.2,3-.2.1,0,.4.2.4.3,0,1.9,0,3.8,0,5.8-.6,0-1.1,0-1.6-.1-3.1-.2-5.6,1.8-6.1,5.3-.1.7-.1,1.4-.1,2.1,0,4,0,8.1,0,12.1v.8Z"/>
  <path class="st0" d="M48.7,12.5h6.4v25.8h-6.4V12.5Z"/>
  <path class="st0" d="M185.4,34.7c0,2.5-1.7,4.2-4.1,4.2-2.3,0-4-1.8-4-4.2,0-2.5,1.6-4.2,4-4.2,2.4,0,4.1,1.7,4.1,4.2Z"/>
  <path class="st0" d="M51.8,8.7c-2.2,0-3.6-1.4-3.6-3.5,0-2.1,1.5-3.5,3.6-3.5,2.2,0,3.6,1.5,3.6,3.6,0,2-1.5,3.4-3.7,3.4Z"/>
  <path class="st0" d="M109.9,8.7c-2.2,0-3.6-1.4-3.6-3.5,0-2.1,1.5-3.6,3.6-3.6,2.2,0,3.6,1.5,3.6,3.6,0,2-1.5,3.4-3.7,3.4Z"/>
</svg>