<?xml version="1.0" encoding="utf-8"?>
<!-- Generator: Adobe Illustrator 27.2.0, SVG Export Plug-In . SVG Version: 6.00 Build 0)  -->
<svg version="1.1" id="Layer_1" xmlns="http://www.w3.org/2000/svg" xmlns:xlink="http://www.w3.org/1999/xlink" x="0px" y="0px"
	 viewBox="0 0 261.4 228.2" style="enable-background:new 0 0 261.4 228.2;" xml:space="preserve">
<style type="text/css">
	.st0{fill:#4B4B4B;}
	.st1{fill:#00AEEF;}
</style>
<g>
	<g>
		<path class="st0" d="M66.8,206.9v1.2h-3.7v9.3h-1.3v-9.3h-3.7v-1.2H66.8z"/>
		<path class="st0" d="M70.2,217.5c-0.8,0-1.4-0.2-2-0.5c-0.6-0.3-1-0.8-1.4-1.4s-0.5-1.4-0.5-2.2s0.2-1.6,0.5-2.2
			c0.3-0.6,0.8-1.1,1.4-1.4s1.2-0.5,2-0.5c0.7,0,1.4,0.2,1.9,0.5c0.5,0.3,0.9,0.7,1.2,1.3c0.3,0.5,0.4,1.2,0.4,1.8
			c0,0.2,0,0.3,0,0.5c0,0.1,0,0.3,0,0.4h-6.4v-1.1H73l-0.7,0.1c0-0.8-0.2-1.4-0.6-1.8c-0.4-0.4-1-0.6-1.6-0.6c-0.5,0-1,0.1-1.3,0.4
			c-0.4,0.2-0.7,0.6-0.9,1s-0.3,1-0.3,1.6c0,0.6,0.1,1.2,0.3,1.6s0.5,0.8,0.9,1c0.4,0.2,0.8,0.4,1.4,0.4c0.6,0,1.1-0.1,1.4-0.3
			c0.4-0.2,0.7-0.5,0.9-0.9l1,0.6c-0.2,0.4-0.5,0.7-0.8,0.9s-0.7,0.5-1.1,0.6C71.2,217.5,70.7,217.5,70.2,217.5z"/>
		<path class="st0" d="M79.2,209.3c0.6,0,1,0.1,1.5,0.3s0.8,0.4,1.1,0.7s0.6,0.7,0.7,1.1l-1.2,0.6c-0.2-0.5-0.4-0.9-0.8-1.2
			c-0.3-0.3-0.8-0.4-1.3-0.4c-0.5,0-1,0.1-1.4,0.4c-0.4,0.2-0.7,0.6-0.9,1c-0.2,0.5-0.3,1-0.3,1.6c0,0.6,0.1,1.2,0.3,1.6
			c0.2,0.5,0.5,0.8,0.9,1c0.4,0.2,0.8,0.4,1.4,0.4c0.4,0,0.8-0.1,1.1-0.2s0.6-0.3,0.7-0.6s0.3-0.5,0.4-0.9l1.2,0.4
			c-0.2,0.5-0.4,0.9-0.7,1.3s-0.7,0.6-1.1,0.8c-0.4,0.2-0.9,0.3-1.5,0.3c-0.7,0-1.4-0.2-2-0.5c-0.6-0.3-1-0.8-1.4-1.4
			s-0.5-1.4-0.5-2.2s0.2-1.6,0.5-2.2c0.3-0.6,0.8-1.1,1.4-1.4S78.4,209.3,79.2,209.3z"/>
		<path class="st0" d="M84.6,217.4v-11.6h1.3v4.8c0.3-0.5,0.6-0.8,1.1-1c0.5-0.2,1-0.3,1.5-0.3c0.6,0,1.1,0.1,1.6,0.3
			c0.5,0.2,0.8,0.5,1.1,1c0.3,0.4,0.4,1,0.4,1.7v5.1h-1.3v-4.6c0-0.9-0.2-1.5-0.6-1.8c-0.4-0.3-0.8-0.5-1.4-0.5
			c-0.4,0-0.8,0.1-1.1,0.3c-0.4,0.2-0.7,0.5-0.9,0.9c-0.2,0.4-0.4,1-0.4,1.6v4.2H84.6z"/>
		<path class="st0" d="M94.3,217.4v-7.9h1.1l0.1,1.8l-0.2-0.2c0.2-0.4,0.4-0.8,0.7-1c0.3-0.3,0.6-0.4,1-0.6c0.4-0.1,0.8-0.2,1.2-0.2
			c0.6,0,1.1,0.1,1.6,0.3c0.5,0.2,0.8,0.5,1.1,1c0.3,0.4,0.4,1,0.4,1.7v5.1H100v-4.6c0-0.9-0.2-1.5-0.6-1.8
			c-0.4-0.3-0.8-0.5-1.4-0.5c-0.4,0-0.8,0.1-1.1,0.3c-0.4,0.2-0.7,0.5-0.9,0.9c-0.2,0.4-0.4,0.9-0.4,1.6v4.2H94.3z"/>
		<path class="st0" d="M107.2,209.3c0.8,0,1.4,0.2,2,0.5s1,0.8,1.4,1.4c0.3,0.6,0.5,1.4,0.5,2.2s-0.2,1.6-0.5,2.2s-0.8,1.1-1.4,1.4
			c-0.6,0.3-1.2,0.5-2,0.5c-0.7,0-1.4-0.2-2-0.5c-0.6-0.3-1-0.8-1.4-1.4s-0.5-1.4-0.5-2.2s0.2-1.6,0.5-2.2c0.3-0.6,0.8-1.1,1.4-1.4
			S106.5,209.3,107.2,209.3z M107.2,210.4c-0.5,0-1,0.1-1.4,0.4c-0.4,0.2-0.7,0.6-0.9,1s-0.3,1-0.3,1.6c0,0.6,0.1,1.2,0.3,1.6
			s0.5,0.8,0.9,1c0.4,0.2,0.8,0.4,1.4,0.4s1-0.1,1.4-0.4c0.4-0.2,0.7-0.6,0.9-1s0.3-1,0.3-1.6c0-0.6-0.1-1.2-0.3-1.6s-0.5-0.8-0.9-1
			S107.8,210.4,107.2,210.4z"/>
		<path class="st0" d="M114.5,205.8v9.6c0,0.4,0.1,0.7,0.2,0.8c0.1,0.2,0.4,0.2,0.7,0.2c0.2,0,0.4,0,0.5,0c0.1,0,0.3-0.1,0.6-0.2
			l-0.2,1.1c-0.2,0.1-0.4,0.1-0.6,0.2c-0.2,0-0.4,0.1-0.6,0.1c-0.6,0-1.1-0.2-1.4-0.5c-0.3-0.3-0.5-0.9-0.5-1.6v-9.6H114.5z"/>
		<path class="st0" d="M121.3,209.3c0.8,0,1.4,0.2,2,0.5s1,0.8,1.4,1.4c0.3,0.6,0.5,1.4,0.5,2.2s-0.2,1.6-0.5,2.2s-0.8,1.1-1.4,1.4
			c-0.6,0.3-1.2,0.5-2,0.5c-0.7,0-1.4-0.2-2-0.5c-0.6-0.3-1-0.8-1.4-1.4s-0.5-1.4-0.5-2.2s0.2-1.6,0.5-2.2c0.3-0.6,0.8-1.1,1.4-1.4
			S120.6,209.3,121.3,209.3z M121.3,210.4c-0.5,0-1,0.1-1.4,0.4c-0.4,0.2-0.7,0.6-0.9,1s-0.3,1-0.3,1.6c0,0.6,0.1,1.2,0.3,1.6
			s0.5,0.8,0.9,1c0.4,0.2,0.8,0.4,1.4,0.4s1-0.1,1.4-0.4c0.4-0.2,0.7-0.6,0.9-1s0.3-1,0.3-1.6c0-0.6-0.1-1.2-0.3-1.6s-0.5-0.8-0.9-1
			S121.9,210.4,121.3,210.4z"/>
		<path class="st0" d="M131.7,216.4c0.8,0,1.3,0.2,1.8,0.5c0.4,0.3,0.6,0.8,0.6,1.4c0,0.5-0.2,1-0.5,1.4c-0.3,0.4-0.8,0.7-1.4,0.9
			c-0.6,0.2-1.2,0.3-1.9,0.3c-1.2,0-2.2-0.2-2.8-0.6c-0.6-0.4-0.9-0.9-0.9-1.5c0-0.4,0.1-0.8,0.4-1.1c0.3-0.3,0.8-0.5,1.4-0.6
			l-0.1,0.2c-0.4-0.1-0.7-0.3-0.9-0.5c-0.2-0.2-0.4-0.6-0.4-1c0-0.4,0.2-0.8,0.5-1.1c0.3-0.3,0.8-0.5,1.4-0.6l0.8,0.4h-0.2
			c-0.5,0.1-0.9,0.2-1.1,0.4c-0.2,0.2-0.3,0.4-0.3,0.7c0,0.3,0.1,0.5,0.3,0.7c0.2,0.1,0.5,0.2,0.9,0.2H131.7z M130.1,209.3
			c0.6,0,1.2,0.1,1.7,0.3c0.5,0.2,0.9,0.5,1.2,0.9s0.4,0.9,0.4,1.4c0,0.5-0.1,1-0.4,1.4c-0.3,0.4-0.7,0.7-1.2,1
			c-0.5,0.2-1.1,0.3-1.7,0.3c-1,0-1.9-0.3-2.4-0.8c-0.6-0.5-0.8-1.1-0.8-1.9c0-0.5,0.1-1,0.4-1.4c0.3-0.4,0.7-0.7,1.2-0.9
			C128.9,209.4,129.5,209.3,130.1,209.3z M130.2,219.7c0.6,0,1.1-0.1,1.5-0.2c0.4-0.1,0.7-0.3,0.9-0.5s0.3-0.4,0.3-0.7
			c0-0.3-0.1-0.5-0.3-0.7c-0.2-0.2-0.6-0.3-1.2-0.3h-2.4c-0.3,0-0.6,0.1-0.9,0.3c-0.2,0.2-0.3,0.4-0.3,0.7c0,0.4,0.2,0.7,0.7,0.9
			C128.8,219.6,129.4,219.7,130.2,219.7z M130.1,210.3c-0.6,0-1,0.2-1.4,0.5c-0.4,0.3-0.6,0.7-0.6,1.2c0,0.5,0.2,0.9,0.6,1.2
			c0.4,0.3,0.8,0.5,1.4,0.5c0.6,0,1-0.2,1.4-0.5c0.4-0.3,0.6-0.7,0.6-1.2c0-0.5-0.2-0.9-0.6-1.2
			C131.1,210.5,130.7,210.3,130.1,210.3z M134.1,208l0.3,1.1c0,0,0,0,0,0c0,0,0,0-0.1,0c-0.5,0-0.9,0.1-1.2,0.3
			c-0.3,0.2-0.4,0.5-0.4,1l-0.8-0.4c0-0.4,0.1-0.8,0.3-1.1c0.2-0.3,0.5-0.5,0.8-0.7S133.6,208,134.1,208C134,208,134,208,134.1,208
			C134.1,208,134.1,208,134.1,208z"/>
		<path class="st0" d="M142.2,209.4l-3.7,9.3c-0.2,0.5-0.4,0.9-0.7,1.2s-0.5,0.5-0.8,0.7c-0.3,0.1-0.6,0.2-1,0.2
			c-0.4,0-0.7-0.1-1-0.2s-0.6-0.2-0.8-0.4l0.3-1.1c0.2,0.2,0.4,0.3,0.7,0.4s0.5,0.1,0.7,0.1c0.3,0,0.5-0.1,0.8-0.3
			c0.2-0.2,0.5-0.5,0.7-1l0.4-1l-0.8-1.9l-2.5-6h1.4l2,5.2l0.5,1.4l0.6-1.6l1.9-5H142.2z"/>
	</g>
	<path class="st1" d="M218.5,41L218.5,41C194,16.5,161.9,4.3,129.8,4.3c-16.1,0-32.2,3.1-47.3,9.2l0,0l-0.5,0.2c0,0,0,0,0,0
		l-1.2,0.5l0,0C66.3,20.4,52.8,29.2,41,41C29.3,52.7,20.4,66.2,14.3,80.6l0,0l-0.5,1.2c0,0,0,0,0,0.1l-0.2,0.5l0,0
		c-6.1,15.1-9.2,31.2-9.2,47.3c0,32.2,12.2,64.3,36.7,88.8l0.6-0.6l0.2-0.2l0.5-0.5h0l0.3-0.3l0.6-0.6v0c-21-21-30.2-50-30.2-79
		c0-16.7,3.1-33.4,8.8-48.4l0,0C27.4,73.9,36.1,60,48.1,48C60,36.1,74,27.3,88.8,21.7l0,0c13.2-5,27-7.4,40.9-7.4
		c29.6,0,59.1,11.2,81.7,33.8l0.6-0.6v0l5.8-5.8h0L218.5,41z"/>
	<path class="st0" d="M151.4,195.8c-1,0-1.9-0.9-1.9-1.9c0-1.1,0.9-1.9,1.9-1.9c1.1,0,1.9,0.9,1.9,1.9
		C153.4,194.9,152.5,195.8,151.4,195.8"/>
	<path class="st0" d="M151.4,215.7c-1,0-1.9-0.9-1.9-1.9c0-1.1,0.9-1.9,1.9-1.9c1.1,0,1.9,0.9,1.9,1.9
		C153.4,214.8,152.5,215.7,151.4,215.7"/>
	<g>
		<path class="st0" d="M83.8,85c-0.5,1.8-1.3,3.3-2.4,4.5c-1.1,1.2-2.4,2-4,2.6c-1.5,0.5-3.2,0.8-5.1,0.8c-2.6,0-4.9-0.5-6.9-1.6
			c-1.9-1.1-3.4-2.6-4.4-4.6c-1-2-1.5-4.4-1.5-7.3c0-2.8,0.5-5.3,1.5-7.3c1-2,2.5-3.6,4.4-4.6c1.9-1.1,4.2-1.6,6.8-1.6
			c1.8,0,3.5,0.3,5,0.8c1.5,0.5,2.8,1.3,3.9,2.4c1.1,1.1,1.8,2.4,2.3,4.1l-6,2.4c-0.4-1.6-1-2.8-1.8-3.4c-0.8-0.6-1.9-0.9-3.2-0.9
			c-1.2,0-2.3,0.3-3.2,0.9c-0.9,0.6-1.6,1.5-2.1,2.7c-0.5,1.2-0.7,2.7-0.7,4.5c0,1.8,0.2,3.3,0.7,4.5c0.4,1.2,1.1,2.1,2,2.7
			c0.9,0.6,2,0.9,3.4,0.9c1.3,0,2.3-0.4,3.2-1.1c0.9-0.7,1.5-1.8,1.8-3.2L83.8,85z"/>
		<path class="st0" d="M111.4,66.3v15.5c0,3.7-1,6.5-3,8.3c-2,1.8-4.9,2.8-8.8,2.8c-3.8,0-6.8-0.9-8.7-2.8s-3-4.6-3-8.3V66.3h6.9V82
			c0,1.9,0.4,3.3,1.2,4.2c0.8,0.9,2,1.4,3.6,1.4c1.6,0,2.9-0.5,3.7-1.4c0.8-0.9,1.2-2.3,1.2-4.2V66.3H111.4z"/>
		<path class="st0" d="M127.7,65.9c2.4,0,4.6,0.4,6.5,1.1s3.5,1.9,4.9,3.3l-3.3,4.4c-1.1-1.2-2.4-2.1-3.7-2.7
			c-1.3-0.6-2.8-0.9-4.5-0.9c-1,0-1.8,0.1-2.4,0.3c-0.6,0.2-1,0.5-1.3,0.9c-0.3,0.4-0.4,0.8-0.4,1.3c0,0.6,0.3,1,0.8,1.4
			c0.5,0.4,1.4,0.7,2.5,1l4.4,1c2.6,0.6,4.5,1.5,5.8,2.7c1.2,1.2,1.8,2.7,1.8,4.6c0,1.9-0.5,3.4-1.4,4.7c-1,1.3-2.3,2.2-3.9,2.9
			s-3.6,1-5.7,1c-1.7,0-3.4-0.2-5-0.6s-3-0.9-4.3-1.6c-1.3-0.7-2.3-1.5-3.2-2.5l3.3-4.6c0.7,0.8,1.5,1.4,2.4,2s2,1.1,3.2,1.4
			c1.2,0.3,2.3,0.5,3.5,0.5c0.9,0,1.7-0.1,2.3-0.3c0.6-0.2,1.1-0.5,1.4-0.8c0.3-0.4,0.4-0.8,0.4-1.3c0-0.6-0.2-1-0.6-1.4
			c-0.4-0.4-1.2-0.7-2.3-1l-4.8-1.1c-1.5-0.3-2.8-0.8-4-1.4s-2.1-1.3-2.7-2.3c-0.7-1-1-2.2-1-3.6c0-1.6,0.4-3.1,1.3-4.4
			c0.9-1.3,2.2-2.3,3.9-3C123.3,66.3,125.3,65.9,127.7,65.9z"/>
		<path class="st0" d="M150.7,66.3v26.2h-6.8V66.3H150.7z"/>
		<path class="st0" d="M169.3,66.3c2.1,0,4,0.3,5.5,1c1.5,0.7,2.7,1.7,3.5,3s1.2,2.9,1.2,4.7c0,1.9-0.4,3.4-1.2,4.7
			c-0.8,1.3-1.9,2.3-3.5,3c-1.5,0.7-3.3,1-5.5,1h-5.2v8.7h-6.8V66.3H169.3z M168.2,78.7c1.4,0,2.5-0.3,3.2-0.9
			c0.7-0.6,1.1-1.5,1.1-2.7c0-1.2-0.4-2.1-1.1-2.7c-0.7-0.6-1.8-0.9-3.2-0.9h-4.1v7.2H168.2z"/>
	</g>
	<g>
		<path class="st1" d="M71.5,131.5c-2.3,0-4.4-0.5-6.2-1.5c-1.8-1-3.2-2.6-4.2-4.6c-1-2-1.5-4.5-1.5-7.3c0-2.8,0.5-5.3,1.6-7.3
			c1.1-2,2.6-3.6,4.5-4.6c2-1.1,4.3-1.6,7-1.6c3,0,5.4,0.5,7.2,1.6c1.8,1.1,3.2,2.8,4.2,5.1l-6.3,2.5c-0.3-1.4-1-2.3-1.8-2.9
			c-0.9-0.6-2-0.9-3.3-0.9s-2.4,0.3-3.3,0.9c-0.9,0.6-1.6,1.5-2.1,2.7c-0.5,1.2-0.7,2.7-0.7,4.5c0,1.9,0.2,3.4,0.7,4.6
			c0.5,1.2,1.2,2.2,2.2,2.8c1,0.6,2.2,0.9,3.6,0.9c0.8,0,1.5-0.1,2.1-0.3c0.6-0.2,1.2-0.5,1.7-0.8c0.5-0.4,0.8-0.8,1.1-1.3
			c0.3-0.5,0.4-1.2,0.4-1.9v-0.4h-6V117h11.8v14.1h-4.6l-0.5-6.2l1.1,1c-0.6,1.8-1.6,3.2-3,4.1C75.6,131.1,73.7,131.5,71.5,131.5z"
			/>
		<path class="st1" d="M96.9,125.9h13.1v5.3h-20v-26.2h6.8V125.9z"/>
		<path class="st1" d="M125.7,104.5c2.6,0,4.9,0.5,6.8,1.6c1.9,1.1,3.4,2.6,4.4,4.6c1,2,1.5,4.4,1.5,7.3c0,2.8-0.5,5.3-1.5,7.3
			c-1,2-2.5,3.6-4.4,4.6c-1.9,1.1-4.2,1.6-6.8,1.6c-2.6,0-4.9-0.5-6.9-1.6c-1.9-1.1-3.4-2.6-4.4-4.6c-1-2-1.5-4.4-1.5-7.3
			c0-2.8,0.5-5.3,1.5-7.3c1-2,2.5-3.6,4.4-4.6C120.8,105.1,123.1,104.5,125.7,104.5z M125.7,109.9c-1.3,0-2.3,0.3-3.2,0.9
			c-0.9,0.6-1.5,1.5-2,2.7c-0.5,1.2-0.7,2.7-0.7,4.5c0,1.8,0.2,3.3,0.7,4.5c0.4,1.2,1.1,2.1,2,2.7c0.9,0.6,1.9,0.9,3.2,0.9
			s2.3-0.3,3.2-0.9c0.9-0.6,1.5-1.5,2-2.7c0.5-1.2,0.7-2.7,0.7-4.5c0-1.8-0.2-3.3-0.7-4.5c-0.5-1.2-1.1-2.1-2-2.7
			C128.1,110.2,127,109.9,125.7,109.9z"/>
		<path class="st1" d="M144,131.1v-26.2h12.7c3.2,0,5.6,0.6,7.1,1.8c1.5,1.2,2.3,2.9,2.3,5.2c0,1.5-0.4,2.8-1.3,3.8
			c-0.9,1.1-2.2,1.8-4,2v0c2,0.3,3.5,1,4.5,2.1c1,1.1,1.5,2.5,1.5,4.1c0,2.2-0.8,4-2.4,5.2c-1.6,1.2-4,1.8-7.1,1.8H144z
			 M150.6,115.7h5c2.4,0,3.7-1,3.7-2.9c0-1.9-1.2-2.9-3.7-2.9h-5V115.7z M150.6,126.3h5.6c1.2,0,2.2-0.3,2.8-0.8
			c0.6-0.5,0.9-1.2,0.9-2.2c0-0.9-0.3-1.6-0.9-2.1c-0.6-0.5-1.5-0.7-2.8-0.7h-5.6V126.3z"/>
		<path class="st1" d="M169.1,131.1l9.2-26.2h8.2l9.2,26.2h-7l-5.1-16.8l-1.2-4.1h-0.1l-1.1,4.1l-5.2,16.9H169.1z M175.1,125.2v-4.6
			h14.6v4.6H175.1z"/>
		<path class="st1" d="M206.3,125.9h13.1v5.3h-20v-26.2h6.8V125.9z"/>
	</g>
	<g>
		<path class="st0" d="M70.9,143.2c2.4,0,4.6,0.4,6.5,1.1c1.9,0.8,3.5,1.9,4.9,3.3l-3.3,4.4c-1.1-1.2-2.4-2.1-3.7-2.7
			c-1.3-0.6-2.8-0.9-4.5-0.9c-1,0-1.8,0.1-2.4,0.3c-0.6,0.2-1,0.5-1.3,0.9c-0.3,0.4-0.4,0.8-0.4,1.3c0,0.6,0.3,1,0.8,1.4
			s1.4,0.7,2.5,1l4.4,1c2.6,0.6,4.5,1.5,5.8,2.7c1.2,1.2,1.8,2.7,1.8,4.6c0,1.9-0.5,3.4-1.4,4.7c-1,1.3-2.3,2.3-3.9,2.9
			c-1.7,0.6-3.6,1-5.7,1c-1.7,0-3.4-0.2-5-0.6s-3-0.9-4.3-1.6s-2.3-1.5-3.2-2.5l3.3-4.6c0.7,0.8,1.5,1.4,2.4,2s2,1.1,3.2,1.4
			c1.2,0.3,2.3,0.5,3.5,0.5c0.9,0,1.7-0.1,2.3-0.3c0.6-0.2,1.1-0.5,1.4-0.8c0.3-0.4,0.4-0.8,0.4-1.3c0-0.6-0.2-1-0.6-1.4
			c-0.4-0.4-1.2-0.7-2.3-1l-4.8-1.1c-1.5-0.3-2.8-0.8-4-1.4s-2.1-1.3-2.7-2.3c-0.7-1-1-2.2-1-3.6c0-1.6,0.4-3.1,1.3-4.4
			s2.2-2.3,3.9-3C66.5,143.5,68.5,143.2,70.9,143.2z"/>
		<path class="st0" d="M87,169.8v-26.2h20.4v5.3H93.8v5.3h10.8v5H93.8v5.4h14.1v5.3H87z"/>
		<path class="st0" d="M125.4,143.5c3.1,0,5.6,0.7,7.3,2.2c1.7,1.5,2.6,3.4,2.6,5.9c0,2.7-0.9,4.7-2.6,6.1c-1.7,1.4-4.1,2.1-7.3,2.1
			l-0.6,0.4h-5.2v9.6h-6.7v-26.2H125.4z M124.4,155.3c1.3,0,2.3-0.3,3-0.8c0.7-0.5,1-1.4,1-2.5c0-1.1-0.3-2-1-2.5
			c-0.7-0.5-1.7-0.8-3-0.8h-4.8v6.6H124.4z M128.4,156.8l8.4,13h-7.5l-6.7-11.5L128.4,156.8z"/>
		<path class="st0" d="M164.8,143.5l-9.3,26.2h-8l-9.3-26.2h7.2l4.8,15.8l1.4,5.2l1.4-5.1l4.9-15.9H164.8z"/>
		<path class="st0" d="M175.5,143.5v26.2h-6.8v-26.2H175.5z"/>
		<path class="st0" d="M205.3,162.2c-0.5,1.8-1.3,3.3-2.4,4.5c-1.1,1.2-2.4,2-4,2.6s-3.2,0.8-5.1,0.8c-2.6,0-4.9-0.5-6.9-1.6
			c-1.9-1.1-3.4-2.6-4.4-4.6c-1-2-1.5-4.4-1.5-7.3s0.5-5.3,1.5-7.3s2.5-3.6,4.4-4.6c1.9-1.1,4.2-1.6,6.8-1.6c1.8,0,3.5,0.3,5,0.8
			c1.5,0.5,2.8,1.3,3.9,2.4c1.1,1.1,1.8,2.4,2.3,4.1l-6,2.4c-0.4-1.6-1-2.8-1.8-3.4c-0.8-0.6-1.9-0.9-3.2-0.9
			c-1.2,0-2.3,0.3-3.2,0.9c-0.9,0.6-1.6,1.5-2.1,2.7c-0.5,1.2-0.7,2.7-0.7,4.5c0,1.8,0.2,3.3,0.7,4.5c0.4,1.2,1.1,2.1,2,2.7
			c0.9,0.6,2,0.9,3.4,0.9c1.3,0,2.3-0.4,3.2-1.1c0.9-0.7,1.5-1.8,1.8-3.2L205.3,162.2z"/>
		<path class="st0" d="M209.9,169.8v-26.2h20.4v5.3h-13.6v5.3h10.8v5h-10.8v5.4h14.1v5.3H209.9z"/>
		<path class="st0" d="M246,143.2c2.4,0,4.6,0.4,6.5,1.1c1.9,0.8,3.5,1.9,4.9,3.3l-3.3,4.4c-1.1-1.2-2.4-2.1-3.7-2.7
			s-2.8-0.9-4.5-0.9c-1,0-1.8,0.1-2.4,0.3c-0.6,0.2-1,0.5-1.3,0.9c-0.3,0.4-0.4,0.8-0.4,1.3c0,0.6,0.3,1,0.8,1.4s1.4,0.7,2.5,1
			l4.4,1c2.6,0.6,4.5,1.5,5.8,2.7c1.2,1.2,1.8,2.7,1.8,4.6c0,1.9-0.5,3.4-1.4,4.7c-1,1.3-2.3,2.3-3.9,2.9c-1.7,0.6-3.6,1-5.7,1
			c-1.7,0-3.4-0.2-5-0.6s-3-0.9-4.3-1.6s-2.3-1.5-3.2-2.5l3.3-4.6c0.7,0.8,1.5,1.4,2.4,2c1,0.6,2,1.1,3.2,1.4
			c1.2,0.3,2.3,0.5,3.5,0.5c0.9,0,1.7-0.1,2.3-0.3c0.6-0.2,1.1-0.5,1.4-0.8c0.3-0.4,0.4-0.8,0.4-1.3c0-0.6-0.2-1-0.6-1.4
			c-0.4-0.4-1.2-0.7-2.3-1l-4.8-1.1c-1.5-0.3-2.8-0.8-4-1.4s-2.1-1.3-2.7-2.3c-0.7-1-1-2.2-1-3.6c0-1.6,0.5-3.1,1.4-4.4
			c0.9-1.3,2.2-2.3,3.9-3C241.7,143.5,243.7,143.2,246,143.2z"/>
	</g>
	<g>
		<path class="st0" d="M59.4,198.5V188h7.4v1.2h-6.1v3.4h4.7v1.2h-4.7v3.5H67v1.2H59.4z"/>
		<path class="st0" d="M75.6,190.5l-3.1,4.2h-0.1l-2.7,3.7h-1.5l3.5-4.6h0.1l2.4-3.4H75.6z M69.9,190.5l2.4,3.3l0.1,0.1l3.3,4.5
			h-1.6l-2.5-3.4l-0.1-0.2l-3.1-4.3H69.9z"/>
		<path class="st0" d="M77.5,201.8v-11.3h1.1l0.1,1.9l-0.2-0.2c0.1-0.4,0.3-0.7,0.6-1c0.3-0.3,0.6-0.5,1-0.7
			c0.4-0.2,0.8-0.2,1.3-0.2c0.6,0,1.2,0.2,1.8,0.5s1,0.8,1.3,1.4c0.3,0.6,0.5,1.4,0.5,2.2c0,0.9-0.2,1.6-0.5,2.2s-0.8,1.1-1.3,1.4
			c-0.6,0.3-1.2,0.5-1.8,0.5c-0.7,0-1.2-0.2-1.7-0.5c-0.5-0.3-0.8-0.7-1.1-1.2l0.2-0.2v5.1H77.5z M81.2,197.5c0.8,0,1.4-0.3,1.8-0.8
			c0.4-0.5,0.7-1.3,0.7-2.2c0-0.9-0.2-1.6-0.6-2.2c-0.4-0.6-1-0.8-1.8-0.8c-0.5,0-1,0.1-1.3,0.4c-0.4,0.2-0.7,0.6-0.9,1
			c-0.2,0.5-0.3,1-0.3,1.6c0,0.6,0.1,1.1,0.3,1.6c0.2,0.5,0.5,0.8,0.9,1.1S80.7,197.5,81.2,197.5z"/>
		<path class="st0" d="M90.6,198.6c-0.8,0-1.4-0.2-2-0.5c-0.6-0.3-1-0.8-1.4-1.4s-0.5-1.4-0.5-2.2s0.2-1.6,0.5-2.2
			c0.3-0.6,0.8-1.1,1.4-1.4s1.2-0.5,2-0.5c0.7,0,1.4,0.2,1.9,0.5c0.5,0.3,0.9,0.7,1.2,1.3c0.3,0.5,0.4,1.2,0.4,1.8
			c0,0.2,0,0.3,0,0.5c0,0.1,0,0.3,0,0.4h-6.4v-1.1h5.9l-0.7,0.1c0-0.8-0.2-1.4-0.6-1.8c-0.4-0.4-1-0.6-1.6-0.6c-0.5,0-1,0.1-1.3,0.4
			c-0.4,0.2-0.7,0.6-0.9,1s-0.3,1-0.3,1.6c0,0.6,0.1,1.2,0.3,1.6s0.5,0.8,0.9,1c0.4,0.2,0.8,0.4,1.4,0.4c0.6,0,1.1-0.1,1.4-0.3
			c0.4-0.2,0.7-0.5,0.9-0.9l1,0.6c-0.2,0.4-0.5,0.7-0.8,0.9s-0.7,0.5-1.1,0.6C91.6,198.6,91.1,198.6,90.6,198.6z"/>
		<path class="st0" d="M96.3,198.5v-7.9h1l0.2,1.3c0.2-0.5,0.5-0.9,1-1.1c0.4-0.2,1-0.4,1.6-0.4c0.1,0,0.3,0,0.5,0
			c0.2,0,0.3,0.1,0.4,0.1l-0.2,1.2c-0.1,0-0.2-0.1-0.4-0.1s-0.3,0-0.6,0c-0.3,0-0.7,0.1-1,0.3s-0.6,0.5-0.8,0.9
			c-0.2,0.4-0.3,0.9-0.3,1.5v4.3H96.3z"/>
		<path class="st0" d="M103.2,189c-0.3,0-0.5-0.1-0.7-0.3s-0.3-0.4-0.3-0.7s0.1-0.5,0.3-0.7s0.4-0.3,0.7-0.3c0.3,0,0.5,0.1,0.7,0.3
			s0.3,0.4,0.3,0.7s-0.1,0.5-0.3,0.7S103.5,189,103.2,189z M103.9,190.5v7.9h-1.3v-7.9H103.9z"/>
		<path class="st0" d="M110,198.6c-0.8,0-1.4-0.2-2-0.5c-0.6-0.3-1-0.8-1.4-1.4s-0.5-1.4-0.5-2.2s0.2-1.6,0.5-2.2
			c0.3-0.6,0.8-1.1,1.4-1.4s1.2-0.5,2-0.5c0.7,0,1.4,0.2,1.9,0.5c0.5,0.3,0.9,0.7,1.2,1.3c0.3,0.5,0.4,1.2,0.4,1.8
			c0,0.2,0,0.3,0,0.5c0,0.1,0,0.3,0,0.4h-6.4v-1.1h5.9l-0.7,0.1c0-0.8-0.2-1.4-0.6-1.8c-0.4-0.4-1-0.6-1.6-0.6c-0.5,0-1,0.1-1.3,0.4
			c-0.4,0.2-0.7,0.6-0.9,1s-0.3,1-0.3,1.6c0,0.6,0.1,1.2,0.3,1.6s0.5,0.8,0.9,1c0.4,0.2,0.8,0.4,1.4,0.4c0.6,0,1.1-0.1,1.4-0.3
			c0.4-0.2,0.7-0.5,0.9-0.9l1,0.6c-0.2,0.4-0.5,0.7-0.8,0.9s-0.7,0.5-1.1,0.6C111,198.6,110.5,198.6,110,198.6z"/>
		<path class="st0" d="M115.7,198.5v-7.9h1.1l0.1,1.8l-0.2-0.2c0.2-0.4,0.4-0.8,0.7-1c0.3-0.3,0.6-0.4,1-0.6
			c0.4-0.1,0.8-0.2,1.2-0.2c0.6,0,1.1,0.1,1.6,0.3c0.5,0.2,0.8,0.5,1.1,1c0.3,0.4,0.4,1,0.4,1.7v5.1h-1.3v-4.6
			c0-0.9-0.2-1.5-0.6-1.8c-0.4-0.3-0.8-0.5-1.4-0.5c-0.4,0-0.8,0.1-1.1,0.3c-0.4,0.2-0.7,0.5-0.9,0.9c-0.2,0.4-0.4,0.9-0.4,1.6v4.2
			H115.7z"/>
		<path class="st0" d="M128.6,190.4c0.6,0,1,0.1,1.5,0.3s0.8,0.4,1.1,0.7s0.6,0.7,0.7,1.1l-1.2,0.6c-0.2-0.5-0.4-0.9-0.8-1.2
			c-0.3-0.3-0.8-0.4-1.3-0.4c-0.5,0-1,0.1-1.4,0.4c-0.4,0.2-0.7,0.6-0.9,1c-0.2,0.5-0.3,1-0.3,1.6c0,0.6,0.1,1.2,0.3,1.6
			c0.2,0.5,0.5,0.8,0.9,1c0.4,0.2,0.8,0.4,1.4,0.4c0.4,0,0.8-0.1,1.1-0.2s0.6-0.3,0.7-0.6s0.3-0.5,0.4-0.9l1.2,0.4
			c-0.2,0.5-0.4,0.9-0.7,1.3s-0.7,0.6-1.1,0.8c-0.4,0.2-0.9,0.3-1.5,0.3c-0.7,0-1.4-0.2-2-0.5c-0.6-0.3-1-0.8-1.4-1.4
			s-0.5-1.4-0.5-2.2s0.2-1.6,0.5-2.2c0.3-0.6,0.8-1.1,1.4-1.4S127.9,190.4,128.6,190.4z"/>
		<path class="st0" d="M137.4,198.6c-0.8,0-1.4-0.2-2-0.5c-0.6-0.3-1-0.8-1.4-1.4s-0.5-1.4-0.5-2.2s0.2-1.6,0.5-2.2
			c0.3-0.6,0.8-1.1,1.4-1.4c0.6-0.3,1.2-0.5,2-0.5c0.7,0,1.4,0.2,1.9,0.5c0.5,0.3,0.9,0.7,1.2,1.3c0.3,0.5,0.4,1.2,0.4,1.8
			c0,0.2,0,0.3,0,0.5s0,0.3,0,0.4h-6.4v-1.1h5.9l-0.7,0.1c0-0.8-0.2-1.4-0.6-1.8s-1-0.6-1.6-0.6c-0.5,0-1,0.1-1.3,0.4
			s-0.7,0.6-0.9,1s-0.3,1-0.3,1.6c0,0.6,0.1,1.2,0.3,1.6s0.5,0.8,0.9,1s0.8,0.4,1.4,0.4c0.6,0,1.1-0.1,1.4-0.3
			c0.4-0.2,0.7-0.5,0.9-0.9l1,0.6c-0.2,0.4-0.5,0.7-0.8,0.9s-0.7,0.5-1.1,0.6C138.4,198.6,137.9,198.6,137.4,198.6z"/>
	</g>
	<g>
		<path class="st0" d="M166.7,188c0.7,0,1.3,0.1,1.9,0.4c0.5,0.3,0.9,0.6,1.2,1.1c0.3,0.5,0.4,1,0.4,1.7s-0.1,1.2-0.4,1.7
			c-0.3,0.5-0.7,0.8-1.2,1.1c-0.5,0.3-1.1,0.4-1.9,0.4h-2.4v4.1H163V188H166.7z M166.6,193.2c0.8,0,1.4-0.2,1.8-0.5
			c0.4-0.3,0.6-0.8,0.6-1.5c0-0.7-0.2-1.2-0.6-1.5c-0.4-0.3-1-0.5-1.8-0.5h-2.2v4H166.6z"/>
		<path class="st0" d="M172.3,198.5v-7.9h1l0.2,1.3c0.2-0.5,0.5-0.9,1-1.1c0.4-0.2,1-0.4,1.6-0.4c0.1,0,0.3,0,0.5,0
			c0.2,0,0.3,0.1,0.4,0.1l-0.2,1.2c-0.1,0-0.2-0.1-0.4-0.1s-0.3,0-0.6,0c-0.3,0-0.7,0.1-1,0.3c-0.3,0.2-0.6,0.5-0.8,0.9
			c-0.2,0.4-0.3,0.9-0.3,1.5v4.3H172.3z"/>
		<path class="st0" d="M181.7,190.4c0.8,0,1.4,0.2,2,0.5s1,0.8,1.4,1.4c0.3,0.6,0.5,1.4,0.5,2.2s-0.2,1.6-0.5,2.2
			c-0.3,0.6-0.8,1.1-1.4,1.4c-0.6,0.3-1.2,0.5-2,0.5c-0.7,0-1.4-0.2-2-0.5c-0.6-0.3-1-0.8-1.4-1.4s-0.5-1.4-0.5-2.2s0.2-1.6,0.5-2.2
			c0.3-0.6,0.8-1.1,1.4-1.4S181,190.4,181.7,190.4z M181.7,191.5c-0.5,0-1,0.1-1.4,0.4s-0.7,0.6-0.9,1c-0.2,0.5-0.3,1-0.3,1.6
			c0,0.6,0.1,1.2,0.3,1.6c0.2,0.5,0.5,0.8,0.9,1c0.4,0.2,0.8,0.4,1.4,0.4s1-0.1,1.4-0.4c0.4-0.2,0.7-0.6,0.9-1
			c0.2-0.5,0.3-1,0.3-1.6c0-0.6-0.1-1.2-0.3-1.6c-0.2-0.5-0.5-0.8-0.9-1S182.2,191.5,181.7,191.5z"/>
		<path class="st0" d="M191.1,190.4c0.6,0,1,0.1,1.5,0.3s0.8,0.4,1.1,0.7c0.3,0.3,0.6,0.7,0.7,1.1l-1.2,0.6
			c-0.2-0.5-0.4-0.9-0.8-1.2c-0.3-0.3-0.8-0.4-1.3-0.4c-0.5,0-1,0.1-1.4,0.4s-0.7,0.6-0.9,1s-0.3,1-0.3,1.6c0,0.6,0.1,1.2,0.3,1.6
			s0.5,0.8,0.9,1s0.8,0.4,1.4,0.4c0.4,0,0.8-0.1,1.1-0.2s0.6-0.3,0.7-0.6c0.2-0.2,0.3-0.5,0.4-0.9l1.2,0.4c-0.2,0.5-0.4,0.9-0.7,1.3
			c-0.3,0.3-0.7,0.6-1.1,0.8s-0.9,0.3-1.5,0.3c-0.7,0-1.4-0.2-2-0.5c-0.6-0.3-1-0.8-1.4-1.4s-0.5-1.4-0.5-2.2s0.2-1.6,0.5-2.2
			c0.3-0.6,0.8-1.1,1.4-1.4S190.3,190.4,191.1,190.4z"/>
		<path class="st0" d="M199.8,198.6c-0.8,0-1.4-0.2-2-0.5c-0.6-0.3-1-0.8-1.4-1.4s-0.5-1.4-0.5-2.2s0.2-1.6,0.5-2.2
			c0.3-0.6,0.8-1.1,1.4-1.4c0.6-0.3,1.2-0.5,2-0.5c0.7,0,1.4,0.2,1.9,0.5c0.5,0.3,0.9,0.7,1.2,1.3c0.3,0.5,0.4,1.2,0.4,1.8
			c0,0.2,0,0.3,0,0.5s0,0.3,0,0.4h-6.4v-1.1h5.9l-0.7,0.1c0-0.8-0.2-1.4-0.6-1.8s-1-0.6-1.6-0.6c-0.5,0-1,0.1-1.3,0.4
			s-0.7,0.6-0.9,1s-0.3,1-0.3,1.6c0,0.6,0.1,1.2,0.3,1.6s0.5,0.8,0.9,1s0.8,0.4,1.4,0.4c0.6,0,1.1-0.1,1.4-0.3
			c0.4-0.2,0.7-0.5,0.9-0.9l1,0.6c-0.2,0.4-0.5,0.7-0.8,0.9s-0.7,0.5-1.1,0.6C200.8,198.6,200.3,198.6,199.8,198.6z"/>
		<path class="st0" d="M208.4,198.6c-0.8,0-1.5-0.2-2.1-0.5c-0.7-0.3-1.2-0.8-1.5-1.4l1.1-0.8c0.2,0.5,0.6,0.9,1,1.1
			c0.4,0.3,1,0.4,1.6,0.4c0.6,0,1-0.1,1.3-0.3c0.3-0.2,0.5-0.5,0.5-0.8c0-0.2-0.1-0.4-0.2-0.6c-0.1-0.2-0.4-0.3-0.8-0.4l-1.9-0.4
			c-0.8-0.2-1.3-0.4-1.7-0.8c-0.3-0.4-0.5-0.8-0.5-1.4c0-0.4,0.1-0.8,0.4-1.2c0.2-0.4,0.6-0.6,1.1-0.9c0.5-0.2,1-0.3,1.6-0.3
			c0.8,0,1.4,0.2,2,0.5c0.5,0.3,0.9,0.7,1.2,1.3l-1.1,0.7c-0.2-0.5-0.5-0.8-0.9-1c-0.4-0.2-0.8-0.3-1.3-0.3c-0.4,0-0.7,0.1-1,0.2
			c-0.3,0.1-0.5,0.3-0.6,0.4s-0.2,0.4-0.2,0.6c0,0.2,0.1,0.4,0.2,0.6c0.2,0.2,0.5,0.3,0.9,0.4l2,0.4c0.7,0.1,1.3,0.4,1.6,0.7
			c0.3,0.3,0.4,0.8,0.4,1.2c0,0.5-0.1,0.9-0.4,1.3c-0.3,0.4-0.6,0.7-1.1,0.9C209.5,198.5,209,198.6,208.4,198.6z"/>
		<path class="st0" d="M216.6,198.6c-0.8,0-1.5-0.2-2.1-0.5c-0.7-0.3-1.2-0.8-1.5-1.4l1.1-0.8c0.2,0.5,0.6,0.9,1,1.1
			c0.4,0.3,1,0.4,1.6,0.4c0.6,0,1-0.1,1.3-0.3c0.3-0.2,0.5-0.5,0.5-0.8c0-0.2-0.1-0.4-0.2-0.6c-0.1-0.2-0.4-0.3-0.8-0.4l-1.9-0.4
			c-0.8-0.2-1.3-0.4-1.7-0.8c-0.3-0.4-0.5-0.8-0.5-1.4c0-0.4,0.1-0.8,0.4-1.2c0.2-0.4,0.6-0.6,1.1-0.9c0.5-0.2,1-0.3,1.6-0.3
			c0.8,0,1.4,0.2,2,0.5c0.5,0.3,0.9,0.7,1.2,1.3l-1.1,0.7c-0.2-0.5-0.5-0.8-0.9-1c-0.4-0.2-0.8-0.3-1.3-0.3c-0.4,0-0.7,0.1-1,0.2
			c-0.3,0.1-0.5,0.3-0.6,0.4s-0.2,0.4-0.2,0.6c0,0.2,0.1,0.4,0.2,0.6c0.2,0.2,0.5,0.3,0.9,0.4l2,0.4c0.7,0.1,1.3,0.4,1.6,0.7
			c0.3,0.3,0.4,0.8,0.4,1.2c0,0.5-0.1,0.9-0.4,1.3c-0.3,0.4-0.6,0.7-1.1,0.9C217.8,198.5,217.2,198.6,216.6,198.6z"/>
	</g>
	<g>
		<path class="st0" d="M164.3,206.9v10.5H163v-10.5H164.3z"/>
		<path class="st0" d="M167.3,217.4v-7.9h1.1l0.1,1.8l-0.2-0.2c0.2-0.4,0.4-0.8,0.7-1c0.3-0.3,0.6-0.4,1-0.6
			c0.4-0.1,0.8-0.2,1.2-0.2c0.6,0,1.1,0.1,1.6,0.3s0.8,0.5,1.1,1c0.3,0.4,0.4,1,0.4,1.7v5.1H173v-4.6c0-0.9-0.2-1.5-0.6-1.8
			c-0.4-0.3-0.8-0.5-1.4-0.5c-0.4,0-0.8,0.1-1.1,0.3c-0.4,0.2-0.7,0.5-0.9,0.9c-0.2,0.4-0.4,0.9-0.4,1.6v4.2H167.3z"/>
		<path class="st0" d="M176.9,217.4v-7.9h1.1l0.1,1.8L178,211c0.2-0.4,0.4-0.8,0.7-1c0.3-0.3,0.6-0.4,1-0.6c0.4-0.1,0.8-0.2,1.2-0.2
			c0.6,0,1.1,0.1,1.6,0.3s0.8,0.5,1.1,1c0.3,0.4,0.4,1,0.4,1.7v5.1h-1.3v-4.6c0-0.9-0.2-1.5-0.6-1.8c-0.4-0.3-0.8-0.5-1.4-0.5
			c-0.4,0-0.8,0.1-1.1,0.3c-0.4,0.2-0.7,0.5-0.9,0.9c-0.2,0.4-0.4,0.9-0.4,1.6v4.2H176.9z"/>
		<path class="st0" d="M189.9,209.3c0.8,0,1.4,0.2,2,0.5s1,0.8,1.4,1.4c0.3,0.6,0.5,1.4,0.5,2.2s-0.2,1.6-0.5,2.2
			c-0.3,0.6-0.8,1.1-1.4,1.4c-0.6,0.3-1.2,0.5-2,0.5c-0.7,0-1.4-0.2-2-0.5c-0.6-0.3-1-0.8-1.4-1.4s-0.5-1.4-0.5-2.2s0.2-1.6,0.5-2.2
			c0.3-0.6,0.8-1.1,1.4-1.4S189.2,209.3,189.9,209.3z M189.9,210.4c-0.5,0-1,0.1-1.4,0.4s-0.7,0.6-0.9,1c-0.2,0.5-0.3,1-0.3,1.6
			c0,0.6,0.1,1.2,0.3,1.6c0.2,0.5,0.5,0.8,0.9,1c0.4,0.2,0.8,0.4,1.4,0.4s1-0.1,1.4-0.4c0.4-0.2,0.7-0.6,0.9-1
			c0.2-0.5,0.3-1,0.3-1.6c0-0.6-0.1-1.2-0.3-1.6c-0.2-0.5-0.5-0.8-0.9-1S190.4,210.4,189.9,210.4z"/>
		<path class="st0" d="M201.2,209.4h1.3l-3.3,7.9H198l-3.3-7.9h1.4l2.5,6.7L201.2,209.4z"/>
		<path class="st0" d="M208.5,212.3c0-0.6-0.2-1.1-0.5-1.4c-0.3-0.3-0.8-0.5-1.4-0.5c-0.6,0-1,0.1-1.4,0.4s-0.7,0.6-0.8,1.2l-1-0.6
			c0.2-0.6,0.6-1.1,1.2-1.4c0.6-0.4,1.3-0.5,2.1-0.5c0.6,0,1.1,0.1,1.6,0.3c0.5,0.2,0.8,0.5,1.1,0.9c0.3,0.4,0.4,0.9,0.4,1.5v3.8
			c0,0.4,0.2,0.6,0.6,0.6c0.2,0,0.4,0,0.6-0.1l-0.1,1c-0.2,0.1-0.5,0.2-0.8,0.2c-0.3,0-0.6-0.1-0.8-0.2c-0.2-0.1-0.4-0.3-0.6-0.5
			s-0.2-0.5-0.2-0.9v-0.2l0.3,0c-0.1,0.4-0.3,0.8-0.7,1c-0.3,0.3-0.7,0.5-1,0.6c-0.4,0.1-0.8,0.2-1.1,0.2c-0.5,0-0.9-0.1-1.3-0.2
			c-0.4-0.2-0.7-0.4-1-0.7s-0.4-0.7-0.4-1.2c0-0.6,0.2-1.1,0.6-1.5c0.4-0.4,1-0.6,1.7-0.8l3.1-0.6v1l-2.6,0.5
			c-0.5,0.1-0.9,0.3-1.2,0.4c-0.3,0.2-0.4,0.5-0.4,0.8c0,0.3,0.1,0.6,0.4,0.8s0.6,0.3,1.1,0.3c0.3,0,0.6,0,0.9-0.1
			c0.3-0.1,0.5-0.2,0.8-0.4c0.2-0.2,0.4-0.4,0.5-0.6s0.2-0.5,0.2-0.9V212.3z"/>
		<path class="st0" d="M217.2,209.4v1.1h-5.8v-1.1H217.2z M214.3,207.2v8c0,0.4,0.1,0.7,0.3,0.9s0.5,0.3,0.9,0.3
			c0.3,0,0.6-0.1,0.8-0.2c0.2-0.1,0.4-0.2,0.6-0.4l0.4,1.1c-0.2,0.2-0.5,0.4-0.9,0.5c-0.3,0.1-0.7,0.2-1.2,0.2
			c-0.4,0-0.8-0.1-1.1-0.2s-0.6-0.4-0.8-0.7c-0.2-0.3-0.3-0.7-0.3-1.2v-7.9L214.3,207.2z"/>
		<path class="st0" d="M219.5,207.9c-0.3,0-0.5-0.1-0.7-0.3c-0.2-0.2-0.3-0.4-0.3-0.7s0.1-0.5,0.3-0.7c0.2-0.2,0.4-0.3,0.7-0.3
			s0.5,0.1,0.7,0.3c0.2,0.2,0.3,0.4,0.3,0.7s-0.1,0.5-0.3,0.7C220,207.8,219.8,207.9,219.5,207.9z M220.2,209.4v7.9h-1.3v-7.9H220.2
			z"/>
		<path class="st0" d="M226.2,209.3c0.8,0,1.4,0.2,2,0.5s1,0.8,1.4,1.4c0.3,0.6,0.5,1.4,0.5,2.2s-0.2,1.6-0.5,2.2
			c-0.3,0.6-0.8,1.1-1.4,1.4c-0.6,0.3-1.2,0.5-2,0.5c-0.7,0-1.4-0.2-2-0.5c-0.6-0.3-1-0.8-1.4-1.4s-0.5-1.4-0.5-2.2s0.2-1.6,0.5-2.2
			c0.3-0.6,0.8-1.1,1.4-1.4S225.5,209.3,226.2,209.3z M226.2,210.4c-0.5,0-1,0.1-1.4,0.4s-0.7,0.6-0.9,1c-0.2,0.5-0.3,1-0.3,1.6
			c0,0.6,0.1,1.2,0.3,1.6c0.2,0.5,0.5,0.8,0.9,1c0.4,0.2,0.8,0.4,1.4,0.4s1-0.1,1.4-0.4c0.4-0.2,0.7-0.6,0.9-1
			c0.2-0.5,0.3-1,0.3-1.6c0-0.6-0.1-1.2-0.3-1.6c-0.2-0.5-0.5-0.8-0.9-1S226.8,210.4,226.2,210.4z"/>
		<path class="st0" d="M232.3,217.4v-7.9h1.1l0.1,1.8l-0.2-0.2c0.2-0.4,0.4-0.8,0.7-1c0.3-0.3,0.6-0.4,1-0.6
			c0.4-0.1,0.8-0.2,1.2-0.2c0.6,0,1.1,0.1,1.6,0.3s0.8,0.5,1.1,1c0.3,0.4,0.4,1,0.4,1.7v5.1H238v-4.6c0-0.9-0.2-1.5-0.6-1.8
			c-0.4-0.3-0.8-0.5-1.4-0.5c-0.4,0-0.8,0.1-1.1,0.3c-0.4,0.2-0.7,0.5-0.9,0.9c-0.2,0.4-0.4,0.9-0.4,1.6v4.2H232.3z"/>
	</g>
</g>
</svg>