<svg xmlns="http://www.w3.org/2000/svg" width="88" height="88" viewBox="0 0 88 88"><g transform="translate(-729 -330)"><g transform="translate(-10.147 -15.359)"><path d="M712.55,242.521c1.878,1.961,5.018.952,5.744-1.785a6.08,6.08,0,0,0-.1-4.274,3.54,3.54,0,0,0-.716-.926,3.782,3.782,0,0,0-6.278,1.685c-.047.18-.092.366-.133.556a5.075,5.075,0,0,0,1.479,4.744" transform="translate(86 151)" fill="#0c3b57"/><path d="M720.575,272.736s1.328-13.845.683-18.746c-.76-5.776-12.134-9.21-16.084-2.049-1.015,1.84-1.9,10.956-1.9,10.956l3.7,2.644.3,6.868Z" transform="translate(86 151)" fill="#0c3b57"/><path d="M670.261,254.417l-.844.648-1.005.343-1.062-.005-1.006-.342-.859-.626-.648-.842-.4-.988-.234-1.082-.108-1.1.082-1.1.358-1.043.723-.94.8-.586.917-.369.981-.124.981.127.918.369.791.594.607.781.37.917.135.564.122,1.044-.1,1.045-.326,1-.523.91Z" transform="translate(86 151)" fill="#f8cd0e"/><path d="M675.277,273.773l.049-1.034.01-1.032-.03-1.035-.058-1.033-.113-1.029-.157-1.024-.216-1.014-.28-1-.374-.969-.478-.918-.618-.828-.76-.749-.858-.635-.938-.508-.995-.388-1.034-.265-1.059-.139-1.067-.022-1.061.111-1.043.231-1,.373-.934.514-.836.659-.684.817-.547.878-.454.93-.383.962-.322.984-.264,1-.21,1.014-.172,1.021-.121,1.03-.079,1.031-.045,1.037.011,1.02,1.067.008h2.135l1.064-.006,1.065.007,1.071-.007,1.068,0,1.068,0h2.142l1.071,0h1.067l1.072.005,1.074,0,1.077,0Z" transform="translate(86 151)" fill="#f8cd0e"/><path d="M684.155,226.7l.114-.664.358-.9.635-.723.685-.662.8-.54.946-.2.943-.123.966-.066.916.31.909.33.764.6.934,1.069.32.9.108.94.122.948-.172.941-.208.927-.2.935-.4.869-.417.847-.626.719-.822.482-.9.316-.954,0-.908-.261-.829-.438-.775-.583-.745-.628-.573-.788-.542-.8-.415-.88-.122-.964-.1-.962Zm23.082-3.8-.217.959-.235.924-.333.9-.2.936-.164.939-.337.9-.235.922-.115.953-.306.906-.142.947-.258.919-.186.936-.265.921-.27.918-.1.954-.272.917-.221.928-.141.95-.294.916-.175.942-.177.944-.234.931-.171.946-.236.932-.255.928-.2.942-.188.943-.152.952-.273.926-.175.947-.166.949-.292.922-.133.956-.17.947-.229.934-.259.928-.147.949-.225.933-.137.95-.231.928-.161.941-.225.926-.2.935-.219.931-.066.961-.27.918-.2.93-.09.951-.276.919-.162.893-.965.016-.973-.058-.972-.019-.975.08L692,269.52l-.976,0-.976-.031-.978-.071-.977,0-.979-.049-.976.072-.98-.016-.979-.1-.984-.03-.976.028-.136-.917-.11-.93-.188-.916-.121-.925-.186-.92-.089-.936-.137-.932-.12-.94-.92-.38-.941-.308-.9-.412-.957-.284-.921-.384-.937-.352.141-.951.12-.948.137-.947.163-.939.045-.957.12-.949.186-.939.12-.951.172-.943.089-.958.247-.932.091-.959.263-.925.124-.955.319-.9.249-.931.377-.888.519-.811.53-.8.714-.646.712-.651.856-.444.84-.461.919-.285.9-.344.943-.188.966-.071.951-.194.964-.037.937-.222.919-.276.922-.271.869-.409.873-.4.793-.542.858-.444.742-.612.748-.6.716-.64.617-.74.628-.722.709-.657.5-.832.593-.752.561-.78.514-.811.508-.814.459-.843.461-.842.447-.853.457-.845.3-.917.416-.862.334-.893m.055.208.233-.912.262-.9.352-.876.213-.918.177-.931.347-.889.239-.91.114-.942.3-.9.136-.936.248-.909.173-.924.249-.908.251-.907.079-.947.244-.9.768-.549.775-.547.882-.356.85-.413.873-.367.906-.267.9-.289.928-.185.937-.129.932-.147.937-.125.939-.129.95.025.944-.041.949-.023.944.133.949,0,.947.061.933.146.929.2.945.11.922.207.946.143.921.257.331.783-.3.936.2.837,1.012.043,1.022-.066,1.013.165,1.018.109,1.03.007.971.173-.345.87-.3.9-.375.874-.339.885-.245.921-.391.862-.317.892-.352.884-.387.867-.319.893-.368.879-.254.921-.337.888-.414.855-.351.888-.3.907-.337.895-.352.87-.886-.041-.9-.1-.906-.035-.894-.133-.9-.087-.9-.107-.906-.11-.923-.046.4-1.034.264-1.056-.944-.129-.975-.1-.977-.111-.976-.063-.978-.056-.981-.058-.983.083-.981.037-.984,0-.98.1-.982.08-.965.2-.984.09-.943.294-.97.187-.9.395-.952.316m14.711-13.555-.875.22-.719.558-.7.605-.523.733-.455-.9-.425-.948-.81-.669-.948.035-.9.259-.555.757-.369.86-.035.723.057.725.066.895.41.8.328.838.425.794.525.733.419.8.529.705.8-.433.836-.409.789-.487.809-.46.8-.484.726-.59.619-.693.551-.715.42-.8.047-1.063-.319-1-.57-.9Z" transform="translate(86 151)" fill="#f16748"/></g><rect width="88" height="88" transform="translate(729 330)" fill="none"/></g></svg>