<svg xmlns="http://www.w3.org/2000/svg" width="88" height="88" viewBox="0 0 88 88"><g transform="translate(-853 -506)"><g transform="translate(-11.215 -18.922)"><path d="M822.636,400.089v7.354a.779.779,0,0,0,.779.779h6.925a.779.779,0,0,1,.78.779v7.653a.779.779,0,0,1-.78.779h-6.925a.779.779,0,0,0-.779.779v7.326a.779.779,0,0,1-.78.778h-7.849a.779.779,0,0,1-.779-.778v-7.326a.779.779,0,0,0-.78-.779H805.67a.779.779,0,0,1-.779-.779V409a.779.779,0,0,1,.779-.779h6.777a.779.779,0,0,0,.78-.779v-6.575a.779.779,0,0,1,.779-.779h8.629" transform="translate(89.684 155.079)" fill="#bbdb94"/><path d="M849.972,395.1a37.193,37.193,0,0,1-4.373-.719,42.584,42.584,0,0,1-4.349-.907c-1.43-.449-2.807-1.027-4.152-1.589-1.394-.583-2.714-1.271-4-1.933-1.356-.7-2.578-1.546-3.8-2.288-1.329-.808-2.619-1.545-3.761-2.346-1.325-.928-2.613-1.7-3.65-2.528-1.436-1.145-2.54-2.2-3.335-2.923-.5-.457-1.11-.133-1.11.544,0,2.409-.218,2.409-.219,4.819s.084,2.409.083,4.82-.114,2.414-.115,4.828,0,2.413-.007,4.827a.921.921,0,0,0,.876.84c1.067,0,1.067.055,2.135.055,1.444,0,1.444-.1,2.889-.1a.868.868,0,0,1,.888.765v2.889c0,1.842-.007,1.842-.007,3.686a.748.748,0,0,0,.677.834c2.018,0,2.018-.169,4.036-.169,1.446,0,1.446.125,2.89.125.43,0,.651.338.651.767,0,1.446,0,1.446,0,2.89,0,2.3.016,2.3.016,4.606s.086,2.3.086,4.605c0,1.446.123,1.446.123,2.89,0,.43-.45.675-.88.675-1.444,0-1.444.219-2.89.219-2.017,0-2.017-.2-4.036-.2a.836.836,0,0,0-.758.862c0,2.217-.163,2.217-.163,4.436,0,1.444.01,1.444.01,2.889,0,.43-.217.843-.647.843-1.444,0-1.444-.028-2.889-.028-1.079,0-1.079-.169-2.158-.169a.907.907,0,0,0-.78.912c0,2.075-.086,2.075-.088,4.15s.223,2.076.222,4.152-.215,2.076-.216,4.152.08,2.08.079,4.159.109,2.08.108,4.159c0,.541.415.942.923.76a30.742,30.742,0,0,0,3.9-1.811,169.032,169.032,0,0,0,7.161-4.762c1.031-.864,2-1.942,3.076-3.019.965-.961,2.059-1.907,3.041-3.054.893-1.042,1.591-2.321,2.481-3.528.82-1.11,1.671-2.258,2.476-3.517.747-1.167,1.637-2.31,2.361-3.611.716-1.286,1.165-2.667,1.766-3.93.634-1.332,1.334-2.585,1.852-3.882.548-1.371,1.057-2.713,1.488-4.035.46-1.411.756-2.818,1.1-4.159.368-1.448.873-2.81,1.123-4.16.274-1.487.368-2.931.524-4.277.177-1.533.175-2.973.234-4.29.073-1.617.211-3.055.173-4.29-.063-2.032-.116-3.523-.222-4.295a.912.912,0,0,0-.847-.638" transform="translate(92.123 151.019)" fill="#bdd6eb"/><path d="M816.91,434.024c-1.444,0-1.444.047-2.89.047a.793.793,0,0,1-.79-.785c0-1.444.161-1.444.161-2.889,0-2.219-.181-2.219-.181-4.436a.776.776,0,0,0-.747-.805c-1.945,0-1.945.145-3.89.145-1.444,0-1.444-.091-2.889-.091-.43,0-.633-.376-.633-.807,0-1.444,0-1.444,0-2.889,0-2.3-.2-2.3-.2-4.606s.15-2.3.15-4.606c0-1.444-.109-1.444-.109-2.889a.833.833,0,0,1,.79-.829c1.444,0,1.444.133,2.889.133,1.944,0,1.944-.219,3.89-.219.429,0,.7-.212.7-.642,0-1.843.042-1.843.042-3.686,0-1.444-.061-1.444-.061-2.889a.9.9,0,0,1,.88-.814c1.446,0,1.446-.031,2.89-.031,1.181,0,1.181-.071,2.36-.071.43,0,.729-.212.729-.642,0-1.943.17-1.943.171-3.887s-.038-1.943-.037-3.887-.153-1.944-.152-3.888.2-1.947.2-3.894-.125-1.948-.123-3.894a.691.691,0,0,0-1.2-.5c-.805.7-2,1.651-3.463,2.776-1.05.808-2.245,1.712-3.581,2.626-1.151.786-2.42,1.573-3.754,2.373-1.224.735-2.506,1.5-3.861,2.195-1.287.663-2.678,1.2-4.065,1.794-1.344.572-2.763,1-4.183,1.468-1.4.458-2.8.894-4.259,1.218a38.525,38.525,0,0,1-4.367.76.753.753,0,0,0-.647.7c-.1.77-.144,2.239-.186,4.274-.025,1.235-.212,2.677-.127,4.295.069,1.315.176,2.752.361,4.284.162,1.341.336,2.771.612,4.254.25,1.347.658,2.728,1.024,4.175.339,1.339.88,2.671,1.332,4.081.423,1.323.648,2.762,1.185,4.137.506,1.3,1.208,2.56,1.827,3.9.586,1.268,1.278,2.521,1.973,3.815s1.248,2.648,1.987,3.82c.791,1.256,1.749,2.337,2.569,3.448.886,1.2,1.754,2.337,2.653,3.378.982,1.134,2.044,2.094,3.018,3.051,1.081,1.061,2.075,2.087,3.115,2.946,1.189.983,2.354,1.812,3.444,2.557a41.009,41.009,0,0,0,3.685,2.189c1.67.911,2.928,1.669,3.789,2a.852.852,0,0,0,1.106-.791c0-2.063-.125-2.063-.123-4.125s.165-2.063.167-4.124-.05-2.063-.049-4.126-.161-2.066-.159-4.133.234-2.066.235-4.133a.808.808,0,0,0-.87-.711c-1.17-.03-1.167-.109-2.337-.109" transform="translate(86 151)" fill="#d1e3f3"/></g><rect width="88" height="88" transform="translate(853 506)" fill="none"/></g></svg>