<svg xmlns="http://www.w3.org/2000/svg" width="88" height="88" viewBox="0 0 88 88"><g transform="translate(-634 -526)"><g transform="translate(-3.558 1.419)"><path d="M617.336,414.062l-2.311-.023-2.31.009-2.313.013-2.311.076-2.312-.147-2.312.041-2.308.066-2.312-.11-2.313.087-2.314,0-2.315-.049L589.587,414l-2.338.039.078,2.322-.048,2.305-.073,2.306,0,2.307.035,2.31.021,2.315,1.8,2.146,1.724,2.194v2.358l-.054,2.365v2.366l.025,2.367.066,2.37-.092,2.385,1.6.006,2.238-.057,2.215-.369,2.1-.8,2-1.009,1.815-1.32,1.585-1.588,1.4-1.75,1.176-1.9,1.125-1.932.853-2.07.878-2.062.6-2.157.727-2.119.591-2.161-.021-.04,2.157-.57,1.847-1.312,1.226-1.931.6-2.2.342-2.253Z" transform="translate(89.35 155.336)" fill="#efd1a8"/><path d="M586.226,428.407l.068-2.331-.078-2.328-.026-2.328.087-2.331-.086-2.281-2.28.064-2.328.155-2.329.135-2.331.113-2.335.118-2.326.174-.018,1.836.128,1.855.3,2.118.525,2.073.731,2.373.6,2.4.881,2.311.733,1.971,1.073,1.809,1.176,1.733,1.277,1.658,1.4,1.56,1.587,1.377,2.111,1.321,2.276,1.01,2.363.578.067-2.122.017-2.146-.013-2.143-.046-2.148.013-2.151.057-2.169-1.653-2.124Z" transform="translate(87.23 155.736)" fill="#0c3b57"/><path d="M627.9,407.223a.451.451,0,0,0-.555-.44q-1.894.2-3.791.368c-1.264.108-2.537.107-3.8.212-1.368.09-2.73.289-4.1.369s-2.746,0-4.115.07-2.729.428-4.1.472-2.753-.432-4.124-.4-2.738.1-4.109.115-2.739.015-4.109.024c-1.371-.015-2.743.219-4.113.2s-2.742.019-4.113-.01-2.737-.226-4.107-.272-2.748.112-4.117.046c-1.265-.059-2.523-.261-3.787-.335s-2.532-.085-3.8-.171-2.511-.41-3.772-.513c0,.025-.011.072-.013.1-.973-.059-1.944-.084-2.917-.147-.3-.019-.788.309-.792.611-.041,2.6.051,2.6.01,5.193,0,.314.384.462.7.434,1.307-.121,2.627-.15,3.945-.252s2.623-.186,3.94-.272,2.635.047,3.954-.022,2.61-.492,3.929-.545,2.641.269,3.961.232,2.627-.041,3.947-.063,2.625-.324,3.945-.331,2.629.235,3.95.241,2.63-.082,3.952-.063,2.636-.242,3.956-.21,2.619.444,3.939.489,2.629.023,3.948.079,2.642-.143,3.962-.075,2.632.087,3.951.166,2.61.441,3.929.529,2.631.115,3.948.215c.308.023.384-.224.379-.534-.058-2.747.129-2.752.088-5.5" transform="translate(86 154.314)" fill="#f8cd0e"/><path d="M606.415,388.9c-.29-.119-.561.176-.653.475-.307.992-.621,1.98-.865,2.99-.316,1.339-.517,2.7-.735,4.063s-.717,2.693-.827,4.069.1,2.853.111,4.234a1.222,1.222,0,0,1-1.773.15c-.136-1.431-.041-3.016-.057-4.453s.131-2.859.228-4.294.089-2.87.292-4.3c.194-1.3.6-2.556.888-3.848s.524-2.567.934-3.827a.554.554,0,0,0-.559-.679c-1.955,0-1.955,0-3.909,0s-1.956-.095-3.912-.095-1.958.221-3.917.221-1.958-.075-3.917-.075a.385.385,0,0,0-.4.257c-.245.53-.754.961-.96,1.518-.368.992-.7,2.033-.975,3.078-.272,1.028-.29,2.13-.492,3.185-.269,1.429-.456,2.877-.626,4.332s-.137,2.908-.215,4.368-.211,3-.2,4.457c-.563.554-1.046.482-1.654-.019-.142-1.5-.477-2.983-.531-4.49s.338-3.014.38-4.525.04-3,.185-4.51c.042-.41.013-.819.063-1.228a40.98,40.98,0,0,0-9.193,7.142,28.94,28.94,0,0,0-2.168,3.255,28.4,28.4,0,0,0-1.723,3.491,51.355,51.355,0,0,0-2.327,7.429c-.045.315.353.622.671.627,1.779.03,1.782-.19,3.56-.16s1.781.025,3.562.054,1.78.062,3.561.088c1.366.017,2.729.146,4.094.163s2.728.212,4.092.226,2.732-.191,4.1-.186,2.73.351,4.1.34c1.364.013,2.73-.061,4.094-.061s2.73-.14,4.1-.152,2.729-.014,4.094-.03,2.73-.008,4.1-.025c2.028-.034,2.023-.281,4.052-.319s2.031-.049,4.062-.087,2.035.142,4.066.105a.532.532,0,0,0,.541-.585,41.778,41.778,0,0,0-2.452-8.044,28.4,28.4,0,0,0-1.992-3.721,21.665,21.665,0,0,0-9.25-8.45,28.3,28.3,0,0,0-3.624-2.167" transform="translate(86.472 151)" fill="#f8cd0e"/></g><rect width="88" height="88" transform="translate(634 526)" fill="none"/></g></svg>