<svg xmlns="http://www.w3.org/2000/svg" width="88" height="88" viewBox="0 0 88 88"><g transform="translate(-536 -334)"><g transform="translate(21.228 -5.174)"><path d="M490.3,225.992l-.1-1.076-.269-1.018-.316-1-.371-.989-.52-.92-.5-.929-.568-.89-.612-.86-.682-.807-.761-.733-.793-.7-.851-.625-.862-.615-.949-.47-.974-.409-.979-.389-1-.341-1.021-.269-1.049-.141-1.05-.117-1.051-.12-1.06-.024-1.063.02.013,1.068-.018,1.058.009,1.054-.035,1.055.043,1.056-.044,1.057.04,1.058-.045,1.058-.025,1.058.065,1.059,0,1.058-.085,1.063.051,1.06-.033,1.061-.018,1.061.054,1.063-.018,1.063-.035,1.062.015,1.06,0,1.061-.05,1.058.043,1.057.012,1.032.877.4.909.361.92.4-.016,1.04-.052,1.014,0,1.014.007,1.017.056,1.016.008,1.018-.011,1.012,0,1.019.018,1.02-.079,1.022.041,1.022.132-.024.978-.087.966-.181.944-.285.957-.223.931-.325.892-.425.879-.444.861-.481.786-.6.728-.7.654-.772.616-.809.528-.872.482-.9.452-.914.424-.928.373-.949.324-.968.339-.962.263-.987.165-1.008.233-.975.556.074,1.1-.175,1-.466.871-.679.687-.872.4-1.037.127-1.1-.081-1.051-.373-.99-.643-.835-.8-.675-.911-.526Z" transform="translate(82.853 149.578)" fill="#cd9760"/><path d="M485.061,228.544l-.061,1.1-.355,1.045-.615.917-.874.75-1.048.482-1.141.168-1.142-.167-1.048-.48-.868-.757-.62-.912-.362-1.044-.056-1.1h.925l.925,0,.253.861.518.728.675.458.8.144.8-.15.669-.461.525-.721.255-.855.924.006Z" transform="translate(82.544 148.369)" fill="#573010"/><path d="M461.578,222.847l-.008,1-.07.983-.013.985-.039.989-.006.988,0,.988-.022.984.045,1.057.048,1.057.059,1.055.02,1.059.1,1.052.131,1.05.116,1.051.079.988.189.972.247.958.273.952.392.911.458.877.5.919.6.858.588.867.738.745.681.8.813.659.83.632.871.573.887.561,1.2.386,1.2.414-.014-1.019.01-1.01-.065-1.014v-1.012l-.007-1.014-.024-1.009.031-1.015-.011-1.017-.049-1.019,0-1-.893-.513-.929-.49-.973-.435v-1.071l.065-1.055-.026-1.056.027-1.058v-1.056l-.013-1.051-.038-1.053.018-1.057.025-1.056-.016-1.055,0-1.059-.025-1.057-.006-1.058.067-1.06-.063-1.058.063-1.059.011-1.063-.057-1.052-1,.339-1.011.381-1.011.378-1,.414-1.008.407-1.009.4-.976.482Z" transform="translate(83.713 149.044)" fill="#0c3b57"/><path d="M437.342,224.031a5.963,5.963,0,0,1,.96.087,6.428,6.428,0,0,1,.935.236,6.11,6.11,0,0,1,.892.359,6.2,6.2,0,0,1,.821.5,6.3,6.3,0,0,1,.728.631,5.832,5.832,0,0,1,.627.729,6.117,6.117,0,0,1,.506.818,6.52,6.52,0,0,1,.6,1.824,5.813,5.813,0,0,1-.012,1.922,6,6,0,0,1-.2.946,5.923,5.923,0,0,1-.372.893,6.4,6.4,0,0,1-.514.818,6.6,6.6,0,0,1-.642.72,5.71,5.71,0,0,1-.716.645,5.922,5.922,0,0,1-.833.486,6.213,6.213,0,0,1-.889.371,5.953,5.953,0,0,1-.935.233,6.35,6.35,0,0,1-.962.062,6.625,6.625,0,0,1-.963-.057,5.884,5.884,0,0,1-1.837-.581,5.694,5.694,0,0,1-1.548-1.148,6.02,6.02,0,0,1-.636-.727,6.135,6.135,0,0,1-.512-.821,6.058,6.058,0,0,1-.345-.9,5.948,5.948,0,0,1-.236-.935,6.344,6.344,0,0,1-.091-.962,6.092,6.092,0,0,1,.1-.961,6.776,6.776,0,0,1,.6-1.827,5.963,5.963,0,0,1,.493-.828,6.187,6.187,0,0,1,.617-.744,6.34,6.34,0,0,1,.745-.615,6.082,6.082,0,0,1,.816-.518,6.011,6.011,0,0,1,.894-.368,8.317,8.317,0,0,1,1.9-.288" transform="translate(86 148.709)" fill="#bcd5ee"/><path d="M501.064,195.4a6.379,6.379,0,0,0-.964.06,6.153,6.153,0,0,0-.942.222,5.933,5.933,0,0,0-.88.4,6.294,6.294,0,0,0-.82.5,6.439,6.439,0,0,0-.753.6,6.03,6.03,0,0,0-.619.742,5.919,5.919,0,0,0-.487.832,6.558,6.558,0,0,0-.392.882,5.834,5.834,0,0,0-.295,1.9,6.721,6.721,0,0,0,.09.961,5.585,5.585,0,0,0,.193.946,5.744,5.744,0,0,0,.38.889,6.624,6.624,0,0,0,.514.819,6.32,6.32,0,0,0,.635.726,5.849,5.849,0,0,0,.729.63,6.1,6.1,0,0,0,.819.51,6,6,0,0,0,.886.385,6.32,6.32,0,0,0,.941.226,6.166,6.166,0,0,0,.965.059,5.915,5.915,0,0,0,.963-.071,6.456,6.456,0,0,0,1.828-.6,5.119,5.119,0,0,0,1.571-1.114,6.706,6.706,0,0,0,.61-.75,6.348,6.348,0,0,0,.519-.816,5.969,5.969,0,0,0,.359-.9,6.065,6.065,0,0,0,.208-.941,6.307,6.307,0,0,0,.088-.96,6.238,6.238,0,0,0-.067-.963,5.94,5.94,0,0,0-.242-.934,6.278,6.278,0,0,0-.338-.9,9.131,9.131,0,0,0-1.141-1.556,6.252,6.252,0,0,0-.742-.618,5.837,5.837,0,0,0-.824-.5,6.276,6.276,0,0,0-.891-.369,6.118,6.118,0,0,0-.941-.211,5.973,5.973,0,0,0-.96-.088" transform="translate(81.18 150.874)" fill="#bcd5ee"/><path d="M471.405,193.755a4.681,4.681,0,0,1,.881.084,3.988,3.988,0,0,1,1.632.666,4.716,4.716,0,0,1,.677.572,4.434,4.434,0,0,1,.561.685,4.549,4.549,0,0,1,.421.779,4.774,4.774,0,0,1,.26.849,4.356,4.356,0,0,1,.079.884,4.534,4.534,0,0,1-.087.882,5.6,5.6,0,0,1-.267.845,5.92,5.92,0,0,1-.361.81,6.461,6.461,0,0,1-.485.748,7.06,7.06,0,0,1-.745.49,5.581,5.581,0,0,1-.807.369,5.083,5.083,0,0,1-.85.257,4.92,4.92,0,0,1-.884.078,4.469,4.469,0,0,1-3.776-1.985,4.183,4.183,0,0,1-.664-1.636,4.545,4.545,0,0,1-.078-.882,4.447,4.447,0,0,1,.069-.88,4.552,4.552,0,0,1,.265-.842,4.769,4.769,0,0,1,.414-.78,4.4,4.4,0,0,1,.544-.7,4.334,4.334,0,0,1,.7-.544,4.739,4.739,0,0,1,.786-.4,4.611,4.611,0,0,1,.838-.275,4.379,4.379,0,0,1,.88-.084" transform="translate(83.297 151)" fill="#bcd5ee"/><path d="M445.575,251.259a4.332,4.332,0,0,1,1.928.464,4.3,4.3,0,0,1,.819.569,4.2,4.2,0,0,1,.691.719,4.1,4.1,0,0,1,.47.88,4.329,4.329,0,0,1,.263.961,4.271,4.271,0,0,1-.143,1.974,5.046,5.046,0,0,1-.4.911,6.508,6.508,0,0,1-.538.841,6.4,6.4,0,0,1-.84.538,5.055,5.055,0,0,1-.911.4,4.5,4.5,0,0,1-.982.176,4.372,4.372,0,0,1-.994-.04,4.08,4.08,0,0,1-1.829-.744,4.324,4.324,0,0,1-.728-.678,4.3,4.3,0,0,1-.916-1.751,4.25,4.25,0,0,1,.03-2.085,4.154,4.154,0,0,1,.417-1.022,4.25,4.25,0,0,1,1.549-1.551,4.122,4.122,0,0,1,1.024-.408,4.343,4.343,0,0,1,1.093-.14" transform="translate(85.231 146.65)" fill="#bcd5ee"/><path d="M448.708,205.264a3.72,3.72,0,0,1,.885.124,3.24,3.24,0,0,1,1.559.833,3.719,3.719,0,0,1,.582.678,3.942,3.942,0,0,1,.592,1.777,3.75,3.75,0,0,1-.071.943,3.583,3.583,0,0,1-.316.889,3.542,3.542,0,0,1-.524.784,3.629,3.629,0,0,1-.723.606,3.607,3.607,0,0,1-1.976.61,3.686,3.686,0,0,1-.889-.107,3.594,3.594,0,0,1-.828-.338,3.529,3.529,0,0,1-.732-.51,3.7,3.7,0,0,1-.567-.691,3.585,3.585,0,0,1-.421-.844,3.63,3.63,0,0,1-.181-.927,3.746,3.746,0,0,1,.078-.942,3.554,3.554,0,0,1,.83-1.678,3.739,3.739,0,0,1,.719-.616,3.647,3.647,0,0,1,.953-.429,3.6,3.6,0,0,1,1.032-.165" transform="translate(84.948 150.129)" fill="#bcd5ee"/><path d="M474.782,261.766a6.927,6.927,0,0,1,.914.07,7.146,7.146,0,0,1,.894.2,6.368,6.368,0,0,1,.862.3,7.911,7.911,0,0,1,.814.414,7.675,7.675,0,0,1,.779.48,6.76,6.76,0,0,1,.679.613,7.491,7.491,0,0,1,.611.681,6.9,6.9,0,0,1,.5.767,7.29,7.29,0,0,1,.434.808,6.969,6.969,0,0,1,.293.87,6.341,6.341,0,0,1,.147.9,8.04,8.04,0,0,1,.049.913,7.574,7.574,0,0,1-.064.91,6.278,6.278,0,0,1-.16.9,6.923,6.923,0,0,1-.286.869,6.821,6.821,0,0,1-.42.813,6.387,6.387,0,0,1-.507.76,5.559,5.559,0,0,1-1.3,1.281,6.561,6.561,0,0,1-.754.512,6.313,6.313,0,0,1-.806.434,7.688,7.688,0,0,1-.877.263,7.518,7.518,0,0,1-.9.175,6.726,6.726,0,0,1-.91.056,7.431,7.431,0,0,1-.912-.049,6.655,6.655,0,0,1-.894-.182,6.741,6.741,0,0,1-.866-.288,7.308,7.308,0,0,1-.833-.383,7.029,7.029,0,0,1-.755-.518,7.343,7.343,0,0,1-.675-.617,7.228,7.228,0,0,1-.624-.669,6.835,6.835,0,0,1-.507-.764,6.983,6.983,0,0,1-.4-.825,6.912,6.912,0,0,1-.306-.862,6.716,6.716,0,0,1-.147-.9,4.849,4.849,0,0,1-.006-1.823,6.229,6.229,0,0,1,.178-.895,6.332,6.332,0,0,1,.295-.863,7.664,7.664,0,0,1,.408-.818,7.116,7.116,0,0,1,.5-.76,6.965,6.965,0,0,1,.607-.681,7.208,7.208,0,0,1,.673-.617,6.738,6.738,0,0,1,.75-.527,6.859,6.859,0,0,1,.826-.4,9.1,9.1,0,0,1,1.77-.441,6.855,6.855,0,0,1,.91-.086" transform="translate(83.232 145.856)" fill="#bcd5ee"/><path d="M505.789,250.948a5.948,5.948,0,0,1,.965.044,6.509,6.509,0,0,1,.937.239,5.309,5.309,0,0,1,1.711.879,6.892,6.892,0,0,1,.73.631,5.719,5.719,0,0,1,.637.725,5.941,5.941,0,0,1,1.109,2.653,6.268,6.268,0,0,1,.073.965,5.869,5.869,0,0,1-.1.96,6.441,6.441,0,0,1-.213.941,6.056,6.056,0,0,1-.886,1.705,6.588,6.588,0,0,1-.62.739,5.936,5.936,0,0,1-.727.633,6.277,6.277,0,0,1-.816.517,6.063,6.063,0,0,1-.9.358,5.765,5.765,0,0,1-.935.242,6.8,6.8,0,0,1-.966.061,6.266,6.266,0,0,1-.965-.067,6,6,0,0,1-.937-.236,6.289,6.289,0,0,1-.89-.375,5.973,5.973,0,0,1-.828-.495,6.092,6.092,0,0,1-.723-.64,6.319,6.319,0,0,1-.627-.733,5.964,5.964,0,0,1-.508-.819,6.362,6.362,0,0,1-.381-.888,6.241,6.241,0,0,1-.2-.944,5.972,5.972,0,0,1-.085-.96,6.329,6.329,0,0,1,.082-.961,6,6,0,0,1,.216-.939,4.918,4.918,0,0,1,.882-1.706,5.386,5.386,0,0,1,2.179-1.86,5.971,5.971,0,0,1,.884-.385,6.446,6.446,0,0,1,.938-.235,5.813,5.813,0,0,1,.963-.082" transform="translate(80.822 146.676)" fill="#bcd5ee"/><path d="M515.429,223.482a4.981,4.981,0,0,1,.968.086,4.878,4.878,0,0,1,.934.277,4.8,4.8,0,0,1,.864.45,5.236,5.236,0,0,1,.729.643,5.122,5.122,0,0,1,.628.741,4.833,4.833,0,0,1,.476.849,4.736,4.736,0,0,1,.268.936,5.145,5.145,0,0,1,.075.969,5.081,5.081,0,0,1-.068.97,4.8,4.8,0,0,1-.29.929,5.084,5.084,0,0,1-.464.854,5.492,5.492,0,0,1-1.357,1.38,5.168,5.168,0,0,1-.861.455,4.912,4.912,0,0,1-.933.278,5,5,0,0,1-.969.1,5.145,5.145,0,0,1-.968-.1,4.829,4.829,0,0,1-.936-.263,4.878,4.878,0,0,1-.858-.462,5.143,5.143,0,0,1-1.364-1.377,4.814,4.814,0,0,1-.446-.862,4.98,4.98,0,0,1-.294-.926,5.646,5.646,0,0,1,0-1.937,5.713,5.713,0,0,1,.746-1.787,4.784,4.784,0,0,1,.606-.761,4.9,4.9,0,0,1,.76-.611,5.005,5.005,0,0,1,.859-.454,5.523,5.523,0,0,1,1.9-.387" transform="translate(80.003 148.752)" fill="#bcd5ee"/><path d="M477.269,200.312a7.549,7.549,0,0,0,.184-1.913,8.536,8.536,0,0,0-.082-1.663,8,8,0,0,0-.292-.931,2.229,2.229,0,0,1,.36.068,5.661,5.661,0,0,0,.866.194c.982.146.975.184,1.958.33s.981.17,1.964.316,1,.059,1.981.206c.495.073.728.2.976.236s.5-.034.992.039a3.981,3.981,0,0,0,.935.042,1.271,1.271,0,0,1,.483.06,10.243,10.243,0,0,0-.65,1.856,9.893,9.893,0,0,0-.282,2.411c0,.01-.033.021-.033.031-.169-.021-.287-.066-.438-.1-.183-.039-.4-.039-.753-.092-.871-.13-.874-.11-1.744-.24-.442-.066-.649-.177-.872-.206s-.432-.034-.861-.1c-.866-.129-.862-.162-1.73-.292s-.865-.14-1.733-.27a3.1,3.1,0,0,0-.5-.011,3.565,3.565,0,0,0-.36.032.756.756,0,0,1-.369-.007m-15.264,2.463a8.317,8.317,0,0,1-.944-1.9,8.442,8.442,0,0,1-.275-2.394c-.126.064-.289.123-.412.2-.181.105-.379.261-.727.441-.912.471-.911.474-1.824.946s-.931.437-1.843.908c-.333.172-.544.275-.715.381a4.213,4.213,0,0,1-1.151.644,4.663,4.663,0,0,1-.771.121.985.985,0,0,0-.5.238,7.314,7.314,0,0,1,2.462,3.9c.084-.034.121-.1.227-.2a2.877,2.877,0,0,1,.7-.52c.761-.393.776-.363,1.534-.756s.769-.377,1.531-.771.74-.434,1.5-.827a3.3,3.3,0,0,1,.812-.3,1.076,1.076,0,0,0,.4-.1m.328,55.891a3.277,3.277,0,0,1-.813-.272c-.4-.221-.56-.406-.758-.52s-.41-.19-.805-.408-.612-.294-.812-.4-.407-.212-.809-.434-.581-.366-.779-.479-.38-.243-.777-.462c-.8-.438-.841-.361-1.64-.8s-.752-.524-1.552-.963a6.226,6.226,0,0,1-.762-.41c-.113-.1-.131-.189-.248-.246a7.775,7.775,0,0,1-.45,1.264,7.445,7.445,0,0,1-.935,1.61,7.293,7.293,0,0,1-.882.956,1.318,1.318,0,0,0,.285.108,4.248,4.248,0,0,1,.753.341c.781.429.8.389,1.584.818s.792.412,1.574.843.742.5,1.526.936.794.411,1.578.843c.394.217.574.357.77.469s.382.229.771.444c1.084.6,1.1.574,2.18,1.171.107.06.224.091.324.146a10.738,10.738,0,0,1,.077-1.221,11.132,11.132,0,0,1,.448-1.752,11.018,11.018,0,0,1,.634-1.318,1.449,1.449,0,0,0-.482-.266m-22.656-12.524a1.444,1.444,0,0,0,.09.347,6.98,6.98,0,0,1,1.433-1.146,7.331,7.331,0,0,1,1.411-.761,7.437,7.437,0,0,1,1.083-.36,1.835,1.835,0,0,0-.23-.552,7.156,7.156,0,0,1-.324-.846c-.337-.967-.314-.974-.652-1.941-.165-.48-.336-.691-.421-.93s-.081-.519-.25-1.007a7.005,7.005,0,0,1-.315-.9,1.255,1.255,0,0,0-.129-.571,9.991,9.991,0,0,1-1.57.441,10.238,10.238,0,0,1-1.427.2,8.514,8.514,0,0,1-1.427-.011,2.373,2.373,0,0,0,.172.4,6.936,6.936,0,0,1,.335.837c.339.973.384.959.724,1.932s.36.968.7,1.943.263,1,.6,1.978a3.939,3.939,0,0,1,.2.953m52.293,13.536c.286-.1.478-.221.656-.269a2.14,2.14,0,0,0,.709-.246,9.926,9.926,0,0,1-.8-1.062,10.045,10.045,0,0,1-.833-1.607,9.545,9.545,0,0,1-.4-1.291,1.157,1.157,0,0,0-.355.182,4.378,4.378,0,0,1-.741.4c-.826.369-.79.45-1.616.818s-.866.279-1.694.649-.789.461-1.618.831-.837.351-1.665.721a4.078,4.078,0,0,1-.805.251,1.265,1.265,0,0,0-.458.17,11.264,11.264,0,0,1,.494,1.212,10.7,10.7,0,0,1,.367,1.657,11.265,11.265,0,0,1,.119,1.416c.153-.068.278-.161.419-.23.186-.091.4-.218.755-.378.922-.41.957-.334,1.879-.743s.915-.431,1.84-.842.938-.381,1.863-.792c.344-.153.558-.253.734-.344a6.632,6.632,0,0,1,1.149-.5m14.978-24.93a8.662,8.662,0,0,1-1.73-.6,9.121,9.121,0,0,1-1.067-.746,2.07,2.07,0,0,0-.086.4,3.652,3.652,0,0,1-.118.858c-.259.88-.255.881-.515,1.761-.128.441-.226.65-.286.87s-.145.436-.273.875c-.259.882-.175.907-.434,1.789s-.354.853-.614,1.735c-.1.332-.064.568-.118.745-.048.157-.127.241-.177.417a9.55,9.55,0,0,1,1.288.154,9.967,9.967,0,0,1,1.7.454,10.073,10.073,0,0,1,1.163.507,1.672,1.672,0,0,0,.141-.547,5.888,5.888,0,0,1,.2-.91c.29-1,.246-1.012.535-2.011s.271-1.007.56-2.008.371-.978.662-1.979a5.192,5.192,0,0,1,.332-.894,1.937,1.937,0,0,0,.21-.6,8.911,8.911,0,0,1-1.373-.259m-3.807-25.054a1.085,1.085,0,0,0-.186-.333,19.273,19.273,0,0,1-2.738,1.534,10,10,0,0,1-1.247.422,1.309,1.309,0,0,0,.215.256,4.33,4.33,0,0,1,.446.715c.213.4.3.6.4.8s.28.347.486.73.227.622.335.813a8.836,8.836,0,0,1,.518.737c.42.78.4.789.824,1.57.212.4.3.605.4.805s.2.387.412.775a4.314,4.314,0,0,1,.33.76,1.432,1.432,0,0,0,.123.373,11.742,11.742,0,0,1,2.713-1.643,8.56,8.56,0,0,1,1.247-.371,1.054,1.054,0,0,0-.152-.275,3.75,3.75,0,0,1-.471-.663c-.419-.777-.39-.793-.81-1.571s-.411-.784-.832-1.563-.444-.768-.866-1.549-.434-.774-.854-1.555a3.551,3.551,0,0,1-.289-.774m-61.564,9.165a10.052,10.052,0,0,1,1.63.785,10.829,10.829,0,0,1,1.02.846,2.3,2.3,0,0,0,.254-.627,4.969,4.969,0,0,1,.3-.939c.459-1,.453-1,.911-2a4.86,4.86,0,0,1,.529-.843,2.066,2.066,0,0,0,.309-.6,10.368,10.368,0,0,1-3.926-2.108c-.024.068.025.1,0,.2a3.973,3.973,0,0,1-.275.757c-.357.767-.35.77-.708,1.537s-.343.774-.7,1.542a3.289,3.289,0,0,1-.446.674,1.274,1.274,0,0,0-.191.32,9.984,9.984,0,0,1,1.285.456" transform="translate(85.563 150.844)" fill="#bcd5ee"/></g><rect width="88" height="88" transform="translate(536 334)" fill="none"/></g></svg>