<svg xmlns="http://www.w3.org/2000/svg" width="88" height="88" viewBox="0 0 88 88"><g transform="translate(-187 -158)"><rect width="88" height="88" transform="translate(187 158)" fill="none"/><g transform="translate(-3.815 -0.614)"><path d="M174.458,81.418l-1.653.767-1.565-.778-.462-1.759-.009-1.846.054-1.843.036-1.839-.035-1.845-.247-1.832-.364-1.812-.509-1.777-.465-1.792-.75-1.7.126-.119.546-1.76.538-1.761.367-1.8.306-1.814.228-1.826.15-1.839.161-1.84-.015-1.845-.16-1.836-.391-1.792.236-.167,1.644.7,1.64.7,1.618.778,1.629.756-.014.127,1.392,1.509.936,1.827.81,1.881.568,1.971.277,2.035.178,2.007.058,2.016-.152,2.012L181,65.3l-.3,2-.462,2.03-.576,2-.636,1.982-.886,1.884-.92,1.861-.789,1.534-1.039,1.377Z" transform="translate(90.675 153.106)" fill="#bbdb94"/><path d="M110.586,34.719l-.278,1.761,1.263,1.223,1.821-.137,1.7-.724,1.755-.576,1.726-.655,1.771-.51,1.793-.449,1.829-.278,1.845-.156,1.851.037,1.848.014.146-.024,1.375-1.222,1.534-1.019,1.532-1.022,1.609-.9,1.673-.771,1.667-.792,1.738-.616,1.746-.578,1.751-.565,1.816-.246.129-.315-1.292-1.237-1.222-1.3-1.251-1.286-1.31-1.228-.005-.078-1.909-.751-2.026-.291-2.044-.184-2.035.256-2.021.331-1.949.507-1.9.655-1.88.725-1.832.844-1.761.983-1.764,1.1-1.7,1.2-1.608,1.315L115.129,29.1l-1.436,1.5-1.078,1.343-1.146,1.29Z" transform="translate(86 151.088)" fill="#bbdb94"/><path d="M138.269,49.74l-.132,2.087-.115,2.09-.116,2.09.043.159,1.391,1.057,1.4,1.04,1.423,1.016,1.43,1,1.482.927h.159l1.93-.809,1.925-.81,1.926-.806,1.67-.695,1.67-.694.1-.153.12-1.813.07-1.815.156-2.081.1-2.085.172-2.081L155,47.212l-1.379-1.073-1.38-1.075-1.433-1-1.452-.973-1.479-.932-.175-.015-1.927.806-1.923.808-1.923.8-1.657.739-1.67.7-.147.126-.062,1.807Z" transform="translate(88.218 152.879)" fill="#8ac647"/><path d="M140.779,60.06l-1.352-.918-1.289-1-1.272-1.026-.149-.056-1.735.5-1.733.515-1.743.488-1.74.487-1.733.528-1.76.445-1.727.554-.115.159.242,1.926.427,1.892.454,1.887.658,1.824.771,1.78.836,1.752.973,1.673,1.021,1.63.147.051,1.9.529,1.924.4,1.941.322,1.964.169,1.971.017,1.97-.109,1.958-.232,1.951-.315.133-.206-.142-1.828-.11-1.833-.115-1.834-.1-1.833-.059-1.84-.156-1.837-.056-1.843-.109-.133-1.379-.85-1.346-.9Z" transform="translate(87.135 154.078)" fill="#8ac647"/><path d="M136.384,49.9l.158-2.145.112-2.146-.08-.148-1.645-1.277-1.584-1.346-1.652-1.273-1.629-1.3-1.618-1.318-.272.027-.838,1.736-.723,1.786-.622,1.821-.52,1.851-.451,1.869-.392,1.885-.258,1.909-.149,1.918-.073,1.923.017,1.921.057,1.92.232.185,1.9-.729,1.919-.682,1.907-.708,1.9-.728,1.932-.661,1.923-.684.1-.177.159-1.807.1-1.809Z" transform="translate(87.112 152.622)" fill="#8ac647"/><path d="M141.572,42.948l1.772-.751,1.76-.79,1.8-.731.085-.183-.062-2.045-.082-2.047-.091-2.044-.1-2.047-.11-2.052-.1-2.052-.207-.165-1.782.493-1.743.615-1.722.665-1.659.811-1.646.842-1.57.974-1.538,1.019-1.525,1.04-1.471,1.114-1.462,1.125-1.111,1.1,1.609,1.017L132.2,39.9l1.57,1.061L135.362,42l1.569,1.078,1.614,1.008.153.038,1.439-.586Z" transform="translate(87.503 151.746)" fill="#8ac647"/><path d="M148.775,76.97l-1.758.389-1.784.244-1.786.226-1.8.09-1.8.1-1.8.018-.17.2.537,1.772.839,1.651,1.207,1.4,1.543,1,1.805.309.125-.085.992-1.417,1-1.409,1.02-1.4.993-1.422.983-1.429Z" transform="translate(88.216 155.678)" fill="#bbdb94"/><path d="M115.543,64.619l.862,1.614,1.475,1.1,1.72.672,1.831.264,1.849-.1.118-.206-.575-1.707-.495-1.731-.481-1.734-.407-1.752-.323-1.77-.274-1.779-.266-.076-1,1.408-.989,1.417-1,1.415-1.029,1.4-1,1.415Z" transform="translate(86.421 154.107)" fill="#bbdb94"/><path d="M170.29,18.89l.03-.022-.051.032,0-.013-.011.051-1.78-.11-1.8-.071-1.776.259-1.753.389-1.776.3-1.7.6L158.1,21.349l-.964,1.6-.379,1.831.153,1.878-.291,1.845-.238.084-1.77-.239-1.777-.129-1.773-.173-1.778.066-1.784.055-.2.294.246,1.848.291,1.846.224,1.855.163,1.859.066,1.874.338,1.847.124,1.871.065.191,1.648.939,1.546,1.1,1.609,1.01,1.416,1.268,1.494,1.162.2.068,1.721-.485,1.711-.508,1.753-.357,1.766-.309,1.7-.466.5,1.825-1.686.615-1.7.694-1.717.66-1.717.668-1.7.723-.171.1-.009,1.753-.232,1.737-.048,1.748-.024,1.974-.268,2.015,1.63,1.019,1.492,1.182,1.553,1.092,1.567,1.081,1.533,1.132,1.584,1.048.753-1.633.608-1.854.608-1.855.511-1.883.516-1.887.194-1.948.3-1.931.219-1.946-.119-1.954-.03-1.958-.3-1.932-.315-1.934-.609-1.863-.57-1.871-.735-1.815-1-1.826-1.241-1.67-1.366-1.569L161.969,31.4l.7-.905,1.651.907,1.454,1.248,1.517,1.153.185.053,1.693-.594,1.677-.677L172,31.17l.486-1.767-.019-1.813-.31-1.783L172.031,24l-.476-1.748L171,20.535Z" transform="translate(88.973 151)" fill="#8ac647"/><path d="M154.693,58.874l-1.619.7-1.629.657-1.662.734-1.7.655-1.673.744-.121.166L146.26,64.3l.027,1.774-.006,1.776-.086,1.773.049,1.778-.039,1.78-.032,1.779.208.164,1.841-.528,1.813-.622,1.789-.686,1.759-.764,1.729-.83,1.643-.986,1.636-1,1.559-1.115,1.533-1.152,1.433-1.279,1.329-1.348-1.615-.986-1.6-1.032-1.649-.945-1.614-1.011L156.3,59.9Z" transform="translate(88.882 154.224)" fill="#8ac647"/></g></g></svg>