<svg xmlns="http://www.w3.org/2000/svg" width="88" height="88" viewBox="0 0 88 88"><g transform="translate(-855 -158)"><g transform="translate(-1.275 5.705)"><path d="M785.908,18.787a2.62,2.62,0,1,0-2.62-2.62,2.62,2.62,0,0,0,2.62,2.62" transform="translate(86 151)" fill="#f8cd0e"/><path d="M781.429,30.243a3.2,3.2,0,1,0-4.486.575,3.2,3.2,0,0,0,4.486-.575" transform="translate(86 151)" fill="#f8cd0e"/><path d="M809.674,68.688a2.34,2.34,0,1,0,2.341,2.341,2.34,2.34,0,0,0-2.341-2.341" transform="translate(86 151)" fill="#f8cd0e"/><path d="M820.127,76.1a3.228,3.228,0,1,0,3.227,3.227,3.228,3.228,0,0,0-3.227-3.227" transform="translate(86 151)" fill="#f8cd0e"/><path d="M811.935,47.72c-.822,1.392-1.376,2.315-2.258,3.614-.929,1.373-1.909,2.72-2.917,4l-.379.481-1.624-1.339.322-.452a74.814,74.814,0,0,0,7.974-14.456l.3-.7a15.113,15.113,0,0,0,.937-2.5,2.066,2.066,0,0,0-1.353-.782,1.457,1.457,0,0,0-.954.141c-.221.124-.328.336-.5.7-.051.11-.1.22-.164.333q-.966,1.839-2,3.649a143.491,143.491,0,0,1-9.092,13.868l-.359.48L798.2,53.483l.314-.466a141.949,141.949,0,0,0,8.25-14.04c1.218-2.4,2.328-4.782,3.3-7.093q.383-.911.743-1.824c.037-.082.065-.147.088-.195a3.167,3.167,0,0,0-.393-.22c-.152-.08-.3-.156-.432-.241a1.744,1.744,0,0,0-.924-.279c-1.045.006-1.646.94-2.386,2.262l-.178.317c-1.107,1.926-2.215,3.847-3.353,5.753-.282.472-.559.949-.836,1.432a40.312,40.312,0,0,1-2.663,4.2c-.311.413-.594.856-.87,1.291l-.085.133-4.251,6.279-1.751-1.147,3.878-6.528c.825-1.471,1.771-2.906,2.686-4.293l.72-1.087a6.071,6.071,0,0,0,.675-1.164l2.893-7.1-.1.009a5.679,5.679,0,0,0-1.365.226,4.09,4.09,0,0,0-2.135,1.183c-.071.107-.133.22-.2.33a4.378,4.378,0,0,1-.4.633l-3.661,4.553-9.9,13.936-.811-.748.1-.455a23.3,23.3,0,0,0,1.943-6.8,3.966,3.966,0,0,0-1.438-4.412,4.6,4.6,0,0,0-2.155-.94c-.116-.017-.212-.034-.285-.042,0,.065,0,.138,0,.2,0,.093,0,.181-.008.263-.02.316-.012.627,0,.94a10.13,10.13,0,0,1-.017,1.232,15.561,15.561,0,0,1-.432,2.392,26.763,26.763,0,0,1-1.6,4.339c-.271.6-.553,1.2-.836,1.79-.519,1.1-1.056,2.232-1.508,3.373-.144.361-.265.737-.387,1.11-.155.471-.311.946-.5,1.4a7.383,7.383,0,0,0-.364,1.31,9.8,9.8,0,0,1-.319,1.237c-.17.492-.331.986-.486,1.486-.316,1.034-.585,2.048-.794,3.014a28.253,28.253,0,0,0-.686,6.149c0,.432.017.861.042,1.293a19.784,19.784,0,0,0,1.859,7.4,10.744,10.744,0,0,0,1.036,1.845c.111.147.224.155.726.087l.291-.036a21.415,21.415,0,0,0,4.457-.952c4.8-1.545,9.166-4.5,13.018-7.112,1.656-1.124,3.277-2.232,4.867-3.429a39.05,39.05,0,0,0,5.968-5.361,33.122,33.122,0,0,0,5.386-9c.469-1.09.614-1.773,1.045-2.914Z" transform="translate(86 151)" fill="#cd9760"/><path d="M814.63,47.617l3.019,4.055L828.56,64.645l-.94.584-.413-.212a22.686,22.686,0,0,0-6.087-3.589,3.959,3.959,0,0,0-4.632.279,4.58,4.58,0,0,0-1.449,1.845l-.116.268c.063.02.13.039.19.054.09.022.178.048.257.073.3.1.615.172.923.243a9.712,9.712,0,0,1,1.172.322,15.327,15.327,0,0,1,2.206,1.022,26.439,26.439,0,0,1,3.8,2.644c.509.412,1.012.83,1.514,1.251.932.783,1.9,1.591,2.893,2.316.316.235.649.447.982.659.418.268.834.533,1.223.833a7.086,7.086,0,0,0,1.181.683,10.126,10.126,0,0,1,1.116.622c.432.285.87.567,1.313.841.921.568,1.836,1.082,2.717,1.528a28.353,28.353,0,0,0,5.779,2.212c.418.1.839.2,1.263.282a19.574,19.574,0,0,0,7.632.063,10.612,10.612,0,0,0,2.047-.54c.167-.07.2-.164.269-.678l.039-.294a21.72,21.72,0,0,0,.2-4.553c-.291-5.044-2.056-10.007-3.615-14.385-.6-1.7-1.308-3.672-2.093-5.578a38.82,38.82,0,0,0-3.689-7.123,33.239,33.239,0,0,0-7.352-7.477c-.511-.4-1.054-.764-1.579-1.151q-1.554.351-3.164.579c.023.023.049.044.071.066,1.141,1.144,2.245,2.322,3.282,3.5,1.082,1.229,2.138,2.519,3.135,3.833l.367.483-1.7,1.237-.359-.427a72.152,72.152,0,0,0-8.327-8.378c-.1,0-.2.015-.3.017a21.675,21.675,0,0,0-3.183,1.14,142.651,142.651,0,0,1,10.835,11.972l.376.469-1.65,1.3-.373-.421A141.3,141.3,0,0,0,822.8,41.549c-.23-.2-.463-.393-.694-.594-1.516.6-2.949,1.156-3.879,1.44.737.731,1.483,1.457,2.211,2.2.387.4.786.785,1.187,1.18a40.826,40.826,0,0,1,3.386,3.621c.325.416.689.805,1.045,1.19l.1.11,5,5.68-1.551,1.406-5.341-5.4c-1.232-1.187-2.4-2.48-3.525-3.731l-.845-.941a6.052,6.052,0,0,0-.937-.924L812.816,42.2c-.005.036-.014.07-.019.1a5.827,5.827,0,0,0-.119,1.379,4.978,4.978,0,0,0,.427,2.073" transform="translate(86 151)" fill="#573010"/><path d="M792.025,30.231a1.725,1.725,0,0,0,.5.825c.78.695,1.853.406,3.285-.085l.771-.254c.6-.195,1.2-.381,1.8-.575.022-.026.044-.045.065-.071,1.36-1.652,4.205-1.994,6.312-2.365,1.7-.3,3.551-1.012,4.943-.935.251-.064.5-.118.753-.186l7.44-1.848.531,2.026-.543.169c-3.575,1.113-5.254,1.636-6.069,1.885.633,2.385.07,3.316,1.439,4.452l10.757-2.405.127,1.093-.39.274a23.089,23.089,0,0,0-5.991,3.748,4.712,4.712,0,0,0-1.9,2.646,4.71,4.71,0,0,0,.009,1.593,4.6,4.6,0,0,0,.971,2.139c.074.093.136.169.184.226.048-.046.1-.1.138-.147.062-.068.122-.133.178-.19.232-.223.435-.466.641-.706a10.409,10.409,0,0,1,.828-.9,15.3,15.3,0,0,1,1.923-1.489,26.7,26.7,0,0,1,4.1-2.152c.584-.257,1.175-.5,1.762-.748,1.138-.475,2.316-.966,3.435-1.52.353-.175.7-.373,1.042-.57.426-.246.853-.492,1.3-.7a7.461,7.461,0,0,0,1.147-.729,9.889,9.889,0,0,1,1.068-.709q.683-.376,1.353-.779c.909-.545,1.788-1.119,2.607-1.706a28.518,28.518,0,0,0,4.626-4.11q.429-.483.834-.991a19.749,19.749,0,0,0,3.573-6.745,10.8,10.8,0,0,0,.466-2.065c.014-.181-.054-.257-.481-.548l-.245-.172a21.6,21.6,0,0,0-3.946-2.274c-4.6-2.059-9.824-2.785-14.436-3.423-2.006-.277-3.969-.537-5.912-.709a38.85,38.85,0,0,0-8.024-.011,33.271,33.271,0,0,0-10.021,3.084c-1.438.664-2.873,1.375-4.268,2.121-.7.37-1.393.743-2.071,1.136a1.348,1.348,0,0,0-.195.127c.048.07.181.341.289.559l.07.147c.1.212.218.423.342.632l-.391.5.349-.437c-.009-.02.189-.057.282-.077l.511-.081c.144-.026.291-.051.435-.068a6.05,6.05,0,0,0,1.339-.393c.24-.09.475-.178.706-.251,1.545-.489,3.1-.927,4.618-1.3,1.6-.393,3.229-.735,4.847-1.017l.6-.1.308,2.082-.54.121a74.744,74.744,0,0,0-15.6,5.409l-.7.317a15.174,15.174,0,0,0-2.367,1.228,2.055,2.055,0,0,0,.483,1.489,1.167,1.167,0,0,0,1.646.347c.111-.045.221-.093.337-.135q1.949-.724,3.931-1.373a143.814,143.814,0,0,1,16.032-4.225l.588-.116.4,2.062-.545.135a141.973,141.973,0,0,0-15.527,4.918c-2.465.946-4.889,1.977-7.2,3.064q-.891.42-1.771.859c-.082.034-.147.062-.2.085a4.121,4.121,0,0,0,.141.418,4.6,4.6,0,0,1,.164.477" transform="translate(86 151)" fill="#efd1a8"/><path d="M794.344,35.075h0Z" transform="translate(86 151)" fill="#231f20"/><path d="M845.994,32.683a2.581,2.581,0,1,0,2.581-2.58,2.58,2.58,0,0,0-2.581,2.58" transform="translate(86 151)" fill="#f8cd0e"/><path d="M799.132,76.895a2.03,2.03,0,1,0,2.03,2.03,2.03,2.03,0,0,0-2.03-2.03" transform="translate(86 151)" fill="#f8cd0e"/></g><rect width="88" height="88" transform="translate(855 158)" fill="none"/></g></svg>