<svg xmlns="http://www.w3.org/2000/svg" width="88" height="88" viewBox="0 0 88 88"><g transform="translate(-89 -334)"><g transform="translate(8.261 -14.368)"><path d="M22.928,256.829a7.62,7.62,0,0,1-3.1-5.043,6.571,6.571,0,0,1,2.007-5.724,7.548,7.548,0,0,1,6.42-1.54,9.169,9.169,0,0,1,3.322,1.42,8.938,8.938,0,0,1,1.144.973l2.775-2.812a13.676,13.676,0,0,0-6.226-3.731,13.269,13.269,0,0,0-5.338-.36,11.94,11.94,0,0,0-5.174,2.037,12.547,12.547,0,0,0-3.766,4.281,13.483,13.483,0,0,0-1.495,5.563,15.583,15.583,0,0,0,3.816,10.626Z" transform="translate(84.007 148.453)" fill="#bcd5ee"/><path d="M49,243.283c.174.066.354.127.532.19l5.629-6.543a14.037,14.037,0,0,1-3.89-.534c-3.54-.927-7.275-2.826-11.264-4.625a41.47,41.47,0,0,0-6.378-2.4,28.333,28.333,0,0,0-6.842-1.047,23.583,23.583,0,0,0-6.944.746,19.4,19.4,0,0,0-6.391,3.017l2.161,3.055a14.878,14.878,0,0,1,5.17-2.12,18.881,18.881,0,0,1,5.7-.2,23.628,23.628,0,0,1,5.621,1.367,24.939,24.939,0,0,1,2.665,1.156c.873.447,1.749.942,2.633,1.461,3.533,2.1,7.069,4.705,11.6,6.48" transform="translate(84.011 150.165)" fill="#bcd5ee"/><path d="M44.892,222.84c.712.393,1.558.834,2.37,1.18a23.513,23.513,0,0,0,2.485.957,17.523,17.523,0,0,0,4.975.913,10.932,10.932,0,0,0,4.527-.766,9.127,9.127,0,0,0,1.985-1.042,14.612,14.612,0,0,0,1.826-1.42l3.946,4.181a15.259,15.259,0,0,1-5.932,3.552,13.813,13.813,0,0,1-3.443.632,14.926,14.926,0,0,1-3.4-.145,20.041,20.041,0,0,1-6.127-2.055,22.564,22.564,0,0,1-5.114-3.616Z" transform="translate(79.643 151)" fill="#bcd5ee"/><path d="M85.35,260.813c-.332-.36-.335-.358-.667-.718s-.355-.337-.687-.7-.317-.375-.648-.735-.323-.368-.654-.729-.341-.351-.673-.712-.346-.347-.678-.708-.33-.364-.662-.725-.308-.385-.64-.746-.343-.349-.675-.71-.323-.37-.655-.73-.331-.363-.665-.724-.359-.335-.691-.7-.323-.371-.655-.731-.325-.37-.657-.731-.342-.352-.675-.713-.337-.354-.669-.715-.334-.356-.665-.716-.3-.39-.633-.751-.345-.35-.678-.712-.343-.351-.676-.712-.33-.364-.662-.725-.337-.359-.67-.722-.331-.365-.664-.726-.331-.363-.664-.724-.346-.348-.678-.709-.317-.379-.65-.742-.329-.369-.664-.733l-.67-.729-.67-.729a.712.712,0,0,0-1.046,0c-.31.366-.294.381-.6.752s-.3.378-.6.75-.31.367-.616.739-.3.377-.6.746-.314.36-.619.73-.313.362-.618.733-.305.372-.612.744-.311.366-.616.737-.3.372-.61.743-.3.376-.608.748-.294.383-.6.754-.3.38-.6.752-.316.361-.621.732-.308.371-.614.743-.311.371-.618.743-.288.392-.6.766-.331.354-.639.729a.625.625,0,0,0-.018.759c.293.4.288.4.581.806s.285.406.577.805l.585.8c.293.4.308.389.6.791s.281.409.574.81.308.389.6.79.288.4.58.8.285.407.579.809.308.391.6.793.3.4.592.8.283.413.578.816a.356.356,0,0,0,.294.139c.488,0,.489.026.977.023s.489-.007.978-.01.488-.032.977-.035.488.007.976,0,.489,0,.977,0,.488-.037.977-.041.489,0,.978,0,.489.031.977.028.489-.031.977-.033.49.028.98.025.488-.037.977-.041.489.023.979.02.487,0,.975,0,.489-.032.979-.035.488-.014.977-.018.489-.006.977-.009.49.018.98.014.49-.009.979-.013l.98-.006c.49,0,.491.013.981.009s.49.009.98.005.491-.032.982-.036.492.021.984.018.492-.027.983-.031a.687.687,0,0,0,.643-.439.766.766,0,0,0-.122-.808" transform="translate(77.944 148.491)" fill="#8ac647"/><path d="M53.078,264.054a.436.436,0,0,0,.283-.741c-.324-.346-.314-.356-.637-.7s-.327-.341-.65-.686-.331-.337-.654-.683-.3-.37-.625-.716-.329-.34-.653-.686-.314-.354-.637-.7-.326-.342-.648-.687-.327-.344-.651-.69-.345-.327-.67-.674-.316-.359-.642-.706-.309-.366-.641-.707-.338-.318-.668-.644-.338-.316-.667-.643-.313-.343-.642-.669-.339-.314-.667-.639-.324-.334-.654-.66-.328-.331-.659-.658-.341-.318-.673-.646-.322-.338-.654-.666a.679.679,0,0,0-.977.025c-.34.36-.337.362-.677.723s-.343.357-.682.717-.332.368-.672.729-.357.343-.7.7-.318.381-.656.74-.342.355-.68.714-.342.356-.681.716-.357.344-.7.706-.335.366-.674.726-.327.373-.666.734-.338.364-.679.726-.349.351-.689.712-.328.372-.668.733-.356.343-.7.7-.342.361-.683.723-.329.375-.67.738-.333.373-.676.737-.353.354-.694.717a.4.4,0,0,0,.269.682c.481,0,.481-.031.96-.032s.481.028.961.026.481-.017.962-.02.481-.011.964-.014.481.014.961.012.481-.011.962-.013.481,0,.961,0,.481-.007.964-.009.481-.011.963-.014.481.02.962.019.482.005.964,0,.481-.026.964-.028.481.013.963.011.482.01.965.009.48-.029.959-.032.482.02.965.019.481-.006.962-.009.481-.031.962-.033.482.013.965.011l.964,0c.482,0,.482-.005.965-.008s.482,0,.965,0,.483.006.965,0,.483-.008.966-.01.484.01.969.015.484,0,.969,0" transform="translate(81.911 146.919)" fill="#bbdb94"/><path d="M82.462,247.369a6.755,6.755,0,0,0,2.668-5.251,6.377,6.377,0,0,0-11.067-4.008Z" transform="translate(75.047 149.021)" fill="#f8cd0e"/><path d="M.327,259.731l.194,1.029c.063.389.154.776.254,1.165l8.493.036a14.112,14.112,0,0,1-2.379-4.613,21.7,21.7,0,0,1-.98-6.249,19.843,19.843,0,0,1,.974-6.316,14.656,14.656,0,0,1,3.208-5.448l-2.58-2.707a20.872,20.872,0,0,0-4.8,6.392,26.047,26.047,0,0,0-2.352,7.619A29.379,29.379,0,0,0,.2,258.7c.04.341.073.684.124,1.027" transform="translate(86 148.935)" fill="#bcd5ee"/></g><rect width="88" height="88" transform="translate(89 334)" fill="none"/></g></svg>