<svg xmlns="http://www.w3.org/2000/svg" width="88" height="88" viewBox="0 0 88 88"><g transform="translate(-423 -137)"><g transform="translate(10.442 -14.185)"><path d="M392.662,6.27c-.058.559-.092,1.128-.173,1.7s-.236,1.109-.34,1.671-.145,1.13-.272,1.687-.352,1.083-.5,1.632-.271,1.106-.45,1.645-.427,1.057-.635,1.584-.346,1.093-.585,1.6-.561,1-.836,1.489-.552,1-.864,1.471-.659.93-1.012,1.371a16.865,16.865,0,0,1-1.121,1.282,16.411,16.411,0,0,1-1.308,1.159c-.455.374-.9.756-1.376,1.079s-1.011.584-1.517.868-.994.623-1.518.877-1.088.425-1.622.657-1.062.479-1.6.7-1.072.463-1.609.684-1.09.418-1.62.652-1.054.5-1.573.757a.72.72,0,0,1-.994-.864c.156-.46.358-.9.531-1.358s.361-.9.55-1.349c.2-.467.367-.953.595-1.41s.47-.905.718-1.351.532-.869.8-1.306.553-.855.828-1.286c.29-.438.583-.906.892-1.379.3-.452.558-.94.869-1.4s.634-.9.961-1.335c.339-.448.764-.859,1.12-1.251a.666.666,0,0,0-.561-.647A11.2,11.2,0,0,0,377,16.9c-.449.343-.892.7-1.312,1.094s-.818.8-1.212,1.2-.792.836-1.178,1.239c-.342.352-.723.832-1.158,1.348-.364.431-.793.863-1.167,1.347s-.706.981-1.037,1.451c-.374.531-.732,1.024-.995,1.475a.285.285,0,0,1-.537-.154c-.008-.533-.009-1.075.021-1.628.028-.536.059-1.079.131-1.624s.13-1.076.251-1.611a15.885,15.885,0,0,1,.507-1.551,14,14,0,0,1,.612-1.507,11.778,11.778,0,0,1,1.675-2.793c.353-.424.751-.8,1.113-1.185s.726-.82,1.109-1.186c.4-.38.86-.678,1.266-1.021.422-.355.812-.731,1.239-1.049.442-.328.905-.611,1.352-.9s.92-.585,1.384-.849.937-.561,1.415-.8.979-.482,1.47-.69c.507-.214,1.027-.373,1.53-.555s1.033-.35,1.543-.506c.525-.161,1.049-.293,1.563-.426.534-.138,1.049-.316,1.567-.43.539-.119,1.068-.233,1.585-.331.545-.1,1.076-.2,1.592-.291a1.18,1.18,0,0,1,1.329,1.3" transform="translate(88.834 151)" fill="#89c546"/><path d="M368.74,38.388c-.032-.577-.056-1.146-.106-1.7-.052-.576-.155-1.137-.227-1.69-.076-.573-.148-1.136-.245-1.685-.1-.569-.2-1.13-.321-1.672-.13-.563-.291-1.109-.446-1.644-.161-.553-.329-1.1-.518-1.62-.2-.541-.471-1.039-.7-1.55-.231-.526-.4-1.074-.661-1.568s-.549-1-.851-1.474-.679-.915-1.02-1.362-.71-.884-1.09-1.3-.762-.838-1.177-1.224-.869-.72-1.316-1.072-.886-.7-1.361-1.014-.948-.6-1.446-.888-.987-.532-1.5-.783c-.5-.243-1-.5-1.533-.726-.514-.212-1.034-.44-1.577-.632-.525-.186-1.091-.281-1.642-.448-.533-.16-1.054-.4-1.61-.543-.54-.138-1.1-.23-1.667-.352-.546-.119-1.1-.259-1.665-.363a1.177,1.177,0,0,0-1.351,1.075c-.023.567-.016,1.12-.008,1.657.009.568.065,1.118.109,1.654.047.565.081,1.118.163,1.65.087.561.219,1.1.343,1.624.132.551.285,1.082.455,1.6.178.536.333,1.069.55,1.566.226.515.513.99.777,1.465s.567.954.875,1.4.674.876,1.023,1.3.7.857,1.082,1.249.75.818,1.164,1.179.906.638,1.344.971.832.738,1.289,1.044.952.565,1.424.848.974.524,1.456.787.942.593,1.431.839,1,.489,1.493.725,1.026.435,1.519.664c.51.238.993.509,1.481.736.513.24,1.031.437,1.511.671.513.251,1,.511,1.464.763.507.273.97.567,1.409.851a1.113,1.113,0,0,0,1.671-1" transform="translate(86.713 151.725)" fill="#bbdb94"/><path d="M405.441,48.9l-2.654-.005-2.645.007-2.645.042-2.649.02L392.2,48.9l-2.731-.149-2.693-.479-2.625-.777-2.539-1.02-2.426-1.267-2.329-1.439-2.043-1.025-2.232-.678.082,3.116.107,3.08.535,2.116.8,2.037,1.127,1.887,1.469,1.629,1.8,1.477,2.049,1.1,2.155.88,2.281.457.455.075-.033,2.608-.491-.02-2.9-.054-2.825-.662-2.712-1.147-2.473-1.6-1.352-1.177-.046,2.895-.1,2.883-.135,2.881-.158,2.882L372.1,72.3l-.057.473-2.992-.041.01-.437-.2-2.873-.235-2.872-.027-2.885-.143-2.874-.044-2.88L367.132,59.1l-2.485,1.6-2.736,1.1-2.825.638-2.892.089-.413,0-.049-2.592.4-.06,2.271-.5,2.157-.865,2.026-1.136,1.8-1.471,1.45-1.636,1.123-1.884.848-2.011.53-2.118.088-3.058.045-3.065-2.085.638-1.92,1.03-2.345,1.417-2.438,1.239-2.534,1.026-2.617.8-2.691.5-2.732.118-2.472,0-2.472-.01-2.472.044-2.478.01h-2.459l-.013,1.985.162,2.63.4,2.6.661,2.552.908,2.476,1.218,2.339,1.371,2.251,1.58,2.11,1.786,1.94,1.943,1.781,2.078,1.617,2.147,1.529,2.286,1.32,2.4,1.091,2.455.964,2.519.78,2.56.64,2.609.391,2.625.256,2.637.131,2.634-.141L376.348,80l2.6-.488,2.567-.6,2.527-.76,2.434-1.015,2.4-1.094,2.3-1.292,2.183-1.481,2.1-1.6,1.91-1.823,1.781-1.947,1.6-2.1,1.37-2.255,1.209-2.347.88-2.487.643-2.554.476-2.593.129-2.636Z" transform="translate(86 154.322)" fill="#f8cd0e"/></g><rect width="88" height="88" transform="translate(423 137)" fill="none"/></g></svg>