<svg xmlns="http://www.w3.org/2000/svg" width="88" height="88" viewBox="0 0 88 88"><g transform="translate(-296 -336)"><g transform="translate(-9.392 -19.069)"><path d="M260.239,262.149l-.971-.746-.911-.82-.883-.848-.888-.852-.742-.979-.769-.959-.617-1.063-.621-1.057-.585-1.08-.423-1.154-.431-1.145-.445-1.146-.261-1.2-.275-1.2-.09-1.226-.176-1.217.043-1.229L251.152,243l.1-1.225.247-1.2.237-1.2.282-1.192.3-1.192.474-1.134.507-1.116.53-1.106.648-1.041.607-1.068.786-.945.727-.99.815-.92.887-.851.928-.8,1.014-.695.408-1.029-.567-.932-1.14-.5-1.148-.473-1.149-.481-1.2-.319-1.21-.281-1.221-.239-1.241-.09-1.238-.1-1.243,0-1.247,0-1.237.156-1.218.235-1.2.285-1.212.267-1.153.457-1.17.412-1.1.572-1.089.59-1.044.664-1.024.695-.983.753-.951.795-.91.843-.848.908-.734,1-.74.993-.711,1.014-.622,1.073-.518,1.126-.527,1.119-.437,1.159-.4,1.174-.333,1.2-.131,1.236-.24,1.217-.025,1.188-.089,1.184.042,1.186.036,1.19.205,1.171.253,1.159.284,1.15.33,1.138.419,1.108.427,1.106.527,1.061.589,1.028.626,1,.616,1.016.779.894.81.844.9.76.871.793.8.878.868.8,1.006.643,1.02.613,1.056.545,1.073.512,1.092.478,1.129.382,1.163.26,1.167.271-.059,1.184.058,1.184-.005,1.184-1.24.057-1.243-.086-1.247.006-1.217.071-.033,1.138-.029,1.168.093,1.169-.046,1.173-.018,1.2,1.263-.061,1.239,0,1.242-.008,1.264.008-.051,1.245.052,1.225-.024,1.229.006,1.229,1.169-.022,1.168.051,1.17-.088,1.173.084,1.2-.007-.043-1.249.074-1.23-.027-1.232-.064-1.267,1.357.053,1.329,0,1.33-.09,1.306.023-.011-1.14-.013-1.168.068-1.17-.037-1.172-.014-1.162-1.312-.023-1.324.051-1.326-.063-1.306.016-.034-1.023-.042-1.052.017-1.066,1.338-.1,1.284-.258,1.294-.2,1.244-.408,1.247-.394,1.185-.555,1.2-.527.572-.919Z" transform="translate(86 151)" fill="#f16748"/><path d="M294.683,228.975c.532.224.545-.205,1.09-.4s.553-.178,1.1-.369.543-.209,1.092-.4l1.1-.385c.551-.192.845.152,1.109-.368s-.169-.548-.347-1.09-.2-.535-.382-1.077-.164-.55-.343-1.094-.186-.541-.365-1.085-.164-.549-.342-1.094-.2-.535-.377-1.077-.172-.547-.351-1.092-.162-.551-.341-1.1-.192-.543-.372-1.091.088-.73-.364-1.087-.567-.043-1.14-.09-.572-.051-1.145-.1-.575-.045-1.15-.092-.571-.072-1.145-.12-.576-.034-1.15-.081-.577-.034-1.152-.081l-1.149-.093c-.575-.047-.573-.069-1.148-.116s-.577-.046-1.154-.093-.71-.457-1.155-.088-.078.581-.143,1.162-.046.582-.112,1.163-.068.58-.134,1.162l-.132,1.165c-.066.583-.485.693-.147,1.172.3.426.53.039,1.047.1s.518.068,1.036.126.519.075,1.039.134.924-.407,1.055.1c.152.584-.386.479-.77.945s-.383.468-.768.935-.4.452-.79.921-.265.6-.763.942c-.3-.191-.611-.365-.923-.54s-.623-.349-.944-.508-.647-.3-.975-.444-.651-.295-.986-.422-.671-.244-1.012-.355-.684-.205-1.03-.3-.694-.165-1.044-.243-.694-.172-1.046-.234-.708-.1-1.063-.145c-.38-.05-.756-.109-1.133-.139s-.762-.029-1.14-.041-.762-.021-1.14-.014-.762.014-1.139.04-.758.079-1.133.125-.756.093-1.129.158-.749.141-1.118.225-.738.186-1.1.289-.734.2-1.093.325-.708.277-1.06.417-.71.274-1.055.432-.69.319-1.026.495a1.1,1.1,0,0,0-.127,1.9c.3.219.574.456.857.688s.571.459.842.705.525.511.784.769.507.527.754.8.5.533.735.815.445.582.664.875.434.589.638.893.388.62.578.934.377.626.551.949.352.641.509.972.287.673.428,1.011.283.674.407,1.02.225.7.331,1.046.22.7.309,1.053.173.711.244,1.071.13.719.183,1.083.109.722.145,1.088.064.729.081,1.1.025.731.025,1.1-.015.735-.032,1.1-.058.732-.093,1.1-.078.73-.131,1.09-.127.722-.2,1.08-.146.719-.235,1.073-.168.714-.275,1.063-.246.691-.369,1.035-.232.7-.372,1.033-.3.67-.457,1-.325.657-.5.978-.356.641-.545.954-.382.625-.586.929-.425.6-.643.89-.449.577-.682.859-.462.569-.708.839-.491.544-.751.8-.533.5-.8.748-.541.493-.824.726-.57.459-.865.677a1.169,1.169,0,0,0-.495.943,1.015,1.015,0,0,0,.563.891q.476.251.964.481c.325.151.653.3.986.435s.665.271,1.005.391.685.214,1.03.317.688.2,1.038.288.693.188,1.047.257.708.117,1.065.17.711.09,1.07.124.715.054,1.076.071.716.042,1.078.042.739-.01,1.105-.028.737-.047,1.1-.082.734-.083,1.1-.137.728-.121,1.088-.193.72-.162,1.076-.252.713-.188,1.064-.3.708-.207,1.054-.332.687-.268,1.027-.409.685-.274,1.017-.433.663-.324.987-.5.641-.366.956-.556.617-.4.922-.609.605-.421.9-.641.6-.431.882-.666.564-.475.836-.724.519-.523.778-.785.521-.521.768-.8.491-.549.724-.835.442-.589.66-.887.43-.6.633-.9.393-.622.581-.94.377-.632.549-.958.338-.654.493-.989.3-.671.441-1.013.271-.684.393-1.033.239-.7.343-1.051.2-.707.29-1.066.142-.722.211-1.085.138-.722.189-1.088.094-.73.127-1.1.039-.734.053-1.1.031-.734.028-1.1,0-.736-.02-1.106-.061-.733-.1-1.1-.089-.727-.145-1.087-.131-.72-.206-1.077-.167-.712-.26-1.065-.169-.713-.279-1.061-.239-.692-.367-1.033-.28-.676-.425-1.011-.285-.674-.446-1-.341-.647-.518-.967-.363-.634-.555-.944-.383-.623-.59-.924-.418-.6-.639-.891-.45-.577-.685-.857-.5-.55-.744-.818c.2-.486.345-.4.685-.8s.354-.39.7-.791.341-.4.684-.8.33-.415.674-.817.173-.891.695-.8.16.495.326.982.176.484.342.972.284.465.339.979c.059.556-.156.786.32.986" transform="translate(86 151)" fill="#bcd5ee"/><path d="M266.872,239.613l-1.256.007h-3.758l-1.252,0h-2.512l-1.261-.006v1.276l.005,1.277v1.275l1.252,0,1.25,0,1.253,0h1.254l1.252,0,1.254,0,1.258,0,1.258,0-.005-1.274v-1.276Z" transform="translate(86 151)" fill="#f8cc0d"/><path d="M256.833,249.983l1.256-.005,1.251.008,1.252-.01h1.254l1.252,0,1.255.006,1.257,0,1.257-.007v-1.272l.005-1.276,0-1.278-1.254.007-1.251,0-1.253,0h-1.254l-1.252,0h-1.254l-1.258.006-1.261-.007,0,1.276,0,1.277Z" transform="translate(86 151)" fill="#f8cc0d"/></g><rect width="88" height="88" transform="translate(296 336)" fill="none"/></g></svg>