<svg xmlns="http://www.w3.org/2000/svg" width="88" height="88" viewBox="0 0 88 88"><g transform="translate(-189 -526)"><g transform="translate(4.269 7.331)"><path d="M178.9,396.511l-.813-1.611-1.041-1.473-1.39-1.152-1.611-.808-1.4-.471-1.458-.245-1.469-.167-1.476-.04v.008l-.782-.046-.781.055,0,.026-.9.024-1.042.067-.378.061-.5.036-1.523.232-1.471.453-1.611.814-1.346,1.195-1.113,1.413-.8,1.621-.34,1.558-.282,1.567-.154,1.588-.222,1.577-.2,1.583-.153,1.592-.1,1.594-.173,1.585,1.356.609,1.242.816,1.1,1,.963,1.126.8,1.249.642,1.34.573,1.516.448,1.561.483,1.549.486,1.547.438,1.565.381,1.579.471,1.555.384,1.6,1.487.019,1.482.031,1.48-.018,1.483.047,1.486,0,1.488.057.283-1.645.3-1.637.269-1.646.322-1.638.335-1.633.3-1.643.25-1.655.348-1.625,1.8-.439,1.808-.484,1.791-.508-.108-1.505-.149-1.537-.141-1.538-.083-1.542-.146-1.54-.16-1.54-.139-1.545-.253-1.534-.179-1.532L179.269,398Z" transform="translate(86 151)" fill="#bdd7ec"/><path d="M172.094,383.263l-.71,1.388-1.157,1.048-1.373.75-1.487.488-1.458-.028-1.277-.714-.978-1.1-.619-1.336-.254-1.45-.014-1.655.2-1.642.478-1.582.886-1.387,1.323-.971.562-.254,1.487-.152,1.394.544,1.169.94.908,1.2.667,1.35.4,1.456.088,1.505Z" transform="translate(86 151)" fill="#bdd7ec"/><path d="M112.216,383.911l.722,1.378,1.144,1.06,1.374.748,1.485.5,1.456-.051,1.278-.7.965-1.1.626-1.329.275-1.446-.014-1.655-.174-1.646-.475-1.586-.9-1.38-1.321-.976-.568-.236-1.481-.152-1.4.518-1.169.945-.914,1.2-.66,1.356-.388,1.458-.112,1.505Z" transform="translate(86 151)" fill="#0c3b57"/><path d="M123.126,415.918l.674-1.406.9-1.268,1-1.188,1.2-.983,1.314-.829,1.426-.618.574-.182-.14-1.543-.181-1.541-.081-1.552-.2-1.544-.188-1.545-.221-1.531-.23-1.532-.392-1.488-.785-1.624-1.083-1.435-1.352-1.189-1.616-.8-1.4-.458-1.456-.241-1.47-.135-1.475-.061v.005l-.78-.077-.783.032.006.054-.9-.037-1.041.1-.376.082-.492.063-1.52.242-1.463.456-1.632.768-1.382,1.165-1.062,1.458-.786,1.626-.358,1.5-.264,1.521-.236,1.528-.16,1.534-.183,1.535-.1,1.545-.153,1.539-.172,1.54-.081,1.546-.166,1.536-.129,1.566,1.569.283,1.55.336,1.539.4,1.532.349.274,1.6.22,1.619.272,1.614.205,1.625.29,1.61.256,1.62.191,1.632.261,1.631,1.53.05,1.518-.02,1.52.067,1.523-.016,1.517.018.421-1.56.4-1.589.454-1.572.458-1.572.418-1.581.426-1.578.531-1.55Z" transform="translate(86 151)" fill="#0c3b57"/><path d="M141.9,394.169l1.423.322,1.133.931.456.861.136,1.513-.391,1.478-.631,1.392-.916.947-1.251.372-1.649-.732-1.052-1.427-.483-1.7.274-1.74.169-.438,1.123-1.308,1.659-.48m0-3.81v.016l-1.565.19-1.489.519-1.317.866-1.1,1.132-.785,1.367-.27.57-.422,1.54-.1,1.592.248,1.575.517,1.506.79,1.387,1.008,1.238,1.278,1.06,1.521.664,1.644.221,1.662-.242,1.55-.651,1.3-1.072.989-1.362.657-1.4.512-1.457.295-1.516.006-1.542-.342-1.5-1.022-1.948-1.122-1.146-1.344-.874-1.509-.537-1.59-.189Z" transform="translate(86 151)" fill="#f16748"/><path d="M148.836,450.086l-1.6,0-1.6-.008-1.6-.062-1.606.024-1.6-.049-1.607-.053-1.609-.042-1.61.021-1.215-1.04-.191-1.545-.273-1.534-.236-1.542-.29-1.531-.163-1.554-.262-1.542-.272-1.54-.79-.919-1.67-.611-1.64-.7-1.675-.6-.8-1.2.126-.958.1-1.584.076-1.59.191-1.577.153-1.582.068-1.593.225-1.579.191-1.582.183-1.587.19-1.58.264-1.57.408-1.535.713-1.337.721-1.33.963-1.17,1.161-.967,1.266-.816,1.321-.738,1.46-.4,1.489-.252,1.5-.223,1.509-.105,1.506-.055,1.509.055,1.506.111,1.5.167,1.5.23,1.438.485-.024.058,1.4.591,1.228.884,1.138.993.96,1.168.777,1.3.633,1.374.378,1.537.343,1.553.173,1.581.2,1.577.177,1.581.233,1.575.156,1.586.113,1.59.161,1.586.11,1.587.058,1.587.084.915-.715,1.2-1.478.6-1.472.625-1.471.625-.667.924-.342,1.582-.325,1.588-.307,1.594-.278,1.6-.309,1.6-.322,1.594-.319,1.6Zm-8.572-5.1h1.487l1.489.006,1.489.06,1.176-1,.332-1.6.336-1.6.326-1.6.264-1.616.3-1.612.367-1.6.7-.9,1.78-.747,1.758-.8.794-1.18-.155-1.656-.173-1.656-.192-1.65-.181-1.651-.1-1.66-.221-1.645-.266-1.636-.289-1.638-.8-1.519-1.187-1.22L147.832,414l0-.01-1.827-.37-1.844-.263-1.868-.074-1.867.12-1.849.277-1.812.39-1.472.832-1.2,1.2-.708,1.555-.338,1.6-.288,1.616-.216,1.628-.094,1.638-.187,1.633-.183,1.631-.131,1.64-.176,1.637.8,1.255,1.392.543,1.4.529,1.409.5.83.91.241,1.587.192,1.6.332,1.571.2,1.6.279,1.586.259,1.59Z" transform="translate(86 151)" fill="#f16748"/></g><rect width="88" height="88" transform="translate(189 526)" fill="none"/></g></svg>