<svg xmlns="http://www.w3.org/2000/svg" width="88" height="88" viewBox="0 0 88 88"><g transform="translate(-429 -522)"><g transform="translate(21.374 8.473)"><path d="M354.981,375.269l1.15.026,1.151,0,1.151.039,1.151.024,1.145.04,1.148-.007,1.152.037,1.15.032,1.15.006,1.153.052,1.152.025h1.154l1.154.048,1.154.019,1.155.021,1.158.024,1.158.039.4.4-.02,1.128-.041,1.128,0,1.132-.041,1.13-.012,1.132-.024,1.133-.062,1.13-.011,1.133-.016,1.136-.048,1.136-.073.257-.7.83-.68.842-.081.189-.2,1.179-.225,1.173-.191,1.181-.211,1.18-.221,1.179-.471,1.113-.927.78-1.178.256v.01l-1.067-.007-1.07-.029-1.068.005-1.07-.016-1.065-.041h-1.071l-1.072-.026-1.075-.028-1.076.011-1.184-.3-.9-.818-.463-1.123-.194-1.014-.156-1.016-.166-1.02-.154-1.023-.192-1.02-.159-1.026-.081-.192-.694-.851-.687-.858-.085-.266.031-1.162,0-1.163-.008-1.167.033-1.164,0-1.166.008-1.168,0-1.166-.012-1.167.006-1.171.031-1.171" transform="translate(86 151)" fill="#8ac647"/><path d="M367.839,369.743l-.005-.868.007-.869-.4-.418-1.225-.031h-1.228l-1.231-.03-1.231.015-.421.389.005.867-.032.867-.406.4-1.162-.019-1.163,0-1.162,0-1.163-.04-1.167-.018-1.167.016-.4.389-.014.96-.035.962-.023.962.437.407,1.143-.01h1.143l1.143-.026,1.144-.038,1.143-.019,1.138-.019,1.14-.011H363.8l1.142-.012,1.143-.035,1.146-.011,1.145-.037,1.146-.014,1.147,0,1.146-.025,1.148-.019,1.15-.031,1.151-.012.408-.4.006-1.136.016-1.135-.407-.418-1.173-.022-1.174-.017-1.173-.031-1.175.021-1.177-.034-1.178-.029Z" transform="translate(86 151)" fill="#bbdb94"/><path d="M351.279,425.324l-.1-1.092-.1-1.092-.094-1.091-.085-1.093-.118-1.091-.113-1.087-.089-1.088-.076-1.09-.13-1.091-.1-1.092-.054-1.1-.13-1.092-.1-1.093-.059-1.1-.1-1.09-.086-1.1-.121-1.1-.068-1.1-.1-1.1-.517-.456-1.047.018-1.052.03-1.054.056-1.057-.007-1.057.023-.492.459-.077,1.156-.109,1.151-.05,1.155-.087,1.157-.089,1.155-.1,1.155-.12,1.155-.046,1.159-.11,1.156-.106,1.16-.063,1.163-.71.424-.973-.484-1-.413-.985-.46-1-.435-.985-.467-.995-.442-1-.445-.991-.456-.994-.455-1-.422-.979-.489-1-.442-1-.456-1-.444-.715.444.013,1.12-.039,1.124-.036,1.122-.03,1.122,0,1.126-.018,1.124-.055,1.125-.018,1.126-.033,1.125.006,1.127-.01,1.131-.036,1.129.478.5,1.124-.011h2.252l1.126-.007,1.126-.006,1.126,0,1.128,0h1.126l1.121-.042,1.124.015,1.128,0,1.126.012,1.126-.021,1.129-.021,1.128.017,1.129-.008,1.131-.014,1.129-.006,1.13.006,1.134-.005h1.134Z" transform="translate(86 151)" fill="#f8cd0e"/><path d="M398.136,403.451l-.391,1.2-.43,1.184-.418,1.191-.464,1.175-.368.281-1.1-.028-1.1-.013-1.1-.046-1.1.044-1.1-.024h-1.1l-1.1-.04-1.1-.033-1.094-.013-1.1-.006-1.1-.005-1.1.006-1.1,0-1.1-.014-1.1-.038-1.1-.018-1.1-.017-1.1.047-1.1-.04-1.108-.027-1.108-.023-.38.526.277,1.054.311,1.05.338,1.04.256,1.063.3,1.056.33,1.044.288,1.057.279,1.056.321,1.049.288,1.06.344,1.048.261,1.071.389.31,1.137,0,1.137-.03h1.139l1.137.041,1.132-.01,1.134.059,1.14,0,1.137-.033,1.136.023,1.141.033,1.139-.014,1.14.033h1.141l1.14.019,1.142.008,1.145.011,1.145-.005.392-.265.341-1.1.325-1.108.373-1.1.329-1.11.344-1.105.366-1.1.311-1.118.362-1.1.356-1.1.361-1.1.33-1.116.388-1.1.3-1.129.389-.238,1.329-.09h1.331l.335-.274.367-.947.3-.972.332-.962-.359-.523-1.049.044-1.044-.022h-1.05l-1.051.018h-1.054l-1.054.023Z" transform="translate(86 151)" fill="#bdd7ec"/><path d="M388.222,424.059l.052.294.5,1.151.95.819,1.211.315.1.007,1.238-.3.978-.818.493-1.177.049-.294-1.108.007-1.113,0-1.115,0-1.118-.008Z" transform="translate(86 151)" fill="#0c3b57"/><path d="M377.753,424.375l.528,1.022.911.7,1.117.269h.115l1.153-.244.942-.708.565-1.035.094-.317-1.1-.006-1.1.007-1.1,0-1.107,0-1.107.005Z" transform="translate(86 151)" fill="#0c3b57"/><path d="M335.9,393.367c-.094.22.005.573-.192.437-.4-.279-.236-.428-.455-.865s-.179-.458-.4-.895-.263-.418-.483-.856-.227-.436-.447-.875a.5.5,0,0,0-.724-.213c-.348.219-.361.2-.709.416s-.35.217-.7.436-.331.249-.68.468-.369.189-.718.409a.569.569,0,0,0-.209.712c.2.4.228.38.426.775s.219.385.417.781.156.419.355.816.2.4.4.792.187.4.386.8.218.388.417.786.181.407.38.8.24.376.439.773.2.4.4.792.182.407.382.8.192.4.392.8.19.4.39.805.209.4.41.8a.541.541,0,0,0,.731.227c.411-.214.418-.2.829-.413s.416-.207.828-.421.4-.242.813-.457.424-.193.836-.407.416-.21.828-.425.4-.236.817-.451.415-.213.828-.428.42-.2.833-.417.4-.242.811-.456.429-.187.844-.4.406-.234.821-.45.412-.225.828-.441.411-.227.827-.443a.53.53,0,0,0,.255-.7c-.216-.428-.245-.413-.461-.84s-.208-.433-.424-.862-.222-.426-.438-.854a.537.537,0,0,0-.7-.263c-.4.193-.4.188-.8.38s-.391.213-.792.406-.406.184-.807.377-.39.221-.793.415-.39.526-.819.4c-.289-.083.128-.3.231-.585.07-.306.173-.6.262-.9s.183-.6.291-.89.219-.586.344-.871.254-.572.4-.849.311-.543.468-.812.341-.522.512-.782.321-.537.506-.789.4-.477.6-.719.36-.513.567-.747.427-.457.642-.681.432-.453.656-.669.461-.423.693-.63a.5.5,0,0,0,.06-.7c-.319-.4-.325-.391-.644-.788s-.323-.395-.643-.793-.3-.411-.623-.809c-.357-.444-.7-.473-.927-.275s-.454.415-.684.619-.458.411-.684.619-.48.39-.7.6-.445.426-.663.642-.4.468-.615.69-.414.455-.622.681-.417.452-.618.684-.4.468-.593.706-.392.473-.578.718-.4.47-.576.722-.336.516-.5.774-.329.52-.486.785-.323.523-.469.8-.269.553-.4.83-.246.563-.367.847" transform="translate(86 151)" fill="#00516b"/><path d="M368.3,441.386c.222-.089.4-.385.439-.149.087.481-.124.465-.279.929l-.308.929c-.155.466-.163.463-.318.929s-.16.464-.315.93a.521.521,0,0,0,.388.672c.4.091.395.114.8.2s.4.1.8.186.4.108.8.2.414.043.816.135a.534.534,0,0,0,.638-.323c.139-.419.11-.429.25-.848s.151-.416.291-.836.141-.421.281-.843.126-.426.266-.847.167-.412.307-.833.095-.437.235-.859.194-.4.334-.826.13-.424.27-.845.109-.431.249-.852.136-.424.276-.847.163-.416.3-.84.137-.427.278-.85.129-.429.27-.854a.539.539,0,0,0-.324-.69c-.442-.14-.449-.116-.891-.256s-.45-.114-.893-.254-.434-.173-.879-.313-.437-.16-.88-.3-.455-.106-.9-.246-.436-.171-.881-.311-.449-.128-.893-.268-.442-.147-.886-.287-.447-.126-.89-.267-.452-.122-.9-.263-.441-.157-.887-.3-.446-.15-.893-.29-.453-.125-.9-.266a.513.513,0,0,0-.65.335c-.15.455-.155.453-.3.908s-.127.463-.278.919-.169.45-.319.906a.5.5,0,0,0,.327.638c.418.145.413.159.831.306s.407.184.827.331.419.15.84.3.423.144.845.292.641-.125.857.266c.145.262-.289.1-.562.227-.266.167-.55.3-.823.445s-.536.327-.819.457-.58.233-.871.346-.575.248-.872.344-.61.141-.911.22-.6.157-.91.22-.607.151-.916.2-.619.086-.929.119-.624.049-.935.069-.625.017-.936.024-.625.026-.937.02-.623-.062-.933-.079a.549.549,0,0,0-.565.485c-.055.506-.067.505-.122,1.011s-.017.512-.072,1.019-.06.507-.115,1.015c-.061.567.151.854.451.875s.616.024.923.041.615.035.922.048.615.033.922.041.616-.024.924-.023.615,0,.922-.005.616-.006.922-.02.617,0,.923-.025.611-.084.916-.115.617-.029.921-.071.606-.11.909-.163.6-.12.9-.184.6-.126.9-.2.585-.188.88-.277.589-.17.881-.272.569-.226.856-.341" transform="translate(86 151)" fill="#00516b"/><path d="M388.812,386.635c-.22-.094-.568,0-.431-.2.278-.4.444-.2.881-.417l.875-.439.879-.439c.438-.22.437-.222.876-.442a.538.538,0,0,0,.188-.77c-.218-.348-.222-.346-.44-.693s-.216-.351-.435-.7-.185-.371-.4-.721-.259-.325-.478-.674a.507.507,0,0,0-.666-.2c-.4.2-.388.211-.783.409s-.419.152-.815.351-.39.214-.787.413-.394.2-.791.4-.382.227-.778.426-.415.166-.813.365l-.8.4c-.4.2-.388.216-.785.415s-.41.171-.806.369l-.8.4c-.4.2-.38.237-.779.437s-.414.172-.814.372-.4.206-.8.406a.534.534,0,0,0-.222.725c.213.411.221.407.435.818s.2.418.415.83.2.424.41.838.251.393.466.806.2.423.41.835.212.416.427.83.208.417.423.83.212.415.427.828.251.393.465.806.175.436.39.85.259.393.475.808.2.427.413.843.2.427.414.843a.571.571,0,0,0,.739.243c.428-.215.407-.256.834-.472s.446-.182.875-.4l.857-.432a.536.536,0,0,0,.221-.715c-.192-.4-.163-.413-.355-.812s-.236-.38-.429-.781-.18-.408-.374-.809-.2-.4-.393-.8-.512-.387-.388-.817c.083-.289.275.166.558.269.306.07.613.138.911.227s.6.19.887.3.584.222.869.347.57.255.847.4.552.292.821.449.519.346.78.518.536.321.788.5.493.384.735.58.485.394.718.6.457.426.682.642.441.441.657.666.463.423.67.655a.5.5,0,0,0,.7.087l.792-.638c.4-.32.4-.323.794-.643s.407-.308.8-.628c.445-.358.481-.733.283-.96s-.4-.465-.608-.694-.446-.427-.655-.653-.4-.467-.614-.69-.443-.428-.659-.646-.433-.436-.655-.649-.436-.435-.663-.642-.439-.432-.672-.633-.491-.373-.729-.566-.472-.4-.717-.581-.493-.368-.744-.545-.525-.32-.783-.488-.5-.36-.764-.517-.533-.306-.8-.452-.535-.3-.813-.438-.573-.224-.857-.345" transform="translate(86 151)" fill="#00516b"/></g><rect width="88" height="88" transform="translate(429 522)" fill="none"/></g></svg>