<svg xmlns="http://www.w3.org/2000/svg" width="88" height="88" viewBox="0 0 88 88"><g transform="translate(-634 -146)"><g transform="translate(-1.084 -1.001)"><path d="M602.11,80.178c-1.062,0-1.062-.008-2.124-.008s-1.061.027-2.121.027-1.062.015-2.124.015-1.063.007-2.126.007-1.063-.024-2.126-.024-1.063-.024-2.127-.024-1.065.027-2.13.027-1.065-.033-2.13-.033a5.282,5.282,0,0,1-5.368-4.884c-.1-1.054-.123-1.052-.221-2.106s-.062-1.056-.16-2.108-.119-1.052-.217-2.106-.091-1.054-.189-2.107-.1-1.054-.2-2.109-.106-1.053-.2-2.106-.084-1.056-.181-2.11-.088-1.055-.185-2.109-.09-1.053-.187-2.106-.141-1.05-.239-2.1-.083-1.056-.181-2.111-.1-1.055-.2-2.11-.089-1.057-.186-2.112-.113-1.056-.211-2.113-.4-1.076-.166-2.111c.7-.071,1.38-.121,2.078-.184s1.4-.135,2.1-.19,1.4-.127,2.1-.174,1.4-.088,2.1-.127,1.4-.045,2.1-.074,1.4-.088,2.1-.109,1.405-.023,2.106-.035,1.4-.041,2.106-.043,1.4.009,2.1.016,1.4.027,2.1.044,1.4.056,2.1.084,1.4.065,2.1.1,1.4.1,2.1.147,1.4.088,2.1.145,1.4.127,2.1.2,1.372.125,2.069.2c.236,1.031-.049,1.05-.146,2.1s-.111,1.052-.209,2.1-.126,1.051-.223,2.1-.068,1.056-.165,2.109-.079,1.056-.176,2.11-.118,1.052-.215,2.106-.112,1.053-.209,2.107-.106,1.054-.2,2.108-.113,1.051-.21,2.1-.049,1.059-.147,2.113-.118,1.053-.215,2.108-.1,1.055-.2,2.11-.083,1.057-.18,2.113-.1,1.057-.193,2.114-.133,1.054-.23,2.111a5.36,5.36,0,0,1-5.365,4.9" transform="translate(86 151)" fill="#bdd7ec"/><path d="M599.521,14.863a32.171,32.171,0,0,0-2.6-4.365,37.495,37.495,0,0,0-3.191-3.986l-1.521-1.644-1.3,1.707a42.892,42.892,0,0,0-5.633,9.738,28.9,28.9,0,0,0-1.621,5.477l-.207,1.444-.071,1.475a8.787,8.787,0,0,0,.5,3.112,9.555,9.555,0,0,0,3.815,4.907,9.3,9.3,0,0,0,6.16,1.322A9.494,9.494,0,0,0,602,24.99a21.935,21.935,0,0,0-.649-5.282,27.417,27.417,0,0,0-1.831-4.845" transform="translate(86 151)" fill="#aed7f2"/><path d="M609.2,4.294A3.009,3.009,0,1,0,606.193,7.3,3.009,3.009,0,0,0,609.2,4.294" transform="translate(86 151)" fill="#0c3b57"/><path d="M572.092,26.6a3.631,3.631,0,1,0,3.632,3.632,3.632,3.632,0,0,0-3.632-3.632" transform="translate(86 151)" fill="#0c3b57"/><path d="M572.1,14.48a3.126,3.126,0,1,0-3.126-3.126A3.126,3.126,0,0,0,572.1,14.48" transform="translate(86 151)" fill="#0c3b57"/><path d="M583.8,1.956a1.934,1.934,0,1,0-3.868,0,1.934,1.934,0,1,0,3.868,0" transform="translate(86 151)" fill="#0c3b57"/><path d="M612.793,14a1.956,1.956,0,1,0,1.934,1.955A1.944,1.944,0,0,0,612.793,14" transform="translate(86 151)" fill="#0c3b57"/><path d="M614.95,25.618a3.563,3.563,0,1,0,3.523,3.563,3.543,3.543,0,0,0-3.523-3.563" transform="translate(86 151)" fill="#0c3b57"/><path d="M559.873,23.9a1.789,1.789,0,1,0,1.789,1.789,1.789,1.789,0,0,0-1.789-1.789" transform="translate(86 151)" fill="#0c3b57"/><path d="M628.019,17.381a2.99,2.99,0,1,0,2.991,2.991,2.991,2.991,0,0,0-2.991-2.991" transform="translate(86 151)" fill="#0c3b57"/><path d="M599.272,75.552H588.1a4.14,4.14,0,0,1-4.122-3.759l-2.006-21.7a101.723,101.723,0,0,1,23.426,0l-2.006,21.7a4.139,4.139,0,0,1-4.122,3.759" transform="translate(86 151)" fill="#d1e3f3"/></g><rect width="88" height="88" transform="translate(634 146)" fill="none"/></g></svg>