<svg xmlns="http://www.w3.org/2000/svg" width="88" height="88" viewBox="0 0 88 88"><g transform="translate(-929 -327)"><g transform="translate(-26.762 -20.336)"><path d="M885.86,209.859l-2.281.212-2.314-.08-.005,2.639.232,2.573-.062,2.582.252,2.57-.1,2.584.117,2.575.271,2.57-.039,2.583.142,2.574.265,2.569.008,2.582.181,2.572.277,2.369-.038,2.385.107,2.379.158,2.374.285,2.369.082,2.379.142,2.377.034,2.382.159,2.374.063,2.381.276,2.368.051,2.382.176,2.46,2.784-.116-.03-2.528-.024-2.476-.145-2.472.106-2.476-.018-2.476-.2-2.468-.1-2.471V251.98l-.093-2.474.016-2.475.012-2.476-.059-2.473-.185-2.479.093-2.481-.19-2.477.083-2.483-.107-2.481-.085-2.481-.052-2.481.024-2.477-.034-2.48-.2-2.473-.04-2.477-.009-2.48Z" transform="translate(86 151.172)" fill="#a0b4ba"/><path d="M925.294,247.224l.041-2.455-2.942-.553-2.95-.413-2.961-.325-2.966-.282-2.972-.229-2.981-.018-2.979.068-2.979.093-2.971.21-2.967.3-2.95.409-2.96.5.1,3.181s-.082,2.763-.082,3.175.464.47.464.47l2.967-.414,2.986-.212,2.982-.264,2.992-.129,2.993-.027,2.994,0,2.992.108,2.984.257,2.987.2,2.971.38,3.012.318-.005,1.872a.942.942,0,0,0,.93.96l2.116-.012,3.072.105,3.076-.112,3.077.071,3.076-.043,3.083.042,2.191.015a.941.941,0,0,0,.929-.957l0-2.662-.026-3.6-2.771.052-2.759-.071-2.762.03-2.764.057-2.764-.084-2.768.057Z" transform="translate(86.72 153.975)" fill="#0c3b57"/><path d="M925.573,234.14l.133-3.264-2.749-.569-2.74-.522-2.762-.4-2.766-.381L911.9,228.8l-2.792-.1-2.792-.007-2.792.042-2.79.148-2.776.32-2.781.273-2.756.462-2.746.5.061,3.643v3.647l-.032.425h.08l-.039-.012,2.955-.515,2.959-.51,2.986-.293,2.994-.185,3-.165,3-.031,3,.037,3,.145,2.987.3,2.972.443,2.969.435,2.988.594-.094,2.864,2.708-.012,2.735.012,2.738.007,2.739.044,2.739-.082,2.743.1,2.771-.025-.05-3.614.053-3.615-2.738.053-2.711.011-2.713-.013-2.714.029-2.715,0-2.719-.079Z" transform="translate(86.713 152.768)" fill="#bbdb94"/><path d="M925.446,240.673l.069-2.865-2.945-.638-2.967-.45-2.971-.432-2.993-.246-3-.181-3-.038-3,.046-3,.156-2.99.236-2.984.337-2.976.378-2.956.557.017,2.531,0,2.533.064,2.52,2.765-.546,2.833-.337,2.831-.345,1.228-.012,3.006-.194,2.107-.12,2.13-.016,2.7.078,1.524,0,3.1.212,1.1.052,3.315.367.865.093,3.353.51.378.129.013-.055,2.283.439-.068,2.472,2.735.073,2.759,0,2.763-.015,2.763-.016,2.764.023,2.768,0,2.741-.067.048-3.57-.035-3.58-2.717-.008-2.736.025-2.738-.033-2.739-.035-2.739,0-2.743.034Z" transform="translate(86.718 153.371)" fill="#b0c2e4"/><path d="M925.877,217.537l.066-3.359s.056-2.8.056-3.367a.682.682,0,0,0-.4-.7l-2.931-.591L919.724,209l-2.951-.463-2.968-.347-2.979-.2-2.982-.166-2.985.014-2.983.1-2.981.141-2.974.277-2.958.417-2.941.534a.849.849,0,0,0-.634.91c0,.792.055,3.354.055,3.354l.036,3.356h.026l.008-.1,2.771-.556,2.793-.438,2.8-.373,2.814-.267,2.821-.181,2.826-.072,2.826.031,2.823.175,2.817.239,2.8.35,2.784.486,2.771.564Z" transform="translate(86.689 151)" fill="#e23a3f"/><path d="M925.776,224.555l.028-2.527.054-2.518-.01-2.508-2.7-.748-2.758-.617-2.785-.485-2.809-.306-2.815-.255-2.822-.127-2.826-.062-2.823.1-2.821.157-2.814.272-2.8.355-2.794.441-2.762.529.016,2.549.058,2.57.012,2.59,2.761-.567,2.765-.439,2.784-.279,2.783-.29,2.793-.181,2.8-.062,2.8.076.051-.048,3.251.161.593.035,3.2.325.32.017,3.248.478,3.216.667.108.038.009-.033Z" transform="translate(86.699 151.557)" fill="#f16748"/><path d="M941.552,214.388a.564.564,0,0,0-.557-.573l-2.531.018-3.088,0-3.087-.029-3.094.018-1.76,0a.955.955,0,0,0-.256.047l-1.493,7.132,1.762-.013h2.82l2.819,0,2.821.008,2.826-.011,2.815.007.013-3.577Z" transform="translate(89.763 151.507)" fill="#e23a3f"/><path d="M941.658,224.035l.018-3.59-2.817-.01-2.819-.007-2.82.025-2.82-.007-2.826,0-1.771,0-1.5,7.18,2.04,0,3.064.013,3.064-.027,3.066.028,3.071-.011h3.078Z" transform="translate(89.645 152.067)" fill="#f16748"/><path d="M944.58,227.56l-3.028-.036-3.064.023-3.065-.055-3.065.069-3.071.011-2.046-.049-.339,1.622-1.227-.03v-.048l-.054-.007.063-2.563.022-2.554-2.693-.7-2.754-.567-2.783-.407-2.792-.3-2.8-.28-2.812-.089-2.8-.034-2.794.105-2.8.087-2.779.332-2.787.266-2.76.465-2.738.535.031,2.562.009,2.574-.015,2.552.03-.028,2.743-.529,2.764-.4,2.778-.272,2.778-.271,2.788-.115,2.789-.145,2.79.11,2.791.079,2.783.216,2.784.21,2.761.457,2.74.533,2.684.6-.014,3.2,2.688.011,2.711-.013,2.714.043,2.713-.059,2.715.006,2.719-.022,2.677.016,0-3.558Z" transform="translate(86.708 152.164)" fill="#f8cc0d"/><path d="M888.115,230.511v-.022l-.018.016Z" transform="translate(86.579 152.92)" fill="#f8cc0d"/></g><rect width="88" height="88" transform="translate(929 327)" fill="none"/></g></svg>