<svg xmlns="http://www.w3.org/2000/svg" width="90.1" height="116" viewBox="0 0 90.1 116"><g transform="translate(-19 -6)"><path d="M86,9H32A10.029,10.029,0,0,0,22,19v90a10.029,10.029,0,0,0,10,10H96a10.029,10.029,0,0,0,10-10V29A20.059,20.059,0,0,0,86,9Z" fill="#fff"/><path d="M57,104.7a1.268,1.268,0,0,1-.6-.1,1.421,1.421,0,0,1-.6-.2c-.2-.1-.3-.2-.5-.3a1.756,1.756,0,0,1-.5-.4,2.181,2.181,0,0,1-.4-.5c-.1-.2-.2-.3-.3-.5s-.1-.4-.2-.6c0-.2-.1-.4-.1-.6a1.268,1.268,0,0,1,.1-.6,1.421,1.421,0,0,1,.2-.6,2.186,2.186,0,0,1,.3-.5,1.756,1.756,0,0,1,.4-.5,2.181,2.181,0,0,1,.5-.4c.2-.1.3-.2.5-.3s.4-.1.6-.2a2.438,2.438,0,0,1,1.2,0,1.421,1.421,0,0,1,.6.2,2.186,2.186,0,0,1,.5.3,1.756,1.756,0,0,1,.5.4,2.181,2.181,0,0,1,.4.5c.1.2.2.3.3.5s.1.4.2.6c0,.2.1.4.1.6a1.268,1.268,0,0,1-.1.6,1.421,1.421,0,0,1-.2.6,2.186,2.186,0,0,1-.3.5,1.756,1.756,0,0,1-.4.5A3.212,3.212,0,0,1,57,104.7Z" fill="#71c2ff"/><path d="M74.5,107a4.963,4.963,0,0,1-4.6-2.9V104a3.064,3.064,0,0,1-3.2.3,2.878,2.878,0,0,1-1.3-4,5.215,5.215,0,0,1,4.7-2.9,5.087,5.087,0,0,1,4.3,2.3l.8-2.6a5.79,5.79,0,0,1,10.6-1l2,3.8a1.565,1.565,0,0,0,1.1.8,1.915,1.915,0,0,0,1.3-.4,2.97,2.97,0,0,1,4.2,4.2,7.247,7.247,0,0,1-6.4,2.1,7.486,7.486,0,0,1-5.5-3.9l-1.8-3.3-1.2,4A5.027,5.027,0,0,1,75,107Z" fill="#71c2ff"/><path d="M86,62H42a3,3,0,0,1,0-6H86a3,3,0,0,1,0,6Z" fill="#e9eef4"/><path d="M76,32H52a3,3,0,0,1,0-6H76a3,3,0,0,1,0,6Z" fill="#e9eef4"/><path d="M71,77H42a3,3,0,0,1,0-6H71a3,3,0,0,1,0,6Z" fill="#e9eef4"/><path d="M86,77a2.723,2.723,0,0,1-2.1-.9,2.181,2.181,0,0,1-.4-.5c-.1-.2-.2-.3-.3-.5s-.1-.4-.2-.6c0-.2-.1-.4-.1-.6a2.723,2.723,0,0,1,.9-2.1,2.181,2.181,0,0,1,.5-.4c.2-.1.3-.2.5-.3s.4-.1.6-.2a2.965,2.965,0,0,1,2.7.8,2.878,2.878,0,0,1,.9,2.1,1.268,1.268,0,0,1-.1.6,1.421,1.421,0,0,1-.2.6,2.186,2.186,0,0,1-.3.5,1.756,1.756,0,0,1-.4.5A2.221,2.221,0,0,1,86,77Z" fill="#e9eef4"/><path d="M106,29H96A10.029,10.029,0,0,1,86,19V9h0a20.059,20.059,0,0,1,20,20Z" fill="#fff"/><path d="M102.3,12.8A22.763,22.763,0,0,0,86,6H32A12.974,12.974,0,0,0,19,19v90c0,7.3,5.9,13,11,13H93.8c8.7,0,15-5.5,15-13l.1-67a2.946,2.946,0,0,0-3-3h0a2.946,2.946,0,0,0-3,3l-.1,67c0,4.2-3.6,7-9,7H30c-1.7,0-5-3-5-7V19a6.957,6.957,0,0,1,7-7H83v7A12.974,12.974,0,0,0,96,32h10a3.256,3.256,0,0,0,2.8-1.8,2.663,2.663,0,0,0,.3-1.2v-.4A23.31,23.31,0,0,0,102.3,12.8ZM89,19V12.3A16.952,16.952,0,0,1,102.7,26H96A6.957,6.957,0,0,1,89,19Z" fill="#444b54"/></g></svg>