<svg xmlns="http://www.w3.org/2000/svg" id="Layer_1" x="0" y="0" version="1.1" viewBox="0 0 128 128" xml:space="preserve"><polygon fill="#fff" points="10,124 10,54 22,54 22,34 34,34 34,22 46,22 46,4 81,4 81,22 93,22 93,34 105,34 105,54 117,54 117,124"/><path fill="#444b54" d="M58,13c-1.7,0-3,1.3-3,3v98c0,1.7,1.3,3,3,3s3-1.3,3-3V16C61,14.3,59.7,13,58,13z"/><path fill="#444b54" d="M31.2,115.1c0.1,0.2,0.2,0.4,0.3,0.5c0.1,0.2,0.2,0.3,0.4,0.5c0.6,0.6,1.3,0.9,2.1,0.9s1.6-0.3,2.1-0.9 c0.6-0.6,0.9-1.3,0.9-2.1c0-0.2,0-0.4-0.1-0.6c0-0.2-0.1-0.4-0.2-0.6c-0.1-0.2-0.2-0.3-0.3-0.5c-0.1-0.2-0.2-0.3-0.4-0.5 c-0.1-0.1-0.3-0.3-0.4-0.4c-0.2-0.1-0.3-0.2-0.5-0.3c-0.2-0.1-0.4-0.1-0.6-0.2c-1-0.2-2,0.1-2.7,0.8c-0.1,0.1-0.3,0.3-0.4,0.5 c-0.1,0.2-0.2,0.3-0.3,0.5c-0.1,0.2-0.1,0.4-0.2,0.6c0,0.2-0.1,0.4-0.1,0.6c0,0.2,0,0.4,0.1,0.6C31.1,114.8,31.1,115,31.2,115.1z"/><circle cx="34" cy="68" r="3" fill="#444b54"/><circle cx="34" cy="56.5" r="3" fill="#444b54"/><circle cx="34" cy="102.5" r="3" fill="#444b54"/><circle cx="34" cy="91" r="3" fill="#444b54"/><circle cx="34" cy="79.5" r="3" fill="#444b54"/><path fill="#444b54" d="M34,48c0.8,0,1.6-0.3,2.1-0.9c0.6-0.6,0.9-1.3,0.9-2.1s-0.3-1.6-0.9-2.1c-0.1-0.1-0.3-0.3-0.4-0.4 c-0.2-0.1-0.3-0.2-0.5-0.3c-0.2-0.1-0.4-0.1-0.6-0.2c-0.4-0.1-0.8-0.1-1.2,0c-0.2,0-0.4,0.1-0.6,0.2c-0.2,0.1-0.3,0.2-0.5,0.3 c-0.2,0.1-0.3,0.2-0.4,0.4s-0.3,0.3-0.4,0.5c-0.1,0.2-0.2,0.3-0.3,0.5c-0.1,0.2-0.1,0.4-0.2,0.6c0,0.2-0.1,0.4-0.1,0.6 c0,0.8,0.3,1.6,0.9,2.1C32.4,47.7,33.2,48,34,48z"/><path fill="#444b54" d="M70,13c-1.7,0-3,1.3-3,3v98c0,1.7,1.3,3,3,3s3-1.3,3-3V16C73,14.3,71.7,13,70,13z"/><circle cx="93" cy="102" r="3" fill="#444b54"/><path fill="#444b54" d="M93,111c-1.7,0-3,1.3-3,3c0,1.6,1.3,3,3,3c1.7,0,3-1.4,3-3C96,112.3,94.7,111,93,111z"/><circle cx="93" cy="90" r="3" fill="#444b54"/><circle cx="93" cy="66" r="3" fill="#444b54"/><circle cx="93" cy="54" r="3" fill="#444b54"/><circle cx="93" cy="78" r="3" fill="#444b54"/><path fill="#444b54" d="M124,121h-4V54c0-1.7-1.3-3-3-3h-9V34c0-1.7-1.3-3-3-3h-9v-9c0-1.7-1.3-3-3-3h-9V4c0-1.7-1.3-3-3-3H46 c-1.7,0-3,1.3-3,3v15h-9c-1.7,0-3,1.3-3,3v9h-9c-1.7,0-3,1.3-3,3v17h-9c-1.7,0-3,1.3-3,3v67H4c-1.7,0-3,1.3-3,3s1.3,3,3,3h42h35 h43c1.7,0,3-1.3,3-3S125.7,121,124,121z M114,57v64h-6V57H114z M102,121H84V37h18V121z M90,25v6h-6v-6H90z M37,25h6v6h-6V25z M25,37h18v84H25V37z M13,57h6v64h-6V57z M49,121V7h29v114H49z"/></svg>