<svg xmlns="http://www.w3.org/2000/svg" width="126" height="100" viewBox="0 0 126 100"><g transform="translate(-1 -14)"><path d="M114,111H34a10.029,10.029,0,0,1-10-10V57A10.029,10.029,0,0,1,34,47h80a10.029,10.029,0,0,1,10,10v44a10.029,10.029,0,0,1-10,10" fill="#6ec6af"/><path d="M74,94A15,15,0,1,1,89,79,15,15,0,0,1,74,94m40-37H34v44h80V57" fill="#c5e8df"/><path d="M74,64A15,15,0,1,0,89,79,15,15,0,0,0,74,64" fill="#eef8f5"/><path d="M114,114H34a12.974,12.974,0,0,1-13-13V91a3,3,0,0,1,6,0v10a6.957,6.957,0,0,0,7,7h80a6.957,6.957,0,0,0,7-7V57a6.957,6.957,0,0,0-7-7,3,3,0,0,1,0-6,12.974,12.974,0,0,1,13,13v44A12.974,12.974,0,0,1,114,114Z" fill="#444b54"/><path d="M94,81H14A10.029,10.029,0,0,1,4,71V27A10.029,10.029,0,0,1,14,17H94a10.029,10.029,0,0,1,10,10V71A10.029,10.029,0,0,1,94,81" fill="#6ec6af"/><path d="M54,64A15,15,0,1,1,69,49,15,15,0,0,1,54,64M94,27H14V71H94V27" fill="#c5e8df"/><path d="M54,34A15,15,0,1,0,69,49,15,15,0,0,0,54,34" fill="#f3f2fa"/><path d="M94,84H14A12.974,12.974,0,0,1,1,71V27A12.974,12.974,0,0,1,14,14H94a12.974,12.974,0,0,1,13,13V71A12.974,12.974,0,0,1,94,84ZM14,20a6.957,6.957,0,0,0-7,7V71a6.957,6.957,0,0,0,7,7H94a6.957,6.957,0,0,0,7-7V27a6.957,6.957,0,0,0-7-7Z" fill="#444b54"/></g></svg>