<?xml version="1.0" encoding="utf-8"?>
<!-- Generator: Adobe Illustrator 27.9.0, SVG Export Plug-In . SVG Version: 6.00 Build 0)  -->
<svg version="1.1" id="Layer_1" xmlns="http://www.w3.org/2000/svg" xmlns:xlink="http://www.w3.org/1999/xlink" x="0px" y="0px"
	 viewBox="0 0 496.5 69.2" style="enable-background:new 0 0 496.5 69.2;" xml:space="preserve">
<style type="text/css">
	.st0{fill:url(#SVGID_1_);}
	.st1{fill:#FFFFFF;}
</style>
<linearGradient id="SVGID_1_" gradientUnits="userSpaceOnUse" x1="2340.1399" y1="771.45" x2="2370.24" y2="771.45" gradientTransform="matrix(-1 0 0 1 2370.24 -720)">
	<stop  offset="0" style="stop-color:#FFFFFF"/>
	<stop  offset="1" style="stop-color:#E6E7E8"/>
</linearGradient>
<polygon class="st0" points="30.1,68 0,68 0,34.9 "/>
<circle class="st1" cx="25.9" cy="43" r="9"/>
<polygon class="st1" points="30.1,0 0,34.9 0,68 "/>
<g>
	<path class="st1" d="M58.2,68.2h-7.8V30.5h7.8V68.2z"/>
	<path class="st1" d="M87,41.9c1.8,1.5,2.7,4,2.7,7.5v18.8h-7.5v-17c0.1-1.2-0.1-2.3-0.6-3.4c-0.7-1.4-2.1-2.2-4.1-2.2
		c-2.2-0.2-4.2,1.1-5,3.2c-0.5,1.4-0.8,2.8-0.7,4.2v15.1h-7.3V40.4h7.1v4.1c0.7-1.2,1.6-2.2,2.7-3.1c1.7-1.2,3.7-1.8,5.7-1.7
		C82.5,39.5,85,40.3,87,41.9z"/>
	<path class="st1" d="M92.7,45.8v-5.2h3.9v-7.8h7.2v7.8h4.5v5.2h-4.5v14.7c-0.1,0.7,0,1.5,0.4,2.1c0.3,0.3,1.2,0.4,2.7,0.4h0.7h0.7
		v5.5l-3.4,0.1c-3.4,0.1-5.8-0.5-7.1-1.8c-0.9-1.1-1.3-2.5-1.2-3.9V45.8H92.7z"/>
	<path class="st1" d="M130.3,40.9c2,0.9,3.6,2.3,4.8,4.1c1.2,1.7,1.9,3.7,2.2,5.8c0.2,1.8,0.3,3.7,0.2,5.5h-20.3
		c0.1,2.8,1.1,4.8,2.9,5.9c1.2,0.7,2.6,1.1,4,1c1.4,0.1,2.9-0.4,4-1.3c0.6-0.5,1.1-1.2,1.5-1.9h7.4c-0.3,1.9-1.3,3.7-2.7,5
		c-2.5,2.7-6,4.1-10.5,4.1c-3.6,0-7-1.2-9.8-3.4c-2.8-2.3-4.3-6-4.3-11.2c0-4.8,1.3-8.5,3.8-11.1c2.7-2.6,6.3-4,10-3.9
		C125.9,39.5,128.2,39.9,130.3,40.9L130.3,40.9z M119.4,47.2c-1.1,1.2-1.8,2.7-1.9,4.3H130c0-1.7-0.7-3.3-1.9-4.4
		c-1.2-1-2.7-1.6-4.3-1.5C122.1,45.5,120.5,46,119.4,47.2z"/>
	<path class="st1" d="M156.8,39.7h0.6v7.5c-0.5,0-0.9-0.1-1.2-0.1h-0.9c-2.9,0-4.9,1-5.9,2.9c-0.7,1.6-0.9,3.3-0.8,5v13.3h-7.3v-28
		h7v4.9c0.8-1.4,1.8-2.7,2.9-3.8c1.5-1.2,3.4-1.8,5.3-1.7H156.8z"/>
	<path class="st1" d="M172.2,51.2c1-0.1,2-0.3,2.9-0.6s1.6-1.1,1.6-2.1c0.1-1-0.4-1.9-1.2-2.4c-1.1-0.5-2.3-0.7-3.5-0.7
		c-1.4-0.1-2.7,0.3-3.7,1.3c-0.6,0.7-0.9,1.6-1,2.5h-7c0.1-2.2,0.8-4.3,2.1-6c1.9-2.5,5.3-3.7,10-3.7c2.8-0.1,5.6,0.6,8.2,1.8
		c2.4,1.2,3.6,3.5,3.6,6.8v12.8c0,0.9,0,2,0.1,3.2c0,0.7,0.1,1.3,0.4,1.9c0.3,0.4,0.7,0.7,1.1,0.8v1.1h-7.9c-0.2-0.5-0.4-1-0.5-1.6
		c-0.1-0.5-0.1-1.1-0.2-1.7c-1,1.1-2.2,2-3.5,2.8c-1.7,0.9-3.6,1.4-5.5,1.4c-2.3,0.1-4.5-0.7-6.3-2.2c-1.7-1.6-2.6-3.8-2.5-6.1
		c0-3.4,1.3-5.9,4-7.5c2-1,4.2-1.6,6.4-1.8L172.2,51.2z M176.7,54.6c-0.4,0.3-0.9,0.5-1.4,0.7c-0.6,0.2-1.3,0.4-2,0.5l-1.7,0.3
		c-1.2,0.2-2.3,0.5-3.4,1c-1.1,0.6-1.8,1.8-1.7,3.1c-0.1,1,0.3,2,1.1,2.7c0.7,0.6,1.6,0.9,2.6,0.8c1.6,0,3.1-0.5,4.4-1.4
		c1.3-0.9,2-2.6,2.1-5L176.7,54.6z"/>
	<path class="st1" d="M206.4,50.3c-0.1-1-0.5-2-1-2.8c-0.9-1.2-2.3-1.8-3.8-1.7c-2.3-0.1-4.4,1.4-5.1,3.7c-0.5,1.7-0.8,3.4-0.7,5.2
		c-0.1,1.7,0.2,3.3,0.7,4.9c0.6,2.1,2.6,3.6,4.9,3.5c1.4,0.1,2.7-0.4,3.6-1.4c0.8-1,1.2-2.3,1.3-3.6h7.4c-0.2,2.3-1,4.5-2.4,6.3
		c-2.3,3.2-5.7,4.8-10.2,4.8s-7.8-1.3-9.9-4c-2.2-3-3.3-6.6-3.2-10.3c0-4.8,1.2-8.5,3.5-11.2s5.6-4,9.7-4c3.1-0.1,6.1,0.7,8.6,2.4
		c2.2,1.6,3.5,4.3,3.9,8.3h-7.3V50.3z"/>
	<path class="st1" d="M215.7,45.8v-5.2h3.9v-7.8h7.2v7.8h4.5v5.2h-4.5v14.7c-0.1,0.7,0.1,1.5,0.4,2.1c0.3,0.3,1.2,0.4,2.7,0.4h0.7
		h0.7v5.5l-3.4,0.1c-3.4,0.1-5.8-0.5-7.1-1.8c-0.9-1.1-1.3-2.5-1.2-3.9V45.8H215.7z"/>
	<path class="st1" d="M243.1,37h-7.4v-6.7h7.4V37z M235.7,40.3h7.4v27.8h-7.4V40.3z"/>
	<path class="st1" d="M266.3,40.3h7.8L264,68.2h-7.7l-10-27.9h8.2l5.8,20.6L266.3,40.3z"/>
	<path class="st1" d="M294.9,40.9c2,0.9,3.6,2.3,4.8,4.1c1.2,1.7,1.9,3.7,2.2,5.8c0.2,1.8,0.3,3.7,0.2,5.5h-20.3
		c0.1,2.8,1.1,4.8,2.9,5.9c1.2,0.7,2.6,1.1,4,1c1.5,0.1,2.9-0.4,4-1.3c0.6-0.5,1.1-1.2,1.5-1.9h7.4c-0.3,1.9-1.3,3.7-2.7,5
		c-2.5,2.7-6,4.1-10.5,4.1c-3.6,0-7.1-1.2-9.8-3.4c-2.8-2.3-4.2-6-4.2-11.2c0-4.8,1.3-8.5,3.8-11.1c2.7-2.6,6.3-4,10-3.9
		C290.6,39.5,292.8,39.9,294.9,40.9z M284,47.2c-1.1,1.2-1.8,2.7-2,4.3h12.5c0-1.7-0.7-3.3-1.9-4.4c-1.2-1-2.7-1.6-4.3-1.5
		C286.7,45.5,285.2,46.1,284,47.2L284,47.2z"/>
	<path class="st1" d="M317.5,30.6h5.7l13.6,37.6h-5.6L327.3,57h-14.7l-4.1,11.2h-5.2L317.5,30.6z M325.9,52.8l-5.8-16.6l-6,16.6
		C314.1,52.8,325.9,52.8,325.9,52.8z"/>
	<path class="st1" d="M354.6,41.6c1.1,0.7,2,1.6,2.8,2.7V30.5h4.4v37.7h-4.1v-3.8c-0.9,1.5-2.2,2.8-3.8,3.6c-1.6,0.8-3.3,1.2-5,1.1
		c-3.1,0-6-1.4-7.9-3.8c-2.2-2.6-3.3-6-3.3-10.2c-0.1-3.7,0.9-7.3,3-10.4c1.9-2.9,5.2-4.5,8.7-4.4C351.2,40.2,353,40.7,354.6,41.6
		L354.6,41.6z M344.4,62.2c1.3,2,3.6,3.2,6,3c2.1,0,4.1-1,5.2-2.8c1.3-1.8,2-4.5,2-7.9s-0.7-6-2.1-7.7c-1.3-1.6-3.2-2.5-5.2-2.5
		c-2.2-0.1-4.3,0.9-5.6,2.7c-1.4,1.8-2.1,4.4-2.1,7.8C342.4,57.4,343.1,59.9,344.4,62.2L344.4,62.2z"/>
	<path class="st1" d="M370.4,40.8l7.3,22.3l7.6-22.3h5L380,68.2h-4.9L365,40.8H370.4z"/>
	<path class="st1" d="M393.6,30.6h4.7v5.2h-4.7V30.6z M393.6,40.9h4.7v27.3h-4.7V40.9z"/>
	<path class="st1" d="M407.1,59.6c0,1.3,0.5,2.5,1.2,3.5c1.2,1.5,3.2,2.2,6.2,2.2c1.6,0,3.2-0.4,4.6-1.1c1.3-0.7,2.1-2,2-3.4
		c0-1.1-0.6-2.2-1.6-2.7c-1.3-0.6-2.6-1-4-1.3l-3.7-0.9c-1.8-0.4-3.6-1-5.2-1.9c-1.9-1-3-3-3-5.2c-0.1-2.4,1-4.7,2.8-6.3
		c2.2-1.7,4.9-2.5,7.6-2.4c4.2,0,7.2,1.2,9,3.6c1.1,1.4,1.7,3.2,1.7,5h-4.3c-0.1-1-0.5-2-1.1-2.8c-1.1-1.3-3-1.9-5.6-1.9
		c-1.4-0.1-2.8,0.3-4,1c-0.9,0.6-1.4,1.6-1.4,2.6c0,1.2,0.7,2.3,1.8,2.8c0.9,0.5,2,0.9,3,1.2l3.1,0.7c2.4,0.4,4.6,1.2,6.8,2.3
		c1.8,1.2,2.8,3.4,2.7,5.5c0,2.4-1,4.7-2.8,6.3c-1.9,1.8-4.7,2.7-8.6,2.7c-4.1,0-7-0.9-8.8-2.8c-1.7-1.9-2.7-4.3-2.8-6.9L407.1,59.6
		z"/>
	<path class="st1" d="M450,43.5c2.4,2.4,3.6,5.8,3.6,10.4c0.2,3.9-1,7.7-3.2,10.9c-2.1,2.9-5.5,4.3-9.9,4.3
		c-3.4,0.2-6.7-1.3-8.9-3.8c-2.2-2.5-3.3-6-3.3-10.2c0-4.6,1.2-8.3,3.5-11s5.7-4.2,9.3-4.1C444.4,39.9,447.6,41.2,450,43.5L450,43.5
		z M447.1,61.7c1.1-2.4,1.7-5,1.7-7.7c0.1-2.1-0.3-4.3-1.2-6.2c-1.3-2.5-3.5-3.8-6.6-3.8c-2.5-0.2-4.8,1.1-6.1,3.2
		c-1.3,2.4-2,5.1-1.9,7.8c-0.1,2.6,0.6,5.1,1.9,7.3c1.3,2,3.6,3.1,6,2.9C443.9,65.2,446,64,447.1,61.7L447.1,61.7z"/>
	<path class="st1" d="M458.4,40.8h4.4v4.7c0.6-1.3,1.5-2.4,2.6-3.4c1.3-1.3,3-2,4.8-2h0.4l1,0.1v4.9c-0.3-0.1-0.5-0.1-0.8-0.1
		c-0.2,0-0.5,0-0.8,0c-2-0.1-4,0.7-5.3,2.2c-1.2,1.4-1.9,3.3-1.9,5.2v15.8h-4.6L458.4,40.8z"/>
	<path class="st1" d="M478,59.6c0,1.3,0.5,2.5,1.2,3.5c1.2,1.5,3.2,2.2,6.2,2.2c1.6,0,3.2-0.3,4.7-1.1c1.3-0.7,2.1-2,2-3.4
		c0-1.1-0.6-2.2-1.6-2.7c-1.3-0.6-2.6-1-4-1.3l-3.7-0.9c-1.8-0.4-3.6-1-5.2-1.9c-1.9-1-3-3-3-5.2c-0.1-2.4,1-4.7,2.8-6.3
		c2.2-1.7,4.9-2.5,7.6-2.4c4.2,0,7.2,1.2,9,3.6c1.1,1.4,1.7,3.2,1.7,5h-4.3c-0.1-1-0.5-2-1.1-2.8c-1.1-1.3-3-1.9-5.7-1.9
		c-1.4-0.1-2.8,0.3-4,1c-0.9,0.6-1.4,1.6-1.4,2.6c0,1.2,0.7,2.3,1.8,2.8c1,0.5,2,0.9,3.1,1.1l3.1,0.7c2.4,0.4,4.6,1.2,6.8,2.3
		c1.8,1.2,2.8,3.4,2.7,5.5c0,2.4-1,4.7-2.8,6.3c-1.9,1.8-4.7,2.7-8.6,2.7c-4.1,0-7-0.9-8.8-2.8c-1.7-1.9-2.7-4.3-2.8-6.9L478,59.6z"
		/>
</g>
</svg>
