<?xml version="1.0" encoding="utf-8"?>
<!-- Generator: Adobe Illustrator 27.0.0, SVG Export Plug-In . SVG Version: 6.00 Build 0)  -->
<svg version="1.1" id="Layer_1" xmlns="http://www.w3.org/2000/svg" xmlns:xlink="http://www.w3.org/1999/xlink" x="0px" y="0px"
	 viewBox="0 0 235 40" style="enable-background:new 0 0 235 40;" xml:space="preserve">
<style type="text/css">
	.st0{fill:#80CBC4;}
	.st1{fill:#FFFFFF;}
</style>
<g>
	<path class="st0" d="M4.2,0h31.5C38.1,0,40,1.9,40,4.2v31.5c0,2.3-1.9,4.2-4.2,4.2H4.2C1.9,40,0,38.1,0,35.8V4.2C0,1.9,1.9,0,4.2,0
		z"/>
	<path class="st1" d="M20,5.4C12,5.4,5.4,12,5.4,20S11.9,34.6,20,34.6c8,0,14.6-6.5,14.6-14.5c0,0,0,0,0,0C34.5,12,28,5.5,20,5.4z
		 M20.9,15.4c1.7,0,3.4-0.2,5-0.6c0.3,1.4,0.5,2.8,0.6,4.3h-5.6V15.4z M20.9,13.6V7.4c1.9,0.5,3.5,2.7,4.6,5.7
		C23.9,13.4,22.4,13.6,20.9,13.6z M19.1,7.4v6.3c-1.5,0-3.1-0.2-4.6-0.5C15.6,10.1,17.2,7.9,19.1,7.4z M19.1,15.4v3.7h-5.6
		c0-1.4,0.2-2.9,0.6-4.3C15.7,15.2,17.4,15.4,19.1,15.4z M11.7,19.1H7.3c0.1-2.1,0.8-4.2,2-6c1,0.5,2,1,3,1.3
		C11.9,16,11.7,17.5,11.7,19.1z M11.7,20.9c0,1.6,0.3,3.2,0.6,4.7c-1,0.3-2.1,0.8-3,1.3c-1.2-1.8-1.8-3.8-2-6L11.7,20.9z M13.5,20.9
		h5.6v3.7c-1.7,0-3.4,0.2-5,0.6C13.7,23.8,13.5,22.3,13.5,20.9z M19.1,26.4v6.3c-1.9-0.5-3.5-2.7-4.6-5.7
		C16,26.6,17.6,26.4,19.1,26.4z M20.9,32.6v-6.3c1.5,0,3.1,0.2,4.6,0.5C24.4,29.9,22.8,32.1,20.9,32.6z M20.9,24.6v-3.7h5.6
		c-0.1,1.4-0.2,2.9-0.6,4.3C24.3,24.8,22.6,24.6,20.9,24.6z M28.3,20.9h4.4c-0.2,2.1-0.8,4.2-2,6c-1-0.5-2-1-3-1.3
		C28.1,24,28.3,22.5,28.3,20.9z M28.3,19.1c-0.1-1.6-0.3-3.2-0.6-4.7c1.1-0.3,2.1-0.8,3-1.3c1.2,1.8,1.9,3.9,2,6H28.3z M29.6,11.7
		c-0.8,0.4-1.6,0.7-2.4,1c-0.3-0.9-0.7-1.8-1.2-2.7c-0.3-0.6-0.7-1.1-1.1-1.7C26.8,9,28.4,10.2,29.6,11.7L29.6,11.7z M15,8.3
		c-0.4,0.5-0.8,1-1.1,1.6c-0.5,0.9-0.8,1.8-1.2,2.7c-0.8-0.3-1.6-0.6-2.4-1C11.6,10.2,13.2,9,15,8.3z M10.4,28.3
		c0.8-0.4,1.6-0.7,2.4-1c0.3,0.9,0.7,1.8,1.2,2.7c0.3,0.6,0.7,1.1,1.1,1.7C13.2,31,11.6,29.8,10.4,28.3z M25,31.7
		c0.4-0.5,0.8-1.1,1.1-1.7c0.5-0.9,0.9-1.8,1.2-2.7c0.8,0.3,1.6,0.6,2.4,1C28.3,29.8,26.8,31,25,31.7z"/>
	<path class="st1" d="M69.3,21.4H56.8v10.1h-3.4V8.9h3.4v9.5h12.5V8.9h3.4v22.5h-3.4V21.4z"/>
	<path class="st1" d="M86,29.7c-1.4,1.5-3.3,2.3-5.3,2.2c-3,0.1-5.5-2.2-5.7-5.2c0-0.1,0-0.2,0-0.3c0-3.7,2.9-5.3,5.7-5.3
		c2-0.1,4,0.7,5.3,2.2v-2.7c0-2-1.7-3.3-4-3.3c-1.9,0-3.6,0.8-4.9,2.2l-1.3-2.1c1.8-1.8,4.2-2.7,6.7-2.7c3.5,0,6.5,1.6,6.5,5.7v11
		h-3V29.7z M86,25.1c-1-1.2-2.6-1.9-4.2-1.9c-1.8-0.2-3.4,1-3.7,2.8c-0.2,1.8,1,3.4,2.8,3.7c0.3,0,0.6,0,0.8,0
		c1.6,0.1,3.2-0.6,4.2-1.9V25.1z"/>
	<path class="st1" d="M103.2,21c0-2.7-1.4-3.6-3.5-3.6c-1.8,0.1-3.4,0.9-4.5,2.4v11.7h-3V15.1h3v2.3c1.5-1.7,3.6-2.7,5.8-2.7
		c3.5,0,5.2,1.8,5.2,5.3v11.5h-3V21z"/>
	<path class="st1" d="M121.1,29.1c-1.3,1.7-3.2,2.7-5.3,2.7c-4.3,0-7.3-3.2-7.3-8.6s3-8.6,7.3-8.6c2.1,0,4.1,1,5.3,2.8V8.9h3v22.5
		h-3V29.1z M121.1,19.8c-1-1.5-2.7-2.4-4.5-2.4c-3,0-4.9,2.5-4.9,5.9c0,3.4,1.9,5.9,4.9,5.9c1.8,0,3.5-0.9,4.5-2.4V19.8z"/>
	<path class="st1" d="M128.3,35.4c1.1,0.1,2.1-0.6,2.4-1.6l0.9-2.2l-6.7-16.6h3.3l5.1,12.8l5.1-12.8h3.3l-8,19.5
		c-0.7,2.2-2.9,3.6-5.2,3.5c-0.6,0-1.3-0.1-1.9-0.2l0.5-2.7C127.4,35.3,127.8,35.4,128.3,35.4z"/>
	<path class="st1" d="M155,11.9h-7v-3h17.4v3h-7v19.6H155V11.9z"/>
	<path class="st1" d="M164.4,15.1h3v2.6c1.2-1.7,3.2-2.8,5.3-2.9v3.1c-0.3-0.1-0.7-0.1-1.1-0.1c-1.7,0.1-3.3,1-4.3,2.4v11.3h-3V15.1
		z"/>
	<path class="st1" d="M184.2,29.7c-1.4,1.5-3.3,2.3-5.3,2.2c-3,0.1-5.5-2.2-5.7-5.2c0-0.1,0-0.2,0-0.2c0-3.7,2.9-5.3,5.7-5.3
		c2-0.1,4,0.7,5.3,2.2v-2.7c0-2-1.7-3.3-4-3.3c-1.9,0-3.6,0.8-4.9,2.2l-1.3-2.1c1.8-1.8,4.2-2.7,6.7-2.7c3.5,0,6.5,1.6,6.5,5.7v11
		h-3L184.2,29.7z M184.2,25.1c-1-1.2-2.6-1.9-4.2-1.9c-1.8-0.2-3.4,1-3.7,2.8c-0.2,1.8,1,3.4,2.8,3.7c0.3,0,0.6,0,0.8,0
		c1.6,0.1,3.2-0.6,4.2-1.9V25.1z"/>
	<path class="st1" d="M202,29.1c-1.3,1.7-3.2,2.7-5.3,2.7c-4.3,0-7.3-3.2-7.3-8.6s3-8.6,7.3-8.6c2.1,0,4.1,1,5.3,2.8V8.9h3v22.5h-3
		V29.1z M202,19.8c-1-1.5-2.7-2.4-4.5-2.4c-3,0-4.9,2.5-4.9,5.9c0,3.4,1.9,5.9,4.9,5.9c1.8,0,3.5-0.9,4.5-2.4V19.8z"/>
	<path class="st1" d="M215.4,14.7c4.9,0,7.9,3.8,7.9,8.8v0.7h-12.9c0.2,2.9,2.6,5.2,5.5,5.1c1.8,0,3.5-0.7,4.8-1.9l1.4,1.9
		c-1.8,1.6-4.1,2.5-6.6,2.4c-4.5,0.2-8.3-3.4-8.5-7.9c0-0.2,0-0.5,0-0.7c-0.2-4.5,3.4-8.3,7.9-8.5C215.3,14.7,215.3,14.7,215.4,14.7
		z M210.4,22.1h10c0-2.7-2.1-4.8-4.8-4.9c-0.1,0-0.1,0-0.2,0C212.7,17.2,210.5,19.4,210.4,22.1z"/>
	<path class="st1" d="M225.5,15.1h3v2.6c1.2-1.7,3.2-2.8,5.3-2.9v3.1c-0.3-0.1-0.7-0.1-1-0.1c-1.7,0.1-3.3,1-4.3,2.4v11.3h-3V15.1z"
		/>
</g>
</svg>
