<?xml version="1.0" encoding="utf-8"?>
<!-- Generator: Adobe Illustrator 27.0.0, SVG Export Plug-In . SVG Version: 6.00 Build 0)  -->
<svg version="1.1" id="Layer_1" xmlns="http://www.w3.org/2000/svg" xmlns:xlink="http://www.w3.org/1999/xlink" x="0px" y="0px"
	 viewBox="0 0 40 40" style="enable-background:new 0 0 40 40;" xml:space="preserve">
<style type="text/css">
	.st0{fill:#80CBC4;}
	.st1{fill:#FFFFFF;}
</style>
<path class="st0" d="M4.2,0h31.5C38.1,0,40,1.9,40,4.2v31.5c0,2.3-1.9,4.2-4.2,4.2H4.2C1.9,40,0,38.1,0,35.8V4.2C0,1.9,1.9,0,4.2,0z
	"/>
<path class="st1" d="M20,5.4C12,5.4,5.4,12,5.4,20S11.9,34.6,20,34.6c8,0,14.6-6.5,14.6-14.5l0,0C34.5,12,28,5.5,20,5.4z M20.9,15.4
	c1.7,0,3.4-0.2,5-0.6c0.3,1.4,0.5,2.8,0.6,4.3h-5.6V15.4z M20.9,13.6V7.4c1.9,0.5,3.5,2.7,4.6,5.7C23.9,13.4,22.4,13.6,20.9,13.6z
	 M19.1,7.4v6.3c-1.5,0-3.1-0.2-4.6-0.5C15.6,10.1,17.2,7.9,19.1,7.4z M19.1,15.4v3.7h-5.6c0-1.4,0.2-2.9,0.6-4.3
	C15.7,15.2,17.4,15.4,19.1,15.4z M11.7,19.1H7.3c0.1-2.1,0.8-4.2,2-6c1,0.5,2,1,3,1.3C11.9,16,11.7,17.5,11.7,19.1z M11.7,20.9
	c0,1.6,0.3,3.2,0.6,4.7c-1,0.3-2.1,0.8-3,1.3c-1.2-1.8-1.8-3.8-2-6L11.7,20.9z M13.5,20.9h5.6v3.7c-1.7,0-3.4,0.2-5,0.6
	C13.7,23.8,13.5,22.3,13.5,20.9z M19.1,26.4v6.3c-1.9-0.5-3.5-2.7-4.6-5.7C16,26.6,17.6,26.4,19.1,26.4z M20.9,32.6v-6.3
	c1.5,0,3.1,0.2,4.6,0.5C24.4,29.9,22.8,32.1,20.9,32.6z M20.9,24.6v-3.7h5.6c-0.1,1.4-0.2,2.9-0.6,4.3
	C24.3,24.8,22.6,24.6,20.9,24.6z M28.3,20.9h4.4c-0.2,2.1-0.8,4.2-2,6c-1-0.5-2-1-3-1.3C28.1,24,28.3,22.5,28.3,20.9z M28.3,19.1
	c-0.1-1.6-0.3-3.2-0.6-4.7c1.1-0.3,2.1-0.8,3-1.3c1.2,1.8,1.9,3.9,2,6H28.3z M29.6,11.7c-0.8,0.4-1.6,0.7-2.4,1
	c-0.3-0.9-0.7-1.8-1.2-2.7c-0.3-0.6-0.7-1.1-1.1-1.7C26.8,9,28.4,10.2,29.6,11.7L29.6,11.7z M15,8.3c-0.4,0.5-0.8,1-1.1,1.6
	c-0.5,0.9-0.8,1.8-1.2,2.7c-0.8-0.3-1.6-0.6-2.4-1C11.6,10.2,13.2,9,15,8.3z M10.4,28.3c0.8-0.4,1.6-0.7,2.4-1
	c0.3,0.9,0.7,1.8,1.2,2.7c0.3,0.6,0.7,1.1,1.1,1.7C13.2,31,11.6,29.8,10.4,28.3z M25,31.7c0.4-0.5,0.8-1.1,1.1-1.7
	c0.5-0.9,0.9-1.8,1.2-2.7c0.8,0.3,1.6,0.6,2.4,1C28.3,29.8,26.8,31,25,31.7z"/>
</svg>
