<?xml version="1.0" encoding="UTF-8"?>
<svg id="Layer_1" data-name="Layer 1" xmlns="http://www.w3.org/2000/svg" xmlns:xlink="http://www.w3.org/1999/xlink" version="1.1" viewBox="0 0 737.7 100.3">
  <defs>
    <style>
      .cls-1 {
        fill: url(#linear-gradient);
      }

      .cls-1, .cls-2 {
        stroke-width: 0px;
      }

      .cls-2 {
        fill: #fff;
      }
    </style>
    <linearGradient id="linear-gradient" x1="2712.4" y1="1476.5" x2="2750.2" y2="1476.5" gradientTransform="translate(2750.2 -1412) rotate(-180) scale(1 -1)" gradientUnits="userSpaceOnUse">
      <stop offset="0" stop-color="#fff"/>
      <stop offset="1" stop-color="#e6e7e8"/>
    </linearGradient>
  </defs>
  <g>
    <path class="cls-2" d="M64.1,33.3h10.8v52h-10.8v-52Z"/>
    <path class="cls-2" d="M107.3,85.3h-23.5v-52h25.2c6.4,0,10.9,1.9,13.5,5.5,1.6,2.2,2.4,4.9,2.4,7.9s-.8,5.7-2.4,7.7c-.9,1.1-2.2,2.1-3.9,3,2.7,1,4.7,2.5,6,4.6,1.4,2.1,2,4.6,2,7.6s-.8,5.8-2.3,8.3c-1,1.6-2.2,3-3.7,4.1-1.7,1.3-3.6,2.1-5.9,2.6s-4.7.7-7.4.7ZM112.5,52.5c1.4-.8,2.1-2.4,2.1-4.5s-.9-4-2.8-4.8c-1.6-.5-3.7-.8-6.2-.8h-11.5v11.5h12.8c2.3,0,4.1-.5,5.6-1.4ZM107.1,62.4h-13v13.9h12.8c2.3,0,4.1-.3,5.3-.9,2.3-1.1,3.5-3.3,3.5-6.5s-1.1-4.6-3.4-5.6c-1.2-.6-3-.9-5.2-.9Z"/>
    <path class="cls-2" d="M179.8,85.3h-14l-16-22.7-5.2,5.3v17.4h-10.7v-52h10.7v21.4l20.1-21.4h14l-21.3,21.4,22.4,30.6Z"/>
    <path class="cls-2" d="M205.1,64.9h-11.2v20.4h-10.6v-52h25.5c3.6,0,6.4.5,8.4,1.3s3.6,2,5,3.6c1.1,1.3,2,2.8,2.7,4.4.7,1.6,1,3.4,1,5.5s-.6,4.9-1.9,7.3-3.3,4.1-6.2,5.1c2.4,1,4.1,2.3,5.1,4.1,1,1.8,1.5,4.5,1.5,8.1v3.5c0,2.4.1,4,.3,4.8.3,1.3.9,2.3,2,3v1.3h-12c-.3-1.2-.6-2.1-.7-2.8-.3-1.5-.4-3-.5-4.5v-4.8c-.1-3.3-.8-5.5-1.9-6.6-1.2-1.1-3.4-1.7-6.5-1.7h0ZM211.6,55.5c2.2-1,3.2-2.9,3.2-5.9s-1-5.3-3.1-6.3c-1.2-.6-2.9-.9-5.3-.9h-12.6v14h12.3c2.5,0,4.3-.4,5.5-.9h0Z"/>
    <path class="cls-2" d="M272.4,33.2c5.2,0,9.2,1.3,11.9,4,2.7,2.7,4,6.5,4,11.3s-1.3,8.6-4,11.4c-2.7,2.7-6.7,4.1-11.9,4h-15.9v21.3h-6.9v-52s22.8,0,22.8,0ZM270.1,58.1c3.9,0,6.8-.8,8.6-2.4,1.8-1.7,2.7-4,2.7-7.1s-.9-5.5-2.7-7.1c-1.8-1.6-4.7-2.4-8.6-2.4h-13.5v19.1h13.5Z"/>
    <path class="cls-2" d="M290.6,58.7c.8-2.4,1.9-4.5,3.5-6.3s3.5-3.2,5.8-4.2,4.9-1.5,7.9-1.5,5.6.5,7.9,1.5,4.2,2.4,5.7,4.2c1.6,1.8,2.7,3.9,3.5,6.3.8,2.4,1.2,5,1.2,7.8s-.4,5.3-1.2,7.7c-.8,2.4-1.9,4.5-3.5,6.2-1.6,1.8-3.5,3.2-5.7,4.2-2.3,1-4.9,1.5-7.9,1.5s-5.6-.5-7.9-1.5-4.2-2.4-5.8-4.2c-1.6-1.8-2.7-3.8-3.5-6.2-.8-2.4-1.2-5-1.2-7.7s.4-5.4,1.2-7.8ZM296.9,72.5c.6,1.8,1.4,3.3,2.5,4.4,1.1,1.2,2.3,2.1,3.8,2.7,1.4.6,2.9.9,4.6.9s3.1-.3,4.6-.9c1.4-.6,2.7-1.5,3.8-2.7,1.1-1.2,1.9-2.7,2.5-4.4.6-1.8.9-3.8.9-6.1s-.3-4.3-.9-6.1-1.4-3.3-2.5-4.5-2.3-2.1-3.8-2.8c-1.4-.6-3-.9-4.6-.9s-3.1.3-4.6.9c-1.4.6-2.7,1.6-3.8,2.8-1.1,1.2-1.9,2.7-2.5,4.5s-.9,3.8-.9,6.1.3,4.3.9,6.1Z"/>
    <path class="cls-2" d="M337.4,47.6v7.9h.1c1.5-3.1,3.4-5.3,5.5-6.8,2.2-1.5,5-2.1,8.3-2v6.6c-2.5,0-4.6.3-6.3,1-1.7.7-3.2,1.7-4.2,3-1.1,1.3-1.8,2.9-2.3,4.8s-.7,4-.7,6.4v16.8h-6.2v-37.7h5.8Z"/>
    <path class="cls-2" d="M375.3,47.6v5.5h-7.5v23.4c0,.7,0,1.3.2,1.7.1.4.4.8.7,1,.3.2.8.4,1.4.5.6,0,1.4,0,2.4,0h2.8v5.5h-4.7c-1.6,0-3,0-4.1-.3-1.1-.2-2.1-.6-2.8-1.2-.7-.6-1.2-1.4-1.6-2.5-.3-1.1-.5-2.5-.5-4.2v-24h-6.4v-5.5h6.4v-11.3h6.2v11.3h7.5Z"/>
    <path class="cls-2" d="M378.7,53v-5.5h6.3v-5.6c0-3.1.9-5.4,2.7-7,1.8-1.6,4.4-2.4,7.8-2.4s1.2,0,2,0c.8,0,1.4.2,2,.4v5.4c-.5-.2-1.1-.3-1.7-.4-.6,0-1.2,0-1.7,0-1.5,0-2.7.3-3.5.9-.8.6-1.2,1.7-1.2,3.3v5.2h7.3v5.5h-7.3v32.2h-6.2v-32.2h-6.3l-.2.2Z"/>
    <path class="cls-2" d="M401.7,58.7c.8-2.4,1.9-4.5,3.5-6.3s3.5-3.2,5.8-4.2,4.9-1.5,7.9-1.5,5.6.5,7.9,1.5,4.2,2.4,5.7,4.2c1.6,1.8,2.7,3.9,3.5,6.3.8,2.4,1.2,5,1.2,7.8s-.4,5.3-1.2,7.7c-.8,2.4-1.9,4.5-3.5,6.2-1.6,1.8-3.5,3.2-5.7,4.2-2.3,1-4.9,1.5-7.9,1.5s-5.6-.5-7.9-1.5-4.2-2.4-5.8-4.2c-1.6-1.8-2.7-3.8-3.5-6.2-.8-2.4-1.2-5-1.2-7.7s.4-5.4,1.2-7.8ZM408,72.5c.6,1.8,1.4,3.3,2.5,4.4,1.1,1.2,2.3,2.1,3.8,2.7,1.4.6,2.9.9,4.6.9s3.1-.3,4.6-.9c1.4-.6,2.7-1.5,3.8-2.7,1.1-1.2,1.9-2.7,2.5-4.4.6-1.8.9-3.8.9-6.1s-.3-4.3-.9-6.1-1.4-3.3-2.5-4.5-2.3-2.1-3.8-2.8c-1.4-.6-2.9-.9-4.6-.9s-3.1.3-4.6.9c-1.4.6-2.7,1.6-3.8,2.8-1.1,1.2-1.9,2.7-2.5,4.5s-.9,3.8-.9,6.1.3,4.3.9,6.1Z"/>
    <path class="cls-2" d="M449.5,33.2v52h-6.2v-52s6.2,0,6.2,0Z"/>
    <path class="cls-2" d="M457.6,40.8v-7.6h6.2v7.6h-6.2ZM463.8,47.6v37.7h-6.2v-37.7s6.2,0,6.2,0Z"/>
    <path class="cls-2" d="M471.1,58.7c.8-2.4,1.9-4.5,3.5-6.3s3.5-3.2,5.8-4.2,4.9-1.5,7.9-1.5,5.6.5,7.9,1.5,4.2,2.4,5.7,4.2c1.6,1.8,2.7,3.9,3.5,6.3.8,2.4,1.2,5,1.2,7.8s-.4,5.3-1.2,7.7c-.8,2.4-1.9,4.5-3.5,6.2-1.6,1.8-3.5,3.2-5.7,4.2-2.3,1-4.9,1.5-7.9,1.5s-5.6-.5-7.9-1.5-4.2-2.4-5.8-4.2c-1.6-1.8-2.7-3.8-3.5-6.2-.8-2.4-1.2-5-1.2-7.7s.4-5.4,1.2-7.8ZM477.4,72.5c.6,1.8,1.4,3.3,2.5,4.4,1.1,1.2,2.3,2.1,3.8,2.7,1.4.6,2.9.9,4.6.9s3.1-.3,4.6-.9c1.4-.6,2.7-1.5,3.8-2.7,1.1-1.2,1.9-2.7,2.5-4.4.6-1.8.9-3.8.9-6.1s-.3-4.3-.9-6.1-1.4-3.3-2.5-4.5-2.3-2.1-3.8-2.8c-1.4-.6-2.9-.9-4.6-.9s-3.1.3-4.6.9c-1.4.6-2.7,1.6-3.8,2.8-1.1,1.2-1.9,2.7-2.5,4.5s-.9,3.8-.9,6.1.3,4.3.9,6.1Z"/>
    <path class="cls-2" d="M535,33.2l20.3,52h-7.6l-5.7-15.7h-22l-5.8,15.7h-7.1l20.2-52h7.7ZM539.9,63.7l-8.7-24.3h0l-8.8,24.3h17.6Z"/>
    <path class="cls-2" d="M565.3,47.6v6h0c2.6-4.6,6.7-6.8,12.2-6.8s4.5.3,6.2,1c1.6.7,3,1.6,4,2.8s1.7,2.7,2.1,4.3c.4,1.7.6,3.5.6,5.6v24.8h-6.2v-25.5c0-2.3-.7-4.2-2-5.5-1.4-1.4-3.2-2-5.6-2s-3.5.3-4.9.9c-1.4.6-2.5,1.4-3.5,2.5-.9,1.1-1.6,2.3-2.1,3.8-.5,1.4-.7,3-.7,4.7v21.3h-6.2v-37.7h5.8l.2-.2Z"/>
    <path class="cls-2" d="M631.5,85.1c-1.1.6-2.5.9-4.4.9s-2.9-.4-3.8-1.3c-.9-.9-1.4-2.4-1.4-4.4-1.7,2-3.7,3.5-5.9,4.4-2.3.9-4.7,1.3-7.3,1.3s-3.3-.2-4.8-.6-2.9-1-4-1.8-2-1.9-2.7-3.2c-.7-1.3-1-2.9-1-4.8s.4-3.9,1.1-5.2c.7-1.4,1.7-2.5,2.9-3.3s2.5-1.5,4.1-1.9c1.5-.4,3.1-.8,4.7-1.1,1.7-.3,3.3-.6,4.8-.8s2.9-.4,4-.7c1.2-.3,2.1-.8,2.8-1.4.7-.6,1-1.5,1-2.7s-.3-2.5-.8-3.3-1.2-1.5-2-1.9-1.7-.7-2.7-.9c-1,0-2-.2-3-.2-2.6,0-4.8.5-6.6,1.5-1.7,1-2.7,2.9-2.8,5.6h-6.2c0-2.3.6-4.3,1.5-5.9s2-2.9,3.5-3.9,3.1-1.7,5-2.1c1.9-.4,3.9-.7,6-.7s3.4,0,5.1.4,3.2.7,4.6,1.5,2.5,1.8,3.3,3.2,1.2,3.1,1.2,5.3v19.3c0,1.5,0,2.5.3,3.2.2.7.7,1,1.7,1s1.2,0,1.9-.3v4.8h0ZM621.4,65.8c-.8.6-1.8,1-3.1,1.3s-2.6.5-4,.7-2.8.4-4.2.6-2.7.6-3.8,1c-1.1.5-2,1.2-2.7,2.1s-1.1,2.1-1.1,3.7.2,1.9.6,2.6c.4.7.9,1.3,1.6,1.7.7.4,1.4.7,2.3.9s1.8.3,2.8.3c2,0,3.8-.3,5.2-.8,1.5-.6,2.6-1.3,3.6-2.1.9-.8,1.6-1.8,2-2.8s.7-1.9.7-2.8v-6.3h.1Z"/>
    <path class="cls-2" d="M642.1,33.2v52h-6.2v-52s6.2,0,6.2,0Z"/>
    <path class="cls-2" d="M666.5,90.2c-.7,1.8-1.4,3.4-2.1,4.7-.7,1.3-1.5,2.3-2.3,3.1-.9.8-1.8,1.4-2.8,1.7s-2.2.5-3.6.5-1.5,0-2.2,0c-.7,0-1.4-.3-2.1-.5v-5.7c.5.2,1.2.4,1.9.6s1.3.3,1.8.3c1.3,0,2.3-.3,3.2-.9.8-.6,1.5-1.5,1.9-2.6l2.5-6.3-14.9-37.4h7l11,30.8h0l10.6-30.8h6.6l-16.4,42.7h-.2Z"/>
    <path class="cls-2" d="M691.4,76.8c.6.9,1.3,1.7,2.3,2.3.9.6,2,1,3.2,1.2s2.4.4,3.7.4,2,0,3.1-.2c1.1,0,2.1-.4,2.9-.8.9-.4,1.6-1,2.2-1.7.6-.8.9-1.7.9-2.9s-.6-2.8-1.8-3.6c-1.2-.8-2.7-1.5-4.6-2-1.8-.5-3.8-1-5.9-1.4-2.1-.4-4.1-1-5.9-1.7-1.8-.8-3.3-1.8-4.6-3.2-1.2-1.4-1.8-3.3-1.8-5.7s.4-3.5,1.3-4.9c.8-1.4,1.9-2.5,3.3-3.3,1.3-.8,2.8-1.5,4.5-1.9s3.3-.6,5-.6,4.1.2,5.9.5c1.8.4,3.4,1,4.8,1.9,1.4.9,2.5,2.1,3.3,3.6s1.3,3.4,1.5,5.7h-6.2c0-1.2-.4-2.2-.9-3s-1.2-1.4-2-1.9-1.7-.8-2.7-1.1c-1-.2-2-.3-3-.3s-1.9,0-2.8.2c-.9,0-1.8.4-2.6.8-.8.4-1.4.9-1.9,1.5s-.7,1.4-.7,2.4.4,2,1.1,2.7,1.7,1.3,2.9,1.7c1.2.5,2.5.9,3.9,1.2,1.5.3,2.9.6,4.4,1,1.6.3,3.1.8,4.6,1.2,1.5.5,2.8,1.1,3.9,1.9,1.1.8,2.1,1.8,2.8,3s1.1,2.7,1.1,4.5-.5,4.2-1.4,5.7-2.2,2.7-3.7,3.6-3.3,1.6-5.2,1.9c-1.9.4-3.8.5-5.7.5s-4.1-.2-6-.7c-1.9-.4-3.6-1.2-5-2.1-1.5-1-2.6-2.3-3.5-3.9s-1.4-3.6-1.5-5.9h6.2c0,1.4.4,2.5.9,3.5h-.3Z"/>
    <path class="cls-2" d="M737.7,47.6v5.5h-7.5v23.4c0,.7,0,1.3.2,1.7,0,.4.4.8.7,1s.8.4,1.4.5c.6,0,1.4,0,2.4,0h2.8v5.5h-4.7c-1.6,0-3,0-4.1-.3-1.1-.2-2.1-.6-2.8-1.2s-1.2-1.4-1.6-2.5c-.3-1.1-.5-2.5-.5-4.2v-24h-6.4v-5.5h6.4v-11.3h6.2v11.3h7.5,0Z"/>
  </g>
  <g>
    <polygon class="cls-1" points="37.8 85.3 0 85.3 0 43.6 37.8 85.3"/>
    <circle class="cls-2" cx="32.5" cy="53.9" r="11.3"/>
    <polygon class="cls-2" points="37.8 -.2 0 43.6 0 85.3 37.8 -.2"/>
  </g>
</svg>