<?xml version="1.0" encoding="utf-8"?>
<!-- Generator: Adobe Illustrator 21.1.0, SVG Export Plug-In . SVG Version: 6.00 Build 0)  -->
<svg version="1.1" id="Layer_1" xmlns="http://www.w3.org/2000/svg" xmlns:xlink="http://www.w3.org/1999/xlink" x="0px" y="0px"
	 viewBox="0 0 605 97" style="enable-background:new 0 0 605 97;" xml:space="preserve">
<style type="text/css">
	.st0{fill:#FFFFFF;}
	.st1{fill:url(#SVGID_1_);}
	.st2{fill:#D71F27;}
</style>
<g>
	<path class="st0" d="M65.3,36.8h-5.1V12.2h5.1V36.8z"/>
	<path class="st0" d="M84.4,19.6c1.2,1,1.8,2.6,1.8,4.9v12.3h-4.9V25.7c0-1-0.1-1.7-0.4-2.2c-0.5-0.9-1.4-1.4-2.7-1.4
		c-1.6,0-2.7,0.7-3.3,2.1c-0.3,0.7-0.5,1.6-0.5,2.8v9.9h-4.8V18.6h4.6v2.7c0.6-0.9,1.2-1.6,1.7-2c1-0.7,2.2-1.1,3.7-1.1
		C81.7,18.2,83.2,18.7,84.4,19.6z"/>
	<path class="st0" d="M88.5,22.2v-3.4H91v-5.1h4.7v5.1h3v3.4h-3v9.6c0,0.7,0.1,1.2,0.3,1.4s0.8,0.3,1.7,0.3c0.1,0,0.3,0,0.5,0
		c0.2,0,0.3,0,0.5,0V37l-2.3,0.1c-2.3,0.1-3.8-0.3-4.6-1.2c-0.5-0.5-0.8-1.4-0.8-2.5V22.2H88.5z"/>
	<path class="st0" d="M113.4,19c1.3,0.6,2.3,1.5,3.1,2.7c0.7,1.1,1.2,2.3,1.5,3.8c0.1,0.8,0.2,2,0.2,3.6h-13.3
		c0.1,1.8,0.7,3.1,1.9,3.8c0.7,0.5,1.6,0.7,2.6,0.7c1.1,0,2-0.3,2.6-0.8c0.4-0.3,0.7-0.7,1-1.3h4.9c-0.1,1.1-0.7,2.2-1.8,3.3
		c-1.6,1.8-3.9,2.7-6.9,2.7c-2.4,0-4.6-0.7-6.4-2.2c-1.9-1.5-2.8-3.9-2.8-7.3c0-3.2,0.8-5.6,2.5-7.3c1.7-1.7,3.8-2.5,6.5-2.5
		C110.7,18.1,112.1,18.4,113.4,19z M106.3,23.1c-0.7,0.7-1.1,1.6-1.3,2.8h8.2c-0.1-1.3-0.5-2.2-1.3-2.9c-0.8-0.7-1.7-1-2.8-1
		C107.9,22,106.9,22.4,106.3,23.1z"/>
	<path class="st0" d="M131.1,18.2c0.1,0,0.2,0,0.4,0v4.9c-0.3,0-0.6-0.1-0.8-0.1c-0.2,0-0.4,0-0.6,0c-1.9,0-3.2,0.6-3.9,1.9
		c-0.4,0.7-0.6,1.8-0.6,3.2v8.7h-4.8V18.6h4.5v3.2c0.7-1.2,1.4-2,1.9-2.5c0.9-0.7,2.1-1.1,3.5-1.1C130.9,18.2,131,18.2,131.1,18.2z"
		/>
	<path class="st0" d="M141.4,25.7c0.9-0.1,1.5-0.3,1.9-0.4c0.7-0.3,1-0.7,1-1.4c0-0.7-0.3-1.3-0.8-1.5c-0.5-0.3-1.3-0.4-2.3-0.4
		c-1.1,0-1.9,0.3-2.4,0.8c-0.3,0.4-0.6,1-0.7,1.7h-4.6c0.1-1.6,0.5-2.9,1.3-3.9c1.3-1.6,3.4-2.4,6.5-2.4c2,0,3.8,0.4,5.3,1.2
		c1.6,0.8,2.3,2.3,2.3,4.5v8.4c0,0.6,0,1.3,0,2.1c0,0.6,0.1,1,0.3,1.3c0.2,0.2,0.4,0.4,0.7,0.6v0.7h-5.2c-0.1-0.4-0.2-0.7-0.3-1
		c-0.1-0.3-0.1-0.7-0.1-1.1c-0.7,0.7-1.4,1.3-2.3,1.8c-1,0.6-2.2,0.9-3.5,0.9c-1.7,0-3-0.5-4.1-1.4c-1.1-0.9-1.6-2.3-1.6-4
		c0-2.2,0.9-3.9,2.6-4.9c1-0.5,2.4-0.9,4.2-1.2L141.4,25.7z M144.3,28c-0.3,0.2-0.6,0.3-0.9,0.5c-0.3,0.1-0.7,0.2-1.3,0.3L141,29
		c-1,0.2-1.7,0.4-2.2,0.7c-0.7,0.4-1.1,1.1-1.1,2c0,0.8,0.2,1.4,0.7,1.8c0.5,0.4,1,0.5,1.7,0.5c1,0,2-0.3,2.9-0.9
		c0.9-0.6,1.3-1.7,1.4-3.3V28z"/>
	<path class="st0" d="M164.1,25.1c-0.1-0.7-0.3-1.3-0.7-1.8c-0.5-0.7-1.4-1.1-2.5-1.1c-1.6,0-2.7,0.8-3.3,2.4
		c-0.3,0.8-0.5,2-0.5,3.4c0,1.3,0.2,2.4,0.5,3.2c0.6,1.5,1.6,2.3,3.2,2.3c1.1,0,1.9-0.3,2.4-0.9c0.5-0.6,0.8-1.4,0.9-2.3h4.9
		c-0.1,1.4-0.6,2.8-1.6,4.1c-1.5,2.1-3.7,3.1-6.6,3.1c-2.9,0-5.1-0.9-6.5-2.6s-2.1-4-2.1-6.8c0-3.1,0.8-5.6,2.3-7.3
		c1.5-1.7,3.6-2.6,6.3-2.6c2.3,0,4.2,0.5,5.6,1.5c1.5,1,2.3,2.8,2.6,5.4H164.1z"/>
	<path class="st0" d="M170.5,22.2v-3.4h2.5v-5.1h4.7v5.1h3v3.4h-3v9.6c0,0.7,0.1,1.2,0.3,1.4s0.8,0.3,1.7,0.3c0.1,0,0.3,0,0.5,0
		c0.2,0,0.3,0,0.5,0V37l-2.3,0.1c-2.3,0.1-3.8-0.3-4.6-1.2c-0.5-0.5-0.8-1.4-0.8-2.5V22.2H170.5z"/>
	<path class="st0" d="M188.7,16.4h-4.8V12h4.8V16.4z M183.8,18.6h4.8v18.2h-4.8V18.6z"/>
	<path class="st0" d="M204.2,18.6h5.1l-6.6,18.2h-5l-6.5-18.2h5.3l3.8,13.4L204.2,18.6z"/>
	<path class="st0" d="M223.2,19c1.3,0.6,2.3,1.5,3.1,2.7c0.7,1.1,1.2,2.3,1.5,3.8c0.1,0.8,0.2,2,0.2,3.6h-13.3
		c0.1,1.8,0.7,3.1,1.9,3.8c0.7,0.5,1.6,0.7,2.6,0.7c1.1,0,2-0.3,2.6-0.8c0.4-0.3,0.7-0.7,1-1.3h4.9c-0.1,1.1-0.7,2.2-1.8,3.3
		c-1.6,1.8-3.9,2.7-6.9,2.7c-2.4,0-4.6-0.7-6.4-2.2c-1.9-1.5-2.8-3.9-2.8-7.3c0-3.2,0.8-5.6,2.5-7.3c1.7-1.7,3.8-2.5,6.5-2.5
		C220.5,18.1,221.9,18.4,223.2,19z M216.1,23.1c-0.7,0.7-1.1,1.6-1.3,2.8h8.2c-0.1-1.3-0.5-2.2-1.3-2.9c-0.8-0.7-1.7-1-2.8-1
		C217.7,22,216.7,22.4,216.1,23.1z"/>
	<path class="st0" d="M231.1,12.3h10.6c2.9,0,5,0.9,6.2,2.6c0.7,1,1.1,2.2,1.1,3.5c0,1.5-0.4,2.8-1.3,3.8c-0.5,0.5-1.1,1-2,1.4
		c1.3,0.5,2.2,1,2.8,1.6c1.1,1.1,1.7,2.5,1.7,4.4c0,1.6-0.5,3-1.5,4.3c-1.5,1.9-3.9,2.9-7.1,2.9h-10.4V12.3z M240.5,22.6
		c1.4,0,2.5-0.2,3.3-0.6c1.2-0.6,1.9-1.7,1.9-3.3c0-1.6-0.7-2.7-2-3.2c-0.7-0.3-1.8-0.5-3.3-0.5h-6v7.6H240.5z M241.6,34
		c2.1,0,3.5-0.6,4.4-1.8c0.6-0.7,0.8-1.6,0.8-2.7c0-1.8-0.8-3-2.4-3.6c-0.9-0.3-2-0.5-3.4-0.5h-6.7V34H241.6z"/>
	<path class="st0" d="M253.7,18.9h2.9V22c0.2-0.6,0.8-1.3,1.7-2.2c0.9-0.9,2-1.3,3.2-1.3c0.1,0,0.2,0,0.3,0c0.1,0,0.4,0,0.7,0.1v3.2
		c-0.2,0-0.3-0.1-0.5-0.1c-0.1,0-0.3,0-0.5,0c-1.5,0-2.7,0.5-3.5,1.5c-0.8,1-1.2,2.1-1.2,3.4v10.3h-3V18.9z"/>
	<path class="st0" d="M277.8,20.7c1.6,1.5,2.4,3.8,2.4,6.8c0,2.9-0.7,5.3-2.1,7.1c-1.4,1.9-3.6,2.8-6.5,2.8c-2.4,0-4.4-0.8-5.8-2.5
		c-1.4-1.7-2.2-3.9-2.2-6.7c0-3,0.8-5.4,2.3-7.2c1.5-1.8,3.6-2.7,6.1-2.7C274.3,18.4,276.2,19.2,277.8,20.7z M275.9,32.6
		c0.7-1.5,1.1-3.2,1.1-5c0-1.7-0.3-3-0.8-4.1c-0.8-1.6-2.3-2.5-4.3-2.5c-1.8,0-3.1,0.7-4,2.1c-0.8,1.4-1.2,3.1-1.2,5.1
		c0,1.9,0.4,3.5,1.2,4.8c0.8,1.3,2.1,1.9,3.9,1.9C273.8,34.9,275.2,34.1,275.9,32.6z"/>
	<path class="st0" d="M283.6,12.3h2.9v14.3l7.7-7.6h3.8l-6.9,6.7l7.3,11.2h-3.8l-5.6-9.1l-2.5,2.4v6.7h-2.9V12.3z"/>
	<path class="st0" d="M310.9,19.4c1.2,0.6,2.1,1.4,2.7,2.3c0.6,0.9,1,2,1.2,3.2c0.2,0.8,0.3,2.1,0.3,3.9h-13
		c0.1,1.8,0.5,3.3,1.3,4.4c0.8,1.1,2,1.7,3.7,1.7c1.6,0,2.8-0.5,3.7-1.6c0.5-0.6,0.9-1.3,1.1-2.1h3c-0.1,0.7-0.3,1.4-0.8,2.2
		c-0.4,0.8-0.9,1.5-1.5,2c-0.9,0.9-2,1.5-3.4,1.8c-0.7,0.2-1.5,0.3-2.4,0.3c-2.2,0-4.1-0.8-5.6-2.4c-1.5-1.6-2.3-3.9-2.3-6.8
		c0-2.9,0.8-5.2,2.3-7c1.6-1.8,3.6-2.7,6.1-2.7C308.5,18.5,309.7,18.8,310.9,19.4z M312,26.4c-0.1-1.3-0.4-2.3-0.8-3.1
		c-0.8-1.4-2.2-2.2-4.1-2.2c-1.4,0-2.5,0.5-3.4,1.5c-0.9,1-1.4,2.3-1.5,3.8H312z"/>
	<path class="st0" d="M318.6,18.9h2.9V22c0.2-0.6,0.8-1.3,1.7-2.2c0.9-0.9,2-1.3,3.2-1.3c0.1,0,0.2,0,0.3,0s0.4,0,0.7,0.1v3.2
		c-0.2,0-0.3-0.1-0.5-0.1c-0.1,0-0.3,0-0.5,0c-1.5,0-2.7,0.5-3.5,1.5c-0.8,1-1.2,2.1-1.2,3.4v10.3h-3V18.9z"/>
	<path class="st0" d="M331.8,31.2c0.1,1,0.3,1.8,0.8,2.3c0.8,1,2.1,1.5,4,1.5c1.1,0,2.1-0.2,3-0.7c0.9-0.5,1.3-1.2,1.3-2.2
		c0-0.8-0.3-1.4-1-1.8c-0.4-0.2-1.3-0.5-2.6-0.9l-2.4-0.6c-1.6-0.4-2.7-0.8-3.4-1.3c-1.3-0.8-2-1.9-2-3.4c0-1.7,0.6-3.1,1.9-4.1
		c1.2-1,2.9-1.6,5-1.6c2.7,0,4.7,0.8,5.9,2.4c0.8,1,1.1,2.1,1.1,3.2h-2.8c-0.1-0.7-0.3-1.3-0.7-1.8c-0.7-0.8-1.9-1.2-3.7-1.2
		c-1.2,0-2,0.2-2.6,0.6c-0.6,0.4-0.9,1-0.9,1.7c0,0.8,0.4,1.4,1.2,1.9c0.5,0.3,1.1,0.5,2,0.7l2,0.5c2.2,0.5,3.7,1,4.4,1.5
		c1.2,0.8,1.8,2,1.8,3.6c0,1.6-0.6,3-1.8,4.1c-1.2,1.2-3.1,1.7-5.6,1.7c-2.7,0-4.6-0.6-5.7-1.8s-1.7-2.7-1.8-4.5H331.8z"/>
</g>
<g>
	
		<linearGradient id="SVGID_1_" gradientUnits="userSpaceOnUse" x1="3974.6296" y1="63.4799" x2="4004.7317" y2="63.4799" gradientTransform="matrix(-1 0 0 1 4018.2446 0)">
		<stop  offset="0" style="stop-color:#D71F27"/>
		<stop  offset="1" style="stop-color:#A41E22"/>
	</linearGradient>
	<polygon class="st1" points="43.6,80.1 13.5,80.1 13.5,46.9 	"/>
	<circle class="st2" cx="39.4" cy="55" r="9"/>
	<polygon class="st2" points="43.6,12 13.5,46.9 13.5,80.1 	"/>
</g>
<g>
	<path class="st0" d="M67.7,80.1h-7.5v-36h7.5V80.1z"/>
	<path class="st0" d="M95.6,55c1.7,1.4,2.6,3.8,2.6,7.2v17.9h-7.1V63.9c0-1.4-0.2-2.5-0.6-3.2c-0.7-1.4-2-2.1-3.9-2.1
		c-2.3,0-4,1-4.8,3c-0.5,1.1-0.7,2.4-0.7,4.1v14.4h-7V53.5h6.7v3.9c0.9-1.4,1.7-2.4,2.5-3c1.4-1.1,3.2-1.6,5.4-1.6
		C91.6,52.8,93.8,53.5,95.6,55z"/>
	<path class="st0" d="M121.1,53.4h7.5l-9.6,26.6h-7.3L102,53.4h7.8l5.5,19.6L121.1,53.4z"/>
	<path class="st0" d="M149.8,54c1.9,0.8,3.4,2.1,4.6,3.9c1.1,1.6,1.8,3.4,2.1,5.5c0.2,1.2,0.3,3,0.2,5.3h-19.4
		c0.1,2.7,1,4.5,2.8,5.6c1.1,0.7,2.3,1,3.8,1c1.6,0,2.9-0.4,3.9-1.2c0.5-0.4,1-1,1.4-1.8h7.1c-0.2,1.6-1,3.2-2.6,4.8
		c-2.4,2.6-5.7,3.9-10,3.9c-3.5,0-6.7-1.1-9.4-3.3c-2.7-2.2-4.1-5.7-4.1-10.7c0-4.6,1.2-8.1,3.7-10.6c2.4-2.5,5.6-3.7,9.5-3.7
		C145.9,52.7,148,53.2,149.8,54z M139.4,60c-1,1-1.6,2.4-1.9,4.1h12c-0.1-1.8-0.7-3.2-1.9-4.2c-1.1-1-2.5-1.4-4.1-1.4
		C141.8,58.5,140.4,59,139.4,60z"/>
	<path class="st0" d="M165.7,71.6c0.1,1.2,0.5,2.1,1,2.6c0.9,0.9,2.5,1.4,4.8,1.4c1.4,0,2.5-0.2,3.3-0.6c0.8-0.4,1.2-1,1.2-1.8
		c0-0.8-0.3-1.4-1-1.8c-0.7-0.4-3.1-1.1-7.3-2.1c-3-0.7-5.2-1.7-6.4-2.8c-1.2-1.1-1.9-2.7-1.9-4.8c0-2.5,1-4.6,2.9-6.3
		c1.9-1.8,4.7-2.6,8.2-2.6c3.3,0,6,0.7,8.1,2c2.1,1.3,3.3,3.6,3.6,6.9h-7c-0.1-0.9-0.4-1.6-0.8-2.1c-0.8-0.9-2.1-1.4-3.9-1.4
		c-1.5,0-2.6,0.2-3.2,0.7c-0.6,0.5-1,1-1,1.7c0,0.8,0.3,1.4,1,1.7c0.7,0.4,3.1,1,7.3,1.9c2.8,0.7,4.8,1.6,6.2,3c1.4,1.3,2.1,3,2.1,5
		c0,2.6-1,4.8-2.9,6.5c-2,1.7-5,2.5-9.1,2.5c-4.2,0-7.3-0.9-9.3-2.6c-2-1.8-3-4-3-6.8H165.7z"/>
	<path class="st0" d="M185.4,58.6v-5h3.7v-7.4h6.9v7.4h4.3v5h-4.3v14.1c0,1.1,0.1,1.8,0.4,2c0.3,0.3,1.1,0.4,2.5,0.4
		c0.2,0,0.4,0,0.7,0c0.2,0,0.5,0,0.7,0v5.2l-3.3,0.1c-3.3,0.1-5.5-0.5-6.7-1.7c-0.8-0.8-1.2-2-1.2-3.7V58.6H185.4z"/>
	<path class="st0" d="M226.9,76.8c-2.2,2.8-5.7,4.2-10.2,4.2c-4.6,0-8-1.4-10.2-4.2s-3.4-6.1-3.4-10c0-3.8,1.1-7.2,3.4-10
		s5.7-4.2,10.2-4.2c4.6,0,8,1.4,10.2,4.2s3.4,6.1,3.4,10C230.3,70.7,229.2,74,226.9,76.8z M221.4,73c1.1-1.4,1.6-3.5,1.6-6.2
		s-0.5-4.7-1.6-6.2c-1.1-1.4-2.7-2.2-4.7-2.2c-2,0-3.6,0.7-4.7,2.2c-1.1,1.4-1.6,3.5-1.6,6.2s0.5,4.7,1.6,6.2
		c1.1,1.4,2.7,2.2,4.7,2.2C218.7,75.1,220.3,74.4,221.4,73z"/>
	<path class="st0" d="M250.1,52.8c0.1,0,0.3,0,0.6,0V60c-0.4,0-0.8-0.1-1.2-0.1c-0.3,0-0.6,0-0.8,0c-2.8,0-4.7,0.9-5.6,2.7
		c-0.5,1-0.8,2.6-0.8,4.7v12.7h-7V53.4h6.6v4.6c1.1-1.8,2-3,2.8-3.6c1.3-1.1,3-1.6,5.1-1.6C249.9,52.8,250,52.8,250.1,52.8z"/>
	<path class="st0" d="M260.1,71.6c0.1,1.2,0.5,2.1,1,2.6c0.9,0.9,2.5,1.4,4.8,1.4c1.4,0,2.5-0.2,3.3-0.6c0.8-0.4,1.2-1,1.2-1.8
		c0-0.8-0.3-1.4-1-1.8c-0.7-0.4-3.1-1.1-7.3-2.1c-3-0.7-5.2-1.7-6.4-2.8c-1.2-1.1-1.9-2.7-1.9-4.8c0-2.5,1-4.6,2.9-6.3
		c1.9-1.8,4.7-2.6,8.2-2.6c3.3,0,6,0.7,8.1,2c2.1,1.3,3.3,3.6,3.6,6.9h-7c-0.1-0.9-0.4-1.6-0.8-2.1c-0.8-0.9-2.1-1.4-3.9-1.4
		c-1.5,0-2.6,0.2-3.2,0.7c-0.6,0.5-1,1-1,1.7c0,0.8,0.3,1.4,1,1.7c0.7,0.4,3.1,1,7.3,1.9c2.8,0.7,4.8,1.6,6.2,3c1.4,1.3,2.1,3,2.1,5
		c0,2.6-1,4.8-2.9,6.5c-2,1.7-5,2.5-9.1,2.5c-4.2,0-7.3-0.9-9.3-2.6c-2-1.8-3-4-3-6.8H260.1z"/>
	<path class="st0" d="M282.6,55.3c1.7-0.5,2.9-1.4,3.5-2.6c0.3-0.7,0.5-1.4,0.4-2.2h-4.1v-6.4h7.2v5.2c0,2.5-0.6,4.4-1.9,5.8
		c-1.2,1.4-3,2.3-5.2,2.8V55.3z"/>
	<path class="st0" d="M332,44.1h10.8v36h-7V55.7c0-0.7,0-1.7,0-2.9c0-1.3,0-2.2,0-2.9l-6.8,30.2h-7.3L315,49.9c0,0.7,0,1.7,0,2.9
		c0,1.3,0,2.2,0,2.9v24.3h-7v-36H319l6.6,28.3L332,44.1z"/>
	<path class="st0" d="M359.8,63.9c1.3-0.2,2.2-0.4,2.8-0.6c1-0.4,1.5-1.1,1.5-2c0-1.1-0.4-1.8-1.2-2.3c-0.8-0.4-1.9-0.6-3.4-0.6
		c-1.7,0-2.8,0.4-3.5,1.2c-0.5,0.6-0.8,1.4-1,2.4h-6.7c0.1-2.3,0.8-4.2,2-5.7c1.8-2.3,5-3.5,9.5-3.5c2.9,0,5.5,0.6,7.8,1.7
		c2.3,1.2,3.4,3.3,3.4,6.5v12.2c0,0.8,0,1.9,0,3.1c0,0.9,0.2,1.5,0.4,1.9c0.2,0.3,0.6,0.6,1,0.8v1h-7.6c-0.2-0.5-0.4-1-0.4-1.5
		c-0.1-0.5-0.1-1-0.2-1.6c-1,1-2.1,1.9-3.3,2.7c-1.5,0.9-3.2,1.3-5.1,1.3c-2.4,0-4.4-0.7-6-2.1c-1.6-1.4-2.4-3.3-2.4-5.8
		c0-3.3,1.3-5.6,3.8-7.1c1.4-0.8,3.4-1.4,6.1-1.7L359.8,63.9z M364,67.1c-0.4,0.3-0.9,0.5-1.3,0.7c-0.5,0.2-1.1,0.3-1.9,0.5
		l-1.6,0.3c-1.5,0.3-2.6,0.6-3.2,1c-1.1,0.6-1.6,1.6-1.6,3c0,1.2,0.3,2,1,2.6c0.7,0.5,1.5,0.8,2.4,0.8c1.5,0,2.9-0.4,4.2-1.3
		c1.3-0.9,1.9-2.5,2-4.8V67.1z"/>
	<path class="st0" d="M391.8,52.8c0.1,0,0.3,0,0.6,0V60c-0.4,0-0.8-0.1-1.2-0.1c-0.3,0-0.6,0-0.8,0c-2.8,0-4.7,0.9-5.6,2.7
		c-0.5,1-0.8,2.6-0.8,4.7v12.7h-7V53.4h6.6v4.6c1.1-1.8,2-3,2.8-3.6c1.3-1.1,3-1.6,5.1-1.6C391.6,52.8,391.7,52.8,391.8,52.8z"/>
	<path class="st0" d="M396.4,44.2h6.8v19.4l8.8-10h8.7l-9.5,9.9l9.9,16.6h-8.5l-6.4-11.4l-2.9,3v8.4h-6.8V44.2z"/>
	<path class="st0" d="M441.7,54c1.9,0.8,3.4,2.1,4.6,3.9c1.1,1.6,1.8,3.4,2.1,5.5c0.2,1.2,0.3,3,0.2,5.3h-19.4
		c0.1,2.7,1,4.5,2.8,5.6c1.1,0.7,2.3,1,3.8,1c1.6,0,2.9-0.4,3.9-1.2c0.5-0.4,1-1,1.4-1.8h7.1c-0.2,1.6-1,3.2-2.6,4.8
		c-2.4,2.6-5.7,3.9-10,3.9c-3.5,0-6.7-1.1-9.4-3.3c-2.7-2.2-4.1-5.7-4.1-10.7c0-4.6,1.2-8.1,3.7-10.6c2.4-2.5,5.6-3.7,9.5-3.7
		C437.7,52.7,439.8,53.2,441.7,54z M431.2,60c-1,1-1.6,2.4-1.9,4.1h12c-0.1-1.8-0.7-3.2-1.9-4.2c-1.1-1-2.5-1.4-4.1-1.4
		C433.6,58.5,432.2,59,431.2,60z"/>
	<path class="st0" d="M449.4,58.6v-5h3.7v-7.4h6.9v7.4h4.3v5H460v14.1c0,1.1,0.1,1.8,0.4,2c0.3,0.3,1.1,0.4,2.5,0.4
		c0.2,0,0.4,0,0.7,0c0.2,0,0.5,0,0.7,0v5.2l-3.3,0.1c-3.3,0.1-5.5-0.5-6.7-1.7c-0.8-0.8-1.2-2-1.2-3.7V58.6H449.4z"/>
	<path class="st0" d="M491.2,56.3c2.2,2.3,3.3,5.7,3.3,10.1c0,4.7-1.1,8.3-3.2,10.7c-2.1,2.5-4.9,3.7-8.2,3.7
		c-2.1,0-3.9-0.5-5.3-1.6c-0.8-0.6-1.5-1.4-2.3-2.6v13.9h-6.9V53.4h6.7v3.9c0.8-1.2,1.6-2.1,2.4-2.7c1.6-1.2,3.4-1.8,5.6-1.8
		C486.3,52.9,489,54,491.2,56.3z M485.8,61.3c-0.9-1.6-2.5-2.4-4.6-2.4c-2.5,0-4.3,1.2-5.3,3.6c-0.5,1.3-0.7,2.9-0.7,4.8
		c0,3.1,0.8,5.3,2.5,6.5c1,0.7,2.2,1.1,3.5,1.1c2,0,3.4-0.7,4.5-2.2c1-1.5,1.5-3.5,1.5-6C487.2,64.7,486.8,62.9,485.8,61.3z"/>
	<path class="st0" d="M506.4,80.1h-7v-36h7V80.1z"/>
	<path class="st0" d="M523.8,63.9c1.3-0.2,2.2-0.4,2.8-0.6c1-0.4,1.5-1.1,1.5-2c0-1.1-0.4-1.8-1.2-2.3c-0.8-0.4-1.9-0.6-3.4-0.6
		c-1.7,0-2.8,0.4-3.5,1.2c-0.5,0.6-0.8,1.4-1,2.4h-6.7c0.1-2.3,0.8-4.2,2-5.7c1.8-2.3,5-3.5,9.5-3.5c2.9,0,5.5,0.6,7.8,1.7
		c2.3,1.2,3.4,3.3,3.4,6.5v12.2c0,0.8,0,1.9,0,3.1c0,0.9,0.2,1.5,0.4,1.9c0.2,0.3,0.6,0.6,1,0.8v1h-7.6c-0.2-0.5-0.4-1-0.4-1.5
		c-0.1-0.5-0.1-1-0.2-1.6c-1,1-2.1,1.9-3.3,2.7c-1.5,0.9-3.2,1.3-5.1,1.3c-2.4,0-4.4-0.7-6-2.1c-1.6-1.4-2.4-3.3-2.4-5.8
		c0-3.3,1.3-5.6,3.8-7.1c1.4-0.8,3.4-1.4,6.1-1.7L523.8,63.9z M528,67.1c-0.4,0.3-0.9,0.5-1.3,0.7c-0.5,0.2-1.1,0.3-1.9,0.5
		l-1.6,0.3c-1.5,0.3-2.6,0.6-3.2,1c-1.1,0.6-1.6,1.6-1.6,3c0,1.2,0.3,2,1,2.6c0.7,0.5,1.5,0.8,2.4,0.8c1.5,0,2.9-0.4,4.2-1.3
		c1.3-0.9,1.9-2.5,2-4.8V67.1z"/>
	<path class="st0" d="M556.9,63c-0.1-1-0.5-1.9-1-2.7c-0.8-1.1-2-1.6-3.6-1.6c-2.4,0-4,1.2-4.8,3.5c-0.5,1.2-0.7,2.9-0.7,4.9
		c0,1.9,0.2,3.5,0.7,4.7c0.8,2.2,2.4,3.3,4.7,3.3c1.6,0,2.8-0.4,3.5-1.3c0.7-0.9,1.1-2,1.2-3.4h7.1c-0.2,2.1-0.9,4.1-2.3,6
		c-2.2,3-5.4,4.6-9.7,4.6c-4.3,0-7.4-1.3-9.5-3.8s-3-5.8-3-9.9c0-4.6,1.1-8.1,3.3-10.7c2.2-2.5,5.3-3.8,9.2-3.8
		c3.3,0,6.1,0.7,8.2,2.2c2.1,1.5,3.4,4.1,3.8,7.9H556.9z"/>
	<path class="st0" d="M586.2,54c1.9,0.8,3.4,2.1,4.6,3.9c1.1,1.6,1.8,3.4,2.1,5.5c0.2,1.2,0.3,3,0.2,5.3h-19.4
		c0.1,2.7,1,4.5,2.8,5.6c1.1,0.7,2.3,1,3.8,1c1.6,0,2.9-0.4,3.9-1.2c0.5-0.4,1-1,1.4-1.8h7.1c-0.2,1.6-1,3.2-2.6,4.8
		c-2.4,2.6-5.7,3.9-10,3.9c-3.5,0-6.7-1.1-9.4-3.3c-2.7-2.2-4.1-5.7-4.1-10.7c0-4.6,1.2-8.1,3.7-10.6c2.4-2.5,5.6-3.7,9.5-3.7
		C582.2,52.7,584.3,53.2,586.2,54z M575.8,60c-1,1-1.6,2.4-1.9,4.1h12c-0.1-1.8-0.7-3.2-1.9-4.2c-1.1-1-2.5-1.4-4.1-1.4
		C578.1,58.5,576.7,59,575.8,60z"/>
</g>
</svg>
