<?xml version="1.0" encoding="UTF-8"?>
<svg id="Layer_1" data-name="Layer 1" xmlns="http://www.w3.org/2000/svg" xmlns:xlink="http://www.w3.org/1999/xlink" version="1.1" viewBox="0 0 567 103.2">
  <defs>
    <style>
      .cls-1 {
        fill: #464646;
      }

      .cls-1, .cls-2, .cls-3 {
        stroke-width: 0px;
      }

      .cls-2 {
        fill: url(#linear-gradient);
      }

      .cls-3 {
        fill: #231f20;
      }
    </style>
    <linearGradient id="linear-gradient" x1="3291.8" y1="2218.1" x2="3329.5" y2="2218.1" gradientTransform="translate(3330.5 -2152.4) rotate(-180) scale(1 -1)" gradientUnits="userSpaceOnUse">
      <stop offset="0" stop-color="#464646"/>
      <stop offset="1" stop-color="#000"/>
    </linearGradient>
  </defs>
  <g id="TEMPLATE_Typograph" data-name="TEMPLATE Typograph">
    <g>
      <g>
        <path class="cls-3" d="M64.9,34.5h10.8v52h-10.8v-52Z"/>
        <path class="cls-3" d="M108.1,86.5h-23.5v-52h25.2c6.4,0,10.9,1.9,13.5,5.5,1.6,2.2,2.4,4.9,2.4,7.9s-.8,5.7-2.4,7.7c-.9,1.1-2.2,2.1-3.9,3,2.7,1,4.7,2.5,6,4.6,1.4,2.1,2,4.6,2,7.6s-.8,5.8-2.3,8.3c-1,1.6-2.2,3-3.7,4.1-1.7,1.3-3.6,2.1-5.9,2.6-2.2.5-4.7.7-7.4.7ZM113.3,53.7c1.4-.8,2.1-2.4,2.1-4.5s-.9-4-2.8-4.8c-1.6-.5-3.7-.8-6.2-.8h-11.4v11.4h12.8c2.2,0,4.1-.4,5.5-1.3ZM107.9,63.6h-12.9v13.9h12.8c2.3,0,4.1-.3,5.3-.9,2.3-1.1,3.5-3.3,3.5-6.5s-1.1-4.6-3.4-5.6c-1.3-.6-3-.9-5.3-.9Z"/>
        <path class="cls-3" d="M180.6,86.5h-14l-16-22.7-5.2,5.3v17.4h-10.7v-52h10.7v21.4l20.1-21.4h14l-21.3,21.4,22.4,30.6Z"/>
        <path class="cls-3" d="M205.9,66.1h-11.2v20.4h-10.6v-52h25.5c3.6,0,6.4.5,8.4,1.3s3.6,2,5,3.6c1.1,1.3,2,2.8,2.7,4.4.7,1.6,1,3.4,1,5.5s-.6,4.9-1.9,7.3-3.3,4.1-6.2,5.1c2.4,1,4.1,2.3,5.1,4.1,1,1.8,1.5,4.5,1.5,8.1v3.5c0,2.4.1,4,.3,4.8.3,1.3.9,2.3,2,3v1.3h-12c-.3-1.2-.6-2.1-.7-2.8-.3-1.5-.4-3-.5-4.5v-4.8c-.1-3.3-.8-5.5-1.9-6.6s-3.3-1.7-6.5-1.7ZM212.5,56.7c2.2-1,3.2-2.9,3.2-5.9s-1-5.3-3.1-6.3c-1.2-.6-2.9-.9-5.3-.9h-12.6v14h12.3c2.4,0,4.3-.4,5.5-.9Z"/>
        <path class="cls-3" d="M260.1,34.5l16.4,43.7,16.5-43.7h9.5v52h-6.6v-43.3h-.1l-16.2,43.3h-5.9l-16.2-43.3h-.1v43.3h-6.6v-52h9.3Z"/>
        <path class="cls-3" d="M346.2,86.4c-1.1.6-2.5.9-4.4.9s-2.9-.5-3.8-1.3-1.4-2.4-1.4-4.4c-1.7,2-3.7,3.5-5.9,4.4s-4.7,1.3-7.3,1.3-3.3-.2-4.8-.6-2.9-1-4-1.8-2-1.9-2.7-3.2c-.7-1.3-1-2.9-1-4.8s.4-3.9,1.1-5.2c.7-1.4,1.7-2.5,2.9-3.3,1.2-.8,2.5-1.5,4.1-1.9,1.5-.4,3.1-.8,4.7-1.1,1.7-.3,3.3-.6,4.8-.8,1.5-.2,2.9-.4,4-.7,1.2-.3,2.1-.8,2.8-1.4.7-.6,1-1.5,1-2.7s-.3-2.5-.8-3.3-1.2-1.5-2-1.9-1.7-.7-2.7-.9c-1,0-2-.2-2.9-.2-2.6,0-4.8.5-6.6,1.5-1.7,1-2.7,2.9-2.8,5.6h-6.2c.1-2.3.6-4.3,1.5-5.9.9-1.6,2-2.9,3.5-3.9s3.1-1.7,5-2.1c1.9-.4,3.9-.7,6-.7s3.4,0,5.1.4c1.7.2,3.2.7,4.6,1.5s2.5,1.8,3.3,3.2,1.2,3.1,1.2,5.3v19.3c0,1.5.1,2.5.3,3.2.2.7.7,1,1.7,1s1.2,0,1.9-.3v4.8h-.2ZM336.2,67.1c-.8.6-1.8,1-3.1,1.3-1.3.3-2.6.5-4,.7s-2.8.4-4.2.6c-1.4.2-2.7.6-3.8,1.1-1.1.5-2,1.2-2.7,2.1s-1.1,2.1-1.1,3.7.2,1.9.6,2.6.9,1.3,1.6,1.7c.7.4,1.4.7,2.3.9s1.8.3,2.8.3c2,0,3.8-.3,5.2-.8,1.5-.6,2.6-1.3,3.6-2.1.9-.8,1.6-1.8,2-2.8s.7-1.9.7-2.8v-6.5h.1Z"/>
        <path class="cls-3" d="M357.6,48.9v7.9h.1c1.5-3.1,3.3-5.3,5.5-6.8s5-2.1,8.3-2v6.6c-2.5,0-4.6.3-6.3,1-1.7.7-3.2,1.7-4.2,3-1.1,1.3-1.8,2.9-2.3,4.8-.5,1.9-.7,4-.7,6.4v16.7h-6.2v-37.6h5.8Z"/>
        <path class="cls-3" d="M382.8,34.5v30.8l17.2-16.5h8.3l-14.9,13.7,16,24h-7.9l-12.9-19.7-5.8,5.4v14.3h-6.2v-52s6.2,0,6.2,0Z"/>
        <path class="cls-3" d="M440.7,84.1c-2.8,2.1-6.4,3.2-10.6,3.2s-5.6-.5-7.8-1.5c-2.2-1-4.1-2.3-5.6-4.1s-2.6-3.8-3.4-6.3c-.8-2.4-1.2-5.1-1.3-7.9,0-2.9.4-5.5,1.3-7.9s2.1-4.4,3.7-6.2c1.6-1.7,3.4-3.1,5.6-4.1s4.5-1.5,7.1-1.5,6.1.7,8.3,2.1c2.2,1.4,4,3.1,5.3,5.3,1.3,2.1,2.3,4.5,2.8,7s.7,4.9.6,7.2h-28.2c0,1.7.1,3.2.6,4.7.4,1.5,1.1,2.8,2.1,3.9s2.2,2.1,3.7,2.7c1.5.7,3.3,1,5.3,1s4.8-.6,6.4-1.8c1.7-1.2,2.8-3.1,3.3-5.5h6.1c-.7,4.4-2.5,7.6-5.3,9.7ZM439.2,59.9c-.6-1.3-1.3-2.4-2.3-3.4-.9-.9-2.1-1.7-3.4-2.3s-2.7-.8-4.3-.8-3,.3-4.3.8c-1.3.6-2.4,1.3-3.3,2.3s-1.7,2.1-2.2,3.4c-.5,1.3-.9,2.7-.9,4.1h21.6c0-1.4-.4-2.8-.9-4.1Z"/>
        <path class="cls-3" d="M469.2,48.9v5.5h-7.5v23.4c0,.7.1,1.3.2,1.7.1.4.4.8.7,1,.3.2.8.4,1.4.5s1.4,0,2.4,0h2.8v5.5h-4.7c-1.6,0-3,0-4.1-.3-1.1-.2-2.1-.6-2.8-1.2-.7-.6-1.2-1.4-1.6-2.5-.3-1.1-.5-2.5-.5-4.2v-24h-6.4v-5.5h6.4v-11.3h6.2v11.3s7.5,0,7.5,0Z"/>
        <path class="cls-3" d="M476.4,42.1v-7.6h6.2v7.6h-6.2ZM482.6,48.9v37.7h-6.2v-37.7h6.2Z"/>
        <path class="cls-3" d="M498.1,48.9v6h.1c2.6-4.6,6.7-6.8,12.2-6.8s4.5.3,6.2,1c1.6.7,3,1.6,4,2.8s1.7,2.7,2.1,4.3c.4,1.7.6,3.5.6,5.6v24.8h-6.2v-25.6c0-2.3-.7-4.2-2-5.5-1.4-1.4-3.2-2-5.6-2s-3.5.3-4.9.9-2.5,1.4-3.5,2.5c-.9,1.1-1.6,2.3-2.1,3.8-.5,1.4-.7,3-.7,4.7v21.3h-6.2v-37.8h6Z"/>
        <path class="cls-3" d="M561,97.1c-2.8,3.1-7.2,4.6-13.3,4.6s-3.5-.2-5.4-.6c-1.8-.4-3.5-1-5-1.9s-2.7-2-3.7-3.4-1.5-3.1-1.6-5.2h6.2c0,1.1.4,2.1,1.1,2.8.7.8,1.5,1.4,2.4,1.9s2,.8,3.1,1.1c1.1.2,2.2.3,3.2.3,2,0,3.8-.4,5.2-1.1s2.6-1.7,3.5-2.9c.9-1.2,1.6-2.7,2-4.5.4-1.7.6-3.7.6-5.8v-2.5h0c-1.1,2.3-2.7,4-4.8,5.1-2.2,1.1-4.5,1.6-6.9,1.6s-5.3-.5-7.4-1.5c-2.1-1-3.8-2.4-5.2-4.1s-2.5-3.7-3.2-6-1.1-4.7-1.1-7.3.3-4.5.9-6.9c.6-2.4,1.6-4.5,2.9-6.4,1.4-1.9,3.2-3.5,5.4-4.7s5-1.9,8.2-1.9,4.6.5,6.6,1.6c2,1,3.5,2.6,4.7,4.7h0v-5.4h5.8v34.4c0,6.4-1.4,11-4.2,14ZM553.1,80.2c1.4-.8,2.6-2,3.5-3.4s1.5-2.9,1.9-4.7c.4-1.7.6-3.5.6-5.2s-.2-3.3-.6-4.9c-.4-1.6-1-3-1.9-4.3s-2-2.3-3.3-3.1c-1.4-.8-3-1.2-5-1.2s-3.7.4-5.1,1.1c-1.4.8-2.6,1.8-3.5,3-.9,1.3-1.6,2.7-2,4.4s-.6,3.4-.6,5.2.2,3.4.5,5.1.9,3.2,1.7,4.6,1.9,2.5,3.3,3.4c1.4.8,3.1,1.3,5.1,1.3s4-.4,5.4-1.3Z"/>
      </g>
      <g>
        <polygon class="cls-2" points="38.8 86.5 1.1 86.5 1.1 45 38.8 86.5"/>
        <circle class="cls-1" cx="33.6" cy="55.2" r="11.3"/>
        <polygon class="cls-1" points="38.8 1.2 1.1 45 1.1 86.5 38.8 1.2"/>
      </g>
    </g>
  </g>
</svg>