<?xml version="1.0" encoding="utf-8"?>
<!-- Generator: Adobe Illustrator 26.5.0, SVG Export Plug-In . SVG Version: 6.00 Build 0)  -->
<svg version="1.1" id="Layer_1" xmlns="http://www.w3.org/2000/svg" xmlns:xlink="http://www.w3.org/1999/xlink" x="0px" y="0px"
	 viewBox="0 0 624.4 88.4" style="enable-background:new 0 0 624.4 88.4;" xml:space="preserve">
<style type="text/css">
	.st0{fill:url(#SVGID_1_);}
	.st1{fill:#D71F27;}
</style>
<g>
	
		<linearGradient id="SVGID_1_" gradientUnits="userSpaceOnUse" x1="3787.353" y1="-386.05" x2="3825.0918" y2="-386.05" gradientTransform="matrix(-1 0 0 -1 3827.7529 -320)">
		<stop  offset="0" style="stop-color:#D71F27"/>
		<stop  offset="1" style="stop-color:#971B1E"/>
	</linearGradient>
	<polygon class="st0" points="40.4,86.8 2.7,86.8 2.7,45.3 	"/>
	<circle class="st1" cx="35.2" cy="55.5" r="11.3"/>
	<polygon class="st1" points="40.4,1.5 2.7,45.3 2.7,86.8 	"/>
</g>
<g>
	<path d="M77.9,86.7H67.2V34.8H78L77.9,86.7L77.9,86.7z"/>
	<path d="M126.1,40.3c1.6,2.2,2.4,4.9,2.4,7.9c0,3.2-0.8,5.7-2.4,7.6c-0.9,1.1-2.2,2.1-4,3c2.7,1,4.7,2.5,6,4.6c1.3,2.1,2,4.6,2,7.6
		c0,3.1-0.8,5.8-2.3,8.3c-1,1.6-2.2,3-3.7,4.1c-1.7,1.3-3.6,2.1-5.9,2.6s-4.7,0.7-7.3,0.7H87.5V34.8h25.1
		C119,34.8,123.4,36.7,126.1,40.3z M97.9,43.8v11.5h12.6c2.3,0,4.1-0.4,5.5-1.3c1.4-0.9,2.1-2.4,2.1-4.6c0-2.4-0.9-4-2.8-4.8
		c-1.6-0.5-3.7-0.8-6.1-0.8C109.2,43.8,97.9,43.8,97.9,43.8z M97.9,63.8v13.8h12.6c2.3,0,4-0.3,5.3-0.9c2.3-1.1,3.4-3.3,3.4-6.5
		c0-2.7-1.1-4.6-3.3-5.6c-1.2-0.6-3-0.9-5.2-0.9H97.9V63.8z"/>
	<path d="M136.8,34.8h10.7v21.4l20.1-21.4h14l-21.3,21.4l22.4,30.6h-14l-16-22.7l-5.2,5.3v17.4h-10.7V34.8z"/>
	<path d="M219.6,36.1c1.9,0.8,3.5,2,4.9,3.6c1.1,1.3,2,2.8,2.6,4.4c0.6,1.6,1,3.4,1,5.5c0,2.5-0.6,4.9-1.9,7.3
		c-1.2,2.4-3.3,4.1-6.2,5.1c2.4,1,4.1,2.3,5.1,4.1s1.5,4.5,1.5,8.1v3.5c0,2.4,0.1,4,0.3,4.8c0.3,1.3,1,2.3,2,3v1.3h-12
		c-0.3-1.2-0.6-2.1-0.7-2.8c-0.3-1.5-0.4-2.9-0.5-4.5l-0.1-4.8c0-3.3-0.6-5.5-1.7-6.6c-1.1-1.1-3.2-1.7-6.2-1.7h-10.6v20.4h-10.6
		v-52h24.8C215,34.8,217.7,35.3,219.6,36.1z M197.2,43.8v14h11.7c2.3,0,4.1-0.3,5.2-0.8c2.1-1,3.1-2.9,3.1-5.8c0-3.1-1-5.3-3-6.3
		c-1.1-0.6-2.8-0.9-5-0.9h-12V43.8z"/>
</g>
<g>
	<path d="M284.7,34v5.8h-29v16.5h27v5.8h-27v18h29.2V86h-36.1V34H284.7z"/>
	<path d="M302.1,86l-14-37.7h6.9l10.6,31.4h0.1L316,48.3h6.5L308.7,86H302.1z"/>
	<path d="M352.1,83.6c-2.8,2.1-6.4,3.2-10.6,3.2c-3,0-5.6-0.5-7.8-1.5s-4.1-2.3-5.6-4.1c-1.5-1.7-2.6-3.8-3.4-6.3
		c-0.8-2.4-1.2-5.1-1.3-7.9c0-2.9,0.4-5.5,1.3-7.9s2.1-4.4,3.7-6.2c1.6-1.7,3.4-3.1,5.6-4.1s4.5-1.5,7.1-1.5c3.3,0,6.1,0.7,8.3,2.1
		c2.2,1.4,4,3.1,5.3,5.3c1.3,2.1,2.3,4.5,2.8,7s0.7,4.9,0.6,7.2h-28.2c0,1.7,0.1,3.2,0.6,4.7c0.4,1.5,1.1,2.8,2.1,3.9
		s2.2,2.1,3.7,2.7c1.5,0.7,3.3,1,5.3,1c2.6,0,4.8-0.6,6.4-1.8c1.7-1.2,2.8-3.1,3.3-5.5h6.1C356.7,78.3,354.9,81.5,352.1,83.6z
		 M350.6,59.4c-0.6-1.3-1.3-2.4-2.3-3.4c-0.9-0.9-2.1-1.7-3.3-2.3c-1.3-0.6-2.7-0.8-4.3-0.8c-1.6,0-3,0.3-4.3,0.8
		c-1.3,0.6-2.4,1.3-3.3,2.3s-1.7,2.1-2.2,3.4c-0.5,1.3-0.9,2.7-0.9,4.1h21.6C351.5,62.1,351.2,60.7,350.6,59.4z"/>
	<path d="M369.8,48.3v6h0.1c2.6-4.6,6.7-6.8,12.2-6.8c2.5,0,4.5,0.3,6.2,1c1.6,0.7,3,1.6,4,2.8s1.7,2.7,2.1,4.3
		c0.4,1.7,0.6,3.5,0.6,5.6V86h-6.2V60.5c0-2.3-0.7-4.2-2-5.5c-1.4-1.4-3.2-2-5.6-2c-1.9,0-3.5,0.3-4.9,0.9s-2.5,1.4-3.5,2.5
		c-0.9,1.1-1.6,2.3-2.1,3.8c-0.5,1.4-0.7,3-0.7,4.7V86h-6V48.3H369.8z"/>
	<path d="M420,48.3v5.5h-7.5v23.4c0,0.7,0.1,1.3,0.2,1.7c0.1,0.4,0.4,0.8,0.7,1c0.3,0.2,0.8,0.4,1.4,0.5s1.4,0.1,2.4,0.1h2.8V86
		h-4.7c-1.6,0-3-0.1-4.1-0.3c-1.1-0.2-2.1-0.6-2.8-1.2c-0.7-0.6-1.2-1.4-1.6-2.5c-0.3-1.1-0.5-2.5-0.5-4.2v-24h-6.4v-5.5h6.4V37.1
		h6.2v11.3L420,48.3L420,48.3z"/>
	<path d="M421.6,39.8V34h41.6v5.8h-17.3V86H439V39.8H421.6z"/>
	<path d="M466.2,48.3v7.9h0.1c1.5-3.1,3.3-5.3,5.5-6.8s5-2.1,8.3-2V54c-2.5,0-4.6,0.3-6.3,1c-1.7,0.7-3.2,1.7-4.2,3
		c-1.1,1.3-1.8,2.9-2.3,4.8s-0.7,4-0.7,6.4V86h-6.2V48.3H466.2z"/>
	<path d="M517.5,85.9c-1.1,0.6-2.5,0.9-4.4,0.9c-1.6,0-2.9-0.5-3.8-1.3s-1.4-2.4-1.4-4.4c-1.7,2-3.7,3.5-5.9,4.4s-4.7,1.3-7.3,1.3
		c-1.7,0-3.3-0.2-4.8-0.6s-2.9-1-4-1.8s-2-1.9-2.7-3.2c-0.7-1.3-1-2.9-1-4.8c0-2.1,0.4-3.9,1.1-5.2c0.7-1.4,1.7-2.5,2.9-3.3
		c1.2-0.8,2.5-1.5,4.1-1.9c1.5-0.4,3.1-0.8,4.7-1.1c1.7-0.3,3.3-0.6,4.8-0.8c1.5-0.2,2.9-0.4,4-0.7c1.2-0.3,2.1-0.8,2.8-1.4
		c0.7-0.6,1-1.5,1-2.7c0-1.4-0.3-2.5-0.8-3.3s-1.2-1.5-2-1.9s-1.7-0.7-2.7-0.9c-1-0.1-2-0.2-2.9-0.2c-2.6,0-4.8,0.5-6.6,1.5
		c-1.7,1-2.7,2.9-2.8,5.6h-6.2c0.1-2.3,0.6-4.3,1.5-5.9c0.9-1.6,2-2.9,3.5-3.9s3.1-1.7,5-2.1c1.9-0.4,3.9-0.7,6-0.7
		c1.7,0,3.4,0.1,5.1,0.4c1.7,0.2,3.2,0.7,4.6,1.5s2.5,1.8,3.3,3.2c0.8,1.4,1.2,3.1,1.2,5.3v19.3c0,1.5,0.1,2.5,0.3,3.2s0.7,1,1.7,1
		c0.5,0,1.2-0.1,1.9-0.3v4.8H517.5z M507.4,66.6c-0.8,0.6-1.8,1-3.1,1.3c-1.3,0.3-2.6,0.5-4,0.7s-2.8,0.4-4.2,0.6
		c-1.4,0.2-2.7,0.6-3.8,1.1c-1.1,0.5-2,1.2-2.7,2.1s-1.1,2.1-1.1,3.7c0,1,0.2,1.9,0.6,2.6s0.9,1.3,1.6,1.7c0.7,0.4,1.4,0.7,2.3,0.9
		s1.8,0.3,2.8,0.3c2,0,3.8-0.3,5.2-0.8c1.5-0.6,2.6-1.3,3.6-2.1c0.9-0.8,1.6-1.8,2-2.8s0.7-1.9,0.7-2.8v-6.5H507.4z"/>
	<path d="M549.2,86v-5.1h-0.1c-1,2.1-2.6,3.6-4.8,4.5s-4.6,1.4-7.2,1.4c-2.9,0-5.5-0.5-7.6-1.6c-2.2-1.1-4-2.5-5.4-4.3
		s-2.5-3.9-3.2-6.3s-1.1-4.9-1.1-7.6s0.4-5.2,1.1-7.6c0.7-2.4,1.8-4.5,3.2-6.2c1.4-1.8,3.2-3.2,5.4-4.2s4.7-1.6,7.5-1.6
		c1,0,2,0.1,3.1,0.3s2.2,0.5,3.4,1c1.1,0.5,2.2,1.1,3.2,1.8c1,0.8,1.8,1.7,2.5,2.8h0.1V34h6.2v52H549.2z M527,72.6
		c0.5,1.7,1.2,3.2,2.1,4.5c0.9,1.3,2.2,2.4,3.6,3.1c1.5,0.8,3.2,1.2,5.2,1.2c2.1,0,3.9-0.4,5.3-1.2c1.5-0.8,2.6-1.9,3.6-3.2
		c0.9-1.3,1.6-2.9,2-4.6s0.6-3.4,0.6-5.2c0-1.8-0.2-3.6-0.7-5.4c-0.4-1.7-1.1-3.2-2.1-4.6c-0.9-1.3-2.2-2.4-3.7-3.2
		s-3.3-1.2-5.5-1.2c-2.1,0-3.9,0.4-5.3,1.2c-1.5,0.8-2.6,1.9-3.5,3.3s-1.5,2.9-1.9,4.7c-0.4,1.7-0.6,3.5-0.6,5.4
		C526.3,69.2,526.5,71,527,72.6z"/>
	<path d="M589.7,83.6c-2.8,2.1-6.4,3.2-10.6,3.2c-3,0-5.6-0.5-7.8-1.5s-4.1-2.3-5.6-4.1s-2.6-3.8-3.4-6.3c-0.8-2.4-1.2-5.1-1.3-7.9
		c0-2.9,0.4-5.5,1.3-7.9c0.9-2.4,2.1-4.4,3.7-6.2c1.6-1.7,3.4-3.1,5.6-4.1c2.2-1,4.5-1.5,7.1-1.5c3.3,0,6.1,0.7,8.3,2.1
		c2.2,1.4,4,3.1,5.3,5.3c1.3,2.1,2.3,4.5,2.8,7s0.7,4.9,0.6,7.2h-28.2c0,1.7,0.1,3.2,0.6,4.7c0.4,1.5,1.1,2.8,2.1,3.9
		s2.2,2.1,3.7,2.7c1.5,0.7,3.3,1,5.3,1c2.6,0,4.8-0.6,6.4-1.8c1.7-1.2,2.8-3.1,3.3-5.5h6.1C594.3,78.3,592.5,81.5,589.7,83.6z
		 M588.2,59.4c-0.6-1.3-1.3-2.4-2.3-3.4c-0.9-0.9-2.1-1.7-3.4-2.3c-1.3-0.6-2.7-0.8-4.3-0.8s-3,0.3-4.3,0.8
		c-1.3,0.6-2.4,1.3-3.3,2.3c-0.9,1-1.7,2.1-2.2,3.4c-0.5,1.3-0.9,2.7-0.9,4.1h21.6C589.1,62.1,588.7,60.7,588.2,59.4z"/>
	<path d="M607.6,48.3v7.9h0.1c1.5-3.1,3.3-5.3,5.5-6.8s5-2.1,8.3-2V54c-2.5,0-4.6,0.3-6.3,1s-3.2,1.7-4.2,3
		c-1.1,1.3-1.8,2.9-2.3,4.8s-0.7,4-0.7,6.4V86h-6.2V48.3H607.6z"/>
</g>
</svg>
