<?xml version="1.0" encoding="utf-8"?>
<!-- Generator: Adobe Illustrator 27.9.0, SVG Export Plug-In . SVG Version: 6.00 Build 0)  -->
<svg version="1.1" id="Layer_1" xmlns="http://www.w3.org/2000/svg" xmlns:xlink="http://www.w3.org/1999/xlink" x="0px" y="0px"
	 viewBox="0 0 422 88" style="enable-background:new 0 0 422 88;" xml:space="preserve">
<style type="text/css">
	.st0{fill:url(#SVGID_1_);}
	.st1{fill:#464646;}
</style>
<g id="Content">
</g>
<linearGradient id="SVGID_1_" gradientUnits="userSpaceOnUse" x1="3127.3909" y1="1469.75" x2="3165.1296" y2="1469.75" gradientTransform="matrix(-1 0 0 1 3166.0908 -1404)">
	<stop  offset="0" style="stop-color:#464646"/>
	<stop  offset="1" style="stop-color:#000000"/>
</linearGradient>
<polygon class="st0" points="38.7,86.5 1,86.5 1,45 "/>
<circle class="st1" cx="33.5" cy="55.2" r="11.3"/>
<polygon class="st1" points="38.7,1.2 1,45 1,86.5 "/>
<g>
	<path d="M65.2,34.5H76v52H65.2V34.5z"/>
	<path d="M108.4,86.5H84.8v-52H110c6.4,0.1,10.9,1.9,13.5,5.5c1.6,2.2,2.4,4.9,2.4,7.9c0,3.2-0.8,5.7-2.4,7.7
		c-0.9,1.1-2.2,2.1-3.9,3c2.7,1,4.7,2.5,6,4.6c1.4,2.1,2,4.6,2,7.6c0,3.1-0.8,5.8-2.3,8.3c-1,1.6-2.2,3-3.7,4.1
		c-1.7,1.3-3.6,2.1-5.9,2.6C113.5,86.2,111,86.5,108.4,86.5z M113.5,53.7c1.4-0.8,2.1-2.4,2.1-4.5c0-2.4-0.9-4-2.8-4.8
		c-1.6-0.5-3.7-0.8-6.2-0.8H95.2V55H108C110.2,55,112.1,54.6,113.5,53.7z M108.1,63.6H95.2v13.9H108c2.3,0,4.1-0.3,5.3-0.9
		c2.3-1.1,3.5-3.3,3.5-6.5c0-2.7-1.1-4.6-3.4-5.6C112.1,63.9,110.4,63.6,108.1,63.6z"/>
	<path d="M180.8,86.5h-14l-16-22.7l-5.2,5.3v17.4h-10.7v-52h10.7v21.4l20.1-21.4h14l-21.3,21.4L180.8,86.5z"/>
	<path d="M206.1,66.1h-11.2v20.4h-10.6v-52h25.5c3.6,0.1,6.4,0.5,8.4,1.3s3.6,2,5,3.6c1.1,1.3,2,2.8,2.7,4.4c0.7,1.6,1,3.4,1,5.5
		c0,2.5-0.6,4.9-1.9,7.3s-3.3,4.1-6.2,5.1c2.4,1,4.1,2.3,5.1,4.1c1,1.8,1.5,4.5,1.5,8.1v3.5c0,2.4,0.1,4,0.3,4.8
		c0.3,1.3,0.9,2.3,2,3v1.3h-12c-0.3-1.2-0.6-2.1-0.7-2.8c-0.3-1.5-0.4-3-0.5-4.5l-0.1-4.8c0-3.3-0.7-5.5-1.8-6.6
		S209.3,66.1,206.1,66.1z M212.7,56.7c2.2-1,3.2-2.9,3.2-5.9c0-3.2-1-5.3-3.1-6.3c-1.2-0.6-2.9-0.9-5.3-0.9h-12.6v14h12.3
		C209.6,57.5,211.5,57.2,212.7,56.7z"/>
	<path d="M276.7,41.6c-2.3-1.7-5.3-2.5-8.8-2.5c-1.5,0-2.9,0.1-4.3,0.4c-1.4,0.3-2.7,0.8-3.8,1.5c-1.1,0.7-2,1.6-2.6,2.7
		s-1,2.6-1,4.3c0,1.6,0.5,2.9,1.4,3.9s2.2,1.8,3.8,2.4c1.6,0.6,3.4,1.2,5.4,1.6c2,0.4,4,0.9,6.1,1.3c2.1,0.5,4.1,1.1,6.1,1.7
		c2,0.7,3.8,1.5,5.4,2.7c1.6,1.1,2.8,2.5,3.8,4.2c0.9,1.7,1.4,3.8,1.4,6.4c0,2.8-0.6,5.1-1.9,7.1c-1.2,2-2.8,3.6-4.8,4.8
		c-1.9,1.2-4.1,2.1-6.5,2.7s-4.8,0.8-7.2,0.8c-2.9,0-5.7-0.4-8.3-1.1c-2.6-0.7-4.9-1.8-6.8-3.3c-2-1.5-3.5-3.4-4.7-5.7
		c-1.1-2.3-1.7-5-1.7-8.2h6.6c0,2.2,0.4,4.1,1.3,5.6c0.8,1.6,2,2.9,3.3,3.9s3,1.8,4.8,2.3s3.7,0.7,5.7,0.7c1.6,0,3.1-0.1,4.7-0.4
		s3-0.8,4.3-1.5s2.3-1.7,3.1-2.9c0.8-1.2,1.2-2.8,1.2-4.7c0-1.8-0.5-3.3-1.4-4.4s-2.2-2-3.8-2.7c-1.6-0.7-3.4-1.3-5.4-1.7
		s-4-0.9-6.1-1.3c-2.1-0.5-4.1-1-6.1-1.6s-3.8-1.4-5.4-2.4s-2.8-2.3-3.8-3.9c-0.9-1.6-1.4-3.6-1.4-5.9c0-2.6,0.5-4.9,1.6-6.8
		c1.1-1.9,2.5-3.5,4.3-4.7c1.8-1.2,3.8-2.2,6-2.8c2.3-0.6,4.6-0.9,7-0.9c2.7,0,5.1,0.3,7.4,0.9c2.3,0.6,4.3,1.6,6,3s3.1,3.1,4.1,5.1
		c1,2.1,1.5,4.5,1.6,7.4h-6.6C280.4,46,279,43.3,276.7,41.6z"/>
	<path d="M330.2,86.3c-1.1,0.6-2.5,0.9-4.4,0.9c-1.6,0-2.9-0.5-3.8-1.3s-1.4-2.4-1.4-4.4c-1.7,2-3.7,3.5-5.9,4.4s-4.7,1.3-7.3,1.3
		c-1.7,0-3.3-0.2-4.8-0.6s-2.9-1-4-1.8s-2-1.9-2.7-3.2c-0.7-1.3-1-2.9-1-4.8c0-2.1,0.4-3.9,1.1-5.2c0.7-1.4,1.7-2.5,2.9-3.3
		c1.2-0.8,2.5-1.5,4.1-1.9c1.5-0.4,3.1-0.8,4.7-1.1c1.7-0.3,3.3-0.6,4.8-0.8c1.5-0.2,2.9-0.4,4-0.7c1.2-0.3,2.1-0.8,2.8-1.4
		c0.7-0.6,1-1.5,1-2.7c0-1.4-0.3-2.5-0.8-3.3s-1.2-1.5-2-1.9s-1.7-0.7-2.7-0.9c-1-0.1-2-0.2-2.9-0.2c-2.6,0-4.8,0.5-6.6,1.5
		c-1.7,1-2.7,2.9-2.8,5.6h-6.2c0.1-2.3,0.6-4.3,1.5-5.9c0.9-1.6,2-2.9,3.5-3.9s3.1-1.7,5-2.1c1.9-0.4,3.9-0.7,6-0.7
		c1.7,0,3.4,0.1,5.1,0.4c1.7,0.2,3.2,0.7,4.6,1.5s2.5,1.8,3.3,3.2s1.2,3.1,1.2,5.3v19.3c0,1.5,0.1,2.5,0.3,3.2c0.2,0.7,0.7,1,1.7,1
		c0.5,0,1.2-0.1,1.9-0.3v4.8L330.2,86.3L330.2,86.3z M320.2,67c-0.8,0.6-1.8,1-3.1,1.3c-1.3,0.3-2.6,0.5-4,0.7s-2.8,0.4-4.2,0.6
		c-1.4,0.2-2.7,0.6-3.8,1.1c-1.1,0.5-2,1.2-2.7,2.1s-1.1,2.1-1.1,3.7c0,1,0.2,1.9,0.6,2.6s0.9,1.3,1.6,1.7c0.7,0.4,1.4,0.7,2.3,0.9
		s1.8,0.3,2.8,0.3c2,0,3.8-0.3,5.2-0.8c1.5-0.6,2.6-1.3,3.6-2.1c0.9-0.8,1.6-1.8,2-2.8s0.7-1.9,0.7-2.8V67H320.2z"/>
	<path d="M342.5,34.5v52h-6.2v-52H342.5z"/>
	<path d="M378.8,84.1c-2.8,2.1-6.4,3.2-10.6,3.2c-3,0-5.6-0.5-7.8-1.5c-2.2-1-4.1-2.3-5.6-4.1s-2.6-3.8-3.4-6.3
		c-0.8-2.4-1.2-5.1-1.3-7.9c0-2.9,0.4-5.5,1.3-7.9s2.1-4.4,3.7-6.2c1.6-1.7,3.4-3.1,5.6-4.1s4.5-1.5,7.1-1.5c3.3,0,6.1,0.7,8.3,2.1
		c2.2,1.4,4,3.1,5.3,5.3c1.3,2.1,2.3,4.5,2.8,7s0.7,4.9,0.6,7.2h-28.2c0,1.7,0.1,3.2,0.6,4.7c0.4,1.5,1.1,2.8,2.1,3.9
		s2.2,2.1,3.7,2.7c1.5,0.7,3.3,1,5.3,1c2.6,0,4.8-0.6,6.4-1.8c1.7-1.2,2.8-3.1,3.3-5.5h6.1C383.4,78.8,381.6,81.9,378.8,84.1z
		 M377.3,59.9c-0.6-1.3-1.3-2.4-2.3-3.4c-0.9-0.9-2.1-1.7-3.4-2.3s-2.7-0.8-4.3-0.8c-1.6,0-3,0.3-4.3,0.8c-1.3,0.6-2.4,1.3-3.3,2.3
		s-1.7,2.1-2.2,3.4c-0.5,1.3-0.9,2.7-0.9,4.1h21.6C378.2,62.6,377.8,61.2,377.3,59.9z"/>
	<path d="M396,78.1c0.6,0.9,1.3,1.7,2.3,2.3c0.9,0.6,2,1,3.2,1.2s2.4,0.4,3.7,0.4c1,0,2-0.1,3.1-0.2s2.1-0.4,2.9-0.8
		c0.9-0.4,1.6-1,2.2-1.7c0.6-0.8,0.9-1.7,0.9-2.9c0-1.6-0.6-2.8-1.8-3.6c-1.2-0.8-2.7-1.5-4.6-2c-1.8-0.5-3.8-1-5.9-1.4
		s-4.1-1-5.9-1.7c-1.8-0.8-3.3-1.8-4.6-3.2c-1.2-1.4-1.8-3.3-1.8-5.7c0-1.9,0.4-3.5,1.3-4.9c0.8-1.4,1.9-2.5,3.3-3.3
		c1.3-0.8,2.8-1.5,4.5-1.9s3.3-0.6,5-0.6c2.1,0,4.1,0.2,5.9,0.5c1.8,0.4,3.4,1,4.8,1.9s2.5,2.1,3.3,3.6s1.3,3.4,1.5,5.7h-6.2
		c-0.1-1.2-0.4-2.2-0.9-3s-1.2-1.4-2-1.9s-1.7-0.8-2.7-1.1c-1-0.2-2-0.3-3-0.3c-0.9,0-1.9,0.1-2.8,0.2c-0.9,0.1-1.8,0.4-2.6,0.8
		c-0.8,0.4-1.4,0.8-1.9,1.5c-0.5,0.6-0.7,1.4-0.7,2.4c0,1.1,0.4,2,1.1,2.7c0.8,0.7,1.7,1.3,2.9,1.7c1.2,0.5,2.5,0.8,3.9,1.2
		c1.5,0.3,2.9,0.6,4.4,1c1.6,0.3,3.1,0.8,4.6,1.2c1.5,0.5,2.8,1.1,3.9,1.9s2.1,1.8,2.8,3c0.7,1.2,1.1,2.7,1.1,4.5
		c0,2.3-0.5,4.2-1.4,5.7s-2.2,2.7-3.7,3.6s-3.3,1.6-5.2,1.9s-3.8,0.5-5.7,0.5c-2.1,0-4.1-0.2-6-0.7c-1.9-0.4-3.6-1.2-5-2.1
		c-1.5-1-2.6-2.3-3.5-3.9s-1.4-3.6-1.5-5.9h6.2C395.1,76,395.4,77.1,396,78.1z"/>
</g>
</svg>
