<?xml version="1.0" encoding="utf-8"?>
<!-- Generator: Adobe Illustrator 26.0.3, SVG Export Plug-In . SVG Version: 6.00 Build 0)  -->
<svg version="1.1" id="Layer_1" xmlns="http://www.w3.org/2000/svg" xmlns:xlink="http://www.w3.org/1999/xlink" x="0px" y="0px"
	 viewBox="0 0 658 88.4" style="enable-background:new 0 0 658 88.4;" xml:space="preserve">
<style type="text/css">
	.st0{fill:url(#SVGID_1_);}
	.st1{fill:#D71F27;}
	.st2{fill:#FFFFFF;}
</style>
<linearGradient id="SVGID_1_" gradientUnits="userSpaceOnUse" x1="3505.353" y1="23.95" x2="3543.0918" y2="23.95" gradientTransform="matrix(-1 0 0 -1 3545.7529 90)">
	<stop  offset="0" style="stop-color:#D71F27"/>
	<stop  offset="1" style="stop-color:#971B1E"/>
</linearGradient>
<polygon class="st0" points="40.4,86.8 2.7,86.8 2.7,45.3 "/>
<circle class="st1" cx="35.2" cy="55.5" r="11.3"/>
<polygon class="st1" points="40.4,1.5 2.7,45.3 2.7,86.8 "/>
<path class="st2" d="M77.9,86.7H67.2V34.8H78L77.9,86.7L77.9,86.7z"/>
<path class="st2" d="M126.1,40.3c1.6,2.2,2.4,4.9,2.4,7.9c0,3.2-0.8,5.7-2.4,7.6c-0.9,1.1-2.2,2.1-4,3c2.7,1,4.7,2.5,6,4.6
	c1.3,2.1,2,4.6,2,7.6c0,3.1-0.8,5.8-2.3,8.3c-1,1.6-2.2,3-3.7,4.1c-1.7,1.3-3.6,2.1-5.9,2.6s-4.7,0.7-7.3,0.7H87.5V34.8h25.1
	C119,34.8,123.4,36.7,126.1,40.3z M97.9,43.8v11.5h12.6c2.3,0,4.1-0.4,5.5-1.3c1.4-0.9,2.1-2.4,2.1-4.6c0-2.4-0.9-4-2.8-4.8
	c-1.6-0.5-3.7-0.8-6.1-0.8C109.2,43.8,97.9,43.8,97.9,43.8z M97.9,63.8v13.8h12.6c2.3,0,4-0.3,5.3-0.9c2.3-1.1,3.4-3.3,3.4-6.5
	c0-2.7-1.1-4.6-3.3-5.6c-1.2-0.6-3-0.9-5.2-0.9H97.9V63.8z"/>
<path class="st2" d="M136.8,34.8h10.7v21.4l20.1-21.4h14l-21.3,21.4l22.4,30.6h-14l-16-22.7l-5.2,5.3v17.4h-10.7V34.8z"/>
<path class="st2" d="M219.6,36.1c1.9,0.8,3.5,2,4.9,3.6c1.1,1.3,2,2.8,2.6,4.4c0.6,1.6,1,3.4,1,5.5c0,2.5-0.6,4.9-1.9,7.3
	c-1.2,2.4-3.3,4.1-6.2,5.1c2.4,1,4.1,2.3,5.1,4.1s1.5,4.5,1.5,8.1v3.5c0,2.4,0.1,4,0.3,4.8c0.3,1.3,1,2.3,2,3v1.3h-12
	c-0.3-1.2-0.6-2.1-0.7-2.8c-0.3-1.5-0.4-2.9-0.5-4.5l-0.1-4.8c0-3.3-0.6-5.5-1.7-6.6c-1.1-1.1-3.2-1.7-6.2-1.7h-10.6v20.4h-10.6v-52
	h24.8C215,34.8,217.7,35.3,219.6,36.1z M197.2,43.8v14h11.7c2.3,0,4.1-0.3,5.2-0.8c2.1-1,3.1-2.9,3.1-5.8c0-3.1-1-5.3-3-6.3
	c-1.1-0.6-2.8-0.9-5-0.9h-12V43.8z"/>
<g>
	<path class="st2" d="M283.8,36.6c4.9,2.6,7.9,7.2,9,13.8H286c-0.8-3.7-2.5-6.3-5-8c-2.5-1.7-5.7-2.5-9.5-2.5
		c-4.6,0-8.4,1.7-11.5,5.2c-3.1,3.5-4.7,8.7-4.7,15.6c0,6,1.3,10.8,3.9,14.6c2.6,3.7,6.8,5.6,12.6,5.6c4.4,0,8.1-1.3,11-3.9
		c2.9-2.6,4.4-6.9,4.5-12.8h-15.7v-5.6h22v26.9h-4.4l-1.6-6.5c-2.3,2.5-4.3,4.3-6,5.3c-2.9,1.7-6.7,2.5-11.2,2.5
		c-5.9,0-10.9-1.9-15.1-5.8c-4.6-4.8-6.9-11.5-6.9-19.9c0-8.4,2.2-15.1,6.7-20.1c4.3-4.7,9.8-7.1,16.6-7.1
		C276.3,33.8,280.4,34.7,283.8,36.6z"/>
	<path class="st2" d="M304.1,35.1h6.2v50.2h-6.2V35.1z"/>
	<path class="st2" d="M346,52.4c3.2,3.1,4.9,7.8,4.9,13.9c0,5.9-1.4,10.8-4.3,14.6c-2.9,3.8-7.3,5.8-13.3,5.8c-5,0-9-1.7-11.9-5.1
		c-2.9-3.4-4.4-8-4.4-13.7c0-6.1,1.5-11,4.6-14.7c3.1-3.6,7.3-5.5,12.5-5.5C338.8,47.7,342.8,49.2,346,52.4z M342.2,76.7
		c1.5-3.1,2.2-6.5,2.2-10.3c0-3.4-0.5-6.2-1.6-8.3c-1.7-3.4-4.7-5.1-8.9-5.1c-3.7,0-6.4,1.4-8.1,4.3c-1.7,2.9-2.5,6.3-2.5,10.4
		c0,3.9,0.8,7.1,2.5,9.7c1.7,2.6,4.4,3.9,8,3.9C338,81.3,340.7,79.8,342.2,76.7z"/>
	<path class="st2" d="M357.9,34.9h6v18.2c1.3-1.8,3-3.1,4.8-4c1.9-0.9,3.9-1.4,6.1-1.4c4.6,0,8.3,1.6,11.1,4.7
		c2.8,3.1,4.3,7.8,4.3,13.9c0,5.8-1.4,10.6-4.2,14.4s-6.7,5.7-11.7,5.7c-2.8,0-5.1-0.7-7.1-2c-1.1-0.8-2.4-2.1-3.7-3.8v4.7h-5.7
		V34.9z M381.5,77.1c1.7-2.6,2.5-6.1,2.5-10.5c0-3.9-0.8-7-2.5-9.6c-1.7-2.5-4.1-3.8-7.3-3.8c-2.8,0-5.3,1-7.4,3.1
		c-2.1,2.1-3.2,5.5-3.2,10.3c0,3.4,0.4,6.2,1.3,8.4c1.6,4,4.7,6,9.1,6C377.3,81.1,379.8,79.7,381.5,77.1z"/>
	<path class="st2" d="M417,63.2c1.4-0.2,2.4-0.8,2.8-1.8c0.3-0.5,0.4-1.3,0.4-2.4c0-2.1-0.7-3.6-2.2-4.6c-1.5-0.9-3.6-1.4-6.4-1.4
		c-3.2,0-5.5,0.9-6.8,2.6c-0.8,1-1.2,2.4-1.5,4.3h-5.7c0.1-4.5,1.6-7.7,4.4-9.4s6.1-2.7,9.8-2.7c4.3,0,7.8,0.8,10.5,2.5
		c2.7,1.6,4,4.2,4,7.7V79c0,0.6,0.1,1.2,0.4,1.5s0.8,0.6,1.7,0.6c0.3,0,0.6,0,0.9-0.1c0.3,0,0.7-0.1,1.1-0.2v4.5
		c-1,0.3-1.7,0.4-2.2,0.5c-0.5,0.1-1.2,0.1-2.1,0.1c-2.1,0-3.7-0.8-4.6-2.3c-0.5-0.8-0.9-1.9-1.1-3.4c-1.3,1.6-3.1,3.1-5.4,4.3
		c-2.3,1.2-4.9,1.8-7.8,1.8c-3.4,0-6.2-1-8.3-3.1c-2.2-2.1-3.2-4.6-3.2-7.7c0-3.4,1.1-6,3.2-7.9s4.9-3,8.3-3.4L417,63.2z M404,79.8
		c1.3,1,2.8,1.5,4.6,1.5c2.2,0,4.3-0.5,6.3-1.5c3.4-1.7,5.1-4.4,5.1-8.2v-4.9c-0.8,0.5-1.7,0.9-2.9,1.2s-2.3,0.5-3.5,0.7l-3.7,0.5
		c-2.2,0.3-3.9,0.8-5,1.4c-1.9,1.1-2.9,2.8-2.9,5.1C402.1,77.4,402.7,78.8,404,79.8z"/>
	<path class="st2" d="M436.5,35.1h6.2v50.2h-6.2V35.1z"/>
	<path class="st2" d="M489.2,35.1v6h-16.9v44.2h-6.9V41.1h-16.9v-6H489.2z"/>
	<path class="st2" d="M492.2,48.7h5.8V55c0.5-1.2,1.7-2.7,3.5-4.5c1.9-1.8,4-2.6,6.5-2.6c0.1,0,0.3,0,0.6,0c0.3,0,0.7,0.1,1.4,0.1
		v6.5c-0.4-0.1-0.7-0.1-1-0.1c-0.3,0-0.6,0-1,0c-3.1,0-5.5,1-7.1,3c-1.7,2-2.5,4.3-2.5,6.9v21.1h-6.2V48.7z"/>
	<path class="st2" d="M535,63.2c1.4-0.2,2.4-0.8,2.8-1.8c0.3-0.5,0.4-1.3,0.4-2.4c0-2.1-0.7-3.6-2.2-4.6c-1.5-0.9-3.6-1.4-6.4-1.4
		c-3.2,0-5.5,0.9-6.8,2.6c-0.8,1-1.2,2.4-1.5,4.3h-5.7c0.1-4.5,1.6-7.7,4.4-9.4s6.1-2.7,9.8-2.7c4.3,0,7.8,0.8,10.5,2.5
		c2.7,1.6,4,4.2,4,7.7V79c0,0.6,0.1,1.2,0.4,1.5s0.8,0.6,1.7,0.6c0.3,0,0.6,0,0.9-0.1c0.3,0,0.7-0.1,1.1-0.2v4.5
		c-1,0.3-1.7,0.4-2.2,0.5c-0.5,0.1-1.2,0.1-2.1,0.1c-2.1,0-3.7-0.8-4.6-2.3c-0.5-0.8-0.9-1.9-1.1-3.4c-1.3,1.6-3.1,3.1-5.4,4.3
		c-2.3,1.2-4.9,1.8-7.8,1.8c-3.4,0-6.2-1-8.3-3.1c-2.2-2.1-3.2-4.6-3.2-7.7c0-3.4,1.1-6,3.2-7.9s4.9-3,8.3-3.4L535,63.2z M522,79.8
		c1.3,1,2.8,1.5,4.6,1.5c2.2,0,4.3-0.5,6.3-1.5c3.4-1.7,5.1-4.4,5.1-8.2v-4.9c-0.8,0.5-1.7,0.9-2.9,1.2s-2.3,0.5-3.5,0.7l-3.7,0.5
		c-2.2,0.3-3.9,0.8-5,1.4c-1.9,1.1-2.9,2.8-2.9,5.1C520.1,77.4,520.7,78.8,522,79.8z"/>
	<path class="st2" d="M574.4,49.9c1.1,0.7,2.3,1.9,3.7,3.6V34.9h5.9v50.4h-5.5v-5.1c-1.4,2.3-3.1,3.9-5.1,4.9c-2,1-4.2,1.5-6.7,1.5
		c-4.1,0-7.6-1.7-10.6-5.1c-3-3.4-4.5-8-4.5-13.7c0-5.3,1.4-10,4.1-13.9c2.7-3.9,6.6-5.9,11.6-5.9C570.2,48.1,572.5,48.7,574.4,49.9
		z M560.7,77.3c1.7,2.6,4.3,4,8,4c2.8,0,5.2-1.2,7-3.7c1.8-2.4,2.7-6,2.7-10.5c0-4.6-0.9-8-2.8-10.3c-1.9-2.2-4.2-3.3-7-3.3
		c-3.1,0-5.6,1.2-7.5,3.6c-1.9,2.4-2.9,5.9-2.9,10.5C558.2,71.4,559,74.7,560.7,77.3z"/>
	<path class="st2" d="M615.8,49.7c2.4,1.2,4.3,2.8,5.5,4.7c1.2,1.8,2,4,2.4,6.5c0.4,1.7,0.5,4.4,0.5,8.1h-26.6c0.1,3.7,1,6.7,2.6,9
		c1.6,2.3,4.1,3.4,7.6,3.4c3.2,0,5.7-1.1,7.6-3.2c1.1-1.2,1.8-2.7,2.3-4.3h6c-0.2,1.3-0.7,2.8-1.6,4.5c-0.9,1.7-1.9,3-3,4.1
		c-1.9,1.8-4.2,3.1-6.9,3.7c-1.5,0.4-3.1,0.5-5,0.5c-4.5,0-8.4-1.7-11.5-5c-3.1-3.3-4.7-8-4.7-13.9c0-5.9,1.6-10.7,4.8-14.3
		c3.2-3.7,7.3-5.5,12.4-5.5C610.9,47.9,613.4,48.5,615.8,49.7z M618,64.1c-0.2-2.7-0.8-4.8-1.7-6.4c-1.7-3-4.5-4.4-8.4-4.4
		c-2.8,0-5.2,1-7,3.1c-1.9,2-2.9,4.6-3,7.8H618z"/>
	<path class="st2" d="M632.3,48.7h5.8V55c0.5-1.2,1.7-2.7,3.5-4.5c1.9-1.8,4-2.6,6.5-2.6c0.1,0,0.3,0,0.6,0c0.3,0,0.7,0.1,1.4,0.1
		v6.5c-0.4-0.1-0.7-0.1-1-0.1c-0.3,0-0.6,0-1,0c-3.1,0-5.5,1-7.1,3c-1.7,2-2.5,4.3-2.5,6.9v21.1h-6.2V48.7z"/>
</g>
</svg>
