<?xml version="1.0" encoding="iso-8859-1"?>
<!-- Generator: Adobe Illustrator 16.0.0, SVG Export Plug-In . SVG Version: 6.00 Build 0)  -->
<!DOCTYPE svg PUBLIC "-//W3C//DTD SVG 1.1//EN" "http://www.w3.org/Graphics/SVG/1.1/DTD/svg11.dtd">
<svg version="1.1" id="art_blk" xmlns="http://www.w3.org/2000/svg" xmlns:xlink="http://www.w3.org/1999/xlink" x="0px" y="0px"
	 width="40.375px" height="40.375px" viewBox="0 0 40.375 40.375" enable-background="new 0 0 40.375 40.375" xml:space="preserve">
<g>
	<path fill="#231F20" d="M31.663,11.249c0-1.381-1.119-2.499-2.5-2.499s-2.5,1.118-2.5,2.499c0,1.209,0.859,2.218,2,2.449V29.75h1
		V13.698C30.803,13.467,31.663,12.458,31.663,11.249z M29.163,12.749c-0.827,0-1.5-0.673-1.5-1.5c0-0.826,0.673-1.499,1.5-1.499
		s1.5,0.673,1.5,1.499C30.663,12.076,29.99,12.749,29.163,12.749z"/>
	<path fill="#231F20" d="M11.663,26.799V10.75h-1v16.049c-1.142,0.232-2,1.24-2,2.451c0,1.379,1.119,2.5,2.5,2.5s2.5-1.121,2.5-2.5
		C13.663,28.039,12.804,27.031,11.663,26.799z M11.163,30.75c-0.827,0-1.5-0.674-1.5-1.5c0-0.828,0.673-1.5,1.5-1.5
		s1.5,0.672,1.5,1.5C12.663,30.076,11.99,30.75,11.163,30.75z"/>
	<path fill="#231F20" d="M20.663,17.843V10.75h-1v7.093c-1.141,0.231-2,1.24-2,2.449c0,1.208,0.859,2.218,2,2.448v7.01h1v-7.01
		c1.141-0.23,2-1.24,2-2.448C22.663,19.083,21.803,18.074,20.663,17.843z M20.163,21.791c-0.827,0-1.5-0.672-1.5-1.499
		s0.673-1.5,1.5-1.5s1.5,0.673,1.5,1.5S20.99,21.791,20.163,21.791z"/>
</g>
</svg>
