<?xml version="1.0" encoding="iso-8859-1"?>
<!-- Generator: Adobe Illustrator 16.0.0, SVG Export Plug-In . SVG Version: 6.00 Build 0)  -->
<!DOCTYPE svg PUBLIC "-//W3C//DTD SVG 1.1//EN" "http://www.w3.org/Graphics/SVG/1.1/DTD/svg11.dtd">
<svg version="1.1" id="art_blk" xmlns="http://www.w3.org/2000/svg" xmlns:xlink="http://www.w3.org/1999/xlink" x="0px" y="0px"
	 width="40.375px" height="40.375px" viewBox="0 0 40.375 40.375" enable-background="new 0 0 40.375 40.375" xml:space="preserve">
<g>
	<path fill="#1C2021" d="M18.639,31.315l-13.32-4.622C4.5,26.35,3.991,25.562,3.991,24.676c0-1.193,0.925-2.164,2.062-2.164
		c0.171,0,0.338,0.025,0.544,0.083l10.894,2.724l4.133-1.078l-0.023-1.506l-5.252,0.021c-1.197-0.01-2.156-0.98-2.156-2.163
		c0-1.073,0.791-1.972,1.818-2.136l0.013-0.026l0.311-0.002l8.774,0.045l4.337,1.971h6.104v7.083h-3.656L18.639,31.315z
		 M6.053,23.512c-0.586,0-1.062,0.522-1.062,1.164c0,0.483,0.27,0.908,0.686,1.084l12.992,4.507l13.155-3.739h2.726v-5.083
		L29.13,21.4l-4.337-1.971l-8.456,0.002c-0.631,0.005-1.145,0.527-1.145,1.162c0,0.636,0.514,1.157,1.146,1.163l6.247-0.025
		l0.051,3.279l-5.14,1.34l-0.124-0.03L6.341,23.56C6.213,23.525,6.129,23.512,6.053,23.512z"/>
	<path fill="#1C2021" d="M12.791,18.506c-0.933,0-1.591-0.318-1.855-0.895c-0.495-1.086,0.69-2.616,2.757-3.559
		c0.911-0.415,1.849-0.644,2.643-0.644c0.932,0,1.59,0.317,1.853,0.893c0.263,0.576,0.072,1.281-0.538,1.985
		c-0.52,0.601-1.308,1.161-2.219,1.576C14.522,18.278,13.584,18.506,12.791,18.506z M16.336,14.409
		c-0.644,0-1.456,0.202-2.228,0.554c-1.633,0.745-2.443,1.838-2.262,2.234c0.086,0.188,0.457,0.31,0.945,0.31
		c0.644,0,1.455-0.202,2.227-0.554c0.772-0.352,1.457-0.833,1.878-1.321c0.319-0.368,0.47-0.728,0.384-0.915
		C17.194,14.53,16.824,14.409,16.336,14.409z"/>
	<path fill="#1C2021" d="M23.8,16.764c-0.841,0-1.887-0.311-2.869-0.852c-0.878-0.484-1.622-1.101-2.095-1.738
		c-0.555-0.748-0.692-1.465-0.387-2.02c0.562-1.02,2.604-0.955,4.501,0.089c0.877,0.482,1.622,1.1,2.095,1.738
		c0.555,0.748,0.692,1.465,0.387,2.02C25.162,16.493,24.583,16.764,23.8,16.764z M20.08,12.392c-0.388,0-0.67,0.091-0.755,0.245
		c-0.1,0.181,0.023,0.55,0.313,0.941c0.384,0.517,1.031,1.049,1.775,1.458c0.839,0.462,1.709,0.728,2.387,0.728
		c0.389,0,0.672-0.092,0.756-0.246c0.1-0.181-0.024-0.55-0.314-0.942c-0.384-0.518-1.031-1.049-1.774-1.458
		C21.628,12.657,20.757,12.392,20.08,12.392z"/>
	<path fill="#1C2021" d="M16.226,11.581c-1.583,0-2.675-0.551-2.847-1.438c-0.23-1.167,1.278-2.38,3.508-2.819
		c0.5-0.098,0.993-0.147,1.467-0.147c1.584,0,2.676,0.551,2.848,1.438c0.07,0.355-0.019,0.73-0.256,1.084
		c-0.525,0.781-1.772,1.446-3.254,1.735C17.193,11.532,16.7,11.581,16.226,11.581z M18.354,8.177c-0.41,0-0.839,0.043-1.274,0.128
		c-1.761,0.347-2.804,1.221-2.72,1.646c0.051,0.263,0.663,0.63,1.865,0.63c0.41,0,0.839-0.043,1.274-0.128
		c1.379-0.269,2.308-0.853,2.616-1.312c0.06-0.089,0.127-0.22,0.104-0.334C20.17,8.544,19.558,8.177,18.354,8.177z"/>
</g>
</svg>
