<svg xmlns="http://www.w3.org/2000/svg" xmlns:xlink="http://www.w3.org/1999/xlink" width="96" height="96" viewBox="0 0 96 96"><defs><linearGradient id="a" x1="0.733" y1="0.627" x2="-0.104" y2="0.347" gradientUnits="objectBoundingBox"><stop offset="0" stop-color="#f16748"/><stop offset="1" stop-color="#aa2424"/></linearGradient></defs><g transform="translate(-47.875 137.45)"><g transform="translate(47.875 -137.45)"><circle cx="48" cy="48" r="48" fill="#fff"/><path d="M26.016-10.424a51.053,51.053,0,0,0,6.4-32.559,51.3,51.3,0,0,0-29.553,53.6A51.042,51.042,0,0,0,26.016-10.424Z" transform="translate(23.163 59.384)" fill="#f16748"/><circle cx="7.092" cy="7.092" r="7.092" transform="translate(53.454 48)" fill="#f16748"/><g transform="translate(28.956 62.845)"><path d="M18.869-27.4c-.2-.03-.4-.057-.6-.081a2.575,2.575,0,0,0-2.061.66l-.42.384A54.344,54.344,0,0,1,3.527-18.143,32.4,32.4,0,0,0,37.946-17,32.272,32.272,0,0,0,18.869-27.4Z" transform="translate(-3.527 27.502)" stroke="rgba(0,0,0,0)" stroke-width="1" fill="url(#a)"/></g></g></g></svg>