<?xml version="1.0" encoding="utf-8"?>
<!-- Generator: Adobe Illustrator 27.9.0, SVG Export Plug-In . SVG Version: 6.00 Build 0)  -->
<svg version="1.1" id="Layer_1" xmlns="http://www.w3.org/2000/svg" xmlns:xlink="http://www.w3.org/1999/xlink" x="0px" y="0px"
	 viewBox="0 0 195.5 48" style="enable-background:new 0 0 195.5 48;" xml:space="preserve">
<style type="text/css">
	.st0{fill:#F16748;}
	.st1{fill:#FFFFFF;}
	.st2{fill:url(#SVGID_1_);}
</style>
<g transform="translate(6.125 48.45)">
	<g transform="translate(-6.125 -48.45)">
		<circle class="st0" cx="23.9" cy="23.9" r="23.9"/>
		<path class="st1" d="M24.4,24.3c2.8-4.9,4-10.6,3.2-16.2c-10.2,4.7-16.2,15.5-14.7,26.6C17.8,32.6,21.8,28.9,24.4,24.3z"/>
		<circle class="st1" cx="30.1" cy="27.4" r="3.5"/>
		<g transform="translate(14.39 31.232)">
			
				<linearGradient id="SVGID_1_" gradientUnits="userSpaceOnUse" x1="-208.5463" y1="339.0716" x2="-209.3833" y2="339.3516" gradientTransform="matrix(17.105 0 0 -7.4058 3579.8748 2515.5261)">
				<stop  offset="0" style="stop-color:#FFFFFF"/>
				<stop  offset="1" style="stop-color:#FF7E57"/>
			</linearGradient>
			<path class="st2" d="M7.6,0.1C7.5,0,7.4,0,7.3,0C7,0,6.6,0.1,6.3,0.3L6.1,0.5C4.3,2.2,2.2,3.6,0,4.7c5.1,3.5,11.8,3.7,17.1,0.6
				C14.6,2.5,11.3,0.6,7.6,0.1z"/>
		</g>
	</g>
	<g transform="translate(59.622 -43.855)">
		<g transform="translate(0)">
			<path class="st1" d="M0,20.1V2.5c0-1.3,1.1-2.3,2.4-2.3c0,0,0,0,0,0c1.3,0,2.3,1,2.3,2.3c0,0,0,0,0,0v17.7c0,1.3-1,2.3-2.3,2.3
				C1.1,22.5,0,21.4,0,20.1z"/>
			<path class="st1" d="M30.7,20.1V6.5l-5.9,15.1c-0.2,0.5-0.7,0.8-1.2,0.9c-0.5,0-1-0.3-1.2-0.9L16.3,6.5v13.6c0,1.3-1,2.3-2.3,2.3
				c-1.3,0-2.3-1-2.4-2.3V3.9c0-2.1,1.7-3.8,3.8-3.8c1.6,0,3,1,3.6,2.5L23.5,14L28,2.6c0.6-1.5,2-2.5,3.5-2.5c2.1,0,3.8,1.7,3.8,3.8
				c0,0,0,0,0,0v16.2c0,1.3-1.1,2.3-2.4,2.3C31.8,22.5,30.7,21.4,30.7,20.1z"/>
			<path class="st1" d="M42.5,20.1V2.8c-0.1-1.2,0.7-2.3,2-2.5c0.2,0,0.3,0,0.5,0h7.8c4.8,0,7.3,3.2,7.3,7.1c0,3.8-2.6,7-7.3,7h-5.6
				v5.7c0,1.3-1,2.3-2.3,2.3C43.6,22.5,42.5,21.4,42.5,20.1z M52.1,4.4h-5v6h5c1.6,0.1,3.1-1.1,3.2-2.7c0-0.1,0-0.2,0-0.3
				c0-1.7-1.3-3-3-3C52.3,4.4,52.2,4.4,52.1,4.4L52.1,4.4z"/>
			<path class="st1" d="M83.3,20.1c0,1.3-1.1,2.4-2.4,2.4c-1,0-1.9-0.6-2.2-1.6l-0.9-2.6H68l-0.9,2.6c-0.3,0.9-1.2,1.6-2.2,1.6
				c-1.3,0-2.4-1-2.4-2.3c0,0,0,0,0,0c0-0.3,0.1-0.6,0.2-0.8l6.4-16.5c0.6-1.6,2.1-2.6,3.8-2.6c1.7,0,3.2,1,3.8,2.6l6.4,16.5
				C83.2,19.5,83.3,19.8,83.3,20.1z M76.4,14.3l-3.5-9.9l-3.5,9.9L76.4,14.3z"/>
			<path class="st1" d="M86.8,11.3C86.8,4.6,91.8,0,98.2,0c3-0.1,5.8,1.1,7.8,3.2c0.4,0.4,0.6,0.9,0.6,1.5c0,1.2-1,2.2-2.2,2.2
				c-0.6,0-1.3-0.3-1.7-0.8c-1.1-1.3-2.8-2-4.5-2c-3.8,0-6.7,3-6.7,7.2s2.9,7.2,6.7,7.2c1.7,0,3.4-0.7,4.5-2.1
				c0.4-0.5,1-0.7,1.6-0.7c1.2,0,2.2,1,2.2,2.2c0,0.5-0.2,1.1-0.6,1.4c-2,2.2-4.8,3.4-7.8,3.3C91.8,22.6,86.8,18,86.8,11.3z"/>
			<path class="st1" d="M117.6,20.1V4.5h-4.6c-1.1,0-2-0.9-2.1-2c0-1.1,0.9-2.1,2.1-2.1h13.8c1.1,0,2.1,0.9,2.1,2.1
				c0,1.1-0.9,2-2.1,2h-4.6v15.7c0,1.3-1,2.3-2.3,2.3C118.7,22.5,117.6,21.4,117.6,20.1z"/>
		</g>
	</g>
	<g transform="translate(60.367 -12.692)">
		<path class="st1" d="M0,0.1h1.1v3.4C1.4,3.1,1.7,2.9,2,2.7c0.4-0.2,0.7-0.3,1.1-0.3c0.8,0,1.5,0.3,2.1,0.9C5.8,4.1,6.1,5,6,5.9
			c0,1-0.2,1.9-0.8,2.7C4.7,9.3,3.9,9.7,3.1,9.7c-0.5,0-0.9-0.1-1.3-0.4C1.5,9.1,1.2,8.8,1.1,8.6v0.9H0V0.1z M4.4,7.9
			C4.7,7.3,4.9,6.6,4.8,6c0-0.6-0.1-1.2-0.5-1.8C4.1,3.7,3.6,3.4,3,3.5c-0.5,0-1,0.2-1.4,0.6C1.2,4.6,1,5.3,1.1,6
			C1,6.5,1.1,7,1.3,7.5C1.5,8.2,2.2,8.7,3,8.6C3.6,8.7,4.1,8.4,4.4,7.9z"/>
		<path class="st1" d="M11.6,2.6h1.3c-0.2,0.4-0.5,1.4-1.1,3c-0.4,1.2-0.8,2.1-1,2.9c-0.4,1.1-0.8,2.2-1.4,3.2
			c-0.3,0.4-0.9,0.6-1.4,0.6c-0.1,0-0.2,0-0.4,0c-0.1,0-0.2,0-0.3-0.1v-1c0.1,0,0.3,0.1,0.4,0.1c0.1,0,0.2,0,0.2,0
			c0.2,0,0.3,0,0.5-0.1c0.1-0.1,0.2-0.2,0.3-0.3c0,0,0.1-0.2,0.2-0.5s0.2-0.5,0.3-0.7l-2.5-7h1.3l1.8,5.6L11.6,2.6z"/>
		<path class="st1" d="M19.4,9.4h-2V0.1h2V9.4z"/>
		<path class="st1" d="M26.9,2.9c0.5,0.5,0.7,1.2,0.7,1.9v4.7h-1.9V5.2c0-0.3,0-0.6-0.1-0.8c-0.2-0.4-0.6-0.6-1-0.5
			c-0.5,0-1.1,0.3-1.3,0.8c-0.1,0.3-0.2,0.7-0.2,1.1v3.8h-1.8V2.5h1.8v1c0.2-0.3,0.4-0.6,0.7-0.8c0.4-0.3,0.9-0.4,1.4-0.4
			C25.8,2.3,26.4,2.5,26.9,2.9z"/>
		<path class="st1" d="M28.7,3.9V2.6h1V0.6h1.8v1.9h1.1v1.3h-1.1v3.7c0,0.2,0,0.4,0.1,0.5c0.2,0.1,0.4,0.1,0.7,0.1h0.2
			c0.1,0,0.1,0,0.2,0v1.4l-0.9,0c-0.6,0.1-1.3-0.1-1.8-0.4c-0.2-0.3-0.3-0.6-0.3-1V3.9L28.7,3.9z"/>
		<path class="st1" d="M38.4,2.6c0.5,0.2,0.9,0.6,1.2,1c0.3,0.4,0.5,0.9,0.6,1.4c0.1,0.5,0.1,0.9,0.1,1.4h-5.1
			c0,0.6,0.2,1.1,0.7,1.5c0.3,0.2,0.6,0.3,1,0.3c0.4,0,0.7-0.1,1-0.3c0.2-0.1,0.3-0.3,0.4-0.5h1.9c-0.1,0.5-0.3,0.9-0.7,1.3
			c-0.7,0.7-1.6,1.1-2.6,1c-0.9,0-1.8-0.3-2.4-0.9c-0.8-0.7-1.2-1.7-1.1-2.8c-0.1-1,0.3-2,1-2.8c0.7-0.7,1.6-1,2.5-1
			C37.3,2.3,37.8,2.4,38.4,2.6z M35.6,4.2c-0.3,0.3-0.4,0.7-0.5,1.1h3.1c0-0.4-0.2-0.8-0.5-1.1c-0.3-0.3-0.7-0.4-1.1-0.4
			C36.3,3.8,35.9,3.9,35.6,4.2z"/>
		<path class="st1" d="M45.3,2.3l0.2,0v1.9c-0.1,0-0.2,0-0.3,0s-0.2,0-0.2,0c-0.6-0.1-1.2,0.2-1.5,0.7c-0.2,0.4-0.2,0.8-0.2,1.2v3.3
			h-1.8V2.5h1.7v1.2c0.2-0.4,0.4-0.7,0.7-0.9C44.2,2.5,44.7,2.3,45.3,2.3C45.2,2.3,45.2,2.3,45.3,2.3z"/>
		<path class="st1" d="M49.4,5.2c0.2,0,0.5-0.1,0.7-0.2c0.2-0.1,0.4-0.3,0.4-0.5c0-0.2-0.1-0.5-0.3-0.6c-0.3-0.1-0.6-0.2-0.9-0.2
			c-0.3,0-0.7,0.1-0.9,0.3c-0.1,0.2-0.2,0.4-0.3,0.6h-1.8c0-0.5,0.2-1.1,0.5-1.5c0.6-0.7,1.6-1,2.5-0.9c0.7,0,1.4,0.1,2,0.5
			c0.6,0.3,1,1,0.9,1.7v3.2c0,0.2,0,0.5,0,0.8c0,0.2,0,0.3,0.1,0.5c0.1,0.1,0.2,0.2,0.3,0.2v0.3h-2c-0.1-0.1-0.1-0.3-0.1-0.4
			c0-0.1,0-0.3-0.1-0.4c-0.3,0.3-0.5,0.5-0.9,0.7c-0.4,0.2-0.9,0.3-1.3,0.3c-0.6,0-1.1-0.2-1.6-0.5c-0.4-0.4-0.7-1-0.6-1.5
			c-0.1-0.8,0.3-1.5,1-1.9c0.5-0.2,1-0.4,1.6-0.4L49.4,5.2z M50.5,6.1c-0.1,0.1-0.2,0.1-0.4,0.2c-0.2,0.1-0.3,0.1-0.5,0.1l-0.4,0.1
			c-0.3,0-0.6,0.1-0.8,0.2C48.2,6.8,48,7.1,48,7.5c0,0.3,0.1,0.5,0.3,0.7c0.2,0.1,0.4,0.2,0.6,0.2c0.4,0,0.8-0.1,1.1-0.3
			c0.4-0.3,0.6-0.8,0.5-1.3L50.5,6.1z"/>
		<path class="st1" d="M58.2,5c0-0.3-0.1-0.5-0.3-0.7c-0.2-0.3-0.6-0.4-1-0.4c-0.6,0-1.1,0.4-1.3,0.9c-0.1,0.4-0.2,0.8-0.2,1.3
			c0,0.4,0,0.8,0.2,1.2c0.2,0.5,0.7,0.9,1.2,0.9c0.3,0,0.7-0.1,0.9-0.3c0.2-0.3,0.3-0.6,0.3-0.9h1.9c0,0.6-0.3,1.1-0.6,1.6
			c-0.6,0.8-1.5,1.2-2.5,1.2c-0.9,0.1-1.8-0.3-2.5-1c-0.6-0.7-0.8-1.7-0.8-2.6c-0.1-1,0.2-2,0.9-2.8c0.6-0.7,1.5-1,2.4-1
			c0.8,0,1.5,0.2,2.1,0.6c0.6,0.5,1,1.3,1,2.1H58.2z"/>
		<path class="st1" d="M60.9,3.9V2.6h1V0.6h1.8v1.9h1.1v1.3h-1.1v3.7c0,0.3,0,0.5,0.1,0.5c0.2,0.1,0.4,0.1,0.7,0.1h0.2l0.2,0v1.4
			l-0.9,0c-0.6,0.1-1.3-0.1-1.8-0.4c-0.2-0.3-0.3-0.6-0.3-1V3.9L60.9,3.9z"/>
		<path class="st1" d="M68,1.7h-1.8V0H68L68,1.7z M66.2,2.5H68v6.9h-1.8L66.2,2.5z"/>
		<path class="st1" d="M74.1,2.5h1.9l-2.5,6.9h-1.9l-2.5-6.9h2l1.5,5.1L74.1,2.5z"/>
		<path class="st1" d="M81.6,2.6c0.5,0.2,0.9,0.6,1.2,1c0.3,0.4,0.5,0.9,0.6,1.4c0.1,0.5,0.1,0.9,0.1,1.4h-5.1
			c0,0.6,0.2,1.1,0.7,1.5c0.3,0.2,0.6,0.3,1,0.3c0.4,0,0.7-0.1,1-0.3c0.2-0.1,0.3-0.3,0.4-0.5h1.9c-0.1,0.5-0.3,0.9-0.7,1.3
			c-0.7,0.7-1.6,1.1-2.6,1c-0.9,0-1.8-0.3-2.4-0.9c-0.8-0.7-1.2-1.7-1.1-2.8c-0.1-1,0.3-2,1-2.8c0.7-0.6,1.6-1,2.5-1
			C80.5,2.3,81.1,2.4,81.6,2.6z M78.9,4.2c-0.3,0.3-0.4,0.7-0.5,1.1h3.1c0-0.4-0.2-0.8-0.5-1.1c-0.3-0.3-0.7-0.4-1.1-0.4
			C79.5,3.8,79.2,3.9,78.9,4.2z"/>
		<path class="st1" d="M84.8,0.1h4c0.9-0.1,1.8,0.3,2.4,1c0.3,0.4,0.4,0.9,0.4,1.3c0,0.5-0.2,1-0.5,1.5c-0.2,0.2-0.5,0.4-0.8,0.5
			c0.4,0.1,0.8,0.3,1.1,0.6c0.4,0.4,0.7,1.1,0.6,1.7c0,0.6-0.2,1.2-0.6,1.6c-0.7,0.8-1.7,1.2-2.7,1.1h-4V0.1z M88.4,4
			c0.4,0,0.9-0.1,1.3-0.2c0.5-0.2,0.8-0.7,0.7-1.3c0-0.5-0.3-1-0.8-1.2c-0.4-0.1-0.8-0.2-1.3-0.2H86V4L88.4,4z M88.8,8.4
			c0.6,0.1,1.3-0.2,1.7-0.7c0.2-0.3,0.3-0.7,0.3-1c0-0.6-0.3-1.2-0.9-1.4c-0.4-0.1-0.9-0.2-1.3-0.2H86v3.3L88.8,8.4z"/>
		<path class="st1" d="M93.6,2.6h1.1v1.2c0.2-0.3,0.4-0.6,0.7-0.8c0.3-0.3,0.8-0.5,1.2-0.5c0,0,0.1,0,0.1,0s0.1,0,0.3,0v1.2
			c-0.1,0-0.1,0-0.2,0s-0.1,0-0.2,0c-0.5,0-1,0.2-1.3,0.6c-0.3,0.4-0.5,0.8-0.5,1.3v3.9h-1.1V2.6z"/>
		<path class="st1" d="M103,3.3c0.6,0.7,1,1.6,0.9,2.6c0,1-0.2,1.9-0.8,2.7c-0.6,0.7-1.5,1.1-2.5,1.1c-0.8,0-1.7-0.3-2.2-1
			c-0.6-0.7-0.9-1.6-0.8-2.6c-0.1-1,0.3-2,0.9-2.7c0.6-0.7,1.4-1.1,2.3-1C101.6,2.4,102.4,2.7,103,3.3z M102.3,7.8
			c0.3-0.6,0.4-1.3,0.4-1.9c0-0.5-0.1-1.1-0.3-1.6c-0.3-0.6-1-1-1.7-0.9c-0.6,0-1.2,0.3-1.5,0.8c-0.3,0.6-0.5,1.3-0.5,1.9
			c0,0.6,0.1,1.3,0.5,1.8c0.3,0.5,0.9,0.8,1.5,0.7C101.4,8.8,102,8.4,102.3,7.8z"/>
		<path class="st1" d="M105.4,0.1h1.1v5.4l2.9-2.9h1.5l-2.6,2.5l2.8,4.3h-1.5L107.4,6l-0.9,0.9v2.6h-1.1L105.4,0.1z"/>
		<path class="st1" d="M116,2.8c0.4,0.2,0.8,0.5,1,0.9c0.2,0.4,0.4,0.8,0.5,1.2c0.1,0.5,0.1,1,0.1,1.5h-5c0,0.6,0.2,1.2,0.5,1.7
			c0.3,0.4,0.9,0.7,1.4,0.6c0.5,0,1.1-0.2,1.4-0.6c0.2-0.2,0.3-0.5,0.4-0.8h1.1c0,0.3-0.1,0.6-0.3,0.8c-0.1,0.3-0.3,0.5-0.6,0.8
			c-0.4,0.3-0.8,0.6-1.3,0.7c-0.3,0.1-0.6,0.1-0.9,0.1c-0.8,0-1.6-0.3-2.1-0.9c-0.6-0.7-0.9-1.7-0.9-2.6c0-1,0.3-1.9,0.9-2.7
			c0.6-0.7,1.4-1.1,2.3-1C115.1,2.5,115.6,2.6,116,2.8z M116.4,5.5c0-0.4-0.1-0.8-0.3-1.2c-0.3-0.6-0.9-0.9-1.6-0.8
			c-0.5,0-1,0.2-1.3,0.6c-0.4,0.4-0.6,0.9-0.6,1.4L116.4,5.5z"/>
		<path class="st1" d="M119.2,2.6h1.1v1.2c0.2-0.3,0.4-0.6,0.7-0.8c0.3-0.3,0.8-0.5,1.2-0.5c0,0,0.1,0,0.1,0s0.1,0,0.3,0v1.2
			c-0.1,0-0.1,0-0.2,0s-0.1,0-0.2,0c-0.5,0-1,0.2-1.3,0.6c-0.3,0.4-0.5,0.8-0.5,1.3v3.9h-1.1L119.2,2.6z"/>
		<path class="st1" d="M124.4,7.3c0,0.3,0.1,0.6,0.3,0.9c0.4,0.4,1,0.6,1.5,0.6c0.4,0,0.8-0.1,1.1-0.3c0.3-0.2,0.5-0.5,0.5-0.9
			c0-0.3-0.1-0.5-0.4-0.7c-0.3-0.1-0.7-0.3-1-0.3l-0.9-0.2c-0.5-0.1-0.9-0.3-1.3-0.5c-0.5-0.3-0.8-0.8-0.8-1.3
			c0-0.6,0.2-1.2,0.7-1.6c0.5-0.4,1.2-0.6,1.9-0.6c0.9-0.1,1.7,0.3,2.3,0.9c0.3,0.4,0.4,0.8,0.4,1.2h-1.1c0-0.3-0.1-0.5-0.3-0.7
			c-0.4-0.3-0.9-0.5-1.4-0.5c-0.4,0-0.7,0.1-1,0.2c-0.2,0.1-0.3,0.4-0.3,0.7c0,0.3,0.2,0.6,0.4,0.7c0.2,0.1,0.5,0.2,0.8,0.3l0.8,0.2
			c0.6,0.1,1.2,0.3,1.7,0.6c0.5,0.3,0.7,0.8,0.7,1.4c0,0.6-0.3,1.2-0.7,1.6c-0.6,0.5-1.4,0.7-2.1,0.7c-0.8,0.1-1.6-0.2-2.2-0.7
			c-0.4-0.5-0.7-1.1-0.7-1.7L124.4,7.3z"/>
	</g>
</g>
</svg>
