<?xml version="1.0" encoding="utf-8"?>
<!-- Generator: Adobe Illustrator 27.9.0, SVG Export Plug-In . SVG Version: 6.00 Build 0)  -->
<svg version="1.1" id="Layer_1" xmlns="http://www.w3.org/2000/svg" xmlns:xlink="http://www.w3.org/1999/xlink" x="0px" y="0px"
	 viewBox="0 0 96.3 124.6" style="enable-background:new 0 0 96.3 124.6;" xml:space="preserve">
<style type="text/css">
	.st0{fill:#F16748;}
	.st1{fill:#FFFFFF;}
	.st2{fill:url(#SVGID_1_);}
	.st3{fill:#0C3B57;}
</style>
<g>
	<path class="st0" d="M48.1,1c26.5,0,48,21.5,48,48s-21.5,48-48,48s-48-21.5-48-48S21.6,1,48.1,1z"/>
	<path class="st1" d="M49.3,50c5.7-9.8,8-21.3,6.4-32.6C35.1,26.8,23.1,48.6,26.2,71C35.9,66.6,44,59.2,49.3,50z"/>
	<circle class="st1" cx="60.7" cy="56.1" r="7.1"/>
	
		<linearGradient id="SVGID_1_" gradientUnits="userSpaceOnUse" x1="-248.7949" y1="435.9816" x2="-249.6319" y2="436.2616" gradientTransform="matrix(34.419 0 0 -14.8987 8617.8916 6568.3311)">
		<stop  offset="0" style="stop-color:#FFFFFF"/>
		<stop  offset="1" style="stop-color:#FF7E57"/>
	</linearGradient>
	<path class="st2" d="M44.4,63.9c-0.2,0-0.4-0.1-0.6-0.1c-0.8-0.1-1.5,0.1-2.1,0.7l-0.4,0.4c-3.7,3.3-7.8,6.1-12.3,8.3
		c10.3,7,23.7,7.4,34.4,1.1C58.5,68.8,51.8,65.1,44.4,63.9z"/>
</g>
<g>
	<path class="st3" d="M0.3,121.8v-13.1c0-1,0.8-1.7,1.8-1.7c0,0,0,0,0,0c0.9,0,1.7,0.8,1.7,1.7c0,0,0,0,0,0v13.1
		c0,0.9-0.8,1.7-1.7,1.7C1.1,123.5,0.3,122.8,0.3,121.8z"/>
	<path class="st3" d="M23.1,121.8v-10.1l-4.4,11.2c-0.2,0.4-0.5,0.6-0.9,0.6c-0.4,0-0.8-0.3-0.9-0.6l-4.4-11.2v10.1
		c0,0.9-0.8,1.7-1.7,1.7c-1,0-1.7-0.8-1.8-1.7v-12c0-1.6,1.3-2.8,2.8-2.8c1.2,0,2.2,0.7,2.7,1.8l3.3,8.5l3.3-8.5
		c0.4-1.1,1.5-1.8,2.6-1.8c1.6,0,2.8,1.2,2.8,2.8c0,0,0,0,0,0v12c0,1-0.8,1.7-1.8,1.7C23.9,123.5,23.1,122.7,23.1,121.8z"/>
	<path class="st3" d="M31.8,121.8v-12.8c-0.1-0.9,0.6-1.7,1.5-1.8c0.1,0,0.2,0,0.4,0h5.8c2.8-0.2,5.2,1.9,5.4,4.7c0,0.2,0,0.4,0,0.6
		c0.1,2.8-2.1,5.1-4.9,5.2c-0.2,0-0.4,0-0.5,0h-4.1v4.3c0,0.9-0.8,1.7-1.7,1.7C32.6,123.5,31.8,122.8,31.8,121.8z M38.9,110.1h-3.7
		v4.5h3.7c1.2,0.1,2.3-0.8,2.4-2c0-0.1,0-0.1,0-0.2c0-1.2-1-2.2-2.2-2.2C39.1,110.1,39,110.1,38.9,110.1z"/>
	<path class="st3" d="M62.1,121.8c0,1-0.8,1.8-1.8,1.8c-0.7,0-1.4-0.5-1.6-1.2l-0.7-1.9h-7.3l-0.7,1.9c-0.2,0.7-0.9,1.2-1.7,1.2
		c-1,0-1.7-0.8-1.8-1.7c0,0,0,0,0,0c0-0.2,0-0.4,0.1-0.6l4.7-12.3c0.5-1.2,1.6-2,2.8-1.9c1.3,0,2.4,0.8,2.8,1.9l4.7,12.3
		C62,121.4,62.1,121.6,62.1,121.8z M57,117.5l-2.6-7.3l-2.6,7.3H57z"/>
	<path class="st3" d="M64.7,115.3c-0.1-4.5,3.5-8.3,8-8.4c0.2,0,0.3,0,0.5,0c2.2-0.1,4.3,0.8,5.8,2.4c0.3,0.3,0.4,0.7,0.4,1.1
		c0,0.9-0.7,1.6-1.6,1.6c-0.5,0-0.9-0.2-1.2-0.6c-0.8-1-2.1-1.5-3.3-1.5c-2.8,0-5,2.3-5,5.1c0,0.1,0,0.2,0,0.2
		c-0.2,2.8,2,5.2,4.7,5.3c0.1,0,0.2,0,0.2,0c1.3,0,2.5-0.6,3.4-1.5c0.3-0.3,0.8-0.5,1.2-0.5c0.9,0,1.6,0.7,1.6,1.6c0,0,0,0,0,0
		c0,0.4-0.1,0.8-0.4,1.1c-1.5,1.6-3.6,2.5-5.8,2.4c-4.5,0.2-8.3-3.4-8.5-7.9C64.7,115.6,64.7,115.4,64.7,115.3z"/>
	<path class="st3" d="M87.6,121.8v-11.6h-3.4c-0.8,0-1.5-0.7-1.5-1.5c0-0.8,0.7-1.5,1.5-1.5h10.2c0.8,0,1.5,0.7,1.5,1.5
		c0,0.8-0.7,1.5-1.5,1.5H91v11.6c0,0.9-0.8,1.7-1.7,1.7C88.4,123.5,87.6,122.8,87.6,121.8z"/>
</g>
</svg>
