<?xml version="1.0" encoding="utf-8"?>
<!-- Generator: Adobe Illustrator 27.9.0, SVG Export Plug-In . SVG Version: 6.00 Build 0)  -->
<svg version="1.1" id="Layer_1" xmlns="http://www.w3.org/2000/svg" xmlns:xlink="http://www.w3.org/1999/xlink" x="0px" y="0px"
	 viewBox="0 0 96.3 124.6" style="enable-background:new 0 0 96.3 124.6;" xml:space="preserve">
<g>
	<path d="M48.1,1c-26.5,0-48,21.5-48,48s21.5,48,48,48s48-21.5,48-48S74.6,1,48.1,1z M55.7,17.4C57.3,28.7,55,40.1,49.3,50
		C44,59.2,35.9,66.6,26.2,71C23.1,48.6,35.1,26.8,55.7,17.4z M29.1,73.2c4.4-2.2,8.6-5,12.3-8.3l0.4-0.4c0.6-0.5,1.3-0.8,2.1-0.7
		c0.2,0,0.4,0.1,0.6,0.1c7.4,1.2,14.1,4.8,19.1,10.4C52.8,80.6,39.4,80.2,29.1,73.2z M60.7,63.2c-3.9,0-7.1-3.2-7.1-7.1
		s3.2-7.1,7.1-7.1s7.1,3.2,7.1,7.1S64.6,63.2,60.7,63.2z"/>
</g>
<g>
	<path d="M0.3,121.8v-13.1c0-1,0.8-1.7,1.8-1.7l0,0c0.9,0,1.7,0.8,1.7,1.7l0,0v13.1c0,0.9-0.8,1.7-1.7,1.7
		C1.1,123.5,0.3,122.8,0.3,121.8z"/>
	<path d="M23.1,121.8v-10.1l-4.4,11.2c-0.2,0.4-0.5,0.6-0.9,0.6s-0.8-0.3-0.9-0.6l-4.4-11.2v10.1c0,0.9-0.8,1.7-1.7,1.7
		c-1,0-1.7-0.8-1.8-1.7v-12c0-1.6,1.3-2.8,2.8-2.8c1.2,0,2.2,0.7,2.7,1.8l3.3,8.5l3.3-8.5c0.4-1.1,1.5-1.8,2.6-1.8
		c1.6,0,2.8,1.2,2.8,2.8l0,0v12c0,1-0.8,1.7-1.8,1.7C23.9,123.5,23.1,122.7,23.1,121.8z"/>
	<path d="M31.8,121.8V109c-0.1-0.9,0.6-1.7,1.5-1.8c0.1,0,0.2,0,0.4,0h5.8c2.8-0.2,5.2,1.9,5.4,4.7c0,0.2,0,0.4,0,0.6
		c0.1,2.8-2.1,5.1-4.9,5.2c-0.2,0-0.4,0-0.5,0h-4.1v4.3c0,0.9-0.8,1.7-1.7,1.7C32.6,123.5,31.8,122.8,31.8,121.8z M38.9,110.1h-3.7
		v4.5h3.7c1.2,0.1,2.3-0.8,2.4-2c0-0.1,0-0.1,0-0.2c0-1.2-1-2.2-2.2-2.2C39.1,110.1,39,110.1,38.9,110.1z"/>
	<path d="M62.1,121.8c0,1-0.8,1.8-1.8,1.8c-0.7,0-1.4-0.5-1.6-1.2l-0.7-1.9h-7.3l-0.7,1.9c-0.2,0.7-0.9,1.2-1.7,1.2
		c-1,0-1.7-0.8-1.8-1.7l0,0c0-0.2,0-0.4,0.1-0.6l4.7-12.3c0.5-1.2,1.6-2,2.8-1.9c1.3,0,2.4,0.8,2.8,1.9l4.7,12.3
		C62,121.4,62.1,121.6,62.1,121.8z M57,117.5l-2.6-7.3l-2.6,7.3H57z"/>
	<path d="M64.7,115.3c-0.1-4.5,3.5-8.3,8-8.4c0.2,0,0.3,0,0.5,0c2.2-0.1,4.3,0.8,5.8,2.4c0.3,0.3,0.4,0.7,0.4,1.1
		c0,0.9-0.7,1.6-1.6,1.6c-0.5,0-0.9-0.2-1.2-0.6c-0.8-1-2.1-1.5-3.3-1.5c-2.8,0-5,2.3-5,5.1c0,0.1,0,0.2,0,0.2
		c-0.2,2.8,2,5.2,4.7,5.3c0.1,0,0.2,0,0.2,0c1.3,0,2.5-0.6,3.4-1.5c0.3-0.3,0.8-0.5,1.2-0.5c0.9,0,1.6,0.7,1.6,1.6l0,0
		c0,0.4-0.1,0.8-0.4,1.1c-1.5,1.6-3.6,2.5-5.8,2.4c-4.5,0.2-8.3-3.4-8.5-7.9C64.7,115.6,64.7,115.4,64.7,115.3z"/>
	<path d="M87.6,121.8v-11.6h-3.4c-0.8,0-1.5-0.7-1.5-1.5s0.7-1.5,1.5-1.5h10.2c0.8,0,1.5,0.7,1.5,1.5s-0.7,1.5-1.5,1.5H91v11.6
		c0,0.9-0.8,1.7-1.7,1.7C88.4,123.5,87.6,122.8,87.6,121.8z"/>
</g>
</svg>
