<svg xmlns="http://www.w3.org/2000/svg" xmlns:xlink="http://www.w3.org/1999/xlink" width="195.495" height="48" viewBox="0 0 195.495 48"><defs><linearGradient id="a" x1="0.733" y1="0.627" x2="-0.104" y2="0.347" gradientUnits="objectBoundingBox"><stop offset="0" stop-color="#fff"/><stop offset="1" stop-color="#ff7e57"/></linearGradient></defs><g transform="translate(6.125 48.45)"><g transform="translate(-6.125 -48.45)"><circle cx="23.855" cy="23.855" r="23.855" fill="#f16748"/><path d="M14.133-26.8a25.372,25.372,0,0,0,3.182-16.181A25.5,25.5,0,0,0,2.628-16.348,25.367,25.367,0,0,0,14.133-26.8Z" transform="translate(10.307 51.134)" fill="#fff"/><circle cx="3.525" cy="3.525" r="3.525" transform="translate(26.565 23.855)" fill="#fff"/><g transform="translate(14.39 31.232)"><path d="M11.152-27.452c-.1-.015-.2-.028-.3-.04a1.28,1.28,0,0,0-1.024.328l-.209.191a27.007,27.007,0,0,1-6.093,4.122,16.1,16.1,0,0,0,17.105.57A16.038,16.038,0,0,0,11.152-27.452Z" transform="translate(-3.527 27.502)" stroke="rgba(0,0,0,0)" stroke-width="1" fill="url(#a)"/></g></g><g transform="translate(59.622 -43.855)" style="isolation:isolate"><g transform="translate(0)" style="isolation:isolate"><path d="M41.327-25.269V-42.951A2.345,2.345,0,0,1,43.69-45.28a2.31,2.31,0,0,1,2.3,2.329v17.682a2.331,2.331,0,0,1-2.3,2.329A2.367,2.367,0,0,1,41.327-25.269Z" transform="translate(-41.327 45.411)" fill="#0c3b57"/><path d="M68.188-25.269V-38.917L62.25-23.793A1.358,1.358,0,0,1,61-22.94a1.361,1.361,0,0,1-1.246-.853L53.82-38.917v13.648a2.331,2.331,0,0,1-2.3,2.329,2.367,2.367,0,0,1-2.363-2.329V-41.475a3.808,3.808,0,0,1,3.8-3.8,3.82,3.82,0,0,1,3.577,2.46L61-31.4,65.5-42.82a3.775,3.775,0,0,1,3.542-2.46,3.814,3.814,0,0,1,3.838,3.8v16.206a2.366,2.366,0,0,1-2.362,2.329A2.359,2.359,0,0,1,68.188-25.269Z" transform="translate(-37.481 45.411)" fill="#0c3b57"/><path d="M69.821-25.345V-42.666a2.23,2.23,0,0,1,2.462-2.46h7.775c4.756,0,7.347,3.214,7.347,7.052,0,3.806-2.626,6.988-7.347,6.988H74.479v5.742a2.33,2.33,0,0,1-2.3,2.329A2.366,2.366,0,0,1,69.821-25.345Zm9.613-15.78H74.479v6.035h4.956a2.983,2.983,0,0,0,3.214-3.018A3,3,0,0,0,79.434-41.124Z" transform="translate(-27.339 45.487)" fill="#0c3b57"/><path d="M104.045-25.3a2.379,2.379,0,0,1-2.393,2.363,2.306,2.306,0,0,1-2.2-1.576l-.886-2.557H88.726l-.886,2.557a2.348,2.348,0,0,1-2.23,1.576A2.352,2.352,0,0,1,83.248-25.3a2.189,2.189,0,0,1,.163-.82l6.4-16.534a4.079,4.079,0,0,1,3.839-2.623,4.109,4.109,0,0,1,3.838,2.623l6.363,16.534A2.14,2.14,0,0,1,104.045-25.3Zm-6.921-5.806-3.477-9.907L90.17-31.109Z" transform="translate(-20.747 45.411)" fill="#0c3b57"/><path d="M99.523-34.05c0-6.726,5.085-11.318,11.483-11.318a10.025,10.025,0,0,1,7.806,3.247,2.113,2.113,0,0,1,.558,1.476,2.2,2.2,0,0,1-2.2,2.2A2.168,2.168,0,0,1,115.5-39.2a5.982,5.982,0,0,0-4.494-2.035c-3.806,0-6.693,3.05-6.693,7.185s2.886,7.183,6.693,7.183a5.907,5.907,0,0,0,4.526-2.066,2.249,2.249,0,0,1,1.64-.722,2.2,2.2,0,0,1,2.2,2.2,2.03,2.03,0,0,1-.558,1.442,10.037,10.037,0,0,1-7.806,3.28C104.608-22.734,99.523-27.326,99.523-34.05Z" transform="translate(-12.758 45.368)" fill="#0c3b57"/><path d="M122.4-25.345V-41.026H117.84a2.072,2.072,0,0,1-2.066-2.034,2.079,2.079,0,0,1,2.066-2.066h13.812a2.079,2.079,0,0,1,2.066,2.066,2.072,2.072,0,0,1-2.066,2.034h-4.561v15.681a2.359,2.359,0,0,1-2.329,2.329A2.366,2.366,0,0,1,122.4-25.345Z" transform="translate(-4.78 45.487)" fill="#0c3b57"/></g></g><g transform="translate(60.367 -12.692)"><path d="M41.827-24.428h1.114v3.395a2.547,2.547,0,0,1,.9-.748,2.552,2.552,0,0,1,1.138-.258,2.67,2.67,0,0,1,2.075.877,3.719,3.719,0,0,1,.8,2.582,4.421,4.421,0,0,1-.786,2.688,2.556,2.556,0,0,1-2.181,1.07,2.237,2.237,0,0,1-1.316-.376,3.168,3.168,0,0,1-.684-.714v.874H41.827Zm4.383,7.854a3.628,3.628,0,0,0,.464-1.949,3.194,3.194,0,0,0-.464-1.785,1.527,1.527,0,0,0-1.364-.707,1.907,1.907,0,0,0-1.378.58,2.6,2.6,0,0,0-.59,1.911,4.236,4.236,0,0,0,.242,1.561,1.68,1.68,0,0,0,1.7,1.126A1.537,1.537,0,0,0,46.21-16.574Z" transform="translate(-41.827 24.485)" fill="#0c3b57"/><path d="M51.239-22.706h1.267q-.242.655-1.076,3-.624,1.758-1.045,2.867a19.4,19.4,0,0,1-1.4,3.183,1.6,1.6,0,0,1-1.4.573,2.633,2.633,0,0,1-.373-.019,2.96,2.96,0,0,1-.321-.069v-1.045a4.411,4.411,0,0,0,.432.1,1.573,1.573,0,0,0,.234.019.836.836,0,0,0,.468-.1.987.987,0,0,0,.252-.258c.021-.034.1-.207.228-.522s.227-.547.286-.7L46.27-22.706h1.3L49.4-17.149Z" transform="translate(-39.646 25.33)" fill="#0c3b57"/><path d="M55.494-15.038h-1.95v-9.39h1.95Z" transform="translate(-36.075 24.485)" fill="#0c3b57"/><path d="M61.716-22.336a2.3,2.3,0,0,1,.681,1.871v4.676H60.537v-4.224a1.942,1.942,0,0,0-.145-.841,1.022,1.022,0,0,0-1.011-.535,1.256,1.256,0,0,0-1.26.784,2.711,2.711,0,0,0-.176,1.057v3.759H56.13v-6.931h1.758v1.012a3.133,3.133,0,0,1,.659-.771,2.3,2.3,0,0,1,1.415-.419A2.67,2.67,0,0,1,61.716-22.336Z" transform="translate(-34.805 25.236)" fill="#0c3b57"/><path d="M61.052-20.814v-1.294h.968v-1.935h1.8v1.935h1.127v1.294H63.816v3.668a.818.818,0,0,0,.109.532,1.185,1.185,0,0,0,.662.106l.176,0c.061,0,.121-.006.18-.01v1.358l-.86.031a2.31,2.31,0,0,1-1.758-.446,1.334,1.334,0,0,1-.306-.962v-4.274Z" transform="translate(-32.389 24.674)" fill="#0c3b57"/><path d="M69.221-22.586a2.817,2.817,0,0,1,1.2,1.027,3.415,3.415,0,0,1,.555,1.434,9.255,9.255,0,0,1,.06,1.379H65.976A1.667,1.667,0,0,0,66.7-17.28a1.855,1.855,0,0,0,1,.261,1.529,1.529,0,0,0,1.008-.319,1.522,1.522,0,0,0,.374-.477h1.853a2.263,2.263,0,0,1-.674,1.254,3.37,3.37,0,0,1-2.611,1.014,3.787,3.787,0,0,1-2.447-.854,3.367,3.367,0,0,1-1.06-2.781,3.762,3.762,0,0,1,.957-2.767,3.351,3.351,0,0,1,2.484-.962A3.965,3.965,0,0,1,69.221-22.586ZM66.5-21.018a1.88,1.88,0,0,0-.483,1.075h3.126a1.512,1.512,0,0,0-.483-1.1,1.586,1.586,0,0,0-1.076-.374A1.444,1.444,0,0,0,66.5-21.018Z" transform="translate(-30.87 25.229)" fill="#0c3b57"/><path d="M73.464-22.9l.157.009v1.861c-.115-.013-.218-.022-.306-.027s-.163-.006-.218-.006a1.505,1.505,0,0,0-1.47.714,2.751,2.751,0,0,0-.212,1.236v3.319H69.589v-6.945h1.732v1.211a3.831,3.831,0,0,1,.732-.948,1.993,1.993,0,0,1,1.325-.426C73.412-22.9,73.442-22.9,73.464-22.9Z" transform="translate(-28.198 25.236)" fill="#0c3b57"/><path d="M76.03-20.013a2.833,2.833,0,0,0,.725-.16.546.546,0,0,0,.392-.516.613.613,0,0,0-.3-.589,1.888,1.888,0,0,0-.881-.163,1.157,1.157,0,0,0-.923.318,1.322,1.322,0,0,0-.259.638H73.03a2.658,2.658,0,0,1,.513-1.5,2.984,2.984,0,0,1,2.482-.917,4.424,4.424,0,0,1,2.034.452,1.734,1.734,0,0,1,.89,1.707v3.185c0,.221,0,.489.012.8a.994.994,0,0,0,.109.483.647.647,0,0,0,.267.21v.268H77.361a2.009,2.009,0,0,1-.113-.4c-.022-.124-.039-.264-.052-.42a3.776,3.776,0,0,1-.871.695,2.651,2.651,0,0,1-1.333.337,2.293,2.293,0,0,1-1.565-.538,1.914,1.914,0,0,1-.619-1.527,1.977,1.977,0,0,1,.994-1.853,4.46,4.46,0,0,1,1.6-.446Zm1.109.847a1.938,1.938,0,0,1-.352.176,3.247,3.247,0,0,1-.488.124l-.413.076a2.722,2.722,0,0,0-.835.249.83.83,0,0,0-.429.771.808.808,0,0,0,.262.672,1,1,0,0,0,.637.206,1.886,1.886,0,0,0,1.1-.343,1.457,1.457,0,0,0,.522-1.255Z" transform="translate(-26.618 25.236)" fill="#0c3b57"/><path d="M82.389-20.243a1.616,1.616,0,0,0-.261-.7,1.1,1.1,0,0,0-.953-.42,1.255,1.255,0,0,0-1.258.911,3.781,3.781,0,0,0-.179,1.284,3.468,3.468,0,0,0,.179,1.226,1.214,1.214,0,0,0,1.227.866,1.08,1.08,0,0,0,.906-.343,1.726,1.726,0,0,0,.327-.892h1.853a3.052,3.052,0,0,1-.6,1.567A2.919,2.919,0,0,1,81.1-15.554a2.96,2.96,0,0,1-2.467-.994,4.015,4.015,0,0,1-.79-2.576,4.069,4.069,0,0,1,.874-2.781,3.038,3.038,0,0,1,2.409-.993,3.627,3.627,0,0,1,2.139.586,2.728,2.728,0,0,1,.985,2.069Z" transform="translate(-24.147 25.236)" fill="#0c3b57"/><path d="M82.66-20.814v-1.294h.969v-1.935h1.8v1.935h1.127v1.294H85.426v3.668c0,.285.034.464.107.532a1.189,1.189,0,0,0,.662.106l.174,0,.183-.01v1.358l-.862.031a2.306,2.306,0,0,1-1.756-.446,1.327,1.327,0,0,1-.306-.962v-4.274Z" transform="translate(-21.781 24.674)" fill="#0c3b57"/><path d="M88.045-22.792H86.2v-1.674h1.841Zm-1.841.827h1.841v6.945H86.2Z" transform="translate(-20.042 24.466)" fill="#0c3b57"/><path d="M93.173-22.788h1.949l-2.508,6.945H90.7l-2.49-6.945h2.038L91.7-17.665Z" transform="translate(-19.056 25.29)" fill="#0c3b57"/><path d="M98.213-22.586a2.821,2.821,0,0,1,1.2,1.027,3.413,3.413,0,0,1,.553,1.434,8.683,8.683,0,0,1,.06,1.379H94.968a1.673,1.673,0,0,0,.726,1.466,1.858,1.858,0,0,0,1,.261,1.536,1.536,0,0,0,1.009-.319,1.5,1.5,0,0,0,.373-.477H99.93a2.25,2.25,0,0,1-.672,1.254,3.373,3.373,0,0,1-2.612,1.014A3.78,3.78,0,0,1,94.2-16.4a3.366,3.366,0,0,1-1.059-2.781,3.761,3.761,0,0,1,.956-2.767,3.348,3.348,0,0,1,2.482-.962A3.955,3.955,0,0,1,98.213-22.586ZM95.5-21.018a1.881,1.881,0,0,0-.485,1.075h3.128a1.512,1.512,0,0,0-.483-1.1,1.587,1.587,0,0,0-1.078-.374A1.44,1.44,0,0,0,95.5-21.018Z" transform="translate(-16.636 25.229)" fill="#0c3b57"/><path d="M98.7-24.407h4.045a2.693,2.693,0,0,1,2.354.981,2.257,2.257,0,0,1,.411,1.337,2.118,2.118,0,0,1-.5,1.454,2.481,2.481,0,0,1-.751.547,3.16,3.16,0,0,1,1.075.619,2.235,2.235,0,0,1,.631,1.688,2.6,2.6,0,0,1-.571,1.637,3.218,3.218,0,0,1-2.71,1.1H98.7Zm3.572,3.957a2.9,2.9,0,0,0,1.261-.224,1.281,1.281,0,0,0,.708-1.261,1.217,1.217,0,0,0-.753-1.236,3.453,3.453,0,0,0-1.263-.177H99.942v2.9Zm.428,4.318a1.957,1.957,0,0,0,1.679-.675,1.692,1.692,0,0,0,.316-1.03,1.373,1.373,0,0,0-.92-1.39,3.53,3.53,0,0,0-1.294-.2H99.942v3.292Z" transform="translate(-13.907 24.495)" fill="#0c3b57"/><path d="M104.6-22.655h1.09v1.178a2.611,2.611,0,0,1,.655-.838,1.708,1.708,0,0,1,1.2-.493c.022,0,.057,0,.107.007s.139.012.262.024v1.211c-.069-.012-.131-.021-.188-.025s-.121-.006-.188-.006a1.636,1.636,0,0,0-1.331.558,1.944,1.944,0,0,0-.465,1.284v3.924H104.6Z" transform="translate(-11.009 25.279)" fill="#0c3b57"/><path d="M112.681-21.961a3.436,3.436,0,0,1,.906,2.584,4.458,4.458,0,0,1-.8,2.725,2.877,2.877,0,0,1-2.473,1.075,2.784,2.784,0,0,1-2.22-.951,3.773,3.773,0,0,1-.823-2.555,4.1,4.1,0,0,1,.866-2.737,2.9,2.9,0,0,1,2.329-1.017A3.057,3.057,0,0,1,112.681-21.961Zm-.71,4.535a4.363,4.363,0,0,0,.417-1.919,3.445,3.445,0,0,0-.3-1.552,1.7,1.7,0,0,0-1.65-.942,1.622,1.622,0,0,0-1.512.8,3.751,3.751,0,0,0-.473,1.934,3.256,3.256,0,0,0,.473,1.813,1.656,1.656,0,0,0,1.5.726A1.562,1.562,0,0,0,111.971-17.426Z" transform="translate(-9.699 25.265)" fill="#0c3b57"/><path d="M112.519-24.407h1.1v5.433l2.939-2.9h1.466L115.4-19.335l2.77,4.286h-1.466l-2.145-3.472-.941.911v2.561h-1.1Z" transform="translate(-7.123 24.495)" fill="#0c3b57"/><path d="M121.17-22.468a2.585,2.585,0,0,1,1.032.883,3.04,3.04,0,0,1,.456,1.2,7.969,7.969,0,0,1,.1,1.5H117.8a2.94,2.94,0,0,0,.486,1.67,1.623,1.623,0,0,0,1.409.629,1.812,1.812,0,0,0,1.422-.595,2.026,2.026,0,0,0,.42-.8h1.129a2.39,2.39,0,0,1-.3.838,2.993,2.993,0,0,1-.561.754,2.643,2.643,0,0,1-1.284.687,3.841,3.841,0,0,1-.929.1,2.846,2.846,0,0,1-2.147-.927,3.62,3.62,0,0,1-.88-2.6,3.949,3.949,0,0,1,.886-2.669,2.918,2.918,0,0,1,2.318-1.026A3.087,3.087,0,0,1,121.17-22.468Zm.411,2.678a3.017,3.017,0,0,0-.324-1.191,1.648,1.648,0,0,0-1.559-.827,1.72,1.72,0,0,0-1.313.571,2.17,2.17,0,0,0-.564,1.448Z" transform="translate(-5.136 25.279)" fill="#0c3b57"/><path d="M121.771-22.655h1.091v1.178a2.59,2.59,0,0,1,.655-.838,1.708,1.708,0,0,1,1.2-.493c.022,0,.057,0,.107.007s.139.012.262.024v1.211c-.069-.012-.131-.021-.188-.025s-.121-.006-.188-.006a1.636,1.636,0,0,0-1.331.558,1.944,1.944,0,0,0-.465,1.284v3.924h-1.148Z" transform="translate(-2.581 25.279)" fill="#0c3b57"/><path d="M125.632-17.966a1.617,1.617,0,0,0,.292.88,1.858,1.858,0,0,0,1.533.555,2.3,2.3,0,0,0,1.145-.279.919.919,0,0,0,.495-.856.732.732,0,0,0-.4-.669,4.8,4.8,0,0,0-1-.325l-.926-.23a4.561,4.561,0,0,1-1.308-.483,1.443,1.443,0,0,1-.751-1.287,1.955,1.955,0,0,1,.707-1.567,2.842,2.842,0,0,1,1.9-.6,2.658,2.658,0,0,1,2.254.9A1.944,1.944,0,0,1,130-20.685h-1.082a1.3,1.3,0,0,0-.28-.7,1.822,1.822,0,0,0-1.4-.45,1.714,1.714,0,0,0-1.008.247.772.772,0,0,0-.343.655.8.8,0,0,0,.45.711,2.7,2.7,0,0,0,.766.279l.771.185a6.039,6.039,0,0,1,1.688.58,1.535,1.535,0,0,1,.669,1.382,2.1,2.1,0,0,1-.7,1.574,3.016,3.016,0,0,1-2.132.662,2.886,2.886,0,0,1-2.184-.692,2.6,2.6,0,0,1-.686-1.71Z" transform="translate(-1.227 25.271)" fill="#0c3b57"/></g></g></svg>