<?xml version="1.0" encoding="utf-8"?>
<!-- Generator: Adobe Illustrator 27.9.0, SVG Export Plug-In . SVG Version: 6.00 Build 0)  -->
<svg version="1.1" id="Layer_1" xmlns="http://www.w3.org/2000/svg" xmlns:xlink="http://www.w3.org/1999/xlink" x="0px" y="0px"
	 viewBox="0 0 96 96" style="enable-background:new 0 0 96 96;" xml:space="preserve">
<path d="M48,0C21.5,0,0,21.5,0,48s21.5,48,48,48s48-21.5,48-48S74.5,0,48,0z M55.6,16.4c1.6,11.3-0.7,22.7-6.4,32.6
	C43.9,58.2,35.8,65.6,26,70C23,47.6,35,25.8,55.6,16.4z M29,72.2c4.4-2.2,8.6-5,12.3-8.3l0.4-0.4c0.6-0.5,1.3-0.8,2.1-0.7
	c0.2,0,0.4,0.1,0.6,0.1c7.4,1.2,14.1,4.8,19.1,10.4C52.6,79.6,39.3,79.2,29,72.2z M60.5,62.2c-3.9,0-7.1-3.2-7.1-7.1
	s3.2-7.1,7.1-7.1s7.1,3.2,7.1,7.1S64.5,62.2,60.5,62.2z"/>
</svg>
