<?xml version="1.0" encoding="utf-8"?>
<!-- Generator: Adobe Illustrator 28.3.0, SVG Export Plug-In . SVG Version: 6.00 Build 0)  -->
<svg version="1.1" id="Layer_1" xmlns="http://www.w3.org/2000/svg" xmlns:xlink="http://www.w3.org/1999/xlink" x="0px" y="0px"
	 viewBox="0 0 725 86.1" style="enable-background:new 0 0 725 86.1;" xml:space="preserve">
<style type="text/css">
	.st0{fill:url(#SVGID_1_);}
	.st1{fill:#DB1222;}
	.st2{fill:#231F20;}
</style>
<g id="Content">
</g>
<g>
	
		<linearGradient id="SVGID_1_" gradientUnits="userSpaceOnUse" x1="3763.0229" y1="-678.45" x2="3800.7617" y2="-678.45" gradientTransform="matrix(-1 0 0 -1 3802.2729 -614)">
		<stop  offset="0" style="stop-color:#DB1222"/>
		<stop  offset="1" style="stop-color:#971B1E"/>
	</linearGradient>
	<polygon class="st0" points="39.3,85.2 1.6,85.2 1.6,43.7 	"/>
	<circle class="st1" cx="34.1" cy="53.9" r="11.3"/>
	<polygon class="st1" points="39.3,-0.1 1.6,43.7 1.6,85.2 	"/>
</g>
<g>
	<path class="st2" d="M65.7,33.2h10.8v52H65.7V33.2z"/>
	<path class="st2" d="M108.9,85.2H85.3v-52h25.2c6.4,0.1,10.9,1.9,13.5,5.5c1.6,2.2,2.4,4.9,2.4,7.9c0,3.2-0.8,5.7-2.4,7.7
		c-0.9,1.1-2.2,2.1-3.9,3c2.7,1,4.7,2.5,6,4.6c1.4,2.1,2,4.6,2,7.6c0,3.1-0.8,5.8-2.3,8.3c-1,1.6-2.2,3-3.7,4.1
		c-1.7,1.3-3.6,2.1-5.9,2.6C114,85,111.5,85.2,108.9,85.2z M114,52.4c1.4-0.8,2.1-2.4,2.1-4.5c0-2.4-0.9-4-2.8-4.8
		c-1.6-0.5-3.7-0.8-6.2-0.8H95.7v11.5h12.8C110.7,53.7,112.6,53.3,114,52.4z M108.6,62.3H95.7v13.9h12.8c2.3,0,4.1-0.3,5.3-0.9
		c2.3-1.1,3.5-3.3,3.5-6.5c0-2.7-1.1-4.6-3.4-5.6C112.6,62.6,110.9,62.3,108.6,62.3z"/>
	<path class="st2" d="M181.3,85.2h-14l-16-22.7l-5.2,5.3v17.4h-10.7v-52h10.7v21.4l20.1-21.4h14l-21.3,21.4L181.3,85.2z"/>
	<path class="st2" d="M206.6,64.8h-11.2v20.4h-10.6v-52h25.5c3.6,0.1,6.4,0.5,8.4,1.3s3.6,2,5,3.6c1.1,1.3,2,2.8,2.7,4.4
		c0.7,1.6,1,3.4,1,5.5c0,2.5-0.6,4.9-1.9,7.3s-3.3,4.1-6.2,5.1c2.4,1,4.1,2.3,5.1,4.1c1,1.8,1.5,4.5,1.5,8.1v3.5
		c0,2.4,0.1,4,0.3,4.8c0.3,1.3,0.9,2.3,2,3v1.3h-12c-0.3-1.2-0.6-2.1-0.7-2.8c-0.3-1.5-0.4-3-0.5-4.5l-0.1-4.8
		c0-3.3-0.7-5.5-1.8-6.6S209.8,64.8,206.6,64.8z M213.2,55.4c2.2-1,3.2-2.9,3.2-5.9c0-3.2-1-5.3-3.1-6.3c-1.2-0.6-2.9-0.9-5.3-0.9
		h-12.6v14h12.3C210.2,56.2,212,55.9,213.2,55.4z"/>
	<path class="st2" d="M285.4,33.2V39h-27.2v16.5H282v5.8h-23.9v23.8h-6.9v-52h34.2V33.2z"/>
	<path class="st2" d="M287.5,58.7c0.8-2.4,1.9-4.5,3.5-6.3s3.5-3.2,5.8-4.2s4.9-1.5,7.9-1.5s5.6,0.5,7.9,1.5s4.2,2.4,5.7,4.2
		c1.6,1.8,2.7,3.9,3.5,6.3c0.8,2.4,1.2,5,1.2,7.8c0,2.8-0.4,5.3-1.2,7.7c-0.8,2.4-1.9,4.5-3.5,6.2c-1.6,1.8-3.5,3.2-5.7,4.2
		c-2.3,1-4.9,1.5-7.9,1.5s-5.6-0.5-7.9-1.5s-4.2-2.4-5.8-4.2c-1.6-1.8-2.7-3.8-3.5-6.2c-0.8-2.4-1.2-5-1.2-7.7
		C286.3,63.6,286.7,61.1,287.5,58.7z M293.8,72.5c0.6,1.8,1.4,3.3,2.5,4.4c1.1,1.2,2.3,2.1,3.8,2.7c1.4,0.6,2.9,0.9,4.6,0.9
		c1.6,0,3.1-0.3,4.6-0.9c1.4-0.6,2.7-1.5,3.8-2.7c1.1-1.2,1.9-2.7,2.5-4.4c0.6-1.8,0.9-3.8,0.9-6.1c0-2.3-0.3-4.3-0.9-6.1
		s-1.4-3.3-2.5-4.5s-2.3-2.1-3.8-2.8c-1.4-0.6-2.9-0.9-4.6-0.9c-1.6,0-3.1,0.3-4.6,0.9c-1.4,0.6-2.7,1.6-3.8,2.8
		c-1.1,1.2-1.9,2.7-2.5,4.5s-0.9,3.8-0.9,6.1S293.2,70.7,293.8,72.5z"/>
	<path class="st2" d="M333.4,47.6v7.9h0.1c1.5-3.1,3.3-5.3,5.5-6.8s5-2.1,8.3-2v6.6c-2.5,0-4.6,0.3-6.3,1c-1.7,0.7-3.2,1.7-4.2,3
		c-1.1,1.3-1.8,2.9-2.3,4.8c-0.5,1.9-0.7,4-0.7,6.4v16.7h-6.2V47.6H333.4z"/>
	<path class="st2" d="M377.4,82.8c-2.8,2.1-6.4,3.2-10.6,3.2c-3,0-5.6-0.5-7.8-1.5c-2.2-1-4.1-2.3-5.6-4.1s-2.6-3.8-3.4-6.3
		c-0.8-2.4-1.2-5.1-1.3-7.9c0-2.9,0.4-5.5,1.3-7.9s2.1-4.4,3.7-6.2c1.6-1.7,3.4-3.1,5.6-4.1s4.5-1.5,7.1-1.5c3.3,0,6.1,0.7,8.3,2.1
		c2.2,1.4,4,3.1,5.3,5.3c1.3,2.1,2.3,4.5,2.8,7s0.7,4.9,0.6,7.2h-28.2c0,1.7,0.1,3.2,0.6,4.7c0.4,1.5,1.1,2.8,2.1,3.9
		s2.2,2.1,3.7,2.7c1.5,0.7,3.3,1,5.3,1c2.6,0,4.8-0.6,6.4-1.8c1.7-1.2,2.8-3.1,3.3-5.5h6.1C382.1,77.5,380.2,80.7,377.4,82.8z
		 M375.9,58.6c-0.6-1.3-1.3-2.4-2.3-3.4c-0.9-0.9-2.1-1.7-3.4-2.3s-2.7-0.8-4.3-0.8c-1.6,0-3,0.3-4.3,0.8c-1.3,0.6-2.4,1.3-3.3,2.3
		s-1.7,2.1-2.2,3.4c-0.5,1.3-0.9,2.7-0.9,4.1h21.6C376.8,61.3,376.5,59.9,375.9,58.6z"/>
	<path class="st2" d="M412.4,54.1c-1.6-1.3-3.6-2-6.3-2c-2.2,0-4.1,0.4-5.6,1.2s-2.7,1.9-3.6,3.3c-0.9,1.4-1.5,2.9-1.9,4.7
		s-0.6,3.6-0.6,5.5c0,1.7,0.2,3.4,0.6,5.1s1.1,3.1,1.9,4.4s2,2.3,3.4,3.1c1.4,0.8,3.1,1.2,5,1.2c3.1,0,5.4-0.8,7.2-2.4
		c1.7-1.6,2.8-3.9,3.2-6.8h6.3c-0.7,4.7-2.4,8.3-5.2,10.8c-2.8,2.5-6.6,3.8-11.4,3.8c-2.9,0-5.4-0.5-7.6-1.4s-4.1-2.2-5.5-3.9
		c-1.5-1.7-2.6-3.7-3.4-6.1s-1.1-4.9-1.1-7.8c0-2.8,0.4-5.4,1.1-7.9s1.8-4.6,3.3-6.4c1.5-1.8,3.3-3.3,5.6-4.3c2.2-1,4.8-1.6,7.8-1.6
		c2.1,0,4.1,0.3,6,0.8s3.5,1.3,5,2.4c1.4,1.1,2.6,2.4,3.5,4s1.5,3.6,1.7,5.8h-6.4C414.9,57.3,413.9,55.4,412.4,54.1z"/>
	<path class="st2" d="M462.3,85.1c-1.1,0.6-2.5,0.9-4.4,0.9c-1.6,0-2.9-0.5-3.8-1.3s-1.4-2.4-1.4-4.4c-1.7,2-3.7,3.5-5.9,4.4
		S442,86,439.4,86c-1.7,0-3.3-0.2-4.8-0.6s-2.9-1-4-1.8s-2-1.9-2.7-3.2c-0.7-1.3-1-2.9-1-4.8c0-2.1,0.4-3.9,1.1-5.2
		c0.7-1.4,1.7-2.5,2.9-3.3c1.2-0.8,2.5-1.5,4.1-1.9c1.5-0.4,3.1-0.8,4.7-1.1c1.7-0.3,3.3-0.6,4.8-0.8s2.9-0.4,4-0.7
		c1.2-0.3,2.1-0.8,2.8-1.4c0.7-0.6,1-1.5,1-2.7c0-1.4-0.3-2.5-0.8-3.3s-1.2-1.5-2-1.9s-1.7-0.7-2.7-0.9c-1-0.1-2-0.2-2.9-0.2
		c-2.6,0-4.8,0.5-6.6,1.5c-1.7,1-2.7,2.9-2.8,5.6h-6.2c0.1-2.3,0.6-4.3,1.5-5.9c0.9-1.6,2-2.9,3.5-3.9s3.1-1.7,5-2.1
		c1.9-0.4,3.9-0.7,6-0.7c1.7,0,3.4,0.1,5.1,0.4c1.7,0.2,3.2,0.7,4.6,1.5s2.5,1.8,3.3,3.2s1.2,3.1,1.2,5.3v19.3
		c0,1.5,0.1,2.5,0.3,3.2c0.2,0.7,0.7,1,1.7,1c0.5,0,1.2-0.1,1.9-0.3v4.8H462.3z M452.3,65.8c-0.8,0.6-1.8,1-3.1,1.3
		c-1.3,0.3-2.6,0.5-4,0.7s-2.8,0.4-4.2,0.6c-1.4,0.2-2.7,0.6-3.8,1.1c-1.1,0.5-2,1.2-2.7,2.1s-1.1,2.1-1.1,3.7c0,1,0.2,1.9,0.6,2.6
		s0.9,1.3,1.6,1.7c0.7,0.4,1.4,0.7,2.3,0.9s1.8,0.3,2.8,0.3c2,0,3.8-0.3,5.2-0.8c1.5-0.6,2.6-1.3,3.6-2.1c0.9-0.8,1.6-1.8,2-2.8
		s0.7-1.9,0.7-2.8v-6.5H452.3z"/>
	<path class="st2" d="M472.8,76.8c0.6,0.9,1.3,1.7,2.3,2.3c0.9,0.6,2,1,3.2,1.2s2.4,0.4,3.7,0.4c1,0,2-0.1,3.1-0.2s2.1-0.4,2.9-0.8
		c0.9-0.4,1.6-1,2.2-1.7c0.6-0.8,0.9-1.7,0.9-2.9c0-1.6-0.6-2.8-1.8-3.6c-1.2-0.8-2.7-1.5-4.6-2c-1.8-0.5-3.8-1-5.9-1.4
		s-4.1-1-5.9-1.7c-1.8-0.8-3.3-1.8-4.6-3.2c-1.2-1.4-1.8-3.3-1.8-5.7c0-1.9,0.4-3.5,1.3-4.9c0.8-1.4,1.9-2.5,3.3-3.3
		c1.3-0.8,2.8-1.5,4.5-1.9s3.3-0.6,5-0.6c2.1,0,4.1,0.2,5.9,0.5c1.8,0.4,3.4,1,4.8,1.9s2.5,2.1,3.3,3.6s1.3,3.4,1.5,5.7h-6.2
		c-0.1-1.2-0.4-2.2-0.9-3s-1.2-1.4-2-1.9s-1.7-0.8-2.7-1.1c-1-0.2-2-0.3-3-0.3c-0.9,0-1.9,0.1-2.8,0.2c-0.9,0.1-1.8,0.4-2.6,0.8
		c-0.8,0.4-1.4,0.8-1.9,1.5c-0.5,0.6-0.7,1.4-0.7,2.4c0,1.1,0.4,2,1.1,2.7c0.8,0.7,1.7,1.3,2.9,1.7c1.2,0.5,2.5,0.8,3.9,1.2
		c1.5,0.3,2.9,0.6,4.4,1c1.6,0.3,3.1,0.8,4.6,1.2c1.5,0.5,2.8,1.1,3.9,1.9s2.1,1.8,2.8,3c0.7,1.2,1.1,2.7,1.1,4.5
		c0,2.3-0.5,4.2-1.4,5.7s-2.2,2.7-3.7,3.6s-3.3,1.6-5.2,1.9S483.9,86,482,86c-2.1,0-4.1-0.2-6-0.7c-1.9-0.4-3.6-1.2-5-2.1
		c-1.5-1-2.6-2.3-3.5-3.9s-1.4-3.6-1.5-5.9h6.2C471.9,74.7,472.2,75.8,472.8,76.8z"/>
	<path class="st2" d="M520.6,47.6V53h-7.5v23.4c0,0.7,0.1,1.3,0.2,1.7c0.1,0.4,0.4,0.8,0.7,1s0.8,0.4,1.4,0.5
		c0.6,0.1,1.4,0.1,2.4,0.1h2.8v5.5h-4.7c-1.6,0-3-0.1-4.1-0.3c-1.1-0.2-2.1-0.6-2.8-1.2c-0.7-0.6-1.2-1.4-1.6-2.5
		c-0.3-1.1-0.5-2.5-0.5-4.2V53h-6.4v-5.5h6.4V36.3h6.2v11.3H520.6z"/>
	<path class="st2" d="M522.9,39v-5.8h41.6V39h-17.3v46.2h-6.9V39H522.9z"/>
	<path class="st2" d="M568.3,47.6v7.9h0.1c1.5-3.1,3.3-5.3,5.5-6.8s5-2.1,8.3-2v6.6c-2.5,0-4.6,0.3-6.3,1s-3.2,1.7-4.2,3
		c-1.1,1.3-1.8,2.9-2.3,4.8c-0.5,1.9-0.7,4-0.7,6.4v16.7h-6.2V47.6H568.3z"/>
	<path class="st2" d="M618.5,85.1c-1.1,0.6-2.5,0.9-4.4,0.9c-1.6,0-2.9-0.5-3.8-1.3s-1.4-2.4-1.4-4.4c-1.7,2-3.7,3.5-5.9,4.4
		s-4.7,1.3-7.3,1.3c-1.7,0-3.3-0.2-4.8-0.6s-2.9-1-4-1.8s-2-1.9-2.7-3.2c-0.7-1.3-1-2.9-1-4.8c0-2.1,0.4-3.9,1.1-5.2
		c0.7-1.4,1.7-2.5,2.9-3.3s2.5-1.5,4.1-1.9c1.5-0.4,3.1-0.8,4.7-1.1c1.7-0.3,3.3-0.6,4.8-0.8s2.9-0.4,4-0.7c1.2-0.3,2.1-0.8,2.8-1.4
		c0.7-0.6,1-1.5,1-2.7c0-1.4-0.3-2.5-0.8-3.3s-1.2-1.5-2-1.9s-1.7-0.7-2.7-0.9c-1-0.1-2-0.2-2.9-0.2c-2.6,0-4.8,0.5-6.6,1.5
		c-1.7,1-2.7,2.9-2.8,5.6h-6.2c0.1-2.3,0.6-4.3,1.5-5.9c0.9-1.6,2-2.9,3.5-3.9s3.1-1.7,5-2.1c1.9-0.4,3.9-0.7,6-0.7
		c1.7,0,3.4,0.1,5.1,0.4c1.7,0.2,3.2,0.7,4.6,1.5c1.4,0.8,2.5,1.8,3.3,3.2s1.2,3.1,1.2,5.3v19.3c0,1.5,0.1,2.5,0.3,3.2s0.7,1,1.7,1
		c0.5,0,1.2-0.1,1.9-0.3v4.8H618.5z M608.4,65.8c-0.8,0.6-1.8,1-3.1,1.3s-2.6,0.5-4,0.7s-2.8,0.4-4.2,0.6s-2.7,0.6-3.8,1.1
		s-2,1.2-2.7,2.1s-1.1,2.1-1.1,3.7c0,1,0.2,1.9,0.6,2.6c0.4,0.7,0.9,1.3,1.6,1.7c0.7,0.4,1.4,0.7,2.3,0.9s1.8,0.3,2.8,0.3
		c2,0,3.8-0.3,5.2-0.8c1.5-0.6,2.6-1.3,3.6-2.1c0.9-0.8,1.6-1.8,2-2.8s0.7-1.9,0.7-2.8v-6.5H608.4z"/>
	<path class="st2" d="M650.2,85.2v-5.1h-0.1c-1,2.1-2.6,3.6-4.8,4.5s-4.6,1.4-7.2,1.4c-2.9,0-5.5-0.5-7.6-1.6
		c-2.2-1.1-4-2.5-5.4-4.3s-2.5-3.9-3.2-6.3s-1.1-4.9-1.1-7.6c0-2.7,0.4-5.2,1.1-7.6c0.7-2.4,1.8-4.5,3.2-6.2
		c1.4-1.8,3.2-3.2,5.4-4.2s4.7-1.6,7.5-1.6c1,0,2,0.1,3.1,0.3s2.2,0.5,3.4,1c1.1,0.5,2.2,1.1,3.2,1.8c1,0.8,1.8,1.7,2.5,2.8h0.1
		V33.2h6.2v52H650.2z M628,71.8c0.5,1.7,1.2,3.2,2.1,4.5c0.9,1.3,2.2,2.4,3.6,3.1c1.5,0.8,3.2,1.2,5.2,1.2c2.1,0,3.9-0.4,5.3-1.2
		c1.5-0.8,2.6-1.9,3.6-3.2c0.9-1.3,1.6-2.9,2-4.6s0.6-3.4,0.6-5.2c0-1.8-0.2-3.6-0.7-5.4c-0.4-1.7-1.1-3.2-2.1-4.6
		c-0.9-1.3-2.2-2.4-3.7-3.2s-3.3-1.2-5.5-1.2c-2.1,0-3.9,0.4-5.3,1.2c-1.5,0.8-2.6,1.9-3.5,3.3s-1.5,2.9-1.9,4.7
		c-0.4,1.7-0.6,3.5-0.6,5.4C627.3,68.5,627.5,70.2,628,71.8z"/>
	<path class="st2" d="M691.9,82.8c-2.8,2.1-6.4,3.2-10.6,3.2c-3,0-5.6-0.5-7.8-1.5s-4.1-2.3-5.6-4.1s-2.6-3.8-3.4-6.3
		c-0.8-2.4-1.2-5.1-1.3-7.9c0-2.9,0.4-5.5,1.3-7.9c0.9-2.4,2.1-4.4,3.7-6.2c1.6-1.7,3.4-3.1,5.6-4.1c2.2-1,4.5-1.5,7.1-1.5
		c3.3,0,6.1,0.7,8.3,2.1c2.2,1.4,4,3.1,5.3,5.3c1.3,2.1,2.3,4.5,2.8,7s0.7,4.9,0.6,7.2h-28.2c0,1.7,0.1,3.2,0.6,4.7
		c0.4,1.5,1.1,2.8,2.1,3.9s2.2,2.1,3.7,2.7c1.5,0.7,3.3,1,5.3,1c2.6,0,4.8-0.6,6.4-1.8c1.7-1.2,2.8-3.1,3.3-5.5h6.1
		C696.5,77.5,694.7,80.7,691.9,82.8z M690.4,58.6c-0.6-1.3-1.3-2.4-2.3-3.4c-0.9-0.9-2.1-1.7-3.4-2.3c-1.3-0.6-2.7-0.8-4.3-0.8
		s-3,0.3-4.3,0.8c-1.3,0.6-2.4,1.3-3.3,2.3c-0.9,1-1.7,2.1-2.2,3.4c-0.5,1.3-0.9,2.7-0.9,4.1h21.6C691.3,61.3,690.9,59.9,690.4,58.6
		z"/>
	<path class="st2" d="M709.2,47.6v7.9h0.1c1.5-3.1,3.3-5.3,5.5-6.8s5-2.1,8.3-2v6.6c-2.5,0-4.6,0.3-6.3,1s-3.2,1.7-4.2,3
		c-1.1,1.3-1.8,2.9-2.3,4.8c-0.5,1.9-0.7,4-0.7,6.4v16.7h-6.2V47.6H709.2z"/>
</g>
</svg>
