<?xml version="1.0" encoding="UTF-8"?>
<svg xmlns="http://www.w3.org/2000/svg" xmlns:xlink="http://www.w3.org/1999/xlink" version="1.1" viewBox="0 0 729.4 100.6">
  <defs>
    <style>
      .cls-1 {
        fill: #231f20;
      }

      .cls-2 {
        fill: url(#linear-gradient);
      }

      .cls-3 {
        fill: #464646;
      }
    </style>
    <linearGradient id="linear-gradient" x1="4179" y1="-1778.5" x2="4216.8" y2="-1778.5" gradientTransform="translate(4218.3 -1714) rotate(-180)" gradientUnits="userSpaceOnUse">
      <stop offset="0" stop-color="#464646"/>
      <stop offset="1" stop-color="#000"/>
    </linearGradient>
  </defs>
  <!-- Generator: Adobe Illustrator 28.6.0, SVG Export Plug-In . SVG Version: 1.2.0 Build 709)  -->
  <g>
    <g id="Layer_1">
      <g>
        <path class="cls-1" d="M65.7,33.2h10.8v52h-10.8s0-52,0-52Z"/>
        <path class="cls-1" d="M108.9,85.2h-23.6v-52h25.2c6.4,0,10.9,1.9,13.5,5.5,1.6,2.2,2.4,4.9,2.4,7.9s-.8,5.7-2.4,7.7c-.9,1.1-2.2,2.1-3.9,3,2.7,1,4.7,2.5,6,4.6,1.4,2.1,2,4.6,2,7.6s-.8,5.8-2.3,8.3c-1,1.6-2.2,3-3.7,4.1-1.7,1.3-3.6,2.1-5.9,2.6s-4.7.7-7.4.7h0ZM114,52.4c1.4-.8,2.1-2.4,2.1-4.5s-.9-4-2.8-4.8c-1.6-.5-3.7-.8-6.2-.8h-11.4v11.5h12.8c2.3,0,4.1-.4,5.6-1.3h0ZM108.6,62.3h-12.9v13.9h12.8c2.3,0,4.1-.3,5.3-.9,2.3-1.1,3.5-3.3,3.5-6.5s-1.1-4.6-3.4-5.6c-1.2-.6-3-.9-5.3-.9Z"/>
        <path class="cls-1" d="M181.3,85.2h-14l-16-22.7-5.2,5.3v17.4h-10.7v-52h10.7v21.4l20.1-21.4h14l-21.3,21.4,22.4,30.6Z"/>
        <path class="cls-1" d="M206.6,64.8h-11.2v20.4h-10.6v-52h25.5c3.6,0,6.4.5,8.4,1.3s3.6,2,5,3.6c1.1,1.3,2,2.8,2.7,4.4.7,1.6,1,3.4,1,5.5s-.6,4.9-1.9,7.3-3.3,4.1-6.2,5.1c2.4,1,4.1,2.3,5.1,4.1,1,1.8,1.5,4.5,1.5,8.1v3.5c0,2.4,0,4,.3,4.8.3,1.3.9,2.3,2,3v1.3h-12c-.3-1.2-.6-2.1-.7-2.8-.3-1.5-.4-3-.5-4.5v-4.8c-.1-3.3-.7-5.5-1.9-6.6s-3.3-1.7-6.5-1.7h0ZM213.2,55.4c2.2-1,3.2-2.9,3.2-5.9s-1-5.3-3.1-6.3c-1.2-.6-2.9-.9-5.3-.9h-12.6v14h12.3c2.4,0,4.3-.3,5.5-.8h0Z"/>
        <path class="cls-1" d="M285.4,33.2v5.8h-27.2v16.5h23.9v5.8h-23.9v23.8h-6.9v-52h34.2-.1Z"/>
        <path class="cls-1" d="M313.5,82.8c-2.8,2.1-6.4,3.2-10.6,3.2s-5.6-.5-7.8-1.5c-2.2-1-4.1-2.3-5.6-4.1s-2.6-3.8-3.4-6.3c-.8-2.4-1.2-5.1-1.3-7.9,0-2.9.4-5.5,1.3-7.9s2.1-4.4,3.7-6.2c1.6-1.7,3.4-3.1,5.6-4.1s4.5-1.5,7.1-1.5,6.1.7,8.3,2.1c2.2,1.4,4,3.1,5.3,5.3,1.3,2.1,2.3,4.5,2.8,7s.7,4.9.6,7.2h-28.2c0,1.7.1,3.2.6,4.7.4,1.5,1.1,2.8,2.1,3.9s2.2,2.1,3.7,2.7c1.5.7,3.3,1,5.3,1s4.8-.6,6.4-1.8c1.7-1.2,2.8-3.1,3.3-5.5h6.1c-.8,4.2-2.6,7.4-5.5,9.5l.2.2ZM312.1,58.6c-.6-1.3-1.3-2.4-2.3-3.4s-2.1-1.7-3.4-2.3-2.7-.8-4.3-.8-3,.3-4.3.8c-1.3.6-2.4,1.3-3.3,2.3s-1.7,2.1-2.2,3.4c-.5,1.3-.9,2.7-.9,4.1h21.6c0-1.5-.4-2.8-1-4.2h0Z"/>
        <path class="cls-1" d="M357.2,85.1c-1.1.6-2.5.9-4.4.9s-2.9-.5-3.8-1.3-1.4-2.4-1.4-4.4c-1.7,2-3.7,3.5-5.9,4.4s-4.7,1.3-7.3,1.3-3.3-.2-4.8-.6-2.9-1-4-1.8-2-1.9-2.7-3.2c-.7-1.3-1-2.9-1-4.8s.4-3.9,1.1-5.2c.7-1.4,1.7-2.5,2.9-3.3,1.2-.8,2.5-1.5,4.1-1.9,1.5-.4,3.1-.8,4.7-1.1,1.7-.3,3.3-.6,4.8-.8s2.9-.4,4-.7c1.2-.3,2.1-.8,2.8-1.4.7-.6,1-1.5,1-2.7s-.3-2.5-.8-3.3-1.2-1.5-2-1.9-1.7-.7-2.7-.9c-1,0-2-.2-2.9-.2-2.6,0-4.8.5-6.6,1.5-1.7,1-2.7,2.9-2.8,5.6h-6.2c0-2.3.6-4.3,1.5-5.9.9-1.6,2-2.9,3.5-3.9s3.1-1.7,5-2.1c1.9-.4,3.9-.7,6-.7s3.4,0,5.1.4c1.7.2,3.2.7,4.6,1.5s2.5,1.8,3.3,3.2,1.2,3.1,1.2,5.3v19.3c0,1.5,0,2.5.3,3.2.2.7.7,1,1.7,1s1.2,0,1.9-.3v4.8h-.2ZM347.1,65.8c-.8.6-1.8,1-3.1,1.3-1.3.3-2.6.5-4,.7s-2.8.4-4.2.6c-1.4.2-2.7.6-3.8,1.1-1.1.5-2,1.2-2.7,2.1s-1.1,2.1-1.1,3.7.2,1.9.6,2.6.9,1.3,1.6,1.7c.7.4,1.4.7,2.3.9s1.8.3,2.8.3c2,0,3.8-.3,5.2-.8,1.5-.6,2.6-1.3,3.6-2.1.9-.8,1.6-1.8,2-2.8s.7-1.9.7-2.8v-6.5Z"/>
        <path class="cls-1" d="M376.8,47.6v5.5h-7.5v23.4c0,.7,0,1.3.2,1.7.1.4.4.8.7,1,.3.2.8.4,1.4.5.6,0,1.4,0,2.4,0h2.8v5.5h-4.7c-1.6,0-3,0-4.1-.3-1.1-.2-2.1-.6-2.8-1.2-.7-.6-1.2-1.4-1.6-2.5-.3-1.1-.5-2.5-.5-4.2v-24h-6.4v-5.5h6.4v-11.3h6.2v11.3h7.5Z"/>
        <path class="cls-1" d="M406.7,85.2v-6h-.1c-1.3,2.3-3,4-5,5.1s-4.4,1.6-7.2,1.6-4.5-.3-6.2-1-3-1.6-4-2.8c-1-1.2-1.7-2.7-2.1-4.3-.4-1.7-.6-3.5-.6-5.6v-24.8h6.2v25.5c0,2.3.7,4.2,2,5.5,1.4,1.4,3.2,2,5.6,2s3.5-.3,4.9-.9,2.5-1.4,3.5-2.5c.9-1.1,1.6-2.3,2.1-3.8.5-1.4.7-3,.7-4.7v-21.3h6.2v37.7h-5.8l-.2.3Z"/>
        <path class="cls-1" d="M425.1,47.6v7.9h.1c1.5-3.1,3.3-5.3,5.5-6.8s5-2.1,8.3-2v6.6c-2.5,0-4.6.3-6.3,1-1.7.7-3.2,1.7-4.2,3-1.1,1.3-1.8,2.9-2.3,4.8-.5,1.9-.7,4-.7,6.4v16.7h-6.2v-37.7h5.8Z"/>
        <path class="cls-1" d="M468.1,82.8c-2.8,2.1-6.4,3.2-10.6,3.2s-5.6-.5-7.8-1.5c-2.2-1-4.1-2.3-5.6-4.1s-2.6-3.8-3.4-6.3c-.8-2.4-1.2-5.1-1.3-7.9,0-2.9.4-5.5,1.3-7.9s2.1-4.4,3.7-6.2c1.6-1.7,3.4-3.1,5.6-4.1s4.5-1.5,7.1-1.5,6.1.7,8.3,2.1c2.2,1.4,4,3.1,5.3,5.3,1.3,2.1,2.3,4.5,2.8,7s.7,4.9.6,7.2h-28.2c0,1.7.1,3.2.6,4.7.4,1.5,1.1,2.8,2.1,3.9s2.2,2.1,3.7,2.7c1.5.7,3.3,1,5.3,1s4.8-.6,6.4-1.8c1.7-1.2,2.8-3.1,3.3-5.5h6.1c-.8,4.2-2.6,7.4-5.5,9.5l.2.2ZM466.6,58.6c-.6-1.3-1.3-2.4-2.3-3.4s-2.1-1.7-3.4-2.3-2.7-.8-4.3-.8-3,.3-4.3.8c-1.3.6-2.4,1.3-3.3,2.3s-1.7,2.1-2.2,3.4c-.5,1.3-.9,2.7-.9,4.1h21.6c0-1.5-.4-2.8-1-4.2h0Z"/>
        <path class="cls-1" d="M515.1,33.2v5.8h-29v16.5h27v5.8h-27v18h29.2v5.8h-36.1v-52h35.9Z"/>
        <path class="cls-1" d="M517.4,47.6h7.9l9,13.2,9.4-13.2h7.4l-13,17.3,14.6,20.3h-7.9l-10.5-15.6-10.5,15.6h-7.5l14.1-19.8-13.1-17.8h0Z"/>
        <path class="cls-1" d="M562.2,47.6v5.1h0c1-2.1,2.6-3.6,4.8-4.6,2.2-.9,4.6-1.4,7.2-1.4s5.4.5,7.6,1.6c2.2,1.1,4,2.5,5.4,4.3s2.5,3.9,3.2,6.3c.7,2.4,1.1,4.9,1.1,7.6s-.4,5.2-1.1,7.6c-.7,2.4-1.8,4.5-3.2,6.2-1.4,1.8-3.2,3.2-5.4,4.2s-4.7,1.5-7.5,1.5-2,0-3.1-.3c-1.1-.2-2.3-.5-3.4-.9-1.1-.4-2.2-1-3.2-1.8s-1.8-1.7-2.5-2.8h0v19.4h-6.2v-52h6.3ZM584.4,60.9c-.5-1.7-1.2-3.2-2.1-4.5-.9-1.3-2.2-2.4-3.6-3.1-1.5-.8-3.2-1.2-5.2-1.2s-3.9.4-5.3,1.2c-1.5.8-2.6,1.9-3.6,3.2-.9,1.3-1.6,2.9-2,4.6-.4,1.7-.6,3.4-.6,5.2s.2,3.6.7,5.4c.4,1.7,1.1,3.2,2.1,4.6.9,1.3,2.2,2.4,3.7,3.2,1.5.8,3.3,1.2,5.5,1.2s3.9-.4,5.4-1.2c1.4-.8,2.6-1.9,3.5-3.3s1.5-2.9,1.9-4.7c.4-1.7.6-3.5.6-5.4s-.2-3.5-.7-5.1h-.3Z"/>
        <path class="cls-1" d="M603.2,33.2v52h-6.2v-52s6.2,0,6.2,0Z"/>
        <path class="cls-1" d="M609.6,58.7c.8-2.4,1.9-4.5,3.5-6.3s3.5-3.2,5.8-4.2,4.9-1.5,7.9-1.5,5.6.5,7.9,1.5c2.3,1,4.2,2.4,5.7,4.2,1.6,1.8,2.7,3.9,3.5,6.3.8,2.4,1.2,5,1.2,7.8s-.4,5.3-1.2,7.7c-.8,2.4-1.9,4.5-3.5,6.2-1.6,1.8-3.5,3.2-5.7,4.2-2.3,1-4.9,1.5-7.9,1.5s-5.6-.5-7.9-1.5c-2.3-1-4.2-2.4-5.8-4.2-1.6-1.8-2.7-3.8-3.5-6.2-.8-2.4-1.2-5-1.2-7.7s.4-5.4,1.2-7.8ZM615.9,72.5c.6,1.8,1.4,3.3,2.5,4.4,1.1,1.2,2.3,2.1,3.8,2.7,1.4.6,2.9.9,4.6.9s3.1-.3,4.6-.9c1.4-.6,2.7-1.5,3.8-2.7s1.9-2.7,2.5-4.4c.6-1.8.9-3.8.9-6.1s-.3-4.3-.9-6.1-1.4-3.3-2.5-4.5-2.3-2.1-3.8-2.8c-1.4-.6-2.9-.9-4.6-.9s-3.1.3-4.6.9c-1.4.6-2.7,1.6-3.8,2.8s-1.9,2.7-2.5,4.5-.9,3.8-.9,6.1.3,4.3.9,6.1Z"/>
        <path class="cls-1" d="M655.5,47.6v7.9h0c1.5-3.1,3.3-5.3,5.5-6.8s5-2.1,8.3-2v6.6c-2.5,0-4.6.3-6.3,1s-3.2,1.7-4.2,3c-1.1,1.3-1.8,2.9-2.3,4.8-.5,1.9-.7,4-.7,6.4v16.7h-6.2v-37.7h5.8Z"/>
        <path class="cls-1" d="M698.5,82.8c-2.8,2.1-6.4,3.2-10.6,3.2s-5.6-.5-7.8-1.5-4.1-2.3-5.6-4.1-2.6-3.8-3.4-6.3c-.8-2.4-1.2-5.1-1.3-7.9,0-2.9.4-5.5,1.3-7.9.9-2.4,2.1-4.4,3.7-6.2,1.6-1.7,3.4-3.1,5.6-4.1,2.2-1,4.5-1.5,7.1-1.5s6.1.7,8.3,2.1c2.2,1.4,4,3.1,5.3,5.3,1.3,2.1,2.3,4.5,2.8,7s.7,4.9.6,7.2h-28.2c0,1.7,0,3.2.6,4.7.4,1.5,1.1,2.8,2.1,3.9s2.2,2.1,3.7,2.7c1.5.7,3.3,1,5.3,1s4.8-.6,6.4-1.8c1.7-1.2,2.8-3.1,3.3-5.5h6.1c-.8,4.2-2.6,7.4-5.5,9.5l.2.2ZM697,58.6c-.6-1.3-1.3-2.4-2.3-3.4s-2.1-1.7-3.4-2.3c-1.3-.6-2.7-.8-4.3-.8s-3,.3-4.3.8c-1.3.6-2.4,1.3-3.3,2.3-.9,1-1.7,2.1-2.2,3.4-.5,1.3-.9,2.7-.9,4.1h21.6c0-1.5-.4-2.8-1-4.2h.1Z"/>
        <path class="cls-1" d="M714.2,47.6v7.9h0c1.5-3.1,3.3-5.3,5.5-6.8s5-2.1,8.3-2v6.6c-2.5,0-4.6.3-6.3,1s-3.2,1.7-4.2,3c-1.1,1.3-1.8,2.9-2.3,4.8-.5,1.9-.7,4-.7,6.4v16.7h-6.2v-37.7h5.8Z"/>
      </g>
      <g>
        <polygon class="cls-2" points="39.3 85.3 1.6 85.3 1.6 43.8 39.3 85.3"/>
        <circle class="cls-3" cx="34.1" cy="54" r="11.3"/>
        <polygon class="cls-3" points="39.3 0 1.6 43.8 1.6 85.3 39.3 0"/>
      </g>
    </g>
  </g>
</svg>