<?xml version="1.0" encoding="utf-8"?>
<!-- Generator: Adobe Illustrator 27.9.0, SVG Export Plug-In . SVG Version: 6.00 Build 0)  -->
<svg version="1.1" id="Layer_1" xmlns="http://www.w3.org/2000/svg" xmlns:xlink="http://www.w3.org/1999/xlink" x="0px" y="0px"
	 viewBox="0 0 50 50" style="enable-background:new 0 0 50 50;" xml:space="preserve">
<style type="text/css">
	.st0{fill:#717171;}
	.st1{fill:#FFFFFF;}
	.st2{fill:#499DD6;}
</style>
<g>
	<path class="st0" d="M50,50H0V0h50V50z M2,48h46V2H2V48z"/>
</g>
<path class="st1" d="M11.9,23h-2v-9.6h2V23z"/>
<path class="st1" d="M20.8,14.4c0.3,0.4,0.5,0.9,0.4,1.4c0,0.5-0.1,1-0.4,1.4c-0.2,0.2-0.4,0.4-0.7,0.5c0.4,0.2,0.8,0.4,1.1,0.8
	c0.3,0.4,0.4,0.9,0.4,1.4c0,0.5-0.1,1.1-0.4,1.5c-0.2,0.3-0.4,0.5-0.7,0.7c-0.3,0.2-0.7,0.4-1.1,0.5c-0.4,0.1-0.9,0.1-1.3,0.1h-4.3
	v-9.5h4.6C19.3,13.4,20.2,13.7,20.8,14.4z M15.7,15v2h2.3c0.3,0.1,0.7,0.1,1.1,0c0.3-0.2,0.4-0.5,0.4-0.8c0-0.4-0.2-0.7-0.5-0.9
	c-0.4-0.2-0.8-0.3-1.2-0.3H15.7z M15.7,18.7v2.5h2.3c0.4,0.1,0.7,0,1.1-0.1c0.4-0.2,0.7-0.7,0.6-1.2c0-0.4-0.3-0.8-0.6-0.9
	c-0.3-0.1-0.6-0.2-0.9-0.2L15.7,18.7z"/>
<path class="st1" d="M23.3,13.4h2v4l3.7-3.9h2.5l-3.9,4l4,5.6H29l-2.9-4.3l-0.9,1V23h-2L23.3,13.4L23.3,13.4z"/>
<path class="st1" d="M38.8,13.7c0.3,0.2,0.6,0.4,0.9,0.7c0.4,0.5,0.7,1.1,0.6,1.8c0,0.5-0.1,0.9-0.3,1.3c-0.2,0.4-0.7,0.8-1.1,0.9
	c0.4,0.1,0.7,0.4,0.9,0.7c0.2,0.5,0.3,1,0.3,1.5v0.6c0,0.3,0,0.6,0,0.9c0,0.2,0.2,0.4,0.4,0.5V23h-2.1c-0.1-0.2-0.1-0.3-0.1-0.5
	c0-0.3,0-0.5,0-0.8v-1c0-0.4-0.1-0.9-0.3-1.2c-0.3-0.2-0.7-0.4-1.1-0.3h-2V23h-2v-9.6h4.5C37.8,13.4,38.3,13.5,38.8,13.7z M34.7,15
	v2.6h2.1c0.3,0,0.6,0,0.9-0.1c0.4-0.2,0.6-0.6,0.6-1.1c0.1-0.5-0.2-0.9-0.5-1.2c-0.3-0.1-0.6-0.2-0.9-0.2H34.7z"/>
<path class="st2" d="M11.8,28.1h2v7.7h4.7v1.7h-6.7V28.1z"/>
<path class="st2" d="M21.6,37.5h-2v-9.4h2V37.5z"/>
<path class="st2" d="M30.3,28.1v1.7h-2.8v7.8h-2v-7.8h-2.8v-1.7H30.3z"/>
<path class="st2" d="M38.5,29.8h-5v2h4.6v1.6h-4.6v2.4h5.2v1.7h-7.2v-9.4h6.9L38.5,29.8L38.5,29.8z"/>
</svg>
