<?xml version="1.0" encoding="utf-8"?>
<!-- Generator: Adobe Illustrator 27.9.0, SVG Export Plug-In . SVG Version: 6.00 Build 0)  -->
<svg version="1.1" id="Layer_1" xmlns="http://www.w3.org/2000/svg" xmlns:xlink="http://www.w3.org/1999/xlink" x="0px" y="0px"
	 viewBox="0 0 50 50" style="enable-background:new 0 0 50 50;" xml:space="preserve">
<style type="text/css">
	.st0{fill:#717171;}
	.st1{fill:#010101;}
	.st2{fill:#EF3D4A;}
</style>
<g>
	<path class="st0" d="M50,50H0V0h50V50z M2,48h46V2H2V48z"/>
</g>
<path class="st1" d="M11.9,23h-2v-9.6h2V23z"/>
<path class="st1" d="M20.8,14.4c0.3,0.4,0.5,0.9,0.4,1.4c0,0.5-0.1,1-0.4,1.4c-0.2,0.2-0.4,0.4-0.7,0.5c0.4,0.2,0.8,0.4,1.1,0.8
	c0.3,0.4,0.4,0.9,0.4,1.4c0,0.5-0.1,1.1-0.4,1.5c-0.2,0.3-0.4,0.5-0.7,0.7c-0.3,0.2-0.7,0.4-1.1,0.5c-0.4,0.1-0.9,0.1-1.3,0.1h-4.3
	v-9.5h4.6C19.3,13.4,20.2,13.7,20.8,14.4z M15.7,15v2h2.3c0.3,0.1,0.7,0.1,1.1,0c0.3-0.2,0.4-0.5,0.4-0.8c0-0.4-0.2-0.7-0.5-0.9
	c-0.4-0.2-0.8-0.3-1.2-0.3H15.7z M15.7,18.7v2.5h2.3c0.4,0.1,0.7,0,1.1-0.1c0.4-0.2,0.7-0.7,0.6-1.2c0-0.4-0.3-0.8-0.6-0.9
	c-0.3-0.1-0.6-0.2-0.9-0.2L15.7,18.7z"/>
<path class="st1" d="M23.3,13.4h2v4l3.7-3.9h2.6l-3.9,4l4,5.6H29l-2.8-4.3l-0.9,1V23h-2L23.3,13.4L23.3,13.4z"/>
<path class="st1" d="M38.8,13.7c0.3,0.2,0.6,0.4,0.9,0.7c0.4,0.5,0.7,1.1,0.6,1.8c0,0.5-0.1,0.9-0.3,1.3c-0.2,0.4-0.7,0.8-1.1,0.9
	c0.4,0.1,0.7,0.4,0.9,0.7c0.2,0.5,0.3,1,0.3,1.5v0.6c0,0.3,0,0.6,0,0.9c0,0.2,0.2,0.4,0.4,0.5V23h-2.1c-0.1-0.2-0.1-0.3-0.1-0.5
	c0-0.3,0-0.5,0-0.8v-1c0-0.4-0.1-0.9-0.3-1.2c-0.3-0.2-0.7-0.4-1.1-0.3h-2V23h-2v-9.6h4.5C37.8,13.4,38.3,13.5,38.8,13.7z M34.7,15
	v2.6h2.1c0.3,0,0.6,0,0.9-0.1c0.4-0.2,0.6-0.6,0.6-1.1c0.1-0.5-0.2-0.9-0.5-1.2c-0.3-0.1-0.6-0.2-0.9-0.2H34.7z"/>
<path class="st2" d="M18.1,33.5c-0.7,0.5-1.5,0.7-2.4,0.7h-2v3.4h-2v-9.4h4c0.8,0,1.6,0.2,2.2,0.7c0.6,0.5,1,1.3,1,2.2
	C19.1,31.9,18.8,32.8,18.1,33.5z M16.6,30.1c-0.3-0.2-0.7-0.3-1.1-0.3h-1.8v2.8h1.8c0.4,0,0.8-0.1,1.1-0.3c0.3-0.3,0.4-0.7,0.4-1.1
	C17,30.7,16.9,30.3,16.6,30.1z"/>
<path class="st2" d="M26.6,28.3c0.4,0.1,0.7,0.4,0.9,0.7c0.2,0.2,0.4,0.5,0.5,0.8c0.1,0.3,0.2,0.7,0.2,1c0,0.5-0.1,0.9-0.3,1.3
	c-0.2,0.4-0.7,0.8-1.1,0.9c0.4,0.1,0.7,0.4,0.9,0.7c0.2,0.5,0.3,1,0.3,1.5v0.6c0,0.3,0,0.6,0,0.9c0,0.2,0.2,0.4,0.4,0.5v0.2h-2.1
	C26.1,37.4,26,37.2,26,37c0-0.3,0-0.5,0-0.8v-0.9c0-0.4-0.1-0.9-0.3-1.2c-0.3-0.2-0.7-0.3-1.1-0.3h-2v3.7h-2v-9.4H25
	C25.5,28.1,26.1,28.1,26.6,28.3z M22.5,29.7v2.5h2.1c0.3,0,0.7,0,1-0.2c0.4-0.2,0.6-0.6,0.5-1.1c0.1-0.5-0.2-0.9-0.5-1.2
	c-0.3-0.1-0.6-0.2-0.9-0.2H22.5z"/>
<path class="st2" d="M37.3,36.7c-0.8,0.8-2,1.2-3.1,1.1c-1.1,0.1-2.3-0.3-3.1-1.1c-1-1.1-1.6-2.5-1.4-4c-0.1-1.5,0.4-2.9,1.4-4
	c0.8-0.8,2-1.2,3.1-1.1c1.1-0.1,2.3,0.3,3.1,1.1c1,1.1,1.6,2.5,1.4,4C38.9,34.2,38.3,35.6,37.3,36.7z M36.1,35.3
	c0.5-0.7,0.8-1.6,0.7-2.5c0.1-0.9-0.2-1.7-0.7-2.5c-0.9-1-2.4-1.2-3.4-0.3c-0.1,0.1-0.2,0.2-0.3,0.3c-0.5,0.7-0.7,1.6-0.7,2.5
	c-0.1,0.9,0.2,1.7,0.7,2.5c0.5,0.6,1.2,0.9,1.9,0.9C34.9,36.2,35.6,35.8,36.1,35.3z"/>
</svg>
