<?xml version="1.0" encoding="utf-8"?>
<!-- Generator: Adobe Illustrator 28.0.0, SVG Export Plug-In . SVG Version: 6.00 Build 0)  -->
<svg version="1.1" id="Layer_1" xmlns="http://www.w3.org/2000/svg" xmlns:xlink="http://www.w3.org/1999/xlink" x="0px" y="0px"
	 viewBox="0 0 48 48" style="enable-background:new 0 0 48 48;" xml:space="preserve">
<style type="text/css">
	.st0{fill:#231F20;}
</style>
<g>
	<path class="st0" d="M0.9,24C0.9,11.2,11.2,0.9,24,0.9S47.1,11.2,47.1,24S36.8,47.1,24,47.1S0.9,36.8,0.9,24z M28.9,41.8
		c9.8-2.7,15.6-12.9,12.9-22.7C39.1,9.2,28.9,3.5,19.1,6.2C11.1,8.4,5.5,15.7,5.5,24c0,0.4,0,0.8,0,1.3L28.9,41.8z M14.8,21.7
		c0-5.1,4.1-9.2,9.2-9.2s9.2,4.1,9.2,9.2s-4.1,9.2-9.2,9.2l0,0C18.9,30.9,14.8,26.8,14.8,21.7z"/>
</g>
</svg>
