<?xml version="1.0" encoding="utf-8"?>
<!-- Generator: Adobe Illustrator 27.9.0, SVG Export Plug-In . SVG Version: 6.00 Build 0)  -->
<svg version="1.1" id="Layer_2_00000129184612219719801430000011030971328222106014_"
	 xmlns="http://www.w3.org/2000/svg" xmlns:xlink="http://www.w3.org/1999/xlink" x="0px" y="0px" viewBox="0 0 452 74"
	 style="enable-background:new 0 0 452 74;" xml:space="preserve">
<style type="text/css">
	.st0{fill:#FFFFFF;}
	.st1{fill:url(#SVGID_1_);}
	.st2{fill:#D81222;}
	.st3{fill:url(#SVGID_00000178902927160103527800000000276867897901473668_);}
</style>
<g>
	<path class="st0" d="M56.1,70.4h-7.2V35.5h7.2V70.4z"/>
	<path class="st0" d="M83.2,46.1c1.7,1.4,2.5,3.7,2.5,6.9v17.4h-6.9V54.7c0-1.4-0.2-2.4-0.5-3.1c-0.7-1.3-1.9-2-3.8-2
		c-2.3,0-3.8,1-4.7,2.9c-0.4,1-0.7,2.3-0.7,3.9v14h-6.7V44.7h6.5v3.8c0.9-1.3,1.7-2.3,2.4-2.9c1.4-1,3.1-1.6,5.3-1.6
		C79.3,44,81.5,44.7,83.2,46.1z"/>
	<path class="st0" d="M88.9,49.7v-4.8h3.6v-7.2h6.7v7.2h4.2v4.8h-4.2v13.6c0,1.1,0.1,1.7,0.4,2c0.3,0.3,1.1,0.4,2.5,0.4
		c0.2,0,0.4,0,0.7,0c0.2,0,0.5,0,0.7,0v5l-3.2,0.1c-3.2,0.1-5.4-0.4-6.5-1.7c-0.8-0.8-1.1-2-1.1-3.6V49.7H88.9z"/>
	<path class="st0" d="M124.1,45.2c1.8,0.8,3.3,2.1,4.5,3.8c1.1,1.5,1.7,3.3,2.1,5.3c0.2,1.2,0.3,2.9,0.2,5.1h-18.8
		c0.1,2.6,1,4.4,2.7,5.4c1,0.6,2.3,1,3.7,1c1.5,0,2.8-0.4,3.7-1.2c0.5-0.4,1-1,1.4-1.8h6.9c-0.2,1.5-1,3.1-2.5,4.7
		c-2.3,2.5-5.5,3.8-9.7,3.8c-3.4,0-6.5-1.1-9.1-3.2s-3.9-5.6-3.9-10.3c0-4.5,1.2-7.9,3.6-10.3c2.4-2.4,5.4-3.6,9.2-3.6
		C120.3,43.9,122.3,44.4,124.1,45.2z M114.1,51c-1,1-1.6,2.3-1.8,4h11.6c-0.1-1.8-0.7-3.1-1.8-4.1c-1.1-0.9-2.4-1.4-4-1.4
		C116.3,49.5,115,50,114.1,51z"/>
	<path class="st0" d="M149.1,44c0.1,0,0.3,0,0.6,0v7c-0.4,0-0.8-0.1-1.1-0.1s-0.6,0-0.8,0c-2.7,0-4.5,0.9-5.5,2.6
		c-0.5,1-0.8,2.5-0.8,4.6v12.3h-6.8V44.6h6.4v4.5c1-1.7,1.9-2.9,2.7-3.5c1.3-1.1,2.9-1.6,4.9-1.6C149,44,149.1,44,149.1,44z"/>
	<path class="st0" d="M163.8,54.7c1.3-0.2,2.2-0.4,2.7-0.6c1-0.4,1.5-1,1.5-1.9c0-1.1-0.4-1.8-1.1-2.2c-0.7-0.4-1.8-0.6-3.3-0.6
		c-1.6,0-2.8,0.4-3.4,1.2c-0.5,0.6-0.8,1.4-1,2.4h-6.5c0.1-2.3,0.8-4.1,1.9-5.6c1.8-2.3,4.9-3.4,9.2-3.4c2.8,0,5.4,0.6,7.6,1.7
		c2.2,1.1,3.3,3.2,3.3,6.3v11.8c0,0.8,0,1.8,0,3c0,0.9,0.2,1.5,0.4,1.8c0.2,0.3,0.6,0.6,1,0.8v1h-7.3c-0.2-0.5-0.3-1-0.4-1.5
		s-0.1-1-0.2-1.6c-0.9,1-2,1.9-3.2,2.6c-1.5,0.8-3.1,1.3-5,1.3c-2.3,0-4.3-0.7-5.8-2c-1.5-1.3-2.3-3.2-2.3-5.7
		c0-3.2,1.2-5.5,3.7-6.9c1.4-0.8,3.3-1.3,6-1.7L163.8,54.7z M167.9,57.9c-0.4,0.3-0.9,0.5-1.3,0.7c-0.4,0.2-1,0.3-1.8,0.5l-1.5,0.3
		c-1.4,0.3-2.5,0.6-3.1,0.9c-1.1,0.6-1.6,1.6-1.6,2.9c0,1.2,0.3,2,1,2.5c0.6,0.5,1.4,0.8,2.4,0.8c1.5,0,2.8-0.4,4.1-1.3
		c1.2-0.9,1.9-2.4,1.9-4.7L167.9,57.9L167.9,57.9z"/>
	<path class="st0" d="M195.9,53.9c-0.1-1-0.4-1.8-1-2.6c-0.8-1-1.9-1.6-3.5-1.6c-2.3,0-3.8,1.1-4.7,3.4c-0.4,1.2-0.7,2.8-0.7,4.8
		c0,1.9,0.2,3.4,0.7,4.6c0.8,2.1,2.3,3.2,4.6,3.2c1.6,0,2.7-0.4,3.4-1.3c0.7-0.9,1.1-2,1.2-3.3h6.9c-0.2,2.1-0.9,4-2.2,5.8
		c-2.1,2.9-5.2,4.4-9.4,4.4s-7.2-1.2-9.2-3.7c-2-2.5-3-5.6-3-9.6c0-4.4,1.1-7.9,3.2-10.3c2.2-2.5,5.1-3.7,9-3.7
		c3.2,0,5.9,0.7,7.9,2.2s3.3,4,3.7,7.7H195.9z"/>
	<path class="st0" d="M205,49.7v-4.8h3.6v-7.2h6.7v7.2h4.2v4.8h-4.2v13.6c0,1.1,0.1,1.7,0.4,2c0.3,0.3,1.1,0.4,2.5,0.4
		c0.2,0,0.4,0,0.7,0c0.2,0,0.5,0,0.7,0v5l-3.2,0.1c-3.2,0.1-5.4-0.4-6.5-1.7c-0.8-0.8-1.1-2-1.1-3.6V49.7H205z"/>
	<path class="st0" d="M230.7,41.6h-6.8v-6.2h6.8V41.6z M223.9,44.6h6.8v25.8h-6.8V44.6z"/>
	<path class="st0" d="M252.6,44.6h7.2l-9.3,25.8h-7.1l-9.2-25.8h7.6l5.4,19L252.6,44.6z"/>
	<path class="st0" d="M279.6,45.2c1.8,0.8,3.3,2.1,4.5,3.8c1.1,1.5,1.7,3.3,2.1,5.3c0.2,1.2,0.3,2.9,0.2,5.1h-18.8
		c0.1,2.6,1,4.4,2.7,5.4c1,0.6,2.3,1,3.7,1c1.5,0,2.8-0.4,3.7-1.2c0.5-0.4,1-1,1.4-1.8h6.9c-0.2,1.5-1,3.1-2.5,4.7
		c-2.3,2.5-5.5,3.8-9.7,3.8c-3.4,0-6.5-1.1-9.1-3.2s-3.9-5.6-3.9-10.3c0-4.5,1.2-7.9,3.6-10.3c2.4-2.4,5.4-3.6,9.2-3.6
		C275.7,43.9,277.8,44.4,279.6,45.2z M269.5,51c-1,1-1.6,2.3-1.8,4h11.6c-0.1-1.8-0.7-3.1-1.8-4.1c-1.1-0.9-2.4-1.4-4-1.4
		C271.8,49.5,270.4,50,269.5,51z"/>
	<path class="st0" d="M290.8,35.7h15c4.1,0,7,1.2,8.7,3.6c1,1.4,1.5,3.1,1.5,5c0,2.2-0.6,4-1.9,5.4c-0.6,0.7-1.6,1.4-2.8,2
		c1.8,0.7,3.1,1.4,4,2.3c1.6,1.5,2.3,3.6,2.3,6.3c0,2.2-0.7,4.3-2.1,6.1c-2.1,2.7-5.5,4.1-10.1,4.1h-14.8V35.7H290.8z M304.1,50.4
		c2,0,3.6-0.3,4.7-0.8c1.8-0.9,2.6-2.4,2.6-4.7s-0.9-3.8-2.8-4.6c-1.1-0.4-2.6-0.7-4.7-0.7h-8.5v10.8H304.1z M305.6,66.4
		c2.9,0,5-0.8,6.2-2.5c0.8-1.1,1.2-2.3,1.2-3.8c0-2.5-1.1-4.2-3.4-5.2c-1.2-0.5-2.8-0.7-4.8-0.7h-9.4v12.2H305.6z"/>
	<path class="st0" d="M322.7,45.1h4v4.4c0.3-0.9,1.1-1.9,2.4-3.1c1.3-1.2,2.8-1.8,4.5-1.8c0.1,0,0.2,0,0.4,0c0.2,0,0.5,0,1,0.1v4.5
		c-0.3,0-0.5-0.1-0.7-0.1s-0.4,0-0.7,0c-2.1,0-3.8,0.7-4.9,2.1c-1.2,1.4-1.7,3-1.7,4.8v14.6h-4.3L322.7,45.1L322.7,45.1z"/>
	<path class="st0" d="M356.8,47.6c2.2,2.2,3.4,5.4,3.4,9.6c0,4.1-1,7.5-3,10.1c-2,2.7-5,4-9.2,4c-3.5,0-6.2-1.2-8.2-3.5
		c-2-2.4-3.1-5.5-3.1-9.5c0-4.3,1.1-7.6,3.2-10.2c2.1-2.5,5-3.8,8.6-3.8C351.8,44.4,354.6,45.4,356.8,47.6z M354.2,64.5
		c1-2.1,1.6-4.5,1.6-7.1c0-2.4-0.4-4.3-1.1-5.8c-1.2-2.3-3.2-3.5-6.1-3.5c-2.6,0-4.4,1-5.6,3s-1.8,4.4-1.8,7.2
		c0,2.7,0.6,4.9,1.8,6.7c1.2,1.8,3,2.7,5.6,2.7S353.1,66.6,354.2,64.5z"/>
	<path class="st0" d="M365,35.7h4.1v20.2L380,45.1h5.4l-9.7,9.4L386,70.4h-5.4l-8-12.9l-3.5,3.4v9.5H365V35.7z"/>
	<path class="st0" d="M403.7,45.8c1.7,0.8,3,1.9,3.8,3.3c0.8,1.3,1.4,2.8,1.7,4.5c0.3,1.2,0.4,3,0.4,5.6h-18.4
		c0.1,2.6,0.7,4.6,1.8,6.2c1.1,1.6,2.9,2.3,5.2,2.3c2.2,0,4-0.7,5.3-2.2c0.7-0.9,1.3-1.8,1.6-3h4.2c-0.1,0.9-0.5,2-1.1,3.1
		s-1.3,2.1-2.1,2.8c-1.3,1.3-2.9,2.1-4.8,2.6c-1,0.3-2.2,0.4-3.5,0.4c-3.1,0-5.8-1.1-8-3.4c-2.2-2.3-3.3-5.5-3.3-9.6
		s1.1-7.4,3.3-9.9c2.2-2.5,5.1-3.8,8.6-3.8C400.3,44.5,402,44.9,403.7,45.8z M405.2,55.7c-0.2-1.8-0.6-3.3-1.2-4.4
		c-1.2-2.1-3.1-3.1-5.8-3.1c-1.9,0-3.6,0.7-4.9,2.1c-1.3,1.4-2,3.2-2.1,5.4H405.2z"/>
	<path class="st0" d="M414.6,45.1h4v4.4c0.3-0.9,1.1-1.9,2.4-3.1c1.3-1.2,2.8-1.8,4.5-1.8c0.1,0,0.2,0,0.4,0c0.2,0,0.5,0,1,0.1v4.5
		c-0.3,0-0.5-0.1-0.7-0.1s-0.4,0-0.7,0c-2.1,0-3.8,0.7-4.9,2.1c-1.2,1.4-1.7,3-1.7,4.8v14.6h-4.3L414.6,45.1L414.6,45.1z"/>
	<path class="st0" d="M433.2,62.5c0.1,1.4,0.5,2.5,1.1,3.3c1.1,1.4,3,2.1,5.7,2.1c1.6,0,3-0.3,4.3-1c1.2-0.7,1.8-1.7,1.8-3.2
		c0-1.1-0.5-1.9-1.5-2.5c-0.6-0.3-1.9-0.7-3.7-1.2l-3.4-0.9c-2.2-0.5-3.8-1.1-4.9-1.8c-1.9-1.2-2.8-2.7-2.8-4.8
		c0-2.4,0.9-4.3,2.6-5.8s4.1-2.2,7.1-2.2c3.9,0,6.7,1.1,8.4,3.4c1.1,1.4,1.6,3,1.6,4.6h-4c-0.1-1-0.4-1.8-1-2.6
		c-1-1.1-2.7-1.7-5.2-1.7c-1.6,0-2.9,0.3-3.7,0.9c-0.8,0.6-1.3,1.4-1.3,2.4c0,1.1,0.6,2,1.7,2.6c0.6,0.4,1.6,0.7,2.8,1l2.9,0.7
		c3.1,0.7,5.2,1.5,6.3,2.2c1.7,1.1,2.5,2.8,2.5,5.1c0,2.3-0.9,4.2-2.6,5.8s-4.4,2.5-7.9,2.5c-3.8,0-6.5-0.9-8.1-2.6
		s-2.4-3.8-2.6-6.4h3.9V62.5z"/>
</g>
<g>
	
		<linearGradient id="SVGID_1_" gradientUnits="userSpaceOnUse" x1="3706.7446" y1="25.2367" x2="3735.1445" y2="25.2367" gradientTransform="matrix(-1 0 0 -1 3736.2446 79.9733)">
		<stop  offset="0" style="stop-color:#D81222"/>
		<stop  offset="1" style="stop-color:#960B1A"/>
	</linearGradient>
	<polygon class="st1" points="29.5,70.4 1.1,70.4 1.1,39.1 	"/>
	<circle class="st2" cx="25.5" cy="46.8" r="8.5"/>
	<polygon class="st2" points="29.5,6.2 1.1,39.1 1.1,70.4 	"/>
</g>
<g>
	
		<linearGradient id="SVGID_00000117649253263631435240000010481049967400929711_" gradientUnits="userSpaceOnUse" x1="3864.9248" y1="54.7591" x2="3893.4382" y2="54.7591" gradientTransform="matrix(-1 0 0 1 3894.2446 0)">
		<stop  offset="0" style="stop-color:#D81222"/>
		<stop  offset="1" style="stop-color:#960B1A"/>
	</linearGradient>
	<polygon style="fill:url(#SVGID_00000117649253263631435240000010481049967400929711_);" points="29.3,70.5 0.8,70.5 0.8,39.1 	"/>
	<circle class="st2" cx="25.3" cy="46.8" r="8.5"/>
	<polygon class="st2" points="29.3,6 0.8,39.1 0.8,70.5 	"/>
</g>
<g>
	<path class="st0" d="M61.4,23.7c-0.6,1.6-1.6,2.9-3,3.9c-1.4,1-4.1,2-7.9,3c-0.4-1-0.9-1.8-1.6-2.5c3.2-0.4,5.5-1,7.1-1.7
		c1.6-0.7,2.6-1.8,3.2-3.2c-3.4,0-6.6,0.1-9.8,0.2v-2.3c2.4,0.1,5.8,0.2,10.3,0.2c0.2-1.1,0.2-2,0.2-2.8c1,0.3,1.9,0.5,2.8,0.6
		c0.2,0,0.3,0.1,0.3,0.1c0,0.1-0.1,0.2-0.3,0.4c-0.2,0.2-0.4,0.8-0.7,1.7c4.2,0,7.9-0.1,11-0.2v2.3c-3.2-0.1-6.4-0.2-9.6-0.2
		c1.2,1.5,2.7,2.5,4.4,3.1s3.7,0.9,6.2,0.8c-0.6,1-0.9,1.9-0.8,2.9c-3.1-0.2-5.5-0.8-7.2-1.7C64.4,27.3,62.8,25.8,61.4,23.7z
		 M63.3,7.3c1.3-2.5,1.9-3.9,1.9-4.3C66,3.5,66.9,3.8,68,4.1c0.2,0,0.2,0.1,0.2,0.2s-0.1,0.2-0.3,0.2c-0.2,0.1-0.4,0.3-0.7,0.6
		c-0.3,0.3-0.8,1.1-1.8,2.2c3.1,0,5.7-0.1,7.7-0.2v2.3c-3-0.1-6.5-0.2-10.6-0.2v2.6c3.9,0,6.8-0.1,8.6-0.2v2.3
		c-1.8-0.1-4.7-0.2-8.6-0.2v2.5c5.1,0,8.9-0.1,11.6-0.2v2.3c-2.8-0.1-7-0.2-12.6-0.2s-9.8,0.1-12.6,0.2v-2.3
		c2.6,0.1,6.4,0.2,11.3,0.2v-2.5c-3.9,0-6.8,0.1-8.7,0.2v-2.3c1.9,0.1,4.8,0.2,8.7,0.2V9.2c-4.5,0-7.8,0.1-10,0.2V7.1
		c3.3,0.1,6.4,0.2,9.4,0.2H63.3z M59,6l-2.3,1c-0.4-1.1-0.9-2.1-1.5-2.9l2.2-0.9C58,4.1,58.5,5,59,6z"/>
	<path class="st0" d="M82.7,29.1V31h-2.7c0.2-1.7,0.3-3.4,0.3-5V8.1c0-1.2-0.1-2.3-0.3-3.5C81,4.8,85,4.9,92,4.9
		c6.9,0,11-0.1,12.2-0.3c-0.2,1-0.3,2.1-0.3,3.5V26c0,1.6,0.1,3.1,0.3,4.6h-2.7v-1.5H82.7z M101.5,27V7.1H82.7V27H101.5z M92.8,22.3
		c3.2,0,5.5-0.1,7.1-0.2v2.5c-1.3-0.1-3.8-0.2-7.7-0.2c-3.9,0-6.5,0.1-7.9,0.2v-2.5c1.2,0.1,3.3,0.2,6.2,0.2v-4.9
		c-2,0-3.7,0.1-4.9,0.2v-2.3c1.3,0.1,2.9,0.2,4.9,0.2v-3.5c-2.5,0-4.3,0.1-5.5,0.2V9.6c1.4,0.1,3.8,0.2,7.4,0.2
		c3.6,0,5.9-0.1,6.8-0.2v2.5c-1.7-0.1-3.8-0.2-6.4-0.2v3.5c2.5,0,4.5-0.1,5.8-0.2v2.3c-1.1-0.1-3-0.2-5.8-0.2V22.3z M98.2,20.3
		l-2.2,1.4c-0.4-0.9-1-1.7-1.8-2.6l2-1.2C97,18.9,97.7,19.8,98.2,20.3z"/>
	<path class="st0" d="M112.8,27.2v-4.5c0-0.7-0.1-1.5-0.2-2.2c1.9,0.2,5.2,0.3,9.9,0.3c4.7,0,7.8-0.1,9.6-0.3
		c-0.1,0.7-0.2,1.5-0.2,2.2v4.5c1.3,0,2.4-0.1,3.5-0.2v2.5c-1.4-0.2-5.8-0.3-13.1-0.3s-11.7,0.1-13.2,0.3V27
		C110.3,27.1,111.5,27.2,112.8,27.2z M116.2,6.9c-1.6,0-3.3,0.1-4.9,0.3V4.5c2.4,0.2,5.7,0.3,9.7,0.3c4,0,7.3-0.1,9.8-0.3
		c-0.4,1.2-0.8,2.9-1.2,5.2c2.3,0,3.6,0,4-0.1c-0.6,5.3-1.1,8.3-1.5,9c-0.4,0.7-1.6,1.1-3.4,1.2c0-0.9-0.3-1.8-0.8-2.6
		c0.6,0.1,1,0.1,1.3,0.1c0.3,0,0.6,0,0.8-0.2c0.2-0.1,0.3-0.3,0.4-0.5c0.1-0.2,0.2-0.9,0.4-2c0.2-1.1,0.3-2.1,0.4-3
		c-1.5,0-2.9,0.1-4.1,0.2l1-5h-9.3c-0.1,1-0.3,2-0.5,3h7.8c-0.7,2.2-1.6,4.1-2.8,5.6c1.7,0.8,3,1.5,3.8,2l-1.4,2
		c-1.1-0.9-2.3-1.7-3.8-2.5c-1.5,1.4-3,2.5-4.6,3.2c-0.5-0.6-1.1-1.2-1.9-1.6c1.9-0.7,3.4-1.5,4.6-2.5c-0.8-0.4-1.7-0.8-2.7-1.2
		l1-1.5l3,1.3c0.8-0.9,1.4-1.9,1.7-2.9h-5.4c-0.6,1.5-1.4,2.9-2.6,4.4c-1.1,1.5-2.3,2.6-3.5,3.4c-0.6-0.7-1.4-1.1-2.1-1.4
		c1.2-0.7,2.3-1.7,3.4-2.8c1-1.2,1.8-2.4,2.3-3.7C115.6,10.4,115.9,8.8,116.2,6.9z M118.4,22.7H115v4.6h3.4V22.7z M124.1,22.7h-3.5
		v4.6h3.5V22.7z M129.6,27.2v-4.6h-3.5v4.6H129.6z"/>
	<path class="st0" d="M144.6,24.9c0.5,0.1,1.7,0.6,3.5,1.5c1.2,0.6,3.4,0.8,6.6,0.8c3.2,0,6.9-0.2,11.2-0.7
		c-0.4,1.1-0.6,2.1-0.7,3.2l-5,0c-3,0-5.3-0.1-6.8-0.2c-1.6-0.1-2.8-0.3-3.8-0.6s-2.2-0.7-3.6-1.3c-1-0.4-1.7-0.6-2.2-0.6
		c-0.5,0-1,0.2-1.5,0.6c-0.5,0.4-1.1,1.1-1.9,2c-0.6-0.8-1.2-1.5-1.8-1.9c1.6-1.7,2.8-2.7,3.6-2.9v-9.4c-1.8,0-2.8,0-3.2,0.1v-2.5
		c0.9,0.1,1.8,0.2,2.9,0.2c1,0,2,0,3-0.2c-0.2,1-0.3,2.2-0.3,3.6V24.9z M145,9.5l-2.8,0.7c-0.2-1.8-0.7-3.6-1.5-5.3l2.8-0.7
		C143.9,6.1,144.4,7.9,145,9.5z M154.5,6.5c-3.1,0.2-5.1,0.3-6,0.3c-0.2-0.8-0.4-1.5-0.7-2.1c0.9,0,1.7,0.1,2.5,0.1
		c2.1,0,4.3-0.1,6.6-0.4c2.3-0.3,4.2-0.6,5.7-1c0.5,1.1,1,1.8,1.4,2.3c0.1,0.2,0.2,0.3,0.2,0.4c0,0.1-0.2,0.1-0.5,0.1
		c-0.3-0.1-0.7-0.1-1.2-0.1c-0.5,0-1.3,0-2.6,0.1c-1.3,0.1-2.3,0.2-3.2,0.2v2.4c3.8,0,6.7-0.1,8.6-0.2v2.2c-1.2-0.1-3.5-0.2-6.8-0.2
		c1.5,2,4.1,3.1,7.9,3.3c-0.7,0.7-1.1,1.6-1.2,2.8c-4.1-1-6.9-3-8.3-6.1h-0.1v1.2c0,1.7,0.1,3.1,0.2,4h-2.5c0.1-1,0.2-2.3,0.2-4
		v-1.2h-0.2c-1.9,2.9-4.3,4.8-7.3,5.9c-0.3-0.5-0.9-1.1-1.7-1.7c2.6-0.7,5-2.1,7.2-4.2c-2.6,0-4.6,0.1-6.1,0.2V8.5
		c2.3,0.1,5,0.2,8,0.2V6.5z M152,18.2c-1.4,0-2.5,0.1-3.3,0.2v-2.2c1.1,0.1,3.1,0.1,5.8,0.1s4.7,0,5.7-0.1c-0.2,0.3-0.4,0.7-0.5,1
		l-0.7,2.2h3.8c0.3,0,0.7-0.1,1.2-0.2c-0.3,0.8-0.8,2.3-1.2,4.3c-0.2,0.8-0.7,1.5-1.7,2c-0.9,0.5-2.3,0.8-4.1,1.1
		c-0.2-0.8-0.6-1.6-1.2-2.5c2.1,0,3.5-0.2,4.1-0.6c0.6-0.4,1-1.1,1.1-2.2h-2.9c-0.7,0-1.3,0-1.7,0.1l0.8-3.1h-3.1
		c-0.6,3.5-2.3,6.1-5.1,7.6c-0.4-0.6-1.1-1.3-1.9-1.8c1.6-0.6,2.8-1.4,3.4-2.2C151.2,21,151.7,19.8,152,18.2z"/>
	<path class="st0" d="M179,23.3l-3.5,3.9c-0.7,0.8-1.3,1.7-1.8,2.7c-0.8-1-1.5-1.7-2.2-2.2c0.4-0.4,0.7-0.8,0.9-1.2
		c0.1-0.4,0.2-1.1,0.2-2.2v-9.9c-1.6,0-2.8,0-3.6,0.2V12c0.6,0.1,1.7,0.2,3.2,0.2c1.5,0,2.5,0,3.2-0.2c-0.2,0.7-0.3,2.2-0.3,4.3v8.2
		c1-1.2,1.8-2.2,2.6-3.3C178,22.2,178.4,22.9,179,23.3z M176.7,8l-2.6,1.5c-0.7-1.8-1.6-3.4-2.8-4.9l2.4-1.4
		C174.8,5.1,175.9,6.7,176.7,8z M180.1,26.6V16.2c0-1.5-0.1-2.6-0.2-3.4c1.2,0.2,2.2,0.3,3.2,0.3c0.2,0,0.3,0.1,0.3,0.2
		c0,0.1-0.1,0.3-0.4,0.5c-0.2,0.2-0.4,0.5-0.4,1.1v11.8h3.5V7.7c-3.1,0-5.4,0.1-7.1,0.3V5.3c1.9,0.2,4.5,0.3,7.8,0.3
		s6.1-0.1,8.4-0.3v2.8c-1.5-0.2-3.7-0.3-6.6-0.3v7.1h2.5c1.3,0,2.6-0.1,3.8-0.3v2.8c-1-0.1-2.2-0.2-3.8-0.2h-2.5v9.5
		c4.2,0,6.8-0.1,7.8-0.4v3c-0.8-0.2-4-0.3-9.5-0.3s-8.8,0.1-9.8,0.3v-3C177.9,26.4,178.9,26.5,180.1,26.6z"/>
	<path class="st0" d="M205.8,20.9c-1.2,0.9-2.7,1.7-4.4,2.5c-0.4-0.8-1.1-1.5-2.2-2.2c3.7-1.2,6.5-2.8,8.2-4.7
		c-2.6,0.1-5,0.2-7.1,0.3v-2.4c2,0.2,4.9,0.2,8.6,0.2c0.5-0.8,1-1.8,1.4-2.9c-3.4-0.1-6.1,0-8.3,0.2V9.6c1.5,0.1,4.4,0.2,8.9,0.2
		c0.6-2.6,0.8-4.8,0.7-6.7c1,0.4,2.1,0.5,3.3,0.5c0.3,0,0.4,0.1,0.4,0.2c0,0.1-0.1,0.2-0.2,0.3c-0.2,0.1-0.3,0.3-0.4,0.5
		c-0.1,0.2-0.2,0.7-0.4,1.3s-0.5,1.9-1,3.7c6,0,9.8-0.1,11.2-0.2V12c-1.8-0.2-3.9-0.2-6.3-0.2h-5.5c-0.3,1-0.7,1.9-1.3,2.9h5.3
		c4.3,0,7.4-0.1,9.1-0.2v2.4c-1.7-0.2-4.1-0.3-7.2-0.3c1.7,2.6,4.6,4,8.7,4.2c-0.8,0.7-1.3,1.7-1.7,3c-1.8-0.4-3.5-1.2-5.1-2.3
		l-0.4,5c-0.1,1.2-0.2,2-0.4,2.5c-0.2,0.5-0.6,0.8-1.3,1c-0.7,0.2-2,0.5-3.8,0.7c0-1.5-0.3-2.4-0.9-2.9c0.9,0.2,1.6,0.3,2.2,0.3
		c0.6,0,1-0.1,1.3-0.4c0.3-0.2,0.5-0.8,0.6-1.7l0.3-3.5h-5.7c-0.1,2.3-0.8,4.1-2.2,5.4s-3.4,2.3-6,3.1c0-0.3-0.2-0.7-0.6-1.2
		c-0.4-0.5-0.8-0.9-1.2-1.2c2.6-0.5,4.5-1.2,5.7-2.1c1.1-0.9,1.8-2.3,1.9-4c-2,0.1-3.4,0.2-4.2,0.3V20.9z M208.1,7.4l-2.2,1.8
		c-1.1-1.4-2.1-2.5-3-3.1l2.2-1.7C205.8,5.2,206.8,6.2,208.1,7.4z M210.2,16.6c-1.1,1.4-2.4,2.7-3.9,3.9h13
		c-1.3-1.2-2.3-2.5-2.9-3.9H210.2z M220.2,3.8c0.4,0.3,0.9,0.6,1.6,0.9s1.1,0.5,1.3,0.6c0.2,0.1,0.3,0.1,0.3,0.2
		c0,0.1-0.1,0.2-0.4,0.2c-0.2,0.1-0.7,0.4-1.4,1.1c-0.7,0.7-1.4,1.5-2,2.4c-0.8-0.5-1.7-0.8-2.7-1c0.6-0.4,1.2-1.1,1.9-1.9
		C219.4,5.4,219.9,4.6,220.2,3.8z"/>
</g>
</svg>
