<?xml version="1.0" encoding="utf-8"?>
<!-- Generator: Adobe Illustrator 27.9.0, SVG Export Plug-In . SVG Version: 6.00 Build 0)  -->
<svg version="1.1" id="Layer_1" xmlns="http://www.w3.org/2000/svg" xmlns:xlink="http://www.w3.org/1999/xlink" x="0px" y="0px"
	 viewBox="0 0 228 69" style="enable-background:new 0 0 228 69;" xml:space="preserve">
<style type="text/css">
	.st0{fill:url(#SVGID_1_);}
	.st1{fill:#464646;}
</style>
<g>
	<path d="M48,29.3h-5.6V2.4H48V29.3z"/>
	<path d="M68.9,10.5c1.3,1.1,2,2.9,2,5.4v13.4h-5.3V17.2c0-1-0.1-1.9-0.4-2.4c-0.5-1-1.5-1.5-2.9-1.5c-1.8,0-3,0.7-3.6,2.2
		c-0.3,0.8-0.5,1.8-0.5,3v10.8H53V9.4h5v2.9c0.7-1,1.3-1.8,1.9-2.2C61,9.3,62.3,8.9,64,8.9C65.9,8.9,67.6,9.4,68.9,10.5z"/>
	<path d="M73.3,13.3V9.6h2.8V4h5.1v5.6h3.2v3.7h-3.2v10.5c0,0.8,0.1,1.3,0.3,1.5c0.2,0.2,0.8,0.3,1.9,0.3c0.2,0,0.3,0,0.5,0
		s0.3,0,0.5,0v3.9L82,29.6c-2.5,0.1-4.1-0.3-5-1.3c-0.6-0.6-0.9-1.5-0.9-2.8V13.3H73.3z"/>
	<path d="M100.5,9.8c1.4,0.6,2.5,1.6,3.4,2.9c0.8,1.2,1.3,2.6,1.6,4.1c0.1,0.9,0.2,2.2,0.2,3.9H91.2c0.1,2,0.8,3.4,2.1,4.2
		c0.8,0.5,1.8,0.7,2.9,0.7c1.2,0,2.1-0.3,2.9-0.9c0.4-0.3,0.8-0.8,1.1-1.4h5.3c-0.1,1.2-0.8,2.4-1.9,3.6C101.7,29,99.2,30,96,30
		c-2.6,0-5-0.8-7-2.4s-3-4.3-3-8c0-3.4,0.9-6.1,2.7-7.9c1.8-1.8,4.2-2.8,7.1-2.8C97.5,8.9,99.1,9.2,100.5,9.8z M92.7,14.3
		c-0.7,0.8-1.2,1.8-1.4,3.1h9c-0.1-1.4-0.6-2.4-1.4-3.1c-0.8-0.7-1.9-1.1-3.1-1.1C94.5,13.1,93.4,13.5,92.7,14.3z"/>
	<path d="M119.8,8.9c0.1,0,0.2,0,0.4,0v5.3c-0.3,0-0.6-0.1-0.9-0.1s-0.5,0-0.6,0c-2.1,0-3.5,0.7-4.2,2c-0.4,0.8-0.6,1.9-0.6,3.5v9.5
		h-5.2V9.4h5v3.5c0.8-1.3,1.5-2.2,2.1-2.7c1-0.8,2.2-1.2,3.8-1.2C119.6,8.9,119.7,8.9,119.8,8.9z"/>
	<path d="M131.1,17.2c1-0.1,1.7-0.3,2.1-0.5c0.7-0.3,1.1-0.8,1.1-1.5c0-0.8-0.3-1.4-0.9-1.7c-0.6-0.3-1.4-0.5-2.5-0.5
		c-1.2,0-2.1,0.3-2.6,0.9c-0.4,0.5-0.6,1.1-0.7,1.8h-5c0.1-1.7,0.6-3.2,1.5-4.3c1.4-1.8,3.8-2.6,7.1-2.6c2.2,0,4.1,0.4,5.8,1.3
		c1.7,0.9,2.5,2.5,2.5,4.9v9.1c0,0.6,0,1.4,0,2.3c0,0.7,0.1,1.1,0.3,1.4c0.2,0.2,0.4,0.4,0.8,0.6v0.8h-5.7c-0.2-0.4-0.3-0.8-0.3-1.1
		s-0.1-0.8-0.1-1.2c-0.7,0.8-1.6,1.4-2.5,2c-1.1,0.6-2.4,1-3.8,1c-1.8,0-3.3-0.5-4.5-1.5s-1.8-2.5-1.8-4.4c0-2.4,0.9-4.2,2.9-5.3
		c1-0.6,2.6-1,4.6-1.3L131.1,17.2z M134.3,19.6c-0.3,0.2-0.7,0.4-1,0.5s-0.8,0.2-1.4,0.4l-1.2,0.2c-1.1,0.2-1.9,0.4-2.4,0.7
		c-0.8,0.5-1.2,1.2-1.2,2.2c0,0.9,0.3,1.5,0.8,1.9s1.1,0.6,1.8,0.6c1.1,0,2.2-0.3,3.1-1c1-0.7,1.5-1.9,1.5-3.6L134.3,19.6
		L134.3,19.6z"/>
	<path d="M155.8,16.5c-0.1-0.7-0.3-1.4-0.7-2c-0.6-0.8-1.5-1.2-2.7-1.2c-1.8,0-3,0.9-3.6,2.6c-0.3,0.9-0.5,2.1-0.5,3.7
		c0,1.5,0.2,2.6,0.5,3.5c0.6,1.7,1.8,2.5,3.5,2.5c1.2,0,2.1-0.3,2.6-1s0.8-1.5,0.9-2.6h5.3c-0.1,1.6-0.7,3.1-1.7,4.5
		c-1.6,2.3-4,3.4-7.3,3.4c-3.2,0-5.6-0.9-7.1-2.8s-2.3-4.4-2.3-7.4c0-3.4,0.8-6.1,2.5-8s4-2.8,6.9-2.8c2.5,0,4.5,0.6,6.1,1.7
		s2.5,3.1,2.8,5.9H155.8z"/>
	<path d="M162.8,13.3V9.6h2.8V4h5.1v5.6h3.2v3.7h-3.2v10.5c0,0.8,0.1,1.3,0.3,1.5s0.8,0.3,1.9,0.3c0.2,0,0.3,0,0.5,0s0.3,0,0.5,0
		v3.9l-2.5,0.1c-2.5,0.1-4.1-0.3-5-1.3c-0.6-0.6-0.9-1.5-0.9-2.8V13.3H162.8z"/>
	<path d="M182.7,7h-5.3V2.2h5.3V7z M177.4,9.4h5.3v19.9h-5.3V9.4z"/>
	<path d="M199.6,9.4h5.6L198,29.3h-5.5l-7.1-19.9h5.8l4.1,14.7L199.6,9.4z"/>
	<path d="M220.4,9.8c1.4,0.6,2.5,1.6,3.4,2.9c0.8,1.2,1.3,2.6,1.6,4.1c0.1,0.9,0.2,2.2,0.2,3.9h-14.5c0.1,2,0.8,3.4,2.1,4.2
		c0.8,0.5,1.8,0.7,2.9,0.7c1.2,0,2.1-0.3,2.9-0.9c0.4-0.3,0.8-0.8,1.1-1.4h5.3c-0.1,1.2-0.8,2.4-1.9,3.6c-1.8,1.9-4.3,2.9-7.5,2.9
		c-2.6,0-5-0.8-7-2.4s-3-4.3-3-8c0-3.4,0.9-6.1,2.7-7.9s4.2-2.8,7.1-2.8C217.5,8.9,219,9.2,220.4,9.8z M212.6,14.3
		c-0.7,0.8-1.2,1.8-1.4,3.1h9c-0.1-1.4-0.6-2.4-1.4-3.1c-0.8-0.7-1.9-1.1-3.1-1.1C214.4,13.1,213.4,13.5,212.6,14.3z"/>
</g>
<g>
	<path d="M42.4,39.2H54c3.2,0,5.4,0.9,6.7,2.8c0.8,1.1,1.2,2.4,1.2,3.8c0,1.7-0.5,3.1-1.4,4.2c-0.5,0.6-1.2,1.1-2.2,1.6
		c1.4,0.5,2.4,1.1,3.1,1.8c1.2,1.2,1.8,2.8,1.8,4.8c0,1.7-0.5,3.3-1.6,4.7C59.9,65,57.3,66,53.8,66H42.4V39.2z M52.6,50.6
		c1.5,0,2.8-0.2,3.6-0.6c1.4-0.7,2-1.9,2-3.6c0-1.8-0.7-2.9-2.2-3.5c-0.8-0.3-2-0.5-3.6-0.5h-6.5v8.3h6.7V50.6z M53.9,62.9
		c2.2,0,3.9-0.6,4.8-1.9c0.6-0.8,0.9-1.8,0.9-3c0-1.9-0.9-3.3-2.6-4c-0.9-0.4-2.2-0.6-3.7-0.6H46v9.4L53.9,62.9L53.9,62.9z"/>
	<path d="M67,46.5h3.1v3.4c0.3-0.7,0.9-1.5,1.9-2.4s2.1-1.4,3.5-1.4c0.1,0,0.2,0,0.3,0c0.1,0,0.4,0,0.7,0.1v3.5
		c-0.2,0-0.4-0.1-0.5-0.1c-0.2,0-0.3,0-0.5,0c-1.7,0-2.9,0.5-3.8,1.6s-1.3,2.3-1.3,3.7V66H67V46.5z"/>
	<path d="M93.3,48.4c1.7,1.7,2.6,4.1,2.6,7.4c0,3.1-0.8,5.8-2.3,7.8c-1.5,2.1-3.9,3.1-7.1,3.1c-2.7,0-4.8-0.9-6.4-2.7
		c-1.6-1.8-2.4-4.3-2.4-7.3c0-3.3,0.8-5.9,2.5-7.8c1.7-1.9,3.9-2.9,6.7-2.9C89.5,45.9,91.6,46.8,93.3,48.4z M91.3,61.4
		c0.8-1.6,1.2-3.5,1.2-5.5c0-1.8-0.3-3.3-0.9-4.4c-0.9-1.8-2.5-2.7-4.7-2.7c-2,0-3.4,0.8-4.3,2.3s-1.4,3.4-1.4,5.5s0.5,3.8,1.4,5.2
		s2.3,2.1,4.3,2.1C89,63.9,90.5,63.1,91.3,61.4z"/>
	<path d="M99.6,39.2h3.2v15.6l8.4-8.3h4.2l-7.5,7.3l7.9,12.3h-4.2l-6.2-10l-2.7,2.6V66h-3.2L99.6,39.2L99.6,39.2z"/>
	<path d="M129.5,47c1.3,0.7,2.3,1.5,3,2.5s1.1,2.1,1.3,3.5c0.2,0.9,0.3,2.3,0.3,4.3h-14.2c0.1,2,0.5,3.6,1.4,4.8s2.2,1.8,4,1.8
		c1.7,0,3.1-0.6,4.1-1.7c0.6-0.7,1-1.4,1.2-2.3h3.2c-0.1,0.7-0.4,1.5-0.8,2.4c-0.5,0.9-1,1.6-1.6,2.2c-1,1-2.2,1.6-3.7,2
		c-0.8,0.2-1.7,0.3-2.7,0.3c-2.4,0-4.5-0.9-6.2-2.7c-1.7-1.8-2.5-4.3-2.5-7.4c0-3.1,0.8-5.7,2.5-7.6c1.7-2,3.9-2.9,6.6-2.9
		C126.9,46,128.2,46.4,129.5,47z M130.7,54.7c-0.1-1.4-0.4-2.6-0.9-3.4c-0.9-1.6-2.4-2.4-4.5-2.4c-1.5,0-2.8,0.5-3.8,1.6
		s-1.6,2.5-1.6,4.2C119.9,54.7,130.7,54.7,130.7,54.7z"/>
	<path d="M137.9,46.5h3.1v3.4c0.3-0.7,0.9-1.5,1.9-2.4s2.1-1.4,3.5-1.4c0.1,0,0.2,0,0.3,0s0.4,0,0.7,0.1v3.5c-0.2,0-0.4-0.1-0.5-0.1
		c-0.2,0-0.3,0-0.5,0c-1.7,0-2.9,0.5-3.8,1.6c-0.9,1.1-1.3,2.3-1.3,3.7V66H138L137.9,46.5L137.9,46.5z"/>
	<path d="M152.3,59.9c0.1,1.1,0.4,1.9,0.8,2.5c0.8,1.1,2.3,1.6,4.4,1.6c1.2,0,2.3-0.3,3.3-0.8c0.9-0.5,1.4-1.3,1.4-2.5
		c0-0.8-0.4-1.5-1.1-1.9c-0.5-0.3-1.4-0.6-2.9-0.9l-2.7-0.7c-1.7-0.4-2.9-0.9-3.7-1.4c-1.4-0.9-2.2-2.1-2.2-3.7c0-1.9,0.7-3.3,2-4.5
		c1.3-1.1,3.2-1.7,5.4-1.7c3,0,5.1,0.9,6.5,2.6c0.8,1.1,1.2,2.3,1.2,3.5h-3.1c-0.1-0.7-0.3-1.4-0.8-2c-0.8-0.9-2.1-1.3-4-1.3
		c-1.3,0-2.2,0.2-2.9,0.7s-1,1.1-1,1.9c0,0.8,0.4,1.5,1.3,2c0.5,0.3,1.2,0.6,2.2,0.8l2.2,0.5c2.4,0.6,4,1.1,4.8,1.7
		c1.3,0.8,1.9,2.2,1.9,4c0,1.7-0.7,3.2-2,4.5c-1.3,1.3-3.4,1.9-6.1,1.9c-2.9,0-5-0.7-6.3-2c-1.2-1.3-1.9-3-2-4.9h3.4L152.3,59.9
		L152.3,59.9z"/>
</g>
<g>
	
		<linearGradient id="SVGID_1_" gradientUnits="userSpaceOnUse" x1="3099.1697" y1="773" x2="3127.7034" y2="773" gradientTransform="matrix(-1 0 0 1 3130.0986 -722)">
		<stop  offset="0" style="stop-color:#464646"/>
		<stop  offset="1" style="stop-color:#000000"/>
	</linearGradient>
	<polygon class="st0" points="30.9,66.7 2.4,66.7 2.4,35.3 	"/>
	<circle class="st1" cx="26.9" cy="43" r="8.5"/>
	<polygon class="st1" points="30.9,2.2 2.4,35.3 2.4,66.7 	"/>
</g>
</svg>
