<?xml version="1.0" encoding="utf-8"?>
<!-- Generator: Adobe Illustrator 27.9.0, SVG Export Plug-In . SVG Version: 6.00 Build 0)  -->
<svg version="1.1" id="Layer_2_00000129184612219719801430000011030971328222106014_"
	 xmlns="http://www.w3.org/2000/svg" xmlns:xlink="http://www.w3.org/1999/xlink" x="0px" y="0px" viewBox="0 0 452 74"
	 style="enable-background:new 0 0 452 74;" xml:space="preserve">
<style type="text/css">
	.st0{fill:#FFFFFF;}
	.st1{fill:url(#SVGID_1_);}
</style>
<g>
	<path class="st0" d="M56.1,70.4h-7.2V35.5h7.2V70.4z"/>
	<path class="st0" d="M83.2,46.1c1.7,1.4,2.5,3.7,2.5,6.9v17.4h-6.9V54.7c0-1.4-0.2-2.4-0.5-3.1c-0.7-1.3-1.9-2-3.8-2
		c-2.3,0-3.8,1-4.7,2.9c-0.4,1-0.7,2.3-0.7,3.9v14h-6.7V44.7h6.5v3.8c0.9-1.3,1.7-2.3,2.4-2.9c1.4-1,3.1-1.6,5.3-1.6
		C79.3,44,81.5,44.7,83.2,46.1z"/>
	<path class="st0" d="M88.9,49.7v-4.8h3.6v-7.2h6.7v7.2h4.2v4.8h-4.2v13.6c0,1.1,0.1,1.7,0.4,2s1.1,0.4,2.5,0.4c0.2,0,0.4,0,0.7,0
		c0.2,0,0.5,0,0.7,0v5l-3.2,0.1c-3.2,0.1-5.4-0.4-6.5-1.7c-0.8-0.8-1.1-2-1.1-3.6V49.7H88.9z"/>
	<path class="st0" d="M124.1,45.2c1.8,0.8,3.3,2.1,4.5,3.8c1.1,1.5,1.7,3.3,2.1,5.3c0.2,1.2,0.3,2.9,0.2,5.1h-18.8
		c0.1,2.6,1,4.4,2.7,5.4c1,0.6,2.3,1,3.7,1c1.5,0,2.8-0.4,3.7-1.2c0.5-0.4,1-1,1.4-1.8h6.9c-0.2,1.5-1,3.1-2.5,4.7
		c-2.3,2.5-5.5,3.8-9.7,3.8c-3.4,0-6.5-1.1-9.1-3.2s-3.9-5.6-3.9-10.3c0-4.5,1.2-7.9,3.6-10.3c2.4-2.4,5.4-3.6,9.2-3.6
		C120.3,43.9,122.3,44.4,124.1,45.2z M114.1,51c-1,1-1.6,2.3-1.8,4h11.6c-0.1-1.8-0.7-3.1-1.8-4.1c-1.1-0.9-2.4-1.4-4-1.4
		C116.3,49.5,115,50,114.1,51z"/>
	<path class="st0" d="M149.1,44c0.1,0,0.3,0,0.6,0v7c-0.4,0-0.8-0.1-1.1-0.1s-0.6,0-0.8,0c-2.7,0-4.5,0.9-5.5,2.6
		c-0.5,1-0.8,2.5-0.8,4.6v12.3h-6.8V44.6h6.4v4.5c1-1.7,1.9-2.9,2.7-3.5c1.3-1.1,2.9-1.6,4.9-1.6C149,44,149.1,44,149.1,44z"/>
	<path class="st0" d="M163.8,54.7c1.3-0.2,2.2-0.4,2.7-0.6c1-0.4,1.5-1,1.5-1.9c0-1.1-0.4-1.8-1.1-2.2c-0.7-0.4-1.8-0.6-3.3-0.6
		c-1.6,0-2.8,0.4-3.4,1.2c-0.5,0.6-0.8,1.4-1,2.4h-6.5c0.1-2.3,0.8-4.1,1.9-5.6c1.8-2.3,4.9-3.4,9.2-3.4c2.8,0,5.4,0.6,7.6,1.7
		c2.2,1.1,3.3,3.2,3.3,6.3v11.8c0,0.8,0,1.8,0,3c0,0.9,0.2,1.5,0.4,1.8s0.6,0.6,1,0.8v1h-7.3c-0.2-0.5-0.3-1-0.4-1.5s-0.1-1-0.2-1.6
		c-0.9,1-2,1.9-3.2,2.6c-1.5,0.8-3.1,1.3-5,1.3c-2.3,0-4.3-0.7-5.8-2s-2.3-3.2-2.3-5.7c0-3.2,1.2-5.5,3.7-6.9c1.4-0.8,3.3-1.3,6-1.7
		L163.8,54.7z M167.9,57.9c-0.4,0.3-0.9,0.5-1.3,0.7c-0.4,0.2-1,0.3-1.8,0.5l-1.5,0.3c-1.4,0.3-2.5,0.6-3.1,0.9
		c-1.1,0.6-1.6,1.6-1.6,2.9c0,1.2,0.3,2,1,2.5c0.6,0.5,1.4,0.8,2.4,0.8c1.5,0,2.8-0.4,4.1-1.3c1.2-0.9,1.9-2.4,1.9-4.7L167.9,57.9
		L167.9,57.9z"/>
	<path class="st0" d="M195.9,53.9c-0.1-1-0.4-1.8-1-2.6c-0.8-1-1.9-1.6-3.5-1.6c-2.3,0-3.8,1.1-4.7,3.4c-0.4,1.2-0.7,2.8-0.7,4.8
		c0,1.9,0.2,3.4,0.7,4.6c0.8,2.1,2.3,3.2,4.6,3.2c1.6,0,2.7-0.4,3.4-1.3s1.1-2,1.2-3.3h6.9c-0.2,2.1-0.9,4-2.2,5.8
		c-2.1,2.9-5.2,4.4-9.4,4.4s-7.2-1.2-9.2-3.7s-3-5.6-3-9.6c0-4.4,1.1-7.9,3.2-10.3c2.2-2.5,5.1-3.7,9-3.7c3.2,0,5.9,0.7,7.9,2.2
		s3.3,4,3.7,7.7C202.8,53.9,195.9,53.9,195.9,53.9z"/>
	<path class="st0" d="M205,49.7v-4.8h3.6v-7.2h6.7v7.2h4.2v4.8h-4.2v13.6c0,1.1,0.1,1.7,0.4,2c0.3,0.3,1.1,0.4,2.5,0.4
		c0.2,0,0.4,0,0.7,0c0.2,0,0.5,0,0.7,0v5l-3.2,0.1c-3.2,0.1-5.4-0.4-6.5-1.7c-0.8-0.8-1.1-2-1.1-3.6V49.7H205z"/>
	<path class="st0" d="M230.7,41.6h-6.8v-6.2h6.8V41.6z M223.9,44.6h6.8v25.8h-6.8V44.6z"/>
	<path class="st0" d="M252.6,44.6h7.2l-9.3,25.8h-7.1l-9.2-25.8h7.6l5.4,19L252.6,44.6z"/>
	<path class="st0" d="M279.6,45.2c1.8,0.8,3.3,2.1,4.5,3.8c1.1,1.5,1.7,3.3,2.1,5.3c0.2,1.2,0.3,2.9,0.2,5.1h-18.8
		c0.1,2.6,1,4.4,2.7,5.4c1,0.6,2.3,1,3.7,1c1.5,0,2.8-0.4,3.7-1.2c0.5-0.4,1-1,1.4-1.8h6.9c-0.2,1.5-1,3.1-2.5,4.7
		c-2.3,2.5-5.5,3.8-9.7,3.8c-3.4,0-6.5-1.1-9.1-3.2s-3.9-5.6-3.9-10.3c0-4.5,1.2-7.9,3.6-10.3c2.4-2.4,5.4-3.6,9.2-3.6
		C275.7,43.9,277.8,44.4,279.6,45.2z M269.5,51c-1,1-1.6,2.3-1.8,4h11.6c-0.1-1.8-0.7-3.1-1.8-4.1c-1.1-0.9-2.4-1.4-4-1.4
		C271.8,49.5,270.4,50,269.5,51z"/>
	<path class="st0" d="M290.8,35.7h15c4.1,0,7,1.2,8.7,3.6c1,1.4,1.5,3.1,1.5,5c0,2.2-0.6,4-1.9,5.4c-0.6,0.7-1.6,1.4-2.8,2
		c1.8,0.7,3.1,1.4,4,2.3c1.6,1.5,2.3,3.6,2.3,6.3c0,2.2-0.7,4.3-2.1,6.1c-2.1,2.7-5.5,4.1-10.1,4.1h-14.8V35.7H290.8z M304.1,50.4
		c2,0,3.6-0.3,4.7-0.8c1.8-0.9,2.6-2.4,2.6-4.7s-0.9-3.8-2.8-4.6c-1.1-0.4-2.6-0.7-4.7-0.7h-8.5v10.8H304.1z M305.6,66.4
		c2.9,0,5-0.8,6.2-2.5c0.8-1.1,1.2-2.3,1.2-3.8c0-2.5-1.1-4.2-3.4-5.2c-1.2-0.5-2.8-0.7-4.8-0.7h-9.4v12.2H305.6z"/>
	<path class="st0" d="M322.7,45.1h4v4.4c0.3-0.9,1.1-1.9,2.4-3.1c1.3-1.2,2.8-1.8,4.5-1.8c0.1,0,0.2,0,0.4,0c0.2,0,0.5,0,1,0.1v4.5
		c-0.3,0-0.5-0.1-0.7-0.1s-0.4,0-0.7,0c-2.1,0-3.8,0.7-4.9,2.1c-1.2,1.4-1.7,3-1.7,4.8v14.6h-4.3L322.7,45.1L322.7,45.1z"/>
	<path class="st0" d="M356.8,47.6c2.2,2.2,3.4,5.4,3.4,9.6c0,4.1-1,7.5-3,10.1c-2,2.7-5,4-9.2,4c-3.5,0-6.2-1.2-8.2-3.5
		c-2-2.4-3.1-5.5-3.1-9.5c0-4.3,1.1-7.6,3.2-10.2c2.1-2.5,5-3.8,8.6-3.8C351.8,44.4,354.6,45.4,356.8,47.6z M354.2,64.5
		c1-2.1,1.6-4.5,1.6-7.1c0-2.4-0.4-4.3-1.1-5.8c-1.2-2.3-3.2-3.5-6.1-3.5c-2.6,0-4.4,1-5.6,3s-1.8,4.4-1.8,7.2
		c0,2.7,0.6,4.9,1.8,6.7c1.2,1.8,3,2.7,5.6,2.7S353.1,66.6,354.2,64.5z"/>
	<path class="st0" d="M365,35.7h4.1v20.2L380,45.1h5.4l-9.7,9.4L386,70.4h-5.4l-8-12.9l-3.5,3.4v9.5H365V35.7z"/>
	<path class="st0" d="M403.7,45.8c1.7,0.8,3,1.9,3.8,3.3c0.8,1.3,1.4,2.8,1.7,4.5c0.3,1.2,0.4,3,0.4,5.6h-18.4
		c0.1,2.6,0.7,4.6,1.8,6.2c1.1,1.6,2.9,2.3,5.2,2.3c2.2,0,4-0.7,5.3-2.2c0.7-0.9,1.3-1.8,1.6-3h4.2c-0.1,0.9-0.5,2-1.1,3.1
		s-1.3,2.1-2.1,2.8c-1.3,1.3-2.9,2.1-4.8,2.6c-1,0.3-2.2,0.4-3.5,0.4c-3.1,0-5.8-1.1-8-3.4s-3.3-5.5-3.3-9.6s1.1-7.4,3.3-9.9
		c2.2-2.5,5.1-3.8,8.6-3.8C400.3,44.5,402,44.9,403.7,45.8z M405.2,55.7c-0.2-1.8-0.6-3.3-1.2-4.4c-1.2-2.1-3.1-3.1-5.8-3.1
		c-1.9,0-3.6,0.7-4.9,2.1c-1.3,1.4-2,3.2-2.1,5.4H405.2z"/>
	<path class="st0" d="M414.6,45.1h4v4.4c0.3-0.9,1.1-1.9,2.4-3.1c1.3-1.2,2.8-1.8,4.5-1.8c0.1,0,0.2,0,0.4,0c0.2,0,0.5,0,1,0.1v4.5
		c-0.3,0-0.5-0.1-0.7-0.1s-0.4,0-0.7,0c-2.1,0-3.8,0.7-4.9,2.1c-1.2,1.4-1.7,3-1.7,4.8v14.6h-4.3L414.6,45.1L414.6,45.1z"/>
	<path class="st0" d="M433.2,62.5c0.1,1.4,0.5,2.5,1.1,3.3c1.1,1.4,3,2.1,5.7,2.1c1.6,0,3-0.3,4.3-1c1.2-0.7,1.8-1.7,1.8-3.2
		c0-1.1-0.5-1.9-1.5-2.5c-0.6-0.3-1.9-0.7-3.7-1.2l-3.4-0.9c-2.2-0.5-3.8-1.1-4.9-1.8c-1.9-1.2-2.8-2.7-2.8-4.8
		c0-2.4,0.9-4.3,2.6-5.8s4.1-2.2,7.1-2.2c3.9,0,6.7,1.1,8.4,3.4c1.1,1.4,1.6,3,1.6,4.6h-4c-0.1-1-0.4-1.8-1-2.6
		c-1-1.1-2.7-1.7-5.2-1.7c-1.6,0-2.9,0.3-3.7,0.9c-0.8,0.6-1.3,1.4-1.3,2.4c0,1.1,0.6,2,1.7,2.6c0.6,0.4,1.6,0.7,2.8,1l2.9,0.7
		c3.1,0.7,5.2,1.5,6.3,2.2c1.7,1.1,2.5,2.8,2.5,5.1s-0.9,4.2-2.6,5.8s-4.4,2.5-7.9,2.5c-3.8,0-6.5-0.9-8.1-2.6s-2.4-3.8-2.6-6.4
		L433.2,62.5L433.2,62.5L433.2,62.5z"/>
</g>
<g>
	
		<linearGradient id="SVGID_1_" gradientUnits="userSpaceOnUse" x1="3390.9446" y1="-694.8" x2="3419.4446" y2="-694.8" gradientTransform="matrix(-1 0 0 -1 3420.2446 -640)">
		<stop  offset="0" style="stop-color:#FFFFFF"/>
		<stop  offset="1" style="stop-color:#E6E7E8"/>
	</linearGradient>
	<polygon class="st1" points="29.3,70.5 0.8,70.5 0.8,39.1 	"/>
	<circle class="st0" cx="25.3" cy="46.8" r="8.5"/>
	<polygon class="st0" points="29.3,6 0.8,39.1 0.8,70.5 	"/>
</g>
<g>
	<path class="st0" d="M52.6,27.4v-4.5c0-0.7-0.1-1.5-0.2-2.2c1.9,0.2,5.2,0.3,9.9,0.3s7.8-0.1,9.6-0.3c-0.1,0.7-0.2,1.5-0.2,2.2v4.5
		c1.3,0,2.4-0.1,3.5-0.2v2.5c-1.4-0.2-5.8-0.3-13.1-0.3s-11.7,0.1-13.2,0.3v-2.5C50.1,27.3,51.3,27.4,52.6,27.4z M56,7.1
		c-1.6,0-3.3,0.1-4.9,0.3V4.7C53.5,4.9,56.8,5,60.8,5s7.3-0.1,9.8-0.3c-0.4,1.2-0.8,2.9-1.2,5.2c2.3,0,3.6,0,4-0.1
		c-0.6,5.3-1.1,8.3-1.5,9s-1.6,1.1-3.4,1.2c0-0.9-0.3-1.8-0.8-2.6c0.6,0.1,1,0.1,1.3,0.1s0.6,0,0.8-0.2c0.2-0.1,0.3-0.3,0.4-0.5
		s0.2-0.9,0.4-2s0.3-2.1,0.4-3c-1.5,0-2.9,0.1-4.1,0.2l1-5h-9.3c-0.1,0.9-0.3,2-0.5,3h7.8c-0.7,2.2-1.6,4.1-2.8,5.6
		c1.7,0.8,3,1.5,3.8,2l-1.4,2c-1.1-0.9-2.3-1.7-3.8-2.5c-1.5,1.4-3,2.5-4.6,3.2c-0.5-0.6-1.1-1.2-1.9-1.6c1.9-0.7,3.4-1.5,4.6-2.5
		c-0.8-0.4-1.7-0.8-2.7-1.2l1-1.5l3,1.3c0.8-0.9,1.4-1.9,1.7-2.8h-5.4c-0.6,1.5-1.4,2.9-2.6,4.4c-1.1,1.5-2.3,2.6-3.5,3.4
		c-0.6-0.7-1.4-1.1-2.1-1.4c1.2-0.7,2.3-1.7,3.4-2.8c1-1.2,1.8-2.4,2.3-3.7S55.7,9,56,7.1z M58.2,22.8h-3.4v4.6h3.4V22.8z
		 M63.9,22.8h-3.5v4.6h3.5V22.8z M69.4,27.4v-4.6h-3.5v4.6H69.4z"/>
	<path class="st0" d="M84.4,25.1c0.5,0.1,1.7,0.6,3.5,1.5c1.2,0.6,3.4,0.8,6.6,0.8s6.9-0.2,11.2-0.7c-0.4,1.1-0.6,2.1-0.7,3.2h-5
		c-3,0-5.3-0.1-6.8-0.2c-1.6-0.1-2.8-0.3-3.8-0.6c-1-0.3-2.2-0.7-3.6-1.3c-1-0.4-1.7-0.6-2.2-0.6s-1,0.2-1.5,0.6s-1.1,1.1-1.9,2
		c-0.6-0.8-1.2-1.5-1.8-1.9c1.6-1.7,2.8-2.7,3.6-2.9v-9.4c-1.8,0-2.8,0-3.2,0.1v-2.5c0.9,0.1,1.8,0.2,2.9,0.2s2-0.1,3-0.2
		c-0.2,1-0.3,2.2-0.3,3.6C84.4,16.8,84.4,25.1,84.4,25.1z M84.7,9.7l-2.8,0.7c-0.2-1.8-0.7-3.6-1.5-5.3l2.8-0.7
		C83.7,6.3,84.2,8,84.7,9.7z M94.3,6.7c-3.1,0.2-5.1,0.3-6,0.3c-0.2-0.8-0.4-1.5-0.7-2.1c0.9,0,1.7,0.1,2.5,0.1
		c2.1,0,4.3-0.1,6.6-0.4s4.2-0.6,5.7-1c0.5,1.1,1,1.8,1.4,2.3c0,0.1,0,0.2,0,0.3s-0.2,0.1-0.5,0.1c-0.3-0.1-0.7-0.1-1.2-0.1
		s-1.3,0-2.6,0.1s-2.3,0.2-3.2,0.2v2.4c3.8,0,6.7-0.1,8.6-0.2V11c-1.2-0.1-3.5-0.2-6.8-0.2c1.5,2,4.1,3.1,7.8,3.3
		c-0.7,0.7-1.1,1.6-1.2,2.8c-4.1-1-6.9-3-8.3-6.1h-0.1V12c0,1.7,0.1,3.1,0.2,4H94c0.1-1,0.2-2.3,0.2-4v-1.2H94
		c-1.9,2.9-4.3,4.8-7.3,5.9c-0.3-0.5-0.9-1.1-1.7-1.7c2.6-0.7,5-2.1,7.2-4.2c-2.6,0-4.6,0.1-6.1,0.2V8.7c2.3,0.1,5,0.2,8,0.2V6.7
		H94.3z M91.8,18.4c-1.4,0-2.5,0.1-3.3,0.2v-2.2c1.1,0.1,3.1,0.1,5.8,0.1c2.8,0,4.7,0,5.7-0.1c-0.2,0.3-0.4,0.7-0.5,1l-0.7,2.2h3.8
		c0.3,0,0.7-0.1,1.2-0.2c-0.3,0.8-0.8,2.3-1.2,4.3c-0.2,0.8-0.7,1.5-1.7,2s-2.3,0.8-4.1,1.1c-0.2-0.8-0.6-1.6-1.2-2.5
		c2.1,0,3.5-0.2,4.1-0.6s1-1.1,1.1-2.2h-2.9c-0.7,0-1.3,0-1.7,0.1l0.8-3.1h-3.1c-0.6,3.5-2.3,6.1-5.1,7.6c-0.4-0.6-1.1-1.3-1.9-1.8
		c1.6-0.6,2.8-1.4,3.4-2.2C91,21.1,91.5,19.9,91.8,18.4z"/>
	<path class="st0" d="M118.5,9.8c-0.9-0.1-2.5-0.2-4.8-0.2s-4,0.1-4.9,0.2V7.3c0.9,0.1,2.5,0.2,4.7,0.2s3.9-0.1,5-0.2
		C118.5,7.3,118.5,9.8,118.5,9.8z M117.8,13.7c-0.8-0.1-2.2-0.2-4.1-0.2s-3.3,0.1-4.1,0.2v-2.2c0.8,0.1,2.2,0.2,4.1,0.2
		s3.3,0,4.2-0.2L117.8,13.7L117.8,13.7z M117.8,17.8c-0.8-0.1-2.2-0.2-4.1-0.2s-3.3,0.1-4.1,0.2v-2.4c0.8,0.1,2.2,0.2,4.1,0.2
		s3.3-0.1,4.1-0.2V17.8z M115.9,27.8H112v2.4h-2.3c0.1-1.3,0.2-2.6,0.2-4v-4.3c0-0.8,0-1.6-0.1-2.4c0.5,0.1,1.9,0.1,4.2,0.1
		s3.6,0,4.1-0.1c-0.1,0.5-0.1,1.3-0.1,2.4v3.5c0,1.5,0.1,2.8,0.3,4h-2.4C115.9,29.4,115.9,27.8,115.9,27.8z M115.7,6.6l-2.5,0.6
		c-0.2-1.3-0.6-2.4-1.3-3.5l2.5-0.6C114.9,4.4,115.4,5.6,115.7,6.6z M112,25.9h3.9v-4.3H112V25.9z M124.8,11.1h4.4
		c-0.8-1.9-1.4-4.3-1.8-7.4h2.3c0,0.3-0.1,0.7-0.1,1.1s0,1,0.2,1.6c1.4-0.8,2.5-1.7,3.4-2.7c0.5,0.5,0.9,1,1.2,1.3s0.5,0.5,0.5,0.7
		c0,0.1-0.1,0.2-0.4,0.3c-0.3,0.1-0.8,0.3-1.7,0.7c-0.9,0.4-1.7,0.8-2.6,1.3c0.3,0.9,0.6,1.6,1,2.3c1.9-1.1,3.1-1.9,3.7-2.5
		c0.4,0.5,0.8,0.9,1.1,1.2s0.5,0.6,0.5,0.7c0,0.1-0.1,0.2-0.4,0.3c-1.1,0.3-2.4,0.9-4,1.8c1,1.5,2.4,2.6,4.3,3.2
		c-0.8,0.7-1.4,1.5-1.7,2.2c-0.6-0.4-1.2-0.8-1.7-1.2v3c0,1.3,0.1,2.4,0.2,3.4c-1.8-0.1-3.8-0.1-6-0.1s-4.2,0-6,0.1
		c0.1-1,0.2-2.1,0.2-3.4v-3.4c-0.2,0.2-0.8,0.7-1.6,1.5c-0.5-0.8-1.1-1.4-1.9-1.9c1.1-0.4,2.4-1.4,3.7-3.2c-1-1-1.8-1.6-2.5-2
		l1.6-1.6c0.5,0.4,1.2,1,2.1,1.9c0.7-1.3,1.2-2.5,1.4-3.5h-1.7c-1.1,0-2.1,0-3.1,0.1V4.7c0.4,0.1,1.5,0.1,3.3,0.1s3.3,0,4.4-0.1
		C126.5,7.3,125.7,9.4,124.8,11.1z M130.2,27.3c2,0,3.5-0.1,4.6-0.2v2.5c-2.1-0.1-4.6-0.2-7.6-0.2s-5.5,0.1-7.6,0.2v-2.5
		c0.9,0.2,2.3,0.2,4,0.2h4.5c0.9-2,1.5-3.6,1.6-4.7c0.8,0.4,1.8,0.8,2.7,0.9c0.2,0,0.3,0.1,0.3,0.2s-0.1,0.2-0.2,0.3
		C132,24.3,131.2,25.4,130.2,27.3z M130.1,12.9h-6.5c-0.6,0.8-1.3,1.7-2.2,2.6h10.9C131.4,14.7,130.7,13.8,130.1,12.9z M125.5,26.3
		l-2.3,0.7c-0.2-1.3-0.5-2.4-1-3.4l2.4-0.6C124.9,24,125.2,25.1,125.5,26.3z M130.7,20.4v-3h-7.2v3H130.7z"/>
	<path class="st0" d="M145.5,21.1c-1.2,0.9-2.7,1.7-4.4,2.5c-0.4-0.8-1.1-1.5-2.2-2.2c3.7-1.2,6.5-2.8,8.2-4.7
		c-2.6,0.1-5,0.2-7.1,0.3v-2.4c2,0.2,4.9,0.2,8.6,0.2c0.5-0.8,1-1.8,1.4-2.9c-3.4-0.1-6.1,0-8.3,0.2V9.8c1.5,0.1,4.4,0.2,8.9,0.2
		c0.6-2.6,0.8-4.8,0.7-6.7c1,0.4,2.1,0.5,3.3,0.5c0.3,0,0.4,0.1,0.4,0.2s-0.1,0.2-0.2,0.3c-0.2,0.1-0.3,0.3-0.4,0.5
		c-0.1,0.2-0.2,0.7-0.4,1.3c-0.2,0.7-0.5,1.9-1,3.7c6,0,9.8-0.1,11.2-0.2V12c-1.8-0.2-3.9-0.2-6.3-0.2h-5.5
		c-0.3,0.9-0.7,1.9-1.3,2.9h5.3c4.3,0,7.4-0.1,9.1-0.2v2.4c-1.7-0.2-4.1-0.3-7.2-0.3c1.7,2.6,4.6,4,8.7,4.2c-0.8,0.7-1.3,1.7-1.7,3
		c-1.8-0.4-3.5-1.2-5.1-2.3l-0.4,5c-0.1,1.2-0.2,2-0.4,2.5s-0.6,0.8-1.3,1s-2,0.5-3.8,0.7c0-1.5-0.3-2.4-0.9-2.9
		c0.9,0.2,1.6,0.3,2.2,0.3s1-0.1,1.3-0.4c0.3-0.2,0.5-0.8,0.6-1.7l0.3-3.5h-5.7c-0.1,2.3-0.8,4.1-2.2,5.4c-1.4,1.2-3.4,2.3-6,3.1
		c0-0.3-0.2-0.7-0.6-1.2c-0.4-0.5-0.8-0.9-1.2-1.2c2.6-0.5,4.5-1.2,5.7-2.1c1.1-0.9,1.8-2.3,1.9-4c-2,0.1-3.4,0.2-4.2,0.3
		L145.5,21.1L145.5,21.1z M147.9,7.6l-2.2,1.8c-1.1-1.4-2.1-2.5-3-3.1l2.2-1.7C145.5,5.4,146.5,6.4,147.9,7.6z M150,16.8
		c-1.1,1.4-2.4,2.7-3.9,3.9h13c-1.3-1.2-2.3-2.5-2.9-3.9H150z M159.9,4c0.4,0.3,0.9,0.6,1.6,0.9c0.7,0.3,1.1,0.5,1.3,0.6
		s0.3,0.1,0.3,0.2s-0.1,0.2-0.4,0.2C162.5,6,162,6.3,161.3,7s-1.4,1.5-2,2.4c-0.8-0.5-1.7-0.8-2.7-1c0.6-0.4,1.2-1.1,1.9-1.9
		C159.2,5.6,159.6,4.8,159.9,4z"/>
</g>
</svg>
