<?xml version="1.0" encoding="utf-8"?>
<!-- Generator: Adobe Illustrator 27.9.0, SVG Export Plug-In . SVG Version: 6.00 Build 0)  -->
<svg version="1.1" id="Layer_2_00000129184612219719801430000011030971328222106014_"
	 xmlns="http://www.w3.org/2000/svg" xmlns:xlink="http://www.w3.org/1999/xlink" x="0px" y="0px" viewBox="0 0 452 74"
	 style="enable-background:new 0 0 452 74;" xml:space="preserve">
<style type="text/css">
	.st0{fill:#FFFFFF;}
	.st1{fill:url(#SVGID_1_);}
	.st2{fill:#D81222;}
	.st3{fill:url(#SVGID_00000151541209907430559210000004554255529348832168_);}
</style>
<g>
	<path class="st0" d="M56.1,70.4h-7.2V35.5h7.2V70.4z"/>
	<path class="st0" d="M83.2,46.1c1.7,1.4,2.5,3.7,2.5,6.9v17.4h-6.9V54.7c0-1.4-0.2-2.4-0.5-3.1c-0.7-1.3-1.9-2-3.8-2
		c-2.3,0-3.8,1-4.7,2.9c-0.4,1-0.7,2.3-0.7,3.9v14h-6.7V44.7h6.5v3.8c0.9-1.3,1.7-2.3,2.4-2.9c1.4-1,3.1-1.6,5.3-1.6
		C79.3,44,81.5,44.7,83.2,46.1z"/>
	<path class="st0" d="M88.9,49.7v-4.8h3.6v-7.2h6.7v7.2h4.2v4.8h-4.2v13.6c0,1.1,0.1,1.7,0.4,2s1.1,0.4,2.5,0.4c0.2,0,0.4,0,0.7,0
		c0.2,0,0.5,0,0.7,0v5l-3.2,0.1c-3.2,0.1-5.4-0.4-6.5-1.7c-0.8-0.8-1.1-2-1.1-3.6V49.7H88.9z"/>
	<path class="st0" d="M124.1,45.2c1.8,0.8,3.3,2.1,4.5,3.8c1.1,1.5,1.7,3.3,2.1,5.3c0.2,1.2,0.3,2.9,0.2,5.1h-18.8
		c0.1,2.6,1,4.4,2.7,5.4c1,0.6,2.3,1,3.7,1c1.5,0,2.8-0.4,3.7-1.2c0.5-0.4,1-1,1.4-1.8h6.9c-0.2,1.5-1,3.1-2.5,4.7
		c-2.3,2.5-5.5,3.8-9.7,3.8c-3.4,0-6.5-1.1-9.1-3.2s-3.9-5.6-3.9-10.3c0-4.5,1.2-7.9,3.6-10.3c2.4-2.4,5.4-3.6,9.2-3.6
		C120.3,43.9,122.3,44.4,124.1,45.2z M114.1,51c-1,1-1.6,2.3-1.8,4h11.6c-0.1-1.8-0.7-3.1-1.8-4.1c-1.1-0.9-2.4-1.4-4-1.4
		C116.3,49.5,115,50,114.1,51z"/>
	<path class="st0" d="M149.1,44c0.1,0,0.3,0,0.6,0v7c-0.4,0-0.8-0.1-1.1-0.1s-0.6,0-0.8,0c-2.7,0-4.5,0.9-5.5,2.6
		c-0.5,1-0.8,2.5-0.8,4.6v12.3h-6.8V44.6h6.4v4.5c1-1.7,1.9-2.9,2.7-3.5c1.3-1.1,2.9-1.6,4.9-1.6C149,44,149.1,44,149.1,44z"/>
	<path class="st0" d="M163.8,54.7c1.3-0.2,2.2-0.4,2.7-0.6c1-0.4,1.5-1,1.5-1.9c0-1.1-0.4-1.8-1.1-2.2c-0.7-0.4-1.8-0.6-3.3-0.6
		c-1.6,0-2.8,0.4-3.4,1.2c-0.5,0.6-0.8,1.4-1,2.4h-6.5c0.1-2.3,0.8-4.1,1.9-5.6c1.8-2.3,4.9-3.4,9.2-3.4c2.8,0,5.4,0.6,7.6,1.7
		c2.2,1.1,3.3,3.2,3.3,6.3v11.8c0,0.8,0,1.8,0,3c0,0.9,0.2,1.5,0.4,1.8s0.6,0.6,1,0.8v1h-7.3c-0.2-0.5-0.3-1-0.4-1.5s-0.1-1-0.2-1.6
		c-0.9,1-2,1.9-3.2,2.6c-1.5,0.8-3.1,1.3-5,1.3c-2.3,0-4.3-0.7-5.8-2s-2.3-3.2-2.3-5.7c0-3.2,1.2-5.5,3.7-6.9c1.4-0.8,3.3-1.3,6-1.7
		L163.8,54.7z M167.9,57.9c-0.4,0.3-0.9,0.5-1.3,0.7c-0.4,0.2-1,0.3-1.8,0.5l-1.5,0.3c-1.4,0.3-2.5,0.6-3.1,0.9
		c-1.1,0.6-1.6,1.6-1.6,2.9c0,1.2,0.3,2,1,2.5c0.6,0.5,1.4,0.8,2.4,0.8c1.5,0,2.8-0.4,4.1-1.3c1.2-0.9,1.9-2.4,1.9-4.7L167.9,57.9
		L167.9,57.9z"/>
	<path class="st0" d="M195.9,53.9c-0.1-1-0.4-1.8-1-2.6c-0.8-1-1.9-1.6-3.5-1.6c-2.3,0-3.8,1.1-4.7,3.4c-0.4,1.2-0.7,2.8-0.7,4.8
		c0,1.9,0.2,3.4,0.7,4.6c0.8,2.1,2.3,3.2,4.6,3.2c1.6,0,2.7-0.4,3.4-1.3s1.1-2,1.2-3.3h6.9c-0.2,2.1-0.9,4-2.2,5.8
		c-2.1,2.9-5.2,4.4-9.4,4.4s-7.2-1.2-9.2-3.7s-3-5.6-3-9.6c0-4.4,1.1-7.9,3.2-10.3c2.2-2.5,5.1-3.7,9-3.7c3.2,0,5.9,0.7,7.9,2.2
		s3.3,4,3.7,7.7C202.8,53.9,195.9,53.9,195.9,53.9z"/>
	<path class="st0" d="M205,49.7v-4.8h3.6v-7.2h6.7v7.2h4.2v4.8h-4.2v13.6c0,1.1,0.1,1.7,0.4,2c0.3,0.3,1.1,0.4,2.5,0.4
		c0.2,0,0.4,0,0.7,0c0.2,0,0.5,0,0.7,0v5l-3.2,0.1c-3.2,0.1-5.4-0.4-6.5-1.7c-0.8-0.8-1.1-2-1.1-3.6V49.7H205z"/>
	<path class="st0" d="M230.7,41.6h-6.8v-6.2h6.8V41.6z M223.9,44.6h6.8v25.8h-6.8V44.6z"/>
	<path class="st0" d="M252.6,44.6h7.2l-9.3,25.8h-7.1l-9.2-25.8h7.6l5.4,19L252.6,44.6z"/>
	<path class="st0" d="M279.6,45.2c1.8,0.8,3.3,2.1,4.5,3.8c1.1,1.5,1.7,3.3,2.1,5.3c0.2,1.2,0.3,2.9,0.2,5.1h-18.8
		c0.1,2.6,1,4.4,2.7,5.4c1,0.6,2.3,1,3.7,1c1.5,0,2.8-0.4,3.7-1.2c0.5-0.4,1-1,1.4-1.8h6.9c-0.2,1.5-1,3.1-2.5,4.7
		c-2.3,2.5-5.5,3.8-9.7,3.8c-3.4,0-6.5-1.1-9.1-3.2s-3.9-5.6-3.9-10.3c0-4.5,1.2-7.9,3.6-10.3c2.4-2.4,5.4-3.6,9.2-3.6
		C275.7,43.9,277.8,44.4,279.6,45.2z M269.5,51c-1,1-1.6,2.3-1.8,4h11.6c-0.1-1.8-0.7-3.1-1.8-4.1c-1.1-0.9-2.4-1.4-4-1.4
		C271.8,49.5,270.4,50,269.5,51z"/>
	<path class="st0" d="M290.8,35.7h15c4.1,0,7,1.2,8.7,3.6c1,1.4,1.5,3.1,1.5,5c0,2.2-0.6,4-1.9,5.4c-0.6,0.7-1.6,1.4-2.8,2
		c1.8,0.7,3.1,1.4,4,2.3c1.6,1.5,2.3,3.6,2.3,6.3c0,2.2-0.7,4.3-2.1,6.1c-2.1,2.7-5.5,4.1-10.1,4.1h-14.8V35.7H290.8z M304.1,50.4
		c2,0,3.6-0.3,4.7-0.8c1.8-0.9,2.6-2.4,2.6-4.7s-0.9-3.8-2.8-4.6c-1.1-0.4-2.6-0.7-4.7-0.7h-8.5v10.8H304.1z M305.6,66.4
		c2.9,0,5-0.8,6.2-2.5c0.8-1.1,1.2-2.3,1.2-3.8c0-2.5-1.1-4.2-3.4-5.2c-1.2-0.5-2.8-0.7-4.8-0.7h-9.4v12.2H305.6z"/>
	<path class="st0" d="M322.7,45.1h4v4.4c0.3-0.9,1.1-1.9,2.4-3.1c1.3-1.2,2.8-1.8,4.5-1.8c0.1,0,0.2,0,0.4,0c0.2,0,0.5,0,1,0.1v4.5
		c-0.3,0-0.5-0.1-0.7-0.1s-0.4,0-0.7,0c-2.1,0-3.8,0.7-4.9,2.1c-1.2,1.4-1.7,3-1.7,4.8v14.6h-4.3L322.7,45.1L322.7,45.1z"/>
	<path class="st0" d="M356.8,47.6c2.2,2.2,3.4,5.4,3.4,9.6c0,4.1-1,7.5-3,10.1c-2,2.7-5,4-9.2,4c-3.5,0-6.2-1.2-8.2-3.5
		c-2-2.4-3.1-5.5-3.1-9.5c0-4.3,1.1-7.6,3.2-10.2c2.1-2.5,5-3.8,8.6-3.8C351.8,44.4,354.6,45.4,356.8,47.6z M354.2,64.5
		c1-2.1,1.6-4.5,1.6-7.1c0-2.4-0.4-4.3-1.1-5.8c-1.2-2.3-3.2-3.5-6.1-3.5c-2.6,0-4.4,1-5.6,3s-1.8,4.4-1.8,7.2
		c0,2.7,0.6,4.9,1.8,6.7c1.2,1.8,3,2.7,5.6,2.7S353.1,66.6,354.2,64.5z"/>
	<path class="st0" d="M365,35.7h4.1v20.2L380,45.1h5.4l-9.7,9.4L386,70.4h-5.4l-8-12.9l-3.5,3.4v9.5H365V35.7z"/>
	<path class="st0" d="M403.7,45.8c1.7,0.8,3,1.9,3.8,3.3c0.8,1.3,1.4,2.8,1.7,4.5c0.3,1.2,0.4,3,0.4,5.6h-18.4
		c0.1,2.6,0.7,4.6,1.8,6.2c1.1,1.6,2.9,2.3,5.2,2.3c2.2,0,4-0.7,5.3-2.2c0.7-0.9,1.3-1.8,1.6-3h4.2c-0.1,0.9-0.5,2-1.1,3.1
		s-1.3,2.1-2.1,2.8c-1.3,1.3-2.9,2.1-4.8,2.6c-1,0.3-2.2,0.4-3.5,0.4c-3.1,0-5.8-1.1-8-3.4s-3.3-5.5-3.3-9.6s1.1-7.4,3.3-9.9
		c2.2-2.5,5.1-3.8,8.6-3.8C400.3,44.5,402,44.9,403.7,45.8z M405.2,55.7c-0.2-1.8-0.6-3.3-1.2-4.4c-1.2-2.1-3.1-3.1-5.8-3.1
		c-1.9,0-3.6,0.7-4.9,2.1c-1.3,1.4-2,3.2-2.1,5.4H405.2z"/>
	<path class="st0" d="M414.6,45.1h4v4.4c0.3-0.9,1.1-1.9,2.4-3.1c1.3-1.2,2.8-1.8,4.5-1.8c0.1,0,0.2,0,0.4,0c0.2,0,0.5,0,1,0.1v4.5
		c-0.3,0-0.5-0.1-0.7-0.1s-0.4,0-0.7,0c-2.1,0-3.8,0.7-4.9,2.1c-1.2,1.4-1.7,3-1.7,4.8v14.6h-4.3L414.6,45.1L414.6,45.1z"/>
	<path class="st0" d="M433.2,62.5c0.1,1.4,0.5,2.5,1.1,3.3c1.1,1.4,3,2.1,5.7,2.1c1.6,0,3-0.3,4.3-1c1.2-0.7,1.8-1.7,1.8-3.2
		c0-1.1-0.5-1.9-1.5-2.5c-0.6-0.3-1.9-0.7-3.7-1.2l-3.4-0.9c-2.2-0.5-3.8-1.1-4.9-1.8c-1.9-1.2-2.8-2.7-2.8-4.8
		c0-2.4,0.9-4.3,2.6-5.8s4.1-2.2,7.1-2.2c3.9,0,6.7,1.1,8.4,3.4c1.1,1.4,1.6,3,1.6,4.6h-4c-0.1-1-0.4-1.8-1-2.6
		c-1-1.1-2.7-1.7-5.2-1.7c-1.6,0-2.9,0.3-3.7,0.9c-0.8,0.6-1.3,1.4-1.3,2.4c0,1.1,0.6,2,1.7,2.6c0.6,0.4,1.6,0.7,2.8,1l2.9,0.7
		c3.1,0.7,5.2,1.5,6.3,2.2c1.7,1.1,2.5,2.8,2.5,5.1s-0.9,4.2-2.6,5.8s-4.4,2.5-7.9,2.5c-3.8,0-6.5-0.9-8.1-2.6s-2.4-3.8-2.6-6.4
		L433.2,62.5L433.2,62.5L433.2,62.5z"/>
</g>
<g>
	
		<linearGradient id="SVGID_1_" gradientUnits="userSpaceOnUse" x1="3548.7446" y1="766.7767" x2="3577.1445" y2="766.7767" gradientTransform="matrix(-1 0 0 1 3578.2446 -712.0267)">
		<stop  offset="0" style="stop-color:#D81222"/>
		<stop  offset="1" style="stop-color:#960B1A"/>
	</linearGradient>
	<polygon class="st1" points="29.5,70.4 1.1,70.4 1.1,39.1 	"/>
	<circle class="st2" cx="25.5" cy="46.8" r="8.5"/>
	<polygon class="st2" points="29.5,6.2 1.1,39.1 1.1,70.4 	"/>
</g>
<g>
	
		<linearGradient id="SVGID_00000065778522215683986610000012473503060730144904_" gradientUnits="userSpaceOnUse" x1="3706.9446" y1="21.2" x2="3735.4446" y2="21.2" gradientTransform="matrix(-1 0 0 -1 3736.2446 76)">
		<stop  offset="0" style="stop-color:#D81222"/>
		<stop  offset="1" style="stop-color:#960B1A"/>
	</linearGradient>
	<polygon style="fill:url(#SVGID_00000065778522215683986610000012473503060730144904_);" points="29.3,70.5 0.8,70.5 0.8,39.1 	"/>
	<circle class="st2" cx="25.3" cy="46.8" r="8.5"/>
	<polygon class="st2" points="29.3,6 0.8,39.1 0.8,70.5 	"/>
</g>
<g>
	<path class="st0" d="M61.4,23.8c-0.6,1.6-1.6,2.9-3,3.9c-1.4,1-4.1,2-7.9,3c-0.4-1-0.9-1.8-1.6-2.5c3.2-0.4,5.5-1,7.1-1.7
		c1.6-0.7,2.6-1.8,3.2-3.2c-3.4,0-6.6,0.1-9.8,0.2v-2.3c2.4,0.1,5.8,0.2,10.3,0.2c0.2-1.1,0.2-2,0.2-2.8c1,0.3,1.9,0.5,2.8,0.6
		c0.2,0,0.3,0.1,0.3,0.1s-0.1,0.2-0.3,0.4c-0.2,0.2-0.4,0.8-0.7,1.7c4.2,0,7.9-0.1,11-0.2v2.3c-3.2-0.1-6.4-0.2-9.6-0.2
		c1.2,1.5,2.7,2.5,4.4,3.1c1.7,0.6,3.7,0.9,6.2,0.8c-0.6,1-0.9,1.9-0.8,2.8c-3.1-0.2-5.5-0.8-7.2-1.7S62.8,26,61.4,23.8z M63.3,7.5
		c1.3-2.5,1.9-3.9,1.9-4.3C66,3.7,66.9,4,68,4.3c0.2,0,0.2,0.1,0.2,0.2c0,0.1-0.1,0.2-0.3,0.2c-0.2,0.1-0.4,0.3-0.7,0.6
		c-0.3,0.3-0.8,1.1-1.8,2.2c3.1,0,5.7-0.1,7.7-0.2v2.3c-3-0.1-6.5-0.2-10.6-0.2V12c3.9,0,6.8-0.1,8.6-0.2v2.3
		c-1.8-0.1-4.7-0.2-8.6-0.2v2.5c5.1,0,8.9-0.1,11.6-0.2v2.3c-2.8-0.1-7-0.2-12.6-0.2c-5.6,0-9.8,0.1-12.6,0.2v-2.3
		c2.6,0.1,6.4,0.2,11.3,0.2v-2.5c-3.9,0-6.8,0.1-8.7,0.2v-2.3c1.9,0.1,4.8,0.2,8.7,0.2V9.4c-4.5,0-7.8,0.1-10,0.2V7.3
		c3.3,0.1,6.4,0.2,9.4,0.2H63.3z M59,6.1l-2.3,1C56.4,6,55.9,5,55.2,4.2l2.2-0.9C58,4.3,58.5,5.2,59,6.1z"/>
	<path class="st0" d="M82.1,29.3v1.4h-2.5c0.1-1.5,0.2-3.2,0.2-5V7.4c0-1.2-0.1-2.1-0.2-2.7c0.5,0.1,4.6,0.2,12.2,0.2
		c7.7,0,11.7-0.1,12.2-0.2C104,5.4,104,6.3,104,7.4v18.1c0,1.7,0.1,3.3,0.2,5h-2.5v-1.2H82.1z M101.7,27.4V6.8H82.1v20.6H101.7z
		 M92.5,21.2c-0.1,0.5-0.2,1.2-0.2,2c-2.6,0.5-5.6,1.3-8.8,2.2c-0.3-0.9-0.6-1.7-0.9-2.5C86.6,22.7,89.9,22.1,92.5,21.2z M95.8,18.6
		c0.7-1.4,1.2-3.1,1.7-5.2c0.8,0.5,1.5,0.9,2.3,1.2c0.2,0.1,0.4,0.2,0.4,0.3c0,0.1-0.1,0.2-0.3,0.3c-0.2,0.1-0.6,0.7-1,1.7
		s-1.2,2.4-2.2,4c1,2.3,1.7,3.5,2.1,3.5c0.3,0,0.6-0.8,0.7-2.4c0.7,0.7,1.3,1.2,1.9,1.4C100.8,25.8,100,27,99,27
		c-0.5,0-1.1-0.3-1.8-1c-0.7-0.7-1.3-1.7-1.9-3c-1.1,1.6-2.3,3-3.6,4.1c-0.6-0.5-1.3-0.9-2.2-1.2c2.2-1.3,3.8-2.9,5-4.8
		c-0.6-1.4-1.2-4.3-1.6-8.6h-3.3c-2.7,0-4.9,0.1-6.5,0.2v-2.3c1.3,0.1,3.5,0.2,6.5,0.2h3.1c-0.1-0.9-0.2-2-0.2-3.2
		C93.1,7.4,94,7.5,95,7.5c0.3,0,0.4,0.1,0.4,0.2c0,0.1-0.1,0.3-0.3,0.4c-0.2,0.2-0.3,0.6-0.3,1.2v1.2c2.7,0,4.7-0.1,5.8-0.2v2.3
		c-1.1-0.1-3-0.2-5.8-0.2C95,14.7,95.3,16.7,95.8,18.6z M91.7,20.8c-0.9-0.1-2.1-0.1-3.7-0.1c-1.6,0-2.8,0-3.7,0.1
		c0.1-1,0.1-2.1,0.1-3.3c0-1.2,0-2.3-0.1-3.4c0.9,0.1,2.1,0.1,3.7,0.1c1.6,0,2.8,0,3.7-0.1c-0.1,1.2-0.1,2.4-0.1,3.5
		C91.5,18.6,91.6,19.7,91.7,20.8z M89.7,18.9v-3.1h-3.3v3.1H89.7z M99.6,9.1l-2.1,1c-0.3-0.6-0.8-1.3-1.5-2l2.1-1
		C98.7,7.8,99.2,8.4,99.6,9.1z"/>
	<path class="st0" d="M112.8,27.4v-4.5c0-0.7-0.1-1.5-0.2-2.2c1.9,0.2,5.2,0.3,9.9,0.3c4.7,0,7.8-0.1,9.6-0.3
		c-0.1,0.7-0.2,1.5-0.2,2.2v4.5c1.3,0,2.4-0.1,3.5-0.2v2.5c-1.4-0.2-5.8-0.3-13.1-0.3c-7.3,0-11.7,0.1-13.2,0.3v-2.5
		C110.3,27.3,111.5,27.4,112.8,27.4z M116.2,7.1c-1.6,0-3.3,0.1-4.9,0.3V4.7c2.4,0.2,5.7,0.3,9.7,0.3c4,0,7.3-0.1,9.8-0.3
		c-0.4,1.2-0.8,2.9-1.2,5.2c2.3,0,3.6,0,4-0.1c-0.6,5.3-1.1,8.3-1.5,9c-0.4,0.7-1.6,1.1-3.4,1.2c0-0.9-0.3-1.8-0.8-2.6
		c0.6,0.1,1,0.1,1.3,0.1c0.3,0,0.6,0,0.8-0.2c0.2-0.1,0.3-0.3,0.4-0.5c0.1-0.2,0.2-0.9,0.4-2c0.2-1.1,0.3-2.1,0.4-3
		c-1.5,0-2.9,0.1-4.1,0.2l1-5h-9.3c-0.1,0.9-0.3,2-0.5,3h7.8c-0.7,2.2-1.6,4.1-2.8,5.6c1.7,0.8,3,1.5,3.8,2l-1.4,2
		c-1.1-0.9-2.3-1.7-3.8-2.5c-1.5,1.4-3,2.5-4.6,3.2c-0.5-0.6-1.1-1.2-1.9-1.6c1.9-0.7,3.4-1.5,4.6-2.5c-0.8-0.4-1.7-0.8-2.7-1.2
		l1-1.5l3,1.3c0.8-0.9,1.4-1.9,1.7-2.8h-5.4c-0.6,1.5-1.4,2.9-2.6,4.4c-1.1,1.5-2.3,2.6-3.5,3.4c-0.6-0.7-1.4-1.1-2.1-1.4
		c1.2-0.7,2.3-1.7,3.4-2.8c1-1.2,1.8-2.4,2.3-3.7S115.9,9,116.2,7.1z M118.4,22.8H115v4.6h3.4V22.8z M124.1,22.8h-3.5v4.6h3.5V22.8z
		 M129.6,27.4v-4.6h-3.5v4.6H129.6z"/>
	<path class="st0" d="M144.6,25.1c0.5,0.1,1.7,0.6,3.5,1.5c1.2,0.6,3.4,0.8,6.6,0.8c3.2,0,6.9-0.2,11.2-0.7
		c-0.4,1.1-0.6,2.1-0.7,3.2l-5,0c-3,0-5.3-0.1-6.8-0.2c-1.6-0.1-2.8-0.3-3.8-0.6c-1-0.3-2.2-0.7-3.6-1.3c-1-0.4-1.7-0.6-2.2-0.6
		s-1,0.2-1.5,0.6c-0.5,0.4-1.1,1.1-1.9,2c-0.6-0.8-1.2-1.5-1.8-1.9c1.6-1.7,2.8-2.7,3.6-2.9v-9.4c-1.8,0-2.8,0-3.2,0.1v-2.5
		c0.9,0.1,1.8,0.2,2.9,0.2s2-0.1,3-0.2c-0.2,1-0.3,2.2-0.3,3.6V25.1z M144.9,9.7l-2.8,0.7c-0.2-1.8-0.7-3.6-1.5-5.3l2.8-0.7
		C143.9,6.3,144.4,8,144.9,9.7z M154.5,6.7c-3.1,0.2-5.1,0.3-6,0.3c-0.2-0.8-0.4-1.5-0.7-2.1c0.9,0,1.7,0.1,2.5,0.1
		c2.1,0,4.3-0.1,6.6-0.4c2.3-0.3,4.2-0.6,5.7-1c0.5,1.1,1,1.8,1.4,2.3C164,6,164,6.1,164,6.2c0,0.1-0.2,0.1-0.5,0.1
		c-0.3-0.1-0.7-0.1-1.2-0.1s-1.3,0-2.6,0.1c-1.3,0.1-2.3,0.2-3.2,0.2v2.4c3.8,0,6.7-0.1,8.6-0.2V11c-1.2-0.1-3.5-0.2-6.8-0.2
		c1.5,2,4.1,3.1,7.8,3.3c-0.7,0.7-1.1,1.6-1.2,2.8c-4.1-1-6.9-3-8.3-6.1h-0.1v1.2c0,1.7,0.1,3.1,0.2,4h-2.5c0.1-1,0.2-2.3,0.2-4
		v-1.2h-0.2c-1.9,2.9-4.3,4.8-7.3,5.9c-0.3-0.5-0.9-1.1-1.7-1.7c2.6-0.7,5-2.1,7.2-4.2c-2.6,0-4.6,0.1-6.1,0.2V8.7
		c2.3,0.1,5,0.2,8,0.2V6.7z M152,18.4c-1.4,0-2.5,0.1-3.3,0.2v-2.2c1.1,0.1,3.1,0.1,5.8,0.1c2.8,0,4.7,0,5.7-0.1
		c-0.2,0.3-0.4,0.7-0.5,1l-0.7,2.2h3.8c0.3,0,0.7-0.1,1.2-0.2c-0.3,0.8-0.8,2.3-1.2,4.3c-0.2,0.8-0.7,1.5-1.7,2s-2.3,0.8-4.1,1.1
		c-0.2-0.8-0.6-1.6-1.2-2.5c2.1,0,3.5-0.2,4.1-0.6c0.6-0.4,1-1.1,1.1-2.2h-2.9c-0.7,0-1.3,0-1.7,0.1l0.8-3.1h-3.1
		c-0.6,3.5-2.3,6.1-5.1,7.6c-0.4-0.6-1.1-1.3-1.9-1.8c1.6-0.6,2.8-1.4,3.4-2.2C151.2,21.1,151.7,19.9,152,18.4z"/>
	<path class="st0" d="M178.7,9.8c-0.9-0.1-2.5-0.2-4.8-0.2c-2.3,0-4,0.1-4.9,0.2V7.3c0.9,0.1,2.5,0.2,4.7,0.2c2.2,0,3.9-0.1,5-0.2
		V9.8z M178,13.7c-0.8-0.1-2.2-0.2-4.1-0.2c-1.9,0-3.3,0.1-4.1,0.2v-2.2c0.8,0.1,2.2,0.2,4.1,0.2c1.9,0,3.3,0,4.2-0.2V13.7z
		 M178,17.8c-0.8-0.1-2.2-0.2-4.1-0.2c-1.9,0-3.3,0.1-4.1,0.2v-2.4c0.8,0.1,2.2,0.2,4.1,0.2c1.9,0,3.3-0.1,4.1-0.2V17.8z
		 M176.1,27.8h-3.9v2.4h-2.3c0.1-1.3,0.2-2.6,0.2-4v-4.3c0-0.8,0-1.6-0.1-2.4c0.5,0.1,1.9,0.1,4.2,0.1c2.3,0,3.6,0,4.1-0.1
		c-0.1,0.5-0.1,1.3-0.1,2.4v3.5c0,1.5,0.1,2.8,0.3,4h-2.4V27.8z M175.9,6.6l-2.5,0.6c-0.2-1.3-0.6-2.4-1.3-3.5l2.5-0.6
		C175.1,4.4,175.6,5.6,175.9,6.6z M172.2,25.9h3.9v-4.3h-3.9V25.9z M185,11.1h4.4c-0.8-1.9-1.4-4.3-1.8-7.4h2.3
		c0,0.3-0.1,0.7-0.1,1.1c0,0.4,0,1,0.2,1.6c1.4-0.8,2.5-1.7,3.4-2.7c0.5,0.5,0.9,1,1.2,1.3c0.3,0.3,0.5,0.5,0.5,0.7
		c0,0.1-0.1,0.2-0.4,0.3c-0.3,0.1-0.8,0.3-1.7,0.7c-0.9,0.4-1.7,0.8-2.6,1.3c0.3,0.9,0.6,1.6,1,2.3c1.9-1.1,3.1-1.9,3.7-2.5
		c0.4,0.5,0.8,0.9,1.1,1.2s0.5,0.6,0.5,0.7c0,0.1-0.1,0.2-0.4,0.3c-1.1,0.3-2.4,0.9-4,1.8c1,1.5,2.4,2.6,4.3,3.2
		c-0.8,0.7-1.4,1.5-1.7,2.2c-0.6-0.4-1.2-0.8-1.7-1.2V19c0,1.3,0.1,2.4,0.2,3.4c-1.8-0.1-3.8-0.1-6-0.1c-2.2,0-4.2,0-6,0.1
		c0.1-1,0.2-2.1,0.2-3.4v-3.4c-0.2,0.2-0.8,0.7-1.6,1.5c-0.5-0.8-1.1-1.4-1.9-1.9c1.1-0.4,2.4-1.4,3.7-3.2c-1-1-1.8-1.6-2.5-2
		l1.6-1.6c0.5,0.4,1.2,1,2.1,1.9c0.7-1.3,1.2-2.5,1.4-3.5h-1.7c-1.1,0-2.1,0-3.1,0.1V4.7c0.4,0.1,1.5,0.1,3.3,0.1s3.3,0,4.4-0.1
		C186.7,7.3,185.9,9.4,185,11.1z M190.4,27.3c2,0,3.5-0.1,4.6-0.2v2.5c-2.1-0.1-4.6-0.2-7.6-0.2s-5.5,0.1-7.6,0.2v-2.5
		c0.9,0.2,2.3,0.2,4,0.2h4.5c0.9-2,1.5-3.6,1.6-4.7c0.8,0.4,1.8,0.8,2.7,0.9c0.2,0,0.3,0.1,0.3,0.2c0,0.1-0.1,0.2-0.2,0.3
		C192.2,24.3,191.4,25.4,190.4,27.3z M190.3,12.9h-6.5c-0.6,0.8-1.3,1.7-2.2,2.6h10.9C191.6,14.7,190.9,13.8,190.3,12.9z
		 M185.7,26.3l-2.3,0.7c-0.2-1.3-0.5-2.4-1-3.4l2.4-0.6C185.1,24,185.4,25.1,185.7,26.3z M190.9,20.4v-3h-7.2v3H190.9z"/>
	<path class="st0" d="M205.7,21.1c-1.2,0.9-2.7,1.7-4.4,2.5c-0.4-0.8-1.1-1.5-2.2-2.2c3.7-1.2,6.5-2.8,8.2-4.7
		c-2.6,0.1-5,0.2-7.1,0.3v-2.4c2,0.2,4.9,0.2,8.6,0.2c0.5-0.8,1-1.8,1.4-2.9c-3.4-0.1-6.1,0-8.3,0.2V9.8c1.5,0.1,4.4,0.2,8.9,0.2
		c0.6-2.6,0.8-4.8,0.7-6.7c1,0.4,2.1,0.5,3.3,0.5c0.3,0,0.4,0.1,0.4,0.2c0,0.1-0.1,0.2-0.2,0.3c-0.2,0.1-0.3,0.3-0.4,0.5
		c-0.1,0.2-0.2,0.7-0.4,1.3c-0.2,0.7-0.5,1.9-1,3.7c6,0,9.8-0.1,11.2-0.2v2.4c-1.8-0.2-3.9-0.2-6.3-0.2h-5.5
		c-0.3,0.9-0.7,1.9-1.3,2.9h5.3c4.3,0,7.4-0.1,9.1-0.2v2.4c-1.7-0.2-4.1-0.3-7.2-0.3c1.7,2.6,4.6,4,8.7,4.2c-0.8,0.7-1.3,1.7-1.7,3
		c-1.8-0.4-3.5-1.2-5.1-2.3l-0.4,5c-0.1,1.2-0.2,2-0.4,2.5c-0.2,0.5-0.6,0.8-1.3,1c-0.7,0.2-2,0.5-3.8,0.7c0-1.5-0.3-2.4-0.9-2.9
		c0.9,0.2,1.6,0.3,2.2,0.3s1-0.1,1.3-0.4c0.3-0.2,0.5-0.8,0.6-1.7l0.3-3.5h-5.7c-0.1,2.3-0.8,4.1-2.2,5.4c-1.4,1.2-3.4,2.3-6,3.1
		c0-0.3-0.2-0.7-0.6-1.2c-0.4-0.5-0.8-0.9-1.2-1.2c2.6-0.5,4.5-1.2,5.7-2.1c1.1-0.9,1.8-2.3,1.9-4c-2,0.1-3.4,0.2-4.2,0.3V21.1z
		 M208.1,7.6l-2.2,1.8c-1.1-1.4-2.1-2.5-3-3.1l2.2-1.7C205.7,5.4,206.7,6.4,208.1,7.6z M210.2,16.8c-1.1,1.4-2.4,2.7-3.9,3.9h13
		c-1.3-1.2-2.3-2.5-2.9-3.9H210.2z M220.1,4c0.4,0.3,0.9,0.6,1.6,0.9c0.7,0.3,1.1,0.5,1.3,0.6c0.2,0.1,0.3,0.1,0.3,0.2
		c0,0.1-0.1,0.2-0.4,0.2c-0.2,0.1-0.7,0.4-1.4,1.1c-0.7,0.7-1.4,1.5-2,2.4c-0.8-0.5-1.7-0.8-2.7-1c0.6-0.4,1.2-1.1,1.9-1.9
		C219.4,5.6,219.8,4.8,220.1,4z"/>
</g>
</svg>
