<?xml version="1.0" encoding="UTF-8"?>
<svg id="Layer_1" data-name="Layer 1" xmlns="http://www.w3.org/2000/svg" version="1.1" viewBox="0 0 60.8 81">
  <defs>
    <style>
      .cls-1 {
        fill: #444b54;
      }

      .cls-1, .cls-2, .cls-3 {
        stroke-width: 0px;
      }

      .cls-2 {
        fill: #d81222;
      }

      .cls-3 {
        fill: #fff;
      }
    </style>
  </defs>
  <path class="cls-3" d="M49.3,33.1h0Z"/>
  <path class="cls-2" d="M6.1,81c-1.1,0-2-.9-2-2,0,0,0,0,0,0v-24.4C1.6,53.3,0,50.7,0,47.9v-14.8c0-4.8,3.9-8.8,8.7-8.8,0,0,0,0,0,0h10.8c1.1,0,2,.9,2,2,0,1.1-.9,2-2,2h-10.8c-2.6,0-4.7,2.1-4.7,4.7,0,0,0,0,0,0v14.9c0,1.5,1,2.9,2.5,3.2.9.2,1.5,1,1.5,2v25.9c0,1.1-.9,2-2,2,0,0,0,0,0,0ZM14.2,21.6c-4.8,0-8.8-3.9-8.8-8.8s3.9-8.8,8.8-8.8,8.8,3.9,8.8,8.8c0,4.8-3.9,8.8-8.7,8.8,0,0,0,0,0,0ZM14.2,8.1c-2.6,0-4.7,2.1-4.7,4.7s2.1,4.7,4.7,4.7,4.7-2.1,4.7-4.7c0-2.6-2.1-4.7-4.7-4.7,0,0,0,0,0,0Z"/>
  <g>
    <path class="cls-1" d="M37.8,17.5s0,0,0,0c4.8,0,8.7-3.9,8.7-8.8,0-4.8-3.9-8.8-8.8-8.8s-8.8,3.9-8.8,8.8,3.9,8.8,8.8,8.8ZM37.8,4s0,0,0,0c2.6,0,4.7,2.1,4.7,4.7,0,2.6-2.1,4.7-4.7,4.7s-4.7-2.1-4.7-4.7,2.1-4.7,4.7-4.7Z"/>
    <path class="cls-1" d="M58.7,77h-10.8v-26c2.4-.9,4.1-3.2,4-5.7v-12.1c0-3-.6-12.8-8.8-12.8h-11.6c-4.4,0-8.1,3.3-8.7,7.7l-2.6,21.1c-.1,1.1.6,2.1,1.7,2.2,1.1.1,2.1-.6,2.2-1.7,0,0,0,0,0,0l2.6-21.1c.3-2.4,2.3-4.1,4.7-4.1h11.7c4.1,0,4.7,5.5,4.7,8.8v12.1c0,1.1-.9,2-2,2,0,0,0,0,0,0-1.1,0-2,.9-2,2,0,0,0,0,0,0v27.7h-4v-23.6c0-1.1-.9-2-2-2-1.1,0-2,.9-2,2h0v23.6h-4.1v-27.7c0-1.1-.9-2-2-2-1.1,0-2,.9-2,2h0v27.7h-10.8c-1.1,0-2,.9-2,2s.9,2,2,2h41.8c1.1,0,2-.9,2-2s-.9-2-2-2Z"/>
  </g>
</svg>