<?xml version="1.0" encoding="UTF-8"?>
<svg id="Layer_1" data-name="Layer 1" xmlns="http://www.w3.org/2000/svg" version="1.1" viewBox="0 0 600 81">
  <defs>
    <style>
      .cls-1 {
        fill: #093451;
        stroke-width: 0px;
      }
    </style>
  </defs>
  <path class="cls-1" d="M87.4,80.6h57.4v-15.1h-40v-18.5h33.1v-15.1h-33.1V14.7h40.2V-.4h-57.6v81ZM213.8,50.7L176.2-.4h-25.9l8.1,10.3v71h17.3V27.7l38.8,52.9h16.6V-.4h-17.4v51ZM61.2,39c7.6-1.4,14-8.5,14-18.5S67.3-.4,51.7-.4H1.4l7.9,10v71.1h44.2c15.6,0,23.7-9.8,23.7-22-.4-10-7.2-18.7-16-19.8ZM26.5,14.9h21.7c5.8,0,9.5,3.4,9.5,8.5s-3.7,8.5-9.5,8.5h-21.7V14.9ZM49,65.6h-22.5v-18.7h22.5c6.6,0,10.3,4.2,10.3,9.3s-3.9,9.3-10.3,9.4ZM484.9,50.7h9v9.5c-4.7,3.8-10.5,6-16.6,6.1-14.5,0-24.6-11-24.6-25.9s10.3-25.9,24.6-25.9,14.5,3.9,18.5,10.3l13.7-7.6c-5.8-9.3-16.1-17.5-32.4-17.5s-42,15.9-42,40.5,18.8,40.5,42,40.5c12.7.3,24.8-5.2,33.1-14.6v-30h-37.1l11.7,14.6h0ZM406.8,50.7L369.1-.4h-25.8l8,10.3v71h17.4V27.7l38.8,52.9h16.5V-.4h-17.3v51ZM567.6-.4h-33.4l8,10.3-1.4,3.9-25.9,67h19.6l5.1-13.7h34.9l5.1,13.7h19.6L567.6-.4ZM544,51.9l12.7-34.9,12.7,34.9h-25.4ZM315.9-.4h17.4v81.4h-17.4V-.4ZM302,13.6V-.4h-61.1v15.1h38.3l-38.3,52.1v13.8h61.7v-15.1h-39.2l38.6-51.9Z"/>
</svg>