<?xml version="1.0" encoding="UTF-8"?>
<svg id="Layer_1" data-name="Layer 1" xmlns="http://www.w3.org/2000/svg" xmlns:xlink="http://www.w3.org/1999/xlink" viewBox="0 0 1243.59 268.09">
  <defs>
    <style>
      .cls-1 {
        fill: #fff;
      }

      .cls-2 {
        fill: #db1222;
      }

      .cls-3 {
        fill: url(#New_Gradient_Swatch_4);
      }
    </style>
    <linearGradient id="New_Gradient_Swatch_4" data-name="New Gradient Swatch 4" x1="1418.67" y1="164.81" x2="1515.1" y2="164.81" gradientTransform="translate(1515.1) rotate(-180) scale(1 -1)" gradientUnits="userSpaceOnUse">
      <stop offset="0" stop-color="#d61f27"/>
      <stop offset="1" stop-color="#a31e22"/>
    </linearGradient>
  </defs>
  <g>
    <path class="cls-1" d="m175.87,80.27v137.37h-30.21V80.27h30.21Z"/>
    <path class="cls-1" d="m254,80.27c6.54,0,12.51.58,17.89,1.73,5.39,1.15,10.01,3.05,13.86,5.68,3.85,2.63,6.83,6.13,8.94,10.48,2.12,4.36,3.17,9.75,3.17,16.16,0,6.93-1.57,12.7-4.71,17.32-3.14,4.61-7.79,8.4-13.95,11.35,8.47,2.44,14.78,6.71,18.96,12.8,4.17,6.09,6.25,13.44,6.25,22.03,0,6.93-1.35,12.93-4.04,17.99-2.69,5.07-6.32,9.21-10.87,12.41-4.55,3.21-9.75,5.58-15.58,7.12-5.84,1.54-11.83,2.31-17.98,2.31h-66.57V80.27h64.64Zm-3.85,55.6c5.39,0,9.81-1.28,13.28-3.85,3.47-2.56,5.19-6.73,5.19-12.51,0-3.2-.58-5.84-1.73-7.89-1.16-2.05-2.69-3.66-4.62-4.81-1.93-1.15-4.14-1.96-6.64-2.41-2.5-.45-5.1-.67-7.79-.67h-28.28v32.13h30.59Zm1.74,58.3c2.95,0,5.77-.29,8.46-.87,2.69-.58,5.06-1.54,7.12-2.88,2.05-1.35,3.68-3.17,4.9-5.49,1.22-2.31,1.83-5.26,1.83-8.85,0-7.06-1.99-12.09-5.97-15.1-3.98-3.01-9.23-4.52-15.77-4.52h-32.9v37.71h32.32Z"/>
    <path class="cls-1" d="m343.73,80.27v56.95l53.68-56.95h37.71l-53.68,54.25,58.87,83.12h-37.9l-41.37-61.76-17.31,17.51v44.25h-30.21V80.27h30.21Z"/>
    <path class="cls-1" d="m522.93,80.27c6.16,0,11.7.99,16.64,2.98,4.94,1.99,9.17,4.72,12.7,8.18,3.53,3.47,6.22,7.48,8.08,12.02,1.86,4.56,2.79,9.46,2.79,14.72,0,8.08-1.7,15.07-5.09,20.97-3.4,5.9-8.95,10.39-16.64,13.47v.39c3.71,1.03,6.79,2.6,9.23,4.71,2.44,2.12,4.43,4.62,5.97,7.5,1.54,2.89,2.66,6.06,3.36,9.52.71,3.47,1.19,6.93,1.44,10.39.12,2.19.26,4.75.39,7.7.12,2.95.35,5.97.67,9.05.32,3.08.83,6,1.54,8.75.7,2.77,1.77,5.1,3.17,7.03h-30.21c-1.67-4.36-2.69-9.55-3.08-15.58-.39-6.03-.96-11.8-1.73-17.31-1.03-7.19-3.21-12.44-6.54-15.78-3.33-3.33-8.78-5-16.35-5h-30.21v53.68h-30.21V80.27h74.07Zm-10.78,62.14c6.93,0,12.13-1.54,15.58-4.62,3.47-3.08,5.19-8.08,5.19-15s-1.73-11.51-5.19-14.53c-3.46-3.01-8.65-4.52-15.58-4.52h-33.09v38.67h33.09Z"/>
    <path class="cls-1" d="m661.84,99.7c-7-4.87-15.3-7.31-24.92-7.31-8.22,0-15.23,1.54-21.07,4.62-5.84,3.08-10.64,7.22-14.43,12.41-3.78,5.19-6.57,11.13-8.37,17.8-1.79,6.67-2.69,13.6-2.69,20.78,0,7.83.9,15.23,2.69,22.22,1.79,6.99,4.59,13.08,8.37,18.28,3.79,5.19,8.62,9.33,14.53,12.41,5.9,3.08,12.96,4.62,21.17,4.62,6.03,0,11.38-.99,16.07-2.98,4.68-1.98,8.72-4.74,12.12-8.27,3.4-3.52,6.06-7.73,7.99-12.6,1.92-4.87,3.08-10.13,3.46-15.78h18.28c-1.79,17.32-7.76,30.79-17.89,40.41-10.13,9.62-23.99,14.43-41.56,14.43-10.64,0-19.95-1.83-27.9-5.49s-14.56-8.68-19.82-15.1c-5.26-6.41-9.2-13.98-11.83-22.7-2.63-8.73-3.95-18.09-3.95-28.09s1.41-19.4,4.23-28.19c2.82-8.78,6.96-16.45,12.41-22.99,5.45-6.54,12.25-11.7,20.39-15.49,8.14-3.78,17.47-5.68,27.99-5.68,7.18,0,13.98.96,20.39,2.89,6.41,1.93,12.13,4.75,17.12,8.46,5.01,3.72,9.17,8.37,12.51,13.95s5.52,12.02,6.54,19.33h-18.28c-2.06-9.75-6.57-17.06-13.56-21.93Z"/>
    <path class="cls-1" d="m794.24,217.25c-2.82,1.67-6.73,2.5-11.73,2.5-4.24,0-7.6-1.19-10.11-3.56-2.5-2.37-3.75-6.25-3.75-11.64-4.49,5.38-9.72,9.27-15.68,11.64-5.97,2.37-12.41,3.56-19.33,3.56-4.49,0-8.76-.51-12.8-1.54-4.04-1.02-7.54-2.63-10.48-4.81-2.95-2.18-5.29-5.03-7.03-8.57-1.73-3.52-2.6-7.79-2.6-12.79,0-5.65.96-10.26,2.89-13.86,1.93-3.59,4.46-6.51,7.6-8.76,3.14-2.24,6.73-3.94,10.78-5.1,4.04-1.15,8.18-2.12,12.41-2.88,4.49-.9,8.76-1.57,12.8-2.02,4.03-.45,7.6-1.09,10.67-1.93,3.08-.83,5.52-2.05,7.31-3.66,1.79-1.6,2.69-3.94,2.69-7.02,0-3.59-.67-6.48-2.01-8.66-1.35-2.18-3.08-3.85-5.19-5-2.12-1.16-4.49-1.93-7.12-2.31-2.63-.39-5.23-.58-7.79-.58-6.92,0-12.7,1.31-17.31,3.95-4.62,2.63-7.12,7.6-7.51,14.91h-16.35c.26-6.16,1.54-11.35,3.85-15.58,2.31-4.23,5.38-7.66,9.24-10.29,3.85-2.63,8.24-4.52,13.18-5.67,4.94-1.16,10.23-1.74,15.88-1.74,4.49,0,8.94.32,13.37.96,4.42.64,8.43,1.95,12.02,3.93,3.59,1.98,6.47,4.77,8.65,8.35,2.18,3.58,3.28,8.25,3.28,14.02v51.07c0,3.85.22,6.65.67,8.45.45,1.79,1.96,2.68,4.52,2.68,1.41,0,3.08-.26,5-.77v12.7Zm-26.55-50.98c-2.05,1.53-4.74,2.65-8.08,3.36-3.34.7-6.84,1.28-10.49,1.72-3.66.45-7.34.96-11.06,1.53-3.72.58-7.06,1.5-10,2.77-2.95,1.28-5.36,3.09-7.22,5.46-1.86,2.36-2.79,5.59-2.79,9.67,0,2.68.54,4.95,1.63,6.8,1.09,1.85,2.5,3.35,4.23,4.49,1.73,1.15,3.75,1.98,6.06,2.5,2.31.51,4.74.76,7.31.76,5.38,0,10-.73,13.85-2.2,3.85-1.47,6.99-3.32,9.43-5.55,2.44-2.23,4.24-4.66,5.39-7.27,1.15-2.62,1.73-5.08,1.73-7.38v-16.66Z"/>
    <path class="cls-1" d="m818.29,118.17v14.62h.39c7.43-11.29,18.15-16.93,32.13-16.93,6.16,0,11.73,1.28,16.74,3.85,5.01,2.56,8.53,6.92,10.58,13.08,3.33-5.39,7.73-9.56,13.18-12.51,5.45-2.95,11.45-4.43,17.98-4.43,5.01,0,9.53.55,13.56,1.63,4.04,1.09,7.51,2.79,10.39,5.1,2.89,2.31,5.13,5.29,6.73,8.94,1.61,3.66,2.41,8.05,2.41,13.18v72.92h-16.35v-65.22c0-3.08-.26-5.97-.77-8.66-.51-2.69-1.47-5.03-2.88-7.03-1.42-1.98-3.37-3.55-5.87-4.71-2.5-1.15-5.74-1.73-9.71-1.73-8.08,0-14.43,2.31-19.05,6.92-4.62,4.62-6.92,10.78-6.92,18.47v61.95h-16.36v-65.22c0-3.21-.28-6.16-.87-8.85-.58-2.7-1.57-5.03-2.98-7.03-1.42-1.98-3.31-3.52-5.68-4.62-2.38-1.09-5.42-1.63-9.14-1.63-4.74,0-8.82.96-12.21,2.89-3.4,1.92-6.16,4.23-8.27,6.92-2.12,2.69-3.66,5.48-4.62,8.37-.96,2.88-1.44,5.29-1.44,7.22v61.95h-16.35v-99.47h15.39Z"/>
    <path class="cls-1" d="m972.08,118.17v13.47h.39c2.69-5.52,6.92-9.53,12.7-12.03,5.78-2.5,12.13-3.75,19.05-3.75,7.7,0,14.4,1.42,20.11,4.23,5.71,2.82,10.45,6.64,14.23,11.45,3.78,4.82,6.64,10.36,8.57,16.64,1.92,6.29,2.88,12.96,2.88,20.01s-.93,13.72-2.79,20.01c-1.86,6.29-4.68,11.77-8.46,16.45-3.79,4.68-8.54,8.37-14.24,11.06-5.71,2.69-12.34,4.04-19.91,4.04-2.44,0-5.17-.26-8.18-.77-3.01-.52-6-1.35-8.94-2.5-2.95-1.15-5.74-2.73-8.37-4.71-2.63-1.99-4.84-4.46-6.64-7.41h-.39v51.18h-16.35V118.17h16.35Zm58.78,35.31c-1.22-4.43-3.08-8.38-5.57-11.83-2.5-3.47-5.71-6.22-9.62-8.27-3.91-2.05-8.5-3.08-13.75-3.08-5.52,0-10.2,1.09-14.04,3.27-3.85,2.18-7,5.03-9.43,8.57-2.44,3.52-4.2,7.54-5.29,12.02-1.09,4.49-1.63,9.04-1.63,13.66,0,4.87.58,9.59,1.73,14.14,1.16,4.56,2.98,8.57,5.49,12.02,2.5,3.47,5.74,6.26,9.72,8.38,3.97,2.12,8.78,3.17,14.42,3.17s10.36-1.09,14.15-3.28c3.78-2.17,6.83-5.06,9.13-8.65,2.31-3.59,3.98-7.7,5.01-12.32,1.02-4.62,1.54-9.36,1.54-14.23,0-4.62-.61-9.14-1.83-13.56Z"/>
    <path class="cls-1" d="m1126.69,217.64v-15.77h-.38c-3.47,6.15-7.89,10.67-13.28,13.56-5.38,2.88-11.73,4.33-19.04,4.33-6.54,0-11.99-.87-16.36-2.6-4.36-1.73-7.89-4.2-10.58-7.41-2.69-3.2-4.59-7.03-5.68-11.45-1.09-4.43-1.63-9.33-1.63-14.72v-65.41h16.35v67.34c0,6.16,1.79,11.03,5.39,14.62,3.58,3.6,8.52,5.39,14.81,5.39,5.01,0,9.33-.77,12.99-2.31,3.66-1.54,6.7-3.71,9.14-6.54,2.43-2.82,4.26-6.13,5.48-9.91,1.22-3.79,1.83-7.92,1.83-12.41v-56.18h16.35v99.47h-15.39Z"/>
    <path class="cls-1" d="m1172.09,195.41c1.54,2.5,3.56,4.49,6.06,5.97,2.5,1.47,5.33,2.53,8.47,3.17,3.14.64,6.38.96,9.71.96,2.57,0,5.26-.2,8.08-.58,2.82-.39,5.41-1.09,7.79-2.12,2.37-1.03,4.33-2.53,5.87-4.52,1.54-1.99,2.31-4.52,2.31-7.6,0-4.23-1.61-7.43-4.82-9.62-3.2-2.18-7.21-3.95-12.02-5.3-4.81-1.34-10.04-2.56-15.68-3.66-5.65-1.09-10.87-2.63-15.68-4.61-4.81-1.99-8.82-4.78-12.02-8.38-3.21-3.58-4.81-8.59-4.81-15,0-5.01,1.12-9.3,3.36-12.89,2.24-3.59,5.13-6.51,8.66-8.76,3.52-2.24,7.5-3.91,11.93-5.01,4.42-1.09,8.81-1.63,13.18-1.63,5.64,0,10.83.48,15.58,1.44,4.74.96,8.94,2.63,12.6,5.01,3.66,2.37,6.57,5.57,8.76,9.62,2.18,4.04,3.47,9.08,3.85,15.1h-16.35c-.26-3.2-1.09-5.87-2.5-7.98-1.41-2.12-3.2-3.82-5.38-5.1-2.18-1.28-4.59-2.21-7.22-2.79-2.63-.58-5.29-.87-7.98-.87-2.44,0-4.91.19-7.41.58-2.5.39-4.78,1.06-6.83,2.02-2.05.96-3.72,2.25-5,3.85-1.28,1.61-1.93,3.69-1.93,6.25,0,2.82.99,5.17,2.98,7.03,1.98,1.86,4.52,3.4,7.6,4.62,3.08,1.22,6.54,2.25,10.39,3.08,3.85.83,7.7,1.7,11.54,2.6,4.11.9,8.11,1.98,12.03,3.27,3.91,1.28,7.37,2.98,10.39,5.1,3.01,2.12,5.45,4.78,7.31,7.98,1.85,3.21,2.79,7.19,2.79,11.93,0,6.03-1.25,11.03-3.75,15.01-2.5,3.98-5.77,7.19-9.81,9.62-4.04,2.44-8.59,4.14-13.66,5.1-5.07.96-10.11,1.44-15.1,1.44-5.52,0-10.78-.58-15.78-1.73-5-1.15-9.43-3.05-13.27-5.68-3.85-2.63-6.93-6.09-9.24-10.39-2.31-4.3-3.6-9.52-3.85-15.68h16.36c.12,3.59.96,6.63,2.5,9.13Z"/>
  </g>
  <g>
    <polygon class="cls-3" points="96.43 217.91 0 217.91 0 111.71 96.43 217.91"/>
    <circle class="cls-2" cx="82.98" cy="137.74" r="28.79"/>
    <polygon class="cls-2" points="96.43 0 0 111.71 0 217.91 96.43 0"/>
  </g>
</svg>