<?xml version="1.0" encoding="UTF-8"?>
<svg id="Layer_1" data-name="Layer 1" xmlns="http://www.w3.org/2000/svg" xmlns:xlink="http://www.w3.org/1999/xlink" viewBox="0 0 1194.69 268.09">
  <defs>
    <style>
      .cls-1 {
        fill: #fff;
      }

      .cls-2 {
        fill: #db1222;
      }

      .cls-3 {
        fill: #ccc;
      }

      .cls-4 {
        fill: url(#New_Gradient_Swatch_4);
      }
    </style>
    <linearGradient id="New_Gradient_Swatch_4" data-name="New Gradient Swatch 4" x1="1493.6" y1="41.09" x2="1517.64" y2="41.09" gradientTransform="translate(1517.64) rotate(-180) scale(1 -1)" gradientUnits="userSpaceOnUse">
      <stop offset="0" stop-color="#d61f27"/>
      <stop offset="1" stop-color="#a31e22"/>
    </linearGradient>
  </defs>
  <g>
    <g>
      <path class="cls-1" d="m612.06,86.74h18.24l43.28,119.26h-17.7l-12.45-35.72h-46.79l-12.93,35.72h-16.56l44.91-119.26Zm26.79,70.39l-18.36-52.69-19.08,52.69h37.44Z"/>
      <path class="cls-1" d="m733.36,123.68c6.14,4.76,9.84,12.96,11.08,24.6h-14.21c-.87-5.36-2.84-9.81-5.93-13.36-3.08-3.54-8.03-5.32-14.85-5.32-9.31,0-15.97,4.54-19.97,13.62-2.6,5.89-3.9,13.16-3.9,21.81s1.84,16.03,5.52,21.98c3.68,5.95,9.47,8.92,17.37,8.92,6.06,0,10.87-1.85,14.41-5.54s5.99-8.75,7.35-15.16h14.21c-1.62,11.53-5.68,19.96-12.18,25.29-6.49,5.33-14.8,8-24.92,8-11.37,0-20.43-4.15-27.2-12.46-6.77-8.31-10.15-18.68-10.15-31.13,0-15.26,3.71-27.14,11.12-35.64,7.41-8.5,16.86-12.75,28.33-12.75,9.79,0,17.76,2.38,23.91,7.14Z"/>
      <path class="cls-1" d="m799.61,153.38c3.36-.43,5.6-1.84,6.74-4.21.65-1.3.97-3.18.97-5.62,0-5-1.77-8.62-5.31-10.88-3.54-2.25-8.6-3.38-15.19-3.38-7.62,0-13.02,2.07-16.21,6.2-1.78,2.29-2.94,5.69-3.48,10.2h-13.64c.27-10.75,3.74-18.22,10.42-22.43s14.42-6.31,23.23-6.31c10.22,0,18.52,1.95,24.89,5.85,6.33,3.9,9.49,9.96,9.49,18.19v50.09c0,1.52.31,2.73.94,3.65.62.92,1.93,1.38,3.94,1.38.65,0,1.38-.04,2.19-.12.81-.08,1.68-.2,2.6-.37v10.8c-2.27.65-4.01,1.05-5.2,1.22-1.19.16-2.81.24-4.87.24-5.03,0-8.69-1.78-10.96-5.36-1.19-1.89-2.03-4.57-2.52-8.04-2.98,3.9-7.25,7.28-12.83,10.15-5.58,2.87-11.72,4.3-18.43,4.3-8.07,0-14.65-2.45-19.77-7.34-5.11-4.89-7.67-11.01-7.67-18.37,0-8.05,2.52-14.3,7.55-18.73,5.03-4.43,11.64-7.16,19.81-8.19l23.3-2.92Zm-30.77,39.48c3.08,2.43,6.74,3.65,10.96,3.65,5.14,0,10.12-1.19,14.94-3.57,8.12-3.94,12.18-10.4,12.18-19.37v-11.75c-1.78,1.14-4.08,2.09-6.89,2.85-2.81.76-5.56,1.3-8.26,1.63l-8.83,1.14c-5.29.7-9.27,1.81-11.94,3.32-4.52,2.54-6.78,6.59-6.78,12.15,0,4.21,1.54,7.53,4.63,9.96Z"/>
      <path class="cls-1" d="m882.67,121.73c2.59,1.62,5.52,4.47,8.81,8.52v-43.92h14.04v119.67h-13.15v-12.1c-3.4,5.36-7.41,9.23-12.05,11.61-4.64,2.38-9.95,3.57-15.93,3.57-9.65,0-18.01-4.07-25.07-12.22-7.06-8.15-10.59-18.98-10.59-32.52,0-12.66,3.22-23.64,9.66-32.92,6.44-9.28,15.65-13.92,27.62-13.92,6.63,0,12.18,1.41,16.66,4.22Zm-32.62,65.19c3.93,6.28,10.23,9.42,18.9,9.42,6.73,0,12.26-2.91,16.6-8.73,4.33-5.82,6.5-14.17,6.5-25.05s-2.24-19.12-6.71-24.4c-4.47-5.28-9.99-7.92-16.56-7.92-7.32,0-13.26,2.81-17.81,8.44-4.55,5.63-6.83,13.91-6.83,24.84,0,9.31,1.96,17.1,5.89,23.38Z"/>
      <path class="cls-1" d="m972,121.44c5.75,2.9,10.14,6.65,13.15,11.24,2.9,4.38,4.84,9.5,5.81,15.34.86,4.01,1.29,10.39,1.29,19.16h-63.24c.27,8.85,2.34,15.94,6.2,21.29,3.87,5.35,9.85,8.02,17.96,8.02,7.57,0,13.61-2.53,18.12-7.58,2.52-2.94,4.31-6.33,5.36-10.2h14.37c-.38,3.2-1.64,6.75-3.78,10.68-2.14,3.93-4.52,7.13-7.16,9.62-4.41,4.33-9.86,7.25-16.36,8.77-3.49.87-7.44,1.3-11.84,1.3-10.76,0-19.88-3.94-27.35-11.81-7.48-7.88-11.21-18.9-11.21-33.08s3.77-25.3,11.3-34.02c7.53-8.71,17.37-13.07,29.53-13.07,6.13,0,12.08,1.45,17.83,4.34Zm5.23,34.14c-.59-6.33-1.96-11.39-4.11-15.18-3.97-7.04-10.6-10.55-19.88-10.55-6.65,0-12.24,2.42-16.74,7.27-4.51,4.84-6.9,11-7.17,18.47h47.9Z"/>
      <path class="cls-1" d="m998.66,119.05h14.45v12.34c3.46-4.27,6.6-7.39,9.42-9.34,4.82-3.3,10.28-4.95,16.4-4.95,6.93,0,12.5,1.7,16.73,5.11,2.38,1.95,4.55,4.82,6.49,8.61,3.25-4.65,7.06-8.11,11.45-10.35,4.38-2.25,9.31-3.37,14.77-3.37,11.69,0,19.65,4.22,23.87,12.66,2.27,4.55,3.41,10.66,3.41,18.35v57.89h-15.18v-60.4c0-5.79-1.45-9.77-4.34-11.93-2.9-2.16-6.43-3.25-10.6-3.25-5.74,0-10.68,1.92-14.81,5.76-4.14,3.84-6.21,10.26-6.21,19.24v50.58h-14.86v-56.75c0-5.9-.7-10.2-2.11-12.91-2.22-4.06-6.36-6.09-12.42-6.09-5.52,0-10.54,2.14-15.06,6.41-4.52,4.28-6.78,12.02-6.78,23.22v46.11h-14.61v-86.95Z"/>
      <path class="cls-1" d="m1178.52,119.05h16.16c-2.06,5.58-6.63,18.3-13.72,38.17-5.3,14.95-9.74,27.13-13.31,36.55-8.43,22.17-14.38,35.69-17.84,40.56-3.46,4.87-9.41,7.3-17.84,7.3-2.05,0-3.64-.08-4.75-.24s-2.48-.46-4.1-.89v-13.31c2.54.7,4.38,1.14,5.51,1.3,1.13.16,2.13.25,3,.25,2.7,0,4.69-.45,5.95-1.34,1.27-.89,2.34-1.99,3.2-3.28.27-.43,1.24-2.65,2.92-6.64,1.67-4,2.89-6.97,3.65-8.91l-32.15-89.51h16.56l23.3,70.82,23.46-70.82Z"/>
    </g>
    <g>
      <path class="cls-1" d="m0,108.51v-22.51h99.75v22.51h-36.48v99.25h-26.78v-99.25H0Z"/>
      <path class="cls-1" d="m99.25,119.59v16.38h.35c1.14-2.73,2.66-5.26,4.61-7.59,1.93-2.33,4.15-4.32,6.65-5.97,2.5-1.65,5.18-2.93,8.02-3.84,2.83-.91,5.79-1.37,8.87-1.37,1.58,0,3.34.28,5.27.85v22.52c-1.14-.24-2.5-.43-4.08-.6-1.6-.18-3.14-.26-4.61-.26-4.44,0-8.19.74-11.25,2.22-3.07,1.47-5.55,3.5-7.42,6.05-1.87,2.55-3.21,5.54-4.01,8.95-.79,3.41-1.19,7.11-1.19,11.09v39.73h-24.2v-88.17h23.01Z"/>
      <path class="cls-1" d="m142.4,132.55c2.5-3.75,5.69-6.76,9.55-9.03,3.87-2.28,8.22-3.9,13.05-4.86,4.83-.96,9.69-1.45,14.59-1.45,4.43,0,8.92.31,13.48.94,4.54.63,8.69,1.85,12.45,3.67,3.75,1.82,6.81,4.34,9.2,7.59,2.39,3.23,3.58,7.52,3.58,12.86v45.88c0,3.98.24,7.79.68,11.42.46,3.64,1.25,6.37,2.39,8.19h-24.55c-.46-1.36-.83-2.76-1.11-4.18-.29-1.42-.49-2.87-.6-4.34-3.87,3.97-8.41,6.76-13.64,8.35-5.23,1.58-10.57,2.39-16.03,2.39-4.2,0-8.13-.51-11.77-1.54-3.64-1.03-6.81-2.61-9.55-4.77-2.73-2.15-4.86-4.88-6.4-8.19-1.53-3.29-2.3-7.22-2.3-11.77,0-5,.89-9.12,2.65-12.35,1.76-3.25,4.02-5.83,6.81-7.77,2.79-1.93,5.97-3.37,9.55-4.34,3.58-.96,7.19-1.73,10.84-2.3,3.64-.57,7.22-1.03,10.74-1.36,3.52-.35,6.65-.86,9.38-1.54,2.72-.68,4.88-1.67,6.48-2.98,1.58-1.3,2.32-3.21,2.21-5.7,0-2.62-.42-4.69-1.28-6.23-.85-1.54-1.98-2.73-3.41-3.58-1.42-.85-3.07-1.42-4.94-1.71-1.87-.28-3.9-.43-6.05-.43-4.77,0-8.53,1.03-11.25,3.08-2.73,2.04-4.33,5.45-4.77,10.23h-24.22c.33-5.69,1.76-10.41,4.26-14.16Zm47.84,34.19c-1.54.51-3.19.93-4.95,1.28-1.76.33-3.61.62-5.54.85-1.93.24-3.86.51-5.8.86-1.82.33-3.61.79-5.37,1.36-1.76.57-3.29,1.33-4.61,2.3-1.3.97-2.36,2.19-3.15,3.66-.79,1.48-1.19,3.36-1.19,5.63,0,2.15.4,3.98,1.19,5.45s1.87,2.64,3.25,3.5c1.36.85,2.96,1.44,4.77,1.79,1.82.33,3.69.51,5.62.51,4.77,0,8.47-.8,11.09-2.39,2.61-1.6,4.54-3.5,5.8-5.72,1.25-2.22,2.01-4.45,2.3-6.73.28-2.28.42-4.09.42-5.47v-9.03c-1.01.92-2.3,1.62-3.83,2.14Z"/>
      <path class="cls-1" d="m292.81,196.5c-2.84,4.77-6.56,8.22-11.17,10.31-4.59,2.11-9.8,3.16-15.6,3.16-6.59,0-12.39-1.28-17.39-3.84-5.01-2.55-9.13-6.02-12.37-10.39-3.25-4.39-5.69-9.41-7.34-15.1-1.64-5.68-2.47-11.59-2.47-17.74s.83-11.62,2.47-17.14c1.65-5.51,4.09-10.37,7.34-14.57,3.23-4.2,7.3-7.59,12.18-10.14,4.88-2.57,10.57-3.84,17.06-3.84,5.23,0,10.2,1.11,14.92,3.32,4.72,2.22,8.45,5.5,11.17,9.81h.35v-44.33h24.22v121.76h-23.02v-11.25h-.35Zm-1.01-43.58c-.69-3.34-1.86-6.3-3.5-8.87-1.65-2.55-3.79-4.62-6.4-6.22-2.62-1.6-5.91-2.39-9.89-2.39s-7.33.79-10.06,2.39c-2.72,1.6-4.91,3.69-6.56,6.31-1.65,2.61-2.84,5.59-3.58,8.95-.74,3.34-1.11,6.84-1.11,10.48,0,3.41.4,6.83,1.19,10.24.79,3.4,2.08,6.45,3.84,9.12,1.76,2.68,3.97,4.83,6.65,6.48,2.66,1.65,5.88,2.47,9.63,2.47,3.98,0,7.3-.79,9.98-2.39,2.66-1.58,4.8-3.72,6.4-6.4,1.58-2.66,2.72-5.7,3.41-9.12.68-3.41,1.01-6.94,1.01-10.57s-.33-7.13-1.01-10.49Z"/>
      <path class="cls-1" d="m354.1,186.61c3.64,3.52,8.87,5.29,15.7,5.29,4.88,0,9.09-1.22,12.61-3.66,3.52-2.44,5.69-5.02,6.48-7.76h21.32c-3.41,10.57-8.65,18.14-15.68,22.68-7.05,4.55-15.58,6.83-25.59,6.83-6.92,0-13.18-1.11-18.75-3.33-5.58-2.22-10.3-5.37-14.16-9.46-3.87-4.09-6.86-8.98-8.95-14.67-2.11-5.68-3.16-11.93-3.16-18.75s1.08-12.74,3.25-18.42c2.15-5.69,5.23-10.6,9.2-14.75,3.98-4.15,8.73-7.42,14.24-9.81,5.52-2.39,11.63-3.58,18.33-3.58,7.51,0,14.04,1.45,19.62,4.34,5.56,2.9,10.14,6.8,13.73,11.69,3.58,4.88,6.16,10.46,7.76,16.71,1.58,6.26,2.15,12.8,1.71,19.61h-63.62c.35,7.85,2.33,13.53,5.97,17.06Zm27.38-46.38c-2.9-3.18-7.31-4.77-13.23-4.77-3.86,0-7.08.65-9.63,1.96-2.55,1.3-4.61,2.93-6.13,4.86-1.54,1.94-2.62,3.98-3.25,6.15-.62,2.15-1,4.09-1.11,5.8h39.4c-1.14-6.15-3.16-10.81-6.05-13.99Z"/>
      <path class="cls-1" d="m441.67,119.59v16.38h.35c1.14-2.73,2.66-5.26,4.61-7.59,1.93-2.33,4.15-4.32,6.65-5.97,2.5-1.65,5.18-2.93,8.02-3.84,2.83-.91,5.79-1.37,8.87-1.37,1.58,0,3.34.28,5.27.85v22.52c-1.14-.24-2.5-.43-4.08-.6-1.6-.18-3.14-.26-4.61-.26-4.44,0-8.19.74-11.25,2.22-3.07,1.47-5.55,3.5-7.42,6.05-1.87,2.55-3.21,5.54-4.01,8.95-.79,3.41-1.19,7.11-1.19,11.09v39.73h-24.2v-88.17h23.01Z"/>
      <path class="cls-1" d="m501.96,185.85c1.08,1.87,2.47,3.41,4.18,4.61,1.71,1.19,3.66,2.07,5.88,2.64,2.22.57,4.52.86,6.91.86,1.71,0,3.5-.21,5.37-.6,1.87-.4,3.58-1.03,5.11-1.89,1.54-.85,2.82-1.98,3.84-3.4,1.03-1.43,1.53-3.22,1.53-5.37,0-3.64-2.41-6.37-7.24-8.19-4.83-1.82-11.56-3.64-20.21-5.45-3.52-.8-6.97-1.73-10.31-2.82-3.36-1.08-6.34-2.5-8.97-4.26-2.61-1.76-4.72-3.98-6.3-6.66-1.6-2.66-2.39-5.94-2.39-9.8,0-5.69,1.11-10.34,3.32-13.99,2.22-3.64,5.15-6.51,8.78-8.6,3.64-2.11,7.73-3.59,12.28-4.44,4.55-.85,9.21-1.28,13.99-1.28s9.4.46,13.89,1.37c4.5.91,8.49,2.45,12.02,4.6,3.52,2.16,6.45,5.04,8.78,8.62,2.33,3.58,3.72,8.09,4.18,13.56h-23.02c-.33-4.66-2.1-7.83-5.29-9.46-3.18-1.65-6.92-2.48-11.25-2.48-1.36,0-2.83.1-4.43.26-1.6.17-3.04.54-4.34,1.11-1.32.57-2.43,1.39-3.33,2.47-.92,1.08-1.36,2.53-1.36,4.34,0,2.16.79,3.93,2.39,5.29,1.58,1.36,3.66,2.47,6.22,3.33,2.57.85,5.48,1.62,8.78,2.3,3.3.68,6.65,1.42,10.06,2.21,3.52.8,6.97,1.78,10.31,2.9,3.36,1.14,6.34,2.65,8.97,4.52,2.61,1.87,4.7,4.2,6.3,6.99,1.6,2.79,2.39,6.22,2.39,10.31,0,5.8-1.17,10.66-3.5,14.59-2.33,3.91-5.37,7.08-9.12,9.46-3.75,2.39-8.05,4.07-12.88,5.02-4.83.97-9.74,1.46-14.75,1.46s-10.12-.51-15-1.54c-4.88-1.03-9.24-2.72-13.05-5.11-3.82-2.4-6.94-5.55-9.38-9.46-2.44-3.93-3.77-8.84-4.01-14.75h23.02c0,2.61.54,4.86,1.62,6.73Z"/>
      <path class="cls-1" d="m581.44,118.89v17.39c.08,2.51-.28,4.86-1.08,7.05-.79,2.21-1.9,4.14-3.34,5.8-1.44,1.67-3.16,3.05-5.18,4.15-2.01,1.1-4.19,1.8-6.54,2.11v-7.51c2.89-.99,4.84-2.44,5.91-4.39,1.05-1.93,1.6-4.29,1.6-7.11h-7.51v-17.5h16.14Z"/>
    </g>
  </g>
  <g>
    <g>
      <path class="cls-3" d="m47.5,20.01v34.25h-7.53V20.01h7.53Z"/>
      <path class="cls-3" d="m66.98,20.01c1.63,0,3.12.14,4.46.43,1.34.29,2.5.76,3.45,1.42.96.66,1.7,1.53,2.23,2.61.53,1.09.79,2.43.79,4.03,0,1.73-.39,3.17-1.18,4.32-.78,1.15-1.94,2.09-3.48,2.83,2.11.61,3.69,1.67,4.73,3.19,1.04,1.52,1.56,3.35,1.56,5.49,0,1.73-.34,3.22-1.01,4.49-.67,1.26-1.58,2.3-2.71,3.09-1.14.8-2.43,1.39-3.89,1.78-1.46.38-2.95.57-4.48.57h-16.6V20.01h16.12Zm-.96,13.86c1.34,0,2.45-.32,3.31-.96.86-.64,1.3-1.68,1.3-3.12,0-.8-.14-1.46-.43-1.97-.29-.51-.67-.91-1.15-1.2-.48-.29-1.03-.49-1.66-.6-.62-.11-1.27-.17-1.94-.17h-7.05v8.01h7.63Zm.43,14.54c.73,0,1.44-.07,2.11-.22s1.26-.38,1.78-.72c.51-.34.92-.79,1.22-1.37.3-.57.46-1.31.46-2.21,0-1.76-.5-3.01-1.49-3.77-.99-.75-2.3-1.13-3.93-1.13h-8.2v9.4h8.06Z"/>
      <path class="cls-3" d="m89.35,20.01v14.2l13.38-14.2h9.4l-13.38,13.53,14.68,20.72h-9.45l-10.31-15.4-4.32,4.37v11.03h-7.53V20.01h7.53Z"/>
      <path class="cls-3" d="m134.03,20.01c1.54,0,2.92.25,4.15.74,1.23.5,2.29,1.18,3.17,2.04.88.86,1.55,1.86,2.02,3,.46,1.14.69,2.36.69,3.67,0,2.01-.42,3.76-1.27,5.23-.85,1.47-2.23,2.59-4.15,3.36v.1c.93.26,1.69.65,2.3,1.18.61.53,1.1,1.15,1.49,1.87.38.72.66,1.51.84,2.37.18.86.3,1.73.36,2.59.03.55.06,1.18.1,1.92.03.74.09,1.49.17,2.26s.21,1.5.38,2.18c.17.69.44,1.27.79,1.75h-7.53c-.42-1.09-.67-2.38-.77-3.89-.1-1.5-.24-2.94-.43-4.32-.26-1.79-.8-3.1-1.63-3.93-.83-.83-2.19-1.25-4.08-1.25h-7.53v13.38h-7.53V20.01h18.47Zm-2.69,15.49c1.73,0,3.02-.38,3.89-1.15.86-.77,1.3-2.01,1.3-3.74s-.43-2.87-1.3-3.62c-.86-.75-2.16-1.13-3.89-1.13h-8.25v9.64h8.25Z"/>
      <path class="cls-3" d="m168.67,24.86c-1.74-1.22-3.81-1.82-6.21-1.82-2.05,0-3.8.38-5.25,1.15-1.46.77-2.65,1.8-3.6,3.09-.94,1.3-1.64,2.77-2.09,4.44-.45,1.66-.67,3.39-.67,5.18,0,1.95.22,3.8.67,5.54.45,1.74,1.14,3.26,2.09,4.56.94,1.3,2.15,2.33,3.62,3.09,1.47.77,3.23,1.15,5.28,1.15,1.5,0,2.84-.25,4.01-.74,1.17-.49,2.17-1.18,3.02-2.06.85-.88,1.51-1.93,1.99-3.14.48-1.22.77-2.53.86-3.93h4.56c-.45,4.32-1.93,7.68-4.46,10.07-2.53,2.4-5.98,3.6-10.36,3.6-2.65,0-4.97-.46-6.96-1.37-1.98-.91-3.63-2.16-4.94-3.77-1.31-1.6-2.29-3.49-2.95-5.66-.66-2.18-.98-4.51-.98-7s.35-4.84,1.06-7.03c.7-2.19,1.74-4.1,3.09-5.73,1.36-1.63,3.05-2.92,5.08-3.86,2.03-.94,4.36-1.42,6.98-1.42,1.79,0,3.49.24,5.08.72,1.6.48,3.02,1.18,4.27,2.11,1.25.93,2.29,2.09,3.12,3.48.83,1.39,1.38,3,1.63,4.82h-4.56c-.51-2.43-1.64-4.25-3.38-5.47Z"/>
      <path class="cls-3" d="m201.68,54.17c-.7.42-1.68.62-2.93.62-1.06,0-1.9-.3-2.52-.89s-.94-1.56-.94-2.9c-1.12,1.34-2.42,2.31-3.91,2.9-1.49.59-3.09.89-4.82.89-1.12,0-2.18-.13-3.19-.38-1.01-.25-1.88-.65-2.61-1.2-.74-.54-1.32-1.26-1.75-2.14-.43-.88-.65-1.94-.65-3.19,0-1.41.24-2.56.72-3.45.48-.9,1.11-1.62,1.89-2.18.78-.56,1.68-.98,2.69-1.27,1.01-.29,2.04-.53,3.09-.72,1.12-.22,2.18-.39,3.19-.5,1.01-.11,1.89-.27,2.66-.48.77-.21,1.38-.51,1.82-.91.45-.4.67-.98.67-1.75,0-.9-.17-1.62-.5-2.16-.34-.54-.77-.96-1.3-1.25-.53-.29-1.12-.48-1.78-.58-.66-.1-1.3-.14-1.94-.14-1.73,0-3.17.33-4.32.98-1.15.65-1.78,1.89-1.87,3.72h-4.08c.06-1.54.38-2.83.96-3.89.58-1.06,1.34-1.91,2.3-2.57.96-.65,2.05-1.13,3.29-1.41,1.23-.29,2.55-.43,3.96-.43,1.12,0,2.23.08,3.33.24,1.1.16,2.1.49,3,.98.9.49,1.61,1.19,2.16,2.08.54.89.82,2.06.82,3.49v12.73c0,.96.05,1.66.17,2.11.11.45.49.67,1.13.67.35,0,.77-.06,1.25-.19v3.17Zm-6.62-12.71c-.51.38-1.18.66-2.01.84-.83.17-1.7.32-2.62.43-.91.11-1.83.24-2.76.38s-1.76.37-2.49.69c-.74.32-1.34.77-1.8,1.36-.46.59-.69,1.39-.69,2.41,0,.67.13,1.23.41,1.7.27.46.62.83,1.06,1.12.43.29.94.49,1.51.62.57.13,1.18.19,1.82.19,1.34,0,2.49-.18,3.45-.55.96-.37,1.74-.83,2.35-1.38.61-.56,1.06-1.16,1.34-1.81.29-.65.43-1.27.43-1.84v-4.15Z"/>
      <path class="cls-3" d="m207.68,29.46v3.65h.1c1.85-2.81,4.52-4.22,8.01-4.22,1.54,0,2.93.32,4.17.96,1.25.64,2.13,1.73,2.64,3.26.83-1.34,1.93-2.38,3.29-3.12,1.36-.73,2.85-1.1,4.48-1.1,1.25,0,2.38.14,3.38.41,1.01.27,1.87.7,2.59,1.27.72.58,1.28,1.32,1.68,2.23s.6,2.01.6,3.29v18.18h-4.08v-16.26c0-.77-.07-1.49-.19-2.16-.13-.67-.37-1.26-.72-1.75-.35-.49-.84-.89-1.46-1.18-.62-.29-1.43-.43-2.42-.43-2.02,0-3.6.57-4.75,1.73-1.15,1.15-1.73,2.69-1.73,4.61v15.45h-4.08v-16.26c0-.8-.07-1.54-.22-2.21-.14-.67-.39-1.26-.74-1.75-.35-.49-.82-.88-1.42-1.15-.59-.27-1.35-.41-2.28-.41-1.18,0-2.2.24-3.05.72-.85.48-1.54,1.06-2.06,1.73-.53.67-.91,1.37-1.15,2.09-.24.72-.36,1.32-.36,1.8v15.45h-4.08v-24.8h3.84Z"/>
      <path class="cls-3" d="m246.02,29.46v3.36h.1c.67-1.38,1.73-2.38,3.17-3,1.44-.62,3.02-.94,4.75-.94,1.92,0,3.59.35,5.01,1.06,1.42.7,2.61,1.66,3.55,2.85.94,1.2,1.66,2.58,2.14,4.15.48,1.57.72,3.23.72,4.99s-.23,3.42-.69,4.99c-.46,1.57-1.17,2.93-2.11,4.1-.94,1.17-2.13,2.09-3.55,2.76s-3.08,1.01-4.96,1.01c-.61,0-1.29-.06-2.04-.19-.75-.13-1.5-.34-2.23-.62-.74-.29-1.43-.68-2.09-1.18-.66-.5-1.21-1.11-1.66-1.85h-.1v12.76h-4.08V29.46h4.08Zm14.66,8.8c-.3-1.1-.77-2.09-1.39-2.95-.62-.86-1.42-1.55-2.4-2.06-.98-.51-2.12-.77-3.43-.77-1.38,0-2.54.27-3.5.81-.96.54-1.74,1.26-2.35,2.14-.61.88-1.05,1.88-1.32,3-.27,1.12-.41,2.25-.41,3.41,0,1.22.14,2.39.43,3.53.29,1.14.74,2.14,1.37,3,.62.86,1.43,1.56,2.42,2.09.99.53,2.19.79,3.6.79s2.58-.27,3.53-.82c.94-.54,1.7-1.26,2.28-2.16.58-.9.99-1.92,1.25-3.07.25-1.15.38-2.33.38-3.55,0-1.15-.15-2.28-.46-3.38Z"/>
      <path class="cls-3" d="m284.57,54.26v-3.93h-.09c-.86,1.53-1.97,2.66-3.31,3.38-1.34.72-2.93,1.08-4.75,1.08-1.63,0-2.99-.22-4.08-.65-1.09-.43-1.97-1.05-2.64-1.85-.67-.8-1.14-1.75-1.42-2.85-.27-1.1-.41-2.33-.41-3.67v-16.31h4.08v16.79c0,1.54.45,2.75,1.34,3.65.89.9,2.12,1.34,3.69,1.34,1.25,0,2.33-.19,3.24-.58s1.67-.93,2.28-1.63c.61-.7,1.06-1.53,1.37-2.47.3-.94.46-1.98.46-3.09v-14.01h4.08v24.8h-3.84Z"/>
      <path class="cls-3" d="m295.89,48.72c.38.62.89,1.12,1.51,1.49.62.37,1.33.63,2.11.79.78.16,1.59.24,2.42.24.64,0,1.31-.05,2.02-.14.7-.1,1.35-.27,1.94-.53.59-.26,1.08-.63,1.46-1.13s.58-1.13.58-1.9c0-1.06-.4-1.85-1.2-2.4-.8-.54-1.8-.98-3-1.32-1.2-.33-2.5-.64-3.91-.91-1.41-.27-2.71-.65-3.91-1.15-1.2-.5-2.2-1.19-3-2.09-.8-.89-1.2-2.14-1.2-3.74,0-1.25.28-2.32.84-3.21.56-.9,1.28-1.62,2.16-2.18.88-.56,1.87-.98,2.97-1.25,1.1-.27,2.2-.41,3.29-.41,1.41,0,2.7.12,3.89.36,1.18.24,2.23.66,3.14,1.25.91.59,1.64,1.39,2.18,2.4.54,1.01.86,2.26.96,3.77h-4.08c-.06-.8-.27-1.46-.62-1.99s-.8-.95-1.34-1.27-1.14-.55-1.8-.69c-.66-.14-1.32-.22-1.99-.22-.61,0-1.22.05-1.85.14-.62.1-1.19.26-1.7.5s-.93.56-1.25.96c-.32.4-.48.92-.48,1.56,0,.7.25,1.29.74,1.75.49.46,1.13.85,1.89,1.15.77.3,1.63.56,2.59.77.96.21,1.92.42,2.88.65,1.02.22,2.02.49,3,.81.98.32,1.84.74,2.59,1.27.75.53,1.36,1.19,1.82,1.99.46.8.69,1.79.69,2.97,0,1.5-.31,2.75-.94,3.74s-1.44,1.79-2.45,2.4c-1.01.61-2.14,1.03-3.41,1.27-1.26.24-2.52.36-3.77.36-1.38,0-2.69-.14-3.93-.43-1.25-.29-2.35-.76-3.31-1.42-.96-.65-1.73-1.52-2.3-2.59-.58-1.07-.9-2.37-.96-3.91h4.08c.03.9.24,1.65.62,2.28Z"/>
    </g>
    <g>
      <polygon class="cls-4" points="24.04 54.33 0 54.33 0 27.85 24.04 54.33"/>
      <circle class="cls-2" cx="20.69" cy="34.34" r="7.18"/>
      <polygon class="cls-2" points="24.04 0 0 27.85 0 54.33 24.04 0"/>
    </g>
  </g>
</svg>