<svg width="21" height="20" viewBox="0 0 21 20" fill="none" xmlns="http://www.w3.org/2000/svg">
<path d="M3.8328 17.3266C3.65771 17.3266 3.48433 17.2921 3.32258 17.225C3.16082 17.158 3.01386 17.0598 2.89009 16.9359C2.76631 16.8121 2.66816 16.665 2.60122 16.5032C2.53429 16.3414 2.4999 16.168 2.5 15.993V3.99296C2.5 3.81793 2.53447 3.64462 2.60145 3.48292C2.66843 3.32121 2.76661 3.17429 2.89037 3.05052C3.14032 2.80058 3.47932 2.66016 3.8328 2.66016H17.1664C17.3415 2.66005 17.5149 2.69445 17.6767 2.76138C17.8385 2.82831 17.9855 2.92647 18.1093 3.05024C18.2332 3.17401 18.3314 3.32098 18.3985 3.48273C18.4655 3.64449 18.5 3.81786 18.5 3.99296V11.993H11.8336V3.99296H3.8336V13.3266H17.8336C18.0103 13.3268 18.1797 13.397 18.3046 13.522C18.4295 13.6469 18.4998 13.8163 18.5 13.993V16.6602C18.5 16.8369 18.4298 17.0064 18.3048 17.1314C18.1798 17.2563 18.0103 17.3266 17.8336 17.3266H3.8328ZM3.8328 15.3266C3.8328 15.4583 3.87186 15.5871 3.94505 15.6967C4.01824 15.8063 4.12227 15.8917 4.244 15.9422C4.36572 15.9926 4.49967 16.0059 4.62891 15.9802C4.75816 15.9546 4.8769 15.8912 4.97013 15.7981C5.06336 15.7049 5.12689 15.5863 5.1527 15.4571C5.1785 15.3278 5.16542 15.1939 5.1151 15.0721C5.06479 14.9503 4.9795 14.8462 4.87001 14.7729C4.76053 14.6995 4.63177 14.6603 4.5 14.6602C4.32319 14.6602 4.1536 14.7303 4.0285 14.8553C3.9034 14.9802 3.83301 15.1497 3.8328 15.3266ZM7.1712 9.59696V8.45936H6.0336C5.88264 8.45936 5.73786 8.39939 5.63112 8.29264C5.52437 8.1859 5.4644 8.04112 5.4644 7.89016C5.4644 7.7392 5.52437 7.59442 5.63112 7.48767C5.73786 7.38093 5.88264 7.32096 6.0336 7.32096H7.1712V6.18016C7.1712 6.0293 7.23113 5.88462 7.3378 5.77795C7.44447 5.67128 7.58915 5.61136 7.74 5.61136C7.89086 5.61136 8.03553 5.67128 8.1422 5.77795C8.24887 5.88462 8.3088 6.0293 8.3088 6.18016V7.32096H9.4472C9.59816 7.32096 9.74294 7.38093 9.84969 7.48767C9.95643 7.59442 10.0164 7.7392 10.0164 7.89016C10.0164 8.04112 9.95643 8.1859 9.84969 8.29264C9.74294 8.39939 9.59816 8.45936 9.4472 8.45936H8.3088V9.59696C8.3088 9.74781 8.24887 9.89249 8.1422 9.99916C8.03553 10.1058 7.89086 10.1658 7.74 10.1658C7.58915 10.1658 7.44447 10.1058 7.3378 9.99916C7.23113 9.89249 7.1712 9.74781 7.1712 9.59696Z" fill="#2A73EF"/>
</svg>
