<svg width="20" height="20" viewBox="0 0 20 20" fill="none" xmlns="http://www.w3.org/2000/svg">
<path d="M10 2C8.41775 2 6.87103 2.46919 5.55544 3.34824C4.23985 4.22729 3.21447 5.47672 2.60897 6.93853C2.00347 8.40034 1.84504 10.0089 2.15372 11.5607C2.4624 13.1126 3.22433 14.538 4.34315 15.6569C5.46197 16.7757 6.88743 17.5376 8.43928 17.8463C9.99113 18.155 11.5997 17.9965 13.0615 17.391C14.5233 16.7855 15.7727 15.7602 16.6518 14.4446C17.5308 13.129 18 11.5822 18 10C17.9972 7.87911 17.1535 5.84588 15.6538 4.34618C14.1541 2.84649 12.1209 2.00275 10 2ZM9.3336 3.3656V4.6664H8V3.6384C8.43406 3.50218 8.88092 3.41077 9.3336 3.3656ZM10.6672 3.3656C11.7876 3.47635 12.8613 3.8706 13.7872 4.5112L13.3344 4.6664V5.3328H12.668L12 6V7.3336L13.3336 6.6672L15.3336 7.3336L14.6672 8.6672L13.3336 8H12L10.6664 9.3336V10.6672L12 12H13.3336L14 13.3336L12.5952 16.1448C11.7737 16.4905 10.8912 16.6678 10 16.6664C9.75946 16.6659 9.51912 16.6525 9.28 16.6264L7.9768 15.36L8 12.6696L6 10.6664H4V9.3336L7.3336 7.3336V6H8.6672L9.3336 6.6664L10.6664 6L10.6672 3.3656Z" fill="#2A73EF"/>
</svg>
