<svg width="21" height="20" viewBox="0 0 21 20" fill="none" xmlns="http://www.w3.org/2000/svg">
<path d="M17.0456 2H3.9544C3.76338 1.9999 3.5742 2.03744 3.3977 2.1105C3.2212 2.18355 3.06082 2.29067 2.92575 2.42575C2.79067 2.56082 2.68355 2.7212 2.6105 2.8977C2.53744 3.0742 2.4999 3.26338 2.5 3.4544V16.5456C2.4999 16.7366 2.53744 16.9258 2.6105 17.1023C2.68355 17.2788 2.79067 17.4392 2.92575 17.5743C3.06082 17.7093 3.2212 17.8165 3.3977 17.8895C3.5742 17.9626 3.76338 18.0001 3.9544 18H17.0456C17.2366 18.0001 17.4258 17.9626 17.6023 17.8895C17.7788 17.8165 17.9392 17.7093 18.0743 17.5743C18.2093 17.4392 18.3165 17.2788 18.3895 17.1023C18.4626 16.9258 18.5001 16.7366 18.5 16.5456V3.4544C18.5001 3.26338 18.4626 3.0742 18.3895 2.8977C18.3165 2.7212 18.2093 2.56082 18.0743 2.42575C17.9392 2.29067 17.7788 2.18355 17.6023 2.1105C17.4258 2.03744 17.2366 1.9999 17.0456 2ZM11.9544 15.8184H5.4088C5.21593 15.8184 5.03097 15.7418 4.89459 15.6054C4.75822 15.469 4.6816 15.2841 4.6816 15.0912C4.6816 14.8983 4.75822 14.7134 4.89459 14.577C5.03097 14.4406 5.21593 14.364 5.4088 14.364H11.9544C12.1473 14.364 12.3322 14.4406 12.4686 14.577C12.605 14.7134 12.6816 14.8983 12.6816 15.0912C12.6816 15.2841 12.605 15.469 12.4686 15.6054C12.3322 15.7418 12.1473 15.8184 11.9544 15.8184ZM15.5904 12.9096H5.4088C5.21593 12.9096 5.03097 12.833 4.89459 12.6966C4.75822 12.5602 4.6816 12.3753 4.6816 12.1824C4.6816 11.9895 4.75822 11.8046 4.89459 11.6682C5.03097 11.5318 5.21593 11.4552 5.4088 11.4552H15.5912C15.7841 11.4552 15.969 11.5318 16.1054 11.6682C16.2418 11.8046 16.3184 11.9895 16.3184 12.1824C16.3184 12.3753 16.2418 12.5602 16.1054 12.6966C15.969 12.833 15.7833 12.9096 15.5904 12.9096ZM7.2272 8.7696C7.2272 8.7696 4.6816 7.0896 4.6816 5.636C4.68005 5.33973 4.76942 5.05011 4.93765 4.80623C5.10587 4.56235 5.34486 4.37594 5.62237 4.27216C5.89987 4.16838 6.20253 4.15223 6.48951 4.22587C6.77648 4.29951 7.03396 4.45942 7.2272 4.684C7.42044 4.45942 7.67792 4.29951 7.96489 4.22587C8.25187 4.15223 8.55453 4.16838 8.83203 4.27216C9.10954 4.37594 9.34853 4.56235 9.51675 4.80623C9.68498 5.05011 9.77435 5.33973 9.7728 5.636C9.7728 7.0912 7.2272 8.7696 7.2272 8.7696Z" fill="#2A73EF"/>
</svg>
