<svg width="20" height="20" viewBox="0 0 20 20" fill="none" xmlns="http://www.w3.org/2000/svg">
<path d="M9.99214 2C8.72431 2.00087 7.47491 2.30368 6.34737 2.88338C5.21982 3.46308 4.24656 4.303 3.50815 5.3336C3.43385 5.39997 3.37512 5.48192 3.33615 5.5736C2.34967 7.05872 1.88757 8.83081 2.02319 10.6085C2.15881 12.3863 2.88438 14.0677 4.08473 15.386C5.28507 16.7043 6.89138 17.5839 8.64866 17.885C10.4059 18.1862 12.2134 17.8917 13.7843 17.0484C15.3551 16.205 16.5991 14.8611 17.319 13.2299C18.0388 11.5988 18.1931 9.77399 17.7575 8.04514C17.3218 6.3163 16.3211 4.78253 14.9143 3.68732C13.5074 2.59212 11.775 1.99825 9.99214 2ZM9.99214 3.3336C10.2185 3.3336 10.4401 3.344 10.6585 3.3648C10.6659 3.51302 10.7225 3.65454 10.8194 3.76698C10.9162 3.87942 11.0478 3.95636 11.1933 3.98564C11.3388 4.01492 11.4898 3.99487 11.6226 3.92865C11.7555 3.86242 11.8624 3.75382 11.9265 3.62C12.992 3.94196 13.9598 4.52557 14.7417 5.3176L12.3777 7.68C12.0761 7.36551 11.7152 7.11383 11.3158 6.93946C10.9164 6.7651 10.4865 6.6715 10.0508 6.66407C9.61509 6.65663 9.18222 6.7355 8.77713 6.89613C8.37204 7.05677 8.00275 7.29598 7.69054 7.6L4.90895 5.68C5.73689 4.70114 6.83051 3.98289 8.05774 3.612C8.1219 3.74582 8.22884 3.85442 8.36164 3.92065C8.49444 3.98687 8.64553 4.00692 8.79101 3.97764C8.9365 3.94836 9.06806 3.87142 9.16491 3.75898C9.26175 3.64654 9.31835 3.50502 9.32574 3.3568C9.54414 3.344 9.76574 3.3336 9.99214 3.3336ZM7.32574 4.6664C7.19394 4.6664 7.0651 4.70549 6.95551 4.77871C6.84592 4.85194 6.76051 4.95601 6.71007 5.07778C6.65963 5.19955 6.64644 5.33354 6.67215 5.46281C6.69786 5.59208 6.76133 5.71082 6.85453 5.80402C6.94773 5.89721 7.06647 5.96068 7.19574 5.9864C7.32501 6.01211 7.459 5.99891 7.58076 5.94847C7.70253 5.89804 7.80661 5.81262 7.87984 5.70303C7.95306 5.59344 7.99214 5.4646 7.99214 5.3328C7.99172 5.15619 7.92138 4.98694 7.79649 4.86205C7.67161 4.73717 7.50236 4.66682 7.32574 4.6664ZM9.99214 4.6664C9.86034 4.6664 9.7315 4.70549 9.62191 4.77871C9.51232 4.85194 9.42691 4.95601 9.37647 5.07778C9.32603 5.19955 9.31284 5.33354 9.33855 5.46281C9.36426 5.59208 9.42773 5.71082 9.52093 5.80402C9.61412 5.89721 9.73287 5.96068 9.86213 5.9864C9.9914 6.01211 10.1254 5.99891 10.2472 5.94847C10.3689 5.89804 10.473 5.81262 10.5462 5.70303C10.6195 5.59344 10.6585 5.4646 10.6585 5.3328C10.6581 5.15619 10.5878 4.98694 10.4629 4.86205C10.338 4.73717 10.1688 4.66682 9.99214 4.6664ZM12.6585 4.6664C12.5267 4.6664 12.3979 4.70549 12.2883 4.77871C12.1787 4.85194 12.0933 4.95601 12.0429 5.07778C11.9924 5.19955 11.9792 5.33354 12.0049 5.46281C12.0307 5.59208 12.0941 5.71082 12.1873 5.80402C12.2805 5.89721 12.3993 5.96068 12.5285 5.9864C12.6578 6.01211 12.7918 5.99891 12.9136 5.94847C13.0353 5.89804 13.1394 5.81262 13.2126 5.70303C13.2859 5.59344 13.3249 5.4646 13.3249 5.3328C13.3245 5.15619 13.2542 4.98694 13.1293 4.86205C13.0044 4.73717 12.8352 4.66682 12.6585 4.6664ZM4.15215 6.7816L6.92815 8.7016C6.75105 9.1116 6.65932 9.55338 6.65855 10C6.65686 10.6635 6.85361 11.3123 7.22352 11.8631C7.59343 12.4138 8.11959 12.8414 8.73439 13.0908C9.34918 13.3403 10.0245 13.4001 10.6736 13.2628C11.3227 13.1254 11.9159 12.7971 12.3769 12.32L14.7417 14.6848C13.6103 15.8301 12.1028 16.5275 10.4974 16.6484C8.89202 16.7693 7.29708 16.3055 6.00686 15.3426C4.71664 14.3797 3.8182 12.9826 3.47732 11.4092C3.13645 9.83578 3.37613 8.19216 4.15215 6.7816ZM9.99214 8C10.4378 8.00007 10.8706 8.14895 11.2219 8.42303C11.5733 8.69711 11.8231 9.08068 11.9316 9.51288C12.0401 9.94507 12.0012 10.4011 11.821 10.8087C11.6409 11.2163 11.3297 11.552 10.937 11.7626C10.5443 11.9732 10.0925 12.0466 9.65331 11.9711C9.21413 11.8957 8.81271 11.6758 8.51276 11.3462C8.21281 11.0167 8.03151 10.5964 7.99763 10.1521C7.96375 9.70773 8.07923 9.26482 8.32574 8.8936C8.33614 8.8808 8.34654 8.8648 8.35694 8.8496C8.5406 8.58643 8.78529 8.37167 9.07006 8.22371C9.35484 8.07575 9.67122 7.99899 9.99214 8Z" fill="#2A73EF"/>
</svg>
