<svg width="20" height="20" viewBox="0 0 20 20" fill="none" xmlns="http://www.w3.org/2000/svg">
<path d="M3.8 3.59961C3.32275 3.60008 2.86519 3.78987 2.52773 4.12734C2.19026 4.4648 2.00047 4.92236 2 5.39961V7.59961H6.82133C7.05521 7.59935 7.28162 7.51728 7.46133 7.36761L9.8 5.41828L8.22933 4.10894C7.8338 3.78009 7.33572 3.59992 6.82133 3.59961H3.8ZM11.4578 5.59961L8.22844 8.28939C7.83307 8.61862 7.33495 8.79913 6.82044 8.79961H2V14.5996C2.00047 15.0769 2.19026 15.5344 2.52773 15.8719C2.86519 16.2093 3.32275 16.3991 3.8 16.3996H16.2C16.6772 16.3991 17.1348 16.2093 17.4723 15.8719C17.8097 15.5344 17.9995 15.0769 18 14.5996V7.39961C17.9995 6.92236 17.8097 6.4648 17.4723 6.12734C17.1348 5.78987 16.6772 5.60008 16.2 5.59961H11.4578Z" fill="#2A73EF"/>
</svg>
