<svg width="20" height="20" viewBox="0 0 20 20" fill="none" xmlns="http://www.w3.org/2000/svg">
<path d="M10.0082 2L10.7498 3.4848L2.73057 7.6448C2.64572 7.68467 2.56978 7.74125 2.50731 7.81115C2.44484 7.88106 2.39712 7.96285 2.36701 8.05163C2.33689 8.14041 2.325 8.23436 2.33205 8.32784C2.3391 8.42133 2.36494 8.51243 2.40802 8.5957C2.45111 8.67896 2.51056 8.75267 2.5828 8.81242C2.65505 8.87217 2.7386 8.91672 2.82848 8.94342C2.91835 8.97011 3.01268 8.9784 3.10583 8.96777C3.19897 8.95715 3.28902 8.92784 3.37057 8.8816L11.3706 4.732L12.0906 6.176L14.1778 2.3448L10.0082 2ZM15.5738 6.8696C15.3892 6.8696 15.2121 6.94293 15.0816 7.07345C14.9511 7.20398 14.8778 7.38101 14.8778 7.5656V18H17.6602V7.5656C17.6602 7.4742 17.6422 7.3837 17.6072 7.29925C17.5722 7.21481 17.5209 7.13808 17.4563 7.07345C17.3917 7.00882 17.315 6.95756 17.2305 6.92258C17.1461 6.8876 17.0556 6.8696 16.9642 6.8696H15.5738ZM11.3962 8.96C11.2116 8.96 11.0346 9.03333 10.904 9.16385C10.7735 9.29438 10.7002 9.47141 10.7002 9.656V18H13.4826V9.652C13.4826 9.46741 13.4092 9.29038 13.2787 9.15985C13.1482 9.02933 12.9712 8.956 12.7866 8.956L11.3962 8.96ZM7.22577 11.04C7.04118 11.04 6.86415 11.1133 6.73362 11.2439C6.6031 11.3744 6.52977 11.5514 6.52977 11.736V18H9.31617V11.7392C9.31617 11.5546 9.24284 11.3776 9.11232 11.2471C8.98179 11.1165 8.80476 11.0432 8.62017 11.0432L7.22577 11.04ZM3.05137 13.1304C2.95997 13.1304 2.86947 13.1484 2.78502 13.1834C2.70058 13.2184 2.62385 13.2696 2.55922 13.3343C2.4946 13.3989 2.44333 13.4756 2.40835 13.5601C2.37337 13.6445 2.35537 13.735 2.35537 13.8264V18H5.13857V13.8264C5.13857 13.735 5.12057 13.6445 5.08559 13.5601C5.05061 13.4756 4.99935 13.3989 4.93472 13.3343C4.87009 13.2696 4.79336 13.2184 4.70892 13.1834C4.62448 13.1484 4.53397 13.1304 4.44257 13.1304H3.05137Z" fill="#2A73EF"/>
</svg>
