<svg xmlns="http://www.w3.org/2000/svg" xmlns:xlink="http://www.w3.org/1999/xlink" width="96" height="97.176" viewBox="0 0 96 97.176"><defs><linearGradient id="a" x1="0.162" y1="0.868" x2="1" y2="0.209" gradientUnits="objectBoundingBox"><stop offset="0" stop-color="#f87c56"/><stop offset="1" stop-color="#ffac65"/></linearGradient><linearGradient id="b" x1="0.733" y1="0.627" x2="-0.104" y2="0.347" gradientUnits="objectBoundingBox"><stop offset="0" stop-color="#fff"/><stop offset="1" stop-color="#ff7e57"/></linearGradient></defs><ellipse cx="48" cy="48.588" rx="48" ry="48.588" fill="url(#a)"/><g transform="translate(25.557 16.602)"><path d="M26.016-10.025a52.21,52.21,0,0,0,6.4-32.958A52.059,52.059,0,0,0,2.865,11.269,51.273,51.273,0,0,0,26.016-10.025Z" transform="translate(-2.394 42.983)" fill="#fff"/><ellipse cx="7.092" cy="7.179" rx="7.092" ry="7.179" transform="translate(27.897 31.986)" fill="#fff"/><g transform="translate(3.399 47.013)"><path d="M18.869-27.4c-.2-.03-.4-.058-.6-.082a2.555,2.555,0,0,0-2.061.668l-.42.389a54.313,54.313,0,0,1-12.261,8.4,32.072,32.072,0,0,0,34.419,1.16A32.165,32.165,0,0,0,18.869-27.4Z" transform="translate(-3.527 27.502)" stroke="rgba(0,0,0,0)" stroke-width="1" fill="url(#b)"/></g></g></svg>