<?xml version="1.0" encoding="UTF-8"?>
<svg id="a" data-name="Layer 1" xmlns="http://www.w3.org/2000/svg" viewBox="0 0 506 186">
  <defs>
    <style>
      .c, .d {
        fill: #c41230;
      }

      .c, .d, .e, .f {
        stroke-width: 0px;
      }

      .c, .e, .f {
        fill-rule: evenodd;
      }

      .e {
        fill: #fff;
      }

      .f {
        fill: #000;
      }
    </style>
  </defs>
  <g id="b" data-name="Vanguard">
    <path class="e" d="M343.09,113.27c0,.58,0,1.01,0,1.45,0,4.17-.03,8.35.04,12.52.08,4.36,2.45,7.23,6.65,8.3,3.46.89,6.59.21,9.44-1.91.32-.24.65-.47,1.2-.88v3.08h12.09c-1.55-.7-2-2.01-2.14-3.51-.05-.56-.08-1.12-.09-1.68,0-6.94,0-13.89,0-20.83,0-.46-.05-.92-.07-1.46-4.1.17-8.05.34-12,.5,1.89.89,2.13,2.5,2.15,4.14.05,3.93.05,7.87,0,11.8-.01.95-.2,1.93-.51,2.82-.46,1.32-1.48,2.06-2.91,2.17-2.35.17-3.79-1.27-3.8-3.89-.02-5.38,0-10.76,0-16.14v-1.36c-.51-.03-.9-.06-1.29-.06-8.87,0-17.74,0-26.61,0-3.13,0-6.16.5-8.87,2.21-5.1,3.21-5.89,9.68-1.62,13.92,1.22,1.21,2.74,2.11,4.07,3.12-.79.23-1.72.47-2.63.78-.91.31-1.33.95-1.24,1.94.29,3.27,2.52,5.44,5.81,5.61.76.04,1.53-.06,2.29.02,1.86.2,3.77.26,5.56.75,1.63.45,2.45,1.85,2.5,3.6.06,1.85-.74,3.2-2.44,3.91-2.22.93-4.52,1.08-6.81.25-1.37-.5-2.54-1.3-2.89-2.81-.35-1.48.31-2.6,1.81-3.39-2.77-.4-5.28-.55-7.66.63-3.47,1.72-3.89,5.74-.75,7.98,1.28.92,2.78,1.62,4.28,2.13,4.16,1.4,8.47,1.18,12.76.81,3.03-.26,5.95-1.01,8.47-2.82,5-3.58,4.65-10.86-.72-13.84-1.27-.7-2.75-1.23-4.19-1.37-2.79-.27-5.61-.19-8.41-.28-.96-.03-2.19-.01-2.27-1.26-.08-1.31,1.18-1.13,2.05-1.25,3.32-.45,6.57-1.16,9.51-2.84,4.53-2.59,5.6-7.75,2.54-11.95-.18-.24-.34-.49-.58-.83.34-.04.54-.08.73-.08,2.12,0,4.25,0,6.59,0Z"/>
    <path class="e" d="M252.48,115.59c2.11-.57,4.09-1.2,6.11-1.62,1.71-.35,3.46-.29,4.98.76,1.45,1,1.49,2.64,0,3.55-.9.55-1.97.85-3,1.14-2.65.76-5.41,1.23-7.96,2.22-2.74,1.07-4.29,3.32-4.4,6.35-.12,3.03,1.87,5.57,5.24,6.9,3,1.18,6.14,1.03,9.27,1,.21,0,.53-.12.61-.28.65-1.25,1.26-2.52,1.83-3.68-1.37-.18-2.66-.15-3.79-.55-2.57-.91-3.12-3.97-1.1-5.72,1.34-1.15,3.02-1.47,4.83-1.83,0,1.33,0,2.49,0,3.64,0,4.53,2.28,7.34,6.7,8.2.9.17,1.83.22,2.75.22,5.9.02,11.8,0,17.7,0h1.28c-1.86-1.01-2.22-2.67-2.23-4.45-.03-4.09-.01-8.19,0-12.28,0-.4.05-.8.11-1.2.4-2.3,2-3.62,4.17-3.46,2,.15,2.95,1.37,2.96,3.9.01,4.45,0,8.91,0,13.36v4.04h12.17c-1.82-1.16-2.3-2.04-2.38-4.14-.01-.4,0-.8,0-1.2,0-4.45.04-8.91-.02-13.36-.06-4.6-2.64-7.62-7.12-8.54-3.23-.66-6.12.07-8.75,1.99-.31.22-.62.45-1.08.79-.05-1.09-.09-1.98-.14-3-4.07.17-8.04.33-12.02.49,2.02.91,2.15,2.67,2.16,4.41.04,5.82.02,11.64.01,17.46,0,.34-.05.69-.08,1.01-4.11.76-6.4-1.13-6.42-5.18-.01-2.69-.03-5.38-.07-8.07-.08-5.11-2.33-8.07-7.26-9.44-4.13-1.15-8.27-.86-12.38.09-.32.07-.71.42-.82.72-.66,1.89-1.24,3.8-1.86,5.74Z"/>
    <path class="e" d="M404.71,108.84c1.59.73,1.97,2.09,2.14,3.58.04.36.03.72.03,1.08,0,5.7-.01,11.4-.02,17.1,0,.38-.05.77-.07,1.12-4.3.76-6.5-1.08-6.54-5.29-.02-2.89-.02-5.78-.17-8.67-.19-3.72-1.69-6.66-5.36-8.11-4.71-1.86-9.51-1.58-14.32-.51-.26.06-.59.33-.68.58-.66,1.96-1.27,3.93-1.89,5.87,2.06-.56,4.04-1.19,6.06-1.62,1.63-.35,3.29-.29,4.79.6,1.72,1.02,1.8,2.82.09,3.82-.85.49-1.84.77-2.8,1.02-2.25.59-4.56.97-6.76,1.68-3.71,1.2-5.71,3.88-5.66,7.21.05,3.06,2.17,5.52,5.76,6.77,2.84.99,5.77.83,8.7.81.24,0,.6-.15.7-.33.64-1.22,1.23-2.46,1.8-3.62-1.37-.19-2.63-.21-3.8-.55-1.33-.39-2.08-1.46-2.27-2.85-.18-1.33.36-2.48,1.46-3.08,1.37-.75,2.89-1.21,4.59-1.88,0,1.88-.06,3.36.01,4.83.15,3.19,1.65,5.54,4.67,6.65,1.37.5,2.88.8,4.33.82,6.18.09,12.36.04,18.54.03.31,0,.63-.05.94-.07-1.88-.85-2.13-2.49-2.15-4.11-.07-3.93-.09-7.87,0-11.8.06-2.86,1.77-4.61,4.62-4.92,1.06-.12,2.15-.02,3.37-.02,0-1.9-.04-3.78.02-5.65.03-.84-.3-1.14-1.09-1.2-2.55-.18-4.66.61-6.22,2.69-.17.23-.37.43-.8.92v-3.39c-4.11.17-8.07.33-12.02.49Z"/>
    <path class="e" d="M444.11,110.06c-.21,0-.26,0-.29-.01-.36-.18-.71-.36-1.07-.54-4.16-2.05-8.16-1.74-11.93.92-6.59,4.65-7.52,15.91-1.89,21.86,2.74,2.89,6,4.36,10.01,3.92.6-.07,1.44-.21,1.72-.62.93-1.37,1.66-2.88,2.51-4.4-4.13-.03-6.08-1.55-7.12-5.43-.68-2.54-.66-5.1.03-7.61.27-.98.76-1.98,1.41-2.74,1.87-2.19,5.11-1.65,6.16,1.02.38.98.51,2.11.52,3.17.05,4.98.02,9.95.03,14.93,0,.42.04.85.05,1.28h12.28c-1.35-.49-1.88-1.53-2.09-2.78-.11-.67-.16-1.35-.16-2.03-.02-11.07-.02-22.15-.03-33.23,0-.46,0-.92,0-1.46-4.21.17-8.23.34-12.24.5,1.45.69,2.04,1.87,2.07,3.25.08,3.31.03,6.63.03,10Z"/>
    <path class="e" d="M215.99,96.32c-.02.1-.05.19-.07.29,1.89.96,2.65,2.71,3.31,4.54,2.99,8.34,6.05,16.66,8.95,25.03,2.08,6,6.85,8.4,12.53,9.86,4.48-13.23,8.95-26.43,13.43-39.65h-10.6c2.81,1.97,3.18,3.09,2.18,6.26-1.09,3.48-2.19,6.96-3.28,10.44-1.16,3.7-2.31,7.4-3.59,11.47-.28-.77-.45-1.2-.6-1.63-2.89-8.5-5.79-17-8.64-25.52-.27-.81-.62-1.13-1.51-1.11-2.81.06-5.62.02-8.43.02h-3.68Z"/>
    <path class="c" d="M343.09,113.27c-2.34,0-4.47,0-6.59,0-.19,0-.38.04-.73.08.24.34.4.59.58.83,3.07,4.2,1.99,9.36-2.54,11.95-2.94,1.68-6.19,2.39-9.51,2.84-.87.12-2.14-.07-2.05,1.25.08,1.25,1.31,1.22,2.27,1.26,2.8.1,5.62.02,8.41.28,1.43.14,2.92.67,4.19,1.37,5.37,2.98,5.72,10.26.72,13.84-2.52,1.81-5.44,2.56-8.47,2.82-4.29.37-8.6.59-12.76-.81-1.5-.51-2.99-1.21-4.28-2.13-3.14-2.24-2.72-6.26.75-7.98,2.38-1.18,4.89-1.04,7.66-.63-1.5.8-2.16,1.91-1.81,3.39.35,1.51,1.52,2.31,2.89,2.81,2.3.84,4.59.68,6.81-.25,1.7-.71,2.5-2.06,2.44-3.91-.05-1.75-.88-3.15-2.5-3.6-1.79-.49-3.69-.56-5.56-.75-.75-.08-1.52.02-2.29-.02-3.29-.17-5.52-2.35-5.81-5.61-.09-.99.33-1.64,1.24-1.94.91-.3,1.84-.54,2.63-.78-1.33-1.01-2.86-1.91-4.07-3.12-4.27-4.24-3.48-10.71,1.62-13.92,2.71-1.7,5.74-2.2,8.87-2.21,8.87,0,17.74,0,26.61,0,.39,0,.78.04,1.29.06v1.36c0,5.38-.02,10.76,0,16.14.01,2.62,1.46,4.07,3.8,3.89,1.43-.1,2.45-.85,2.91-2.17.31-.89.5-1.88.51-2.82.06-3.93.06-7.87,0-11.8-.02-1.64-.27-3.25-2.15-4.14,3.95-.17,7.9-.33,12-.5.03.54.07,1,.07,1.46,0,6.94,0,13.89,0,20.83,0,.56.03,1.12.09,1.68.14,1.49.59,2.81,2.14,3.51h-12.09v-3.08c-.56.41-.88.64-1.2.88-2.85,2.11-5.98,2.79-9.44,1.91-4.2-1.08-6.58-3.95-6.65-8.3-.07-4.17-.03-8.35-.04-12.52,0-.43,0-.86,0-1.45ZM328.53,118.22c-.27-.95-.41-2.1-.91-3.06-1.02-1.97-3.68-2.18-5.05-.51-1.34,1.63-1.5,5.44-.28,7.18.74,1.06,1.76,1.61,3.08,1.49,1.31-.13,2.13-.92,2.51-2.11.29-.9.41-1.86.64-2.99Z"/>
    <path class="c" d="M252.48,115.59c.62-1.94,1.21-3.86,1.86-5.74.11-.31.5-.65.82-.72,4.12-.94,8.25-1.24,12.38-.09,4.93,1.37,7.18,4.33,7.26,9.44.04,2.69.06,5.38.07,8.07.02,4.04,2.31,5.93,6.42,5.18.03-.32.08-.66.08-1.01,0-5.82.03-11.64-.01-17.46-.01-1.73-.14-3.5-2.16-4.41,3.97-.16,7.94-.32,12.02-.49.05,1.02.09,1.91.14,3,.47-.34.77-.57,1.08-.79,2.63-1.92,5.52-2.65,8.75-1.99,4.48.92,7.06,3.93,7.12,8.54.06,4.45.01,8.91.02,13.36,0,.4,0,.8,0,1.2.08,2.1.56,2.98,2.38,4.14h-12.17v-4.04c0-4.45,0-8.91,0-13.36,0-2.53-.95-3.76-2.96-3.9-2.17-.16-3.77,1.16-4.17,3.46-.07.39-.11.8-.11,1.2,0,4.09-.02,8.19,0,12.28.01,1.79.37,3.44,2.23,4.45h-1.28c-5.9,0-11.8,0-17.7,0-.92,0-1.85-.05-2.75-.22-4.42-.86-6.7-3.67-6.7-8.2,0-1.16,0-2.32,0-3.64-1.8.35-3.49.67-4.83,1.83-2.03,1.75-1.47,4.81,1.1,5.72,1.13.4,2.42.37,3.79.55-.57,1.17-1.18,2.44-1.83,3.68-.08.16-.4.27-.61.28-3.13.03-6.26.18-9.27-1-3.36-1.32-5.35-3.86-5.24-6.9.11-3.03,1.66-5.28,4.4-6.35,2.56-.99,5.31-1.47,7.96-2.22,1.03-.29,2.11-.59,3-1.14,1.49-.91,1.45-2.55,0-3.55-1.52-1.05-3.27-1.11-4.98-.76-2.02.42-4.01,1.05-6.11,1.62Z"/>
    <path class="c" d="M404.71,108.84c3.96-.16,7.91-.32,12.02-.49v3.39c.43-.5.63-.7.8-.92,1.57-2.07,3.67-2.87,6.22-2.69.79.06,1.11.36,1.09,1.2-.06,1.87-.02,3.75-.02,5.65-1.22,0-2.31-.1-3.37.02-2.85.31-4.55,2.07-4.62,4.92-.09,3.93-.07,7.87,0,11.8.03,1.62.27,3.26,2.15,4.11-.31.03-.63.07-.94.07-6.18,0-12.36.05-18.54-.03-1.45-.02-2.97-.32-4.33-.82-3.03-1.11-4.53-3.46-4.67-6.65-.07-1.47-.01-2.95-.01-4.83-1.69.68-3.22,1.13-4.59,1.88-1.1.61-1.64,1.75-1.46,3.08.19,1.39.93,2.46,2.27,2.85,1.17.34,2.43.37,3.8.55-.57,1.16-1.15,2.41-1.8,3.62-.1.19-.46.33-.7.33-2.92.02-5.86.18-8.7-.81-3.59-1.25-5.71-3.72-5.76-6.77-.05-3.33,1.95-6.01,5.66-7.21,2.2-.71,4.51-1.09,6.76-1.68.96-.25,1.96-.53,2.8-1.02,1.71-1,1.64-2.8-.09-3.82-1.5-.89-3.17-.95-4.79-.6-2.02.43-4,1.06-6.06,1.62.62-1.94,1.23-3.91,1.89-5.87.08-.25.41-.52.68-.58,4.82-1.08,9.61-1.36,14.32.51,3.67,1.45,5.18,4.39,5.36,8.11.15,2.88.14,5.78.17,8.67.03,4.21,2.24,6.06,6.54,5.29.02-.35.07-.74.07-1.12.01-5.7.02-11.4.02-17.1,0-.36,0-.72-.03-1.08-.17-1.49-.54-2.85-2.14-3.58Z"/>
    <path class="c" d="M444.11,110.06c0-3.37.05-6.69-.03-10-.03-1.38-.62-2.56-2.07-3.25,4.01-.16,8.03-.33,12.24-.5,0,.54,0,1,0,1.46,0,11.08.01,22.15.03,33.23,0,.68.05,1.36.16,2.03.21,1.25.74,2.3,2.09,2.78h-12.28c-.02-.43-.05-.86-.05-1.28,0-4.98.03-9.95-.03-14.93-.01-1.06-.14-2.19-.52-3.17-1.05-2.67-4.29-3.21-6.16-1.02-.65.76-1.14,1.77-1.41,2.74-.69,2.51-.7,5.08-.03,7.61,1.03,3.88,2.99,5.4,7.12,5.43-.85,1.52-1.58,3.03-2.51,4.4-.28.41-1.12.55-1.72.62-4.01.44-7.27-1.02-10.01-3.92-5.63-5.94-4.7-17.2,1.89-21.86,3.77-2.66,7.77-2.97,11.93-.92.36.18.71.36,1.07.54.03.02.08,0,.29.01Z"/>
    <path class="c" d="M215.99,96.32h3.68c2.81,0,5.62.04,8.43-.02.89-.02,1.23.3,1.51,1.11,2.86,8.51,5.75,17.01,8.64,25.52.15.44.32.86.6,1.63,1.27-4.07,2.43-7.77,3.59-11.47,1.09-3.48,2.19-6.96,3.28-10.44,1-3.17.63-4.29-2.18-6.26h10.6c-4.48,13.23-8.95,26.43-13.43,39.65-5.68-1.46-10.45-3.86-12.53-9.86-2.9-8.37-5.96-16.69-8.95-25.03-.66-1.84-1.42-3.59-3.31-4.54.02-.1.05-.19.07-.29Z"/>
    <path class="e" d="M328.53,118.22c-.24,1.13-.35,2.09-.64,2.99-.38,1.19-1.2,1.98-2.51,2.11-1.32.13-2.34-.43-3.08-1.49-1.22-1.74-1.06-5.55.28-7.18,1.37-1.66,4.02-1.45,5.05.51.5.96.64,2.11.91,3.06Z"/>
    <path class="c" d="M461.95,95.71c-2.46,0-4.45,1.99-4.45,4.45s1.99,4.45,4.45,4.45,4.45-1.99,4.45-4.45-1.99-4.45-4.45-4.45ZM461.95,103.98c-2.11,0-3.82-1.71-3.82-3.82s1.71-3.82,3.82-3.82,3.82,1.71,3.82,3.82-1.71,3.82-3.82,3.82Z"/>
    <path class="d" d="M460.21,102.14v-3.96h1.75c.35,0,.62.04.8.11.18.07.33.2.44.38.11.18.16.38.16.6,0,.28-.09.52-.27.71-.18.19-.46.32-.84.37.14.07.24.13.32.2.15.14.3.32.44.53l.69,1.08h-.66l-.52-.82c-.15-.24-.28-.42-.38-.55-.1-.13-.19-.21-.27-.26-.08-.05-.16-.09-.24-.11-.06-.01-.16-.02-.29-.02h-.61v1.76h-.52ZM460.73,99.93h1.13c.24,0,.43-.02.56-.07.14-.05.24-.13.31-.24.07-.11.11-.23.11-.35,0-.19-.07-.34-.2-.46-.14-.12-.35-.18-.64-.18h-1.25v1.31Z"/>
    <path class="f" d="M120.19,130.02h3.78c.08-.35.15-.68.24-1.07h1.47c.06.37.12.71.19,1.06h3.85c.08-.35.16-.68.24-.98.71-.47,1.48-.04,1.69.95h3.84c.08-.35.17-.68.25-1.03.83-.11,1.65-.34,1.51,1.02h3.95c.06-.32.12-.65.19-1.03h1.43c.08.31.16.64.26,1.06,3.26.09,6.58.47,9.34-2.29-4.37.93-8.63.51-12.87.52-26.93.04-53.86,0-80.79.05-1.31,0-2.1-.23-2.39-1.61-.21-1.03-.76-1.83-1.98-1.96-.25-.03-.46-.48-.93-1h8.72c.02-.12.05-.25.07-.37-.36-.09-.71-.25-1.07-.26-1.73-.03-3.45-.04-5.18,0-.7.02-1.1-.18-1.32-.88-.29-.89-.72-1.68-1.74-2-.28-.09-.45-.54-.82-1.01h3.43c-.86-1.18-1.6-2.26-2.43-3.26-.21-.25-.7-.34-1.07-.39-3.73-.51-7.47-1-11.21-1.5-.41-.06-.82-.15-1.23-.23,0-.14,0-.28.01-.41.38,0,.76-.04,1.13,0,1.71.2,3.43.38,5.13.64,1.09.17,2.06.13,2.85-.77.16-.18.37-.3.56-.45,1.5-1.2,1.48-1.19.82-2.97-3.32-8.85-3.2-17.57,1.03-26.12.26-.53.57-1.03.92-1.65,2.32,1.55,4.53,3.07,6.79,4.5.53.34,1.25.55,1.88.52,2.52-.1,5.04-.3,7.67-.74-.65-.35-1.29-.69-1.75-.94.43-.39.96-.78,1.39-1.26,3.16-3.56,3.47-8.16,4.54-12.48.18-.74.33-1.48.45-2.03-1.39-.63-2.69-1.22-3.78-1.72,2.25-2.25,4.81-4.15,5.94-7.1-1.48-.61-2.67-1.1-3.83-1.58.5-.4.96-.63,1.23-1,1.56-2.08,3.08-4.19,4.5-6.14,1.23.3,2.45.47,3.57.9,1.59.61,2.56.14,3.68-1.1,5.67-6.29,11.45-12.48,17.18-18.71.37-.4.66-.87.97-1.27.69.36,1.41.8,2.18,1.14,10.96,4.75,21.93,9.48,32.89,14.25.76.33,1.17.31,1.66-.42,1.26-1.85,2.61-3.63,4.17-5.77,3.85,4,7.64,8.13,11.62,12.06,14.34,14.14,28.76,28.21,43.12,42.34.92.9,1.67,1.58,2.89.6.07-.06.22-.04.34-.04.03,0,.06.05,0,0-5.5,4.63-10.13,10.16-15.18,15.27-5.08,5.13-10.04,10.38-15.05,15.59-.32.34-.6.72-.84,1.01-.3-.17-.64-.47-1.02-.56-3.04-.75-6.09-1.42-9.12-2.2-1.12-.29-1.73.28-2.29,1.05-1.17,1.61-2.25,3.29-3.5,4.83-1.05,1.29-2.1,2.52-2.37,4.24-.04.24-.41.49-.68.6-.24.1-.55.02-.83.02H58.2c-.51-2.39,1.18-4.76-.49-7.04h5.47c-.22.35-.42.66-.68,1.08h3.99c-.05-.07-.1-.14-.14-.21.43-.29.84-.74,1.31-.82.27-.04.64.52.81,1.05h3.79c.08-.28.17-.61.28-1.02h1.44c.06.32.13.65.2,1.03h3.84c.07-.3.16-.63.26-1.03h1.46c.06.31.13.64.21,1.03h3.91c.05-.35.1-.68.15-1.04.86-.08,1.77-.42,1.62,1.04h3.96c.06-.32.12-.65.18-.94.68-.51,1.49-.05,1.68.94h3.8c-.05-.08-.09-.15-.14-.23.39-.29.77-.78,1.18-.82.34-.03.72.48,1.09.75-.05.1-.11.2-.16.3h3.8c.07-.29.16-.62.26-1.04h1.41c.08.34.16.67.25,1.04h3.85c-.05-1.16.63-1.29,1.62-1.04.08.29.16.62.26,1.02h3.87c.06-.33.12-.67.18-1.04h1.43c.07.33.14.66.22,1.05h3.81c-.05-.1-.1-.21-.15-.32.43-.26.83-.69,1.28-.74.29-.03.64.48.96.75-.03.11-.05.22-.08.32ZM171.03,109.7c.57.1,1.25.45,1.69.26,2.18-.96,4.3-2.07,6.44-3.13-.04-.09-.08-.17-.12-.26-2.66,1.06-5.32,2.12-7.97,3.18-1.04.39-2.07.78-3.19,1.2.25.45.44.78.62,1.1,2.36-.85,2.5-.99,2.53-2.34ZM155.68,122.31c.91-.19,1.82-.37,2.83-.58v2.09c1.57-.44,2.04-1.82,2.97-2.73-1.04,0-2.03.03-2.99.25-.97.22-1.89.62-2.83.95-2.02,1.04-4.04,2.07-6.37,3.27,2.83.36,4.36-.49,6.39-3.24ZM95.67,40.43c-.14.08-.31.12-.41.23-3.89,4.22-7.78,8.44-11.66,12.66-.05.05-.04.15-.09.32,1.83.42,3.66.83,5.48,1.24,2.76.62,2.78.63,4.23-1.83.19-.32.09-.79.14-1.31,1.94-.21,5.83-5.82,6.28-9.65-1.74.37-2.8-.82-4.01-1.7,1.28-.03,2.55-.03,3.83-.11.32-.02.83-.25.9-.49.61-2.05,1.13-4.12,1.68-6.18-1.36,1.15-2.53,2.38-3.67,3.65-.93,1.03-1.81,2.11-2.71,3.16ZM124.4,123.4c.24-3.81.49-7.36.66-10.92.02-.37-.37-.85-.7-1.13-2.2-1.94-4.54-3.72-6.61-5.78-1.87-1.87-3.84-2.44-6.49-2.33-3.56.15-7.02.19-10.05,2.35-.03.02-.07.04-.11.05-.64.18-.83.59-.82,1.26.05,1.96.02,3.93.02,5.9v9.33c.5.21.93.34,1.3.57.37.23.65.6,1.02.82.32.19.71.38,1.07.37,6.85-.21,13.73.54,20.71-.47ZM152.7,83.9c2.07,3.69,4.13,7.18,5.98,10.77.78,1.51,1.67,2.32,3.41,1.98.24-.05.51.07.77.11.02.08.04.16.06.24-.55.27-1.1.54-1.76.86.03.4-.08.94.13,1.32,2.08,3.79,4.21,7.55,6.36,11.4,5.35-2.09,10.62-4.16,16.06-6.29-13.14-12.33-26.13-24.53-39.13-36.73,2.67,3.8,5.55,7.4,8.3,11.1,1.11,1.5,2.19,2.72,4.26,2.27.02,0,.07.11.09.13-1.47.92-2.95,1.84-4.53,2.83ZM150.9,60.59c.43.5.82.96,1.21,1.41,11.11,12.93,22.23,25.86,33.34,38.78q1.78,2.07,4.28.86c2.36-1.15,4.71-2.32,7.15-3.52-.38-.35-.63-.6-.9-.83-14.22-12.26-28.45-24.51-42.64-36.79-.88-.76-1.55-.83-2.43.09ZM186.8,103.02c-12.11-14.09-24.16-28.1-36-41.88-2.24.68-4.26,1.28-6.27,1.93-.36.12-.88.41-.92.68-.05.36.3.77.47,1.17.03.07.01.15.02.39-.17.11-.43.28-.71.47.28.28.46.49.67.68,12.87,12.08,25.74,24.16,38.61,36.24q1.78,1.67,4.14.33ZM140.96,123.32c1.22-.06,2.4.11,3.42-.22,1.89-.6,3.79-1.3,5.51-2.28,4.37-2.5,8.65-5.17,13.14-7.87-.41-.34-.72-.58-1.01-.84-3.03-2.69-6.12-5.32-9.05-8.1-1.21-1.14-2.33-1.63-3.92-1.04-.63.23-1.34.25-2.01.33-2.01.24-4.03.47-6.07.7v19.31ZM144.89,52.66c.19.17.4.36.61.54,17.01,14.67,34.04,29.32,51.03,44.02,1.05.91,1.64.33,2.46-.26-17.48-17.14-34.89-34.2-52.29-51.26-.07.07-.14.14-.22.21,1.24,1.33,1.97,3.09,3.79,4.31-1.78.81-3.54,1.61-5.37,2.44ZM105.35,59.12c.15.08.22.14.29.16,8.95,2.25,17.97,2.63,27.04.81.79-.16,1.71-.35,2.27-.86,1.66-1.5,3.18-3.16,4.73-4.79.23-.24.29-.64.49-1.1-.9.06-1.58.16-2.25.13-3.52-.12-7.07,0-10.53-.48-7.28-.99-13.96-3.78-20.25-7.53-.3-.18-.69-.21-1.04-.32.14.36.21.79.44,1.08,1.29,1.59,2.6,3.15,3.95,4.69.36.41.88.69,1.23.97-2.03,2.3-4.18,4.74-6.37,7.24ZM128.9,80.93c.03-.09.07-.19.1-.28-8.39-6.65-16.78-13.29-25.18-19.94.03.44.2.74.39,1.03,2.89,4.34,5.82,8.65,8.64,13.04.94,1.47,1.84,2.69,3.82,2.23.05-.01.12.07.13.07-3.49,2.24-6.99,4.49-10.62,6.82,2.36,2.13,4.58,4.15,6.83,6.14.2.17.61.25.87.18,5.52-1.39,10.41-4.03,14.85-7.55-.28-.42-.44-.84-.75-1.06-.35-.24-.83-.28-1.25-.41.02-.09.04-.18.06-.27h2.11ZM107.09,43.91c.28.15.51.3.76.41,5.01,2.31,10.2,4.13,15.65,4.96,3.7.57,7.48.7,11.24.88,1.43.07,2.87-.29,3.41-2.13-11.44-4.95-22.89-9.9-34.34-14.85.82,1.46,1.69,2.76,2.7,3.95.97,1.15,1.5,2.71,3.01,3.37-.18.14-.42.24-.54.43-.63.97-1.24,1.96-1.88,2.98ZM52.21,82.78c-5.35,8.82-4.93,20.79-.91,28.43,1.14-.9,2.23-1.84,3.4-2.68.67-.48.85-1.03.82-1.82-.29-6.6-.63-13.21-.73-19.81-.03-2.05-.7-3.32-2.58-4.11ZM105.73,61.29c-.05.08-.1.17-.15.25,8.14,6.45,16.29,12.9,24.52,19.42,1.54-2.09,3.02-4.11,4.56-6.22-9.74-4.53-19.33-8.99-28.93-13.45ZM106.82,61.31c9.35,4.35,18.7,8.69,28.34,13.17.82-3.42,1.6-6.67,2.43-10.11-10.63,1.34-20.81.37-30.77-3.07ZM55.89,85.27c.64,7.07,1.25,13.8,1.88,20.79,2.69-2.14,5.19-4.13,7.53-6-1.84-.84-3.61-1.64-5.38-2.45.03-.1.05-.2.08-.3.42,0,.85.02,1.27,0,.59-.04,1.38.11,1.72-.22,1.39-1.31,2.64-2.76,3.98-4.2-3.51-2.42-7.16-4.92-11.08-7.63ZM145.04,125.03H62.64c.38.65.66,1.13.94,1.61.25-.33.5-.67.82-1.1h1.22c.07.4.14.74.2,1.08h3.82c.11-.39.21-.75.31-1.09h1.39c.09.39.16.73.23,1.06h3.86c.08-.4.16-.74.23-1.08h1.4c.1.4.19.76.28,1.1h3.84c.1-.39.19-.75.27-1.08h1.43c.05.39.1.72.14,1.06h3.91c.08-.4.14-.73.21-1.05h1.48c.07.4.13.74.18,1.04h3.88c.1-.41.18-.74.25-1.06h1.42c.07.38.13.72.19,1.07h3.87c.09-.39.16-.73.24-1.06h1.36c.1.4.19.74.27,1.06h3.85c.11-.4.19-.74.28-1.06h1.37c.08.39.15.73.21,1.07h3.87c.08-.4.15-.74.22-1.06h1.45c.09.41.16.74.23,1.04h3.86c.09-.41.16-.75.22-1.07h1.42c.1.4.19.76.27,1.09h3.86c.05-.38.1-.71.15-1.07h1.52c.05.39.1.72.14,1.06h3.91c.08-.39.15-.73.22-1.07h1.4c.08.38.16.72.24,1.08h3.85c.08-.39.14-.73.22-1.09h1.39c.11.39.22.75.32,1.09h3.79c.09-.39.17-.73.25-1.06h1.42c.1.41.18.74.26,1.07h4.93c-.13-.55-.24-1.05-.36-1.58ZM113.83,76.98c-3.64-5.47-7.11-10.69-10.58-15.9-.13,0-.27-.01-.4-.02-.18.54-.51,1.09-.52,1.63-.02,2.52.07,5.05.09,7.57.02,2.43,0,4.87,0,7.44,1.76,0,3.31,0,4.86,0,.2,0,.52.02.57-.08.48-.99,1.37-.59,2.1-.62,1.19-.05,2.39-.01,3.88-.01ZM132.89,84.23c-1.24-.55-2.32-1.03-3.47-1.55-4.52,3.68-9.65,6.48-15.56,8.02,1.37,1.47,2.55,2.78,4.73,2.47,1.74-.25,3.52-.18,5.28-.3.88-.06,1.75-.21,2.88-.35-1.05-.9-1.85-1.6-2.66-2.3.09-.11.18-.21.27-.32.99.77,1.97,1.54,2.97,2.33,1.37-.98,2.68-1.9,3.97-2.85.24-.17.47-.46.54-.74.38-1.47.71-2.95,1.05-4.41ZM198.17,98.25c-.31.04-.43.03-.52.08-3.19,1.68-6.39,3.35-9.57,5.05-.34.18-.64.48-.88.79-5.36,6.64-10.71,13.31-16.08,19.94-.65.8-.65,1.59-.45,2.68,9.22-9.56,18.3-18.98,27.5-28.53ZM151.89,102.53c3.74,3.32,7.38,6.57,11.06,9.8.19.17.67.21.91.1,1.1-.55,2.17-1.18,3.3-1.81-1.84-3.29-3.67-6.57-5.51-9.85-1.24-2.22-1.23-2.21-3.3-.91-.64.4-1.32.77-2.02,1.05-1.41.56-2.85,1.05-4.43,1.63ZM142.92,94.17c.02.12,0,.33.09.41,1.59,1.47,2.97,3.31,5.58,2.8.77-.15,1.6-.02,2.4-.03.24,0,.61.05.69-.07.72-1.08,1.79-.57,2.71-.62,1.28-.07,2.58-.02,3.86-.02-3.72-3.16-7.45-6.07-11.19-8.96-.22-.17-.62-.33-.84-.25-.98.35-1.93.77-2.88,1.21-.18.08-.37.34-.38.52-.03,1.18-.02,2.36-.02,3.49.65.13,1.05.22,1.45.3.03.11.06.21.09.32-.48.28-.95.55-1.56.91ZM138.07,61.92c-1-.36-2.02-.49-2.73-1.04-.73-.57-1.33-.65-2.17-.47-7.01,1.55-14.07,1.6-21.15.57-2.24-.33-4.46-.81-7.01-1.28.59.27.86.42,1.16.54,9.58,3.84,19.51,4.97,29.73,3.87,2-.22,1.99-.25,2.17-2.19ZM140.46,51.99c-.97-.31-1.86-.6-2.76-.88-.6-.19-1.2-.54-1.81-.56-1.72-.04-3.44.15-5.16.07-8.02-.39-15.61-2.55-22.91-5.82-.34-.15-.69-.27-1.03-.41.21.43.51.67.84.85,2.42,1.25,4.79,2.61,7.28,3.69,7.78,3.37,15.88,4.94,24.37,4.03.72-.08,1.28-.19,1.17-.96ZM82.09,102.44c-1.4,1.29-2.65,2.75-4.19,3.8-2.03,1.38-2.76,3.09-2.43,5.45.14.98.02,1.99.02,3.12,1.45-.44,2.62-.85,3.82-1.14.79-.19,1.19-.58,1.42-1.38.67-2.43,1.38-4.85,2.19-7.24.38-1.12.24-1.93-.84-2.61ZM65.87,100.17c-1.52,1.21-3.1,2.44-4.65,3.7-1.12.9-2.68,1.64-3.18,2.82-.51,1.18.04,2.82.16,4.26.11,1.33.26,2.65.43,4.33,3.14-4.96,7.31-8.99,7.24-15.1ZM125.11,111.39c.26-3.16.5-6.08.74-9.03-.97-.22-1.82-.65-2.6-.54-2.51.34-5,.87-7.67,1.36,3.19,2.75,6.27,5.4,9.53,8.21ZM142.81,67.14c0,3.59-.02,6.88.03,10.16,0,.36.37.88.71,1.05,1.53.79,3.1,1.52,4.69,2.19.63.26,1.34.31,2.37.52-2.69-4.8-5.18-9.25-7.8-13.92ZM147.04,87.09c4.02,3.13,7.92,6.16,11.82,9.19.06-.05.12-.11.18-.16-2.22-3.96-4.44-7.91-6.66-11.88-1.81.97-3.5,1.87-5.34,2.85ZM77.1,84.92c2.35-.57,4.46-1.08,6.69-1.62-2.26-3.48-4.41-6.78-6.69-10.28v11.9ZM103.31,90.62c3.16.52,6.19.55,9.43-.21-1.32-1.19-2.44-2.2-3.56-3.22-1.12-1.01-2.24-2.02-3.32-2.99q-3.48,2.14-3.07,4.83c.48.06.97.11,1.71.2-.47.54-.78.91-1.19,1.39ZM100.34,102.21c4.17,1.61,7.39-.1,10.44-2.45-.91-1.29-2.09-1.76-3.63-1.62-1.35.12-2.72.02-4.08.02h-2.72v4.04ZM85.57,112.09c-1.61.53-2.98.96-4.32,1.45-.26.09-.55.37-.63.63-.68,2.17-1.32,4.35-2,6.64,1.58.11,3.04.21,4.6.32.77-2.96,1.52-5.85,2.35-9.03ZM78.61,60.78c1.47,1.34,3.05,2.81,4.67,4.22.21.19.69.21.99.13,2.48-.66,2.6-3.23,4.23-4.76-2.08-.32-3.82-.59-5.56-.84-.19-.03-.41-.02-.59.03-1.22.38-2.44.79-3.75,1.22ZM170.62,123.66c.08.03.16.06.25.09,4.62-5.74,9.24-11.48,13.86-17.22-4.63,4.17-9.1,8.49-13.56,12.81-.18.17-.31.47-.33.72-.1,1.19-.15,2.39-.21,3.59ZM91.43,73.09c-.54-.5-1.09-.91-1.52-1.42-.58-.68-1.1-.61-1.86-.26-1.63.75-3.32,1.39-5,2.04-.74.29-1.52.48-2.56.81,2.79.82,5.28,1.56,7.78,2.25.28.08.79-.09.97-.32.76-.98,1.43-2.02,2.18-3.1ZM160.98,123.89c3.08.27,6.07.54,9.05.81v-4.57c-3.71-.42-6.57,1.04-9.05,3.76ZM96.77,77.35c.99-4.51,1.93-8.76,2.87-13.01-.11-.08-.22-.16-.33-.25-.9.89-2.24,1.63-2.62,2.71-.9,2.56-1.35,5.27-1.94,7.93-.06.29.03.72.22.94.5.56,1.09,1.03,1.81,1.68ZM91.28,55.87c-2.83-.64-5.36-1.23-7.89-1.77-.22-.05-.56.08-.73.24-.7.71-1.35,1.46-2.04,2.22.52.7.94,1.33,1.43,1.9.17.2.55.36.8.32,2.86-.49,5.54-1.52,8.42-2.91ZM105.64,45.86c-1.81,1.6-3.49,3.1-2.46,5.78h7.33c-1.69-2.01-3.25-3.86-4.86-5.78ZM87.72,80.78c-3.27-2.5-6.35-4.84-9.42-7.19,1.58,2.9,3.32,5.58,5.07,8.27.91,1.4,1.32,1.61,2.78.83.63-.34.99-1.18,1.58-1.91ZM164.28,114.28c-.55-.91-1.07-.98-1.91-.45-2.23,1.43-4.52,2.74-6.78,4.11-2.04,1.23-4.08,2.46-6.12,3.69.03.1.06.21.09.31,1.23-.19,2.59-.12,3.66-.63,2.92-1.4,5.72-3.04,8.58-4.6-.07-.38-.14-.7-.2-1.02.92-.49,1.77-.93,2.68-1.41ZM129.52,115.41c.14-.02.27-.04.41-.06,1.6-3.81,3.19-7.62,4.79-11.42-1.79.22-.85,2.08-2,2.97.22-1.19.39-2.15.58-3.19-.7-.08-1.28-.14-1.85-.21-.1.18-.18.28-.2.39-.76,3.36-1.54,6.71-2.23,10.09-.09.43.32.96.5,1.45ZM128.51,114.13c.8-3.6,1.58-7.13,2.38-10.75-.69-.11-1.27-.2-1.92-.3-.41,1.76-.8,3.44-1.2,5.13-.12-.03-.23-.05-.35-.08.35-1.69.69-3.38,1.06-5.17-.46-.06-.82-.11-1.43-.19,0,3.03.07,5.91-.03,8.78-.04,1.18.21,2.01,1.49,2.59ZM83.64,104.09c-.93,3.09-1.8,5.99-2.71,9.03.41-.11.6-.15.79-.21q4.05-1.25,4.15-5.47c0-.36-.1-.8-.31-1.09-.54-.73-1.17-1.4-1.91-2.26ZM89.54,110c.48-2.16.93-4.26,1.4-6.35q.6-2.69-2.25-3.57c-.34,1.68-.76,3.34-1,5.03-.26,1.86-.26,3.7,1.84,4.9ZM88.87,70.77c-1.05-.97-1.92-1.68-2.67-2.49-.61-.66-1.17-.53-1.78-.12-2,1.34-2.84,3.54-4.22,5.34.09.14.17.28.26.42,2.73-1.02,5.46-2.05,8.41-3.15ZM111.74,99.86c1,.87,1.92,1.69,2.87,2.47.19.16.52.28.76.25,2.24-.29,4.48-.61,6.72-.93-2.54-1.23-5.06-2.25-7.58-3.23-.21-.08-.55,0-.76.12-.65.38-1.27.82-2.01,1.3ZM75.64,107.76c2.16-1.97,4.18-3.81,6.25-5.7-.58-.69-1.06-1.25-1.52-1.79-4.78,2.22-5.03,2.6-4.84,7.06,0,.04.02.07.11.43ZM75.51,120.5q2.59.51,3.3-1.85c.17-.57.35-1.15.51-1.72.28-.97.56-1.94.89-3.06-1.5.45-2.77.8-4.02,1.22-.27.09-.64.43-.65.66-.06,1.59-.03,3.18-.03,4.75ZM109.63,53.79h-6.62c0,1.25-.09,2.37.04,3.47.07.55.48,1.12.87,1.55.14.15.83.07,1.04-.14,1.55-1.55,3.03-3.16,4.67-4.89ZM149.4,59.52c-2.02-2.35-3.88-4.51-5.88-6.84v6.84h5.88ZM153.95,80.71c-3.32-4.28-6.61-8.51-9.9-12.75-.02.41.13.73.29,1.02,1.82,3.25,3.76,6.44,5.41,9.77.91,1.83,2.01,2.65,4.19,1.96ZM86.22,64.47c.06.09.11.18.17.26,2.19-.69,4.37-1.43,6.58-2.04,1.32-.36,1.93-1.11,1.9-2.39-1.83,0-3.67,0-5.5.01-.2,0-.48.14-.59.31-.87,1.27-1.71,2.56-2.56,3.84ZM62.91,116.21c1.2-.37,2.1-.58,2.34-1.81.39-2.05.86-4.08,1.29-6.11.35-1.65.68-3.3,1.02-4.94-1.02,1.11-2.06,2.24-2.45,3.56-.88,2.95-1.43,5.99-2.19,9.31ZM67.74,113.4c1.28-.52,1.93-1.21,2.07-2.46.15-1.31.53-2.59.8-3.88.5-2.37.98-4.75,1.47-7.12-.1-.11-.2-.21-.3-.32-.45.27-1.23.48-1.31.83-.96,4.25-1.82,8.53-2.74,12.95ZM143.46,42.66v7.09h5.42c-1.83-2.39-3.54-4.63-5.42-7.09ZM102.93,40.23h5.31c-1.79-2.4-3.47-4.63-5.31-7.1v7.1ZM86.22,67.73c.9.82,1.74,1.6,2.61,2.35.15.13.44.19.63.14,2.5-.62,4.06-2.68,4.09-5.29-2.39.91-4.81,1.83-7.33,2.79ZM183.41,106.9c-.04-.06-.08-.13-.12-.19-3.59,2.73-7.11,5.54-10.79,8.14-1.48,1.05-1.71,2.28-1.53,4.05,4.24-4.09,8.34-8.04,12.44-12ZM70.05,99.94c-.14-.09-.28-.17-.42-.26-.1.21-.15.47-.3.63-1.16,1.26-1.28,2.89-1.61,4.45-.7,3.31-1.4,6.62-2.12,9.99,1.15-.35,1.66-.99,1.87-2.07.7-3.7,1.5-7.38,2.25-11.07.11-.56.22-1.12.33-1.68ZM55.62,108.34c-1.6,1.27-2.93,2.33-4.23,3.36,1.42,3.28,1.76,3.54,4.23,3.34v-6.7ZM85.78,87.39c.07-.1.14-.2.21-.3.5.32,1,.64,1.61,1.03.27-1.12.51-2.08.79-3.2-.68.21-1.14.34-1.59.5-.58.22-1.39.31-1.67.73-1.08,1.67-1.98,3.45-2.97,5.23.38.31.67.56.98.81,1.45-1.12,2.84-2.19,4.3-3.33-.63-.56-1.15-1.02-1.67-1.48ZM77.22,93.26c.46.1.8.19,1.14.25.62.11,1.5.5,1.8.24.61-.55.92-1.45,1.33-2.22.04-.07-.11-.28-.22-.38-1.29-1.22-2.59-2.43-4.05-3.79v5.9ZM150.55,102.35c.03-.14.06-.28.09-.42-.45-.27-.9-.77-1.36-.79-2.75-.07-5.51-.04-8.26-.04v2.5c3.27-.43,6.39-.84,9.52-1.25ZM89.21,59.97c2.01-.09,3.68-.15,5.34-.27.24-.02.58-.29.66-.51.25-.71.39-1.45.6-2.26-1.23-.29-2.34-.59-3.47-.8-.24-.05-.64.14-.79.35-.74,1.03-1.42,2.11-2.34,3.5ZM92.88,84.96c-.35.68-.76,1.32-1.02,2.02-.25.67-.25,1.44-.53,2.08-.55,1.25-.07,1.96.97,2.63.84.55,1.23.37,1.43-.52.26-1.13.4-2.3.78-3.39.48-1.39,0-2.2-1.62-2.83ZM183.28,106.15c-.05-.06-.1-.12-.15-.17-3.08,1.62-6.16,3.24-9.23,4.86-1.85.97-1.97,1.26-1.44,3.54,3.63-2.76,7.23-5.5,10.82-8.23ZM105.88,83.63c1.72-1.14,3.32-2.21,5.05-3.36h-8.34c-.04.09-.08.18-.12.27,1.11,1.01,2.22,2.01,3.41,3.09ZM64.3,108.11c-.07-.03-.14-.06-.21-.09-1.68,2.47-3.36,4.94-5.14,7.57,1.3.16,2.36.29,3.55.44.61-2.68,1.21-5.3,1.8-7.91ZM84.79,66.18c.05.21.09.42.14.63.55.07,1.17.35,1.64.19,2.19-.75,4.34-1.64,6.51-2.45.82-.31,1.16-.86,1.1-1.71-2.5.73-4.96,1.41-7.39,2.19-.72.23-1.33.76-2,1.16ZM55.39,84.89c-.11.01-.23.03-.34.04.38,7.37.77,14.74,1.15,22.12.15.02.3.05.45.07.14-.43.43-.86.4-1.28-.48-6.67-.99-13.34-1.5-20-.02-.32-.1-.63-.15-.95ZM84.13,86.93h-6.28c-.03.11-.06.21-.1.32,1.34,1.25,2.68,2.5,4.08,3.81.84-1.51,1.59-2.87,2.29-4.13ZM124.52,101.07c-1.22-.47-2.16-.77-3.05-1.19-.9-.42-1.75-.97-2.45-1.37-.82-.6-1.49-1.1-2.22-1.64,1.65-.51,3.4.42,4.81-.72-2.43-.08-5.02-.73-6.82,2.04,2.77.99,5.54,2,8.32,2.95.33.11.75-.03,1.42-.07ZM77.87,71.99s-.18.19-.39.42c.68.52,1.28.98,1.95,1.48,1.02-1.54,1.98-2.99,3-4.52h-4.98c.14.88.27,1.65.42,2.62ZM75.47,74.02c-2.83,3.14-2.38,7.31-3.66,10.99.83.26,1.33.3,1.52-.65.68-3.45,1.42-6.89,2.14-10.34ZM89.32,110.9c-.1-.09-.21-.18-.31-.27-.49.39-1.39.75-1.41,1.16-.12,2.86-.07,5.72-.07,8.73.96-2.81,1.89-5.52,2.77-8.25.07-.23-.26-.58-.53-1.15-.49,2.11-.9,3.87-1.32,5.62-.12-.03-.24-.05-.36-.08.41-1.92.82-3.85,1.23-5.77ZM141,67.2c-1.2,1.28-2.42,2.49-2.62,4.32-.1.91-.36,1.8-.56,2.69q-.34,1.55,1.35,1.94c.61-2.99,1.22-5.97,1.83-8.95ZM90.07,109.67c.11.07.21.14.32.22.33-.25.84-.43.96-.76.87-2.39,1.66-4.81,2.5-7.29-.71-.21-1.27-.37-1.93-.56-.63,2.87-1.24,5.63-1.85,8.39ZM77.53,66.36c1.5-.26,2.84-.48,4.38-.75-1.52-1.69-2.87-3.2-4.38-4.89v5.64ZM97.7,51.92c1.18-.56,2.13-.9,2.41-1.99.55-2.16,1.06-4.33,1.61-6.58-2.81,2.11-3.26,5.21-4.01,8.58ZM159.96,124.26c-.02.15-.04.31-.05.46,3.37.8,6.74,1.59,10.17,2.41v-1.98c-3.41-.3-6.76-.59-10.11-.88ZM116.19,93.88c0-.08,0-.16,0-.25-2.21-.24-4.42-.4-6.61-.73-2.2-.34-4.37-.85-6.55-1.29,1.5,1.02,3.02,1.99,4.63,2.77.58.28,1.83.39,2,.1.56-.92,1.31-.57,1.98-.59,1.52-.05,3.04-.02,4.55-.02ZM88.73,78.68c-.92-.57-1.72-1.07-2.68-1.66.57-.03.96-.05,1.35-.07.01-.07.03-.13.04-.2-2.03-.59-4.05-1.18-6.08-1.77-.05.09-.09.19-.14.28,2.17,1.65,4.33,3.31,6.6,5.04.34-.61.63-1.12.91-1.62ZM60.75,87.57c-.01.09-.02.19-.04.28.83.55,1.64,1.14,2.5,1.65.26.16.7.23.97.13,1.46-.55,2.89-1.18,4.34-1.76.25-.1.53-.15.8-.23-.13-.19-.27-.39-.4-.58-2.72.17-5.45.34-8.17.51ZM143.67,84.12c-.04.09-.07.17-.11.26.88.68,1.75,1.37,2.64,2.04.17.13.49.27.63.2,1.54-.75,3.06-1.55,4.59-2.33-.04-.05-.08-.11-.12-.16h-7.63ZM101.08,63.08c-.9.52-3.63,11.33-3.63,14.61.32-.21.63-.48.69-.8.66-3.46,1.28-6.92,1.91-10.38.07-.39.19-.76.29-1.14.1.03.2.05.3.08-.18,1.11-.35,2.23-.53,3.34.11.07.23.15.34.22.21-.24.59-.48.6-.73.05-1.71.03-3.41.03-5.19ZM115.29,93.24c-1.04-1.82-2.32-2.83-4.29-2.03-.18.07-.4.06-.59.06-1.96,0-3.92,0-5.89,0-.01.12-.03.24-.04.36,3.6.54,7.21,1.07,10.81,1.61ZM114.04,102.8c.03-.09.07-.18.1-.28-.83-.72-1.66-1.44-2.51-2.13-.14-.12-.47-.17-.62-.08-1.39.78-2.76,1.6-4.28,2.49h7.31ZM127.91,118.53c-.11-.03-.23-.06-.34-.08.18-.83.28-1.69.56-2.48.38-1.11-.07-1.69-1.21-2.22v8.77c.92-2.19,1.77-4.13,2.52-6.1.12-.31-.22-.78-.34-1.18-.11.03-.23.05-.34.08-.28,1.07-.56,2.14-.84,3.21ZM86.02,105.84c.18-2.17.35-4.28.53-6.46-.89.13-1.53.15-1.88,1.11-.78,2.1-1.15,3.98,1.35,5.35ZM139.56,64.3c-.1-.12-.19-.24-.29-.36-.46.31-1.21.54-1.32.95-.68,2.45-1.21,4.94-1.81,7.51,2.71-2.14,2.67-5.28,3.42-8.1ZM73.85,99.56c-.55.31-1.26.46-1.34.78-.48,1.8-.81,3.65-1.19,5.48.13.06.26.11.39.17,1.32-.47.37-2.15,1.32-3.13-.08,1.17-.15,2.1-.22,3.03.13.07.26.13.39.2.22-.27.61-.54.62-.82.06-1.76.03-3.51.03-5.71ZM96.63,103.48c.21-1.81.4-3.49.64-5.54-.79.29-1.64.34-1.79.69-.67,1.54-1.14,3.17-1.68,4.76.91.32,1.22-.02,1.35-.76.15-.84.38-1.67.58-2.5.11.03.23.06.34.09-.21,1.06-.42,2.13-.64,3.25h1.2ZM98.58,80.21c-2.02.09-2.18.21-2.26,1.77.64-.44,1.25-.86,1.86-1.28.06.08.11.16.17.25-.22.2-.42.46-.68.59-1.46.76-1.97,2.04-2.22,3.58-.15.9.12,1.31.96,1.58.32-1.43.62-2.78.92-4.13.1.02.2.04.3.07-.05.49-.11.98-.17,1.52h1.11v-3.94ZM74.75,69.5c-.09-.11-.18-.22-.27-.33-.34.2-.9.35-.97.62-.72,2.89-1.36,5.79-2.08,8.93,2.68-2.72,2.36-6.19,3.32-9.22ZM95.91,67.78c-.06-.03-.13-.07-.19-.1-1.23,1.77-2.45,3.55-3.69,5.35.74.68,1.38,1.26,2.17,1.97.6-2.53,1.16-4.88,1.72-7.22ZM117.39,93.68c-.02.07-.04.14-.06.21h3.52c.03.1.05.19.08.29-.64.36-1.28.72-2.09,1.17,2.94.76,5.03-.18,6.89-2.15-2.86.16-5.6.32-8.35.48ZM138.06,81.56c.33-1.64.65-3.19.97-4.79-.56-.26-1.05-.48-1.63-.74-.42,1.91-.81,3.68-1.22,5.53h1.88ZM148.38,81.54c.04-.12.09-.24.13-.36-1.82-.85-3.64-1.69-5.56-2.59v2.95h5.43ZM68.82,88.22c-1.65.68-3.06,1.27-4.67,1.93,1.3.86,2.42,1.6,3.67,2.42.34-1.47.64-2.78,1-4.36ZM135.47,75.25c-.43,1.83-.86,3.67-1.3,5.55.64.09,1.13.16,1.69.23.28-1.29.49-2.64.89-3.92.38-1.21-.07-1.69-1.27-1.86ZM167.28,115.47c-1.5,1.66-2.86,3.16-4.33,4.78,2.55.18,3.7-1.67,5.38-2.73-.33-.65-.6-1.17-1.05-2.05ZM97.8,90.16c-1.96.18-2.96,1.51-4.45,2.28,1.07.78,1.96,1.43,2.95,2.16.5-1.49.96-2.83,1.5-4.44ZM69.96,85.42c.67-.32,1.41-.45,1.49-.74.57-2.25,1.01-4.54,1.53-7.02-2.16,2.18-2.43,4.81-3.02,7.77ZM75.07,79.81c.11,0,.22,0,.33.01-.05.56-.1,1.11-.17,2.04.45-.38.85-.56.85-.74.04-2.22.03-4.44.03-6.66-.1,0-.19-.01-.29-.02-.72,3.52-1.45,7.05-2.17,10.57.15.03.29.06.44.09.33-1.77.66-3.54.99-5.31ZM134.95,75.52c-.07-.05-.14-.11-.2-.16-1.3,1.78-2.6,3.56-4,5.46h2.94c.43-1.81.84-3.56,1.26-5.3ZM86.24,121.41c.15-.07.3-.15.46-.22v-9.63c-.23.31-.55.53-.57.78-.21,2.76-.4,5.52-.53,8.29-.01.25.41.52.64.78ZM83.97,59.16c-.02.06-.03.12-.05.18,1.53.16,3.06.32,4.59.45.15.01.37-.16.47-.31.58-.84,1.13-1.7,1.81-2.72-2.43.85-4.62,1.63-6.82,2.4ZM142.07,52.86c-2.57,1.79-2.05,4.43-2.76,6.69.54-.02,1.27-.11,1.34-.36.52-1.98.92-4,1.43-6.32ZM87.98,88.47c1.28-.99,2.38-1.79,3.42-2.66.67-.56.69-2.05.28-1.93-1,.29-2.18.66-2.8,1.4-.6.71-.58,1.93-.9,3.18ZM139.58,55.85c-1.15,1.05-2.55,2.33-4.09,3.74.96,0,1.75.07,2.53-.03.31-.04.72-.42.82-.73.34-1.13.57-2.29.74-2.98ZM80.04,56.51c-.85-1.13-1.62-2.17-2.48-3.31v6c.96-1.03,1.68-1.82,2.48-2.68ZM137.07,86c-2.56.86-2.59,2.95-2.89,4.95,1.39,0,2.16-.49,2.27-1.91.07-.98.39-1.95.62-3.04ZM94.25,121.84c.18-1.02.34-1.92.5-2.82h-2.86c-.16.86-.31,1.67-.49,2.59.96.08,1.82.15,2.84.23ZM57.79,115.26c-.21-2.7-.42-5.31-.62-7.92-.13-.03-.26-.06-.39-.08-.17.43-.48.86-.47,1.27.06,2,.24,4,.32,6.01.03.79.36.96,1.17.72ZM152.07,59.44c-2.48-2.14-4.82-4.16-7.17-6.19,1.33,1.89,2.86,3.58,4.27,5.37.76.97,1.61,1.14,2.91.82ZM93.55,67.69c2.21-.84,3.44-2.3,3.35-4.67-2.54,1.08-2.86,1.51-3.35,4.67ZM72.66,58.93c.89,0,1.5.08,2.06-.03.33-.06.79-.38.87-.67.4-1.45.69-2.93,1.02-4.4-.31,0-.38.18-.5.34-1.09,1.51-2.19,3.02-3.46,4.76ZM91.31,119.04c-3.14-.16-2.79-.58-3.42,2.27,3.6.53,2.74.54,3.42-2.27ZM139.77,76.67c.13,0,.26,0,.39-.01.26-1.66.51-3.32.77-4.98.11.02.21.04.32.05-.07.84-.14,1.68-.21,2.64.76-.56.93-7.06.37-8.03-.04.51-.02,1.04-.12,1.54-.5,2.59-1.04,5.17-1.55,7.76-.06.32.02.67.04,1.01ZM138.98,47.91c.81.35,1.47.64,2.25.97.44-1.88.85-3.62,1.25-5.35-.08-.03-.15-.06-.23-.09-1.05,1.44-2.1,2.88-3.27,4.47ZM126.11,112.74c-.12.03-.24.06-.37.08-.18,3.27-.38,6.54-.54,9.81,0,.2.22.42.34.63.15-.27.43-.53.44-.81.13-2.88.23-5.76.31-8.64.01-.35-.12-.71-.19-1.07ZM87.08,90.01c-.07-.04-.15-.08-.22-.12-1.12.87-2.25,1.73-3.43,2.65.47.43.8.86,1.24,1.12.54.31,1.25.59,1.54-.31.35-1.09.59-2.22.88-3.33ZM88.25,89.63v4.02c.51.29.89.5,1.27.71,1.19-3.03,1.07-3.54-1.27-4.74ZM95.23,119.03c-.09.97-.17,1.86-.26,2.81.86.07,1.57.13,2.29.18.19.01.38-.02.56-.04.26-1.61-.99-3.08-2.6-2.95ZM158.36,120.67c3.22.58,5.07-1.07,6.68-3.64-2.32,1.26-4.43,2.41-6.68,3.64ZM129.96,98.83c.27.57.43,1.31.67,1.33,1.06.13,2.16.12,3.23-.01.21-.03.34-.78.55-1.32h-4.45ZM135.04,84.19h-1.68c-.33,1.41-.65,2.8-.99,4.25,2.15-.71,2.58-2.32,2.67-4.25ZM135.98,91.18c-2.23.27-2.4.52-2.61,3.57,1.78.13,1.83.1,2.17-1.47.14-.66.27-1.32.44-2.09ZM149.65,98.84h-4.49c.31.6.49,1.32.73,1.35,1.08.1,2.18.06,3.26-.07.2-.02.3-.74.5-1.27ZM149.74,98.76c.3.64.45,1.38.68,1.4,1.08.12,2.18.07,3.26-.02.15-.01.37-.58.35-.88,0-.18-.39-.48-.62-.49-1.11-.05-2.23-.02-3.68-.02ZM95.05,98.25h-2.44c-.19.84-.38,1.67-.58,2.58.71.2,1.31.37,1.97.56.37-1.1.69-2.07,1.05-3.15ZM140.65,98.76c.34.69.51,1.42.75,1.45,1.04.11,2.11.05,3.15-.06.17-.02.34-.64.36-.99,0-.12-.45-.37-.71-.38-1.04-.04-2.08-.02-3.56-.02ZM90.98,77.11c1.09-.49,2.25.59,2.88-.75.41-.88-.24-1.69-2-2.64-.27,1.04-.53,2.06-.88,3.39ZM78.21,52.9c-.05.07-.1.15-.15.22.75,1,1.5,1.99,2.3,3.06.73-.8,1.35-1.48,2.11-2.31-1.58-.36-2.92-.66-4.26-.97ZM98.44,57.06c.26-1.15.48-2.14.71-3.13-2.06-.44-2.23-.27-2.65,2.65.59.15,1.19.29,1.94.48ZM67.57,93.71c-.07-.03-.15-.07-.22-.1-1.15,1.21-2.31,2.43-3.52,3.7.79,0,1.57.05,2.35-.03.25-.02.61-.34.68-.59.29-.98.48-1.99.71-2.99ZM101.02,53.85c-1.5-.13-1.85.5-2.01,3.33.63.13,1.28.26,2.01.41v-3.75ZM103.09,95.99c.28.59.46,1.34.69,1.36,1.12.09,2.26.04,3.37-.1.18-.02.27-.74.46-1.34-1.42,0-2.54,0-3.66,0-.16,0-.31.03-.86.07ZM72.37,88.94c-1.59,1.09-1.58,1.15-2.2,4.11-.19.9.03,1.36,1.01,1.58.39-1.88.78-3.74,1.2-5.69ZM104.21,94.56c.04-.1.08-.2.12-.29-1.37-.43-1.95-2.59-3.97-1.71v2.01h3.85ZM86.88,96.01c.25.56.39,1.25.6,1.27,1.11.12,2.24.13,3.34.02.2-.02.32-.78.51-1.29h-4.45ZM91.44,96c.3.6.47,1.32.71,1.34,1.08.11,2.18.08,3.26-.06.19-.02.28-.8.44-1.29h-4.41ZM146.15,86.95c-1.12-.87-2.09-1.63-3.15-2.45v3.78c1.08-.45,2.01-.85,3.15-1.33ZM105.29,45.45c-.78-.91-1.46-1.71-2.24-2.61v5.01c.84-.9,1.49-1.59,2.24-2.4ZM105.51,83.87c-.98-.88-1.85-1.67-2.82-2.54v4.4c1.02-.67,1.87-1.23,2.82-1.86ZM65.53,104.71c1.11-1.49,2.67-2.71,2.7-5.07-.64.22-1.51.29-1.62.6-.48,1.45-.74,2.97-1.08,4.46ZM133.3,91.85c-1.99.18-2.38.72-2.31,3.17,1.98.12,2.17-.15,2.31-3.17ZM92.05,116.33c-2.61-.36-2.79-.24-3.22,2.1h2.74c.16-.71.31-1.37.48-2.1ZM134.89,97.36h4.07v-2.6c-1.35.86-2.58,1.64-4.07,2.6ZM138.77,103.43c.11-.86-.89-2.29-1.74-2.27-1.41.03-.98,1.43-1.67,2.27h3.42ZM100.34,105.52c1.46-.73,2.76-1.37,4.05-2.02-.02-.07-.04-.15-.06-.23-1.31-.12-2.62-.24-3.99-.36v2.6ZM142.6,53.32c-.05-.02-.1-.04-.16-.06-.45,2.07-.9,4.13-1.38,6.34.63-.03,1.05-.05,1.54-.08v-6.21ZM170.05,116.77c-1.41,1.08-2.63,2-3.85,2.93.03.08.06.16.1.23,1.24-.15,2.48-.29,3.75-.44v-2.72ZM142.67,94.92c-.44.93-2.34.65-1.61,2.31h4.2c-.93-.83-1.67-1.49-2.58-2.31ZM138.8,86.67c.12,0,.25-.01.37-.02.03-.72.07-1.44.11-2.36-2.69,1.44-1.81,3.99-2.43,5.97,1.22-1.09.78-2.79,1.47-4.15.2.23.34.39.48.55ZM94.77,51.71c.79,0,1.28.07,1.73-.02.32-.07.77-.3.85-.56.38-1.16.66-2.36,1.04-3.8-.37.39-.57.58-.74.79-.9,1.11-1.78,2.23-2.87,3.59ZM92.16,98.24c-.46-.03-.78-.06-1.09-.06-.6,0-1.19,0-1.75,0-.61,1.52-.43,1.7,2.28,2.41.18-.73.35-1.46.56-2.34ZM83.63,67.37c-.67-.55-1.16-1.29-1.6-1.26-1.45.09-2.89.44-4.33.72-.09.02-.13.25-.27.54h6.2ZM126.79,102.63c-.18,0-.37-.02-.55-.03-.14,3.2-.28,6.4-.42,9.6.18,0,.36.01.54.02.15-3.2.29-6.39.44-9.59ZM50.98,112.03c-.94.77-1.77,1.44-2.78,2.27,1.56.19,2.8.33,4.21.5-.51-.99-.93-1.8-1.43-2.77ZM131.74,91.53c2.04-.18,2.31-.58,2.43-3.52-1.53.64-2.51,1.67-2.43,3.52ZM74.19,66.53c.11.11.23.22.34.33.3-.26.79-.46.87-.78.39-1.55.68-3.13,1.05-4.91-1.98,1.47-1.66,3.6-2.26,5.36ZM95.96,56.48c.24-.97.46-1.82.67-2.67-.08-.06-.16-.13-.25-.19-1.16.67-2.32,1.34-3.7,2.13,1.21.27,2.14.48,3.27.74ZM79.01,84.93c.02.06.03.11.05.17h5.68c.06-.09.13-.18.19-.27-.44-.34-.94-1.03-1.32-.97-1.55.23-3.07.69-4.6,1.07ZM91.43,86.71c-.08-.05-.15-.11-.23-.16-.92.72-1.84,1.43-2.85,2.22.8.59,1.46,1.07,2.21,1.62.32-1.36.59-2.52.86-3.68ZM92.06,118.49c.77,0,1.44-.03,2.1,0,.8.04.97-.62.74-.99-.32-.54-.91-1.05-1.49-1.26-.86-.32-1.03.42-1.12,1.09-.05.34-.13.68-.23,1.17ZM95.17,86.64c-.34,1.53-.66,2.99-1.04,4.75.77-.5,1.29-.84,1.53-1,.16-.73.23-1.18.36-1.61.24-.84.51-1.68-.85-2.14ZM74.4,63.58c-.07-.03-.13-.07-.2-.1-1.06,1.15-2.12,2.31-3.36,3.66.98-.1,1.65-.13,2.31-.27.24-.05.55-.32.62-.55.26-.9.43-1.83.63-2.75ZM98.31,98.26c-.16-.03-.32-.06-.48-.08-.48,1.7-.53,3.47-.54,5.37.43-.14.96-.39.98-.66.08-1.54.04-3.08.04-4.63ZM68.02,93.74c-.27,1.21-.52,2.32-.8,3.56.75-.12,1.47.43,1.77-.63.59-2.11.62-2.11-.97-2.93ZM127.25,123.19c2.38.26,2.58.12,2.83-1.95-2.15-.31-2.28-.23-2.83,1.95ZM97.98,118.37v-2.08h-2.4c-.15,1.57.73,2.33,2.4,2.08ZM141.82,64.1c-.16-.18-.32-.36-.49-.54-.46.35-1.18.61-1.34,1.07-.42,1.18-.6,2.44-.9,3.81,1.74-1.72,2.09-2.46,1.8-3.4.35-.36.64-.65.93-.93ZM70.7,120.32c.08-.85.14-1.53.21-2.28-.77-.09-1.38-.16-2.07-.23-.14.82-.27,1.51-.41,2.31.76.07,1.42.13,2.26.2ZM92.67,68.94c-1.17.68-2.09,1.2-3.13,1.8.72.66,1.35,1.23,2.13,1.94.35-1.28.64-2.37,1.01-3.74ZM100.84,80.22c-.6.35-.84,4.33-.42,6.84.67-.43.95-5.03.42-6.84ZM108.19,95.71c-.14.15-.27.31-.41.46.19.41.28,1.04.6,1.2,1.09.55,2.23.46,3.36-.41-1.18-.42-2.37-.84-3.55-1.26ZM135.28,123.28c.11-.74.2-1.41.3-2.09q-2.36-.16-2.41,2.03c.31.02.62.04.94.05.35,0,.71,0,1.17,0ZM95.71,59.54q2.26-.18,2.53-2.04c-.62-.15-1.26-.31-1.94-.48-.21.74-.39,1.35-.55,1.96-.04.15-.02.31-.04.56ZM85.87,85.03c2.33-.04,3.03-.61,2.98-2.43-2.1.27-2.35.47-2.98,2.43ZM68.56,91.55c1.93-1.4,2.17-1.87,2.22-4.08-2.45.46-1.53,2.71-2.22,4.08ZM79.64,95c-.92-.32-1.88-1.41-2.57-.23-.69,1.18.74,1.57,1.37,2.37.44-.78.81-1.43,1.2-2.13ZM79.88,95.46c-.36.66-.64,1.17-.95,1.73h4.27c.02-.11.05-.22.07-.33-1.12-.46-2.24-.93-3.4-1.4ZM67.12,116.86c.66-.28,1.4-.36,1.52-.68.34-.91.44-1.92.65-2.94-1.78.41-2,1.73-2.16,3.62ZM71.17,120.34h2.35v-1.91c-.69-.09-1.34-.18-2.07-.28-.1.77-.18,1.42-.28,2.19ZM132.79,121.23c-2.13-.27-2.22-.2-2.45,1.94,2.13.29,2.21.23,2.45-1.94ZM98.01,115.72v-1.84h-2.19c-.05.63-.09,1.2-.14,1.84h2.33ZM89.76,115.65c2.08.35,2.54.25,2.56-.73.01-.36-.37-.97-.69-1.06-1.29-.34-1.52-.07-1.88,1.78ZM75.95,87.07c-.1.01-.2.03-.31.04v6.25c.1,0,.2,0,.31,0v-6.28ZM96.15,111.38c-.08.62-.15,1.24-.23,1.91h2.15v-1.91h-1.92ZM95.43,113.3c.09-.67.17-1.25.25-1.83-2.04-.41-2.27-.23-2.35,1.83h2.1ZM154.34,98.84c.25.52.33,1.07.61,1.22.85.44,2.62-.25,3.23-1.22h-3.84ZM69.27,116.43c2.13-.44,2.28-.65,1.96-2.55-1.79-.16-2,.11-1.96,2.55ZM74.11,74.49c.41-.95,2.05-1.41,1.39-2.52.23-.73.48-1.23.53-1.75.03-.29-.26-.61-.41-.92-.2.25-.5.48-.57.76-.35,1.47-.63,2.95-.94,4.43ZM138.01,71.31c-.07-.04-.13-.09-.2-.13-.51.7-1.02,1.39-1.53,2.09-.97,1.33-.89,1.52.85,1.96.29-1.31.59-2.61.88-3.92ZM90.3,79.6c-.19.73-.35,1.4-.52,2.07,1.09-.47,2.64.15,3.2-1.45-.99-.23-1.79-.41-2.68-.61ZM125.42,98.83h-3.9c.58.94,2.18,1.62,3.11,1.24.3-.12.43-.65.79-1.24ZM126.93,93.07c-1.12.8-2.12,1.51-3.12,2.23.03.09.07.18.1.26.99-.06,1.98-.12,3.02-.19v-2.3ZM138.52,120.66v-1.88h-2.06c-.09.66-.16,1.23-.24,1.88h2.31ZM130.12,95.66c-.64.04-1.16.02-1.65.13-.39.09-.74.35-1.11.54.31.47.33,1.1,1.22,1.16,1.38.1,1.46-.71,1.55-1.82ZM90.22,94.53h4.66c-.86-.66-1.51-1.16-2.16-1.66-.82.55-1.56,1.04-2.5,1.66ZM127.33,98.81v1.6c1.83.29,2.51-.2,2.21-1.6h-2.21ZM130.98,118.77c-2.18-.21-2.28-.13-2.6,1.84,2.12.29,2.18.26,2.6-1.84ZM102.12,40.23v-4.7s-.06-.02-.1-.04c-.42,1.55-.83,3.09-1.28,4.74h1.37ZM131.85,101.16c-.12.6-.23,1.19-.36,1.84.72.1,1.29.18,1.95.27.14-.76.26-1.4.4-2.12h-1.98ZM95.72,110.87c.08-.66.15-1.27.23-1.88-1.89-.3-2.03-.17-2.05,1.88h1.83ZM87.21,99.28c-.71,1.93-.81,7.33,0,7.82v-7.82ZM138.57,116.06c-.66.04-1.19.07-1.77.1-.07.76-.13,1.37-.19,2.01h1.96v-2.11ZM102.86,96.06h-2.47v1.57c1.99.12,2.49-.19,2.47-1.57ZM136.09,118.17c.06-.44.11-.75.15-1.07.04-.3.07-.6.1-.9-1.83-.27-1.87-.23-2.08,1.96h1.83ZM98.39,94.57v-4.18c-.07,0-.13-.01-.2-.02-.45,1.37-.91,2.75-1.39,4.2h1.59ZM100.99,76.2c-2.26-.37-2.53-.19-2.26,1.42h2.26v-1.42ZM122.17,96.4c.04.11.07.22.11.33,1.27,0,2.54.03,3.81-.02.28-.01.56-.27.84-.41-.3-.14-.6-.4-.9-.41-.87-.03-1.75,0-2.62.1-.42.04-.82.27-1.23.41ZM98.06,110.86v-1.95h-1.6c-.09.65-.17,1.27-.27,1.95h1.87ZM66.89,117.51c-.18.88-.34,1.63-.52,2.5.61.03,1.07.05,1.58.07.14-.84.26-1.56.39-2.33-.52-.09-.9-.15-1.44-.25ZM130.92,120.74c.98-.24,2.07.63,2.37-.9.12-.61.05-1.02-.63-1.14-1.52-.27-1.33.97-1.74,2.04ZM86.89,96.07h-3.94c.85.98,2.47,1.56,3.29,1.14.27-.14.37-.63.65-1.14ZM138.54,81.4c.08.1.16.2.25.3.26-.18.65-.3.74-.54.56-1.49.53-3.63-.09-4.08-.31,1.47-.6,2.9-.9,4.33ZM74.16,88.02s-.08-.02-.12-.02c-.31,1.74-.62,3.48-.93,5.22.1.08.2.17.3.25.25-.24.7-.48.71-.73.07-1.57.03-3.15.03-4.73ZM73.41,87.83c-.92,1.71-1.03,3.62-1.25,5.51,1.01-1.69,1.06-3.62,1.25-5.51ZM99.18,73.78c-.11.65-.21,1.18-.31,1.78h2.07v-1.78h-1.76ZM102.04,44.61c-.06-.01-.12-.02-.18-.03-.4,1.7-.8,3.39-1.2,5.09.09.05.19.1.28.15.37-.44.99-.85,1.05-1.33.15-1.28.05-2.58.05-3.87ZM138.03,82.4c-.85,0-1.65-.05-2.43.03-.21.02-.38.42-.56.64.61.19,1.22.5,1.83.53.56.03,1.36,0,1.16-1.2ZM137.03,104.07c-1.89-.4-1.91-.39-2.39,1.47,2.13.38,2.19.34,2.39-1.47ZM137.3,90.88c-.14-.06-.28-.12-.42-.19-.87,1.07-.77,2.45-1.13,3.88.91-.2,1.59-.35,2.51-.55-1.11-.26-2.15-.3-1.23-1.65.26-.38.19-.99.27-1.49ZM73.67,111.39h-1.52c-.07.65-.14,1.23-.22,1.89h1.74v-1.89ZM135.65,98.81c.67.53,1.02.93,1.47,1.14.4.18,1,.33,1.33.16.28-.15.31-.78.48-1.3h-3.28ZM147.7,82.2c-.03.07-.06.13-.09.2-.2,0-.42-.05-.59.01-.34.13-.67.32-1,.48.31.23.6.5.93.69.16.09.42.14.58.07.53-.22,1.03-.5,1.54-.76-.46-.23-.91-.47-1.37-.7ZM81.79,58.91c-.57-.77-1-1.35-1.5-2.03-.62.71-1.14,1.3-1.78,2.03h3.28ZM138.78,106.25c-1.81-.28-1.86-.24-2.01,1.63h2.01v-1.63ZM116.19,96.02h-3.95c.35.54.48,1.01.78,1.17.81.42,2.29-.14,3.16-1.17ZM58.9,118.48c1.04-.51,1.98-.96,2.91-1.42-.02-.08-.05-.17-.07-.25-.99-.11-1.97-.22-3.02-.34.06.7.11,1.22.18,2.01ZM55.9,116.07c-.78-.11-1.43-.21-2.41-.35.88,1.15,1.55,2.02,2.41,3.15v-2.8ZM104.18,42.21c-.03.08-.06.15-.08.23.83.42,1.66.84,2.54,1.29.43-.65.77-1.18,1.13-1.73-1.3.08-2.44.15-3.58.21ZM132.87,95.42c.16.59.21,1.11.45,1.52.11.19.81.31.89.2.41-.55.7-1.18,1.18-2.05-1,.13-1.57.21-2.52.34ZM135.26,86.61c.79-.85,2.13-.96,2.12-2.4-1.95-.21-2.09-.05-2.12,2.4ZM105.66,78.5c-.19,1.27.74,1.16,1.43,1.16.71,0,1.68.17,1.6-1.16h-3.03ZM134.17,116.14c-.98-.07-1.96-.36-2.03.89-.04.82.65,1.14,1.52,1.2.16-.66.31-1.3.5-2.09ZM131.37,101.21c-2.13-.24-2.25-.15-2.11,1.48.55.07,1.11.15,1.71.23.15-.63.26-1.12.39-1.7ZM71.88,113.86c-.08.67-.16,1.26-.24,1.92q2.16-.38,1.91-1.92h-1.67ZM141,88.88c.12.02.24.04.35.05.67-1.12.18-2.44.3-3.65.04-.38-.15-.78-.23-1.18-.14.03-.28.06-.42.08v4.69ZM147.71,127.23c.62-1.41-.85-1.87-1.03-2.92-1.13,1.19-.79,2.13,1.03,2.92ZM95.38,113.91h-2.32c.43,1.42,1.02,1.89,2.1,1.68.07-.53.14-1.07.22-1.68ZM128.01,92.79c.93.71,1.61,1.24,2.44,1.88.19-.89.33-1.56.5-2.38-.97.16-1.78.3-2.94.49ZM136.92,115.57h1.7v-1.9h-1.41c-.1.64-.18,1.19-.28,1.9ZM93.14,111.31c-.63,0-1.11-.07-1.56.03-.22.05-.56.57-.51.63.4.54.87,1.02,1.55,1.77.22-1.04.36-1.67.52-2.44ZM68.05,98.06c-.18,1.17.66,1.16,1.33,1.16.7,0,1.63.14,1.47-1.16h-2.79ZM132.65,113.68c-1.64-.24-1.85-.05-2.14,1.86,1.75.23,1.79.19,2.14-1.86ZM74.15,98.35c-.07-.12-.14-.23-.21-.35-.75,0-1.5-.05-2.24.03-.17.02-.3.46-.44.71.66.15,1.33.4,1.99.39.3,0,.6-.51.9-.79ZM78.33,98.09h-2.79c-.05,1.29.87,1.14,1.56,1.13.63-.01,1.47.03,1.23-1.13ZM95.88,82.29c-.1-.13-.2-.26-.3-.39-.85.39-1.73.75-2.55,1.21-.21.12-.3.56-.32.86,0,.08.54.35.65.27.86-.62,1.68-1.3,2.52-1.96ZM169.95,114.38c-.64.36-1.24.69-1.88,1.05.32.61.57,1.09.81,1.54,1.35-.47,1.34-1.41,1.07-2.59ZM97.42,78.52h-2.95c-.09,1.31.86,1.14,1.54,1.14s1.56.12,1.41-1.14ZM97.26,64.61c1.1-1.53,2.14-2.98,3.18-4.44-1.32,1.24-3.43,1.9-3.18,4.44ZM85.13,116.41c-.08,0-.15,0-.23,0-.39,1.53-.79,3.06-1.18,4.58.09.09.18.17.27.26.27-.23.75-.43.78-.69.18-1.38.26-2.77.37-4.16ZM137.68,49.69h3.34c.02-.11.05-.22.08-.33-.77-.36-1.53-.71-2.35-1.09-.36.48-.66.89-1.06,1.42ZM95.37,67.41c-2.08.56-2.59,1.99-2.77,4,.99-1.44,1.83-2.65,2.77-4ZM80.23,97.77c-.54.26-1,.49-1.47.72.46.25.93.72,1.38.71.51-.02,1-.48,1.49-.75-.44-.21-.88-.42-1.41-.67ZM132.74,115.49c1.64.34,1.74.25,1.93-1.78-1.53-.29-1.56-.26-1.93,1.78ZM56.69,116.3c.07.96.14,1.85.2,2.71,1.09.08,1.28-.41,1.08-1.18-.17-.65.35-1.8-1.28-1.52ZM66.44,97.74c-.59.29-1.03.5-1.47.71.46.27.91.72,1.38.74.44.02.9-.42,1.35-.66-.4-.25-.79-.5-1.26-.8ZM131.35,113.05c1.77.15,1.83.1,2.14-1.96-1.77-.54-1.54,1.03-2.14,1.96ZM97.58,59.87q-2.22.11-2.41,1.79c1.8-.43,2.38-.87,2.41-1.79ZM142.76,49.36v-4.39c-.41,1.09-.65,2.21-.96,3.32-.21.76.08,1.04.96,1.07ZM140.01,61.75c-1.49-.17-1.67.06-1.64,1.97,1.48-.03,1.5-.04,1.64-1.97ZM92.22,108.3q1.72.23,1.94-1.76-1.47-.26-1.94,1.76ZM141.58,81.56v-1.88c-1.49-.19-1.62-.01-1.45,1.88h1.45ZM131.47,89.8c-1.14.83-2.11,1.53-3.24,2.36,2.8-.03,2.93-.13,3.24-2.36ZM147.75,124.36c1.3-.71,2.47-1.34,3.82-2.08-2.37-.14-3.64.3-3.82,2.08ZM99.56,71.53c-.07.62-.14,1.18-.21,1.73h1.62v-1.73h-1.42ZM68.08,84.94c.06.14.13.27.19.41.46-.24,1.15-.38,1.32-.75.35-.77.41-1.67.6-2.52-.09-.06-.17-.13-.26-.19-.06.15-.1.31-.18.45-.55.87-1.11,1.73-1.66,2.6ZM135.41,111.14c-1.43-.19-1.56-.05-1.84,1.95h1.34c.16-.64.32-1.25.5-1.95ZM81.99,98.04c-.08,1.41.88,1.18,1.61,1.17.69-.02,1.24-.25.94-1.17h-2.55ZM91.39,110.77c1.95.37,2.26.11,2.05-1.74-.78.49-2.02.37-2.05,1.74ZM102.54,78.53c.29,1.28,1.15,1.3,2.02,1.05.33-.1.56-.55,1.03-1.05h-3.05ZM136.62,113.65c-1.53-.12-1.6-.03-1.66,1.89,1.65.23,1.71.17,1.66-1.89ZM64.41,118.26c-1.9-.04-2.12.11-2.09,1.46.56.04,1.14.07,1.75.12.13-.59.23-1.08.34-1.58ZM138.69,113.08v-1.98c-1.27-.08-1.41.15-1.23,1.98h1.23ZM87.75,89.69s-.07-.02-.11-.03c-.36,1.36-.71,2.72-1.1,4.2.46-.03.79-.04,1.21-.07v-4.11ZM113.6,97.88c-1.3.12-2.4.21-3.59.32,1.37,1.61,1.6,1.6,3.59-.32ZM64.68,119.77c1.37.28,1.67-.12,1.51-2.03-1.43.16-1.47.23-1.51,2.03ZM76.36,102.09c1.24-.76,2.29-1.41,3.52-2.17-2.51-.27-2.62-.2-3.52,2.17ZM127.46,93.1v2.26c.76-.03,1.51-.07,2.59-.12-.98-.81-1.67-1.38-2.59-2.14ZM70.36,110.8c1.52.19,1.75-.15,1.38-1.88q-1.19-.05-1.38,1.88ZM133.89,103.33c1.72.02,1.4-1.36,2-2.14h-1.56c-.14.69-.27,1.31-.44,2.14ZM142.94,82.4c.59,1.08,1.32,1.48,2.28,1.06.2-.09.37-.38.42-.61.03-.11-.25-.42-.41-.43-.76-.05-1.53-.02-2.29-.02ZM92.53,54.96c.08.07.15.14.23.21.88-.49,1.75-.99,2.71-1.53-.56-.38-.96-.64-1.43-.96-.51.78-1.01,1.53-1.5,2.28ZM135.46,113.05h1.34c.06-.38.12-.69.16-1,.04-.3.06-.61.09-.91q-1.26-.17-1.6,1.91ZM152.07,82.4c-.86,0-1.52-.03-2.17.02-.17.01-.44.22-.46.37-.03.18.09.47.25.59.63.47,1.84.07,2.39-.98ZM83.77,99.91h-3.12c.58.68,1.02,1.18,1.52,1.75.56-.61,1.04-1.14,1.6-1.75ZM106.59,94.37c-1.41-.83-2.83-1.66-4.24-2.49-.05.09-.11.19-.16.28,1.49.73,2.31,2.63,4.4,2.21ZM131.98,82.4c.61,1.05,1.83,1.44,2.45.97.16-.12.29-.41.25-.59-.03-.15-.31-.35-.49-.36-.66-.04-1.32-.02-2.22-.02ZM106.94,41.08h-4.1c.75.82,3.09.85,4.1,0ZM143.63,62.83c1.24-.33,2.38-.63,3.51-.93-.02-.07-.03-.14-.05-.21h-3.47v1.14ZM129.28,118.06c.07.11.14.21.2.32.63-.18,1.25-.35,1.88-.53-.37-.54-.73-1.08-1.24-1.83-.37.9-.61,1.47-.84,2.04ZM98.2,105.89v-1.84h-1.22c-.05.65-.09,1.22-.14,1.84h1.35ZM160.2,123.31c.06.08.13.17.19.25,1.18-.9,2.36-1.79,3.73-2.83-2.29-.16-2.78,1.64-3.92,2.58ZM95.27,104.03c-.13.63-.25,1.23-.39,1.94.58-.03,1-.04,1.47-.07.06-.68.12-1.26.17-1.87h-1.25ZM97.28,61.47c-.97.58-2.57.36-2.7,2.32,1.06-.79,2.29-1.04,2.7-2.32ZM109.07,78.51c-.31.87.27,1.08.84,1.06.68-.02,1.56.1,1.71-1.06h-2.55ZM69.77,94.99c-.15.8-.28,1.51-.42,2.28h1.2c.35-.94.77-1.85-.78-2.28ZM100.07,51.36c.12.09.23.18.35.26h1.49v-2.34c-.77.87-1.31,1.47-1.84,2.07ZM92.97,105.83c1.59.19,1.67.1,1.68-1.79-1.56-.37-1.24.98-1.68,1.79ZM99.55,45.06c.86-1.09,1.51-1.91,2.2-2.79q-1.62-.21-2.2,2.79ZM165.52,111.94c-.66.41-1.17.73-1.67,1.04.75,1.32,1.51.88,2.35.22-.22-.4-.42-.77-.68-1.27ZM92.33,92.57c-.55-.42-1-.76-1.55-1.18-.21.93-.36,1.65-.57,2.6.81-.54,1.43-.95,2.13-1.42ZM76.64,62.48c-.27,1.31-.54,2.62-.83,3.97q1.07-.12.83-3.97ZM86.21,111.16c.11.04.22.08.33.13.15-.27.45-.55.44-.81-.06-.92.43-1.96-.57-2.73-.06,1.14-.13,2.28-.19,3.42ZM98.53,84.79c-1.62-.5-1.32.7-1.52,1.56h1.52v-1.56ZM92.97,82.69c1.13-.59,2.07-1.09,3.02-1.59-2.48-.02-2.82.18-3.02,1.59ZM91.6,78.52c.2.84.89,1.28,1.74,1.02.33-.1.56-.52.83-.79-.08-.08-.16-.15-.24-.23h-2.33ZM69.64,113.03c.07.09.14.19.21.28h1.61c.07-.6.13-1.16.19-1.73-.08-.05-.16-.1-.24-.14-.59.53-1.18,1.06-1.78,1.59ZM88.19,80.55c.38.28.73.55,1.12.85q.69-2.03-.19-2.47c-.27.47-.55.95-.93,1.62ZM154.59,100.99c-1.32.06-2.63.12-4.03.18.86,1,2.27.89,4.03-.18ZM132.47,110.44c1.86.43,1.53-.98,1.94-1.8-1.66-.4-1.43.98-1.94,1.8ZM138.79,104.03c-1.52-.36-1.35.69-1.49,1.57h1.49v-1.57ZM141.21,92.7c.62-1.03.4-2.16.18-3.3-.7,1.01-.41,2.16-.18,3.3ZM84.35,100.22c-.06-.03-.13-.05-.19-.08-.55.61-1.1,1.21-1.69,1.87.31.36.58.67.98,1.12.34-1.08.62-2,.9-2.92ZM96.36,95.72c-.23,1.67.38,2.11,2.28,1.72-.82-.62-1.46-1.1-2.28-1.72ZM73.05,87.13c-1.74-.12-1.96.21-1.83,2.23.62-.75,1.13-1.37,1.83-2.23ZM141.58,82.87c.01-.1.03-.21.04-.31h-3.18c0,.1,0,.21,0,.31h3.15ZM69.59,93.76c.21-1.01.37-1.82.54-2.62-.07-.05-.13-.09-.2-.14-.54.61-1.08,1.21-1.67,1.87.4.27.79.52,1.33.89ZM73.55,115.53c-.83.53-1.41.9-1.99,1.27.62.21,1.23.42,1.99.67v-1.95ZM134.32,110.42c1.33.27,1.5.07,1.54-1.82-1.56-.23-1.06,1.17-1.54,1.82ZM141.94,63.13c-.31-.57-.58-1.43-.8-1.42-1.11.08-.64,1.05-.91,1.8.57-.13.97-.22,1.71-.38ZM73.76,108.37v-2.04c-.44.16-.97.21-1.04.41-.17.49-.12,1.05-.17,1.63h1.21ZM135.76,120.56c.08-.75.13-1.27.18-1.8h-2.21c.76.68,1.3,1.15,2.03,1.8ZM72.35,106.43c-1.75,0-1.25,1.13-1.48,1.91,1.84.3,1.02-1.1,1.48-1.91ZM94.72,106.44c-.11.55-.2,1.05-.32,1.66q1.79-.62,1.68-1.66h-1.35ZM97.94,64.47c1.33-.61,2.4-1.39,2.21-3.17-.79,1.14-1.5,2.16-2.21,3.17ZM75.94,58.85c1.05-.06,1.25-.98.85-3.69-.32,1.38-.57,2.48-.85,3.69ZM130.65,95.79c-.13.59-.23,1.05-.34,1.56h2.25c-.46-.4-.75-.66-1.05-.91-.24-.2-.49-.38-.86-.65ZM138.3,94.63c-2.76.21-2.91.31-2.71,1.77.85-.55,1.66-1.08,2.71-1.77ZM148.1,60.37h-2.6c.73,1.04,1.6,1.06,2.6,0ZM139.45,90.94c-.36-.76-.6-1.27-.84-1.79-.34.52-.68,1.04-1.16,1.79h2.01ZM59.08,119.16c1.87.78,2.55.63,2.67-.52-.92.18-1.8.35-2.67.52ZM136.08,110.43c1.24.19,1.45-.15,1.18-1.89-1.38.06-.86,1.21-1.18,1.89ZM135.27,106.16c-1.57-.11-1.29,1.13-1.78,1.86,1.7.29,1.27-1.07,1.78-1.86ZM137.91,60.32c-.04.17-.08.34-.12.51.54.1,1.08.28,1.62.28.25,0,.51-.34.76-.53-.05-.09-.09-.17-.14-.26h-2.12ZM92.69,81.83c-.08-.07-.16-.15-.23-.22-.65.17-1.3.34-1.95.51-.02.1-.05.19-.07.29.49.22,1.01.65,1.48.6.3-.03.52-.76.78-1.18ZM135.91,123.16h2.19c-.73-.62-1.27-1.08-1.96-1.67-.09.67-.16,1.16-.23,1.67ZM77.55,97.25c.06-.11.11-.22.17-.32-.49-.29-.95-.7-1.48-.81-.22-.04-.57.56-.86.86.07.09.14.18.21.27h1.95ZM77.54,59.62c0,.1,0,.2,0,.3h3.11c0-.1,0-.2,0-.3h-3.11ZM138.68,108.56c-1.32.14-.67,1.26-1.04,1.85,1.24.23,1.31.12,1.04-1.85ZM136.54,121.16c.71.64,1.25,1.12,1.94,1.74v-1.74h-1.94ZM71.29,122.96v-1.01q-1.56-.16-1.4,1.01h1.4ZM127.33,101.16c-.32,1.34.47,1.27,1.3,1.26.08-.45.15-.82.24-1.26h-1.53ZM101,69.38c-1.49-.17-1.09.84-1.24,1.57h1.24v-1.57ZM142.04,79.08c-.52-.73-.85-1.2-1.19-1.66-.1.05-.21.1-.31.15-.08.48-.16.96-.26,1.51h1.76ZM67.07,114.42c-.77.75-1.84.73-1.65,1.95.41.04.79.07,1.22.1.13-.63.25-1.17.43-2.06ZM77.19,122.97c-.14-.45-.16-.94-.35-1.02-.33-.14-.82-.12-1.14.03-.17.08-.14.59-.22.98h1.71ZM65.42,123.24c.32-1.1.09-1.52-.68-1.35-.28.06-.49.41-.74.63.44.22.88.45,1.42.72ZM167,112.97c.42-.25.72-.43,1.1-.66-.24-.41-.44-.77-.69-1.19-.42.19-.75.35-1.14.53.26.46.46.83.73,1.32ZM81.32,122.93h1.43c.07-.12.15-.23.22-.35-.3-.24-.56-.62-.89-.7-.78-.18-.99.27-.76,1.05ZM126.38,100.54c.13-.09.26-.19.39-.28v-1.39h-1.59c.53.74.86,1.21,1.2,1.67ZM135.07,108.08c1.68,0,1.18-1.16,1.57-2.03-1.37.17-1.14,1.2-1.57,2.03ZM74.43,84.74c.08.11.16.22.24.33h1.34c.08-.1.17-.2.25-.3-.27-.29-.59-.85-.8-.82-.38.07-.69.5-1.03.78ZM62.64,98c-.04.13-.08.27-.11.4.48.18.94.43,1.44.52.2.04.46-.26.69-.4-.2-.17-.38-.46-.6-.5-.46-.08-.94-.02-1.41-.02ZM72.94,95.83c.09-.43.17-.83.26-1.28-.53-.14-.98-.25-1.42-.37q-.17,1.03,1.16,1.65ZM97.2,41.02c1.92.97,2.6.96,2.98,0h-2.98ZM91.15,83.4c-.57-.42-1-.74-1.55-1.15-.17.7-.29,1.22-.46,1.92.76-.29,1.29-.49,2.01-.77ZM93.58,84.72c.53.38.89.63,1.34.95.17-.8.31-1.43.51-2.37-.74.57-1.22.93-1.86,1.42ZM98.75,57.56c-.1.57-.17.97-.29,1.61.74-.29,1.28-.51,1.82-.72,0-.12,0-.25,0-.37-.47-.16-.94-.32-1.53-.51ZM75.61,99.86v2.38c.53-.97.88-1.61,1.29-2.38h-1.29ZM89.28,76.98c2.04.01,1.29-1.57,1.68-2.41-.51.73-1.01,1.45-1.68,2.41ZM96.4,77.61c-.72-.65-1.26-1.14-1.85-1.67-.31,1.11.42,1.77,1.85,1.67ZM139.02,92.71v-1.18h-1.36c-.06.41-.11.75-.17,1.18h1.53ZM73.9,86.24c-.03-.2-.07-.39-.1-.59-.72.09-1.45.18-2.17.27.03.22.06.44.09.66.73-.11,1.45-.23,2.18-.34ZM140.51,76.35c1.32.36,1.21-.32,1.16-.85-.02-.25-.23-.49-.36-.73-.25.5-.5.99-.8,1.59ZM87.08,98.47c-.03-.15-.07-.31-.1-.46-.5,0-1.01-.05-1.51.02-.18.03-.32.33-.48.51.16.14.35.41.49.39.54-.1,1.07-.3,1.6-.46ZM79.15,85.84c1.04.99,1.67.97,2.4,0h-2.4ZM74.74,83.1c.18.17.36.34.55.51.27-.27.64-.5.79-.83.07-.15-.29-.49-.45-.75-.29.35-.59.71-.88,1.06ZM98.45,88.43v-1.45h-1.88c.76.59,1.24.96,1.88,1.45ZM88.97,110.37c-.44-.52-.81-.96-1.35-1.61v2.04c.45-.14.81-.26,1.35-.43ZM139.19,87.35c-.14-.1-.28-.2-.42-.3-.22.48-.43.96-.73,1.62,1.53.13,1.04-.79,1.15-1.32ZM98.53,89.05c-.73-.56-1.21-.93-1.79-1.38-.12.55-.2.93-.3,1.38h2.09ZM55.87,120.62c-.14.1-.27.21-.41.31.23.52-.05,1.49,1.37,1.17-.37-.57-.66-1.02-.96-1.48ZM105.68,52.49c-.07.1-.15.2-.22.31.32.16.63.44.95.44.46,0,.93-.2,1.39-.31-.03-.14-.06-.29-.09-.43h-2.03ZM100.98,78.92c0-.1,0-.21,0-.31h-3.08c0,.1,0,.21,0,.31h3.08ZM71.13,97.2h2.12c-.74-.51-1.24-.85-1.86-1.28-.11.53-.18.89-.26,1.28ZM98.13,106.95c-.68.42-1.2.74-1.71,1.05.05.1.11.21.16.31h1.55v-1.37ZM97.21,52.45c-.04.17-.07.33-.11.5.51.1,1.02.27,1.53.27.26,0,.52-.32.79-.5-.04-.09-.09-.18-.13-.27h-2.08ZM149.37,127.88q.4-1.54-1.16-1.48c.43.55.72.92,1.16,1.48ZM57.56,120.61c-.14.12-.27.24-.4.36.28.47.03,1.45,1.47,1.11-.43-.6-.75-1.04-1.06-1.47ZM59.27,120.61c-.14.12-.27.25-.41.37.31.43.04,1.44,1.48,1.1-.44-.61-.76-1.04-1.08-1.47ZM64.56,117.53c-1.72-.7-1.73-.69-1.91.46.67-.16,1.29-.31,1.91-.46ZM102.78,52.45c1.67,1.04,1.96,1.03,2.4,0h-2.4Z"/>
  </g>
</svg>