<?xml version="1.0" encoding="UTF-8"?>
<svg id="a" data-name="Layer 1" xmlns="http://www.w3.org/2000/svg" viewBox="0 0 506 186">
  <defs>
    <style>
      .c {
        fill: #231f20;
        fill-rule: evenodd;
        stroke-width: 0px;
      }
    </style>
  </defs>
  <path id="b" data-name="Pimco" class="c" d="M63.66,99.72l.3,4.75c0,2.97.29,4.45.59,5.05.59.3.88.3,3.83.59h2.36v1.78h-2.06c-2.94-.3-5.59-.3-7.36-.3-2.06,0-5.01.3-9.13.3h-2.06v-1.78h3.24c2.06,0,2.36-.3,2.65-.59.88-.59.88-1.48,1.18-4.75v-25.83c0-2.67-.3-3.86-1.18-4.45-.59-.3-.88-.3-4.12-.59h-1.77v-1.78h9.42c2.65,0,5.59,0,10.31-.3h4.71c10.6,0,16.2,3.27,16.2,9.2,0,6.83-7.66,12.17-17.08,12.17-1.77,0-2.94-.3-5.01-.59l-.88-2.08c2.36.59,3.24.59,5.01.59,6.77,0,10.6-3.27,10.6-8.91,0-5.34-4.12-8.31-12.07-8.31-2.65,0-4.12.3-7.36,1.19-.3,3.27-.3,5.05-.3,8.61v16.03h0ZM144.64,108.33c.29-2.37.59-6.83.59-11.58v-9.5c0-8.91-.29-11.88-.88-12.77-.59-.3-1.18-.59-2.94-.59h-2.95v-1.78h20.02v1.78h-2.65c-2.36,0-2.94.3-3.24.59-.59.59-.59,1.48-.59,4.75l-.29,8.02v9.5c0,9.2.29,11.58.88,12.47.59.59,1.18.59,3.53.89h2.36v1.78c-3.83-.3-5.59-.3-9.72,0h-10.31v-1.78h2.36c2.94,0,3.53-.3,3.83-1.78h0ZM249.17,95.27c-2.95,5.05-4.12,6.83-6.18,10.39-1.18,2.08-2.36,4.16-2.94,5.64l-.59,1.19h-1.18c-1.47-2.38-1.77-2.67-4.12-6.83l-3.53-5.94-12.37-20.78v21.38c0,6.83,0,8.31.88,8.91.59.59,1.77.89,4.42.89h1.47v1.78h-2.06l-7.07-.3-5.59.3h-2.06v-1.78h2.36c4.12-.3,4.42-.89,4.42-10.98v-15.73c0-5.34-.29-8.02-.88-8.61-.3-.59-1.77-.59-4.12-.89h-1.77v-1.78h13.25l.88,1.19c2.36,4.75,3.53,6.23,5.59,9.8.88,1.48,1.77,3.27,3.24,5.64l9.13,15.14,8.54-13.95c2.36-4.16,4.12-6.83,6.48-11.58,1.18-1.78,2.06-3.56,2.94-5.05l.59-1.19h13.55v1.78h-2.36c-3.53.3-4.12.3-4.12,2.38,0,.59,0,1.19-.29,2.08v22.86c0,5.34.29,7.42.88,8.02.59.59,1.47.89,3.83.89h2.06v1.78h-2.06c-2.36-.3-4.71-.3-7.36-.3-2.36,0-5.01,0-7.95.3h-2.06v-1.78h2.36c2.94,0,3.53-.3,3.53-2.08.29-1.19.29-4.16.29-7.13v-22.86l-10.31,17.22h.29ZM355.77,76.86c-4.42-2.08-8.24-3.27-13.55-3.27-12.37,0-20.61,6.83-20.61,17.22,0,11.28,9.42,19,23.56,19,6.18,0,10.6-1.19,14.72-3.56l.59.59c-.59,1.19-.88,1.48-1.18,2.67-5.89,2.38-10.9,3.27-16.78,3.27-16.78,0-28.27-8.31-28.56-20.78,0-12.77,11.48-20.78,29.15-20.78,3.53,0,6.77.3,10.01,1.19l3.53.59c1.18.3,1.77.3,3.53.59-1.18,2.08-1.47,4.45-1.77,8.61h-2.36l-.29-5.05v-.3h0ZM455.89,90.52c0,12.77-11.78,22.27-27.97,22.27-15.02,0-24.74-8.31-24.74-20.78s10.6-20.78,26.8-20.78,25.91,7.42,25.91,19.3h0ZM448.52,92.59c0-11.88-7.66-19-20.02-19-11.19,0-18.26,6.23-18.26,16.33,0,12.17,8.24,20.19,20.02,20.19s18.26-6.53,18.26-17.52h0Z"/>
</svg>