<?xml version="1.0" encoding="UTF-8"?>
<svg id="a" data-name="Layer 1" xmlns="http://www.w3.org/2000/svg" viewBox="0 0 506 186">
  <defs>
    <style>
      .c {
        fill: #282e71;
        stroke-width: 0px;
      }
    </style>
  </defs>
  <path id="b" data-name="Invesco" class="c" d="M122.28,121.15l-4.21,4.01-4.21-4.01-2.04-6.15-6.24-2.14v-4.01h-4.07l-2.17,10.17,2.17,6.15-9.63,4.15-2.85-4.15,2.04-4.01v-4.15h-6.24l-8.28,8.16-6.24-2.01v-8.16l-10.31-1.61-8,3.88-4.48-2.27v-8.29l4.07-2.01,16.69-8.16,2.04,2.01,6.24-6.15v-4.15l8.28-8.16,4.21-8.16,6.24-10.3,10.31-2.01h4.21v4.01l8.28,8.29v8.16l12.48,12.31,12.48,8.16,6.24,2.14,2.04,6.15,8.28,4.01-4.21,4.15h-4.07v-4.15l-6.24-2.01-10.45-10.3-8.28-4.01-8.28-12.31-4.21-4.15,2.17-6.15-6.24-6.15-4.21,4.15v8.16l-4.07,4.15,8.28,8.16-4.21,4.15,8.28,8.16v4.15l4.21,8.16h4.21l4.07-4.15-2.04-2.01-2.04-6.15h4.07l4.21,8.16,4.07,4.15-12.35,4.15ZM178.17,117.01v-52.83l11.26-5.48v58.45l-11.26-.13ZM236.11,117.01h-11.26v-22.74c0-7.49-2.58-9.76-7.19-9.76s-7.33,2.27-7.33,9.5v23.01h-11.26v-42h11.26v2.81c1.9-2.01,5.56-3.75,10.04-3.75,10.85,0,15.74,7.36,15.74,19.26v23.68h0ZM282.1,75.01l-15.33,42h-11.53l-15.47-42h12.35l6.24,19.53c1.09,3.21,2.17,7.22,2.71,9.23.54-2.14,1.63-5.89,2.71-9.23l6.24-19.53h12.08ZM305.17,117.94c-12.48,0-21.3-8.56-21.3-21.94s9.09-21.94,20.35-21.94c11.94,0,19.4,9.9,19.4,21.94,0,1.61,0,2.14-.14,3.48h-28.09c.81,5.48,5.43,7.89,9.9,7.89,2.58,0,5.7-.94,7.87-3.75l8.55,6.15c-4.61,6.42-11.94,8.16-16.55,8.16ZM312.36,91.32c-.54-4.01-3.26-7.49-8.68-7.49-4.21,0-7.46,3.34-8.28,7.49h16.96ZM347.77,108.45c4.21,0,6.78-1.74,6.78-3.75,0-2.94-4.48-3.48-6.65-3.88-8.41-1.61-18.18-3.08-18.18-13.78,0-7.89,8.28-12.97,17.77-12.97,5.43,0,11.53,2.27,15.74,4.95l-5.7,7.62c-3.53-1.74-7.6-3.08-10.18-3.08-4.88,0-6.65,1.2-6.65,2.94,0,2.94,6.11,3.48,9.36,4.28,7.87,1.87,15.6,4.01,15.6,13.51,0,8.83-9.23,13.64-18.32,13.64-6.78,0-13.43-2.94-17.91-5.89l5.56-7.49c3.8,2.14,8,3.88,12.75,3.88ZM392.54,84.77c-6.24,0-10.85,5.08-10.85,11.24s4.48,11.24,10.85,11.24c3.93,0,7.19-2.01,9.09-4.95l8.95,6.42c-4.07,5.48-10.58,9.1-18.05,9.1-12.21,0-22.25-9.76-22.25-21.8s9.9-21.94,22.25-21.94c7.46,0,14.11,3.61,18.18,9.23l-8.95,6.55c-1.9-3.08-5.16-5.08-9.23-5.08ZM458.48,96.14c0,12.04-9.9,21.8-22.25,21.8s-22.25-9.76-22.25-21.8,9.9-21.94,22.25-21.94c12.21-.13,22.25,9.76,22.25,21.94ZM447.09,96.14c0-6.15-4.48-11.24-10.85-11.24s-10.85,5.08-10.85,11.24,4.48,11.24,10.85,11.24c6.38-.13,10.85-5.08,10.85-11.24Z"/>
</svg>