<?xml version="1.0" encoding="UTF-8"?>
<svg id="a" data-name="Layer 1" xmlns="http://www.w3.org/2000/svg" viewBox="0 0 506 186">
  <defs>
    <style>
      .c {
        fill: #1c2f5c;
        fill-rule: evenodd;
        stroke-width: 0px;
      }
    </style>
  </defs>
  <g id="b" data-name="Schroders">
    <path class="c" d="M257.7,80.09c11.81,1,20.49,10.42,20.49,22s-8.46,20.69-20.05,21.88l-.44.04v-9.41c6.17-1,10.3-6.33,10.3-12.51s-4.18-11.42-9.95-12.53l-.34-.06v-9.41h0ZM253.53,80.09v9.41c-5.95.97-10.3,6-10.3,12.59,0,6.06,3.97,11.3,9.94,12.45l.36.06v9.41c-11.81-1-20.49-10.34-20.49-21.92s8.46-20.76,20.05-21.96c0,0,.44-.04.44-.04ZM139.7,80.09c7.4,0,12.99,3.35,16.9,8.25l.28.36-7.45,6.36c-2.56-3.39-6.26-5.39-9.91-5.39-6.37,0-11.54,5.04-11.54,12.26s5.36,12.45,11.74,12.45c4.31,0,7.18-1.47,10.08-4.62l.31-.34,7.24,6.44c-4.09,4.86-10.5,8.16-17.62,8.16-12.13,0-21.97-9.07-21.97-21.96,0-12.13,9.28-21.95,21.96-21.95ZM351.69,80.09c11.51,0,19.85,9.54,20.04,21.53v.63s-.03,1.26-.03,1.26l-.06,1.36h-31.34c.84,6.01,5.7,10.23,11.79,10.23,4.46,0,8.26-1.86,11.07-5.19l6.75,5.96c-4.09,4.86-10.17,8.16-17.62,8.16-12.13,0-21.97-9.22-21.97-22.16,0-12.13,9.24-21.76,21.37-21.76h0ZM324.94,58.34v53.95l2.37,10.63h-9.13l-2.14-3.97c-3.2,2.81-7.59,5.05-12.95,5.05-11.75,0-20.55-9.65-20.55-21.95s9.74-21.97,21.32-21.97c4.23,0,8,1.56,11.07,3.84v-23.22l10.01-2.37h0ZM420.76,80.08c7.35,0,12.58,3.76,15.1,7.45l.17.26-6.4,5.68c-1.73-2.94-5.67-5-8.95-5-3.69,0-6.33,1.5-6.33,3.94,0,1.97,1.93,3.23,5.27,4.28l.71.21c.12.04.24.07.37.11l.77.21.81.2.84.2.43.1c.64.15,1.26.31,1.88.49l.73.23c5.96,1.94,10.75,5.74,10.75,12.34,0,7.34-6.49,13.22-15.29,13.22-7.46,0-14.39-3.19-18.06-8.45l-.24-.36,6.4-5.75c3.07,4.15,6.97,5.94,11.64,5.94,4.09,0,6.26-1.96,6.26-4.36s-2.62-3.91-6.09-4.83l-.68-.17-.51-.13-1-.25c-.49-.13-.97-.26-1.44-.4l-.92-.28c-7.71-2.4-11.95-5.9-11.95-12.19,0-7.73,7.9-12.7,15.73-12.7ZM91.51,60.71c9.44,0,15.11,4.4,18.88,8.86l.45.55.43.54.21.27-7.59,6.97c-3.36-4.61-7.37-7.19-12.56-7.19-5.82,0-9.7,3.58-9.7,7.41,0,3.21,2.24,5.03,6.06,6.34l.69.23.72.22c.25.07.5.14.75.21l.78.2,1.79.43,3.15.79,1.23.32c10.67,2.79,16.43,9.22,16.43,18.72s-8.8,18.42-21.51,18.42c-10.87,0-18.93-6.56-21.97-13.36l-.15-.34,8.85-5.38c3.57,7.23,9.06,8.85,13.66,8.85,5.17,0,9.88-3.33,9.88-8.2,0-3.84-2.71-6.93-9.5-8.68l-1.19-.3-4.44-1.08c-10.98-2.67-16.21-8.41-16.21-16.62,0-10.4,9.53-18.18,20.83-18.18h0ZM171.19,58.34v26.84c3.6-3.19,7.96-5.09,12.66-5.09,11.4,0,16.9,9.24,17.03,21.65v.47s0,20.72,0,20.72h-9.99v-20.34c0-9.22-3.56-12.99-9.75-12.99-3.79,0-7.25,2.3-9.7,5.13l-.26.31v27.9h-10.01v-62.21l10.01-2.37ZM397.6,80.09c1.45-.02,2.98.15,4.56.57l.59.17-1.14,9.57c-1.64-.59-3.36-.89-5.1-.9-3.73,0-6.93,1.71-9.38,4.6l-.27.33v28.49h-10.01v-41.79h6.91l2.33,4.54c2.59-3.1,6.34-5.52,11.5-5.58h0ZM228.12,80.09c1.75-.02,3.48.23,5.15.75l-1.14,9.57c-1.64-.59-3.36-.89-5.1-.9-3.87,0-7.16,1.84-9.65,4.93v28.49h-10.01v-41.79h6.91l2.33,4.54c2.59-3.1,6.34-5.52,11.5-5.58h0ZM304.84,89.27c-6.69,0-12.17,5.52-12.17,12.61,0,8.12,5.78,12.96,11.97,12.96,3.93,0,7.64-1.77,10.28-4.39v-17.43c-2.55-2.25-5.97-3.75-10.08-3.75ZM351.11,89c-5.13,0-9.26,3.67-10.53,8.38h20.77c-.65-4.09-4.46-8.38-10.24-8.38Z"/>
  </g>
</svg>