<?xml version="1.0" encoding="UTF-8"?>
<svg id="a" data-name="Layer 1" xmlns="http://www.w3.org/2000/svg" xmlns:xlink="http://www.w3.org/1999/xlink" viewBox="0 0 506 186">
  <defs>
    <style>
      .q {
        mask: url(#i);
      }

      .r {
        mask: url(#m);
      }

      .s {
        mask: url(#f);
      }

      .t {
        mask: url(#c);
      }

      .u {
        fill: #010101;
      }

      .u, .v, .w, .x, .y {
        stroke-width: 0px;
      }

      .v {
        fill: url(#l);
      }

      .v, .w, .x, .y {
        fill-rule: evenodd;
      }

      .w {
        fill: url(#p);
      }

      .x {
        fill: #1a1919;
      }

      .y {
        fill: #fff;
      }
    </style>
    <mask id="c" data-name="mask" x="87.16" y="96.26" width="21.47" height="24.39" maskUnits="userSpaceOnUse">
      <g id="d" data-name="sa4wf723qb">
        <path id="e" data-name="9475opj10a" class="y" d="M87.28,96.26h21.35v24.39h-21.35v-24.39Z"/>
      </g>
    </mask>
    <mask id="f" data-name="mask-1" x="87.16" y="96.86" width="141.32" height="58.58" maskUnits="userSpaceOnUse">
      <g id="g" data-name="n9qe9613bd">
        <path id="h" data-name="yysq3xn3mc" class="y" d="M87.28,96.86h141.2v58.47H87.28v-58.47Z"/>
      </g>
    </mask>
    <mask id="i" data-name="mask-2" x="87.87" y="42.73" width="38.66" height="38.66" maskUnits="userSpaceOnUse">
      <g id="j" data-name="xy1r90qlog">
        <path id="k" data-name="xwq7wpaeie" class="y" d="M95.28,73.98h23.83v-23.83h-23.83v23.83h0ZM87.87,81.39h38.66v-38.66h-38.66v38.66Z"/>
      </g>
    </mask>
    <linearGradient id="l" x1="-280.32" y1="1350.31" x2="-281.23" y2="1348.18" gradientTransform="translate(6247.8 29570.01) scale(21.87 -21.87)" gradientUnits="userSpaceOnUse">
      <stop offset="0" stop-color="#0292c8"/>
      <stop offset="1" stop-color="#00578a"/>
    </linearGradient>
    <mask id="m" data-name="mask-3" x="103.33" y="27.26" width="38.66" height="38.66" maskUnits="userSpaceOnUse">
      <g id="n" data-name="u86is9rtoj">
        <path id="o" data-name="wdgkbins3h" class="y" d="M110.75,58.51h23.83v-23.83h-23.83v23.83h0ZM103.33,65.93h38.66V27.26h-38.66v38.66Z"/>
      </g>
    </mask>
    <linearGradient id="p" x1="-280.02" y1="1350.62" x2="-280.92" y2="1348.48" gradientTransform="translate(6256.55 29561.26) scale(21.87 -21.87)" gradientUnits="userSpaceOnUse">
      <stop offset="0" stop-color="#a2c3cc"/>
      <stop offset="1" stop-color="#667980"/>
    </linearGradient>
  </defs>
  <g id="b" data-name="Capital Group">
    <rect class="u" x="243.71" y="93.17" width=".78" height="65.56"/>
    <path class="u" d="M269.14,97.06l-10.03,23.09h2.42l2.59-6.05h11.59l2.51,6.05h2.42l-9.69-23.09h-1.82ZM265.08,111.86l4.93-11.5,4.76,11.5h-9.69ZM304.86,101.56l-8.22,18.51h-1.64l-8.22-18.42v18.42h-2.25v-23.09h2.68l8.65,19.46,8.65-19.46h2.59v23.09h-2.25v-18.51h0ZM328.13,120.07h-14.53v-23.09h14.01v2.16h-11.85v7.87h11.16v2.16h-11.16v8.74h12.28l.09,2.16h0ZM343.79,108.83c.78-.26,1.47-.61,2.16-1.04.69-.52,1.21-1.12,1.56-1.9.43-.86.61-1.82.61-2.77,0-1.04-.17-2.08-.69-2.94-.43-.78-1.12-1.47-1.9-1.9-.78-.52-1.64-.86-2.51-1.04s-1.82-.26-2.68-.26h-6.57v23.09h2.25v-10.73h3.89l6.31,10.73h2.59l-6.49-10.9c.52-.09,1.04-.17,1.47-.35h0ZM336.09,99.14h4.15c.78,0,1.56.09,2.25.17.61.09,1.21.35,1.73.69.52.26.95.69,1.21,1.21.35.61.43,1.3.43,1.9.09,1.12-.43,2.25-1.3,2.94-1.21.78-2.68,1.12-4.07,1.04h-4.41v-7.96h0ZM356.24,120.16h-2.25v-23.09h2.25v23.09ZM380.46,115.23l1.56,1.64-.43.43c-1.04,1.04-2.25,1.9-3.63,2.51-1.47.61-3.11.95-4.67.86-1.64,0-3.2-.35-4.76-.95-1.38-.61-2.68-1.47-3.72-2.51-1.04-1.12-1.9-2.42-2.51-3.81-1.12-3.11-1.12-6.57,0-9.69,1.12-2.94,3.37-5.19,6.23-6.4,1.47-.61,3.11-.95,4.76-.95,1.47,0,2.94.26,4.32.78s2.59,1.21,3.63,2.25l.52.52-1.64,1.56-.43-.43c-.78-.78-1.73-1.38-2.77-1.73-1.12-.35-2.25-.61-3.46-.61-1.3,0-2.68.26-3.89.78-2.34,1.04-4.07,2.94-4.93,5.28-.95,2.51-.95,5.28,0,7.78.43,1.21,1.12,2.25,1.9,3.2.86.95,1.82,1.64,3.03,2.16s2.59.78,3.89.78,2.59-.26,3.72-.78c1.12-.43,2.16-1.12,2.94-2.08l.35-.61h0ZM394.47,96.98l-10.03,23.09h2.42l2.68-6.05h11.5l2.51,6.05h2.42l-9.77-23.01c.09,0-1.73-.09-1.73-.09ZM390.41,111.86l4.93-11.5,4.76,11.5h-9.69ZM428.47,96.98v23.09h-2.25l-13.84-19.29v19.29h-2.34v-23.09h2.25l13.84,19.29v-19.29h2.34Z"/>
    <path class="u" d="M259.8,131.75h13.84v2.16h-11.5v8.04h10.73v2.16h-10.73v10.73h-2.25l-.09-23.09h0ZM294.05,145.85c0,.95-.09,1.9-.35,2.85-.17.86-.61,1.64-1.12,2.25-.52.69-1.21,1.21-2.08,1.56-1.99.78-4.24.78-6.23,0-.78-.35-1.47-.95-2.08-1.56-.52-.69-.95-1.47-1.12-2.25-.26-.95-.35-1.9-.35-2.85v-14.19h-2.25v14.27c0,1.21.17,2.42.43,3.55.35,1.12.86,2.16,1.56,3.03.78.95,1.73,1.64,2.77,2.16,2.68,1.04,5.62,1.04,8.22,0,1.12-.52,2.08-1.21,2.77-2.16.69-.86,1.21-1.9,1.56-3.03.35-1.12.43-2.34.43-3.55v-14.27h-2.25l.09,14.19h0ZM318.7,150.95l-13.84-19.29h-2.25v23.09h2.25v-19.2l13.84,19.29h2.25v-23.09h-2.25v19.2ZM345.69,138.15c.69,1.64,1.04,3.37,1.04,5.19s-.35,3.55-1.04,5.1c-.61,1.38-1.56,2.59-2.68,3.55-1.21.95-2.59,1.64-3.98,2.08-1.56.43-3.2.69-4.76.69h-6.92v-23.09h6.92c1.64,0,3.2.17,4.76.69,1.47.43,2.85,1.12,3.98,2.08,1.12,1.04,2.08,2.34,2.68,3.72h0ZM329.52,152.68h4.41c1.47,0,2.85-.17,4.24-.61,1.21-.35,2.34-.95,3.29-1.73.95-.78,1.64-1.73,2.16-2.85.52-1.3.86-2.77.78-4.15,0-1.38-.26-2.85-.78-4.15-.52-1.12-1.21-2.16-2.16-2.94s-2.08-1.38-3.29-1.82c-1.38-.43-2.77-.61-4.24-.61h-4.5v18.86h.09ZM362.82,144.38c-.69-.52-1.47-.95-2.25-1.3s-1.73-.69-2.59-.95c-.61-.17-1.21-.43-1.9-.69-.52-.26-1.04-.52-1.56-.95-.43-.35-.78-.78-1.04-1.21-.26-.52-.43-1.12-.35-1.73,0-.61.09-1.21.43-1.82.26-.52.69-.95,1.12-1.38.43-.35,1.04-.69,1.64-.86.61-.17,1.3-.26,1.9-.26.86,0,1.73.17,2.59.52.78.35,1.38.78,1.9,1.47l.43.52,1.73-1.47-.35-.52c-.69-.86-1.64-1.56-2.59-2.08-1.12-.52-2.34-.78-3.55-.69-.95,0-1.9.17-2.77.43s-1.64.69-2.34,1.3c-.69.52-1.21,1.3-1.64,2.08-.78,1.73-.86,3.63-.09,5.36.35.69.86,1.38,1.47,1.9.61.52,1.3.95,2.08,1.21.78.35,1.56.61,2.51.95.69.26,1.38.43,2.08.69.61.26,1.21.52,1.73.95.43.35.86.78,1.12,1.21.26.52.43,1.12.43,1.73,0,.69-.09,1.3-.43,1.9-.26.52-.61.95-1.12,1.38-.43.35-1.04.69-1.64.78-.69.17-1.3.26-1.99.26-.95,0-1.99-.17-2.85-.61-.86-.35-1.73-.95-2.34-1.64l-.43-.52-1.73,1.47.43.52c.86.95,1.82,1.73,3.03,2.25,1.3.52,2.59.78,3.98.78.95,0,1.82-.17,2.68-.43s1.64-.69,2.34-1.21c.69-.52,1.21-1.3,1.64-2.08.43-.86.61-1.82.61-2.77-.09-1.64-.95-3.29-2.34-4.5h0Z"/>
    <path class="u" d="M368.27,135.3c0-1.04.43-2.08,1.21-2.85.35-.35.86-.69,1.3-.86,1.04-.43,2.16-.43,3.2,0,.52.17.95.52,1.3.86s.69.78.86,1.3.35,1.04.35,1.56-.09,1.04-.35,1.56c-.17.52-.52.95-.86,1.3s-.78.69-1.3.86c-1.56.61-3.29.35-4.5-.86-.35-.35-.69-.78-.86-1.3-.26-.52-.35-1.04-.35-1.56ZM368.87,135.3c0,.43.09.95.26,1.3.17.43.43.78.78,1.12,1.38,1.38,3.55,1.38,4.84,0h0c.35-.35.61-.69.78-1.12.17-.43.26-.86.26-1.3s-.09-.95-.26-1.38c-.17-.43-.43-.78-.78-1.12-1.38-1.38-3.55-1.38-4.84,0-.69.69-1.04,1.56-1.04,2.51h0ZM370.77,132.96h1.64c.17,0,.43,0,.61.09s.43.09.52.26c.17.09.26.26.35.43s.17.43.17.61c0,.35-.09.61-.26.78-.17.26-.43.35-.78.43l1.21,1.99h-1.04l-1.04-1.9h-.61v1.9h-.86l.09-4.58h0ZM372.24,135.04c.26,0,.43-.09.69-.09.17-.09.35-.35.35-.52s-.09-.43-.26-.52c-.17-.09-.43-.09-.61-.09h-.78v1.3h.61v-.09Z"/>
    <g>
      <g class="t">
        <path class="x" d="M108.63,116.28c-1.1,1.35-2.37,2.42-3.81,3.2-1.44.78-3.25,1.17-5.41,1.17-1.82,0-3.48-.3-4.98-.89-1.5-.59-2.79-1.42-3.88-2.49-1.08-1.07-1.92-2.35-2.51-3.85-.59-1.5-.89-3.17-.89-5.02s.32-3.48.95-4.97c.63-1.5,1.5-2.78,2.62-3.83,1.11-1.05,2.43-1.87,3.96-2.46,1.53-.59,3.19-.89,4.98-.89s3.35.32,4.87.97c1.52.65,2.73,1.58,3.66,2.79l-3.25,2.55c-.61-.87-1.39-1.52-2.34-1.97-.95-.45-1.96-.67-3.03-.67-1.21,0-2.31.22-3.29.65-.98.43-1.82,1.03-2.51,1.79-.69.76-1.23,1.66-1.6,2.68-.38,1.02-.57,2.14-.57,3.35s.2,2.29.61,3.33c.4,1.04.95,1.95,1.64,2.73.69.78,1.52,1.39,2.47,1.84.95.45,1.97.67,3.07.67,1.21,0,2.32-.24,3.31-.71.99-.48,1.87-1.23,2.62-2.27l3.29,2.29"/>
      </g>
      <path class="x" d="M118.67,111.35h7.75l-3.85-9.73-3.9,9.73ZM115.21,120.05h-4.37l9.87-23.18h3.85l9.83,23.18h-4.5l-2.16-5.36h-10.3s-2.21,5.36-2.21,5.36ZM142.74,107.85h3.51c1.47,0,2.65-.31,3.53-.94.88-.63,1.32-1.59,1.32-2.88,0-1.2-.4-2.12-1.21-2.75-.81-.63-1.96-.95-3.46-.95h-3.68v7.52ZM138.58,96.91h8.05c2.68,0,4.79.61,6.32,1.83s2.29,2.97,2.29,5.24-.8,4.16-2.38,5.41c-1.59,1.25-3.71,1.87-6.36,1.87h-3.77v8.78h-4.15s0-23.14,0-23.14ZM160.38,120.05h4.15v-23.18h-4.15v23.18ZM180.38,120.05h-4.16v-19.72h-7.1v-3.42h18.44v3.42h-7.18v19.72M194.46,111.35h7.75l-3.85-9.73s-3.89,9.73-3.89,9.73ZM191,120.05h-4.37l9.87-23.18h3.85l9.83,23.18h-4.5l-2.16-5.36h-10.3l-2.21,5.36h0Z"/>
      <g class="s">
        <path class="x" d="M218.52,116.54h9.96v3.5h-14.11v-23.18h4.15v19.68M105.56,137.15c-.66-.75-1.51-1.34-2.53-1.77-1.03-.43-2.16-.65-3.4-.65s-2.35.22-3.33.65c-.98.43-1.82,1.03-2.51,1.79-.69.76-1.23,1.67-1.6,2.7-.38,1.04-.57,2.15-.57,3.33s.2,2.29.58,3.33c.39,1.04.94,1.95,1.65,2.73.71.78,1.57,1.39,2.58,1.84,1.01.45,2.13.67,3.37.67,1.82,0,3.38-.3,4.67-.91v-5.71h-4.89v-3.42h9.05v11.63c-1.24.66-2.6,1.18-4.09,1.54-1.49.36-3.09.54-4.83.54-1.85,0-3.54-.3-5.09-.91-1.54-.6-2.86-1.45-3.96-2.53-1.1-1.08-1.96-2.37-2.58-3.87-.62-1.5-.93-3.14-.93-4.93s.32-3.48.95-4.98c.63-1.5,1.5-2.78,2.6-3.83,1.1-1.05,2.4-1.87,3.92-2.46,1.52-.59,3.17-.89,4.96-.89s3.57.29,5.08.87c1.52.58,2.78,1.33,3.79,2.25l-2.9,2.99M118.97,141.65h3.59c.63,0,1.24-.06,1.82-.17.58-.11,1.09-.31,1.54-.58.45-.27.8-.62,1.06-1.05.26-.43.39-.97.39-1.63,0-.6-.12-1.1-.37-1.5-.25-.4-.58-.72-1-.97-.42-.24-.9-.41-1.45-.5-.55-.08-1.12-.13-1.73-.13h-3.85s0,6.53,0,6.53ZM118.97,154.84h-4.15v-23.14h8.25c1.15,0,2.24.11,3.26.32,1.02.22,1.92.57,2.7,1.06.78.49,1.39,1.15,1.84,1.98.45.83.67,1.85.67,3.06,0,1.69-.47,3.08-1.4,4.14-.94,1.06-2.15,1.79-3.65,2.2l6.02,10.39h-4.81l-5.39-9.78h-3.32v9.78ZM155.81,143.21c0-1.21-.19-2.33-.56-3.35-.37-1.03-.92-1.92-1.62-2.68-.71-.76-1.56-1.36-2.55-1.79-1-.43-2.11-.65-3.35-.65s-2.31.22-3.29.65c-.98.43-1.82,1.03-2.51,1.79s-1.23,1.66-1.6,2.68-.56,2.14-.56,3.35.19,2.34.56,3.39c.37,1.05.91,1.96,1.6,2.72.69.76,1.53,1.36,2.51,1.8.98.43,2.08.65,3.29.65s2.36-.22,3.36-.65c1-.43,1.85-1.03,2.55-1.8.71-.76,1.25-1.67,1.62-2.72.37-1.05.56-2.19.56-3.39h0ZM160.27,143.21c0,1.79-.32,3.43-.95,4.93-.64,1.5-1.52,2.79-2.64,3.87-1.13,1.08-2.45,1.93-3.98,2.53-1.53.61-3.19.91-4.98.91s-3.4-.3-4.91-.91c-1.52-.6-2.83-1.45-3.94-2.53-1.11-1.08-1.98-2.37-2.62-3.87-.63-1.5-.95-3.14-.95-4.93s.32-3.48.95-4.98c.64-1.5,1.51-2.78,2.62-3.83,1.11-1.05,2.42-1.87,3.94-2.46,1.51-.59,3.15-.89,4.91-.89s3.45.3,4.98.89c1.53.59,2.86,1.41,3.98,2.46,1.12,1.05,2,2.33,2.64,3.83.64,1.5.95,3.16.95,4.98ZM174.73,155.45c-1.5,0-2.84-.24-4.02-.71-1.18-.48-2.18-1.13-2.99-1.95-.81-.82-1.42-1.8-1.84-2.92-.42-1.12-.63-2.35-.63-3.68v-14.53h4.16v14.23c0,.78.09,1.51.28,2.2.19.69.49,1.31.91,1.86.42.55.97.98,1.64,1.3.68.32,1.51.48,2.49.48s1.81-.16,2.49-.48c.68-.32,1.23-.75,1.67-1.3.43-.55.74-1.17.93-1.86.19-.69.28-1.43.28-2.2v-14.23h4.15v14.53c0,1.33-.22,2.55-.65,3.68-.43,1.12-1.05,2.1-1.86,2.92-.81.82-1.8,1.47-2.99,1.95-1.18.48-2.52.71-4.02.71"/>
      </g>
      <path class="x" d="M194.33,142.65h3.51c1.47,0,2.65-.31,3.53-.95.88-.63,1.32-1.59,1.32-2.88,0-1.2-.4-2.12-1.21-2.75-.81-.63-1.96-.95-3.46-.95h-3.68v7.53h0ZM190.18,131.7h8.05c2.68,0,4.79.61,6.32,1.83,1.53,1.22,2.29,2.97,2.29,5.24s-.79,4.16-2.38,5.41c-1.59,1.25-3.71,1.87-6.36,1.87h-3.77v8.78h-4.15v-23.14h0ZM214.29,135.48c.24,0,.47-.05.69-.14.22-.09.33-.27.33-.55,0-.25-.1-.42-.3-.5-.2-.08-.41-.13-.62-.13h-.76v1.32h.67ZM212.8,133.46h1.62c.22,0,.43.02.63.07.21.05.39.13.55.23.16.11.29.25.39.42.1.17.14.38.14.63,0,.34-.1.61-.29.82-.19.21-.45.35-.78.42l1.25,2.02h-1.01l-1.08-1.93h-.6v1.93h-.83v-4.61h0ZM210.94,135.78c0,.47.09.91.27,1.33.18.42.43.79.74,1.11.31.32.68.57,1.1.75.42.18.87.27,1.35.27s.93-.09,1.35-.27c.42-.18.79-.43,1.1-.75.31-.32.56-.69.74-1.11.18-.42.27-.87.27-1.33s-.09-.93-.27-1.35c-.18-.42-.43-.79-.74-1.1-.31-.31-.68-.56-1.1-.74-.42-.18-.87-.27-1.35-.27s-.93.09-1.35.27c-.42.18-.79.42-1.1.74-.31.31-.56.68-.74,1.1-.18.42-.27.87-.27,1.35ZM210.29,135.78c0-.57.11-1.1.32-1.6.22-.5.51-.93.88-1.3.37-.37.81-.66,1.31-.88.5-.22,1.03-.33,1.59-.33s1.1.11,1.6.33c.5.22.93.51,1.31.88.37.37.67.8.88,1.3.22.5.32,1.03.32,1.6s-.11,1.09-.33,1.59c-.22.49-.51.92-.88,1.29-.37.37-.81.65-1.3.87-.5.21-1.03.31-1.6.31s-1.1-.11-1.6-.31c-.5-.21-.93-.5-1.31-.87-.37-.37-.67-.8-.88-1.29-.22-.5-.32-1.02-.32-1.59Z"/>
      <g class="q">
        <path class="v" d="M95.28,73.98h23.83v-23.83h-23.83v23.83h0ZM87.87,81.39h38.66v-38.66h-38.66v38.66Z"/>
      </g>
      <g class="r">
        <path class="w" d="M110.75,58.51h23.83v-23.83h-23.83v23.83h0ZM103.33,65.93h38.66V27.26h-38.66v38.66Z"/>
      </g>
    </g>
  </g>
</svg>