<?xml version="1.0" encoding="UTF-8"?>
<svg id="a" data-name="Layer 1" xmlns="http://www.w3.org/2000/svg" viewBox="0 0 506 186">
  <defs>
    <style>
      .c {
        fill: #223e7c;
        stroke-width: 0px;
      }
    </style>
  </defs>
  <path id="b" data-name="Allianz" class="c" d="M129.87,76.51h-10.24l5.4-18.48,4.83,18.48ZM114.23,96.41l3.41-11.94h13.93l3.41,11.94h12.8l-12.8-45.78c-.85-2.56-2.27-3.98-5.4-3.98h-17.91v4.27h1.42c1.99,0,3.13.85,3.13,2.27,0,.85-.28,1.42-1.14,3.98l-12.8,39.24h11.94ZM162.58,96.41v-45.78c0-2.56-1.42-3.98-3.7-3.98h-11.09v4.27h.28c2.27,0,3.13.85,3.13,2.56v42.65h11.37v.28ZM182.2,96.41v-45.78c0-2.56-1.42-3.98-3.7-3.98h-11.37v4.27h.57c1.99,0,2.56.85,2.56,2.56v42.65h11.94v.28ZM202.1,51.2c0-3.13-2.27-5.12-6.82-5.12-3.7,0-6.26,1.99-6.26,5.12,0,3.41,2.56,5.4,6.26,5.4,4.55,0,6.82-1.99,6.82-5.4h0ZM201.53,96.41v-33.27c0-2.27-1.14-3.98-3.41-3.98h-11.37v4.27h.85c1.99,0,2.56.85,2.56,2.56v30.43h11.37ZM226.84,78.5v7.39c-1.99,2.27-4.27,3.41-5.97,3.41-2.27,0-3.13-1.14-3.13-3.98s.85-4.27,2.56-5.12c1.71-.57,3.41-1.14,6.54-1.71h0ZM211.48,69.97c3.7-1.99,7.96-3.13,11.37-3.13,3.13,0,4.27,1.14,4.27,4.55v.85c-4.55.85-5.97,1.14-8.53,1.42-1.42.28-3.13.85-4.55,1.42-4.55,1.99-6.82,5.4-6.82,11.09,0,6.82,3.13,10.24,9.38,10.24,2.27,0,4.27-.28,5.97-1.14,1.42-.85,2.56-1.42,4.83-3.13v.85c0,2.27,1.14,3.41,3.41,3.41h10.52v-3.98h-.85c-1.99,0-2.56-1.14-2.56-3.41v-17.63c0-9.67-3.13-12.8-12.51-12.8-3.13,0-5.97.28-8.53.85-3.13.85-4.55,1.42-7.96,3.13l2.56,7.39ZM257.83,96.41v-25.31c1.99-1.99,3.7-3.13,5.97-3.13,2.56,0,3.13,1.14,3.13,5.12v23.32h11.66v-25.31c0-5.69-.85-7.68-2.27-9.67-1.99-1.99-4.27-2.56-7.39-2.56-4.55,0-7.39,1.42-11.66,5.4v-1.71c0-2.27-1.14-3.41-3.41-3.41h-10.81v4.27h.85c1.99,0,2.56.85,2.56,2.56v30.43h11.37ZM311.86,88.73h-15.92l15.07-21.9v-7.68h-23.6c-2.56,0-3.7,1.14-3.7,4.27v6.54h4.27v-.85c0-1.42.85-2.27,2.56-2.27h8.25l-15.36,21.9v7.68h28.72v-7.68h-.28ZM371.86,95.56v-42.08c0-3.41-1.14-4.55-4.27-4.55h-9.67v5.12h.28c2.27,0,2.56.28,2.56,3.13v38.67h11.09v-.28ZM376.69,95.56h10.52v-32.99c0-3.13-1.14-4.27-4.27-4.27h-6.26v37.25ZM356.22,95.56v-37.25h-6.26c-3.13,0-4.55,1.14-4.55,4.27v32.99s10.81,0,10.81,0ZM397.45,74.23c0,18.48-13.08,31.85-30.99,31.85s-31.28-13.36-31.28-31.85,13.08-32.42,31.28-32.42,30.99,13.93,30.99,32.42h0ZM403.71,74.23c0-21.9-15.92-38.1-37.25-38.1s-37.53,16.21-37.53,38.1,16.21,38.1,37.53,38.1,37.25-16.21,37.25-38.1h0ZM115.37,149.59c-8.25,0-12.51-5.4-12.51-14.22,0-2.56,0-6.26,1.99-9.1,2.27-3.98,5.97-6.26,11.66-6.26,4.83,0,7.39,1.99,7.39,1.99v3.98s-2.27-2.56-7.39-2.56c-7.11,0-9.67,5.69-9.67,11.94,0,7.68,3.13,11.66,9.1,11.66,2.56,0,4.27-.85,4.27-.85v-9.1h4.27v10.81c-.28-.57-3.13,1.71-9.1,1.71ZM129.31,149.59v-31.56l4.27-.28v31.85s-4.27,0-4.27,0ZM146.65,149.87c-5.4,0-8.53-3.98-8.53-10.81s3.13-11.66,9.1-11.66c5.4,0,8.53,3.98,8.53,10.81s-3.13,11.66-9.1,11.66ZM146.65,130.53c-3.41,0-4.83,2.56-4.83,7.96,0,4.55,1.14,7.96,4.83,7.96s5.4-2.56,5.4-7.96c0-4.27-1.14-7.96-5.4-7.96ZM168.55,149.59c-3.41,0-4.83-1.42-4.83-1.42l-3.41,1.42v-31.56l3.7-.28v12.8s1.42-2.56,5.4-2.56c5.69,0,7.96,4.55,7.96,10.24-.28,9.38-4.83,11.37-8.81,11.37ZM168.55,130.53c-2.56,0-4.55,1.42-4.55,4.27v10.24s1.14,1.42,3.7,1.42c3.7,0,5.69-2.56,5.69-7.96,0-5.4-1.99-7.96-4.83-7.96ZM191.86,149.59v-2.56s-1.14,2.56-5.4,2.56c-4.55,0-5.97-3.13-5.97-6.26,0-6.54,5.4-6.82,9.1-6.82l2.27-.28v-1.42c0-1.42,0-3.98-4.27-3.98-3.41,0-5.4,1.99-5.4,1.99v-3.41s1.99-1.42,6.26-1.42c6.26,0,6.82,4.27,6.82,6.82v14.5l-3.41.28ZM191.86,138.78l-2.27.28c-3.13,0-5.4.85-5.4,3.98,0,1.42.85,3.41,3.41,3.41s4.27-1.42,4.27-3.98c0,0,0-3.7,0-3.7ZM201.25,149.59v-31.56l3.7-.28v31.85s-3.7,0-3.7,0ZM219.45,149.59v-29.29h4.27v29.29h-4.27ZM241.91,149.59v-13.08c0-2.27,0-5.4-4.55-5.4-1.99,0-4.27.85-4.27,3.98v14.5h-4.27v-21.61h3.7v2.56s1.42-3.13,5.97-3.13c2.27,0,3.7.85,4.83,1.42,1.99,1.99,1.99,4.55,1.99,6.54v13.93h-3.41v.28ZM259.26,149.59h-3.7l-7.11-21.61h4.27l4.27,13.93c.85,1.99.85,3.98.85,3.98,0,0,.28-1.42,1.14-3.98l4.55-13.93h3.41l-7.68,21.61ZM272.05,139.07c0,4.27,1.14,7.68,6.26,7.68,3.7,0,5.69-2.27,5.69-2.27l-.28,3.41s-1.42,1.42-6.26,1.42c-4.27,0-9.1-1.42-9.1-10.81,0-6.54,2.56-11.09,8.53-11.09,7.11,0,7.96,6.26,7.96,10.81v.85h-12.8ZM276.89,130.25c-4.55,0-4.83,4.27-4.83,6.26h9.1c0-3.13-.57-6.26-4.27-6.26ZM293.95,149.59c-3.7,0-5.69-1.42-5.69-1.42l-.28-3.41s2.27,2.27,5.97,2.27c2.27,0,3.7-.85,3.7-2.56,0-1.99-.85-2.27-2.56-3.41l-2.27-1.42c-1.99-1.14-4.27-2.56-4.27-6.26,0-5.12,4.27-5.69,6.26-5.69,3.7,0,5.4,1.42,5.4,1.42v3.41s-1.99-1.99-4.83-1.99c-3.13,0-3.41,1.42-3.41,2.27,0,1.99,1.14,2.27,2.56,3.41l2.27,1.14c2.27,1.14,4.27,2.56,4.27,5.69,0,5.69-4.27,6.54-7.11,6.54ZM314.42,148.73s-1.14.85-3.41.85c-1.42,0-3.13-.28-4.27-1.99-.85-1.14-1.14-2.56-1.14-4.55v-12.23h-1.99v-2.56h1.99v-3.98l3.7-.85v4.55h5.4v2.56h-5.4v12.23c0,1.14.28,2.27.85,2.56.28.85.85,1.14,1.99,1.14,1.99,0,2.56-1.14,2.56-1.14l-.28,3.41ZM326.08,149.87c-5.4,0-8.53-3.98-8.53-10.81s2.56-11.66,9.1-11.66c5.4,0,8.53,3.98,8.53,10.81,0,7.11-2.84,11.66-9.1,11.66ZM326.08,130.53c-3.41,0-4.83,2.56-4.83,7.96,0,4.55,1.14,7.96,4.83,7.96,3.41,0,4.83-2.56,4.83-7.96.28-4.27-.85-7.96-4.83-7.96ZM350.25,131.67s-.85-.85-3.13-.85c-2.56,0-3.7,2.27-3.7,4.55v13.93h-3.7v-21.61h3.7v3.13s1.14-3.41,4.55-3.41c1.99,0,2.56.85,2.56.85l-.28,3.41ZM358.5,149.59c-4.27,0-5.97-1.42-5.97-1.42v-3.41s1.99,2.27,5.69,2.27c2.27,0,3.7-.85,3.7-2.56,0-1.99-.28-2.27-2.56-3.41l-2.27-1.14c-1.99-1.14-4.27-2.56-4.27-6.26,0-5.12,4.27-5.69,6.82-5.69,3.41,0,4.83,1.42,4.83,1.42v3.41s-1.99-1.99-4.83-1.99c-3.13,0-3.41,1.42-3.41,2.27,0,1.99,1.14,2.27,3.13,3.41l2.27,1.14c1.99,1.14,4.27,2.56,4.27,5.69-.28,5.4-4.27,6.26-7.39,6.26Z"/>
</svg>