<?xml version="1.0" encoding="UTF-8"?>
<svg id="a" data-name="Layer 1" xmlns="http://www.w3.org/2000/svg" viewBox="0 0 506 186">
  <defs>
    <style>
      .f {
        fill: #151f48;
      }

      .f, .g {
        stroke-width: 0px;
      }

      .g {
        fill: #1f9dd9;
      }
    </style>
  </defs>
  <g id="b" data-name="Amundi">
    <path id="c" data-name="path668" class="f" d="M379.22,41.49c-4.66,0-7.43,3.26-7.43,6.81s2.51,6.81,7.43,6.81,7.43-3.23,7.43-6.81-2.76-6.81-7.43-6.81ZM134.56,42.46l-23.82,57.21h13.48l4.66-11.12h21.14l4.66,11.12h13.47l-23.86-57.21h-9.73ZM353.65,42.46v15.2c-2.06-.55-4.19-.83-6.33-.84-8.2,0-12.65,3.89-14.6,5.75-3.99,4.16-6.22,9.7-6.2,15.47-.07,13.75,7.45,19.2,11.18,20.92,2.51,1.18,5.28,1.72,8.05,1.59,3.13-.22,6.11-1.41,8.52-3.42l.38,2.54h11.68v-57.22h-12.68ZM307.68,56.82c-2.1,0-3.99.31-5.34.78-2.31.74-4.43,1.99-6.21,3.65l-.52-3.43h-11.68v41.85h12.79v-28.87c1.07-.93,2.23-1.75,3.47-2.44,2.24-1.25,4.95-1.31,7.24-.17,2.24,1.26,3.27,4.2,3.27,7.79v23.74h12.79v-24.62c0-9.01-3.31-13.02-5.28-14.76-2.97-2.61-7.03-3.51-10.53-3.52h0ZM217.63,56.83c-4.91.16-9.69,1.66-13.81,4.33-2.83-2.92-9.78-5.59-15.49-3.58-2.31.75-4.43,1.99-6.21,3.65l-.45-3.42h-11.75v41.85h12.79v-28.97c1-.95,2.15-1.74,3.39-2.35,1.43-.69,4.96-1.95,7.52.21,1.95,1.66,2.06,5.59,2.06,6.7v24.41h12.65v-25.07c-.02-1.52-.16-3.04-.42-4.55,1.19-.76,2.45-1.41,3.76-1.95,2.92-1.29,6.23-.65,7.32.11,2.35,1.64,2.58,5.34,2.58,7.03v24.41h12.65v-24.86c0-4.57-.64-10.34-4.75-14.05s-10.51-3.89-11.84-3.89h0ZM238.96,57.81v24.75c0,4.64.83,9.73,4.02,13.28,3.19,3.54,8.33,4.97,13.06,4.64,2.18-.16,4.32-.75,6.27-1.74,1.39-.67,2.66-1.57,3.77-2.65l.55,3.59h11.68v-41.85l.04-.02h-12.79v29c-1.05.79-2.17,1.49-3.34,2.08-2.25,1.03-4.8,1.18-7.15.42-2.92-1.11-3.32-5.84-3.32-7.84v-23.66h-12.78ZM372.87,57.81v41.86h12.7v-41.86h-12.7ZM139.43,59.85l6.81,17.84h-13.63l6.81-17.84ZM348.24,67.41c.2,0,.4,0,.6,0,1.66.02,3.3.31,4.87.86l-.05,18.75c-.82,1-1.9,1.75-3.11,2.19-4.42,1.81-10.06-.22-11.25-7.79-.52-2.65-.31-5.39.61-7.93,1.26-3.55,4.57-5.97,8.34-6.08h0Z"/>
    <rect id="d" data-name="rect682" class="f" x="111.24" y="110.45" width="274.33" height="10.77"/>
    <path id="e" data-name="path686" class="g" d="M190.09,131.7c-.47,0-.94.05-1.4.14-1.89.28-3.72,1.41-4.07,3.42-.29,1.34.17,2.73,1.19,3.65,1.13.8,2.41,1.37,3.76,1.68.58.16,1.15.39,1.67.69.53.3.74.96.47,1.51-.28.52-1.06.64-1.6.64-.68.03-1.35-.13-1.95-.46-.47-.26-.89-.6-1.24-1.02l-2.54,1.96c.59.77,1.36,1.38,2.24,1.79,3.18,1.58,8.99.68,8.93-3.75.02-1.32-.6-2.56-1.67-3.32-1.22-.7-2.53-1.23-3.89-1.56-.59-.14-1.14-.44-1.58-.86-.31-.44-.2-1.05.24-1.36.03-.02.07-.04.1-.06.58-.27,1.24-.33,1.86-.18.65.14,1.25.48,1.7.97.16.16.3.34.43.53l2.54-1.95c-.22-.33-.48-.63-.76-.9-1.25-1.03-2.82-1.59-4.44-1.59ZM186.93,141.95l.07-.05-.1.02s.02.02.03.03h0ZM202.46,131.7c-.47,0-.94.05-1.4.14-1.89.28-3.72,1.41-4.07,3.42-.29,1.34.17,2.73,1.19,3.65,1.13.8,2.41,1.37,3.76,1.68.58.16,1.14.39,1.67.69.53.3.74.96.47,1.51-.28.53-1.06.64-1.6.64-.68.03-1.35-.13-1.95-.46-.47-.26-.89-.61-1.24-1.02l-2.54,1.96c.59.77,1.36,1.38,2.24,1.79,3.18,1.58,8.99.68,8.93-3.75.02-1.32-.6-2.56-1.67-3.32-1.22-.7-2.53-1.23-3.89-1.56-.59-.14-1.14-.44-1.58-.86-.31-.44-.21-1.05.23-1.36.03-.02.07-.05.11-.07.58-.27,1.24-.33,1.86-.17.65.14,1.25.48,1.7.97.16.16.3.34.43.53l2.54-1.95c-.22-.32-.47-.62-.76-.89-1.25-1.03-2.82-1.59-4.44-1.59h0ZM199.3,141.95l.07-.06-.1.03s.02.02.02.03h0ZM307.61,131.76c-.26,0-.52.03-.78.06-2.03.22-3.8,1.46-4.71,3.29-.68,1.45-.97,3.06-.85,4.65.03,1.55.52,3.05,1.41,4.31,1.51,1.99,3.73,2.57,6.23,2.41,1.56-.06,3.1-.34,4.57-.86v-7.22h-5.57v2.8l.02.06h2.01v2.06c-.88.18-1.78.15-2.65-.1-.59-.24-2.37-1.12-2.13-4.73,0-1.08.39-2.12,1.12-2.92.82-.79,2.09-.88,3.01-.21.39.35.7.78.91,1.25l3.16-1.62c-.22-.48-.5-.94-.83-1.35-1.18-1.46-3.1-1.97-4.93-1.9h0ZM174.22,132l-5.49,14.13,3.86.03.97-2.43h4.75l.92,2.43h4.07l-5.53-14.16h-3.54ZM210.21,132v14.13h10.51v-3.26h-6.72v-2.31h5.11v-2.99h-5.11v-2.34h6.28v-3.24h-10.07ZM221.83,132v3.24h3.96v10.89h3.82v-10.89h3.89v-3.24h-11.68ZM239.68,132v14.13h3.64s0-6.94,0-6.94l2.92,7.04h1.55l2.82-7v6.91h3.67v-14.14h-3.89l-3.29,8.42-3.52-8.42h-3.89ZM261.55,132l-5.49,14.13,3.86.03.97-2.43h4.74l.91,2.43h4.07l-5.53-14.16h-3.54ZM272.36,132v14.13h3.71s0-7.98,0-7.98l5,7.99h3.46v-14.14h-3.73v7.48l-4.6-7.48h-3.83ZM291.76,132l-5.5,14.13,3.86.03.97-2.43h4.75l.91,2.43h4.07l-5.53-14.16h-3.54ZM316.22,132v14.13h10.52v-3.26h-6.71v-2.31h5.11v-2.99h-5.11v-2.34h6.28v-3.24h-10.08ZM329.11,132v14.13h3.72s0-6.94,0-6.94l2.92,7.04h1.51l2.82-7v6.91h3.67v-14.14h-3.89l-3.33,8.42-3.52-8.42h-3.89ZM346.93,132v14.13h10.52v-3.26h-6.73v-2.31h5.11v-2.99h-5.11v-2.34h6.28v-3.24h-10.07ZM359.82,132v14.13h3.71s0-7.98,0-7.98l5,7.99h3.45v-14.14h-3.73v7.48l-4.6-7.48h-3.84ZM373.88,132v3.24h3.96v10.89h3.83v-10.89h3.89v-3.24h-11.68ZM175.91,136.51l1.53,4.3h-3.06l1.53-4.3ZM263.24,136.51l1.53,4.3h-3.05l1.53-4.3ZM293.45,136.51l1.53,4.3h-3.06l1.53-4.3Z"/>
  </g>
</svg>