<?xml version="1.0" encoding="UTF-8"?>
<svg id="Layer_1" xmlns="http://www.w3.org/2000/svg" width="200" height="207.6" xmlns:xlink="http://www.w3.org/1999/xlink" version="1.1" viewBox="0 0 200 207.6">
  <!-- Generator: Adobe Illustrator 29.3.0, SVG Export Plug-In . SVG Version: 2.1.0 Build 2)  -->
  <defs>
    <style>
      .st0 {
        fill: #fff;
      }
    </style>
  </defs>
  <path class="st0" d="M3.4,122.5c50.8-9.1,64.1-22.4,73.2-73.2.8-4.7,7.6-4.7,8.4,0,9.1,50.8,22.4,64.1,73.2,73.2,4.7.8,4.7,7.6,0,8.4-50.8,9.1-64.1,22.4-73.2,73.2-.8,4.7-7.6,4.7-8.4,0-9.1-50.8-22.4-64.1-73.2-73.2-4.7-.8-4.7-7.6,0-8.4Z"/>
  <path class="st0" d="M119.2,38.9c24.9-4.7,32-11.8,36.7-36.7.5-2.9,4.6-2.9,5.2,0,4.7,24.9,11.8,32,36.7,36.7,2.9.5,2.9,4.6,0,5.2-24.9,4.7-32,11.8-36.7,36.7-.5,2.9-4.6,2.9-5.2,0-4.7-24.9-11.8-32-36.7-36.7-2.9-.6-2.9-4.6,0-5.2Z"/>
</svg>