<svg xmlns="http://www.w3.org/2000/svg" width="61.306" height="54.541" viewBox="0 0 61.306 54.541"><path d="M14.285,37.1H49.536a5.3,5.3,0,0,1,5.285,5.285V62.362a5.3,5.3,0,0,1-5.285,5.285H19.993v10.57L9,67.647V42.385A5.267,5.267,0,0,1,14.285,37.1Z" transform="translate(-7.415 -25.262)" fill="#e9e8f3"/><path d="M27.3,55.246V37.7H58.217V62.645H34.7A7.387,7.387,0,0,1,27.3,55.246Z" transform="translate(-16.043 -25.545)" fill="#d8d4ea"/><path d="M18.578,78.388a1.818,1.818,0,0,1-1.11-.423L6.476,67.4A1.64,1.64,0,0,1,6,66.233V40.97a6.857,6.857,0,0,1,6.87-6.87H48.121a6.857,6.857,0,0,1,6.87,6.87V60.948a6.857,6.857,0,0,1-6.87,6.87H18.578a1.585,1.585,0,1,1,0-3.171H48.121a3.677,3.677,0,0,0,3.7-3.7V40.97a3.677,3.677,0,0,0-3.7-3.7H12.87a3.677,3.677,0,0,0-3.7,3.7V65.6L19.688,75.693a1.579,1.579,0,0,1,.053,2.22A1.64,1.64,0,0,1,18.578,78.388Z" transform="translate(-6 -23.847)" fill="#454b54"/><path d="M75.193,17.7H42.585A5.3,5.3,0,0,0,37.3,22.985V42.962a5.3,5.3,0,0,0,5.285,5.285H74.77l5.708,10.781V22.985A5.3,5.3,0,0,0,75.193,17.7Z" transform="translate(-20.758 -16.115)" fill="#fff"/><path d="M79.064,59.2a1.557,1.557,0,0,1-1.585-1.585V21.57a3.677,3.677,0,0,0-3.7-3.7H41.17a3.677,3.677,0,0,0-3.7,3.7V41.548a3.677,3.677,0,0,0,3.7,3.7H73.356a1.585,1.585,0,1,1,0,3.171H41.17a6.857,6.857,0,0,1-6.87-6.87V21.57a6.857,6.857,0,0,1,6.87-6.87H73.779a6.857,6.857,0,0,1,6.87,6.87v36.1A1.546,1.546,0,0,1,79.064,59.2Z" transform="translate(-19.344 -14.7)" fill="#454b54"/><path d="M54.037,42.3a2.537,2.537,0,1,0,2.537,2.537A2.537,2.537,0,0,0,54.037,42.3Zm10.2,0a2.537,2.537,0,1,0,2.537,2.537A2.537,2.537,0,0,0,64.237,42.3Zm10.2,0a2.537,2.537,0,1,0,2.537,2.537A2.537,2.537,0,0,0,74.437,42.3Z" transform="translate(-27.453 -27.713)" fill="#9fbad3"/></svg>