<svg xmlns="http://www.w3.org/2000/svg" width="40.396" height="40.363" viewBox="0 0 40.396 40.363"><g transform="translate(-2.786 -2.84)"><path d="M94.329,94.329h0a2.222,2.222,0,0,1-3.1,0L86.6,89.7a2.222,2.222,0,0,1,0-3.1h0a2.222,2.222,0,0,1,3.1,0l4.628,4.628A2.222,2.222,0,0,1,94.329,94.329Z" transform="translate(-52.874 -52.84)" fill="#fff"/><path d="M12.754,0A12.754,12.754,0,1,0,25.509,12.754,12.754,12.754,0,0,0,12.754,0Z" transform="matrix(0.707, -0.707, 0.707, 0.707, 2.786, 20.878)" fill="#fff"/><path d="M12.754,0A12.754,12.754,0,1,0,25.509,12.754,12.754,12.754,0,0,0,12.754,0Z" transform="matrix(0.707, -0.707, 0.707, 0.707, 2.786, 20.878)" fill="#fff"/><path d="M50.393,49.089a1.093,1.093,0,1,1,0-2.186,9.463,9.463,0,0,0,9.22-11.661,1.087,1.087,0,1,1,2.114-.51A11.586,11.586,0,0,1,50.393,49.089Zm7.543-17.966a1.049,1.049,0,0,1-.765-.328l-.073-.036a1.082,1.082,0,0,1,1.531-1.531l.073.073a1.057,1.057,0,0,1,0,1.531A1.176,1.176,0,0,1,57.937,31.123Z" transform="translate(-29.563 -16.564)" fill="#71c2ff"/><path d="M28.148,42.059a13.834,13.834,0,1,1,9.766-23.614h0a13.811,13.811,0,0,1-9.766,23.614Zm0-25.473a11.5,11.5,0,0,0-8.236,3.425,11.7,11.7,0,1,0,8.236-3.425ZM49.539,44.974l-4.628-4.628a3.279,3.279,0,0,0-2.332-.947,3.133,3.133,0,0,0-1.421.328l-.911-.911a1.082,1.082,0,1,0-1.531,1.531l.911.911a3.133,3.133,0,0,0-.328,1.421,3.279,3.279,0,0,0,.947,2.332L44.911,49.6a3.249,3.249,0,0,0,2.332.947,3.407,3.407,0,0,0,2.332-.947h0A3.311,3.311,0,0,0,49.539,44.974Zm-1.531,3.1a1.057,1.057,0,0,1-1.531,0l-4.664-4.628a1.049,1.049,0,0,1-.328-.765.992.992,0,0,1,.328-.765,1.049,1.049,0,0,1,.765-.328.992.992,0,0,1,.765.328l4.628,4.628A1.028,1.028,0,0,1,48.008,48.072Z" transform="translate(-7.318 -7.348)" fill="#444b54"/></g></svg>