<svg xmlns="http://www.w3.org/2000/svg" width="92.005" height="116" viewBox="0 0 92.005 116"><g transform="translate(-18 -6)"><path d="M97,19h0A10.029,10.029,0,0,1,107,9H31A10.029,10.029,0,0,0,21,19h0A10.029,10.029,0,0,0,31,29H42l-3,93H51L48,29h59" fill="#fff"/><path d="M48,29h59v90H48Z" fill="#fd5576"/><path d="M21,19v90a10.029,10.029,0,0,0,10,10H42V29H31A10.029,10.029,0,0,1,21,19Z" fill="#d32b4c"/><path d="M107,26H51.2A3.16,3.16,0,0,0,48,28.8,3.055,3.055,0,0,0,51,32h53v84H51a2.946,2.946,0,0,0-3,3h0a2.946,2.946,0,0,0,3,3h56a2.946,2.946,0,0,0,3-3V29A2.946,2.946,0,0,0,107,26Z" fill="#444b54"/><path d="M31,116a6.957,6.957,0,0,1-7-7V29.9A12.82,12.82,0,0,0,31,32h7.8A3.16,3.16,0,0,0,42,29.2,3.055,3.055,0,0,0,39,26H31.2A7.139,7.139,0,0,1,24,19.9,7.074,7.074,0,0,1,31,12H96a12.573,12.573,0,0,0-2,6.7A3.194,3.194,0,0,0,96.9,22a2.97,2.97,0,0,0,3.1-3,6.957,6.957,0,0,1,7-7,3.04,3.04,0,0,0,3-2.8A3,3,0,0,0,107,6H31A12.974,12.974,0,0,0,18,19v90a12.974,12.974,0,0,0,13,13h8a2.946,2.946,0,0,0,3-3h0a2.946,2.946,0,0,0-3-3Z" fill="#444b54"/><path d="M63,79H87a2.946,2.946,0,0,0,3-3V62a2.946,2.946,0,0,0-3-3H63a2.946,2.946,0,0,0-3,3V76A2.946,2.946,0,0,0,63,79Z" fill="#fff"/></g></svg>