<svg xmlns="http://www.w3.org/2000/svg" width="110" height="116" viewBox="0 0 110 116"><g transform="translate(-9 -6)"><path d="M106,9H32A10.029,10.029,0,0,0,22,19v90a10.029,10.029,0,0,0,10,10h74a10.029,10.029,0,0,0,10-10V19A10.029,10.029,0,0,0,106,9Z" fill="#fff"/><path d="M96,99H61a3,3,0,0,1,0-6H96a3,3,0,0,1,0,6Zm0-60H61a3,3,0,0,1,0-6H96a3,3,0,0,1,0,6Zm0,45H61a3,3,0,0,1,0-6H96a3,3,0,0,1,0,6Zm0-30H61a3,3,0,0,1,0-6H96a3,3,0,0,1,0,6Zm0,15H61a3,3,0,0,1,0-6H96a3,3,0,0,1,0,6Z" fill="#d3d8dd"/><path d="M44,109a2.946,2.946,0,0,1-3-3V22a3,3,0,0,1,6,0v84A2.946,2.946,0,0,1,44,109Z" fill="#71c2fd"/><path d="M106,6H32A12.974,12.974,0,0,0,19,19v7H17a8,8,0,0,0,0,16h2V86H17a8,8,0,0,0,0,16h2v7a12.974,12.974,0,0,0,13,13h74a12.974,12.974,0,0,0,13-13V19A12.974,12.974,0,0,0,106,6Zm7,103a6.957,6.957,0,0,1-7,7H32a6.957,6.957,0,0,1-7-7v-7h2a8.024,8.024,0,0,0,8-8,3,3,0,0,0-6,0,2.006,2.006,0,0,1-2,2H17a2,2,0,0,1,0-4h5a2.946,2.946,0,0,0,3-3V42h2a8.024,8.024,0,0,0,8-8,3,3,0,0,0-6,0,2.006,2.006,0,0,1-2,2H17a2,2,0,0,1,0-4h5a2.946,2.946,0,0,0,3-3V19a6.957,6.957,0,0,1,7-7h74a6.957,6.957,0,0,1,7,7Z" fill="#444b54"/></g></svg>