<svg xmlns="http://www.w3.org/2000/svg" width="66.604" height="54.396" viewBox="0 0 66.604 54.396"><path d="M31.01,55h0a3.7,3.7,0,0,0,5.285,0h0a3.7,3.7,0,0,1,5.285,0h0a3.7,3.7,0,0,0,5.285,0h0a3.7,3.7,0,0,1,5.285,0h0a3.7,3.7,0,0,0,5.285,0h0a3.7,3.7,0,0,1,5.285,0h0A3.7,3.7,0,0,0,68,55h0a3.7,3.7,0,0,1,5.285,0h0a3.7,3.7,0,0,0,5.285,0h0a3.7,3.7,0,0,0,0-5.285h0a3.7,3.7,0,0,1,0-5.285h0a3.7,3.7,0,0,0,0-5.285h0a3.7,3.7,0,0,1,0-5.285h0a3.7,3.7,0,0,0,0-5.285h0a3.7,3.7,0,0,1,0-5.285h0a3.7,3.7,0,0,0,0-5.285h0a3.7,3.7,0,0,0-5.285,0h0a3.7,3.7,0,0,1-5.285,0h0a3.7,3.7,0,0,0-5.285,0h0a3.7,3.7,0,0,1-5.285,0h0a3.7,3.7,0,0,0-5.285,0h0a3.7,3.7,0,0,1-5.285,0h0a3.7,3.7,0,0,0-5.285,0h0a3.7,3.7,0,0,1-5.285,0h0a3.7,3.7,0,0,0-5.285,0h0a3.7,3.7,0,0,0,0,5.285h0a3.7,3.7,0,0,1,0,5.285h0a3.7,3.7,0,0,0,0,5.285h0a3.7,3.7,0,0,1,0,5.285h0a3.7,3.7,0,0,0,0,5.285h0a3.7,3.7,0,0,1,0,5.285h0A3.7,3.7,0,0,0,31.01,55Z" transform="translate(-14.626 -15.407)" fill="#fff"/><path d="M63.983,56.368a5.231,5.231,0,0,1-3.752-1.533,2.169,2.169,0,0,0-3.065,0,5.327,5.327,0,0,1-7.5,0,2.169,2.169,0,0,0-3.065,0,5.36,5.36,0,0,1-7.5,0,2.169,2.169,0,0,0-3.065,0,5.327,5.327,0,0,1-7.5,0,1.57,1.57,0,0,1,2.22-2.22,2.169,2.169,0,0,0,3.065,0,5.327,5.327,0,0,1,7.5,0,2.169,2.169,0,0,0,3.065,0,5.36,5.36,0,0,1,7.5,0,2.169,2.169,0,0,0,3.065,0,5.36,5.36,0,0,1,7.5,0,2.169,2.169,0,0,0,3.065,0,5.327,5.327,0,0,1,7.5,0,2.167,2.167,0,0,0,3.065-3.065,5.36,5.36,0,0,1,0-7.5,2.169,2.169,0,0,0,0-3.065,5.36,5.36,0,0,1,0-7.5,2.169,2.169,0,0,0,0-3.065,5.36,5.36,0,0,1,0-7.5,2.167,2.167,0,1,0-3.065-3.065,5.327,5.327,0,0,1-7.5,0,2.169,2.169,0,0,0-3.065,0,5.36,5.36,0,0,1-7.5,0,2.169,2.169,0,0,0-3.065,0,5.36,5.36,0,0,1-7.5,0,2.169,2.169,0,0,0-3.065,0,5.327,5.327,0,0,1-7.5,0,2.167,2.167,0,0,0-3.065,3.065,5.36,5.36,0,0,1,0,7.5,2.169,2.169,0,0,0,0,3.065,5.36,5.36,0,0,1,0,7.5,1.57,1.57,0,0,1-2.22-2.22,2.169,2.169,0,0,0,0-3.065,5.36,5.36,0,0,1,0-7.5,2.169,2.169,0,0,0,0-3.065,5.307,5.307,0,0,1,7.5-7.5,2.169,2.169,0,0,0,3.065,0,5.36,5.36,0,0,1,7.5,0,2.169,2.169,0,0,0,3.065,0,5.327,5.327,0,0,1,7.5,0,2.169,2.169,0,0,0,3.065,0,5.36,5.36,0,0,1,7.5,0,2.169,2.169,0,0,0,3.065,0,5.307,5.307,0,0,1,7.5,7.5,2.169,2.169,0,0,0,0,3.065,5.36,5.36,0,0,1,0,7.5,2.169,2.169,0,0,0,0,3.065,5.36,5.36,0,0,1,0,7.5,2.169,2.169,0,0,0,0,3.065,5.307,5.307,0,1,1-7.5,7.5,2.169,2.169,0,0,0-3.065,0A5.458,5.458,0,0,1,63.983,56.368Z" transform="translate(-13.247 -14.075)" fill="#444b54"/><path d="M78.71,35.585V53.554a1.557,1.557,0,0,1-1.585,1.585H48.585A1.557,1.557,0,0,1,47,53.554V35.585A1.557,1.557,0,0,1,48.585,34H77.124A1.557,1.557,0,0,1,78.71,35.585Z" transform="translate(-22.689 -23.47)" fill="#8fe5b5"/><path d="M13.155,68.9A19.19,19.19,0,0,1,1.634,65.1a1.585,1.585,0,1,1,1.9-2.537,16.174,16.174,0,0,0,19.237,0,19.029,19.029,0,0,1,19.871-1.9,1.584,1.584,0,1,1-1.374,2.854A15.953,15.953,0,0,0,24.677,65.1,19.546,19.546,0,0,1,13.155,68.9Zm0,20.611H13.05a1.585,1.585,0,1,1,0-3.171h.106a15.85,15.85,0,0,0,9.619-3.224,19.132,19.132,0,0,1,23.042,0,1.585,1.585,0,0,1-1.9,2.537,15.961,15.961,0,0,0-19.237,0A18.9,18.9,0,0,1,13.155,89.516ZM2.585,82.8A1.585,1.585,0,1,0,4.171,84.39,1.585,1.585,0,0,0,2.585,82.8Z" transform="translate(-1 -35.121)" fill="#444b54"/></svg>