<svg xmlns="http://www.w3.org/2000/svg" width="107" height="116" viewBox="0 0 107 116"><g transform="translate(-19 -6)"><path d="M96,119H32a10.029,10.029,0,0,1-10-10V19A10.029,10.029,0,0,1,32,9H96a10.029,10.029,0,0,1,10,10v90A10.029,10.029,0,0,1,96,119Z" fill="#fff"/><path d="M86,62H42a3,3,0,0,1,0-6H86a3,3,0,0,1,0,6ZM76,32H52a3,3,0,0,1,0-6H76a3,3,0,0,1,0,6ZM86,77H42a3,3,0,0,1,0-6H86a3,3,0,0,1,0,6ZM70,92H42a3,3,0,0,1,0-6H70a3,3,0,0,1,0,6Z" fill="#e9eef4"/><path d="M106,82a20,20,0,1,0,20,20A20,20,0,0,0,106,82Z" fill="#1fd4af"/><path d="M119.5,87.3l-13.4,15-4.8-6.2a2.991,2.991,0,0,0-4.7,3.7l7,9a3.262,3.262,0,0,0,2.3,1.2h.1a2.865,2.865,0,0,0,2.2-1l15.1-17A21.193,21.193,0,0,0,119.5,87.3Z" fill="#fff"/><path d="M32,122H83a3,3,0,0,0,0-6H32a6.957,6.957,0,0,1-7-7V19a6.957,6.957,0,0,1,7-7H96a6.882,6.882,0,0,1,5,2.1,7.028,7.028,0,0,1,2,5l-.1,53a2.946,2.946,0,0,0,3,3h0a2.946,2.946,0,0,0,3-3l.1-53A13.146,13.146,0,0,0,96,6H32A12.974,12.974,0,0,0,19,19v90A12.974,12.974,0,0,0,32,122Z" fill="#444b54"/></g></svg>