<svg xmlns="http://www.w3.org/2000/svg" width="65.155" height="59.87" viewBox="0 0 65.155 59.87"><path d="M19.285,66.337h42.28a5.3,5.3,0,0,0,5.285-5.285V28.285A5.3,5.3,0,0,0,61.565,23H19.285A5.3,5.3,0,0,0,14,28.285V61.052A5.3,5.3,0,0,0,19.285,66.337Z" transform="translate(-12.415 -8.052)" fill="#fff"/><path d="M60.15,77.352H17.87A6.857,6.857,0,0,1,11,70.482v-25.9a1.585,1.585,0,0,1,3.171,0v25.9a3.677,3.677,0,0,0,3.7,3.7H60.15a3.652,3.652,0,0,0,3.7-3.171V47.228a1.585,1.585,0,1,1,3.171,0V71.01C67.021,74.393,63.8,77.352,60.15,77.352Z" transform="translate(-11 -17.482)" fill="#444b54"/><path d="M46.077,59.139a26.852,26.852,0,0,1-19.66-8.4,1.57,1.57,0,1,1,2.273-2.167,24.006,24.006,0,0,0,34.669,0,1.57,1.57,0,1,1,2.273,2.167A26.448,26.448,0,0,1,46.077,59.139Z" transform="translate(-18.066 -19.881)" fill="#444b54"/><g transform="translate(0 13.363)"><path d="M12.585,28.456A1.557,1.557,0,0,1,11,26.87,6.857,6.857,0,0,1,17.87,20H45.352a1.585,1.585,0,1,1,0,3.171H17.87a3.677,3.677,0,0,0-3.7,3.7A1.557,1.557,0,0,1,12.585,28.456Z" transform="translate(-11 -20)" fill="#444b54"/></g><g transform="translate(35.258 0)"><path d="M10.57,0A10.57,10.57,0,1,0,21.14,10.57,10.57,10.57,0,0,0,10.57,0Z" transform="matrix(0.707, -0.707, 0.707, 0.707, 0, 14.948)" fill="#ff5576"/><path d="M104.884,23.171h-7.4a1.585,1.585,0,1,1,0-3.171h7.4a1.585,1.585,0,1,1,0,3.171Z" transform="translate(-86.289 -6.637)" fill="#fff"/><path d="M104.485,23.57a1.557,1.557,0,0,1-1.585-1.585v-7.4a1.585,1.585,0,0,1,3.171,0v7.4A1.557,1.557,0,0,1,104.485,23.57Z" transform="translate(-89.59 -3.337)" fill="#fff"/></g></svg>