<svg xmlns="http://www.w3.org/2000/svg" width="38.182" height="30" viewBox="0 0 38.182 30"><g transform="translate(-1 -28)"><path d="M37.333,55.242V34.03A3.039,3.039,0,0,0,34.3,31H10.061a3.039,3.039,0,0,0-3.03,3.03V55.242H4v.909a3.039,3.039,0,0,0,3.03,3.03h30.3a3.039,3.039,0,0,0,3.03-3.03v-.909Z" transform="translate(-2.091 -2.091)" fill="#fff"/><path d="M35.242,58H4.939A3.932,3.932,0,0,1,1,54.061v-.909a.893.893,0,0,1,.909-.909H15.545a.909.909,0,0,1,0,1.818H2.818a2.108,2.108,0,0,0,2.121,2.121h30.3a2.108,2.108,0,0,0,2.121-2.121v-.909a.909.909,0,1,1,1.818,0v.909A3.932,3.932,0,0,1,35.242,58Zm-30.3-7.273a.893.893,0,0,1-.909-.909V31.939A3.932,3.932,0,0,1,7.97,28H32.212a3.932,3.932,0,0,1,3.939,3.939V46.182a.909.909,0,0,1-1.818,0V31.939a2.108,2.108,0,0,0-2.121-2.121H7.97a2.108,2.108,0,0,0-2.121,2.121V49.818A.893.893,0,0,1,4.939,50.727Z" fill="#444b54"/><path d="M76.448,80.124l-6.424-10.7a1.531,1.531,0,0,0-2.606,0l-6.424,10.7a1.506,1.506,0,0,0-.03,1.515A1.479,1.479,0,0,0,62.3,82.4H75.114a1.515,1.515,0,0,0,1.333-2.273Z" transform="translate(-41.66 -28.367)" fill="#fcca3d"/><path d="M84.839,85.848a.893.893,0,0,1-.909-.909v-3.03a.909.909,0,0,1,1.818,0v3.03A.893.893,0,0,1,84.839,85.848Zm0,3.03a.825.825,0,0,1-.636-.273.661.661,0,0,1-.121-.152c-.03-.061-.061-.091-.091-.152s-.03-.121-.061-.182c0-.061-.03-.121-.03-.182a.825.825,0,0,1,.273-.636.935.935,0,0,1,1.273,0,.872.872,0,0,1,.273.636.384.384,0,0,1-.03.182.431.431,0,0,1-.061.182.663.663,0,0,1-.091.152.532.532,0,0,1-.121.152A.631.631,0,0,1,84.839,88.879Z" transform="translate(-57.779 -36.939)" fill="#fff"/></g></svg>