<svg xmlns="http://www.w3.org/2000/svg" width="25.238" height="30" viewBox="0 0 25.238 30"><g transform="translate(-11 -1)"><path d="M37.81,29l-4.762-4.762H16.381A2.388,2.388,0,0,1,14,21.857V6.381A2.388,2.388,0,0,1,16.381,4H35.429A2.388,2.388,0,0,1,37.81,6.381Z" transform="translate(-2.286 -2.286)" fill="#fff"/><path d="M35.524,27.429a.685.685,0,0,1-.5-.214l-4.548-4.548H14.1a3.089,3.089,0,0,1-3.1-3.1V4.1A3.089,3.089,0,0,1,14.1,1H33.143a3.089,3.089,0,0,1,3.1,3.1V26.714a.717.717,0,0,1-.452.667A.856.856,0,0,1,35.524,27.429ZM14.1,2.429A1.656,1.656,0,0,0,12.429,4.1V19.571A1.656,1.656,0,0,0,14.1,21.238H30.762a.648.648,0,0,1,.5.214L34.81,25V4.1a1.656,1.656,0,0,0-1.667-1.667ZM35.524,31H17.667a.714.714,0,1,1,0-1.429H35.524a.714.714,0,1,1,0,1.429Z" fill="#444b54"/><path d="M49.143,37.429H37.714a.714.714,0,1,1,0-1.429H49.143a.714.714,0,1,1,0,1.429ZM45.571,41H37.714a.714.714,0,0,1,0-1.429h7.857a.714.714,0,0,1,0,1.429Zm3.571-1.429a.714.714,0,1,0,.714.714A.714.714,0,0,0,49.143,39.571Z" transform="translate(-19.81 -26.667)" fill="#71c2ff"/><path d="M21.714,121a.714.714,0,1,0,.714.714A.714.714,0,0,0,21.714,121Z" transform="translate(-7.619 -91.429)" fill="#444b54"/></g></svg>