<svg xmlns="http://www.w3.org/2000/svg" width="22.829" height="30.81" viewBox="0 0 22.829 30.81"><g transform="translate(-21.05 -6)"><path d="M45.285,19.627A10.618,10.618,0,1,0,28.5,28.285a5.225,5.225,0,0,1,2.178,4.276v3h7.968v-3A5.326,5.326,0,0,1,40.9,28.232,10.6,10.6,0,0,0,45.285,19.627Z" transform="translate(-2.204 -2.206)" fill="#fff"/><path d="M64,33.886v8.606a8.955,8.955,0,0,0,3.984,7.437h0v-3A5.326,5.326,0,0,1,70.242,42.6a10.6,10.6,0,0,0,4.382-8.606v-.425C74.359,26.688,64,27.007,64,33.886Z" transform="translate(-31.542 -16.572)" fill="#f1e9b4"/><path d="M24.1,19.434a12.249,12.249,0,0,0,5.445-3.347c2.2-2.2,3.479-4.728,3.479-6.587A10.7,10.7,0,0,0,24.1,19.434Z" transform="translate(-2.24 -2.571)" fill="#fff"/><path d="M36.442,31.152a.783.783,0,0,1-.8-.8,6.168,6.168,0,0,1,2.576-4.993,9.8,9.8,0,1,0-11.447.08.8.8,0,1,1-.93,1.3A11.437,11.437,0,0,1,31.661,6.026,11.414,11.414,0,0,1,43.879,17.421a11.462,11.462,0,0,1-4.728,9.243,4.619,4.619,0,0,0-1.912,3.692A.783.783,0,0,1,36.442,31.152Z" fill="#454b54"/><path d="M55.984,99H46.9v2.656h9.084V99h0" transform="translate(-18.984 -68.299)" fill="#fff"/><path d="M53.78,100.25H44.7a.783.783,0,0,1-.8-.8V96.8a.783.783,0,0,1,.8-.8H53.78a.723.723,0,0,1,.558.239.885.885,0,0,1,.239.558l-.027,2.656A.777.777,0,0,1,53.78,100.25Zm-8.287-1.594h7.49V97.594h-7.49Zm4.276,4.25H48.707a.8.8,0,1,1,0-1.594H49.77a.8.8,0,1,1,0,1.594Z" transform="translate(-16.781 -66.096)" fill="#454b54"/></g></svg>