<svg xmlns="http://www.w3.org/2000/svg" viewBox="0 0 99.5 86"><defs><style>.cls-1{fill:#84c1fa;}.cls-2{fill:#464b53;}.cls-3{fill:#a3e2b9;}</style></defs><g id="Layer_2" data-name="Layer 2"><g id="Layer_2-2" data-name="Layer 2"><path class="cls-1" d="M68.06,32.42c-15.68,0-28.44,9.93-28.44,22.14S52.38,76.7,68.06,76.7a36.17,36.17,0,0,0,7-.68,1.43,1.43,0,0,1,.29,0,1.49,1.49,0,0,1,1.1.48,24,24,0,0,0,7.69,5.26,59.83,59.83,0,0,1-1.42-7,1.5,1.5,0,0,1,.8-1.57c8.13-4.11,13-11.06,13-18.57C96.5,42.35,83.74,32.42,68.06,32.42Z"/><path class="cls-2" d="M87,86a1.52,1.52,0,0,1-.51-.09c-6-2.15-9.59-4.78-11.64-6.8a39.14,39.14,0,0,1-6.76.59c-17.34,0-31.44-11.28-31.44-25.14s14.1-25.14,31.44-25.14S99.5,40.7,99.5,54.56c0,8.36-5.08,16-13.66,20.73,1,6.26,1.94,7.82,2.11,8.07A1.5,1.5,0,0,1,87,86Zm.68-2.84Zm0,0Zm0,0ZM75.34,76a1.49,1.49,0,0,1,1.1.48,24,24,0,0,0,7.69,5.26,59.83,59.83,0,0,1-1.42-7,1.5,1.5,0,0,1,.8-1.57c8.13-4.11,13-11.06,13-18.57,0-12.21-12.76-22.14-28.44-22.14S39.62,42.35,39.62,54.56,52.38,76.7,68.06,76.7a36.17,36.17,0,0,0,7-.68A1.43,1.43,0,0,1,75.34,76Z"/><path class="cls-3" d="M39.5,1.5c-21,0-38,13.43-38,30,0,10.62,7,19.94,17.53,25.27C17.2,68.64,15.5,69.5,15.5,69.5c8.05-2.88,12.46-6.41,14.76-8.9a47.24,47.24,0,0,0,9.24.9c21,0,38-13.43,38-30S60.49,1.5,39.5,1.5Z"/><path class="cls-2" d="M15.5,71a1.5,1.5,0,0,1-.94-2.67c.2-.26,1.43-2.18,2.82-10.73C6.48,51.72,0,42,0,31.5,0,14.13,17.72,0,39.5,0S79,14.13,79,31.5,61.28,63,39.5,63a49.77,49.77,0,0,1-8.72-.77c-2.53,2.54-7,5.92-14.78,8.68A1.43,1.43,0,0,1,15.5,71Zm-.68-2.84ZM39.5,3C19.37,3,3,15.79,3,31.5c0,9.69,6.25,18.64,16.71,23.93a1.5,1.5,0,0,1,.8,1.57,70.32,70.32,0,0,1-2,9.71,31.62,31.62,0,0,0,10.69-7.13,1.5,1.5,0,0,1,1.39-.45,46.11,46.11,0,0,0,9,.87C59.63,60,76,47.21,76,31.5S59.63,3,39.5,3Z"/><path class="cls-2" d="M85.87,59.65a1.57,1.57,0,0,1-.7-.17,1.51,1.51,0,0,1-.63-2A27,27,0,0,0,87,50.21a1.5,1.5,0,1,1,2.94.58,29.57,29.57,0,0,1-2.78,8.06A1.48,1.48,0,0,1,85.87,59.65Z"/><path class="cls-2" d="M67,71h-.54a1.5,1.5,0,1,1,.16-3c.1,0,8.81.37,15-6.27a1.5,1.5,0,0,1,2.21,2A23.51,23.51,0,0,1,67,71Z"/><path class="cls-2" d="M11.34,31.69a1.83,1.83,0,0,1-.4-.05,1.51,1.51,0,0,1-1-1.85,27,27,0,0,1,12-16.17,1.5,1.5,0,0,1,1.6,2.54A24.19,24.19,0,0,0,12.78,30.59,1.49,1.49,0,0,1,11.34,31.69Z"/><path class="cls-2" d="M27.22,14a1.5,1.5,0,0,1-.58-2.89,33.3,33.3,0,0,1,9.6-2.46,1.5,1.5,0,0,1,.2,3,30.45,30.45,0,0,0-8.65,2.23A1.46,1.46,0,0,1,27.22,14Z"/></g></g></svg>