<svg xmlns="http://www.w3.org/2000/svg" width="60.794" height="61.624" viewBox="0 0 60.794 61.624"><path d="M36.316,55.2a2.692,2.692,0,0,0-3.224-.264l-.951.581-2.748,1.744a2.227,2.227,0,0,1-3.065-.528l-3.964-6.183-3.911-6.131a2.216,2.216,0,0,1,.793-3.012l2.748-1.744.951-.581a2.645,2.645,0,0,0,1.163-3.012L19.88,24.656a2.47,2.47,0,0,0-3.488-1.216l-.317.159-5.126,2.748A6.727,6.727,0,0,0,7.09,32.584a49.88,49.88,0,0,0,7.5,22.937,50.684,50.684,0,0,0,17.81,16.542,6.727,6.727,0,0,0,7.293-.846l4.651-3.541.264-.211a2.393,2.393,0,0,0,.317-3.647Z" transform="translate(-5.489 -12.711)" fill="#ff697b"/><path d="M20.62,26.665l-.74-2.008a2.47,2.47,0,0,0-3.488-1.216l-.317.159-5.126,2.748A6.727,6.727,0,0,0,7.09,32.584,49.378,49.378,0,0,0,9.151,43.629,29.353,29.353,0,0,1,20.62,26.665Z" transform="translate(-5.489 -12.711)" fill="#fff"/><path d="M33.893,72.944h0a7.918,7.918,0,0,1-3.647-.9,52.607,52.607,0,0,1-18.392-17.07A51.441,51.441,0,0,1,4.086,31.3a8.245,8.245,0,0,1,4.7-7.769l5.5-2.907a4.155,4.155,0,0,1,5.655,2.114L24.116,34.1a4.2,4.2,0,0,1-1.8,4.915l-3.7,2.378a1.065,1.065,0,0,0-.37.476.349.349,0,0,0,.053.317L26.23,54.552a.546.546,0,0,0,.423.211.533.533,0,0,0,.423-.159l3.7-2.378a4.291,4.291,0,0,1,2.378-.687A3.992,3.992,0,0,1,36.007,52.7l8.615,8.562a3.786,3.786,0,0,1,1.11,2.96,4.187,4.187,0,0,1-1.585,3.065l-.264.211-4.651,3.594A8.715,8.715,0,0,1,33.893,72.944Zm-17.7-49.573a1.878,1.878,0,0,0-.528.106l-.317.159-5.126,2.7A5.2,5.2,0,0,0,7.2,31.087a48.108,48.108,0,0,0,7.24,22.2A49.22,49.22,0,0,0,31.673,69.245a4.249,4.249,0,0,0,2.167.528,5.311,5.311,0,0,0,3.382-1.216l4.915-3.805a1,1,0,0,0,.423-.793.582.582,0,0,0-.211-.529l-8.562-8.509a1.1,1.1,0,0,0-1.268-.053l-3.7,2.378a3.857,3.857,0,0,1-2.167.634,3.62,3.62,0,0,1-3.065-1.638L15.66,43.877a3.444,3.444,0,0,1-.476-2.7A3.964,3.964,0,0,1,16.928,38.7l3.7-2.378a.99.99,0,0,0,.476-1.163L16.981,23.794A.78.78,0,0,0,16.188,23.371Z" transform="translate(-4.07 -11.32)" fill="#444b54"/><path d="M87.946,22.472A16.009,16.009,0,0,1,71.826,38.062H57.874A1.377,1.377,0,0,1,56.5,36.635V22.525C56.5,13.8,63.37,6.458,71.985,6.3A15.862,15.862,0,0,1,87.946,22.472Z" transform="translate(-28.791 -4.766)" fill="#fff"/><path d="M70.465,38.28H56.46a2.967,2.967,0,0,1-2.96-3.012V21.209A17.675,17.675,0,0,1,70.57,3.4,17.238,17.238,0,0,1,83.043,8.473,17.435,17.435,0,0,1,88.169,21.1,17.7,17.7,0,0,1,70.465,38.28ZM56.618,35.109H70.412A14.465,14.465,0,0,0,84.946,21.051h0A14.279,14.279,0,0,0,80.77,10.692,13.956,13.956,0,0,0,70.57,6.57c-7.663.106-13.952,6.712-13.952,14.639Z" transform="translate(-27.376 -3.398)" fill="#444b54"/><path d="M77.82,38.856H70.791a1.585,1.585,0,0,1,0-3.171h6.976a1.586,1.586,0,0,1,.053,3.171Zm6.342,0h-.106a1.585,1.585,0,0,1,0-3.171h.106a1.557,1.557,0,0,1,1.585,1.585A1.59,1.59,0,0,1,84.162,38.856Zm.529-5.285H70.685a1.585,1.585,0,1,1,0-3.171H84.691a1.557,1.557,0,0,1,1.585,1.585A1.59,1.59,0,0,1,84.691,33.571Z" transform="translate(-34.732 -16.129)" fill="#9eb9d3"/></svg>