<svg xmlns="http://www.w3.org/2000/svg" width="90.1" height="116" viewBox="0 0 90.1 116"><g transform="translate(-19 -6)"><path d="M22,19v90a10.029,10.029,0,0,0,10,10H95.8a10.029,10.029,0,0,0,10-10l.1-80A19.909,19.909,0,0,0,86,9H32A10.029,10.029,0,0,0,22,19Z" fill="#fff"/><path d="M79.1,85.1a2.836,2.836,0,0,1-2.2-1,2.992,2.992,0,0,1,.2-4.2l6.6-5.8-6.6-5.8a2.973,2.973,0,0,1,4-4.4L90.2,72a3.212,3.212,0,0,1,1,2.2,3.029,3.029,0,0,1-1,2.2l-9.1,8.1A3.941,3.941,0,0,1,79.1,85.1Zm-30.2,0a2.709,2.709,0,0,1-2-.8l-9.1-8.1a3.212,3.212,0,0,1-1-2.2,3.029,3.029,0,0,1,1-2.2l9.1-8.1a2.973,2.973,0,0,1,4,4.4L44.3,74l6.6,5.8a2.992,2.992,0,0,1,.2,4.2A2.948,2.948,0,0,1,48.9,85.1ZM59,92a1.486,1.486,0,0,1-.9-.2A2.983,2.983,0,0,1,56.2,88l10-30a3,3,0,0,1,5.7,1.9l-10,30A3.092,3.092,0,0,1,59,92Z" fill="#71c2ff"/><path d="M30,122H93.8c8.7,0,15-5.5,15-13l.1-67a2.946,2.946,0,0,0-3-3h0a2.946,2.946,0,0,0-3,3l-.1,67c0,4.2-3.6,7-9,7H30c-1.7,0-5-3-5-7V19a6.957,6.957,0,0,1,7-7H83v7A12.974,12.974,0,0,0,96,32h10a3.256,3.256,0,0,0,2.8-1.8,2.663,2.663,0,0,0,.3-1.2v-.4a23.19,23.19,0,0,0-6.7-15.9A23.494,23.494,0,0,0,86,6H32A12.974,12.974,0,0,0,19,19v90C19,116.3,24.9,122,30,122Zm72.7-96H96a6.957,6.957,0,0,1-7-7V12.3A16.952,16.952,0,0,1,102.7,26Z" fill="#444b54"/></g></svg>