<?xml version="1.0" encoding="UTF-8"?>
<svg xmlns="http://www.w3.org/2000/svg" version="1.1" viewBox="0 0 1572 170">
  <defs>
    <style>
      .cls-1 {
        fill: none;
      }

      .cls-2 {
        fill: #231f20;
      }

      .cls-3 {
        fill: #db1222;
      }
    </style>
  </defs>
  <!-- Generator: Adobe Illustrator 28.7.1, SVG Export Plug-In . SVG Version: 1.2.0 Build 142)  -->
  <g>
    <g id="Layer_1">
      <g id="Layer_1-2" data-name="Layer_1">
        <g>
          <g>
            <polygon class="cls-2" points="357 113 371.3 113 371.3 152.2 381.3 152.2 381.3 113 395.6 113 395.6 104.6 357 104.6 357 113"/>
            <polygon class="cls-2" points="428.4 122.7 409.8 122.7 409.8 104.6 400 104.6 400 152.2 409.8 152.2 409.8 130.9 428.4 130.9 428.4 152.2 438.3 152.2 438.3 104.6 428.4 104.6 428.4 122.7"/>
            <rect class="cls-2" x="461.4" y="104.6" width="9.9" height="47.6"/>
            <path class="cls-2" d="M506.9,119c-2.3-1.9-5.3-2.9-8.9-2.9s-5.3.7-7.2,2.1c-1.1.8-2.2,2.1-3.4,3.9v-5.1h-8.9v35.1h9.2v-19c0-2.2.3-4,.9-5.4,1.2-2.6,3.3-4,6.4-4s4.3.9,5.2,2.7c.5,1,.7,2.4.7,4.3v21.4h9.4v-23.7c0-4.3-1.1-7.5-3.4-9.4Z"/>
            <path class="cls-2" d="M529.5,114.3c0-.7.2-1.3.7-1.9s1.3-.8,2.5-.8,2.1.1,2.6.1v-7.5c-.8-.1-1.5-.1-1.9-.1h-1.6c-5.1,0-8.3,1.1-9.6,3.2-1.3,1.4-1.9,4-1.9,7.8v2.3h-5v6.5h5.1v28.4h9.2v-28.5h6v-6.5h-6v-3h0Z"/>
            <path class="cls-2" d="M556.6,115.9c-6,0-10.5,1.9-13.5,5.6s-4.5,8.1-4.5,13.2,1.5,9.6,4.5,13.2c3,3.7,7.5,5.5,13.5,5.5s10.6-1.8,13.5-5.5c3-3.7,4.5-8.1,4.5-13.2s-1.5-9.5-4.5-13.2c-2.9-3.8-7.4-5.6-13.5-5.6ZM562.8,142.8c-1.4,1.9-3.5,2.9-6.2,2.9s-4.8-1-6.2-2.9c-1.5-1.9-2.2-4.6-2.2-8.2s.7-6.2,2.2-8.1,3.5-2.9,6.2-2.9,4.8,1,6.2,2.9,2.2,4.6,2.2,8.1-.8,6.3-2.2,8.2Z"/>
            <polygon class="cls-2" points="608.6 104.6 570 104.6 570 113 584.3 113 584.3 152.2 594.3 152.2 594.3 113 608.6 113 608.6 104.6"/>
            <path class="cls-2" d="M633.7,122.9c-1.5-2.4-3.5-4.1-5.8-5.2s-5-1.6-7.9-1.6c-4.9,0-8.9,1.6-12,4.9-3.1,3.2-4.6,7.9-4.6,14s1.7,11.2,5.1,14.1c3.4,2.9,7.4,4.3,11.8,4.3s9.6-1.7,12.6-5.1c1.9-2.2,3-4.3,3.3-6.4h-9.4c-.5,1-1.1,1.8-1.7,2.4-1.2,1.1-2.7,1.6-4.6,1.6s-3.3-.4-4.6-1.3c-2.1-1.4-3.2-3.9-3.3-7.4h24.1c0-3,0-5.4-.3-7-.5-2.8-1.3-5.2-2.7-7.3h0ZM612.8,131.1c.3-2.3,1-4.1,2.2-5.4s2.8-2,5-2,3.6.6,4.9,1.9c1.3,1.3,2.1,3.1,2.2,5.5h-14.3Z"/>
            <path class="cls-2" d="M656.4,123.9c2.2,0,3.8.7,4.8,2.1.7,1.1,1.2,2.2,1.3,3.5h9.4c-.5-5-2.2-8.5-5-10.5s-6.4-3-10.8-3-9.2,1.7-12.2,5-4.4,8.1-4.4,14.1,1.3,9.7,4,13.1,6.8,5,12.5,5,9.9-2,12.8-6c1.8-2.5,2.8-5.1,3-7.9h-9.4c-.2,1.8-.7,3.4-1.6,4.5-.9,1.2-2.4,1.7-4.6,1.7s-5.1-1.5-6.2-4.4c-.6-1.6-.9-3.6-.9-6.2s.3-4.9.9-6.5c1.2-2.9,3.3-4.5,6.4-4.5h0Z"/>
            <path class="cls-2" d="M706.6,120.7c-1.1-1.5-2.6-2.7-4.4-3.5-1.8-.8-3.7-1.1-5.9-1.1s-3.8.4-5.5,1.2c-1.8.8-3.3,2.2-4.6,4.3v-16.8h-9.2v47.4h9.2v-19c0-3,.6-5.3,1.9-7,1.3-1.6,3.1-2.4,5.5-2.4s3.9.8,4.8,2.5c.6,1.2,1,2.7,1,4.6v21.4h9.4v-20.6c0-3.1,0-5.4-.3-6.8-.3-1.6-.9-2.9-1.9-4.2Z"/>
            <path class="cls-2" d="M764.9,128.5c-1.8-1.4-4.5-2.6-8.1-3.5l-8.2-2c-3.2-.8-5.2-1.4-6.2-2-1.5-.8-2.3-2.1-2.3-3.8s.8-3.3,2.3-4.3,3.6-1.5,6.1-1.5,4.2.4,5.8,1.2c2.3,1.2,3.6,3.2,3.7,6.1h9.6c-.2-5.1-2-8.9-5.6-11.6s-7.8-4-12.8-4-10.5,1.4-13.6,4.2-4.6,6.4-4.6,10.6,1.6,8.1,4.8,10.3c1.9,1.3,5.3,2.5,10.3,3.6l5,1.1c2.9.6,5.1,1.4,6.5,2.2,1.4.9,2.1,2.1,2.1,3.6,0,2.7-1.4,4.5-4.2,5.5-1.5.5-3.4.8-5.7.8-3.9,0-6.7-1-8.3-2.9-.9-1.1-1.5-2.7-1.8-4.9h-9.5c0,4.9,1.8,8.8,5.3,11.7,3.5,2.8,8.4,4.2,14.6,4.2s10.8-1.4,14.1-4.3,5-6.5,5-10.8-1.5-7.2-4.3-9.5h0Z"/>
            <path class="cls-2" d="M802,122.9c-1.5-2.4-3.5-4.1-5.8-5.2s-5-1.6-7.9-1.6c-4.9,0-8.9,1.6-12,4.9-3.1,3.2-4.6,7.9-4.6,14s1.7,11.2,5.1,14.1c3.4,2.9,7.4,4.3,11.8,4.3s9.6-1.7,12.6-5.1c1.9-2.2,3-4.3,3.3-6.4h-9.4c-.5,1-1.1,1.8-1.7,2.4-1.2,1.1-2.7,1.6-4.6,1.6s-3.3-.4-4.6-1.3c-2.1-1.4-3.2-3.9-3.3-7.4h24.1c0-3,0-5.4-.3-7-.4-2.8-1.3-5.2-2.7-7.3h0ZM781.2,131.1c.3-2.3,1-4.1,2.2-5.4s2.8-2,5-2,3.6.6,4.9,1.9c1.3,1.3,2.1,3.1,2.2,5.5h-14.3Z"/>
            <path class="cls-2" d="M829,116.2c-2.8,0-5,.7-6.7,2.2-1.1.9-2.3,2.5-3.7,4.8v-6.1h-8.8v35.2h9.3v-16.8c0-2.8.4-4.9,1.1-6.3,1.3-2.4,3.8-3.6,7.5-3.6h1.1c.5,0,1,.1,1.5.1v-9.4h-.8s-.3-.1-.5-.1h0Z"/>
            <polygon class="cls-2" points="849.8 142.9 842.5 117 832.1 117 844.8 152.2 854.5 152.2 867.2 117 857.3 117 849.8 142.9"/>
            <rect class="cls-2" x="869.8" y="117" width="9.3" height="35.2"/>
            <rect class="cls-2" x="869.8" y="104.3" width="9.3" height="8.5"/>
            <path class="cls-2" d="M901.6,123.9c2.2,0,3.8.7,4.8,2.1.7,1.1,1.2,2.2,1.3,3.5h9.4c-.5-5-2.2-8.5-5-10.5s-6.4-3-10.8-3-9.2,1.7-12.2,5-4.4,8.1-4.4,14.1,1.3,9.7,4,13.1,6.8,5,12.5,5,9.9-2,12.8-6c1.8-2.5,2.8-5.1,3-7.9h-9.4c-.2,1.8-.7,3.4-1.6,4.5s-2.4,1.7-4.6,1.7-5.1-1.5-6.2-4.4c-.6-1.6-.9-3.6-.9-6.2s.3-4.9.9-6.5c1.2-2.9,3.3-4.5,6.4-4.5h0Z"/>
            <path class="cls-2" d="M951.1,122.9c-1.5-2.4-3.5-4.1-5.8-5.2s-5-1.6-7.9-1.6c-4.9,0-8.9,1.6-12,4.9s-4.6,7.9-4.6,14,1.7,11.2,5.1,14.1c3.4,2.9,7.4,4.3,11.8,4.3s9.6-1.7,12.6-5.1c1.9-2.2,3-4.3,3.3-6.4h-9.4c-.5,1-1.1,1.8-1.7,2.4-1.2,1.1-2.7,1.6-4.6,1.6s-3.3-.4-4.6-1.3c-2.1-1.4-3.2-3.9-3.3-7.4h24c0-3,0-5.4-.3-7-.4-2.8-1.2-5.2-2.6-7.3ZM930.2,131.1c.3-2.3,1-4.1,2.2-5.4s2.8-2,5-2,3.6.6,4.9,1.9c1.3,1.3,2.1,3.1,2.2,5.5h-14.3Z"/>
            <path class="cls-2" d="M977.9,131c-5.5-1.2-8.7-2.1-9.6-2.5-.9-.5-1.4-1.2-1.4-2.3s.4-1.6,1.3-2.2,2.3-.9,4.3-.9,4.2.6,5.2,1.9c.5.7.9,1.6,1,2.8h9.2c-.4-4.3-2-7.3-4.7-9.1-2.8-1.7-6.4-2.6-10.7-2.6s-8.2,1.2-10.8,3.5-3.8,5.1-3.8,8.4.8,4.9,2.5,6.3c1.6,1.5,4.4,2.7,8.4,3.7,5.5,1.3,8.7,2.2,9.6,2.8.9.5,1.3,1.3,1.3,2.4s-.5,1.9-1.6,2.4-2.5.8-4.3.8c-3.1,0-5.2-.6-6.3-1.8-.6-.7-1.1-1.8-1.3-3.5h-9.3c0,3.6,1.3,6.6,4,8.9s6.7,3.5,12.2,3.5,9.4-1.1,12-3.3,3.9-5,3.9-8.5-.9-4.9-2.7-6.6c-2-1.9-4.7-3.2-8.4-4.1h0Z"/>
            <path class="cls-2" d="M1016.8,134.7c0-4.2.3-8.1,1-11.7,1.1-5.4,2.9-10.6,5.6-15.6l2-3.6h-6.9c-3.3,4.6-5.8,8.8-7.5,12.8-2.5,5.8-3.8,11.7-3.8,17.6s1.5,13.1,4.5,19.7c1.7,3.7,3.3,6.6,4.7,8.5l2.3,3.1h6.8c-2.8-5.1-4.8-9.3-5.9-12.6-1.8-5.5-2.8-11.6-2.8-18.2h0Z"/>
            <path class="cls-2" d="M1060,128.5c-1.8-1.4-4.5-2.6-8.1-3.5l-8.2-2c-3.2-.8-5.2-1.4-6.2-2-1.5-.8-2.3-2.1-2.3-3.8s.8-3.3,2.3-4.3,3.6-1.5,6.1-1.5,4.2.4,5.8,1.2c2.3,1.2,3.6,3.2,3.7,6.1h9.6c-.2-5.1-2-8.9-5.6-11.6-3.5-2.7-7.8-4-12.8-4s-10.5,1.4-13.6,4.2-4.6,6.4-4.6,10.6,1.6,8.1,4.8,10.3c1.9,1.3,5.3,2.5,10.3,3.6l5,1.1c2.9.6,5.1,1.4,6.5,2.2,1.4.9,2.1,2.1,2.1,3.6,0,2.7-1.4,4.5-4.2,5.5-1.5.5-3.4.8-5.7.8-3.9,0-6.7-1-8.3-2.9-.9-1.1-1.5-2.7-1.8-4.9h-9.5c0,4.9,1.8,8.8,5.3,11.7,3.5,2.8,8.4,4.2,14.6,4.2s10.8-1.4,14.1-4.3,5-6.5,5-10.8-1.5-7.2-4.3-9.5h0Z"/>
            <path class="cls-2" d="M1097.9,120.7c-1.1-1.5-2.6-2.7-4.4-3.5s-3.7-1.1-5.9-1.1-3.8.4-5.5,1.2c-1.8.8-3.3,2.2-4.6,4.3v-16.8h-9.2v47.4h9.2v-19c0-3,.6-5.3,1.9-7s3.1-2.4,5.5-2.4,3.9.8,4.8,2.5c.6,1.2,1,2.7,1,4.6v21.4h9.4v-20.6c0-3.1,0-5.4-.3-6.8-.3-1.6-.9-2.9-1.9-4.2Z"/>
            <path class="cls-2" d="M1133.5,122.9c-1.5-2.4-3.5-4.1-5.8-5.2s-5-1.6-7.9-1.6c-4.9,0-8.9,1.6-12,4.9s-4.6,7.9-4.6,14,1.7,11.2,5.1,14.1,7.4,4.3,11.8,4.3,9.6-1.7,12.6-5.1c1.9-2.2,3-4.3,3.3-6.4h-9.4c-.5,1-1.1,1.8-1.7,2.4-1.2,1.1-2.7,1.6-4.6,1.6s-3.3-.4-4.6-1.3c-2.1-1.4-3.2-3.9-3.3-7.4h24.1c0-3,0-5.4-.3-7-.4-2.8-1.3-5.2-2.7-7.3ZM1112.6,131.1c.3-2.3,1-4.1,2.2-5.4s2.8-2,5-2,3.6.6,4.9,1.9,2.1,3.1,2.2,5.5h-14.3,0Z"/>
            <path class="cls-2" d="M1168.4,119c-2.3-1.9-5.3-2.9-8.9-2.9s-5.3.7-7.2,2.1c-1.1.8-2.2,2.1-3.4,3.9v-5.1h-8.9v35.1h9.2v-19c0-2.2.3-4,.9-5.4,1.2-2.6,3.3-4,6.4-4s4.3.9,5.2,2.7c.5,1,.7,2.4.7,4.3v21.4h9.4v-23.7c0-4.3-1-7.5-3.4-9.4h0Z"/>
            <polygon class="cls-2" points="1205.6 124.6 1205.6 117 1177.1 117 1177.1 124.5 1193.9 124.5 1175.9 145 1175.9 152.2 1206.2 152.2 1206.2 144.6 1187.8 144.6 1205.6 124.6"/>
            <path class="cls-2" d="M1240.5,120.7c-1.1-1.5-2.6-2.7-4.4-3.5s-3.7-1.1-5.9-1.1-3.8.4-5.5,1.2c-1.8.8-3.3,2.2-4.6,4.3v-16.8h-9.2v47.4h9.2v-19c0-3,.6-5.3,1.9-7s3.1-2.4,5.5-2.4,3.9.8,4.8,2.5c.6,1.2,1,2.7,1,4.6v21.4h9.4v-20.6c0-3.1,0-5.4-.3-6.8-.4-1.6-.9-2.9-1.9-4.2Z"/>
            <path class="cls-2" d="M1276.1,122.9c-1.5-2.4-3.5-4.1-5.8-5.2s-5-1.6-7.9-1.6c-4.9,0-8.9,1.6-12,4.9s-4.6,7.9-4.6,14,1.7,11.2,5.1,14.1,7.4,4.3,11.8,4.3,9.6-1.7,12.6-5.1c1.9-2.2,3-4.3,3.3-6.4h-9.4c-.5,1-1.1,1.8-1.7,2.4-1.2,1.1-2.7,1.6-4.6,1.6s-3.3-.4-4.6-1.3c-2.1-1.4-3.2-3.9-3.3-7.4h24.1c0-3,0-5.4-.3-7-.4-2.8-1.3-5.2-2.7-7.3ZM1255.2,131.1c.3-2.3,1-4.1,2.2-5.4s2.8-2,5-2,3.6.6,4.9,1.9,2.1,3.1,2.2,5.5h-14.3,0Z"/>
            <path class="cls-2" d="M1311,119c-2.3-1.9-5.3-2.9-8.9-2.9s-5.3.7-7.2,2.1c-1.1.8-2.2,2.1-3.4,3.9v-5.1h-8.9v35.1h9.2v-19c0-2.2.3-4,.9-5.4,1.2-2.6,3.3-4,6.4-4s4.3.9,5.2,2.7c.5,1,.7,2.4.7,4.3v21.4h9.4v-23.7c0-4.3-1.1-7.5-3.4-9.4h0Z"/>
            <path class="cls-2" d="M1325.2,103.8h-6.9l2,3.6c2.7,5,4.6,10.2,5.6,15.6.7,3.6,1,7.5,1,11.7,0,6.6-1,12.6-2.9,18.2-1.1,3.3-3.1,7.5-5.9,12.6h6.8l2.3-3.1c1.5-1.9,3.1-4.7,4.7-8.5,3-6.7,4.5-13.3,4.5-19.7s-1.3-11.7-3.8-17.6c-1.7-4-4.2-8.2-7.4-12.8h0Z"/>
            <polygon class="cls-2" points="1362.1 104.6 1352.2 104.6 1352.2 152.2 1385.7 152.2 1385.7 143.6 1362.1 143.6 1362.1 104.6"/>
            <rect class="cls-2" x="1390.6" y="117" width="9.3" height="35.2"/>
            <rect class="cls-2" x="1390.6" y="104.3" width="9.3" height="8.5"/>
            <path class="cls-2" d="M1454.2,120.3c-1.2-1.5-2.6-2.6-4.1-3.2s-3-.9-4.6-.9c-2.3,0-4.4.5-6.3,1.5-1.8,1-3.3,2.5-4.5,4.5-.7-1.7-1.7-3.1-3-4.2-1.7-1.2-3.8-1.8-6.5-1.8s-5.2.7-6.9,2.1c-1,.8-2.1,2.1-3.2,3.9v-5.1h-8.9v35.1h9.3v-21.2c0-1.9.2-3.4.7-4.3.9-1.7,2.7-2.5,5.3-2.5s3.8.9,4.5,2.5c.4.9.6,2.5.6,4.5v20.9h9.3v-20.9c0-1.6.2-2.9.7-4,1-2.1,2.7-3.2,5.3-3.2s3.7.8,4.5,2.5c.4.9.6,2,.6,3.3v22.4h9.4v-22.2c0-2.3,0-4-.2-5.2-.4-1.8-1-3.3-2-4.5h0Z"/>
            <rect class="cls-2" x="1462.5" y="104.3" width="9.3" height="8.5"/>
            <rect class="cls-2" x="1462.5" y="117" width="9.3" height="35.2"/>
            <path class="cls-2" d="M1491.1,107.5h-9.1v9.8h-4.9v6.5h4.9v21.7c0,2.2.5,3.8,1.5,4.9,1.6,1.7,4.6,2.4,8.9,2.3l4.4-.2v-6.9h-1.8c-1.9,0-3-.2-3.4-.5-.4-.4-.5-1.3-.5-2.7v-18.6h5.7v-6.5h-5.7v-9.8Z"/>
            <path class="cls-2" d="M1529,122.9c-1.5-2.4-3.5-4.1-5.8-5.2s-5-1.6-7.9-1.6c-4.9,0-8.9,1.6-12,4.9s-4.6,7.9-4.6,14,1.7,11.2,5.1,14.1,7.4,4.3,11.8,4.3,9.6-1.7,12.6-5.1c1.9-2.2,3-4.3,3.3-6.4h-9.4c-.5,1-1.1,1.8-1.7,2.4-1.2,1.1-2.7,1.6-4.6,1.6s-3.3-.4-4.6-1.3c-2.1-1.4-3.2-3.9-3.3-7.4h24.1c0-3,0-5.4-.3-7-.5-2.8-1.4-5.2-2.7-7.3ZM1508.1,131.1c.3-2.3,1-4.1,2.2-5.4s2.8-2,5-2,3.6.6,4.9,1.9,2.1,3.1,2.2,5.5h-14.3,0Z"/>
            <path class="cls-2" d="M1559.5,104.7v16.8c-1-1.7-2.4-3-4-3.9-1.7-.9-3.6-1.4-5.7-1.4-4.6,0-8.3,1.7-11.1,5.2-2.8,3.4-4.1,8.2-4.1,14.2s1.4,9.5,4.2,12.8,6.3,5,10.4,5,4.6-.5,6.3-1.4c1.7-.9,3.2-2.5,4.5-4.5v4.9h8.9v-47.5h-9.4v-.2h0ZM1557.7,142.6c-1.4,1.9-3.3,2.9-5.9,2.9s-4.5-1-5.8-2.9-1.9-4.5-1.9-7.8.6-5.5,1.9-7.6c1.3-2,3.2-3,5.9-3s3.3.6,4.6,1.7c2.2,1.9,3.3,4.9,3.3,9.2s-.7,5.6-2.1,7.5h0Z"/>
          </g>
          <g>
            <path class="cls-2" d="M406.2,27.9c7.8,0,13.1.3,16,.7v-6.2c-3,.4-6.5.6-10.4.6h-13.2c.8-3.1,1.4-5.9,1.8-8.3,7.2,0,12.9.2,17,.7v-6.4c-4.3.4-10.3.7-18,.7s-13.6-.2-17.6-.5v6.3c3.5-.4,7.8-.6,13-.7-.5,3.5-1.1,6.2-1.8,8.3-7.6,0-12.7-.2-15.2-.6v6.2c5.3-.4,9.7-.7,13.3-.7-2.9,6.3-8.6,11.7-17.1,16.1,2.3,1.4,4,2.8,4.9,4.2,9.2-6.1,15.2-12.9,18-20.3h4.5c3.5,8.8,9.9,14.8,19.3,18,.8-2.7,2.2-4.9,4.3-6.7-9.3-1.7-15.6-5.4-18.8-11.4h0Z"/>
            <path class="cls-2" d="M389.6,51c.7-.5,1-.9,1-1.3s-.5-.7-1.5-.8c-1.7-.2-3.3-.7-4.9-1.5-1.5,5.9-4,11.4-7.4,16.6,2.1.5,4.1,1.3,6,2.2,2.2-4.1,3.9-7.9,4.9-11.5.6-2,1.2-3.2,1.9-3.7Z"/>
            <path class="cls-2" d="M375.5,33.3c-4.1-2.4-8.5-4.7-13.1-7l-3.1,5.1c4.8,2.1,9.1,4.7,12.9,7.7l3.3-5.8h0Z"/>
            <path class="cls-2" d="M400.6,50.2c2.2,5.2,3.8,10.5,4.7,15.8l6.2-1.7c-1.6-5.1-3.6-10.3-5.9-15.8l-5,1.7h0Z"/>
            <path class="cls-2" d="M401,37c0-.2-.3-.4-.8-.4-3.1,0-5.5,0-7.2-.4.3,2,.4,5,.4,8.9v17.6c0,1.5-.3,2.5-.8,3s-1.4.8-2.4.8-2.4,0-3.9-.4c1.7,2.1,2.5,4.4,2.6,6.8,3.3-.5,5.6-1,6.9-1.5,1.4-.5,2.3-1.2,2.7-2.1.4-.9.6-2.4.6-4.5v-22.7c0-2,.5-3.4,1.4-4.2.4-.4.5-.6.5-.9h0Z"/>
            <path class="cls-2" d="M409.7,47.9c2.9,5.2,5.2,11.1,6.9,17.5l6.3-2.4c-2.5-5.6-5.1-11.2-8-16.9l-5.2,1.8h0Z"/>
            <path class="cls-2" d="M373.9,21l4.6-5.1c-3.9-3.2-8-6.2-12.2-9l-4,4.5c5.1,3.2,8.9,6.4,11.6,9.6Z"/>
            <path class="cls-2" d="M367,44.5c-1.3,7.7-3.8,15.4-7.4,23.1,2.3,1.1,4.8,2.6,7.3,4.5.7-4.7,2.7-12.7,6-24-2.9-.7-4.8-1.9-5.9-3.6Z"/>
            <path class="cls-2" d="M437.3,33.9c2.8-3.3,5.4-6.4,7.7-9.4v13.9c0,2.6-.3,5.2-.8,7.7h6.4v-28.7c1.3-1.6,2.4-3,3.5-4.1s1.7-1.7,2-1.8c1-.4,1.5-.8,1.5-1.2s-.4-.7-1.2-1c-2.2-.8-4.4-2-6.6-3.7-1,3.7-3.2,8-6.7,12.7s-6.9,8.4-10.5,11c2.2,1.2,3.7,2.7,4.7,4.6Z"/>
            <path class="cls-2" d="M466.4,24c-4.3,2-8.4,3.4-12.3,4.3,1.7,1.5,2.8,3.3,3.2,5.3,4.1-1.8,7.1-3.1,9.1-4v4.5c0,3.2.4,5.4,1.2,6.5s1.9,1.8,3.5,2.2c1.5.4,4.5.6,8.8.6s7.5-.2,9.6-.5,3.6-1.1,4.4-2.3,1.7-3.6,2.6-7.2c-2.1-.2-4.2-1.5-6.4-3.7,0,2.8-.4,4.8-.8,5.8s-1.2,1.7-2.5,2c-1.2.3-3.3.4-6.1.4s-4.8,0-5.8-.4-1.7-.8-2-1.4c-.3-.7-.4-1.7-.4-3.1v-6.3c3.7-1.8,6.7-3.4,8.9-4.8s4.3-2.6,6.2-3.5,3.1-1.4,3.7-1.6c1.2-.2,1.8-.6,1.8-1s-.3-.8-.9-1.2c-1.2-.8-2.7-2.5-4.7-4.9-3.4,3.9-8.4,7.7-15,11.3v-11.1c0-.7.4-1.4,1.2-2,.3-.3.5-.6.5-.9s-.3-.4-.9-.4h-2.1c-2.4,0-4.2,0-5.3-.6.4,1.3.6,3.8.6,7.6v10.4h0Z"/>
            <path class="cls-2" d="M469.6,46.2c.7-.4,1-.7,1-1s-.5-.5-1.5-.5c-2.7,0-5.2-.2-7.5-.7.3,1.3.6,4,.7,8.2-11.2,0-20.6-.2-28.3-.7v6.5c6.9-.4,16.3-.7,28.3-.7v7.4c0,2.7-.2,5.6-.5,8.5h7.4c-.4-2.3-.6-5.2-.6-8.5v-7.4c11.1,0,20.6.2,28.3.7v-6.6c-7.7.5-17.1.7-28.3.7,0-3.5.3-5.6,1-5.9h0Z"/>
            <path class="cls-2" d="M520.3,22.3c-2-4.8-3.8-9-5.6-12.7l-6.2,2.3c2.2,3.8,3.9,8.1,5,12.8l6.8-2.4Z"/>
            <path class="cls-2" d="M528.6,63.2c-3.8-1.8-7.1-2.9-9.9-3.4v-19.6c0-3.4.3-6.3.8-8.6-2.1.3-4.3.5-6.6.5s-4.7-.2-7-.5v6.3c1.7-.3,4-.4,6.9-.4v23c-1.8.8-4.5,2.9-8,6.3,2.1,1.1,4,2.7,5.8,4.6,1.5-2.3,2.8-4,3.9-5.1,1.1-1,2.2-1.6,3.3-1.6s2.6.5,4.5,1.6c3.1,1.7,6.2,2.9,9.5,3.5,3.3.7,8,1,14.2,1s13.6,0,22.3-.4c.2-2.6,1-5.3,2.4-8-12.3,1.9-21.7,2.8-28.2,2.8-6.7-.2-11.2-.8-13.9-2Z"/>
            <path class="cls-2" d="M521.5,55c2.5.9,4.5,2.6,5.9,4.9,4.1-3.2,7.4-6,9.6-8.6,2.3-2.6,4.4-5.7,6.3-9.3v5c0,5.4-.2,9.9-.5,13.7h6.6c-.4-4.5-.6-9.1-.6-13.7v-6.2c7.4,0,13,.2,17.1.5-.3-2.1-.5-5.2-.5-9.3s.2-7.2.5-9.6c-5,.3-10.7.5-17.1.6v-5.4c7.4,0,13.9.3,19.6.7v-6.2c-5.2.4-11.8.6-19.6.6v-2.2c0-1.2.4-2.1,1.1-2.8s1.1-1.2,1.1-1.4-.4-.4-1.2-.4c-3.1,0-5.4-.2-6.9-.6.3,1.9.5,4.4.5,7.4-6.9,0-13.3-.3-19.3-.7v6.4c5.6-.4,12.1-.7,19.3-.7v5.4c-7.1,0-12.6-.2-16.4-.6.4,2.5.6,5.6.6,9.1s-.2,6.7-.6,9.6c3.7-.2,7.8-.4,12.4-.4-4.2,6.5-10.1,11.2-17.9,14.2h0ZM548.8,27.9h11.1v8.3h-11.1v-8.3h0ZM532.9,36.1v-8.3h10.4v8.3h-10.4Z"/>
            <path class="cls-2" d="M551,47.3c5.9,3.2,10.4,6.7,13.4,10.5l4.4-5.4c-3.6-2.6-8.1-5.7-13.7-9.3l-4.1,4.2h0Z"/>
            <path class="cls-2" d="M579.8,11.5v6.5c2.6-.4,6-.7,10.2-.7-2.3,10.7-6.4,18.7-12.2,24.2,1,2.1,1.8,4.3,2.3,6.6,1.9-2.4,3.7-4.9,5.6-7.5v17.8c0,2.6,0,5.8-.2,9.6h5.4v-9.7h8.6v4.7h5.8c-.3-3.5-.4-6.6-.4-9.6v-12.3c0-4.2,0-7.5.4-9.8-.7.3-5.5.5-14.2.6,2.3-3.8,3.9-8.8,4.8-14.8,4,0,7.5.3,10.7.7v-6.5c-2.7.4-7.2.7-13.4.7-6.3.2-10.8,0-13.4-.5h0ZM599.5,36.8v16.7h-8.6v-16.7h8.6Z"/>
            <path class="cls-2" d="M638.2,9.6c-3.2.4-7.7.6-13.4.6s-10.4-.2-14-.6v6.9c4.6-.4,8.5-.7,11.7-.7h9l-2.3,24.1h-10.4c.5-6.6.8-10.7,1.1-12.2.2-1.5.5-2.4,1-2.9.4-.4.7-.8.7-1.1s-.4-.5-1.2-.5c-1.8,0-4.1-.2-6.9-.6,0,7.8,0,15.4-.7,22.9,2.9-.4,7-.6,12.3-.6h12c0,3.5-.3,7-.6,10.6s-.6,6-.9,7.3c-.3,1.3-.9,2.3-1.6,2.8s-1.9.8-3.3.8-3.3,0-5.4-.4c1.5,2,2.6,4.5,3.3,7.2,2.4-.3,4.4-.7,5.9-1.1,1.6-.4,2.8-1,3.8-1.7s1.7-1.5,2.2-2.5.8-2.3,1-3.8l1.1-16.4c.2-3.8.5-6.7.7-8.5-2.4.3-5.1.5-8.1.5l3-30.1h0Z"/>
            <path class="cls-2" d="M631.8,52.9c-2.5.3-6.3.5-11.6.5s-9.1-.2-11.5-.5v6.2c2-.3,5.6-.5,10.8-.5s9.3.2,12.3.5v-6.2Z"/>
            <path class="cls-2" d="M671.7,33c4.3,0,7.7.2,10.1.5v-5.8c-2.2.3-5.6.5-10.1.6v-12.1c3.7-.8,6.8-1.2,9.3-1.2s1.5,0,2.1.2.9,0,.9-.2c0-.3-.2-.6-.7-1s-1.1-1.2-1.9-2.5c-.8-1.3-1.4-2.4-1.6-3.4-2.5,1.2-6.2,2.3-11,3.5-4.8,1.1-9.1,1.8-13,2.1,1.1,1.6,1.8,3.3,2.1,5.3,1.9-.3,4.7-.8,8.3-1.5v11c-4.9,0-8.9-.2-12.2-.6v5.8c2.5-.3,6.4-.5,11.7-.6-3.8,9.3-8.5,16.5-14,21.8,1.6,1.8,2.9,3.5,3.8,5.3,4.5-5.9,8.1-12,10.7-18.2v17.1c0,3.7-.2,7.8-.6,12.6h6.6c-.4-4.4-.6-8.6-.6-12.6v-26.1h.1Z"/>
            <path class="cls-2" d="M698.7,24.7c-2-3.2-4.4-6.3-7-9.5l-4.8,3c2.2,2.9,4.4,6.1,6.4,9.8l5.4-3.3h0Z"/>
            <path class="cls-2" d="M717.3,43.9c-3,.8-5.9,1.5-8.8,1.9V12.1c0-1,.4-1.7,1.1-2.1.7-.4,1.1-.7,1.1-1.1s-.5-.5-1.6-.5c-2.9,0-5.3-.2-7.4-.6.7,2.8,1,6.9,1,12.3v26.5c-10.8,1.6-17.8,2.4-21,2.5l.8,6.1c2.8-.7,9.6-1.8,20.2-3.4,0,9.3-.2,16.2-.7,20.7h7c-.4-4.6-.6-11.8-.6-21.5,3.2-.4,6.4-.7,9.6-.9l-.7-6.2h0Z"/>
            <path class="cls-2" d="M697.1,40.7c-1.7-2.8-3.8-5.7-6.4-8.9l-4.8,2.6c2,2.8,4.1,6.1,6.1,10l5.1-3.7h0Z"/>
            <path class="cls-2" d="M675.6,37.8l-3.4,2.8c1.9,2.4,3.6,5.2,5.1,8.3l4.7-3.7c-1.8-2.3-4-4.9-6.4-7.4h0Z"/>
            <path class="cls-2" d="M748.4,39.5v-2.4c-1.8.6-4.3,1.5-7.5,2.6v-12.3c2.2,0,4.3.2,6.4.6v-6.6c-1.7.3-3.8.5-6.4.5v-9.9c0-1.2.4-2.1,1.2-2.7.8-.6,1.2-1.1,1.2-1.5s-.5-.6-1.5-.6h-2.1c-1.6,0-3.4,0-5.4-.3.5,2.2.7,7.2.7,15.1-4.5,0-7.9-.2-10.1-.6v6.6c2.4-.4,5.7-.7,10.1-.7v14.2c-3.7.9-7.3,1.7-10.7,2.4.6,2,1.1,4.6,1.5,7.6,2.9-1.5,6-2.8,9.1-4.1v15.3c0,1.6-1.8,2.3-5.3,2.3s-2.7,0-4.3-.3c1.7,2.4,2.9,5,3.6,7.7,3.8-.7,6.5-1.3,8.1-1.8s2.6-1.1,3.1-1.9.7-1.9.7-3.5v-20.1c2.6-.8,5.3-1.6,8.1-2.3-.4-1.1-.6-2.3-.6-3.3h.1Z"/>
            <path class="cls-2" d="M784.8,32.3c-4.8.5-9.1.8-13,.8v-10.9c7.4,0,13,.2,16.7.6v-6.5c-4.4.4-10,.6-16.7.6v-5.8c0-1.4.3-2.2.9-2.6.6-.3.9-.6.9-.9s-.4-.4-1.2-.4c-2.5,0-5-.2-7.4-.6.4,2.3.6,5.7.7,10.2-6.3,0-11.7-.3-16.1-.6v6.5c3.4-.3,8.7-.5,16.1-.6v10.9c-7.8,0-12.9-.3-15.4-.6v6.3l4.3-.4c2.1,8.1,5,14.5,8.6,19.1-4.6,4.6-10.7,8-18.1,10.2,2.5,1.1,4.4,2.8,5.6,5.2,6.3-3.6,11.9-7.3,16.7-11.2,6.4,5.3,13,8.9,19.9,10.7.9-2.8,2.1-5.4,3.8-7.7-7.7-1.2-14.2-3.5-19.4-7.1,5.9-6.3,10.3-14.7,13.1-25.2h0ZM760.7,38.3h15.8c-.8,4.1-3.8,9.2-9,15.3-3.3-4.7-5.6-9.8-6.8-15.3Z"/>
            <path class="cls-2" d="M820,36.1v6.2c4.8-.4,11-.6,18.8-.6s14,.2,18.8.6v-6.2c-4.8.4-11.1.6-18.8.6-7.6,0-13.9-.2-18.8-.6Z"/>
            <path class="cls-2" d="M857.1,47c-2.2.4-8.3.7-18.1.7s-15.9-.2-18.4-.7c.3,1.6.5,3.8.5,6.4v12.8c0,2.4-.2,4.5-.5,6.4h6.4v-6.1h23.7v4.6h6.4c-.3-1.9-.5-4.1-.5-6.5v-11.2c0-2.1,0-4.3.5-6.4h0ZM850.7,61.5h-23.7v-8.7h23.7v8.7Z"/>
            <path class="cls-2" d="M817.3,15.4v6.4c5.7-.4,12.7-.6,21.1-.6s16.1.2,23.2.6v-6.4c-5.1.5-12.2.7-21.4.7s-16.8-.2-22.9-.7h0Z"/>
            <path class="cls-2" d="M857.3,26c-4.7.4-11.1.6-19.1.6s-13.9-.2-17.8-.6v6.2c3.8-.4,9.7-.6,17.8-.6s14.4.2,19.1.6v-6.2Z"/>
            <path class="cls-2" d="M816.2,9c-1.9-.3-4.1-1.1-6.6-2.4-.8,4.5-2.3,9.6-4.5,15.3s-5.2,10.5-8.9,14.4c2.1,1.5,3.6,3.3,4.4,5.3,2.2-3.2,4-5.9,5.4-8.3v25.6c0,5.1-.3,9.7-.9,13.9h6.9V20.8l2.8-6.8c.7-1.7,1.3-2.8,1.9-3.2.6-.4.9-.8.9-1.1,0-.4-.5-.6-1.4-.7h0Z"/>
            <path class="cls-2" d="M844.5,12.7c-.5-1.5-1.5-3.8-2.8-7l-7.8,1.9c1.2,2.4,2,4.9,2.5,7.4,0,0,8.1-2.3,8.1-2.3Z"/>
            <path class="cls-2" d="M920.6,54.9c4.4,3.7,8,7.7,10.7,11.8l5.3-4.8c-2.1-2.2-5.7-5.9-10.7-11l-5.3,4Z"/>
            <path class="cls-2" d="M905.6,61l6.5-2.9c-1.8-2.8-3.6-5.7-5.6-8.6l-5.9,2.8c2.1,2.4,3.8,5.3,5,8.7Z"/>
            <path class="cls-2" d="M870.8,68.4l6.6,1.8c1.2-4.8,2.9-9.9,5.2-15.4l-6.4-.9c-.7,4.5-2.5,9.3-5.4,14.5h0Z"/>
            <path class="cls-2" d="M880.5,48c1.6-.4,8.7-.7,21.4-.7s21,.2,25.1.7c-.3-2.1-.4-6-.4-11.7v-12.1c0-5.4,0-9.2.4-11.4-4.1.4-13.6.7-28.4.7.9-1.9,1.5-3.3,2-4s1-1.3,1.6-1.7.9-.8.9-1c0-.3-.3-.4-.9-.4s-1.7,0-3.2-.4-3-.7-4.4-1.1c0,1.5-.8,4.4-1.8,8.7-5.6,0-9.7-.3-12.3-.7.3,3,.4,6.8.4,11.4v12.1c0,4.3,0,8.2-.4,11.6h0ZM886.6,18.1h34v5.3h-34v-5.3ZM886.6,27.7h34v5.3h-34v-5.3ZM886.6,37.5h34v5.2h-34v-5.2Z"/>
            <path class="cls-2" d="M916.9,58c-.6,2.9-1.4,4.8-2.2,5.8-.9,1-3,1.7-6.5,1.9s-6.5.4-8.9.4-4-.2-4.6-.7-.9-1.3-.9-2.5v-7.8c0-.6,0-1.1.2-1.4,0-.3.4-.6.8-.9.4-.3.6-.6.6-.8s-.2-.4-.7-.4l-1.7.2c-1.8,0-3.8-.2-5.9-.6.4,1.6.7,3.7.7,6.4v6.4c0,3.5.7,5.5,2.2,6.1s4.6,1,9.4,1,8.8,0,11.9-.4,5.2-.6,6.3-1,2-1,2.6-1.9,1.5-2.7,2.7-5.4c-2.7-.7-4.7-2.1-6-4.4h0Z"/>
            <path class="cls-2" d="M1001.9,47c1.2-3.5,2.3-7.9,3.4-13.2-3,.3-6.6.5-11,.5h-12.3V15.7h16l-.4,5.3c-.2,2.4-1.8,3.7-4.7,3.7s-2.6-.2-4.2-.5c1.3,2.3,2,4.5,2.2,6.4,4-.2,7-.9,8.8-1.9s2.8-2.9,3.1-5.8l.6-7.6c0-1.7.3-3.3.5-4.7-3.5.2-8.1.4-13.8.4s-10.3,0-13.6-.4c.3,2.6.4,5.7.4,9.3v35.6c0,6.5-.2,12.1-.5,16.7h5.6v-33.1h2.4c1.2,8.9,3.3,15.4,6.5,19.4-2.1,2.9-4.9,5.5-8.5,8,1.7,1.1,3,2.5,3.9,4.2,3.2-3,5.7-5.8,7.7-8.5,2.9,3,6.7,5.8,11.5,8.3.9-2.1,2.6-4.1,5-6-5.6-1.2-10.1-3.4-13.7-6.6,2.2-3.8,3.9-7.4,5.1-10.9ZM993.6,54.2c-2.3-3.6-3.8-8.6-4.2-15.1h9.4c-.9,5.7-2.7,10.7-5.2,15.1h0Z"/>
            <path class="cls-2" d="M950.4,10.4c.3,1.9.4,5,.4,9.3v16.7c0,15.3-2.1,26-6.3,32,2.1,1,4,2.4,5.6,4.2,3.1-6.5,5.1-14.7,5.8-24.4h10.4v14.1c0,1-.4,1.8-1.2,2.2-.8.5-1.9.7-3.2.7s-2.4,0-3.4,0c1.6,1.9,2.5,4.1,2.6,6.4,4.3-.6,7.1-1.3,8.5-2.2s2-2.3,2-4.3V19.8c0-3.6,0-6.7.4-9.3-3.2.3-7,.4-11.4.4s-7.8-.2-10.2-.5h0ZM966.3,43.7h-10.3v-12.6h10.3v12.6ZM966.3,26.8h-10.3v-11.2h10.3v11.2Z"/>
            <path class="cls-2" d="M1052.6,43.7c.5-1.3.9-2.1,1.3-2.4s.6-.5.6-.7-.3-.2-.8-.2c-2.2,0-4.9-.4-8-1.2v3.8c0,1.6,0,3.3-.4,5.4-8.9,0-14.8-.3-17.7-.7v6.6c3.4-.4,8.9-.7,16.6-.7-1.3,3.8-3.7,6.8-7.3,8.9-3.6,2.1-9,3.6-16.2,4.6,1.9,1.6,3.5,3.7,4.6,6.4,8.4-2.7,14.3-5.4,17.9-8.3s5.9-6.7,7.1-11.6h16.6l-.5,6.8c0,1.9-.8,3.2-1.8,4.1-1.1.8-2.5,1.2-4.4,1.2s-3.9,0-6.2-.4c2.1,2.4,3.5,4.9,4.1,7.5,4.8-.2,8.4-1.1,10.7-2.6,2.3-1.5,3.7-4.7,4-9.7l.9-12.8c-3.2.4-10.7.7-22.3.7.2-1.9.6-3.5,1.1-4.7h.1Z"/>
            <path class="cls-2" d="M1073.5,12.6c-5.2.5-11,.8-17.6.8h-14.4c1.8-2.7,3.3-4.2,4.4-4.4.6,0,.9-.3.9-.7s-.3-.6-1-.7c-2.4-.4-5.2-1.4-8.2-2.9-1.3,4.9-3.3,9.4-6,13.7s-5.7,7.5-8.9,9.8c2.6.4,4.6,1.5,6.1,3.3,3.3-3.7,6.2-7.6,8.7-11.5,2.8,4.6,6.1,8.4,9.7,11.3-8.2,4.4-18.3,7.4-30.1,8.8,1.6,2,2.5,4,2.8,5.9,11.1-1.8,21.8-5.6,32-11.4,6.9,4.4,16.5,7.6,28.8,9.6.4-2.5,1.3-4.9,2.8-7.2-11.8-.9-20.6-2.8-26.4-5.8,7.3-5,12.7-11.2,16.4-18.6h0ZM1042.2,18.1h21c-3.5,3.8-7.1,7.2-11,10.2-3.4-2.4-6.7-5.8-10-10.2Z"/>
            <path class="cls-2" d="M1108.7,4.5h-5.8c-4.8,11.2-7.2,23.6-7.2,37.1s1.9,23.4,5.8,32.9h5.6c-4-9.6-6-20.8-6-33.5s.7-12.9,2-19.3c1.2-6.4,3.1-12.1,5.6-17.2Z"/>
            <path class="cls-2" d="M1142.9,15.5h30.5v7.8h6.1v-13.7c-3.1.5-10.1.8-20.9.8s-18.1-.3-21.7-.8v13.7h6v-7.8Z"/>
            <path class="cls-2" d="M1130.1,21.2l4.2-5.1c-3.1-3.4-6-6.1-8.6-8.3l-4,4.6c2.5,1.9,5.3,4.8,8.4,8.8Z"/>
            <path class="cls-2" d="M1163.1,44.8c9.4,0,15.3.3,17.5.5v-6.1c-4.8.4-12,.7-21.6.7v-3.7c0-1.5.3-2.4,1-2.9s1-.8,1-1.1-.5-.5-1.5-.7c-1,0-3.3-.3-6.9-.5.3,2.5.5,5.4.6,8.8-8,0-13.9-.3-17.7-.7v6c1.4,0,5.8-.3,13.1-.4-2.3,4.2-5.3,8.2-9,12s-7.1,6.4-10.3,7.8c2.3,1,4.3,2.2,5.9,3.8,3.4-2.6,6.7-6,10-10.2s6-8.6,8.1-13.1v17.5c0,3-.2,6.4-.7,10h7.1c-.3-3.8-.5-7.1-.5-10v-17.7h.3c1.6,5.8,3.9,10.5,6.8,14.2s6.8,6.6,11.7,9c1.2-2.2,2.8-4.2,4.7-6-9-2.1-15.4-7.8-19.6-17.2h0Z"/>
            <path class="cls-2" d="M1165,19.9l-4.8,3.1c4,3.3,7.8,7.3,11.4,11.9l5.4-3.7c-3.3-3.9-7.3-7.6-12-11.3Z"/>
            <path class="cls-2" d="M1140.8,35.8c4.2-3.5,7.3-6.3,9.3-8.4,2-2,3.4-3.1,4.1-3.2s1.1-.3,1.1-.6-.3-.6-.9-1c-1.3-.9-2.9-2-4.9-3.5-1.1,2.1-3,4.4-5.7,7s-5.3,4.6-8,6.2c2,.7,3.7,1.9,5,3.5Z"/>
            <path class="cls-2" d="M1132.3,45.3c-2.4-.6-4.3-1.7-5.7-3.4-.6,2.7-1.7,6.6-3.4,11.5-1.7,4.9-3.5,9.4-5.6,13.4,2.6.9,5.2,2.2,7.7,3.7.9-4.1,2.2-9.2,3.9-15.3,1.9-6.1,2.9-9.4,3.1-9.9Z"/>
            <path class="cls-2" d="M1127,37.2l4.2-5c-2.5-2.3-6-4.9-10.4-7.8l-3.4,4.8c3.9,2.4,7.1,5.1,9.6,8h0Z"/>
            <path class="cls-2" d="M1223.5,9h-2c-1.4,0-3,0-5-.4.5,3.3.7,10.3.7,21.1s-.4,18.4-1.2,22.9c-.8,4.5-2,8-3.6,10.6s-3.6,5-6,7.2c3.3,1,5.6,2.1,7,3.3,2.2-3,4-6,5.4-9.2s2.4-7.6,3.1-13.2,1-15.8,1-30.6.3-9.9.8-10.5c.3-.3.4-.6.4-.8,0-.3,0-.4-.6-.4h0Z"/>
            <path class="cls-2" d="M1212.7,51.8c0-1.1,0-2.2.4-3.2-2.3,1.1-5.2,2.3-8.5,3.4v-20.2c3.4,0,6.1,0,8.2.4v-6.4c-2,.4-4.8.6-8.2.7v-14c0-1.3.3-2.2.8-2.5.5-.4.8-.7.8-.9,0-.3-.3-.4-.9-.4-3.1,0-5.4,0-6.9-.4.4,2.2.6,5.3.6,9.3v9.1c-3.5,0-6.1-.3-7.7-.7v6.4c1.8-.2,4.4-.4,7.7-.5v21.9c-3.8,1.1-7.1,1.9-9.8,2.4,1,1.9,1.9,4.4,2.6,7.4,6.7-3.6,13.8-6.5,21.1-8.7-.2-.9-.2-2-.2-3.1Z"/>
            <path class="cls-2" d="M1236.7,13.2l-2.3.2c-1.4,0-2.8-.2-4.2-.6.4,2.1.6,5.4.6,9.6v32.2c0,5.5,0,9.5-.4,11.9h6.4c-.3-2.4-.4-6.4-.4-11.9V16.5c0-.8,0-1.3.2-1.6s.3-.6.7-.8c.3-.2.5-.5.5-.7s-.5-.2-1.1-.2h0Z"/>
            <path class="cls-2" d="M1250.9,7.6c-3.1,0-5.5-.2-7-.6.4,2.3.6,5.6.6,9.7v44.5c0,5.7,0,9.7-.4,12h6.9c-.3-2.2-.4-6.2-.4-12V11.5c0-1.3.4-2.2,1.2-2.7.3-.2.4-.4.4-.7s-.5-.5-1.3-.5h0Z"/>
            <path class="cls-2" d="M1263.5,4.5c2.5,5.1,4.4,10.8,5.7,17.2,1.3,6.4,2,12.8,2,19.3,0,12.7-2,23.9-6,33.5h5.6c3.8-9.4,5.8-20.4,5.8-32.9s-2.4-25.9-7.2-37.1c0,0-5.9,0-5.9,0Z"/>
            <path class="cls-2" d="M1320.4,15.5c1.2-3.4,2.7-5.7,4.5-6.8.6-.4.9-.7.9-1s-.4-.4-1.2-.5c-2.8-.4-5.5-1-8-1.9-.7,3.2-1.7,6.6-3.1,10.2-8.3,0-15.5-.3-21.7-.7v6.3c5.5-.4,11.9-.7,19.4-.7-5.6,10.9-12.5,19.2-20.7,25.1,2,.8,3.9,2,5.6,3.8,3.8-3.9,7.2-7.6,9.9-11.1v23c0,3.2-.2,6.7-.7,10.4h6.8v-15.3h26.7v4.2c0,1.9-.3,3.1-.8,3.6-.6.6-1.4.8-2.6.8s-2.7,0-4.6-.4c1.6,2.4,2.5,4.9,2.7,7.4,4-.7,6.8-1.4,8.3-1.9s2.4-1.3,2.7-2.3c.4-1,.5-2.8.5-5.4v-24.8c0-3.7.2-7.1.6-9.9-4.9.5-11.4.7-19.6.7h-12.9c1.9-3.1,3.5-5.7,4.7-8,19.4,0,31.8.2,37.1.7v-6.3c-3.6.3-7.1.5-10.7.5s-11.5.3-23.8.3h0ZM1338.9,51.6h-26.7v-7.2h26.7v7.2ZM1338.9,33.2v6.4h-26.7v-6.4h26.7Z"/>
            <path class="cls-2" d="M1412.4,53.5c6.6-5.1,10.6-7.9,12.1-8.4.3,0,.4-.2.4-.4s0-.3-.3-.5c-1.8-1.2-3.4-2.8-4.8-4.7-2.3,3.5-5.5,6.7-9.3,9.7-1-3.1-1.8-6.7-2.3-10.7,7.1,0,11.9.2,14.2.6-.3-3-.4-5.7-.4-8.2v-14.1c0-2.3,0-4.9.4-7.7-3.2.4-8.2.7-15,.7s-12-.2-15.5-.7c.2,1.8.4,4.4.4,7.7v44c0,1.9-.2,3.2-.6,4.2-.4.9-1.1,1.7-2.2,2.2,1.3,1.8,2.3,3.6,3.1,5.4,1.3-1.2,2.9-2.3,4.7-3.4l9.2-5.3c-.5-1.7-.9-3.6-1.1-5.7-1.6,1-4.1,2.5-7.5,4.4v-24h5.5c1.6,16.1,8.7,26.8,21.4,32,.7-2.5,1.9-4.9,3.8-7-7.6-2.1-12.9-5.4-16.2-10.1h0ZM1397.6,14.2h18.6v8h-18.6v-8ZM1397.6,34.2v-7.6h18.6v7.6h-18.6Z"/>
            <path class="cls-2" d="M1377.9,9.7c-4.7,0-8.4-.2-11.4-.6.3,2.3.5,4.8.5,7.6v37.5c0,5.7,0,11.4-.3,17.1h6.1V15h8.4l-5.8,19c3.7,4.2,5.6,8.1,5.6,11.7s-.2,2.5-.7,3.8c-.4,1.3-1.1,2.1-1.9,2.3-.8.3-2.5.4-4.9.4,1.8,2.1,2.7,4.4,2.8,6.9,7-1.1,10.5-4.8,10.5-11.2s-2.2-9.9-6.5-15l8.9-23.8c-2.9.4-6.7.6-11.3.6h0Z"/>
            <path class="cls-2" d="M1480,8.4c-1.8.9-4,1.3-6.8,1.3,4,12.8,11.8,24.1,23.2,34.1,1.6-2.8,3.7-5.1,6.4-6.8-11.3-5.9-18.9-15.4-22.8-28.6h0Z"/>
            <path class="cls-2" d="M1458.8,19.8c.8-1.6,1.6-3,2.4-4.4s1.5-2.2,2-2.4.7-.5.7-.8-.3-.5-.8-.6c-2-.4-4.4-1.3-7-2.6-1.7,5.6-4.6,11.5-8.5,17.4-4,6-8.3,10.5-12.8,13.7,3.1,1.4,5.4,2.8,7,4.2,3.5-3.3,6.8-7.5,10.2-12.6,3.2-5.2,5.5-9.1,6.8-11.9h0Z"/>
            <path class="cls-2" d="M1475.4,48.9c2.2,3.1,4.3,6.5,6.4,10.2l-28.7,1.8c5-6.6,9.9-13.6,14.6-20.9,1.4-2.2,2.5-3.5,3.2-3.9s1.1-.7,1.1-1-.4-.6-1.2-.8c-1.8-.5-4.2-1.7-7.4-3.4-1.7,5.6-4.9,12.1-9.8,19.4s-8.3,11-10.2,11.2c1.3,2.5,2.2,4.8,2.6,7.1,5.8-1.7,18.7-3.2,38.6-4.5,1.5,3,2.5,5.3,3.1,6.9l7.2-4.2c-4.1-6.9-8.8-13.8-14.1-20.7l-5.4,2.8h0Z"/>
            <path class="cls-2" d="M1555,30.1v-6.4c-3.6.4-9.9.7-18.9.7s-16.8-.2-23.5-.7v6.4c6.6-.4,14.2-.7,22.8-.7s15.2.2,19.6.7Z"/>
            <path class="cls-2" d="M1552,62.1c-.3-2.4-.5-5.2-.5-8.3v-9.6c0-2.7.2-5.2.5-7.5-2.9.3-8.6.5-17.1.5s-14.4-.2-17.6-.5c.3,2.2.5,4.8.5,7.6v9.6c0,3.5-.3,7.4-.8,11.7h6.7v-7.6h21.9v4.2h6.4ZM1523.7,52.6v-10.3h21.9v10.3h-21.9Z"/>
            <path class="cls-2" d="M1540.6,10.9c-11.1,0-19-.2-23.6-.7v6.6c3.4-.3,11.1-.4,23.2-.4h20.9v45.9c0,1.6-.4,2.5-1.3,2.9s-2,.6-3.6.6-3.3,0-5.3-.2c1.5,2.4,2.3,4.9,2.5,7.4,4.9,0,8.5-.4,10.7-1.5s3.3-3.6,3.3-7.3V18.9c0-4.2,0-7.1.3-8.7-6.9.4-16,.7-27.1.7Z"/>
          </g>
          <g>
            <line class="cls-1" x1="79.3" y1="37.2" x2="79.3" y2="37.2"/>
            <path class="cls-3" d="M57.6,125.5h23.1c2,0,3.7-1.7,3.7-3.7s-1.7-3.7-3.7-3.7h-23.1c-11.2,0-20.4-12.4-20.4-27.7V16.9c0-6.1-5-10.3-10.4-10.3s-10.4,4.3-10.4,10.3v73.4c0,24.8,15.8,45.5,36.7,48.2,1.4.2,2.9.3,4.4.3h16.4c1.6,0,2.9,1.3,2.9,2.9s-1.3,2.9-2.9,2.9h-16.4c-1.6,0-3.2,0-4.8-.3-24.1-2.8-42.2-26.1-42.2-54V10.3c0-2.1-1.7-3.7-3.7-3.7s-3.7,1.7-3.7,3.7v80c0,34.1,24.4,61.8,54.4,61.8h16.4c5.7,0,10.4-4.6,10.4-10.4s-4.6-10.4-10.4-10.4h-16.4c-18.6,0-33.6-18.4-33.6-41V16.9c0-1.6,1.3-2.9,2.9-2.9s2.9,1.3,2.9,2.9v73.4c0,19.4,12.5,35.2,27.8,35.2h.1Z"/>
            <path class="cls-3" d="M289.9,125.5h23.1c2,0,3.7-1.7,3.7-3.7s-1.7-3.7-3.7-3.7h-23.1c-11.2,0-20.4-12.4-20.4-27.7V16.9c0-6.1-5-10.3-10.4-10.3s-10.4,4.3-10.4,10.3v73.4c0,24.8,15.8,45.5,36.7,48.2,1.4.2,2.9.3,4.4.3h16.4c1.6,0,2.9,1.3,2.9,2.9s-1.3,2.9-2.9,2.9h-16.4c-1.6,0-3.2,0-4.8-.3-24.1-2.8-42.2-26.1-42.2-54V10.3c0-2.1-1.7-3.7-3.7-3.7s-3.7,1.7-3.7,3.7v80c0,34.1,24.4,61.8,54.4,61.8h16.4c5.7,0,10.4-4.6,10.4-10.4s-4.6-10.4-10.4-10.4h-16.4c-18.6,0-33.6-18.4-33.6-41V16.9c0-1.6,1.3-2.9,2.9-2.9s2.9,1.3,2.9,2.9v73.4c0,19.4,12.5,35.2,27.8,35.2h.1Z"/>
            <path class="cls-3" d="M100,10.3c0-2.1-1.7-3.7-3.7-3.7s-3.7,1.7-3.7,3.7v45.7h7.4s0-45.7,0-45.7Z"/>
            <path class="cls-3" d="M105.9,141.7c0,1.6-1.3,2.9-2.9,2.9s-2.9-1.3-2.9-2.9v-66.5h-7.4v66.5c0,5.7,4.7,10.4,10.4,10.4s10.4-4.6,10.4-10.4v-66.5h-7.4v66.5h-.2Z"/>
            <path class="cls-3" d="M113.3,16.9c0-1.6,1.3-2.9,2.9-2.9s2.9,1.3,2.9,2.9v39.1h7.4V16.9c0-5.7-4.7-10.4-10.4-10.4s-10.4,4.6-10.4,10.4v39.1h7.4V16.9h.2Z"/>
            <path class="cls-3" d="M119.2,148.3c0,2.1,1.7,3.7,3.7,3.7s3.7-1.7,3.7-3.7v-73.2h-7.4v73.2Z"/>
            <path class="cls-3" d="M43.4,78.9c0,2.1,1.7,3.7,3.7,3.7h39.6v-7.4h-39.6c-2.1,0-3.7,1.7-3.7,3.7Z"/>
            <path class="cls-3" d="M132.5,48.6v7.5c26.3.6,47.5,22.3,47.5,48.7v43.6c0,2.1,1.7,3.7,3.7,3.7s3.7-1.7,3.7-3.7v-43.6c0-30.5-24.6-55.5-55-56.2h.1Z"/>
            <path class="cls-3" d="M131.4,61.9H53.8c-1.6,0-2.9-1.3-2.9-2.9s1.3-2.9,2.9-2.9h33v-7.4h-33c-5.7,0-10.4,4.6-10.4,10.4s4.6,10.4,10.4,10.4h78.7c1,0,2.1,0,3.1.3,17.7,2.2,31.1,17.3,31.1,35.2v37c0,1.6-1.3,2.9-2.9,2.9s-2.9-1.3-2.9-2.9v-37c0-15.9-12.6-28.9-28.4-29.6v7.5c11.6.6,20.9,10.3,20.9,22.1v37c0,5.7,4.7,10.4,10.4,10.4s10.4-4.6,10.4-10.4v-37c0-23.6-19.2-42.8-42.8-42.9v-.2Z"/>
            <path class="cls-3" d="M228.7,75.2v-.9c0-6.1-5-10.3-10.4-10.3s-10.4,4.3-10.4,10.3v51.2h0v16.2c0,1.6-1.3,2.9-2.9,2.9s-2.9-1.3-2.9-2.9v-66.5h0v-7.5c0-2.1-1.7-3.7-3.7-3.7s-3.7,1.7-3.7,3.7v7.5h0v66.5c0,5.7,4.7,10.4,10.4,10.4s10.4-4.6,10.4-10.4v-16.2h0v-51.2c0-1.6,1.3-2.9,2.9-2.9s2.9,1.3,2.9,2.9v.8h0v73.2c0,2.1,1.7,3.7,3.7,3.7s3.7-1.7,3.7-3.7v-73.2h0Z"/>
            <path class="cls-3" d="M299.7,48.6h-16.3c-6.1,0-10.3,5-10.3,10.4s4.3,10.4,10.3,10.4h22.8c1.6,0,2.9,1.3,2.9,2.9s-1.3,2.9-2.9,2.9h-29.5c-2.1,0-3.7,1.7-3.7,3.7s1.7,3.7,3.7,3.7h29.5c5.7,0,10.4-4.7,10.4-10.4s-4.6-10.4-10.4-10.4h-22.8c-1.6,0-2.9-1.3-2.9-2.9s1.3-2.9,2.9-2.9h29.4c2.1,0,3.7-1.7,3.7-3.7s-1.7-3.7-3.7-3.7h-13.2,0Z"/>
            <path class="cls-3" d="M227.5,36.5v-16.3c0-6.1-5-10.3-10.4-10.3s-10.4,4.3-10.4,10.3v22.8c0,1.6-1.3,2.9-2.9,2.9s-2.9-1.3-2.9-2.9v-6.6h0V13.5c0-2.1-1.7-3.7-3.7-3.7s-3.7,1.7-3.7,3.7v22.9h0v6.6c0,5.7,4.7,10.4,10.4,10.4s10.4-4.6,10.4-10.4v-22.8c0-1.6,1.3-2.9,2.9-2.9s2.9,1.3,2.9,2.9v16.2h0v13.2c0,2.1,1.7,3.7,3.7,3.7s3.7-1.7,3.7-3.7v-13.2h0Z"/>
          </g>
        </g>
      </g>
    </g>
  </g>
</svg>