<?xml version="1.0" encoding="utf-8"?>
<!-- Generator: Adobe Illustrator 27.9.0, SVG Export Plug-In . SVG Version: 6.00 Build 0)  -->
<svg version="1.1" id="Layer_1" xmlns="http://www.w3.org/2000/svg" xmlns:xlink="http://www.w3.org/1999/xlink" x="0px" y="0px"
	 viewBox="0 0 1070 184" style="enable-background:new 0 0 1070 184;" xml:space="preserve">
<style type="text/css">
	.st0{fill:url(#SVGID_1_);}
	.st1{fill:#464646;}
</style>
<g>
	<path d="M112.7,160.7V90h15.1v70.7H112.7z"/>
	<path d="M141.7,160.7V90h37.2c13.5,0,20.4,8.6,20.4,18c0,8.9-5.5,14.8-12.2,16.2c7.5,1.2,13.6,8.5,13.6,17.4
		c0,10.6-7.1,19.1-20.6,19.1H141.7z M156.8,118.4h18.9c5.1,0,8.3-3.3,8.3-7.8c0-4.3-3.2-7.7-8.3-7.7h-18.9V118.4z M156.8,147.9h19.4
		c5.7,0,9.1-3.3,9.1-8.4c0-4.5-3.2-8.3-9.1-8.3h-19.4V147.9z"/>
	<path d="M254,160.7l-21.4-28.3l-5.5,6.6v21.7H212V90h15.1v31.6l25-31.6h18.6l-28.1,33.2l30,37.5H254z"/>
	<path d="M319.4,160.7l-13.9-25.3h-11v25.3h-15.1V90h33.1c14.7,0,23.7,9.6,23.7,22.8c0,12.5-7.8,19.2-15.5,21l15.9,26.9H319.4z
		 M310.3,102.9h-15.8v19.5h15.8c6,0,10.6-3.8,10.6-9.8C320.9,106.8,316.3,102.9,310.3,102.9z"/>
	<path d="M376,160.7V90h46.3v7.8h-37.5v22.8h36.8v7.8h-36.8v24.4h37.5v7.8L376,160.7L376,160.7z"/>
	<path d="M497.8,160.7v-34.8c0-6.5-2.9-10.6-9.4-10.6c-5.3,0-10.9,3.8-13.6,7.8v37.5h-8v-34.8c0-6.5-2.8-10.6-9.4-10.6
		c-5.2,0-10.7,3.8-13.5,8v37.4h-8v-51.2h8v7.4c2.1-3.3,9-8.7,16.5-8.7c7.8,0,12.3,4.2,13.8,9.5c2.9-4.7,9.8-9.5,17.2-9.5
		c9.3,0,14.3,5.2,14.3,15.5v37L497.8,160.7L497.8,160.7z"/>
	<path d="M529.6,180.2h-8v-70.7h8v7.6c3.7-5.2,10.1-8.9,17.3-8.9c13.5,0,22.8,10.2,22.8,26.8c0,16.5-9.3,26.9-22.8,26.9
		c-7,0-13.1-3.3-17.3-9V180.2z M544.9,115.3c-6.3,0-12.5,3.7-15.3,8.2v23.1c2.8,4.5,9,8.3,15.3,8.3c10.3,0,16.4-8.5,16.4-19.8
		C561.3,123.7,555.1,115.3,544.9,115.3z"/>
	<path d="M582.5,160.7V90h8v70.7H582.5z"/>
	<path d="M603.4,135.1c0-14.8,9.8-26.8,25.3-26.8c15.6,0,25.3,12,25.3,26.8s-9.8,26.9-25.3,26.9C613.1,162,603.4,149.9,603.4,135.1z
		 M645.7,135.1c0-10.4-6-19.7-17-19.7c-10.9,0-17.1,9.3-17.1,19.7c0,10.5,6.1,19.8,17.1,19.8C639.6,154.9,645.7,145.5,645.7,135.1z"
		/>
	<path d="M665.4,173.5c1.2,0.5,3.1,0.8,4.3,0.8c3.5,0,5.8-1.2,7.6-5.4l3.4-7.7l-21.4-51.7h8.6l17.1,42l17-42h8.7L685,171.1
		c-3.1,7.4-8.3,10.3-15.1,10.4c-1.7,0-4.3-0.3-5.8-0.7L665.4,173.5z"/>
	<path d="M741.2,108.2c15.5,0,24.6,12.1,24.6,27.5v2h-41.4c0.6,9.6,7.4,17.7,18.4,17.7c5.8,0,11.8-2.3,15.8-6.5l3.8,5.2
		c-5.1,5.1-12,7.8-20.4,7.8c-15.2,0-26.1-10.9-26.1-26.9C715.9,120.2,726.5,108.2,741.2,108.2z M724.3,131.9h33.6
		c-0.1-7.6-5.2-17.1-16.9-17.1C730.1,114.8,724.7,124,724.3,131.9z"/>
	<path d="M800.8,108.2c15.5,0,24.6,12.1,24.6,27.5v2H784c0.6,9.6,7.4,17.7,18.4,17.7c5.8,0,11.8-2.3,15.8-6.5l3.8,5.2
		c-5.1,5.1-12,7.8-20.4,7.8c-15.2,0-26.1-10.9-26.1-26.9C775.6,120.2,786.2,108.2,800.8,108.2z M784,131.9h33.6
		c-0.1-7.6-5.2-17.1-16.9-17.1C789.8,114.8,784.4,124,784,131.9z"/>
	<path d="M845.4,160.7V97.8H823V90h53.6v7.8h-22.5v62.9L845.4,160.7L845.4,160.7z"/>
	<path d="M879,160.7v-51.2h8v8.3c4.1-5.4,10.1-9.3,17.1-9.3v8.2c-1-0.2-1.9-0.3-3.2-0.3c-4.9,0-11.6,4-13.9,8.2v36.3h-8L879,160.7
		L879,160.7z"/>
	<path d="M945.9,160.7v-5.8c-4.2,4.7-10.1,7.1-17,7.1c-8.7,0-17.9-5.8-17.9-17c0-11.4,9.2-16.9,17.9-16.9c7,0,12.8,2.2,17,7v-9.2
		c0-6.9-5.5-10.8-12.9-10.8c-6.1,0-11.1,2.2-15.7,7.1l-3.7-5.5c5.5-5.7,12.1-8.5,20.5-8.5c10.8,0,19.8,4.9,19.8,17.3v35.2H945.9z
		 M945.9,140.2c-3.1-4.2-8.5-6.4-14.1-6.4c-7.4,0-12.6,4.7-12.6,11.2s5.2,11.1,12.6,11.1c5.6,0,11-2.1,14.1-6.4V140.2z"/>
	<path d="M992.4,108.2c9.3,0,14.8,3.8,18.8,8.9l-5.3,4.9c-3.4-4.7-7.7-6.7-13-6.7c-10.9,0-17.7,8.4-17.7,19.7s6.8,19.8,17.7,19.8
		c5.3,0,9.6-2.1,13-6.7l5.3,4.9c-3.9,5.1-9.4,8.9-18.8,8.9c-15.3,0-25.5-11.7-25.5-26.9C966.8,119.9,977.1,108.2,992.4,108.2z"/>
	<path d="M1057.1,160.7l-18.4-23l-8.5,8.4v14.6h-8V90h8v46.7l26.9-27.2h10.1l-22.7,23.2l22.8,28H1057.1z"/>
</g>
<g>
	
		<linearGradient id="SVGID_1_" gradientUnits="userSpaceOnUse" x1="5943.6724" y1="-542.15" x2="6013.6724" y2="-542.15" gradientTransform="matrix(-1 0 0 -1 6016.3726 -420)">
		<stop  offset="0" style="stop-color:#464646"/>
		<stop  offset="1" style="stop-color:#000000"/>
	</linearGradient>
	<polygon class="st0" points="72.7,160.7 2.7,160.7 2.7,83.6 	"/>
	<circle class="st1" cx="62.9" cy="102.5" r="20.9"/>
	<polygon class="st1" points="72.7,2.5 2.7,83.6 2.7,160.7 	"/>
</g>
</svg>
